<svg width="357" height="116" viewBox="0 0 357 116" fill="none" xmlns="http://www.w3.org/2000/svg">
<g clip-path="url(#clip0_2012_9)">
<path d="M-142.893 -184.384C-148.439 -168.689 -142.672 -158.205 -140.848 -143.254C-137.153 -111.559 -130.602 -68.0698 -115.895 -36.2275C-105.215 -12.1766 -90.0491 10.4608 -71.5205 29.3941C-70.5764 30.3625 -69.6025 30.5374 -69.1718 30.9683C-65.1688 35.0348 -58.4385 42.0084 -53.9905 45.6167C-44.8746 53.4205 -27.7539 65.2876 -18.017 70.0232C-13.9319 72.1124 -9.73423 74.2223 -7.53496 73.817C-6.03065 74.5181 -5.77953 76.0279 -5.42027 76.2852C-5.4153 76.2863 -5.41027 76.2875 -5.40531 76.2886C-4.24712 77.1142 -0.687326 77.8888 -0.00836843 78.2673C0.0937637 78.3246 -0.942865 78.8256 0.885431 79.3939C1.04807 79.4441 1.16665 78.8306 2.61159 79.4959C2.99299 79.6838 7.40981 82.7145 8.78719 83.3604C13.3055 85.5952 24.8051 89.3231 30.4192 91.2241C31.2776 91.5223 31.6572 92.0296 32.5653 92.3451C33.0343 92.5085 33.8627 92.3789 34.0065 92.4291C34.6321 92.657 36.8683 95.2354 36.9455 91.6149C39.7639 92.7593 38.5695 93.5716 38.4071 94.3028C41.5391 95.4117 43.5397 94.3016 43.8691 96.2085C59.5468 100.699 75.3661 104.037 91.123 106.504C91.0804 106.783 91.0379 107.062 90.9954 107.341C95.8308 107.013 97.136 109.132 100.045 107.919C101.631 108.521 103.224 109.114 104.808 109.698C147.046 114.42 188.884 116.109 229.703 114.147C231.452 114.061 231.861 113.442 234.727 113.285C237.89 113.112 242.354 113.551 246.452 113.276C250.035 113.04 255.291 112.103 259.381 111.702C260.296 111.614 260.985 111.941 261.088 111.931C261.692 111.87 261.675 111.268 262.259 111.205C262.957 111.131 263.836 111.509 264.639 111.417C267.641 111.078 270.889 110.957 271.263 110.914C273.066 110.703 273.409 110.082 273.557 110.063C275.55 109.817 274.846 110.411 275.341 110.337C277.941 109.944 279.771 108.45 283.499 109.38C283.355 108.9 283.21 108.419 283.066 107.938C285.806 107.404 284.101 108.876 284.688 109.059C284.938 109.126 290.819 108.401 291.255 108.332C292.814 108.094 292.789 107.439 292.923 107.417C293.282 107.361 297.143 107.721 299.234 106.932C301.637 106.006 298.592 104.982 299.18 104.67C299.282 104.618 301.874 104.488 302.173 104.038C302.508 103.553 300.287 103.792 300.3 103.602C300.317 103.471 303.899 102.171 303.128 101.626C302.523 101.064 297.527 102.382 296.503 102.19C296.33 102.158 296.568 101.361 296.417 101.348C295.855 101.309 284.633 102.384 284.081 102.554C284.708 102.847 285.334 103.14 285.958 103.432C285.175 103.542 284.39 103.652 283.602 103.762C284.753 103.936 285.9 104.109 287.043 104.281C285.667 107.313 280.331 104.873 279.988 103.456C279.839 102.802 282.774 100.811 279.805 100.083C280.227 99.8725 280.649 99.6621 281.07 99.4515C281.995 99.6479 282.919 99.8437 283.839 100.039C283.26 100.271 282.68 100.503 282.098 100.735C282.337 100.914 282.575 101.093 282.814 101.272C284.521 101.435 286.219 101.596 287.907 101.755C288.745 101.526 288.511 100.955 289.083 100.784C296.18 98.6404 291.651 100.928 296.317 100.195C296.935 99.8135 297.624 99.4244 298.291 99.0373C298.176 100.368 300.275 99.3261 302.93 99.6183C302.575 99.2282 302.221 98.838 301.866 98.4478C305.692 98.2808 312.876 95.3532 311.122 97.899C311.939 97.6099 312.751 97.3208 313.559 97.0318C314.301 97.3369 315.041 97.6421 315.778 97.9473C316.724 97.7999 317.703 97.6486 318.733 97.4913C318.715 97.2845 318.697 97.0777 318.68 96.8709C317.866 96.959 317.037 97.0485 316.292 97.1286C316.792 96.438 317.31 95.7452 317.862 95.0486C318.476 95.0869 319.087 95.1253 319.697 95.1639C317.249 96.0347 320.672 96.6411 321.554 97.3833C323.689 97.458 324.888 96.2345 325.575 96.1091C325.906 96.0491 329.907 97.5273 328.19 95.6046C330.165 95.6414 332.114 95.6807 334.035 95.7234C334.765 95.4799 335.451 95.2414 336.212 94.9947C334.376 94.2143 339.249 92.4859 335.529 92.4914C332.954 92.4719 332.409 93.4533 331.181 93.5838C330.07 93.7031 329.411 93.1565 328.184 93.2655C319.805 94.0237 313.049 94.8826 305.192 95.9862C303.624 96.2066 302.148 96.0568 301.081 96.2098C299.875 96.3836 301.473 96.9955 299.909 96.9679C298.263 96.9375 297.842 96.346 297.41 96.3774C297.134 96.3984 296.356 97.0479 295.621 97.1221C292.57 97.4318 287.951 97.3304 287.504 97.3758C287.028 97.4342 278.122 98.7811 277.672 98.9088C277.446 98.9799 278.113 101.025 275.911 98.9784C275.272 98.9936 274.674 99.0048 274.07 99.0162C274.204 99.4247 274.338 99.8333 274.472 100.242C270.772 98.9713 272.079 99.7502 268.608 99.9184C260.265 100.327 247.808 101.593 238.646 101.964C236.582 102.049 235.768 101.593 233.314 101.688C231.009 101.783 225.198 103.552 226.385 101.421C221.474 103.438 220.533 100.371 218.093 102.395C217.778 102.126 217.463 101.856 217.148 101.586C214.454 102.887 213.569 101.857 210.563 101.798C209.266 101.77 210.795 103.012 208.14 101.655C207.642 101.773 207.144 101.892 206.645 102.01C206.769 102.317 206.893 102.624 207.017 102.932C204.087 102.747 203.927 102.908 204.226 101.742C202.846 101.982 201.464 102.218 200.078 102.451C199.899 102.073 199.72 101.695 199.542 101.317C200.17 100.717 231.723 100.751 236.271 100.702C241.46 99.561 251.6 99.9694 255.878 99.4381C257.554 99.2312 258.233 98.3173 260.652 98.0261C263.071 97.7351 266.159 98.2683 267.436 98.1898C271.533 97.9814 292.075 95.8967 278.04 96.1178C278.404 95.6631 278.768 95.2084 279.13 94.7536C284.784 95.67 282.711 94.9771 287.222 94.3973C289.121 94.1523 293.671 94.6427 293.228 92.7693C289.73 92.7625 286.051 93.7315 282.95 93.9948C282.646 94.0212 278.889 93.4963 276.994 93.9032C275.315 94.2702 276.544 95.9884 272.775 94.2698C270.258 96.4906 268.528 94.8189 267.798 94.6872C266.53 94.4581 266.475 95.4502 265.239 95.6662C263.891 95.903 262.899 95.3263 262.713 95.3369C260.885 95.4788 250.929 96.1229 250.604 96.5334C251.002 96.6807 251.4 96.8279 251.798 96.9749C249.324 97.4295 249.774 96.388 249.11 96.3131C248.621 96.35 248.131 96.3867 247.64 96.4231C247.849 96.6184 248.057 96.8137 248.265 97.0088C245.3 97.1609 247.526 96.2908 243.306 96.5792C240.625 96.7612 237.875 97.7175 237.608 97.6736C237.529 97.6611 238.351 97.0759 237.243 97.0672C235.411 97.0546 232.236 97.2364 231.916 97.9839C231.009 97.927 231.049 97.2085 230.929 97.1984C230.337 97.1682 221.54 97.3285 219.926 97.3377C215.511 97.3945 210.57 97.7053 205.722 97.6946C205.224 97.6938 205.552 98.1455 205.052 98.1418C204.249 98.1386 200.194 97.4931 199.584 97.4489C198.072 97.3504 194.083 97.6777 193.451 97.4713C193.362 97.4424 194.671 96.8121 193.133 96.6313C191.425 96.4298 192.349 97.2579 192.257 97.2669C188.78 97.5717 186.575 96.9879 184.193 96.8653C183.421 96.8259 181.99 97.4444 180.898 97.2484C180.773 97.2261 181.027 96.6483 180.904 96.6186C179.257 96.2989 177.728 97.3547 177.015 97.4138C175.279 97.5575 176.236 96.7773 176.145 96.7704C174.992 96.7265 173.433 96.9851 171.676 96.9073C163.849 96.5541 157.394 96.2614 149.074 95.8369C148.027 95.7825 146.749 96.2648 146.589 96.2554C146.094 96.2198 146.277 95.5726 144.845 95.4942C141.825 95.3296 139.028 95.0927 136.039 94.8629C135.438 94.8166 135.131 95.4036 134.671 95.3784C133.123 95.2947 128.029 93.2193 127.752 95.1848C124.867 93.1358 122.692 94.4309 120.233 94.1409C114.405 93.4697 105.4 91.9121 99.5628 91.2111C98.3374 91.0685 97.6854 91.4791 97.003 91.3965C95.7746 91.2644 88.8954 89.7778 88.524 89.7773C87.7898 89.7967 87.7956 92.092 84.5112 89.4737C82.4029 88.9225 82.477 89.8716 82.025 89.8333C78.501 89.5118 75.5526 86.7636 75.7891 88.7422C71.8652 87.3706 69.5268 85.7447 67.4853 87.0685C67.7049 86.237 65.9501 85.2909 63.6187 85.0418C65.5795 87.0124 65.072 87.8685 70.7792 88.9226C70.869 88.9388 70.8381 88.2942 70.9279 88.3104C71.7423 88.4545 73.3564 89.14 74.7429 89.407C76.1291 89.6735 75.4531 89.0919 76.0031 89.219C76.5064 89.3356 76.3652 89.9138 77.0963 90.0775C79.473 90.6044 81.5346 91.1836 82.8787 91.4578C83.7263 91.6305 84.7752 91.3002 85.4336 91.425C87.9758 91.9202 93.3213 93.2842 96.5986 93.7497C97.281 93.8463 97.0888 93.2231 98.5832 93.4111C98.7578 93.4326 99.2962 94.1377 100.583 94.4632C101.87 94.7883 102.928 94.6379 103.758 94.8231C104.451 94.977 104.085 95.4741 105.514 95.712C106.701 95.9589 120.325 97.2587 121.075 97.2071C122.151 97.1987 122.736 96.4933 123.373 96.6538C123.485 96.6856 123.601 97.4385 123.991 97.5319C130.432 99.1213 144.968 99.2471 152.398 99.5969C167.993 100.414 182.337 101.065 198.02 101.038C198.301 101.163 198.581 101.287 198.861 101.411C197.283 101.439 195.701 101.462 194.116 101.48C194.109 101.826 194.102 102.173 194.095 102.52C191.949 102.591 192.228 101.768 192.286 101.273C191.494 101.488 190.7 101.701 189.905 101.913C189.218 100.711 183.912 101.513 181.161 101.481C179.367 101.465 177.285 100.976 176.346 100.996C174.373 101.038 174.409 101.782 174.254 101.792C173.989 101.804 171.244 101.093 169.25 101.065C166.304 101.02 165.945 102.159 161.935 101.042C156.721 101.444 150.994 100.864 145.423 100.409C146.419 101.535 141.478 100.211 139.222 100.052C125.436 99.1542 108.51 97.6783 94.4873 95.7332C92.6905 95.4875 91.2336 95.8664 90.2404 95.6704C89.7018 95.5645 89.5952 94.7994 88.8298 94.7606C88.6951 94.7549 88.4817 95.4166 87.068 95.2623C83.5465 94.9058 75.1507 92.0111 72.678 92.7887C60.8723 89.9636 49.1645 86.5806 37.6537 82.5243C37.2746 82.6937 36.8949 82.8625 36.5146 83.0306C34.7842 80.9664 25.853 78.6679 21.6951 76.9018C14.3683 73.8965 5.37492 69.3321 -0.812756 66.1074C-2.15586 65.4142 -3.44391 65.2056 -4.70872 64.5295C-5.25279 64.2378 -5.68104 63.4118 -6.24323 63.1061C-12.5574 59.6996 -21.2266 55.1189 -27.2606 50.9804C-40.9443 41.6628 -53.139 31.4646 -64.5745 19.1584C-103.92 -22.7811 -121.24 -80.0247 -126.288 -133.43C-126.359 -134.143 -126.96 -134.052 -127.014 -134.606C-127.357 -137.866 -127.402 -145.34 -127.619 -149.185C-127.812 -152.225 -128.928 -157.121 -128.024 -158.232C-126.254 -147.199 -125.553 -136.002 -123.928 -125.455C-123.805 -124.638 -123.219 -124.605 -123.197 -124.506C-122.773 -122.672 -123.709 -123.745 -123.405 -121.057C-123.323 -120.124 -120.329 -112.265 -122.272 -112.968C-121.313 -111.066 -118.573 -97.8624 -118.222 -95.3932C-118.134 -94.6214 -118.779 -95.0445 -118.774 -94.8886C-118.753 -94.2105 -117.957 -94.0735 -117.813 -93.4982C-117.436 -91.939 -117.036 -87.5176 -116.838 -86.7467C-116.401 -84.9057 -114.424 -79.6635 -113.903 -77.3083C-113.431 -75.1388 -114.295 -75.3233 -113.831 -73.4662C-113.458 -72.0109 -113.298 -73.7535 -112.144 -70.6201C-111.577 -69.0394 -110.291 -63.5468 -109.79 -62.1301C-109.311 -60.7311 -108.329 -59.3418 -107.674 -57.4397C-106.744 -54.6835 -104.712 -48.7888 -103.717 -46.0895C-103.658 -45.9279 -104.055 -45.3044 -103.877 -44.9188C-103.509 -44.121 -102.922 -44.6598 -102.591 -44.0843C-102.316 -43.4773 -97.6368 -33.135 -96.5926 -31.2658C-95.9651 -30.0374 -95.924 -28.9893 -95.5677 -28.3172C-95.2868 -27.791 -94.7035 -28.0268 -94.4138 -27.4954C-94.3264 -27.3304 -94.0562 -25.664 -93.2777 -24.2789C-92.5553 -22.9505 -89.2818 -18.3236 -88.934 -17.7862C-88.7146 -17.4248 -89.3362 -17.5924 -88.6805 -16.5269C-88.0802 -15.5574 -87.1964 -15.2269 -86.8492 -14.684C-86.0478 -13.4303 -85.5575 -11.7413 -84.6449 -10.3414C-82.0369 -6.37694 -81.5578 -7.01781 -81.3849 -6.79064C-80.8895 -6.18349 -81.2489 -5.55369 -81.1132 -5.33466C-80.5421 -4.40967 -79.1015 -2.18194 -78.5525 -1.3936C-77.8711 -0.40794 -77.0698 -0.371678 -76.3104 0.637485C-75.7462 1.38967 -75.0796 3.27396 -73.7739 4.97391C-70.8889 8.75725 -67.1203 13.3584 -63.8525 16.8641C-62.8764 17.9147 -62.3091 17.6838 -62.0008 17.9924C-60.3769 19.608 -59.9381 20.9621 -59.4755 21.4256C-56.2072 24.7464 -49.4733 29.7012 -46.126 32.443C-44.7954 33.592 -39.1785 38.867 -35.6641 41.3884C-35.2654 41.6806 -35.3643 41.0461 -34.9688 41.4334C-34.0219 42.3577 -34.661 43.0102 -34.1083 43.3882C-33.8409 43.567 -32.941 43.5979 -32.1508 44.1113C-28.0488 46.7723 -25.4894 48.9577 -23.6181 50.1649C-5.64604 61.7553 14.1044 70.7239 32.7124 77.251C34.7679 77.9751 37.1567 79.3774 40.4598 79.9073C40.6441 79.671 40.828 79.4344 41.0118 79.1978C41.0355 79.497 41.0594 79.7962 41.0836 80.0954C44.5957 81.3861 45.848 82.1478 49.6197 82.9008C49.9459 82.9665 51.2683 82.0123 51.4232 83.7207C55.3919 83.6488 53.067 84.2037 55.7582 85.0624C58.4251 85.9056 61.1463 86.2478 63.7959 86.8265C65.368 86.6359 59.6687 83.8266 59.2878 83.7157C58.658 83.5541 57.7987 84.1468 57.1813 84.0232C55.3582 83.6611 53.7657 82.5555 53.1716 83.124C51.0451 81.7372 53.8454 82.9264 53.7378 82.1921C52.1074 82.0214 50.4774 81.8389 48.8479 81.6443C48.7158 79.2402 39.3364 79.4096 40.4692 77.9138C39.6884 78.0255 38.9064 78.1342 38.1231 78.2399C35.8825 75.1612 33.7116 76.0496 29.5427 75.2099C29.9229 75.0514 30.3025 74.8922 30.6816 74.7323C30.6387 74.5974 27.357 72.8878 28.1656 74.4686C25.2064 71.6575 24.3991 74.1523 21.9669 71.1366C20.2061 70.1548 20.8995 71.6416 17.5938 70.2352C15.6362 69.3972 13.4503 67.8147 11.3126 66.7984C10.8191 66.566 10.3383 67.0467 9.89596 66.8435C9.45441 66.64 9.497 65.9714 8.96745 65.7075C7.87277 65.1613 6.25168 64.8743 5.58022 64.5022C4.97783 64.1709 4.33711 63.2494 2.90111 62.4372C-2.09605 59.5707 -0.895781 61.0351 -1.83134 60.8581C-2.83102 60.6529 -2.96993 59.4115 -4.73753 58.5921C-4.91545 58.5099 -4.77868 59.3195 -5.32581 58.9935C-5.76689 58.7297 -5.65921 57.9931 -7.07583 57.0562C-7.66418 56.7318 -16.6254 51.284 -17.9395 50.3647C-20.0076 49.0582 -24.8965 46.5341 -26.9784 45.0567C-27.7845 44.4947 -28.3148 43.4292 -29.1618 42.8256C-31.9885 40.825 -36.3903 37.554 -39.7933 34.7957C-42.8669 32.3615 -48.9212 28.6672 -49.7456 26.3367C-53.6949 22.4533 -55.259 22.169 -55.5791 21.8869C-56.4046 21.1151 -56.3225 20.297 -57.2952 19.2608C-70.2067 5.85887 -84.6647 -13.8201 -92.5233 -29.3254C-111.366 -65.3427 -119.531 -105.621 -122.335 -145.186C-122.061 -145.311 -121.786 -145.437 -121.511 -145.562C-121.033 -140.844 -120.094 -135.448 -119.522 -130.989C-118.84 -125.405 -118.658 -115.218 -116.02 -111.181C-116.151 -113.029 -117.328 -115.935 -116.338 -116.026C-115.785 -112.728 -115.188 -109.48 -114.549 -106.283C-115.017 -106.298 -115.485 -106.315 -115.953 -106.332C-115.49 -102.939 -114.736 -99.5638 -114.111 -96.2746C-114.002 -95.7035 -114.493 -96.0204 -114.39 -95.5244C-114.274 -94.9702 -113.94 -95.4341 -113.915 -95.3311C-113.613 -93.9415 -113.932 -93.4134 -113.884 -93.2225C-113.762 -92.7552 -113.448 -93.2071 -113.032 -91.8797C-112.257 -89.4233 -112.875 -87.407 -111.264 -88.4075C-111.073 -87.6108 -110.879 -86.8172 -110.682 -86.0269C-111.107 -85.7037 -111.532 -85.3797 -111.956 -85.0548C-108.809 -80.6998 -111.532 -77.6041 -108.131 -75.7502C-108.287 -74.7778 -108.439 -73.8053 -108.586 -72.8328C-107.972 -72.4944 -107.357 -72.1599 -106.742 -71.8294C-107.117 -71.6132 -107.491 -71.3967 -107.864 -71.1798C-106.188 -66.7851 -105 -61.6984 -103.28 -57.2288C-102.091 -54.1578 -101.648 -53.4928 -100.604 -50.8107C-98.2373 -44.9005 -99.8947 -51.0292 -97.0179 -46.5585C-97.5996 -46.603 -98.1816 -46.6496 -98.764 -46.6982C-98.5954 -45.8231 -98.4226 -44.9502 -98.2454 -44.0796C-97.6162 -43.6965 -96.9866 -43.3185 -96.3567 -42.9454C-97.2516 -39.6155 -94.9062 -38.8033 -94.7564 -38.4853C-94.6345 -38.2288 -95.3679 -36.6672 -92.9034 -34.2226C-95.1234 -34.6346 -91.7848 -31.9791 -91.6313 -31.7238C-91.4959 -31.4632 -90.1116 -27.9747 -89.3647 -26.6704C-88.7848 -25.6357 -87.2167 -23.6354 -86.3543 -22.1249C-85.5932 -20.7899 -86.1944 -20.6158 -86.1434 -20.5154C-85.2189 -18.8636 -85.4195 -20.1241 -84.6965 -18.9688C-83.9723 -17.8174 -83.8578 -16.6506 -83.663 -16.4258C-83.5641 -16.3141 -83.3419 -17.0317 -82.9391 -16.4901C-81.8927 -15.0873 -80.4265 -11.9046 -79.2183 -10.1543C-78.7895 -9.5272 -77.8532 -9.01225 -77.3628 -8.3315C-76.612 -7.28721 -76.7875 -6.42864 -76.3383 -5.83C-76.1792 -5.6217 -74.4172 -4.85069 -73.3241 -3.12387C-73.1214 -2.79971 -74.1018 -0.607388 -70.8258 -1.20901C-71.0868 -0.863164 -71.3472 -0.516795 -71.6072 -0.169958C-68.2231 5.87518 -64.3676 5.08374 -64.6406 9.40103C-61.0623 12.9762 -62.4691 9.59101 -61.9685 9.89162C-61.6501 10.0832 -60.804 11.5118 -60.6689 11.6315C-60.4297 11.8424 -60.1874 11.5495 -59.9561 11.8073C-55.7081 16.5152 -58.1257 14.9226 -57.0701 16.6981C-54.4957 20.8866 -50.1937 21.825 -56.5073 16.4276C-56.356 16.282 -56.2047 16.1364 -56.0534 15.9908C-54.7959 17.6154 -51.0589 21.1623 -51.5358 19.1954C-51.9604 17.7222 -60.7075 9.24485 -55.1227 13.4514C-53.8562 14.3911 -53.8559 15.5383 -50.9151 16.3965C-49.607 17.584 -50.7633 19.1384 -48.495 20.2527C-49.2418 20.4624 -49.9908 20.6684 -50.742 20.8707C-48.9889 23.7891 -45.0942 25.763 -43.4213 27.7174C-42.8626 28.3864 -42.5193 32.8637 -41.0189 29.9591C-40.0431 31.0886 -34.32 34.9618 -33.4707 35.9407C-33.2659 36.1756 -34.0042 37.7948 -30.0496 39.9856C-29.6726 39.9991 -29.296 40.0114 -28.9198 40.0225C-31.8497 37.1162 -25.6633 40.8508 -26.3044 38.3943C-27.2624 38.6033 -30.1146 37.0504 -30.7399 37.0272C-31.8222 36.9937 -30.2019 39.2313 -32.7527 37.0231C-32.8003 33.6143 -28.7465 38.2318 -27.9578 35.6218C-25.1475 39.1693 -24.1006 38.4743 -23.2747 39.0048C-19.7108 41.2538 -17.6475 42.9393 -14.1314 44.8086C-13.5949 45.7891 -20.074 42.5217 -20.6763 41.8037C-18.9636 45.1884 -23.7649 42.0868 -25.0821 39.7793C-25.5709 40.1213 -26.061 40.4621 -26.5521 40.8019C-23.8063 42.3814 -21.1907 43.9688 -18.8288 46.0525C-18.5443 45.9869 -18.2601 45.9209 -17.9762 45.8543C-18.3904 45.2105 -18.8005 44.5656 -19.2063 43.9195C-16.7713 44.8913 -18.954 45.4385 -15.2903 46.0694C-15.5379 46.6609 -15.7847 47.2527 -16.0306 47.8449C-13.1177 49.4283 -10.1656 50.9503 -7.20525 52.3969C-6.35505 54.3705 -0.513991 56.9882 -0.771009 54.9785C1.53919 56.0705 -1.65992 55.3693 0.277466 56.8407C1.12212 57.4811 2.92374 58.457 3.574 58.2884C4.08045 56.7977 1.46618 55.2395 1.16132 53.8595C1.75033 53.8917 13.9375 61.0578 13.5942 58.8021C14.6972 59.0649 13.8363 59.7119 15.5748 60.7585C20.4636 63.7188 29.2772 65.2403 32.7805 68.9843C27.2612 68.3238 26.2653 66.436 22.4811 64.8315C20.0103 63.9201 5.57395 56.967 8.10626 59.9472C7.66199 59.5004 7.2199 59.0523 6.78034 58.6032C6.02615 58.7814 5.26986 58.9563 4.51147 59.1277C5.99819 59.9485 7.49464 60.755 9.00048 61.5472C9.57746 61.2777 10.1527 61.0063 10.7265 60.7332C10.7465 61.1294 10.7674 61.5258 10.7891 61.9224C11.409 62.2878 12.0259 62.6486 12.6427 63.0062C12.6358 62.5403 12.6299 62.0745 12.625 61.609C13.645 61.9975 14.6675 62.3795 15.6924 62.7554C15.1962 63.1509 14.6985 63.5452 14.1993 63.9383C18.864 66.1547 17.4146 65.1228 20.4515 65.272C22.4638 65.9927 18.7065 65.6122 22.7918 67.5905C27.574 69.8433 24.9736 67.0006 31.2157 69.7607C31.2099 70.0581 31.2044 70.3555 31.1992 70.653C32.7061 70.9123 34.2238 71.163 35.7131 71.3917C35.4114 71.6553 35.1091 71.9185 34.8062 72.1813C37.7457 73.0918 41.5793 75.067 42.9768 74.0762C39.7995 73.7298 40.5971 71.4626 41.499 71.3032C43.2765 71.1863 66.6821 78.7943 71.3761 79.6981C77.3062 81.152 81.9994 81.3427 87.2195 83.5339C83.348 83.85 70.4396 80.231 67.8655 80.2292C67.6092 80.2338 67.1513 82.3813 66.1817 79.6012C61.0658 78.765 55.2653 76.4839 49.0416 74.6611C49.047 75.3225 49.0536 75.984 49.0614 76.6457C53.267 76.5196 56.0454 80.3405 56.204 77.8411C56.9723 78.0555 57.7416 78.2673 58.5014 78.4735C58.3907 78.8811 58.28 79.2887 58.1694 79.6963C59.3225 80.0094 60.4781 80.3167 61.6358 80.6182C61.7423 80.2095 61.8487 79.8008 61.9552 79.3921C62.9107 79.641 63.8677 79.8859 64.8262 80.127C64.8234 80.5605 64.8208 80.9941 64.8187 81.4277C67.8858 81.3354 77.2723 85.841 73.4724 82.407C74.8333 82.7142 76.197 83.014 77.5631 83.3065C77.4939 83.6075 77.4248 83.9086 77.3556 84.2096C77.9356 84.3762 78.5163 84.5416 79.0975 84.7057C78.9606 84.3914 78.8242 84.0771 78.6882 83.7628C81.2949 84.8249 84.1121 83.882 85.6925 85.1701C84.4887 85.1538 83.2846 85.1322 82.0803 85.1051C84.3844 85.1665 88.3516 86.7577 88.7246 86.8244C89.8519 87.0354 90.5572 86.5284 91.7841 86.7133C92.8918 86.8807 92.6581 87.3258 92.8668 87.3452C98.9185 87.8794 97.0491 84.9217 99.3538 88.4091C99.7168 88.0414 100.079 87.6731 100.44 87.3045C100.781 87.7122 101.123 88.1196 101.467 88.5265C103.238 88.7645 105.022 88.9933 106.787 89.2089C106.126 89.6457 105.463 90.0812 104.794 90.5145C107.42 91.1308 108.797 90.2505 109.057 90.2625C109.791 90.3003 110.036 90.9991 110.261 91.0303C121.094 92.3511 114.602 90.9446 120.28 89.1163C122.096 90.2988 120.042 91.0524 119.654 92.0049C122.276 91.8312 123.047 92.1903 125.769 92.413C126.478 92.4696 127.29 92.0125 127.736 92.0486C128.122 92.0801 129.275 92.7614 130.204 92.8492C131.749 92.9966 133.835 92.8413 135.95 93.0223C137.708 93.1795 143.067 93.9874 146.829 94.2193C148.433 94.3183 148.089 93.8203 148.503 93.8444C148.675 93.8548 149.892 94.4965 150.921 94.5554C159.312 95.0338 167.981 94.9692 176.385 95.1114C182.289 95.2118 188.415 95.6876 194.351 95.589C195.617 95.567 194.943 95.1553 195.495 95.1351C195.684 95.1291 195.922 95.8576 197.871 95.5396C198.575 95.4244 197.757 94.9257 198.45 94.8908C198.787 94.8736 198.94 95.5124 200.913 95.6256C204.484 95.8302 206.424 94.9268 206.747 94.9453C207.358 94.9795 207.193 95.5127 208.002 95.5112C211.957 95.5024 215.243 95.4844 218.738 95.3971C220.387 95.3741 231.545 94.9679 232.228 94.8215C233.612 94.537 232.257 93.5033 234.044 93.4452C234.559 93.6973 235.074 93.949 235.589 94.2004C234.808 94.4565 234.024 94.7118 233.239 94.9662C235.413 94.4956 237.913 94.8559 239.522 94.7411C239.82 94.7197 242.522 94.0546 243.91 94.0202C243.307 93.8506 242.704 93.6805 242.101 93.5099C242.299 93.3203 242.497 93.1307 242.694 92.941C245.486 93.0356 248.404 92.835 251.21 92.5999C252.22 92.5158 251.851 92.111 252.906 92.0208C259.046 91.4809 257.648 93.379 263.223 89.5725C261.296 90.0386 254.018 90.1604 252.955 90.3431C252.193 90.4771 249.631 93.4985 250.445 90.5243C244.7 90.9285 249.81 92.1954 244.391 92.1989C244.477 91.8374 244.562 91.476 244.647 91.1146C242.747 91.0124 241.338 90.9188 240.222 91.614C239.737 89.9202 233.336 91.3021 229.737 91.3587C224.618 91.4498 218.9 91.2667 213.809 91.3567C212.06 91.3882 211.085 92.0912 210.865 92.0957C210.543 92.1003 209.622 91.5347 208.979 91.5476C206.552 91.6048 199.346 92.7439 197.524 91.1164C211.732 90.9329 225.763 90.3768 240.083 89.5166C238.394 90.4443 252.551 89.6057 253.339 89.4857C254.019 89.4003 253.404 88.8766 253.604 88.8277C255.097 88.4759 256.44 89.199 256.918 89.1631C257.282 89.1356 257.987 88.696 259.276 88.6051C259.512 88.588 259.609 88.9894 259.863 88.971C261.542 88.8406 263.192 88.7033 264.861 88.5691C264.963 88.5569 265.335 87.9289 265.755 87.8932C266.177 87.8585 266.642 88.417 266.749 88.41C268.079 88.2956 270.314 87.7173 271.564 87.6042C271.998 87.5667 271.735 88.0273 272.221 87.9808C273.727 87.8385 273.102 87.0368 275.047 87.0847C275.697 87.101 275.715 87.7552 276.936 87.5584C277.801 87.4186 277.601 86.2683 277.735 86.2137C277.922 86.146 280.992 86.7863 281.889 85.9365C279.582 84.1335 284.195 85.6144 284.059 86.4782C285.209 86.1543 286.353 85.8297 287.492 85.5044C287.908 85.6798 288.324 85.8551 288.739 86.0304C293.293 84.6104 296.143 84.9057 300.872 84.115C301.104 84.0769 304.983 83.1888 304.763 82.9075C302.371 82.6381 300.005 82.8604 298.578 83.9736C295.885 82.4079 295.933 83.8728 292.043 84.0184C290.73 84.0665 290.586 83.5807 290.435 83.5894C285.346 83.8501 276.928 84.4181 273.514 86.1728C272.497 85.8683 276.023 85.3991 274.614 85.2335C273.886 85.168 256.025 86.1586 261.858 87.3634C261.258 87.3645 260.657 87.3652 260.056 87.3655C259.337 85.8369 256.384 86.424 256.839 87.9682C256.531 87.6682 256.224 87.368 255.916 87.0678C255.335 86.8377 254.661 86.7412 253.722 86.7226C250.182 86.7048 229.344 88.4938 228.12 88.2739C228.078 87.902 228.035 87.5301 227.992 87.1582C237.384 86.2788 246.183 86.6636 256.293 84.8363C256.024 85.2078 255.754 85.5793 255.484 85.9506C259.518 85.1591 263.505 84.3499 267.442 83.5271C263.186 83.2515 256.36 83.252 251.85 84.0927C251.049 84.243 251.675 84.6883 251.494 84.7605C251.029 84.9473 250.472 84.1378 248.778 84.1716C247.089 84.2074 242.857 85.0829 242.461 85.0889C241.702 85.102 239.597 84.2593 238.304 84.3471C236.603 84.4633 237.778 84.996 237.437 85.0286C236.026 85.1693 234.737 84.943 233.626 85.0476C231.987 85.204 228.556 86.4338 227.361 84.9374C228.502 84.8122 229.716 84.6813 230.889 84.5501C224.46 84.3201 219.695 86.5042 213.344 85.1834C211.861 83.3538 217.039 83.4388 212.643 82.7802C213.438 82.7821 214.232 82.7829 215.025 82.7826C215.224 83.1691 215.424 83.5555 215.623 83.9418C216.979 83.6137 218.332 83.2824 219.68 82.9483C219.306 83.3136 218.931 83.6788 218.556 84.0437C223.414 84.1246 228.202 84.2514 229.869 82.2809C229.993 82.7306 230.117 83.1802 230.241 83.6298C234.765 82.8525 241.623 84.3679 240.208 81.9148C240.429 82.036 240.649 82.157 240.87 82.278C243.545 81.5935 242.454 82.7103 243.478 82.7643C243.776 82.7817 248.968 81.8941 246.601 81.2981C251.652 80.3797 250.223 82.8465 251.659 82.8507C254.941 81.4455 261.035 82.7362 258.384 81.082C258.873 80.9746 259.361 80.867 259.848 80.7591C261.582 82.0863 263.043 80.3141 264.735 79.6217C265.321 79.5405 265.906 79.459 266.49 79.3771C266.924 79.8334 267.357 80.2894 267.791 80.7452C273.096 77.9487 271.872 84.4614 273.948 78.8921C273.51 78.6087 273.089 78.3237 272.675 78.0379C271.742 77.9669 270.806 77.8952 269.869 77.8227C273.5 77.3683 277.477 76.8678 281.243 76.3715C285.923 74.419 288.798 75.7781 293.887 74.0686C294.375 74.1628 294.921 74.2509 295.445 74.3409C294.797 73.1852 292.828 73.5662 296.477 72.645C296.723 71.7563 294.136 71.9094 293.175 72.6684C292.93 72.8549 295.218 73.2851 292.722 73.5606C291.018 73.7479 294.023 72.4116 288.933 73.3018C289.103 73.074 289.273 72.8462 289.443 72.6185C288.887 72.6797 288.329 72.7407 287.771 72.8016C287.321 73.3339 286.87 73.866 286.418 74.3981C285.064 73.8241 284.255 72.9161 281.312 73.4041C282.145 73.6312 281.148 74.7058 279.671 74.8266C279.639 74.4765 279.606 74.1265 279.573 73.7765C275.978 73.8815 277.307 74.7953 274.24 74.263C273.965 74.5683 273.689 74.8735 273.413 75.1787C271.72 74.1761 265.863 73.8881 267.061 75.5184C265.287 73.9849 261.895 75.0208 260.703 76.4602C260.576 76.12 260.449 75.7799 260.323 75.4397C259.628 75.4234 258.933 75.4067 258.237 75.3894C257.867 75.6297 257.498 75.8699 257.127 76.1099C256.62 75.9368 256.113 75.7634 255.605 75.5897C255.334 75.9613 255.063 76.3328 254.792 76.7043C253.968 76.3444 253.144 75.9837 252.319 75.6222C251.853 75.9361 251.386 76.2497 250.918 76.5631C250.813 75.8401 246.134 76.0004 244.845 76.5624C244.44 76.3761 244.035 76.1895 243.629 76.0028C243.46 76.3622 243.29 76.7217 243.121 77.0811C242.811 76.822 242.501 76.5628 242.191 76.3034C241.535 76.6236 240.877 76.9432 240.218 77.2622C237.358 75.7267 237.356 77.2229 236.723 77.2494C235.551 77.2996 231.489 76.4504 230.819 76.538C230.152 76.6278 229.858 77.2556 229.319 77.3403C220.548 78.7238 224.113 76.9003 222.336 76.7222C221.381 76.6212 220.732 77.2194 219.888 77.1898C218.45 77.15 211.133 76.6415 210.711 76.7206C210.101 76.845 211.625 79.4954 209.608 78.8587C209.503 77.4176 205.268 78.9848 207.214 76.9186C205.459 77.1399 203.703 77.3554 201.981 77.5646C202.145 75.847 200.031 76.9909 197.695 76.9263C194.388 76.8484 186.919 75.7386 187.189 77.4907C186.392 77.086 185.597 76.6801 184.803 76.2727C179.319 76.8032 174.075 76.1412 168.696 75.9704C152.715 75.4713 135.523 74.7117 119.792 73.1987C119.037 73.127 119.077 73.71 118.533 73.6577C115.664 73.3912 108.36 72.0113 104.357 71.5127C103.079 71.3581 102.373 71.8132 101.966 71.7751C100.582 71.6474 101.022 70.9692 100.39 70.8887C99.3916 70.7697 94.0397 70.5531 92.2306 70.2854C91.3336 70.1578 90.3906 69.3857 89.3196 69.3659C89.2275 69.3633 89.2794 69.9886 89.2017 69.9846C87.294 69.6939 88.5322 69.3993 87.8871 69.3027C83.3113 68.6142 78.3831 67.5793 73.457 66.5436C72.2312 66.288 70.2698 66.2498 69.218 66.0282C68.8176 65.9427 69.6398 65.6766 68.2602 65.3691C67.788 65.2632 67.4807 65.8006 66.9411 65.7025C64.6145 65.2716 64.3543 63.2179 62.0068 64.1785C58.2385 63.0637 51.8476 60.6455 48.4879 59.5325C47.6901 59.273 47.1923 59.481 46.4346 59.2246C45.8965 59.0427 45.1235 58.2098 44.2913 57.92C43.4589 57.6308 41.9717 57.6707 40.3803 57.0856C38.7076 56.474 36.7039 55.4035 36.3287 55.2643C35.8713 55.0935 35.427 55.6279 34.9719 55.4471C33.5889 54.9094 30.1477 52.8687 28.4305 52.0813C26.5788 51.2419 25.3363 51.056 24.7004 50.7779C24.1128 50.5173 23.647 49.7117 23.3813 49.5905C22.9681 49.401 22.6099 49.9511 22.0821 49.7128C21.2212 49.3213 20.4981 48.5539 19.2186 47.9577C-3.94481 37.1662 -24.9128 23.5081 -42.4981 6.3619C-44.4468 4.4508 -45.193 3.03959 -48.062 0.19013C-49.2212 -0.973224 -49.2588 -0.0139664 -50.0149 -1.05819C-50.3502 -1.52581 -49.86 -1.76311 -50.3154 -2.32398C-52.3502 -4.81792 -55.0241 -7.33777 -55.8595 -8.40994C-56.1932 -8.83436 -56.1074 -9.6859 -56.7776 -10.5639C-61.7752 -17.0728 -67.5421 -25.381 -71.7654 -33.0785C-74.0463 -37.1476 -77.2322 -43.9833 -79.3832 -48.8263C-85.5369 -62.3716 -90.8091 -77.9046 -94.0435 -91.6062C-98.9037 -111.96 -100.982 -132.977 -102.584 -154.327C-100.69 -143.926 -99.8019 -131.732 -97.9969 -120.18C-93.31 -89.4058 -84.2869 -56.2601 -67.7566 -29.2841C-62.0948 -19.8474 -53.9897 -8.74046 -45.4779 -0.0508595C-45.099 0.340172 -44.6676 1.48258 -43.8212 2.3042C-43.6421 2.48519 -40.8956 4.1286 -40.1573 4.84797C-41.9095 5.2026 -38.0906 7.1443 -37.2096 8.02037C-36.1245 9.12857 -34.1694 11.9971 -31.0672 14.1439C-28.2497 16.082 -28.5847 15.02 -28.4205 15.1182C-27.36 15.7127 -27.6318 16.686 -26.9827 17.3444C-24.4878 20.2133 -8.4311 31.1077 -3.63554 33.6823C-2.43265 34.4032 -2.0954 33.9175 -1.8244 34.0781C-1.10729 34.5025 -0.376148 35.608 0.785724 36.2734C2.88103 37.4761 5.588 38.3308 6.75973 38.9558C9.54918 40.4676 14.6645 43.7897 18.4635 45.5527C19.5295 46.0518 19.7163 45.4642 20.1951 45.6862C22.2858 46.6746 27.5763 49.747 30.29 50.8295C34.6647 52.6099 39.428 53.964 43.8811 55.7058C44.2578 55.5474 44.634 55.3884 45.0095 55.2286C45.3717 55.6535 45.7358 56.0778 46.102 56.5015C53.8768 58.8768 61.8082 61.799 69.7162 63.7257C70.6286 63.9576 75.29 64.5358 76.0523 64.7003C76.6837 64.8452 77.1576 65.6449 78.1207 65.7582C79.4693 65.9158 78.5052 64.3905 80.5781 65.2186C81.1365 65.4406 80.4576 65.8575 81.5886 66.2746C81.9658 66.4331 89.399 68.1566 89.8123 68.1773C90.4963 68.242 91.3114 67.196 91.4887 67.2032C92.412 67.2393 92.2103 68.1206 92.8011 68.3124C94.5442 68.8825 96.9922 68.6873 97.2807 68.7491C100.761 69.5253 107.314 71.2619 111.092 71.3361C111.615 71.3476 111.644 70.6721 111.737 70.6628C112.338 70.6036 112.599 71.4115 113.152 71.5027C116.132 71.9893 120.893 72.0428 123.93 72.2372C124.28 72.261 124.976 72.7068 125.602 72.7368C129.144 72.8962 128.061 72.1854 128.263 72.182C128.743 72.1668 129.513 72.8993 130.774 73.0596C134.019 73.4849 140.283 73.9081 143.791 74.0941C146.418 74.2355 146.427 73.4825 146.6 73.48C146.969 73.4768 147.953 74.1394 149.679 74.31C152.999 74.6367 152.652 74.024 154.017 74.1225C154.132 74.1282 153.902 74.6928 155.418 74.8279C158.353 75.0966 165.001 74.7923 168.148 74.9034C169.359 74.9484 169.628 75.5096 170.87 75.5512C172.84 75.6231 177.287 75.1007 177.635 75.1043C177.732 75.1056 177.943 75.7461 178.52 75.7537C179.154 75.762 179.781 75.4412 180.253 75.4483C182.97 75.4905 187.645 76.6101 186.35 74.3329C187.217 74.8961 188.085 75.4577 188.955 76.0178C194.643 75.8959 200.101 76.0486 205.74 76.0313C207.017 76.0267 208.071 75.5685 209.146 75.5599C210.222 75.555 214.974 76.1169 215.762 76.0991C217.178 76.0822 225.139 75.8263 226.114 75.7211C228.008 75.5355 229.912 74.4978 230.71 74.6405C231.358 74.7549 230.794 75.315 232.023 75.4005C234.155 75.5494 237.69 74.664 238.329 74.6354C238.602 74.623 238.117 75.0677 240.677 74.9411C242.055 74.873 242.763 74.3718 243.261 74.3421C243.415 74.334 243.234 75.0873 245.937 74.8096C247.802 74.6153 248.554 73.9918 248.75 73.9764C249.046 73.9521 249.78 74.5101 250.976 74.404C253.821 74.1515 258.918 73.0664 261.558 72.7994C262.069 72.7475 261.957 73.4937 263.99 73.2601C265.442 73.092 265.138 72.5311 265.68 72.4627C266.538 72.3551 267.882 72.9598 269.769 72.7738C272.051 72.5773 290.203 70.1176 290.95 69.8262C291.55 69.6367 292.257 69.5574 292.527 69.2115C292.238 68.9352 291.948 68.6588 291.659 68.3824C289.074 69.7131 290.037 68.3913 289.314 68.3846C288.269 68.3769 284.339 68.9161 283.347 68.7379C282.995 68.6733 283.719 67.953 281.845 67.7958C279.833 67.6279 279.051 68.8599 278.112 67.362C275.44 69.3685 272.525 67.7612 275.78 66.969C277.761 66.5346 294.972 64.2282 298.903 63.6984C301.889 63.3101 307.444 63.19 310.957 62.6856C312.902 62.4029 318.436 61.7113 318.077 60.9063C319.996 60.5878 318.045 61.6439 318.463 61.7147C319.355 61.8609 325.234 60.627 326.323 60.5283C331.547 60.0567 339.19 60.1472 344.317 58.5288C344.045 58.3323 343.773 58.1359 343.5 57.9396C342.278 57.6561 336.647 58.8683 335.854 57.8725C344.214 56.9484 352.463 56.0466 360.862 55.2492C360.596 56.1769 371.429 55.2144 371.911 54.7908C371.689 54.362 371.466 53.9334 371.242 53.5049C365.244 55.6742 365.334 53.4488 361.711 54.967C360.149 55.1306 360.55 54.3559 359.76 54.2911C351.758 53.6835 359.832 55.7898 353.655 55.7505C355.445 54.497 350.193 54.6425 348.029 54.739C347.576 54.7546 341.212 55.7133 340.406 55.7867C335.99 56.1736 328.379 56.4371 324.294 57.4787C320.946 57.9216 318.983 57.3764 315.83 57.5474C313.428 57.6776 314.168 58.1323 313.039 58.2627C310.814 58.5209 309.91 56.9864 308.717 59.3924C307.166 59.2766 305.604 59.1608 304.031 59.0447C304.068 59.3943 304.106 59.7439 304.143 60.0935C303.174 60.1967 302.2 60.2999 301.222 60.4029C300.898 60.0848 300.573 59.7667 300.248 59.4485C297.182 60.2519 298.568 60.9576 298.088 62.0086C297.418 62.1469 296.746 62.2852 296.072 62.4233C295.466 61.7174 294.86 61.0114 294.254 60.3053C291.231 60.6766 288.428 61.0193 285.467 61.3703C285.31 61.7375 285.154 62.1047 284.997 62.4719C284.957 62.1239 284.917 61.7757 284.877 61.4277C279.913 61.8373 274.679 62.2489 269.734 62.6061C268.322 62.1686 276.365 61.0279 276.996 60.9299C280.431 60.4344 289.401 60.1224 289.27 58.8761C291.336 59.6097 297.85 58.7097 299.713 57.3875C296.733 57.7676 293.489 58.1685 290.658 58.5201C290.711 58.094 290.763 57.6679 290.816 57.2418C287.331 59.2876 286.778 59.2493 282.813 58.0288C282.863 58.588 282.913 59.1473 282.963 59.7066C280.121 58.0201 275.652 61.7577 275.291 59.3688C273.877 59.6937 272.398 60.0221 271.03 60.3386C267.981 60.3029 272.567 58.0754 260.727 59.7802C259.906 59.8967 260.127 60.4953 258.881 60.5513C258.519 60.5662 256.404 59.8408 252.448 60.2248C251.831 60.2849 251.822 60.8197 251.183 60.9336C249.669 61.2049 246.776 60.3481 248.187 61.9716C242.497 62.8613 244.772 61.2914 242.957 60.8503C241.746 60.5557 242.049 61.5542 241.004 61.3892C239.708 61.1818 240.593 60.1102 235.491 60.8801C236.071 60.9165 236.651 60.9525 237.231 60.988C236.958 61.2829 236.684 61.5777 236.41 61.8724C233.439 61.3745 233.767 62.331 232.296 60.8453C230.208 61.6562 228.292 61.8112 225.429 61.8187C219.83 61.8218 222.64 60.0205 216.322 62.5356C215.27 62.2552 214.218 61.9729 213.167 61.6886C211.476 62.4132 212.89 63.2085 210.332 63.4549C212.289 61.7426 206.898 62.5023 205.946 61.0446C205.859 61.3984 205.771 61.7521 205.683 62.1059C205.11 62.1195 204.536 62.1325 203.962 62.1449C203.954 61.863 203.946 61.5812 203.939 61.2993C203.19 61.5267 202.446 61.7529 201.697 61.9781C201.127 61.7092 200.557 61.4397 199.987 61.1695C199.068 61.7744 198.146 62.3776 197.221 62.9791C196.636 63.027 196.051 63.0741 195.465 63.1206C195.646 62.6987 195.827 62.2768 196.007 61.8548C195.257 62.0037 194.506 62.1514 193.754 62.298C194.624 61.6008 194.067 60.801 191.727 60.8362C189.795 60.861 191.98 62.296 187.815 61.7041C187.525 61.6595 187.011 60.643 183.081 60.4617C178.363 60.2325 180.653 60.9924 179.814 61.0107C179.65 61.0131 178.229 60.4803 176.895 60.3848C176.137 60.3307 175.4 60.7341 175.299 60.7311C174.831 60.7035 174.706 60.1115 174.059 60.0773C172.415 59.9939 170.198 60.2286 168.586 60.1521C167.853 60.1183 167.175 59.7478 166.848 59.7332C166.341 59.7132 165.68 60.2252 165.167 60.2054C163.269 60.1309 160.475 58.2454 159.489 60.6619C157.766 58.3274 153.845 60.8627 154.199 59.3613C149.312 59.7224 136.631 56.8836 136.799 59.4251C134.265 57.0193 134.375 58.6084 133.237 58.4718C131.967 58.3171 132.667 57.9584 131.654 57.881C129.292 57.6984 127.023 57.6465 124.685 57.396C125.013 57.7837 125.343 58.171 125.673 58.558C123.201 58.3987 124.136 57.6869 121.655 57.2419C117.1 56.4088 118.957 57.2796 118.165 58.1063C118.452 57.2591 113.04 56.6918 112.479 56.7224C112.142 56.7457 113.418 58.0792 110.17 57.2474C110.402 56.9267 110.63 56.6055 110.86 56.2843C109.286 56.5503 105.295 55.3292 104.592 55.3324C104.271 55.3377 102.116 57.856 100.932 55.3906C100.688 55.7049 100.443 56.0191 100.198 56.333C98.5473 55.6276 96.9074 54.9124 95.279 54.1873C94.8937 54.7586 94.5073 55.3293 94.1196 55.8995C93.5768 55.7992 93.0345 55.6979 92.4928 55.5954C92.9565 55.1129 93.4186 54.6296 93.8796 54.1455C90.4917 53.7786 86.6368 52.0834 85.5546 53.7843C84.9116 53.2917 84.2719 52.7976 83.6355 52.3019C83.0407 52.8166 82.4438 53.33 81.8449 53.8419C78.5837 52.9549 78.6254 52.5259 76.5488 51.3496C76.5224 51.8477 76.4963 52.3458 76.4708 52.844C74.9762 51.7846 72.1419 50.4291 69.8241 49.734C68.7208 49.4077 66.6411 49.5493 66.3954 49.4178C66.1478 49.2868 64.2535 46.0051 63.3495 48.1366C59.7986 46.0679 57.851 46.5476 56.3181 46.0502C55.3268 45.7245 55.0392 45.0558 53.94 44.6449C52.3673 44.0556 50.6864 43.7783 49.7849 43.4337C49.2696 43.2351 49.3457 42.6921 48.9926 42.5538C47.326 41.8941 48.1368 42.758 46.367 42.1004C46.2025 42.0358 45.1313 40.9627 43.6319 40.5039C42.7959 40.2511 40.4243 40.1497 40.239 40.075C39.418 39.7454 40.6071 38.6322 37.186 39.1238C37.3704 38.8948 37.5544 38.6655 37.7383 38.4362C34.5562 36.4094 33.5606 37.3281 32.8316 37.1231C32.7403 37.093 32.0976 36.2991 31.578 36.1502C30.6988 35.9002 30.1009 36.3625 29.9042 36.3096C29.21 36.1226 27.1479 34.8988 25.4696 34.834C26.5388 33.2631 21.9193 30.3687 19.9079 31.7389C19.2268 30.936 18.5546 30.1305 17.8916 29.3226C17.3467 29.4407 16.8008 29.5568 16.2539 29.6708C16.1792 29.2385 16.1059 28.8064 16.0342 28.3745C14.4441 28.4187 12.8494 28.4451 11.2502 28.4533C11.5412 27.7319 11.833 27.011 12.1258 26.2905C11.7432 26.1818 11.3611 26.0721 10.9791 25.9613C10.4169 26.3521 9.85281 26.7409 9.28685 27.128C8.91738 26.7873 8.54965 26.4456 8.18385 26.103C8.29849 25.6571 8.41377 25.2114 8.52994 24.7661C6.54949 23.0271 5.50996 27.3652 3.17826 21.6024C2.33904 21.4993 1.49934 21.3905 0.658961 21.276C0.830006 19.3707 -1.08855 19.3706 -2.08157 18.4877C-2.77811 17.8667 -2.36274 17.3313 -3.39299 16.6222C-4.42156 15.9104 -4.74809 16.4677 -4.83162 16.4167C-5.69962 15.8718 -6.00514 14.963 -6.68183 14.6265C-6.78339 14.5753 -7.45851 15.0432 -8.26664 14.5267C-9.07418 14.0082 -9.06176 13.0104 -10.2943 12.2934C-10.9246 11.9243 -11.4781 12.3197 -12.0283 11.9781C-14.6751 10.3378 -14.989 5.88548 -19.232 7.42128C-19.3321 6.70906 -21.0716 2.96975 -22.3184 1.97899C-24.2797 0.438129 -24.0762 1.64063 -24.9075 1.07526C-25.0239 0.994805 -25.4295 0.287091 -26.9731 -1.10768C-27.2475 -1.35633 -26.888 -1.6098 -26.9225 -1.65044C-28.6789 -3.28865 -32.2306 -6.37163 -34.0931 -8.29314C-34.264 -8.46834 -34.2268 -10.176 -36.8469 -10.6738C-38.0714 -13.7945 -43.859 -16.6982 -44.9201 -21.0822C-45.2361 -21.5571 -45.9971 -21.8517 -46.1379 -22.0638C-47.3386 -23.9136 -45.8166 -23.97 -50.2525 -26.9514C-49.4745 -27.0006 -49.6519 -28.2959 -50.618 -29.638C-52.0669 -31.6685 -52.1188 -29.5033 -53.1449 -31.2499C-52.8514 -31.4412 -52.5578 -31.6324 -52.2643 -31.8236C-55.5472 -35.1867 -54.6909 -36.6601 -56.972 -40.5963C-57.7862 -42.0091 -59.6428 -43.7791 -59.8332 -44.1318C-59.9068 -44.2675 -60.0205 -46.2724 -60.0936 -46.4297C-60.5277 -47.3094 -61.1291 -47.6247 -61.52 -48.3847C-62.82 -50.896 -63.2836 -54.4618 -64.8131 -53.03C-64.7529 -53.8866 -64.6878 -54.743 -64.6179 -55.5993C-67.7448 -57.301 -65.9042 -60.4782 -68.0418 -60.2152C-67.8519 -60.8597 -67.6593 -61.5031 -67.4641 -62.1456C-72.5506 -73.8399 -76.3986 -85.3897 -79.6158 -98.2945C-79.1175 -99.0274 -80.5193 -104.375 -80.6587 -104.608C-81.3749 -105.778 -82.5314 -104.144 -82.7223 -106.815C-82.1547 -107.226 -81.5864 -107.636 -81.0174 -108.044C-81.4359 -111.366 -81.7575 -109.672 -82.4225 -110.902C-82.4444 -111.464 -81.9271 -111.374 -82.0238 -112.124C-82.5689 -116.16 -83.8153 -124.71 -84.3065 -129.478C-84.4112 -130.444 -84.8473 -130.207 -84.8813 -130.492C-84.9633 -131.242 -84.5511 -132.789 -84.707 -134.312C-85.7204 -143.493 -86.853 -158.379 -87.3966 -167.974C-87.438 -168.633 -87.9888 -168.71 -88.0205 -169.157C-88.0625 -169.777 -87.626 -171.17 -87.6737 -171.827C-87.7176 -172.446 -88.1359 -172.843 -88.1841 -173.509C-88.4117 -176.559 -87.6546 -180.701 -88.8005 -184.101C-88.9011 -184.378 -91.0116 -188.003 -91.1507 -188.097C-91.9943 -188.61 -93.4646 -185.428 -94.5368 -190.763C-95.7996 -186.082 -97.7224 -187.563 -98.4118 -193.852C-98.7956 -190.722 -99.1484 -187.625 -99.4707 -184.56C-99.7015 -184.562 -99.9322 -184.563 -100.163 -184.564C-101.234 -187.396 -101.53 -190.217 -101.439 -194.598C-101.659 -194.471 -101.878 -194.344 -102.098 -194.217C-103.34 -190.388 -103.679 -185.796 -105.193 -182.952C-106.18 -187.2 -107.109 -191.544 -107.977 -195.983C-108.156 -195.772 -108.334 -195.561 -108.513 -195.35C-109.053 -193.261 -109.479 -188.722 -109.932 -187.025C-111.675 -180.515 -110.919 -192.813 -111.919 -190.836C-112.145 -183.827 -112.218 -176.991 -112.144 -170.326C-113.012 -169.865 -114.374 -196.45 -116.319 -196.504C-116.567 -194.26 -116.801 -192.032 -117.02 -189.818C-117.521 -190.825 -118.019 -191.839 -118.514 -192.859C-118.695 -192.591 -118.875 -192.323 -119.055 -192.055C-119.618 -188.294 -120.138 -184.572 -120.615 -180.887C-119.989 -192.128 -119.936 -197.618 -124.011 -200.662C-124.136 -200.348 -124.26 -200.033 -124.385 -199.719C-121.914 -196.99 -123.245 -185.211 -123.809 -179.138C-124.575 -180.387 -123.863 -185.813 -124.287 -186.993C-124.41 -187.325 -124.98 -186.194 -125.233 -186.964C-125.912 -188.948 -126.466 -197.63 -127.387 -196.423C-128.031 -195.594 -129.256 -181.796 -129.177 -179.207C-130.109 -185.411 -130.195 -191.939 -131.096 -198.489C-133.003 -194.488 -135.273 -190.921 -135.533 -183.597C-136.523 -181.331 -137.272 -197.052 -137.684 -197.517C-138.342 -194.776 -138.978 -192.049 -139.592 -189.336C-139.377 -191.641 -139.146 -193.959 -138.9 -196.292C-139.075 -196.307 -139.25 -196.322 -139.426 -196.336C-140.512 -190.317 -142.178 -184.869 -142.15 -178.131C-143.081 -178.354 -142.934 -182.398 -142.893 -184.384ZM326.592 55.0782C326.634 54.2977 324.354 54.6791 323.045 54.8396C323.226 54.6782 323.406 54.5169 323.587 54.3555C320.835 54.8093 315.555 55.6905 315.185 54.2252C313.114 54.2659 314.162 55.4597 313.515 55.6797C313.201 55.7738 310.638 55.2926 308.697 56.4295C308.213 56.4782 307.728 56.5269 307.242 56.5756C307.096 56.0978 306.949 55.6201 306.802 55.1423C306.189 55.8075 305.573 56.4727 304.954 57.1379C311.891 56.5023 319.503 55.7632 326.582 55.0794C326.585 55.079 326.589 55.0786 326.592 55.0782ZM255.143 61.4602C252.55 61.9358 248.547 62.6557 249.278 61.2566C250.915 61.2124 252.602 61.1609 254.256 61.1082C254.552 61.2257 254.847 61.343 255.143 61.4602ZM10.8929 29.6886C8.51564 29.9009 7.46417 28.0144 4.71163 26.6828C4.85638 26.4436 5.00121 26.2045 5.14593 25.9653C5.87888 27.1786 8.96969 28.4293 10.8929 29.6886ZM395.964 54.8425C396.591 54.7668 397.215 54.6968 397.838 54.6331C395.398 52.9862 394.882 54.024 391.931 53.8337C391.752 53.8229 391.817 53.4795 391.754 53.4769C390.937 53.4471 390.553 53.8618 389.992 53.8569C388.973 53.8494 388.138 53.4344 386.27 53.4942C384.82 53.5456 384.821 54.2092 384.307 54.2091C384.025 54.1913 378.915 52.602 376.743 53.5373C374.477 54.442 377.964 54.6162 383.523 54.6431C386.134 54.6666 388.834 54.6915 390.941 54.7343C393.489 54.7738 395.519 54.8569 395.964 54.8425ZM422.799 62.442C421.241 61.0194 419.662 59.904 418.146 59.0025C420.188 60.8984 418.833 60.1619 416.331 58.921C413.325 57.4972 411.584 56.9331 409.555 56.3368C409.586 56.8776 411.137 57.3097 414.34 58.7513C418.206 60.3511 423.787 64.5851 426.12 69.0312C425.302 66.6231 424.12 64.3888 422.799 62.442ZM347.524 58.711C349.309 58.6208 348.881 57.4464 348.771 57.0945C348.209 57.154 347.645 57.214 347.077 57.2745C347.226 57.7533 347.376 58.2321 347.524 58.711ZM361.669 57.7038C361.041 56.9327 357.006 56.9599 355.026 57.0946C354.94 57.1032 355.526 57.4982 354.134 57.5974C353.731 57.6234 349.38 56.4211 350.492 58.1837C354.354 57.9916 358.081 57.8287 361.664 57.7043C361.665 57.7041 361.667 57.7039 361.669 57.7038ZM365.637 56.8533C364.725 56.6739 364.073 56.4729 363.293 56.2843C362.949 56.7043 362.605 57.1248 362.259 57.5456C363.108 57.5646 363.95 57.5857 364.783 57.6092C365.014 57.3618 365.352 57.1051 365.637 56.8533ZM-90.6391 -103.536C-90.2019 -103.461 -89.7646 -103.387 -89.3274 -103.314C-88.9605 -102.761 -90.1035 -99.4706 -90.6405 -100.321C-90.6453 -101.388 -90.6448 -102.46 -90.6391 -103.536ZM-93.7825 -116.192C-94.0899 -116.807 -94.3957 -117.426 -94.7 -118.048C-94.1184 -118.903 -93.5337 -119.757 -92.946 -120.608C-92.0154 -117.401 -90.9183 -114.113 -93.0504 -114.324C-92.9308 -113.59 -92.809 -112.859 -92.6849 -112.132C-91.9447 -112.89 -91.6558 -112.844 -90.7924 -111.051C-91.893 -110.433 -90.9528 -108.585 -90.7884 -106.342C-91.1632 -107.927 -91.527 -109.528 -91.8796 -111.146C-92.0864 -111.11 -92.2933 -111.074 -92.5001 -111.038C-91.7802 -107.421 -93.9055 -111.692 -93.468 -114.245C-93.7747 -114.39 -94.0814 -114.535 -94.388 -114.681C-94.1873 -115.185 -93.9854 -115.689 -93.7825 -116.192ZM76.8305 61.1405C76.3291 61.2419 75.8274 61.3423 75.3253 61.4416C74.197 58.3499 77.1806 61.7406 80.2112 60.1754C79.007 61.6061 82.9307 62.39 83.135 62.541C82.5689 62.9904 82.0012 63.4386 81.4317 63.8855C79.8847 62.9799 78.3507 62.0648 76.8305 61.1405ZM63.5872 59.7811C65.5048 58.8919 57.8825 56.7025 55.273 56.1969C54.6353 56.0823 53.3156 56.4647 52.8991 56.2352C52.7122 55.8857 52.5264 55.5361 52.3414 55.1863C51.7294 56.0123 47.1451 53.3988 45.4199 52.246C45.1268 52.5159 44.8332 52.7855 44.539 53.0546C43.8875 52.6829 43.2386 52.309 42.5925 51.9329C42.5631 52.2929 42.5342 52.6529 42.5056 53.013C42.1189 52.4314 41.7355 51.8493 41.3553 51.2666C39.4468 50.0797 40.0697 52.331 38.7198 51.2028C37.228 49.9467 40.44 49.9279 40.6378 49.2115C41.973 49.9066 44.9691 51.4122 46.39 51.9112C47.2061 52.1954 46.6856 50.6424 49.7417 53.2447C50.6274 53.1605 51.5122 53.0725 52.396 52.9806C53.653 53.968 54.9243 54.948 56.2098 55.9206C56.6201 55.5325 57.0293 55.1437 57.4375 54.7542C57.6078 54.73 60.6503 56.7682 60.3753 57.068C62.0017 56.5588 64.8284 57.1741 67.7851 57.8914C68.002 58.2226 68.2197 58.5537 68.4383 58.8846C65.7246 57.5876 67.4579 58.9216 66.4761 59.192C65.9094 59.3479 64.2554 59.5036 63.5872 59.7811ZM-86.8664 -83.3633C-87.0263 -88.4071 -87.185 -85.1868 -88.5367 -90.3857C-87.8312 -90.176 -87.1258 -89.9699 -86.4204 -89.7673C-86.89 -86.9222 -84.9879 -83.0317 -86.865 -83.3585C-86.8655 -83.3601 -86.8659 -83.3617 -86.8664 -83.3633ZM-94.258 -135.088C-94.363 -132.307 -95.4881 -133.575 -95.4232 -130.083C-95.423 -130.081 -95.4228 -130.079 -95.4227 -130.078C-95.6928 -131.852 -95.9506 -133.644 -96.1956 -135.454C-95.5498 -135.331 -94.9039 -135.209 -94.258 -135.088ZM-29.9106 8.66518C-27.7758 10.2038 -28.4808 10.2363 -26.0469 11.0398C-24.1312 14.2296 -26.2962 12.1743 -27.0014 12.9938C-27.4152 12.2245 -27.8225 11.4537 -28.2235 10.6813C-30.3698 10.1418 -29.305 11.7577 -29.3661 11.8322C-29.3673 11.8311 -29.3686 11.83 -29.3699 11.8289C-29.5837 12.0731 -29.5807 12.1682 -30.2828 11.8114C-30.1669 10.7593 -30.0429 9.71056 -29.9106 8.66518ZM-22.1981 16.943C-22.4561 15.8156 -22.1886 14.8579 -20.0643 15.9509C-20.063 15.9519 -20.0618 15.9529 -20.0605 15.9539C-20.9061 17.3356 -18.324 17.7021 -17.5715 18.4017C-17.4621 18.7035 -17.3516 19.0054 -17.2402 19.3072C-18.8994 18.5459 -20.5522 17.7582 -22.1981 16.943ZM10.7151 39.8388C11.5322 38.2635 9.83008 37.1968 13.0903 37.0365C13.5638 37.3141 14.0388 37.5902 14.515 37.8648C14.6625 38.3744 14.812 38.8842 14.9638 39.3941C22.66 39.5373 22.1617 45.4533 12.4187 38.3507C12.4179 38.3488 12.4168 38.3469 12.416 38.3451C11.8509 38.8446 11.284 39.3425 10.7151 39.8388ZM-0.0537803 33.7281C0.342215 32.8804 0.739318 32.0333 1.13743 31.1867C-1.33335 32.3341 -1.92628 29.4847 -5.30845 29.2187C-5.38723 28.8333 -5.46467 28.4481 -5.54086 28.0632C-6.86626 28.0509 -16.0585 21.9134 -13.2516 22.0992C-12.0492 22.1918 -10.6811 24.1723 -10.5056 24.2663C-9.92057 24.5817 -8.76237 24.4018 -7.86541 25.0548C-7.34871 25.4329 -6.73324 26.9657 -5.62144 27.6766C-3.12634 29.2885 2.72223 29.8886 4.91497 33.846C5.29616 33.7382 5.67682 33.6295 6.05676 33.5198C8.48635 35.0569 7.2274 35.3836 10.0906 35.711C9.61523 40.5405 0.758392 30.3012 1.29899 34.6921C1.29751 34.6913 1.29606 34.6904 1.29463 34.6896C0.843863 34.3708 0.395541 34.051 -0.0537803 33.7281ZM-57.268 -20.0862C-58.023 -19.7644 -58.9223 -23.2171 -60.0428 -21.4928C-60.1196 -22.7766 -60.1836 -24.059 -60.2349 -25.3401C-60.0825 -25.4307 -59.9302 -25.5212 -59.7779 -25.6117C-59.2949 -24.6274 -58.8044 -23.6494 -58.3066 -22.6778C-58.0728 -22.8331 -57.8389 -22.9885 -57.6051 -23.144C-57.5557 -21.213 -53.2537 -16.0791 -52.5727 -16.8692C-52.6961 -16.3353 -52.8174 -15.8004 -52.9366 -15.2644C-50.101 -13.4409 -49.4139 -10.6362 -46.2885 -8.67209C-46.3789 -8.24107 -46.4679 -7.80934 -46.5554 -7.37693C-46.2272 -7.42549 -45.8994 -7.47483 -45.572 -7.52507C-44.7163 -6.58696 -43.8528 -5.66075 -42.9817 -4.74613C-41.0454 -0.917298 -47.5334 -5.91779 -48.0343 -6.83023C-48.1015 -6.94549 -47.5362 -7.40046 -47.9763 -8.0986C-48.804 -9.32301 -54.2931 -15.0561 -55.3617 -17.4015C-55.7628 -17.133 -56.164 -16.8647 -56.5652 -16.5965C-56.8105 -17.7586 -57.0448 -18.9218 -57.268 -20.0862ZM25.7376 44.8568C26.1029 44.4805 26.4672 44.1035 26.8308 43.7259C29.5582 45.435 31.5992 45.789 30.2208 46.9814C30.2193 46.9807 30.2176 46.9801 30.2161 46.9794C28.7126 46.285 27.2196 45.5775 25.7376 44.8568ZM268.485 68.2089C268.481 69.1882 266.92 69.6887 264.789 69.1634C264.866 68.8729 264.942 68.5824 265.018 68.2919C266.165 69.0296 267.394 67.4763 270.703 67.3812C270.746 67.87 270.789 68.3588 270.831 68.8477C270.05 68.6353 269.268 68.4224 268.485 68.2089ZM23.1303 43.9395C21.9982 44.0709 20.2595 41.3384 21.9198 42.0052C23.1858 42.512 23.7332 43.8679 23.1303 43.9395ZM-96.1078 -146.045C-95.9562 -145.312 -95.8026 -144.583 -95.6471 -143.858C-96.0357 -143.445 -96.4236 -143.032 -96.8109 -142.619C-96.8111 -142.621 -96.8112 -142.622 -96.8113 -142.624C-96.5817 -143.761 -96.3472 -144.901 -96.1078 -146.045ZM-36.3176 2.49373C-34.6759 4.21119 -33.0322 5.86675 -31.2911 7.54866C-31.4575 7.76536 -31.624 7.98209 -31.7903 8.19893C-32.8968 5.83121 -34.2997 5.95735 -34.752 5.61792C-34.7503 5.61961 -34.7485 5.62129 -34.7467 5.62301C-36.1838 4.54455 -37.5078 3.46013 -38.9329 2.47759C-38.0586 2.49011 -37.1868 2.49542 -36.3176 2.49373ZM-43.228 -2.21897C-41.5292 -3.22232 -41.0473 -2.98358 -39.4842 0.596658C-39.7555 0.656798 -40.027 0.716399 -40.2988 0.77542C-41.5202 -0.70001 -41.9493 -1.82408 -42.4549 -0.89317C-42.7145 -1.33407 -42.9722 -1.77602 -43.228 -2.21897ZM-14.6943 22.2285C-15.421 22.4705 -17.9016 19.8736 -17.5532 19.7408C-17.4294 19.6968 -13.2959 21.7666 -14.6943 22.2285ZM297.315 65.8917C296.437 66.1236 295.556 66.3553 294.671 66.5867C295.888 66.6723 297.1 66.7573 298.306 66.842C297.976 66.5253 297.646 66.2085 297.315 65.8917ZM307.266 67.5928C307.856 67.2827 305.673 65.7791 309.304 64.9387C306.63 65.191 303.922 65.4437 301.18 65.695C302.493 65.8381 303.799 65.9808 305.098 66.1234C304.93 66.641 304.761 67.1586 304.591 67.6763C305.486 67.6485 306.378 67.6207 307.266 67.5928ZM310.006 66.0229C308.704 67.4874 316.291 66.76 317.115 66.5056C317.276 66.4495 317.947 65.373 318.211 65.1285C317.018 65.2589 315.819 65.3897 314.611 65.5209C314.981 65.1648 315.35 64.8087 315.718 64.4526C314.28 64.5026 312.908 64.5447 311.583 64.5808C312.185 64.8321 312.785 65.0834 313.384 65.3348C312.265 65.564 311.139 65.7934 310.006 66.0229ZM279.114 68.8394C280.092 68.7153 281.067 68.5906 282.039 68.4654C281.89 68.9723 281.741 69.4793 281.593 69.9863C281.008 70.0416 280.422 70.0966 279.835 70.1514C279.595 69.7141 279.355 69.2768 279.114 68.8394ZM298.995 67.5105C297.315 65.3103 293.89 70.855 298.308 68.4765C298.751 68.235 299.155 67.7233 298.995 67.5105ZM320.04 65.8988C323.302 67.2702 322.195 63.5667 319.41 64.9959C319.27 65.071 319.795 65.798 320.04 65.8988ZM342.956 63.4136C343.198 63.3746 343.507 62.1012 345.947 63.016C346.313 62.8354 346.678 62.655 347.042 62.4749C346.139 61.9926 338.298 62.5074 339.496 63.6046C340.707 63.4905 341.731 63.5853 342.956 63.4136ZM335.792 68.7853C334.603 68.8828 333.266 68.9972 332.197 69.0818C332.533 68.6562 332.827 68.2354 333.204 67.8054C332.591 67.768 332.061 67.7214 331.486 67.6798C330.611 68.4466 329.729 69.2143 328.841 69.9826C331.329 69.8122 333.789 69.6447 336.492 69.4519C336.259 69.2297 336.026 69.0074 335.792 68.7853ZM304.931 73.1384C307.117 72.4191 309.898 72.639 313.425 72.1711C313.426 72.1697 313.428 72.1683 313.429 72.1669C313.606 72.142 313.858 71.5814 314.425 71.4981C314.989 71.4221 325.056 70.8931 324.149 70.0889C320.245 69.7128 318.905 71.0917 317.753 69.2094C317.609 69.649 317.465 70.0886 317.321 70.5282C313.566 71.6748 312.529 70.3204 310.433 70.01C310.475 70.3247 310.517 70.6394 310.559 70.954C309.219 71.1312 307.869 71.3085 306.51 71.4857C306.68 71.2577 306.85 71.0296 307.019 70.8015C306.538 70.853 306.056 70.9045 305.573 70.9561C304.496 72.0167 303.017 72.3937 304.931 73.1384ZM341.15 67.6669C342.549 69.9323 352.667 67.1734 357.834 67.177C355.213 65.9788 350.883 67.4329 348.374 67.7168C343.194 68.3001 346.682 67.0336 345.76 66.7414C345.307 66.5964 342.483 68.4557 341.15 67.6669ZM296.604 73.5854C299.29 73.1138 300.847 73.5081 303.055 72.387C302.844 72.2325 302.633 72.078 302.422 71.9235C301.668 72.1673 295.209 73.3457 296.604 73.5854ZM364.738 65.8861C359.842 67.2069 362.089 64.8104 359.602 66.6902C361.369 66.6222 363.1 66.5629 364.795 66.5134C364.776 66.3043 364.757 66.0952 364.738 65.8861ZM14.2464 49.8132C12.321 48.9608 10.0143 48.308 9.30375 46.93C10.6394 47.4472 11.9798 47.9524 13.3249 48.4459C13.6299 48.9021 13.937 49.3579 14.2464 49.8132ZM68.9752 78.1429C68.4398 78.2394 66.6865 77.1471 66.4876 77.0962C66.1153 77.0035 66.1402 77.3358 66.1149 77.4147C63.6922 76.7457 66.178 76.3614 64.4341 75.6979C64.1336 75.5905 59.8091 74.9597 58.1084 74.4401C55.4763 73.6518 52.8336 72.942 51.8578 72.633C50.207 72.1154 47.3642 70.4761 44.6958 69.5675C43.5946 69.1942 43.0245 69.6272 41.9184 69.2427C34.8297 66.8721 21.2515 60.6641 15.1367 58.1826C13.6124 57.5926 11.8468 57.6172 11.0835 57.1852C10.5802 56.6346 10.0805 56.0826 9.58429 55.529C6.56714 56.8841 6.91438 54.5375 4.99818 53.2989C3.77918 52.5085 2.83433 52.8606 2.66183 52.769C1.52459 52.1575 1.13125 51.5421 0.268932 51.0118C-0.699434 50.4182 -2.29062 49.9289 -2.61565 49.6771C-2.80892 49.515 -1.64923 49.0506 -5.45995 46.8922C-9.33922 44.6744 -13.16 42.4429 -16.9826 39.9727C-14.0589 38.2866 -14.1127 40.7145 -12.5985 41.8011C-12.1939 42.0909 -12.2053 41.5177 -11.851 41.765C-10.8516 42.4626 -9.10199 44.0834 -8.17294 44.503C-7.17128 44.9569 -6.9274 43.8118 -5.94603 44.8641C-5.89647 44.9176 -6.31879 45.2019 -6.07738 45.4322C-3.63355 47.727 -2.30657 47.5715 1.33336 49.5135C3.66472 50.9255 18.5514 58.5153 19.2292 58.3467C22.5482 58.1472 6.70715 50.8501 4.91301 49.8743C4.25907 49.5847 4.68981 50.3796 4.0669 50.1647C3.80185 50.0709 2.05372 48.0678 -0.0411637 46.8199C-2.58425 45.3312 -8.04015 42.9023 -10.4212 41.3748C-30.9213 28.4376 -49.372 12.8565 -64.1098 -6.39453C-64.4213 -6.80319 -64.3726 -7.68626 -65.37 -9.0277C-84.1172 -34.0999 -97.177 -64.5745 -103.722 -96.1683C-105.091 -102.718 -105.783 -109.499 -107.259 -116.485C-106.972 -117.423 -106.681 -118.361 -106.386 -119.299C-106.408 -116.99 -104.829 -113.082 -104.752 -112.726C-104.726 -112.595 -105.062 -111.683 -104.811 -110.352C-104.459 -108.482 -103.903 -107.744 -103.876 -107.591C-103.79 -107.12 -104.278 -107.351 -104.195 -106.901C-103.565 -103.548 -103.18 -100.968 -102.549 -97.9752C-101.834 -94.6171 -100.567 -92.7878 -100.825 -90.0332C-100.414 -89.8227 -100.002 -89.6139 -99.5898 -89.4066C-100.635 -87.0701 -97.4018 -75.8736 -95.8703 -71.6308C-95.4034 -70.2691 -94.895 -70.7029 -94.7454 -70.2455C-94.6307 -69.9135 -95.5188 -69.9509 -94.0588 -66.1964C-93.3217 -64.3299 -92.5894 -64.0426 -92.2684 -63.1011C-92.0937 -62.5904 -92.6707 -62.4718 -92.4018 -61.7441C-90.8403 -57.5433 -89.3205 -54.2719 -87.5368 -50.4117C-87.034 -49.328 -86.5824 -49.5141 -86.4814 -49.2678C-86.1067 -48.3662 -86.1671 -46.4707 -85.1165 -44.2361C-83.3793 -40.4386 -79.4386 -32.8855 -77.4027 -30.1911C-77.1054 -29.7866 -76.3952 -29.7189 -76.2212 -29.3992C-75.9593 -28.9141 -76.3763 -28.4223 -76.3304 -28.3366C-75.409 -26.7378 -75.4822 -27.9817 -74.9745 -26.8521C-74.6995 -26.2458 -74.9415 -25.2931 -74.2041 -23.9392C-73.2266 -22.1568 -72.7361 -22.9367 -72.3584 -22.179C-72.3217 -22.0972 -72.7926 -21.7682 -72.3635 -21.0587C-70.6677 -18.2524 -68.1193 -14.2681 -66.3277 -11.802C-65.8146 -11.0905 -65.1211 -10.7908 -64.3928 -9.81858C-63.0366 -7.77918 -54.4099 3.07984 -53.3469 3.74902C-53.2492 3.82231 -53.4483 2.33752 -52.1462 3.82511C-52.0226 4.48667 -51.8953 5.14844 -51.7643 5.81039C-50.6982 6.13869 -49.6334 6.45472 -48.5701 6.7587C-50.0255 8.07781 -46.2819 12.345 -44.9132 10.8749C-44.4237 11.2488 -43.933 11.6196 -43.4411 11.9876C-43.4849 13.8609 -42.5443 14.0758 -41.2741 16.3676C-40.7012 16.3257 -40.1295 16.2811 -39.5589 16.2338C-39.6772 16.5065 -39.7951 16.7795 -39.9127 17.0526C-37.9086 16.8313 -37.31 19.4087 -37.1109 19.5928C-36.3684 20.2927 -35.5364 20.5009 -35.1838 20.8213C-33.8695 22.0191 -31.2428 24.8944 -29.4562 25.9888C-29.372 26.0394 -29.042 25.4716 -28.531 25.774C-27.6094 26.3161 -28.1109 27.1349 -26.3077 27.1151C-26.253 27.5116 -26.1971 27.9083 -26.14 28.3052C-25.8103 28.3743 -25.4807 28.4423 -25.1513 28.5094C-23.7723 29.6462 -22.3644 30.7749 -20.9443 31.883C-21.6264 30.0347 -19.753 30.6356 -18.802 32.3596C-18.4786 32.9447 -19.2995 33.1884 -19.1933 33.3865C-19.0656 33.6894 -12.1522 37.9058 -11.4523 37.7925C-11.2442 38.1758 -11.0345 38.559 -10.8233 38.9419C-10.4342 38.688 -10.0459 38.4333 -9.65836 38.1778C-9.55893 38.4145 -9.45887 38.6512 -9.3583 38.8879C-7.20556 39.3762 -3.38379 43.6116 -2.44162 43.9759C-1.94545 44.1733 -1.47162 42.3834 0.634874 43.7707C0.471208 44.2453 0.307966 44.7201 0.145353 45.1952C0.618826 45.5384 1.09398 45.8801 1.5708 46.2202C2.55103 46.7052 4.35526 46.693 4.67266 46.1973C4.80799 46.6666 4.94499 47.136 5.08385 47.6055C6.4205 47.0258 10.5619 49.5843 12.0315 51.0827C12.7002 51.022 13.3679 50.9585 14.0345 50.8922C14.5513 51.602 15.0736 52.3104 15.6014 53.0173C17.1734 53.881 15.751 52.4573 16.121 52.5636C16.8911 52.7968 20.1566 55.5463 20.5041 54.0876C21.0164 54.3087 21.5295 54.5281 22.0436 54.7461C22.1408 55.2454 22.2395 55.7448 22.3397 56.2444C23.7942 55.2891 25.1175 56.4195 28.4834 57.2039C28.6251 57.6197 28.768 58.0355 28.912 58.4513C30.0715 58.4024 31.2289 58.3459 32.3845 58.2822C32.3891 58.875 32.3952 59.468 32.4025 60.0613C32.8061 60.3 33.2107 60.5379 33.6161 60.7749C34.9274 59.9484 36.0465 61.7835 37.0326 61.5966C38.4662 61.3203 37.846 60.1644 35.7372 59.2048C36.2188 58.4428 42.5045 61.1242 43.9905 61.6682C43.8357 61.8016 43.6806 61.9349 43.5255 62.0681C42.0386 61.4199 40.5603 60.7606 39.0911 60.0901C37.0543 61.7694 41.3978 62.6703 43.2272 63.5828C43.3933 63.6673 44.1155 64.8196 46.0914 65.3773C46.8575 65.597 50.1859 65.3328 50.769 65.4353C55.4946 66.2706 51.6263 66.9864 56.5526 66.7916C55.2816 67.6752 58.1445 67.4709 60.7767 68.4282C61.2165 68.5961 64.8528 70.5674 65.1154 70.6553C66.7212 71.2277 65.1935 69.7435 67.5042 70.6126C67.7223 70.9555 67.9414 71.2982 68.1612 71.6407C68.7174 71.7786 69.2741 71.9152 69.8315 72.0506C73.7921 70.4435 74.1521 72.3963 75.313 72.904C75.7804 73.1069 75.2948 72.3321 76.5304 72.7498C76.996 72.9058 77.4079 73.5525 78.6883 73.8693C82.7102 74.8527 84.5175 72.8543 87.7578 75.9349C88.3929 75.701 89.0268 75.4656 89.6598 75.2288C89.9667 75.7121 90.275 76.195 90.5848 76.6777C93.75 76.0192 92.4643 77.0477 93.5347 77.2238C96.3568 77.6951 102.195 78.3856 102.854 77.4656C104.956 80.1194 108.275 77.9697 109.213 78.1893C109.746 78.5457 110.28 78.9011 110.816 79.2556C111.527 79.0684 112.238 78.8796 112.947 78.6892C112.327 80.8897 116.108 79.1328 116.444 79.1364C116.832 79.1568 122.136 80.4544 124.151 80.6476C126.16 80.8528 129.72 80.5847 130.027 80.6106C130.381 80.6456 133.744 81.5765 136.424 81.7884C138.77 82.0247 152.716 82.0452 151.785 82.9696C150.86 83.1983 149.55 83.3654 148.421 83.4279C144.917 83.7147 124.444 82.5107 119.235 81.949C108.788 81.0578 97.9181 79.3689 87.5576 77.6079C86.948 77.5041 86.7447 78.0613 86.2206 77.973C85.424 77.8369 83.5367 76.8632 82.7562 76.7154C79.8198 76.1719 76.2591 75.487 74.703 75.1463C71.2253 74.3855 68.7745 74.1513 66.154 73.5506C65.3268 73.3637 61.416 71.6051 58.5263 71.1132C57.9705 71.1299 57.4146 71.1453 56.8584 71.1592C58.2667 71.7635 61.9316 73.2762 63.6927 73.7861C66.3111 74.5492 67.8103 74.424 68.7857 74.6717C69.5994 74.8829 73.6774 76.4036 75.6037 76.8392C76.2004 76.9765 76.4557 76.4038 76.9659 76.5183C79.7345 77.1451 83.4031 77.9169 85.6865 78.9733C84.7401 78.5968 90.9544 79.3951 91.2796 79.4436C91.833 79.5437 92.333 80.218 93.4674 80.4169C95.6512 80.7951 95.5695 79.5644 98.1048 81.202C98.8383 80.967 99.5706 80.7302 100.302 80.4915C100.095 82.0984 108.984 81.23 111.151 83.4573C111.195 83.7167 99.9304 82.7122 99.0055 82.5576C93.4365 81.8716 85.4183 79.9921 80.0471 79.1352C78.4266 78.8921 73.1892 78.7233 72.8145 78.6103C72.2101 78.4429 72.8866 78.0272 72.6276 77.9472C67.3415 76.282 69.7675 77.9956 68.9752 78.1429ZM310.818 73.567C309.192 73.8094 307.553 74.0521 305.9 74.2947C306.057 74.6314 306.215 74.9681 306.373 75.3048C307.118 75.0878 307.86 74.8707 308.6 74.6536C309.202 74.8 309.803 74.9464 310.402 75.0928C310.541 74.5842 310.68 74.0756 310.818 73.567ZM314.993 74.5931C316.512 74.6047 316.501 73.8599 316.842 73.786C317.856 73.5639 318.772 73.7645 319.757 73.6451C318.431 72.0201 316.081 73.0908 314.993 74.5931ZM285.333 78.3072C285.651 78.192 287.635 76.0963 290.245 77.61C292.032 76.8696 293.701 76.1385 295.563 75.3853C292.481 76.5615 288.184 76.0919 286.635 76.2755C286.056 76.3447 286.001 76.9346 285.536 76.989C282.858 77.2947 280.093 76.2278 279.993 78.1728C282.514 77.3761 284.928 78.4503 285.333 78.3072ZM301.526 75.987C301.92 75.5407 302.312 75.0944 302.704 74.6481C301.137 74.8132 299.559 74.9779 297.969 75.142C298.441 75.5032 298.912 75.8643 299.383 76.2253C300.099 76.146 300.814 76.0665 301.526 75.987ZM181.637 84.2178C182.604 84.2211 183.57 84.2225 184.535 84.2219C184.481 84.5154 183.376 84.5086 182.967 84.7039C182.969 84.7039 182.971 84.7039 182.972 84.7039C182.517 84.9248 182.709 85.3045 181.881 85.4649C181.8 85.0492 181.718 84.6335 181.637 84.2178ZM-107.796 -120.298C-108.15 -122.11 -109.713 -136.565 -108.473 -135.411C-107.891 -134.835 -107.864 -129.915 -107.687 -128.504C-107.477 -126.61 -105.6 -121.08 -107.796 -120.298ZM-110.581 -146.262C-109.555 -146.556 -108.703 -137.401 -108.782 -136.534C-108.95 -136.707 -109.313 -136.967 -109.412 -137.21C-109.896 -138.388 -110.174 -144.261 -110.581 -146.262ZM127.683 84.5408C128.484 84.0778 129.284 83.613 130.081 83.1464C129.819 83.8266 129.556 84.5066 129.292 85.1865C128.755 84.9721 128.218 84.7568 127.683 84.5408ZM56.3665 70.6808C44.3398 67.2896 32.5883 63.2398 21.1431 58.3692C22.0309 59.0674 22.9254 59.7611 23.8266 60.4503C33.8237 64.4926 44.7066 67.9168 54.597 71.2429C55.1879 71.0571 55.7777 70.8697 56.3665 70.6808ZM282.107 81.7891C278.899 82.1012 276.063 81.8429 272.661 82.9651C276.037 83.4655 277.672 82.0822 281.025 82.9462C281.026 82.946 281.028 82.9459 281.03 82.9457C281.39 82.5602 281.749 82.1747 282.107 81.7891ZM210.424 86.6351C211.42 87.0975 212.416 87.5581 213.413 88.017C212.233 88.0549 211.051 88.0905 209.868 88.1236C210.054 87.6275 210.239 87.1314 210.424 86.6351ZM-40.5468 22.9878C-42.3985 19.9873 -49.8965 15.4784 -50.8536 12.5803C-50.9124 12.397 -49.4101 13.1677 -50.4575 10.5727C-49.2556 12.1326 -48.4343 13.2614 -48.917 13.9509C-48.3063 14.1657 -47.6958 14.3766 -47.0856 14.5836C-46.5491 15.4102 -46.0062 16.2331 -45.4569 17.0523C-44.9613 16.3843 -44.9419 16.4701 -44.2566 17.8939C-43.6205 18.2065 -42.9747 18.5233 -42.3331 18.8314C-42.3577 19.2838 -42.3807 19.7368 -42.4022 20.1902C-41.6351 20.2301 -40.8697 20.265 -40.106 20.2947C-38.7494 22.217 -40.4178 21.9945 -40.5468 22.9878ZM-31.3888 30.3667C-32.0201 30.2755 -43.4505 19.7105 -37.0229 23.0699C-35.676 24.2992 -34.3135 25.5087 -32.9357 26.6988C-35.8329 27.8575 -30.419 29.1028 -30.0647 29.2879C-28.3703 30.2812 -26.7855 32.2899 -25.6207 33.1054C-24.6183 33.8081 -23.7438 33.8378 -23.0551 34.3484C-20.7136 36.0992 -16.9011 38.6866 -16.9826 39.9727C-18.8996 38.7336 -20.8216 37.4345 -22.7427 36.0378C-24.7617 34.5602 -27.2198 34.1162 -30.0387 30.0843C-31.0492 29.4935 -31.2496 30.4164 -31.3888 30.3667ZM216.359 87.8037C216.206 86.6815 222.146 86.7224 222.2 87.163C222.223 87.4248 220.293 87.4979 220.021 87.6075C220.019 87.6076 220.017 87.6077 220.015 87.6077C219.902 87.6556 220.503 88.0654 219.599 88.2215C218.52 88.0841 217.44 87.9449 216.359 87.8037ZM-106.358 -97.2412C-107.248 -97.7344 -110.228 -115.672 -109.898 -116.38C-109.836 -116.54 -109.53 -116.375 -109.38 -116.457C-109.639 -112.017 -107.566 -106.22 -106.733 -102.368C-106.503 -101.289 -107.007 -101.526 -107.003 -101.463C-107.003 -101.46 -107.002 -101.458 -107.002 -101.455C-106.884 -100.834 -105.246 -98.3118 -106.358 -97.2412ZM-54.5014 7.96776C-53.8446 8.4223 -53.1864 8.8714 -52.5269 9.31513C-52.6476 9.6983 -52.7675 10.082 -52.8864 10.4662C-52.8877 10.4649 -52.8889 10.4636 -52.8901 10.4623C-53.4334 9.63492 -53.9705 8.8034 -54.5014 7.96776ZM-72.206 -12.3987C-71.8941 -12.381 -71.5825 -12.3642 -71.271 -12.3481C-70.1162 -10.7458 -68.9432 -9.16904 -67.7525 -7.61739C-67.7579 -7.8586 -67.7628 -8.09969 -67.7673 -8.34071C-65.7178 -6.1902 -65.6605 -4.71144 -64.6002 -3.5508C-64.6013 -3.5522 -64.6024 -3.5536 -64.6035 -3.55501C-64.4883 -3.43136 -63.959 -3.58743 -63.5596 -3.10929C-62.6455 -1.99633 -59.9337 1.00224 -59.9691 1.74791C-60.1832 3.25347 -65.0059 -3.46045 -65.9546 -4.69585C-66.3991 -5.23644 -67.2673 -5.63887 -67.5332 -5.9756C-67.8231 -6.34553 -67.7199 -7.2187 -68.4109 -8.12821C-68.6165 -8.38532 -71.3754 -10.9918 -72.206 -12.3987ZM-88.798 -42.8926C-88.0458 -42.5943 -88.0108 -41.2681 -87.7116 -40.8572C-87.6432 -40.7645 -87.6057 -41.7608 -87.0168 -40.8576C-87.1714 -40.4476 -87.325 -40.0369 -87.4776 -39.6255C-87.9413 -40.7412 -88.3879 -41.8455 -88.798 -42.8926ZM226.339 87.9293C226.176 88.0576 223.002 88.1554 222.845 88.085C220.902 87.1551 227.472 86.9749 226.339 87.9293ZM307.103 82.5483C305.773 84.1831 322.986 80.8486 324.742 80.7229C324.563 79.8106 320.487 81.1999 322.537 79.6929C320.569 80.616 314.519 80.9073 313.362 81.2362C312.58 81.4446 312.464 82.2622 312.346 82.3005C311.891 82.4414 307.569 81.9766 307.103 82.5483ZM339.011 78.5019C337.349 78.8624 335.618 79.2316 333.958 79.5933C335.962 79.4758 338.027 79.3521 340.013 79.2385C339.68 78.9928 339.346 78.7473 339.011 78.5019ZM341.17 78.6874C341.233 79.5831 346.751 78.2912 348.174 78.3486C346.403 77.0018 343.832 78.7299 341.17 78.6874ZM247.718 89.0298C245.185 89.7942 243.899 87.1333 247.105 88.1166C247.202 88.1497 247.823 88.9912 247.718 89.0298ZM-43.7114 25.3293C-44.0621 25.0661 -48.8322 21.8754 -48.7308 21.3384C-48.5054 19.621 -46.239 22.5435 -44.9579 22.9841C-42.9095 23.6797 -44.6076 21.2208 -41.3553 24.8091C-41.3177 24.4683 -41.2793 24.1277 -41.2401 23.7875C-39.0739 25.569 -41.033 26.4285 -40.8153 26.9513C-40.7481 27.1123 -39.2974 28.1384 -39.1327 28.4374C-37.0887 32.2205 -43.422 25.6336 -43.7114 25.3293ZM183.321 91.3748C178.096 92.1559 180.361 90.9739 175.053 90.9651C174.886 90.3544 182.628 90.8406 183.321 91.3748ZM-1.34713 53.4855C-5.964 50.7131 -10.2176 49.1662 -13.9203 45.5806C-12.8311 44.4507 0.00526102 53.8468 -1.34713 53.4855ZM-118.747 -157.921C-115.09 -136.601 -113.419 -112.751 -108.435 -91.2798C-107.869 -88.8417 -107.164 -88.774 -107.022 -87.885C-106.927 -87.3044 -107.469 -87.2755 -107.283 -86.5185C-100.827 -60.1666 -90.7407 -34.2943 -75.6653 -12.6208C-74.7171 -11.1745 -69.0438 -5.23156 -69.3375 -2.84399C-69.5863 -0.991899 -72.3076 -6.3044 -72.8724 -7.11008C-73.3106 -7.70527 -73.8295 -7.3738 -74.1185 -7.7761C-74.4243 -8.20363 -73.8304 -8.09243 -74.1769 -8.59376C-75.6417 -10.7191 -77.365 -12.9793 -78.623 -14.9849C-90.5862 -33.9995 -99.7258 -54.8334 -105.983 -76.1947C-106.741 -78.7969 -107.056 -78.1341 -107.097 -78.2634C-107.096 -78.2655 -107.096 -78.2676 -107.095 -78.2697C-111.249 -92.8413 -113.19 -108.57 -115.55 -124.53C-117.173 -135.116 -118.324 -145.628 -119.079 -156.929C-118.969 -157.259 -118.858 -157.59 -118.747 -157.921ZM-33.7508 31.4492C-35.9679 32.0474 -35.0526 30.4335 -39.2685 27.876C-39.3662 27.3767 -39.4618 26.8777 -39.5554 26.3789C-37.648 28.1093 -35.7107 29.8008 -33.7444 31.4543C-33.7466 31.4526 -33.7487 31.4509 -33.7508 31.4492ZM-57.6886 10.0062C-60.1501 11.1271 -66.0917 1.5721 -69.3276 -2.0114C-68.8841 -3.47091 -64.9631 2.44607 -63.7655 3.61928C-63.1667 4.24825 -59.2488 6.86721 -57.4676 9.8681C-57.5413 9.91415 -57.6149 9.96018 -57.6886 10.0062ZM289.225 88.0948C288.441 88.098 287.655 88.101 286.867 88.1036C288.795 87.6376 290.707 87.1698 292.603 86.7006C289.552 87.1859 286.461 87.6676 283.333 88.1435C283.968 88.607 284.603 89.0703 285.236 89.5333C286.574 89.0547 287.903 88.5752 289.225 88.0948ZM279.015 88.7959C284.58 88.4776 278.669 87.626 277.326 88.3688C276.525 88.8149 278.446 88.8272 279.015 88.7959ZM264.833 90.9265C267.472 91.6325 272.586 91.2552 270.613 89.5902C267.953 90.6766 266.128 90.1179 262.146 90.9295C262.762 91.2321 263.377 91.5343 263.991 91.8362C263.994 91.836 263.997 91.8357 264 91.8355C264.278 91.5326 264.556 91.2296 264.833 90.9265ZM281.652 89.6624C285.188 88.2803 274.689 89.6101 278.065 89.9932C278.227 90.0111 281.516 89.7163 281.652 89.6624ZM-119.164 -134.417C-118.611 -134.898 -118.364 -132.172 -118.23 -131.279C-117.676 -127.531 -117.295 -122.108 -116.608 -117.857C-116.848 -118.15 -117.087 -118.445 -117.326 -118.74C-118.089 -124.202 -118.679 -129.333 -119.164 -134.417ZM-114.5 -104.787C-113.988 -101.973 -113.443 -99.1955 -112.865 -96.4551C-112.812 -96.1999 -113.058 -94.8965 -113.37 -95.7606C-113.785 -98.7335 -114.162 -101.742 -114.5 -104.787ZM-21.0915 45.087C-23.1546 44.1256 -18.6853 49.1237 -17.9271 47.4051C-18.9889 46.6414 -20.0438 45.8687 -21.0915 45.087ZM-3.62762 56.4404C-4.77821 55.6176 -5.91996 54.7858 -7.05288 53.9448C-7.15836 54.1277 -7.264 54.3106 -7.36948 54.4935C-6.12784 55.1535 -4.88046 55.8024 -3.62762 56.4404ZM-120.463 -145.634C-119.651 -144.196 -119.514 -140.692 -119.319 -138.539C-120.063 -139.972 -120.025 -143.569 -120.463 -145.634ZM-47.984 24.938C-47.5712 24.7076 -54.0316 18.6535 -52.4298 21.4059C-50.9648 22.603 -49.5035 23.7613 -47.984 24.938ZM-61.2878 12.5468C-60.068 14.0542 -58.9194 15.0253 -58.6258 14.2082C-59.345 13.4861 -60.0599 12.7572 -60.7705 12.0215C-60.943 12.1965 -61.1154 12.3716 -61.2878 12.5468ZM255.121 93.1561C251.868 93.3252 248.821 93.4668 245.67 93.6025C245.8 93.8056 245.93 94.0088 246.06 94.2119C249.095 94.0815 252.043 93.9452 255.179 93.7834C255.159 93.5743 255.141 93.3652 255.121 93.1561ZM-122.468 -147.338C-122.461 -149.566 -122.437 -151.812 -122.396 -154.074C-122.158 -151.822 -121.903 -149.591 -121.63 -147.382C-121.911 -147.365 -122.191 -147.348 -122.471 -147.332C-122.47 -147.334 -122.469 -147.336 -122.468 -147.338ZM298.478 92.0275C288.897 93.9911 301.378 93.7739 303.804 92.056C303.807 92.0569 303.81 92.0578 303.813 92.0588C304.023 91.9081 303.486 91.3425 303.831 91.0553C302.877 91.4367 301.917 91.818 300.952 92.1992C300.01 91.9472 299.064 91.6951 298.115 91.4426C297.828 91.6095 297.541 91.7763 297.253 91.9431C297.662 91.9713 298.071 91.9994 298.478 92.0275ZM337.166 88.3706C346.1 87.2667 336.598 86.7604 332.647 88.4314C332.705 88.7093 336.266 88.481 337.166 88.3706ZM314.405 90.5563C313.058 90.5618 311.701 90.5675 310.334 90.5734C310.18 90.7679 310.027 90.9625 309.873 91.1571C310.931 91.2202 311.984 91.2833 313.031 91.3466C313.491 91.0831 313.949 90.8197 314.405 90.5563ZM269.532 97.7165C267.344 98.0944 264.39 96.3717 271.475 96.2901C271.489 96.5008 271.504 96.7115 271.518 96.9222C271.236 96.9128 270.397 96.7857 270.353 96.8052C270.228 96.8688 270.441 97.5586 269.532 97.7165ZM353.688 92.1693C353.95 92.223 354.342 94.4195 356.731 91.8568C357.537 91.9152 358.335 91.9752 359.124 92.0369C359.275 91.5285 359.426 91.0202 359.577 90.512C356.614 91.192 356.154 90.2447 355.935 90.2453C354.899 90.2591 355.712 90.6883 355.048 90.7642C353.214 90.9707 349.659 91.0057 351.43 92.2828C352.062 92.7403 353.387 92.12 353.688 92.1693ZM348.139 94.0355C348.474 93.8123 347.261 93.2881 347.509 93.0761C347.737 92.8891 351.149 91.854 350.089 90.8607C349.524 90.9678 348.956 91.0755 348.385 91.1839C348.222 91.5047 348.058 91.8256 347.895 92.1466C347.305 91.9305 346.712 91.7149 346.115 91.4999C345.242 92.3433 343.296 93.526 345.791 93.8633C344.895 93.8973 343.991 93.9325 343.079 93.9689C342.572 93.6662 342.062 93.3638 341.55 93.0616C341.857 93.5742 342.164 94.0869 342.47 94.5997C344.394 94.4061 346.284 94.2178 348.139 94.0355ZM375.588 91.2052C375.463 90.9329 375.338 90.6606 375.212 90.3884C378.432 90.6635 383.016 90.6192 380.247 89.0104C376.308 89.0924 371.747 89.3031 367.175 89.5695C366.919 89.8046 366.662 90.04 366.405 90.2757C369.407 89.1881 368.954 92.7029 371.752 91.4712C372.223 91.2648 370.729 90.167 373.837 90.6983C373.751 90.9878 373.666 91.2773 373.58 91.5668C374.259 91.4439 374.928 91.3233 375.588 91.2052ZM399.651 90.776C396.315 90.6078 400.108 92.2775 399.954 91.449C399.954 91.4489 399.953 91.4488 399.953 91.4488C400.41 90.3729 400.576 90.1005 400.218 89.9878C399.89 89.8757 398.764 89.9612 398.618 89.9381C398.197 89.8611 397.779 88.0906 395.554 90.3745C396.368 90.4104 397.095 90.4597 397.721 90.5169C398.44 90.5826 399.233 90.6973 399.651 90.776ZM385.02 90.6587C385.473 90.6968 385.208 90.2826 385.403 90.2819C385.404 90.2818 385.406 90.2817 385.408 90.2817C386.85 90.2735 389.14 90.3369 390.921 90.2821C393.164 90.2233 394.798 90.068 395.141 89.4029C393.241 89.0722 384.377 88.9616 383.587 89.9776C384.074 90.2026 384.552 90.4297 385.02 90.6587ZM364.342 91.137C362.656 92.1859 366.652 91.9258 367.601 91.4321C367.783 91.3267 366.094 90.0499 364.342 91.137ZM220.613 106.315C216.412 105.944 221.883 105.201 219.95 104.443C220.75 104.483 221.548 104.521 222.346 104.559C221.77 105.145 221.192 105.73 220.613 106.315ZM28.2806 84.8451C27.2826 84.587 27.9137 84.2753 27.8326 84.2379C27.1958 84.0207 26.4568 84.1889 26.2293 84.0578C22.0495 81.5974 25.1782 82.3151 25.2544 82.2393C25.5244 81.8034 24.5678 80.815 26.3841 80.8837C27.3014 81.4174 28.2225 81.9467 29.1475 82.4717C29.7319 82.3863 30.3166 82.2996 30.8925 82.2083C32.6294 83.4621 30.042 82.7182 29.4761 83.3576C29.257 83.6111 30.9826 84.6308 28.2806 84.8451ZM213.149 108.264C212.437 107.403 210.731 106.338 212.348 105.402C212.35 105.402 212.351 105.402 212.353 105.402C212.652 105.23 213.885 105.102 214.256 104.862C216.995 105.948 216.011 107.201 213.149 108.264ZM45.6716 92.2452C47.3576 92.5332 49.0447 92.8084 50.7326 93.0711C50.8489 92.5535 50.9654 92.0359 51.082 91.5183C50.1738 91.4098 49.2658 91.2977 48.3577 91.1819C48.121 90.8612 47.8849 90.5402 47.6497 90.219C48.8948 89.9557 50.136 89.6854 51.3734 89.4085C52.6045 89.9775 53.8578 90.5444 55.0804 91.0951C54.4167 91.2046 53.7508 91.3118 53.077 91.4152C56.1604 92.5817 55.802 91.1478 58.5316 91.3589C59.2992 92.0667 60.0714 92.772 60.8482 93.475C62.2685 93.3259 63.6857 93.1686 65.0998 93.0032C67.2274 93.7517 67.3382 94.1602 65.7333 94.357C66.6742 95.2426 68.0998 94.5396 69.354 95.0955C69.4579 95.1409 69.1182 95.6839 69.2126 95.713C75.9419 97.6479 75.9201 95.9704 77.0196 96.142C77.8006 96.261 80.6443 97.9292 80.6224 98.295C80.5962 98.7855 73.8007 99.4402 83.8257 101.448C78.3832 101.796 72.7155 99.17 76.9508 98.0502C75.2597 97.9218 68.1442 95.833 67.6784 95.7682C66.9891 95.6988 67.0531 96.4825 66.2092 96.3034C65.7076 96.1921 64.8018 94.2366 60.5372 94.7032C60.1071 94.3047 59.6785 93.9054 59.2513 93.5054C58.7277 93.6087 58.2035 93.7109 57.6786 93.8119C58.4305 94.8593 59.1899 95.9045 59.957 96.9475C56.3432 95.11 52.7577 95.8693 50.7791 93.8415C48.7126 93.429 47.6858 93.2948 48.3535 94.2424C47.7456 94.0669 47.1382 93.8898 46.5313 93.711C46.2432 93.2227 45.9566 92.7341 45.6716 92.2452ZM200.733 107.297C198.753 108.151 198.009 106.387 198.319 106.283C200.058 105.708 201.761 106.852 200.733 107.297ZM32.1466 85.2219C34.4508 85.5426 36.7547 85.8371 39.0579 86.1062C38.8846 86.639 38.7112 87.1718 38.5379 87.7046C36.3969 86.899 34.2662 86.0716 32.1466 85.2219ZM221.274 107.55C221.459 107.122 221.644 106.694 221.828 106.266C224.293 107.701 226.569 105.395 227.764 105.793C228.025 105.88 227.544 106.645 227.063 106.827C226.768 106.943 221.71 107.677 221.274 107.55ZM320.759 99.1916C319.825 99.0108 318.886 98.8303 317.942 98.6501C318.044 99.1141 318.146 99.5782 318.248 100.042C318.708 100.08 319.168 100.118 319.625 100.156C320.004 99.8346 320.382 99.5131 320.759 99.1916ZM310.696 99.5323C309.143 99.7371 307.577 99.9421 305.997 100.147C312.051 99.9398 307.153 100.674 310.843 100.898C310.794 100.443 310.745 99.9874 310.696 99.5323ZM294.746 102.153C294.965 102.415 295.183 102.676 295.401 102.937C296.918 102.785 298.554 102.618 300.17 102.452C299.253 103.531 298.309 104.611 297.399 105.687C296.834 105.747 296.269 105.807 295.701 105.866C295.383 104.629 295.064 103.391 294.746 102.153ZM-14.1883 67.8178C-15.1044 67.3311 -17.7879 64.7893 -17.4909 64.5926C-16.0104 65.0114 -14.5298 65.4148 -13.0491 65.8033C-13.3183 66.2961 -13.5875 66.7889 -13.8566 67.2818C-13.536 67.1413 -13.2157 67.0004 -12.896 66.8588C-12.2608 67.4542 -11.6217 68.047 -10.979 68.6369C-10.3692 68.4106 -9.76122 68.1822 -9.15482 67.9517C-9.0456 68.6472 -8.9334 69.3431 -8.81835 70.0392C-12.8973 68.9774 -12.2911 68.1496 -13.0408 67.7509C-13.4204 67.5448 -13.8287 67.7142 -14.0484 67.7915C-14.095 67.8003 -14.1416 67.8091 -14.1883 67.8178ZM32.4753 89.118C27.8882 87.6826 25.7868 85.3244 22.0739 85.2299C25.104 83.6593 37.7546 91.0022 43.2913 90.3108C43.6685 90.8688 44.048 91.4261 44.4297 91.9829C41.8983 90.8233 39.8174 91.0717 38.4934 90.7772C37.4433 90.5424 37.6872 90.155 37.6073 90.136C37.6037 90.1348 37.6 90.1336 37.5964 90.1324C35.1597 89.5264 34.2888 89.6799 32.4753 89.118ZM224.757 109.471C223.56 110.192 221.399 110.213 221.336 109.24C222.525 108.91 223.709 108.578 224.891 108.244C224.656 108.504 224.962 109.348 224.757 109.471ZM293.209 105.041C292.306 105.449 290.052 105.391 290.93 104.46C291.089 104.295 293.355 104.665 291.911 103.282C294.062 103.092 293.723 104.806 293.209 105.041ZM112.024 104.902C112.841 105.033 113.658 105.161 114.476 105.288C114.62 105.702 114.765 106.115 114.91 106.528C113.945 105.989 112.983 105.447 112.024 104.902ZM235.238 109.631C236.218 107.651 238.174 109.417 240.104 107.718C240.849 107.662 241.594 107.605 242.337 107.547C242.339 107.547 242.34 107.547 242.342 107.547C242.395 108.07 242.447 108.592 242.499 109.115C240.092 109.294 237.671 109.467 235.238 109.631ZM60.7425 96.3866C61.3034 96.276 61.8637 96.164 62.4232 96.0508C63.2469 96.5473 64.0737 97.0411 64.9032 97.5321C64.3712 97.6144 63.8387 97.6955 63.3056 97.7755C62.4485 97.3155 61.5942 96.8526 60.7425 96.3866ZM248.357 109.001C245.786 109.412 244.706 107.806 248.01 107.585C249.4 107.492 251.042 108.568 248.357 109.001ZM-57.2799 36.0012C-56.4669 36.5533 -55.6517 37.0985 -54.8343 37.6371C-54.8225 38.1189 -54.8092 38.6012 -54.7942 39.0839C-55.632 38.0636 -56.4605 37.0362 -57.2799 36.0012ZM305.465 103.594C305.324 103.256 305.184 102.917 305.043 102.578C304.258 102.732 303.47 102.886 302.678 103.039C302.915 103.366 303.152 103.692 303.389 104.018C304.083 103.877 304.776 103.736 305.465 103.594ZM-52.2641 40.1779C-51.6354 40.6325 -51.0049 41.0833 -50.3729 41.5302C-50.0877 41.9953 -49.8007 42.4596 -49.5119 42.9231C-50.1753 42.5906 -50.8382 42.254 -51.5005 41.9133C-51.7578 41.3353 -52.0123 40.7569 -52.2641 40.1779ZM272.974 106.945C272.031 107.452 267.976 106.473 271.496 105.837C273.732 105.431 273.116 106.868 272.974 106.945ZM278.386 106.889C274.576 108.038 277.143 103.712 281.961 105.926C277.312 105.989 278.605 106.82 278.386 106.889ZM311.928 105.661C312.021 105.649 312.036 105.056 312.778 104.954C315.448 104.59 318.895 103.979 320.956 103.716C325.907 103.086 339.712 102.61 341.482 100.707C341.796 100.313 340.867 99.3415 341.004 99.271C341.414 99.0713 343.872 99.3214 343.341 98.5895C341.002 98.853 338.568 99.1294 336.173 99.402C336.783 99.8918 337.478 100.372 338.126 100.858C332.26 101.213 334.269 101.024 332.474 100.009C331.563 100.581 330.646 101.154 329.722 101.727C327.545 101.497 325.336 101.27 323.095 101.045C323.63 101.338 324.163 101.631 324.695 101.925C321.479 102.934 322.341 102.41 320.429 101.766C320.464 102.115 320.498 102.464 320.533 102.812C317.172 102.323 316.774 103.421 316.093 103.508C314.718 103.678 312.563 99.7466 307.632 104.419C305.15 102.687 305.62 106.694 304.058 104.795C300.39 107.423 307.741 105.846 311.125 105.405C311.127 105.405 311.129 105.404 311.131 105.404C311.388 105.37 311.019 105.788 311.928 105.661ZM291.939 105.663C294.438 107.25 285.288 108.311 288.072 105.4C288.517 105.271 288.961 105.143 289.404 105.014C290.253 105.23 291.1 105.447 291.945 105.663C291.943 105.663 291.941 105.663 291.939 105.663ZM204.434 112.495C195.762 111.905 200.671 110.772 203.616 111.739C204.204 111.93 204.53 112.201 204.434 112.495ZM25.4938 88.1194C25.4435 87.8681 25.3934 87.6167 25.3436 87.3654C28.1788 88.6487 33.9752 89.7485 33.438 91.1135C30.7788 90.1511 28.1615 89.165 25.4938 88.1194ZM48.1689 96.5329C47.5127 96.44 44.8777 95.8835 45.3458 95.4455C46.5707 95.4014 47.7937 95.3507 49.0146 95.2934C49.4661 95.6764 49.9191 96.0585 50.3735 96.4397C49.6247 96.3162 48.3466 96.5601 48.1689 96.5329Z" fill="#FBBF4A"/>
</g>
<defs>
<clipPath id="clip0_2012_9">
<rect width="357" height="116" fill="white"/>
</clipPath>
</defs>
</svg>
