<svg width="359" height="144" viewBox="0 0 359 144" fill="none" xmlns="http://www.w3.org/2000/svg">
<g clip-path="url(#clip0_2001_2)">
<path d="M-161.408 -177.803C-170.461 -161.562 -160.972 -150.577 -158.518 -135.084C-153.455 -102.22 -147.719 -56.3086 -131.893 -22.167C-120.42 3.52854 -103.881 27.8447 -83.8029 48.0999C-82.7798 49.1368 -81.4883 49.0884 -81.0227 49.5482C-76.6944 53.8883 -69.6709 61.6087 -64.8624 65.4516C-55.0083 73.7633 -36.7037 86.5084 -26.1867 91.2612C-21.7714 93.3649 -17.2843 95.5557 -14.5749 94.387C-12.9655 95.0903 -13.0407 97.3587 -12.6777 97.6681C-12.6721 97.6686 -12.6664 97.6692 -12.6608 97.6698C-11.4882 98.6589 -7.48802 99.0053 -6.78658 99.4341C-6.68074 99.4994 -8.01282 100.521 -6.00704 100.974C-5.82901 101.014 -5.54463 100.03 -4.01622 100.728C-3.61437 100.925 0.817241 104.646 2.26052 105.361C6.99862 107.83 19.2805 111.339 25.1614 113.338C26.0623 113.651 26.3893 114.392 27.3417 114.727C27.8335 114.901 28.7789 114.538 28.9291 114.592C29.581 114.839 31.5907 118.575 32.3357 112.742C35.238 114.068 33.7749 115.595 33.4641 116.8C36.7304 118.027 39.1144 115.895 39.15 118.918C55.6075 123.497 72.1018 126.837 88.4438 129.264C88.3699 129.728 88.2961 130.192 88.2223 130.656C93.3485 129.616 94.5119 132.998 97.6776 130.721C99.2847 131.568 100.899 132.408 102.507 133.237C146.259 137.418 188.973 139.956 230.521 137.963C232.299 137.875 232.695 136.856 235.607 136.694C238.821 136.516 243.382 137.414 247.542 137.13C251.18 136.886 256.486 135.567 260.625 135.102C261.551 135 262.269 135.58 262.373 135.568C262.984 135.496 262.936 134.494 263.527 134.419C264.233 134.332 265.146 135.005 265.957 134.894C268.992 134.486 272.287 134.464 272.665 134.414C274.487 134.163 274.801 133.151 274.95 133.127C276.962 132.832 276.28 133.78 276.778 133.685C279.4 133.181 281.169 130.804 285.011 132.576C284.836 131.769 284.66 130.962 284.484 130.155C287.233 129.434 285.593 131.776 286.2 132.115C286.458 132.24 292.385 131.404 292.822 131.319C294.39 131.024 294.322 129.935 294.457 129.907C294.817 129.837 298.76 130.686 300.827 129.517C303.203 128.14 300.046 126.236 300.622 125.759C300.722 125.678 303.341 125.637 303.612 124.911C303.919 124.128 301.685 124.376 301.686 124.06C301.694 123.844 305.234 121.93 304.416 120.973C303.766 119.998 298.796 121.849 297.744 121.463C297.568 121.399 297.756 120.092 297.602 120.06C297.031 119.953 285.734 121.02 285.185 121.274C285.838 121.799 286.49 122.324 287.141 122.848C286.354 122.983 285.565 123.117 284.773 123.25C285.951 123.61 287.124 123.968 288.293 124.326C287.088 129.274 281.523 124.897 281.092 122.525C280.903 121.428 283.754 118.298 280.705 116.909C281.12 116.585 281.534 116.261 281.946 115.937C282.895 116.319 283.841 116.701 284.785 117.082C284.213 117.432 283.64 117.782 283.065 118.132C283.317 118.443 283.57 118.755 283.822 119.066C285.561 119.441 287.291 119.814 289.01 120.186C289.844 119.858 289.571 118.895 290.139 118.648C297.185 115.545 292.748 119.051 297.424 118.14C298.025 117.547 298.696 116.947 299.345 116.349C299.317 118.551 301.372 116.961 304.078 117.627C303.693 116.956 303.308 116.284 302.922 115.612C306.783 115.593 313.84 111.243 312.246 115.344C313.051 114.921 313.851 114.499 314.648 114.077C315.42 114.636 316.189 115.195 316.956 115.754C317.902 115.577 318.88 115.397 319.91 115.21C319.877 114.866 319.844 114.521 319.811 114.177C318.995 114.265 318.164 114.354 317.417 114.433C317.872 113.323 318.346 112.211 318.854 111.095C319.477 111.203 320.097 111.311 320.715 111.419C318.305 112.687 321.807 113.94 322.752 115.235C324.914 115.513 326.034 113.572 326.719 113.414C327.049 113.338 331.195 116.083 329.321 112.768C331.317 112.974 333.285 113.182 335.224 113.394C335.942 113.044 336.615 112.699 337.363 112.345C335.457 110.916 340.238 108.407 336.492 108.144C333.896 107.922 333.418 109.51 332.19 109.636C331.078 109.753 330.374 108.798 329.144 108.888C320.747 109.533 313.982 110.468 306.116 111.755C304.546 112.013 303.044 111.663 301.976 111.845C300.769 112.051 302.426 113.175 300.842 113.023C299.176 112.862 298.711 111.852 298.276 111.875C297.999 111.892 297.255 112.918 296.516 112.993C293.452 113.304 288.775 112.84 288.325 112.888C287.849 112.951 278.925 114.642 278.477 114.832C278.253 114.937 279.048 118.373 276.7 114.844C276.055 114.832 275.451 114.816 274.841 114.8C275 115.487 275.159 116.173 275.318 116.86C271.502 114.537 272.87 115.905 269.368 115.993C260.954 116.206 248.42 117.714 239.171 117.991C237.087 118.055 236.247 117.266 233.771 117.337C231.447 117.413 225.628 120.18 226.763 116.669C221.858 119.883 220.826 114.755 218.413 118.065C218.088 117.609 217.763 117.153 217.439 116.696C214.747 118.8 213.829 117.065 210.793 116.91C209.483 116.84 211.049 118.935 208.343 116.628C207.843 116.817 207.341 117.007 206.839 117.196C206.969 117.71 207.099 118.223 207.23 118.737C204.266 118.384 204.106 118.653 204.392 116.713C203.002 117.094 201.608 117.472 200.21 117.846C200.025 117.214 199.841 116.582 199.658 115.95C200.288 114.867 232.126 115.622 236.723 115.802C241.92 114.085 252.176 115.206 256.475 114.536C258.158 114.273 258.799 112.786 261.227 112.425C263.654 112.064 266.802 113.116 268.089 113.055C272.219 112.909 292.851 110.701 278.683 110.217C279.024 109.484 279.364 108.75 279.703 108.016C285.467 109.882 283.333 108.604 287.852 107.924C289.754 107.637 294.382 108.747 293.812 105.609C290.28 105.368 286.627 106.742 283.513 106.989C283.207 107.013 279.383 105.911 277.496 106.476C275.824 106.987 277.163 109.912 273.26 106.839C270.846 110.385 269.006 107.513 268.262 107.253C266.971 106.803 266.969 108.449 265.733 108.742C264.386 109.063 263.355 108.053 263.168 108.061C261.332 108.193 251.324 108.782 251.014 109.456C251.423 109.72 251.831 109.983 252.239 110.246C249.765 110.888 250.171 109.177 249.498 109.022C249.007 109.062 248.515 109.101 248.022 109.14C248.241 109.474 248.459 109.808 248.678 110.142C245.694 110.266 247.9 108.912 243.66 109.215C240.966 109.406 238.231 110.894 237.96 110.811C237.88 110.787 238.686 109.844 237.569 109.788C235.722 109.697 232.531 109.889 232.234 111.123C231.317 110.997 231.334 109.803 231.212 109.782C230.614 109.705 221.76 109.706 220.135 109.687C215.691 109.668 210.723 110.081 205.843 109.991C205.341 109.982 205.678 110.74 205.174 110.726C204.365 110.707 200.275 109.582 199.661 109.504C198.138 109.323 194.126 109.841 193.489 109.495C193.399 109.447 194.713 108.403 193.165 108.094C191.446 107.75 192.378 109.135 192.285 109.149C188.787 109.644 186.566 108.674 184.171 108.477C183.394 108.413 181.95 109.45 180.852 109.131C180.726 109.094 180.986 108.13 180.862 108.081C179.208 107.558 177.66 109.332 176.94 109.437C175.19 109.694 176.162 108.385 176.071 108.374C174.911 108.313 173.337 108.762 171.568 108.659C163.689 108.192 157.191 107.865 148.804 107.472C147.749 107.422 146.438 108.276 146.276 108.267C145.776 108.229 145.988 107.143 144.544 107.074C141.499 106.93 138.681 106.67 135.667 106.447C135.06 106.402 134.717 107.394 134.252 107.378C132.685 107.318 127.647 104.178 127.242 107.463C124.443 104.243 122.15 106.543 119.664 106.238C113.778 105.535 104.712 103.728 98.787 103.168C97.5431 103.055 96.8304 103.8 96.1367 103.734C94.8876 103.633 87.9542 101.944 87.5689 101.995C86.8086 102.115 86.5428 105.881 83.4496 101.972C81.3302 101.324 81.2883 102.876 80.8231 102.869C77.1936 102.778 74.4814 98.679 74.4633 101.887C70.5438 100.168 68.3322 97.8586 65.9906 100.318C66.3426 98.9288 64.6414 97.6422 62.222 97.5961C63.9858 100.509 63.3336 101.964 69.188 102.871C69.2801 102.885 69.3386 101.836 69.4305 101.85C70.2652 101.97 71.8634 102.866 73.2793 103.117C74.6946 103.366 74.0649 102.505 74.6231 102.639C75.1337 102.763 74.9094 103.729 75.6524 103.901C78.0678 104.452 80.1443 105.146 81.5106 105.431C82.3726 105.611 83.5033 104.942 84.1722 105.069C86.7547 105.575 92.141 107.222 95.477 107.658C96.1715 107.748 96.0373 106.738 97.5587 106.898C97.7363 106.916 98.2207 108.025 99.5152 108.437C100.81 108.849 101.914 108.501 102.751 108.73C103.449 108.92 103.027 109.775 104.475 110.038C105.682 110.307 119.542 111.373 120.304 111.264C121.404 111.175 122.049 109.964 122.688 110.187C122.799 110.233 122.867 111.474 123.259 111.603C129.737 113.78 144.523 113.253 152.03 113.611C167.802 114.444 182.285 115.385 198.119 115.471C198.403 115.681 198.687 115.891 198.971 116.101C197.377 116.131 195.78 116.158 194.18 116.179C194.175 116.757 194.17 117.335 194.164 117.913C191.996 118.021 192.274 116.651 192.331 115.826C191.532 116.181 190.731 116.534 189.928 116.887C189.231 114.879 183.874 116.216 181.091 116.182C179.278 116.167 177.178 115.37 176.23 115.414C174.234 115.505 174.262 116.746 174.105 116.764C173.836 116.787 171.069 115.637 169.053 115.625C166.074 115.604 165.685 117.505 161.648 115.739C156.358 116.534 150.563 115.752 144.922 115.227C145.888 117.057 140.92 115.063 138.634 114.913C124.654 114.07 107.429 112.866 93.0863 111.15C91.2495 110.933 89.6944 111.717 88.6824 111.503C88.1336 111.388 88.1081 110.14 87.3164 110.163C87.1768 110.169 86.8806 111.281 85.4243 111.189C81.7925 110.989 73.3653 107.307 70.6518 108.932C58.5906 105.911 46.6121 102.315 34.8179 98.0206C34.3714 98.3649 33.9238 98.7083 33.475 99.0508C31.9877 96.0602 22.6257 94.2045 18.3459 92.3406C10.8171 89.1697 1.64808 84.1996 -4.73219 80.8398C-6.117 80.1176 -7.56768 80.1304 -8.87503 79.4255C-9.43731 79.121 -9.72367 77.9721 -10.3039 77.6546C-16.8168 74.1121 -25.9795 69.6586 -32.2482 65.3497C-46.4518 55.6578 -59.1936 45.0718 -71.1065 32.2299C-112.159 -11.6368 -129.459 -71.1442 -134.805 -125.631C-134.88 -126.359 -135.884 -126.231 -135.942 -126.798C-136.312 -130.135 -136.037 -137.797 -136.276 -141.719C-136.486 -144.819 -138.224 -149.796 -136.698 -150.949C-133.979 -139.733 -133.334 -128.329 -131.421 -117.586C-131.278 -116.753 -130.31 -116.764 -130.28 -116.663C-129.72 -114.809 -131.184 -115.842 -130.896 -113.093C-130.82 -112.134 -126.587 -104.288 -129.741 -104.828C-128.293 -102.953 -125.263 -89.5143 -125.056 -86.9548C-125.014 -86.1556 -126.015 -86.5159 -126.027 -86.3528C-126.081 -85.642 -124.796 -85.6026 -124.636 -85.0169C-124.222 -83.4302 -124.193 -78.8147 -123.986 -78.0234C-123.534 -76.1355 -121.129 -70.8612 -120.684 -68.4235C-120.281 -66.1766 -121.65 -66.2281 -121.217 -64.3062C-120.866 -62.8006 -120.298 -64.7088 -118.992 -61.5293C-118.351 -59.9268 -117.317 -54.1912 -116.8 -52.7316C-116.307 -51.2919 -115.016 -49.9627 -114.364 -47.9999C-113.439 -45.1564 -111.503 -39.0287 -110.564 -36.2074C-110.508 -36.0389 -111.274 -35.2452 -111.083 -34.8499C-110.687 -34.0324 -109.643 -34.7766 -109.258 -34.2028C-108.931 -33.5985 -104.159 -22.9106 -103.076 -20.9814C-102.426 -19.7153 -102.636 -18.5022 -102.265 -17.8084C-101.972 -17.2655 -101.019 -17.6941 -100.716 -17.1481C-100.626 -16.9783 -100.651 -15.0947 -99.8384 -13.6658C-99.0837 -12.2946 -95.4172 -7.6769 -95.0562 -7.12489C-94.8284 -6.75224 -95.7125 -6.78094 -95.0286 -5.6823C-94.4015 -4.68265 -93.1767 -4.5328 -92.8138 -3.97526C-91.9765 -2.68756 -91.7329 -0.774543 -90.7895 0.675201C-88.094 4.78007 -87.2258 3.86063 -87.035 4.08699C-86.4899 4.69036 -87.2024 5.57761 -87.069 5.80923C-86.5068 6.78566 -85.0782 9.13571 -84.5226 9.96156C-83.833 10.9943 -82.6875 10.7976 -81.9018 11.8394C-81.3194 12.6163 -80.9349 14.7986 -79.5963 16.5719C-76.6434 20.517 -72.7922 25.3331 -69.3947 28.9566C-68.3798 30.0429 -67.5303 29.5589 -67.2046 29.8716C-65.4897 31.5082 -65.3244 33.1886 -64.8408 33.6657C-61.4231 37.0867 -54.0268 41.7508 -50.5434 44.5341C-49.1582 45.7019 -43.5456 51.3727 -39.8852 53.9347C-39.4705 54.232 -39.4012 53.352 -39.0204 53.7865C-38.1087 54.8239 -39.1126 55.959 -38.5309 56.3358C-38.2483 56.5126 -37.1259 56.2839 -36.2919 56.7873C-31.9629 59.3956 -29.4702 61.8553 -27.5296 63.0865C-8.90362 74.8973 11.4245 83.9473 30.4581 90.5695C32.5591 91.3039 34.8912 93.0675 38.3713 93.2877C38.6162 92.8734 38.8604 92.4588 39.1044 92.044C39.0728 92.5195 39.0418 92.9951 39.0112 93.4708C42.5662 94.8804 43.7801 95.8792 47.6943 96.429C48.0336 96.478 49.6131 94.705 49.4837 97.4406C53.7377 96.6472 51.1584 97.9391 53.8869 98.8827C56.5903 99.8105 59.4245 99.9361 62.1359 100.475C63.8234 99.9198 58.2395 96.2311 57.8551 96.122C57.2148 95.9612 56.2075 97.0628 55.5717 96.9634C53.6939 96.6738 52.1843 95.1546 51.454 96.1762C49.4225 94.2964 52.2066 95.7408 52.2161 94.5715C50.5095 94.5729 48.8004 94.5615 47.089 94.5369C47.3894 90.6638 37.2641 92.6924 38.764 90.089C37.8986 90.4187 37.0303 90.7448 36.1592 91.0674C34.3326 86.5837 31.8102 88.4411 27.4046 87.9783C27.8557 87.6465 28.3057 87.3138 28.7545 86.9801C28.7366 86.7713 25.4966 84.7577 26.0471 87.0933C23.3954 83.2752 21.9531 87.3979 19.9253 83.1833C18.1898 82.0368 18.6287 84.2126 15.2557 82.7642C13.2573 81.9013 11.1735 79.9448 9.00293 78.8841C8.50128 78.6425 7.8391 79.5075 7.38661 79.2996C6.93497 79.0913 7.14763 78.0424 6.61137 77.7638C5.50335 77.1865 3.72529 77.1486 3.05011 76.7435C2.44401 76.3836 1.9449 75.1226 0.504125 74.2434C-4.50825 71.1405 -3.51645 73.0868 -4.55284 73.0577C-5.6614 73.0086 -5.49129 71.1487 -7.33368 70.38C-7.51961 70.3031 -7.57773 71.4971 -8.13013 71.149C-8.57575 70.8676 -8.2492 69.7171 -9.65534 68.686C-10.24 68.3248 -19.3496 62.6733 -20.689 61.7263C-22.7945 60.3818 -28.0101 58.1169 -30.145 56.5986C-30.9716 56.0222 -31.3055 54.6351 -32.1734 54.0196C-35.0711 51.9787 -39.5971 48.6537 -43.0954 45.841C-46.2472 43.3664 -52.9995 40.1628 -53.3601 37.2396C-57.3443 33.1908 -59.3822 33.3361 -59.7181 33.0511C-60.5837 32.2732 -60.2111 31.1459 -61.1957 30.0692C-74.2726 16.1554 -89.3168 -3.87217 -97.3461 -19.7841C-116.586 -56.749 -124.622 -97.7836 -127.634 -137.845C-127.172 -137.984 -126.71 -138.122 -126.248 -138.26C-125.645 -133.493 -124.375 -128.062 -123.723 -123.56C-122.939 -117.933 -123.513 -107.493 -119.597 -103.605C-119.619 -105.489 -121.289 -108.357 -119.645 -108.543C-119.04 -105.219 -118.392 -101.946 -117.701 -98.7241C-118.469 -98.6877 -119.238 -98.652 -120.006 -98.617C-119.623 -95.1647 -118.795 -91.7566 -118.203 -88.4137C-118.099 -87.8331 -118.863 -88.0984 -118.76 -87.5949C-118.643 -87.0322 -118.035 -87.5606 -118.007 -87.4565C-117.698 -86.0485 -118.294 -85.4526 -118.241 -85.2597C-118.107 -84.7878 -117.529 -85.3035 -117.034 -83.9741C-116.114 -81.5162 -117.427 -79.3061 -114.649 -80.5953C-114.455 -79.7889 -114.259 -78.9857 -114.06 -78.1857C-114.802 -77.781 -115.543 -77.3747 -116.284 -76.9668C-111.842 -72.8771 -116.789 -69.1329 -111.608 -67.7416C-112.031 -66.6795 -112.448 -65.6146 -112.86 -64.5469C-111.93 -64.2948 -111 -64.0483 -110.07 -63.8075C-110.713 -63.5077 -111.354 -63.2073 -111.996 -62.9062C-110.1 -58.5021 -109.205 -53.2273 -107.423 -48.6856C-106.192 -45.5668 -105.641 -44.9294 -104.597 -42.1917C-102.232 -36.159 -103.414 -42.5968 -99.9538 -38.2905C-100.853 -38.2019 -101.753 -38.1166 -102.654 -38.0343C-102.595 -37.0952 -102.531 -36.157 -102.463 -35.2197C-101.572 -34.939 -100.681 -34.6653 -99.7913 -34.3985C-101.993 -30.4231 -98.5622 -30.0662 -98.4117 -29.7471C-98.2911 -29.4875 -99.8029 -27.5207 -96.6443 -25.348C-99.9484 -25.2481 -95.5088 -23.0552 -95.3482 -22.8019C-95.2065 -22.5396 -94.0247 -18.8612 -93.2522 -17.5343C-92.6528 -16.4817 -90.8356 -14.5646 -89.9673 -13.0191C-89.2009 -11.6528 -90.1536 -11.2737 -90.105 -11.1691C-89.1886 -9.46487 -89.1309 -10.9094 -88.3803 -9.73837C-87.629 -8.57196 -87.7975 -7.20381 -87.5728 -6.98958C-87.4583 -6.88401 -86.9196 -7.81047 -86.4786 -7.27682C-85.3303 -5.89893 -84.1047 -2.47728 -82.8619 -0.693598C-82.4213 -0.0544466 -81.2086 0.295129 -80.7009 0.983436C-79.9245 2.04 -80.4417 3.15495 -79.9726 3.75986C-79.8048 3.97067 -77.4882 4.38318 -76.4548 6.19971C-76.2668 6.53809 -78.3412 9.59855 -73.4755 7.81972C-73.9563 8.33628 -74.4363 8.85374 -74.9155 9.37206C-71.9739 15.97 -66.3664 13.747 -68.1238 19.4157C-64.3023 22.9285 -65.1762 18.9655 -64.5766 19.1974C-64.1977 19.3432 -63.493 20.9361 -63.3463 21.0503C-63.0855 21.2494 -62.658 20.7873 -62.4239 21.0502C-58.1388 25.8669 -60.9323 24.565 -60.0669 26.5762C-57.9287 31.3408 -52.4585 31.2043 -59.2163 26.0343C-58.9641 25.7917 -58.712 25.5491 -58.4599 25.3064C-57.2747 27.0492 -53.4305 30.6125 -53.43 28.1195C-53.4767 26.2346 -62.5731 17.9186 -56.37 21.6372C-54.9681 22.4618 -55.3329 23.9869 -51.6814 24.163C-50.3308 25.3173 -52.3763 27.7871 -49.735 28.5494C-50.7921 29.0784 -51.8532 29.6019 -52.9183 30.1198C-51.5268 33.4958 -47.0513 34.9462 -45.5183 37.1092C-45.012 37.8456 -45.996 43.9802 -43.1328 39.4492C-42.2226 40.6972 -36.172 44.3324 -35.426 45.4712C-35.247 45.7442 -36.6661 48.2658 -32.4058 50.1922C-31.9404 50.0949 -31.4758 49.9962 -31.0121 49.8959C-33.748 46.6218 -27.2326 50.0784 -27.27 46.7355C-28.5124 47.3336 -31.5676 45.9962 -32.3445 46.1621C-33.6882 46.4538 -32.3575 49.1464 -34.8638 46.7881C-33.8434 41.9406 -30.2338 47.2559 -28.4405 43.2727C-26.0828 47.4731 -24.5866 46.1677 -23.7423 46.6726C-20.0937 48.8244 -18.1212 50.6659 -14.4874 52.3747C-14.1293 53.656 -20.9179 50.7893 -21.4437 49.9409C-20.3947 54.3718 -25.2845 51.2782 -26.1972 48.3557C-26.9036 49.0024 -27.6122 49.6471 -28.3226 50.2902C-25.4224 51.7305 -22.7219 53.2496 -20.4923 55.6137C-20.1292 55.4322 -19.7667 55.2501 -19.405 55.0671C-19.7118 54.2418 -20.0128 53.4164 -20.3078 52.5909C-17.6668 53.2851 -20.4495 54.7442 -16.2462 54.585C-16.7179 55.5334 -17.1883 56.4825 -17.6575 57.4324C-14.6323 58.9211 -11.5732 60.3437 -8.51158 61.687C-8.06221 64.4055 -1.98559 66.7928 -1.74561 63.8075C0.620875 64.842 -2.87789 64.6412 -1.04135 66.3605C-0.239697 67.1088 1.57033 68.1255 2.35798 67.6963C3.33076 65.2736 0.757429 63.591 0.783713 61.5765C1.47424 61.4019 13.3885 69.2623 13.5503 65.8973C14.7148 66.0271 13.5914 67.2445 15.2695 68.4401C20.0079 71.8234 29.2839 72.194 32.2595 77.4026C26.4071 77.5429 25.7229 74.7914 21.9383 73.1471C19.4634 72.2088 5.01541 65.0874 7.08561 69.0677C6.69712 68.4924 6.31165 67.9162 5.92959 67.3393C5.02695 67.81 4.12014 68.2763 3.20906 68.7381C4.69237 69.6099 6.18614 70.4676 7.69001 71.3111C8.41148 70.7481 9.12983 70.1825 9.8453 69.6145C9.76765 70.2228 9.69132 70.8316 9.61619 71.4407C10.2235 71.8514 10.828 72.2576 11.4328 72.6607C11.5403 71.9384 11.6494 71.2165 11.7601 70.4951C12.808 70.8435 13.8578 71.1853 14.9095 71.5204C14.2592 72.258 13.6062 72.9938 12.9507 73.728C17.631 76.0545 16.2615 74.8008 19.5943 74.3134C21.6518 74.9753 17.5828 75.2462 21.6435 77.4124C26.4008 79.8843 24.1883 75.9626 30.3936 78.9709C30.3233 79.444 30.2535 79.9172 30.1841 80.3906C31.7702 80.4796 33.3643 80.5589 34.927 80.615C34.5462 81.0975 34.1645 81.5795 33.7817 82.0609C36.7784 82.8961 40.516 85.3074 42.2042 83.451C38.8629 83.5135 40.1697 79.7354 41.1669 79.2989C43.1372 78.613 66.429 86.7702 71.1382 87.7179C77.0783 89.2261 81.8764 88.917 86.9645 91.8818C82.9573 92.8275 70.0973 88.6797 67.4094 89.108C67.1427 89.1549 66.3349 92.7215 65.7497 88.3426C60.5381 87.77 54.8247 85.0299 48.5593 83.2444C48.443 84.3085 48.3288 85.373 48.2164 86.4379C52.7048 85.4626 54.975 91.1819 55.5714 87.1078C56.3451 87.3237 57.1197 87.5369 57.8847 87.7446C57.7002 88.4239 57.5158 89.1032 57.3313 89.7825C58.4952 90.0985 59.6614 90.4086 60.8297 90.7129C61.0071 90.0317 61.1845 89.3505 61.3619 88.6694C62.3238 88.9199 63.2872 89.1665 64.2521 89.4092C64.1814 90.1151 64.1113 90.8212 64.0418 91.5274C67.2681 90.8742 76.3895 96.9182 72.923 91.8406C74.293 92.1498 75.6657 92.4516 77.0405 92.746C76.9282 93.2484 76.816 93.7507 76.7037 94.253C77.2825 94.4478 77.8623 94.6412 78.4427 94.8334C78.3424 94.3364 78.2428 93.8394 78.144 93.3424C80.7037 94.7359 83.7278 92.8339 85.1953 94.7568C83.9574 94.8773 82.7178 94.9921 81.4769 95.1013C83.8491 94.9037 87.7424 97.0448 88.1197 97.1137C89.2559 97.3292 90.0396 96.4134 91.2783 96.5789C92.3967 96.7298 92.1071 97.4899 92.3193 97.4984C98.4726 97.7197 96.8547 93.0484 98.8554 98.5631C99.2642 97.9191 99.6716 97.2747 100.078 96.6297C100.385 97.2685 100.694 97.907 101.004 98.5452C102.791 98.7633 104.59 98.9721 106.37 99.1676C105.656 99.9504 104.939 100.732 104.214 101.511C106.843 102.285 108.326 100.711 108.589 100.707C109.334 100.705 109.523 101.841 109.75 101.873C120.673 103.167 114.185 101.37 120.079 97.9016C121.83 99.7302 119.697 101.13 119.231 102.738C121.907 102.259 122.663 102.8 125.408 102.988C126.122 103.035 126.975 102.224 127.424 102.256C127.813 102.283 128.938 103.342 129.872 103.432C131.428 103.583 133.548 103.204 135.675 103.392C137.442 103.556 142.816 104.633 146.601 104.869C148.216 104.969 147.888 104.154 148.305 104.178C148.478 104.188 149.68 105.209 150.716 105.27C159.159 105.76 167.884 105.457 176.329 105.607C182.263 105.712 188.418 106.493 194.384 106.363C195.656 106.334 194.976 105.644 195.53 105.614C195.72 105.605 195.964 106.82 197.921 106.306C198.627 106.12 197.801 105.282 198.496 105.23C198.835 105.205 198.994 106.27 200.978 106.48C204.571 106.861 206.506 105.39 206.831 105.425C207.445 105.492 207.288 106.378 208.101 106.389C212.075 106.442 215.379 106.483 218.891 106.425C220.547 106.415 231.756 106.078 232.439 105.868C233.822 105.443 232.422 103.674 234.217 103.641C234.744 104.079 235.271 104.517 235.798 104.954C235.021 105.352 234.242 105.749 233.461 106.145C235.631 105.437 238.16 106.131 239.775 106.003C240.074 105.979 242.766 104.98 244.162 104.982C243.548 104.674 242.934 104.366 242.32 104.057C242.512 103.75 242.703 103.443 242.894 103.135C245.705 103.408 248.632 103.202 251.445 102.941C252.457 102.848 252.066 102.157 253.123 102.057C259.273 101.456 257.969 104.542 263.378 98.5045C261.464 99.1731 254.152 99.012 253.093 99.269C252.335 99.4551 249.897 104.363 250.579 99.4529C244.825 99.8663 250.016 102.2 244.569 101.971C244.639 101.373 244.71 100.776 244.78 100.178C242.866 99.927 241.448 99.7141 240.356 100.826C239.8 97.9861 233.43 100.039 229.82 100.019C224.686 100.001 218.948 99.538 213.849 99.5789C212.097 99.5938 211.134 100.747 210.913 100.75C210.59 100.751 209.656 99.7917 209.013 99.8018C206.584 99.8478 199.373 101.654 197.534 98.9315C211.757 98.7479 225.801 98.1912 240.132 97.3303C238.472 98.7954 252.652 98.008 253.438 97.8613C254.117 97.7518 253.474 96.8514 253.673 96.7795C255.155 96.266 256.54 97.5354 257.018 97.4994C257.382 97.4718 258.069 96.7759 259.36 96.6905C259.596 96.6742 259.714 97.3466 259.969 97.3289C261.649 97.1984 263.3 97.0571 264.972 96.9242C265.073 96.9094 265.413 95.8856 265.834 95.8492C266.256 95.8145 266.754 96.7683 266.861 96.7625C268.193 96.6452 270.407 95.8096 271.658 95.6936C272.093 95.6562 271.855 96.4065 272.341 96.3572C273.848 96.2077 273.172 94.8391 275.131 95.0329C275.786 95.0983 275.843 96.186 277.061 95.932C277.922 95.7514 277.652 93.8286 277.783 93.7459C277.967 93.6444 281.096 94.8944 281.945 93.5391C279.513 90.4016 284.245 93.1474 284.164 94.5741C285.3 94.1084 286.431 93.6419 287.557 93.1749C287.987 93.4928 288.417 93.8106 288.846 94.1284C293.34 92.0659 296.228 92.7468 300.939 91.7583C301.17 91.7103 305.016 90.5055 304.775 90.0238C302.346 89.4098 299.98 89.6162 298.618 91.3668C295.8 88.5859 295.948 91.0192 292.041 91.0036C290.723 90.997 290.546 90.1815 290.395 90.1859C285.29 90.2825 276.866 90.7079 273.537 93.428C272.497 92.8624 276.013 92.2897 274.587 91.9318C273.849 91.761 255.969 92.4426 261.889 94.7599C261.287 94.7302 260.684 94.7001 260.079 94.6696C259.279 92.0901 256.346 92.9174 256.879 95.5084C256.555 94.9942 256.232 94.4798 255.908 93.9654C255.314 93.5539 254.633 93.3603 253.69 93.2841C250.137 93.047 229.331 95.2003 228.099 94.8299C228.044 94.2093 227.989 93.5887 227.934 92.9681C237.298 91.8079 246.129 92.8107 256.176 90.2731C255.924 90.8775 255.672 91.4819 255.419 92.0861C259.427 90.9685 263.384 89.8337 267.287 88.6853C263.001 87.988 256.164 87.6333 251.688 88.8205C250.893 89.0326 251.541 89.8029 251.363 89.9144C250.906 90.2034 250.31 88.8301 248.616 88.8088C246.927 88.7896 242.73 90.0643 242.333 90.0591C241.574 90.0488 239.435 88.5606 238.145 88.6563C236.45 88.7835 237.645 89.7159 237.306 89.7569C235.899 89.9367 234.602 89.5123 233.496 89.6462C231.864 89.8463 228.474 91.7787 227.233 89.2499C228.368 89.0777 229.576 88.8998 230.744 88.7217C224.319 88.1204 219.618 91.6239 213.25 89.2844C211.735 86.204 216.893 86.4588 212.501 85.2658C213.292 85.2856 214.082 85.3045 214.872 85.3223C215.079 85.9706 215.287 86.619 215.495 87.2672C216.839 86.7522 218.178 86.2341 219.513 85.7132C219.15 86.3119 218.786 86.9103 218.421 87.5086C223.266 87.7662 228.052 88.1329 229.649 84.909C229.787 85.6618 229.926 86.4146 230.065 87.1674C234.551 86.0225 241.464 88.8234 239.951 84.6843C240.176 84.8948 240.401 85.1053 240.627 85.3157C243.27 84.2872 242.227 86.1008 243.253 86.2338C243.551 86.2734 248.701 85.0272 246.31 83.9303C251.313 82.6309 250.001 86.6721 251.438 86.7457C254.653 84.5612 260.819 87.0229 258.081 84.1361C258.564 83.9825 259.047 83.8288 259.529 83.6748C261.334 85.9716 262.704 83.1031 264.359 82.0447C264.941 81.9418 265.522 81.8386 266.102 81.735C266.562 82.5174 267.022 83.2995 267.482 84.0814C272.637 79.735 271.79 90.4892 273.544 81.3567C273.089 80.86 272.65 80.3617 272.219 79.8626C271.28 79.6899 270.34 79.5166 269.397 79.3425C273.006 78.7953 276.958 78.2021 280.702 77.6132C285.269 74.664 288.239 77.107 293.233 74.61C293.729 74.799 294.282 74.982 294.815 75.1669C294.086 73.2051 292.136 73.7037 295.736 72.4223C295.922 70.9638 293.337 71.0421 292.424 72.238C292.191 72.531 294.515 73.3987 292.03 73.6887C290.333 73.8863 293.258 71.8663 288.214 73.0081C288.369 72.6411 288.524 72.2742 288.679 71.9072C288.126 71.9722 287.571 72.0371 287.016 72.1018C286.6 72.9561 286.182 73.8105 285.763 74.6647C284.369 73.6246 283.501 72.0637 280.586 72.6892C281.433 73.1186 280.503 74.8403 279.031 74.9495C278.977 74.3661 278.923 73.7827 278.869 73.1993C275.277 73.1526 276.662 74.7517 273.562 73.6834C273.305 74.1741 273.048 74.6649 272.789 75.1555C271.036 73.3874 265.17 72.5758 266.459 75.3538C264.599 72.7047 261.273 74.2417 260.158 76.5726C260.013 76.0003 259.869 75.4281 259.724 74.8559C259.03 74.7922 258.336 74.7281 257.64 74.6634C257.284 75.0439 256.928 75.4243 256.57 75.8045C256.055 75.4908 255.541 75.1767 255.026 74.8624C254.774 75.4668 254.523 76.071 254.27 76.6753C253.43 76.0358 252.591 75.3956 251.751 74.7545C251.302 75.2541 250.851 75.7534 250.4 76.2524C250.26 75.0434 245.607 75.0932 244.349 75.9737C243.937 75.6458 243.525 75.3178 243.114 74.9896C242.961 75.5804 242.808 76.1712 242.654 76.762C242.334 76.3176 242.015 75.8731 241.695 75.4284C241.056 75.9334 240.415 76.4379 239.772 76.9419C236.863 74.2702 236.922 76.7621 236.293 76.7814C235.128 76.8181 231.058 75.2562 230.397 75.38C229.737 75.5064 229.468 76.5416 228.934 76.6645C220.264 78.6849 223.75 75.7689 221.981 75.4169C221.031 75.2211 220.404 76.1994 219.566 76.1275C218.136 76.0167 210.874 75.0024 210.459 75.1306C209.856 75.326 211.42 79.7713 209.407 78.6716C209.275 76.2668 205.106 78.8057 207 75.396C205.266 75.7347 203.53 76.0679 201.828 76.3947C201.969 73.5346 199.892 75.4129 197.581 75.2846C194.306 75.1172 186.93 73.2558 187.195 76.1802C186.408 75.5062 185.623 74.8309 184.84 74.1542C179.424 75.054 174.252 74.0064 168.951 73.8237C153.199 73.2871 136.279 72.7991 120.807 71.5497C120.065 71.4909 120.058 72.454 119.522 72.4113C116.696 72.1923 109.566 70.5619 105.631 70.1595C104.374 70.0352 103.622 70.8614 103.219 70.8413C101.852 70.7776 102.364 69.6126 101.742 69.5479C100.761 69.4545 95.4374 69.7061 93.6542 69.492C92.7702 69.3909 91.9205 68.2384 90.8492 68.3415C90.7571 68.3489 90.7301 69.3695 90.6526 69.3727C88.7732 69.1376 90.0548 68.4966 89.4194 68.4205C84.9123 67.8788 80.0868 66.8739 75.2506 65.9449C74.0474 65.7163 72.0599 65.9642 71.024 65.7741C70.63 65.6999 71.5102 65.1331 70.1556 64.858C69.6921 64.7632 69.2904 65.687 68.7557 65.6168C66.4484 65.3028 66.5383 62.02 63.9683 63.9851C60.3013 62.8274 54.1659 60.1427 50.8999 59.053C50.1238 58.7992 49.5632 59.2338 48.8263 58.9798C48.3027 58.7998 47.6701 57.6302 46.8629 57.3442C46.0554 57.0589 44.491 57.4387 42.9465 56.8567C41.3228 56.249 39.4497 55.0074 39.0853 54.8735C38.6412 54.7077 38.049 55.654 37.6082 55.4728C36.2661 54.9352 33.0872 52.5353 31.4429 51.7277C29.6677 50.8665 28.3776 50.891 27.7625 50.6172C27.1948 50.3587 26.8973 49.2235 26.642 49.1032C26.2446 48.9146 25.7164 49.8614 25.2063 49.6269C24.3746 49.2406 23.7904 48.2379 22.5563 47.6546C0.210862 37.0839 -19.9778 24.2159 -37.0837 8.01123C-38.9803 6.20349 -39.461 4.63093 -42.3165 2.00151C-43.4715 0.927205 -43.861 2.16108 -44.5203 1.09905C-44.8121 0.623299 -44.0625 0.150655 -44.4851 -0.398468C-46.374 -2.83678 -49.2038 -5.03215 -50.0021 -6.06645C-50.3213 -6.47522 -49.9071 -7.55308 -50.5436 -8.39685C-55.2882 -14.6551 -60.9135 -22.5498 -64.9058 -29.978C-67.0622 -33.9045 -69.9305 -40.5666 -71.9718 -45.2324C-77.8129 -58.2794 -82.9996 -73.2404 -86.0972 -86.5413C-90.7531 -106.304 -92.4063 -126.805 -94.4235 -147.688C-91.5775 -137.548 -90.7937 -125.675 -88.9321 -114.463C-84.0738 -84.6235 -75.9193 -52.6312 -60.1287 -26.9C-54.7247 -17.9072 -47.0233 -7.31781 -38.7593 0.776938C-38.392 1.14078 -38.2224 2.45069 -37.3912 3.20923C-37.2132 3.37762 -34.1724 4.5221 -33.4699 5.19804C-35.891 6.28647 -31.5869 7.46308 -30.7721 8.30969C-29.7679 9.38341 -28.2661 12.5057 -25.1122 14.3258C-22.2525 15.9647 -22.3089 14.64 -22.1355 14.7144C-21.0229 15.1503 -21.7062 16.5812 -21.1303 17.2597C-18.9261 20.1949 -3.38124 30.2822 1.21379 32.7219C2.36713 33.4061 2.90365 32.5843 3.16296 32.7363C3.84801 33.1384 4.33741 34.5494 5.45134 35.1842C7.46065 36.3306 10.241 36.8047 11.3613 37.4006C14.0274 38.8405 18.7236 42.4386 22.3773 44.1442C23.4015 44.6267 23.7609 43.6707 24.2199 43.8852C26.2199 44.8392 31.1109 48.2613 33.7317 49.3116C37.9518 51.037 42.6469 52.0853 46.9072 53.9024C47.3335 53.5692 47.7587 53.2351 48.1828 52.9001C48.468 53.5 48.7561 54.0997 49.0473 54.6991C56.6161 56.8524 64.1935 60.0989 71.9033 61.9488C72.793 62.1718 77.4147 62.3835 78.1565 62.542C78.7708 62.6831 79.1293 63.9175 80.0837 63.961C81.4192 64.0215 80.6715 61.6673 82.6344 62.722C83.1636 63.0054 82.4216 63.7836 83.4996 64.3062C83.8573 64.4988 91.0828 66.332 91.4932 66.3268C92.1701 66.3467 93.1151 64.5263 93.2909 64.516C94.2075 64.4607 93.8978 65.9348 94.4647 66.178C96.1374 66.9025 98.6018 66.2989 98.8813 66.3682C102.258 67.2393 108.599 69.43 112.341 69.2124C112.859 69.1831 112.95 68.0632 113.043 68.0392C113.644 67.8862 113.829 69.1994 114.37 69.3008C117.281 69.8366 121.991 69.5374 124.976 69.6383C125.32 69.6519 125.975 70.3405 126.592 70.3455C130.081 70.3606 129.058 69.2597 129.259 69.2391C129.733 69.1814 130.444 70.345 131.678 70.5298C134.855 71.0206 141.012 71.3723 144.461 71.5205C147.045 71.632 147.087 70.3821 147.258 70.3696C147.621 70.3482 148.561 71.4063 150.255 71.6202C153.514 72.0322 153.195 71.0293 154.536 71.1434C154.649 71.149 154.402 72.0962 155.891 72.2694C158.776 72.6115 165.335 71.927 168.432 72.0566C169.624 72.108 169.879 73.0382 171.102 73.0864C173.044 73.1702 177.434 72.2473 177.777 72.2519C177.873 72.2532 178.075 73.3184 178.643 73.3259C179.269 73.334 179.89 72.7945 180.355 72.803C183.033 72.8506 187.645 74.7113 186.37 70.918C187.224 71.8555 188.08 72.7915 188.94 73.7259C194.555 73.5294 199.948 73.833 205.526 73.8933C206.79 73.9058 207.824 73.1609 208.887 73.1666C209.95 73.1761 214.667 74.2144 215.447 74.2058C216.849 74.2048 224.735 74.0022 225.699 73.8637C227.573 73.6141 229.427 71.9516 230.223 72.2171C230.87 72.4304 230.329 73.3428 231.553 73.5287C233.675 73.8514 237.153 72.515 237.787 72.4939C238.057 72.4845 237.593 73.2036 240.132 73.098C241.499 73.0419 242.182 72.2385 242.676 72.2105C242.829 72.2041 242.681 73.448 245.358 73.1057C247.205 72.866 247.925 71.8646 248.119 71.8479C248.412 71.8212 249.169 72.7835 250.355 72.664C253.175 72.3777 258.199 70.8327 260.817 70.5322C261.323 70.4737 261.251 71.7072 263.266 71.4299C264.706 71.2303 264.372 70.2816 264.908 70.198C265.758 70.067 267.133 71.1472 269.007 70.9468C271.271 70.7319 289.272 67.7902 290.005 67.3715C290.593 67.0968 291.296 67.0124 291.543 66.4564C291.235 65.9783 290.927 65.5002 290.618 65.0221C288.119 67.0588 288.995 64.9289 288.271 64.8699C287.225 64.7873 283.329 65.4273 282.326 65.069C281.971 64.9393 282.647 63.789 280.766 63.409C278.745 63.003 278.041 65.0011 277.011 62.455C274.468 65.6227 271.463 62.7787 274.661 61.6591C276.605 61.0425 293.646 58.3337 297.552 57.7414C300.515 57.3032 306.076 57.4973 309.568 56.9144C311.5 56.585 317.013 55.841 316.593 54.4799C318.5 54.0919 316.615 55.7011 317.04 55.849C317.948 56.1563 323.775 54.5412 324.867 54.4576C330.095 54.0592 337.819 54.7697 342.902 52.4462C342.612 52.101 342.322 51.7558 342.032 51.4108C340.771 50.8551 335.162 52.4601 334.29 50.7501C342.673 49.8235 350.976 48.9152 359.523 48.1037C359.57 48.8676 361.926 49.0198 364.806 48.8686C367.745 48.7102 370.629 48.312 370.864 47.9487C370.614 47.2249 370.362 46.5015 370.109 45.7782C364.02 49.0823 364.006 45.3752 360.376 47.6863C358.786 47.8637 359.149 46.6009 358.336 46.4449C350.119 44.9299 358.499 48.9438 352.197 48.4769C353.938 46.5147 348.594 46.4089 346.404 46.4175C345.942 46.4142 339.553 47.5566 338.744 47.6189C334.298 47.9454 326.634 47.8235 322.599 49.2508C319.259 49.7394 317.245 48.6913 314.089 48.7447C311.686 48.7858 312.463 49.5941 311.338 49.7283C309.123 49.9954 308.107 47.3847 307.084 51.2903C305.519 50.9868 303.945 50.6832 302.362 50.3793C302.424 50.9619 302.486 51.5445 302.548 52.1271C301.585 52.2298 300.617 52.3324 299.645 52.4347C299.298 51.8842 298.951 51.3336 298.603 50.783C295.592 51.9023 297.027 53.1702 296.619 54.8808C295.958 55.064 295.296 55.2471 294.631 55.4301C293.977 54.2171 293.323 53.004 292.668 51.7906C289.673 52.2009 286.897 52.5825 283.967 52.9722C283.835 53.5717 283.703 54.1712 283.57 54.7707C283.507 54.1902 283.445 53.6096 283.383 53.029C278.459 53.3865 273.274 53.7453 268.381 54.0498C266.953 53.2376 274.879 51.8223 275.501 51.7025C278.886 51.0871 287.809 51.1572 287.596 49.0822C289.705 50.436 296.152 49.3876 297.924 47.3255C294.971 47.7479 291.758 48.1906 288.957 48.5841C288.981 47.8804 289.005 47.1766 289.029 46.4729C285.691 49.6354 285.133 49.5353 281.106 47.2519C281.193 48.1838 281.278 49.1157 281.364 50.0476C278.427 47.0626 274.216 52.9938 273.71 49.0044C272.325 49.4574 270.875 49.914 269.535 50.3587C266.508 50.1245 270.921 46.6711 259.288 48.845C258.482 48.9942 258.733 50.0012 257.502 50.0277C257.145 50.0337 255.013 48.7123 251.124 49.1535C250.517 49.2228 250.535 50.1117 249.91 50.2699C248.426 50.6462 245.53 49.0856 247 51.8524C241.421 53.0691 243.597 50.5645 241.788 49.7487C240.581 49.2056 240.923 50.8802 239.886 50.5608C238.6 50.162 239.426 48.4098 234.437 49.4878C235.009 49.5711 235.581 49.654 236.153 49.7364C235.896 50.2162 235.639 50.696 235.381 51.1756C232.436 50.2303 232.796 51.8365 231.293 49.3083C229.271 50.5813 227.392 50.7714 224.582 50.6919C219.084 50.5253 221.795 47.6036 215.668 51.6255C214.63 51.132 213.593 50.6367 212.558 50.1395C210.918 51.3092 212.32 52.664 209.819 53.0214C211.7 50.2075 206.438 51.3659 205.485 48.9246C205.406 49.5126 205.326 50.1006 205.246 50.6886C204.686 50.7019 204.125 50.7146 203.564 50.7267C203.553 50.2569 203.541 49.7871 203.529 49.3173C202.801 49.685 202.078 50.0516 201.35 50.4173C200.789 49.9618 200.23 49.5057 199.671 49.049C198.781 50.0465 197.887 51.0424 196.99 52.0366C196.419 52.1111 195.848 52.185 195.277 52.2581C195.45 51.5564 195.623 50.8546 195.796 50.1528C195.065 50.395 194.334 50.6361 193.602 50.8762C194.446 49.7198 193.897 48.3812 191.62 48.4301C189.739 48.466 191.87 50.8598 187.814 49.869C187.531 49.796 187.03 48.0955 183.212 47.8092C178.631 47.4545 180.85 48.7091 180.035 48.7447C179.875 48.7501 178.5 47.8736 177.207 47.7295C176.472 47.6477 175.751 48.3292 175.654 48.3256C175.2 48.2855 175.087 47.3007 174.459 47.2526C172.867 47.1365 170.714 47.5653 169.153 47.4707C168.443 47.4292 167.794 46.8266 167.478 46.8095C166.988 46.7873 166.336 47.6554 165.839 47.6348C163.999 47.5548 161.353 44.4943 160.325 48.5497C158.73 44.712 154.853 49.0742 155.249 46.5628C150.495 47.3111 138.402 43.2735 138.415 47.5075C136.111 43.6639 136.123 46.3004 135.029 46.1459C133.812 45.972 134.511 45.3305 133.538 45.2695C131.268 45.1256 129.079 45.2035 126.838 44.9695C127.125 45.5867 127.414 46.2038 127.705 46.8205C125.323 46.7463 126.284 45.4923 123.92 44.9559C119.584 43.9575 121.306 45.2476 120.467 46.683C120.818 45.2499 115.629 44.8041 115.082 44.9153C114.753 44.9874 115.863 47.0639 112.791 46.0098C113.048 45.4568 113.301 44.9033 113.556 44.3497C112.003 44.941 108.259 43.3474 107.577 43.4338C107.269 43.4781 104.885 47.8672 104.015 43.9432C103.741 44.4894 103.466 45.0353 103.191 45.5809C101.665 44.6119 100.154 43.6343 98.6601 42.6483C98.2128 43.6359 97.7634 44.6228 97.3119 45.609C96.7941 45.5134 96.2769 45.4168 95.7605 45.3191C96.2768 44.4664 96.7906 43.6127 97.3022 42.7581C94.0442 42.587 90.5201 40.3584 89.2151 43.3C88.6556 42.5863 88.101 41.8714 87.5513 41.1555C86.8923 42.0852 86.2299 43.0131 85.5638 43.9394C82.4892 42.9856 82.5958 42.2844 80.7413 40.7015C80.6346 41.5167 80.5285 42.3321 80.4232 43.1476C79.117 41.6606 76.5486 39.9299 74.3791 39.2138C73.3463 38.8782 71.2586 39.4844 71.0379 39.3175C70.8115 39.1473 69.5521 34.2037 68.2497 37.8163C65.1153 35.1599 63.0806 36.339 61.6449 35.8538C60.7187 35.5364 60.5701 34.5255 59.5553 34.1016C58.1035 33.4934 56.4729 33.4203 55.64 33.072C55.1644 32.8705 55.3626 31.9898 55.0378 31.8493C53.5057 31.1779 54.1284 32.3648 52.4883 31.7273C52.3361 31.6626 51.5016 30.2086 50.0896 29.8417C49.3029 29.6398 46.9099 30.0565 46.7375 29.9856C45.9768 29.6702 47.4767 27.6207 43.846 29.2515C44.0932 28.846 44.3399 28.4403 44.5863 28.0344C41.841 25.6699 40.5744 27.3814 39.8731 27.2501C39.7863 27.2271 39.3317 26.1622 38.8334 26.0707C37.9895 25.9182 37.2425 26.7973 37.0519 26.7682C36.379 26.6639 34.5649 25.3368 32.819 25.7107C34.3759 22.9795 30.3788 19.8824 27.83 22.5758C27.3428 21.5554 26.8681 20.5346 26.4062 19.5138C25.789 19.858 25.1696 20.1997 24.548 20.5389C24.5998 19.909 24.6539 19.2798 24.7103 18.6512C22.9921 19.2084 21.2612 19.7449 19.5172 20.2598C20.0608 19.0894 20.6059 17.9199 21.1524 16.751C20.7726 16.7106 20.393 16.6692 20.0133 16.6266C19.277 17.3887 18.5371 18.1482 17.7938 18.9052C17.4983 18.5163 17.2051 18.1269 16.9143 17.737C17.1843 17.0387 17.4554 16.3409 17.7279 15.6438C16.1333 13.7338 13.537 20.4307 12.8724 12.7735C11.9731 12.9074 11.0711 13.0349 10.1662 13.1556C11.0116 10.3315 8.85842 10.9982 8.03863 10.0764C7.46608 9.42912 8.12704 8.51458 7.20746 7.86764C6.28966 7.21869 5.71569 8.1304 5.63859 8.08706C4.83861 7.62084 4.8141 6.4437 4.15668 6.21351C4.05815 6.17824 3.11113 7.0816 2.36075 6.64634C1.61074 6.20893 1.99052 4.80334 0.815351 4.25644C0.214435 3.97393 -0.580583 4.7282 -1.10238 4.45581C-3.63199 3.1355 -2.30016 -2.80243 -8.00942 0.889274C-7.86493 -0.0485479 -8.5533 -4.40566 -9.70678 -5.22334C-11.5331 -6.50172 -11.751 -4.99271 -12.5661 -5.41763C-12.6813 -5.4776 -12.9088 -6.25678 -14.3101 -7.47458C-14.5594 -7.69174 -14.0086 -8.15981 -14.0363 -8.19924C-15.603 -9.65154 -18.9511 -12.2086 -20.6461 -13.8889C-20.8049 -14.0449 -20.0771 -16.1881 -23.3418 -15.7907C-23.7278 -19.1713 -30.4282 -20.5036 -30.2852 -25.2837C-30.5431 -25.7245 -31.4876 -25.7865 -31.6046 -25.9832C-32.5992 -27.7035 -30.4085 -28.3269 -35.5824 -30.144C-34.4649 -30.4818 -34.2412 -31.9033 -35.1345 -33.077C-36.4762 -34.856 -37.3223 -32.3909 -38.178 -34.0014C-37.6888 -34.3201 -37.1996 -34.6389 -36.7104 -34.9576C-40.2611 -37.5759 -38.5175 -39.5116 -40.5471 -43.0272C-41.2725 -44.2892 -43.4619 -45.5897 -43.6357 -45.9082C-43.701 -46.0324 -43.2309 -48.1395 -43.2916 -48.2817C-43.6635 -49.0797 -44.4695 -49.2253 -44.8229 -49.9087C-46.0002 -52.1694 -45.6574 -55.7419 -48.4161 -53.7984C-48.0721 -54.7117 -47.7223 -55.6218 -47.3667 -56.5288C-51.6749 -57.3998 -47.9656 -61.1836 -51.3477 -60.3225C-50.8774 -61.0356 -50.4038 -61.7456 -49.927 -62.4526C-54.6873 -72.985 -58.3837 -83.5275 -61.525 -95.4696C-60.583 -96.259 -62.0543 -101.184 -62.2595 -101.389C-63.2645 -102.409 -65.3873 -100.673 -65.3281 -103.219C-64.3409 -103.693 -63.3526 -104.165 -62.3634 -104.633C-62.6037 -107.756 -63.3605 -106.092 -64.2925 -107.184C-64.2564 -107.721 -63.4173 -107.7 -63.4817 -108.405C-63.8484 -112.196 -64.9998 -120.208 -65.4336 -124.702C-65.5261 -125.612 -66.2691 -125.351 -66.302 -125.619C-66.3763 -126.327 -65.5692 -127.83 -65.7159 -129.265C-66.6735 -137.909 -67.9863 -152.019 -68.8534 -161.194C-68.9171 -161.824 -69.8347 -161.893 -69.8845 -162.321C-69.95 -162.914 -69.2167 -164.249 -69.2953 -164.878C-69.3673 -165.47 -70.0643 -165.85 -70.145 -166.489C-70.5248 -169.415 -69.2993 -173.378 -71.2697 -176.668C-71.4398 -176.933 -75.0302 -180.475 -75.2662 -180.572C-76.6848 -181.092 -79.0546 -178.029 -80.9728 -183.244C-82.9647 -178.724 -86.1859 -180.188 -87.5144 -186.37C-88.0586 -183.316 -88.5726 -180.293 -89.0568 -177.299C-89.4413 -177.304 -89.8258 -177.31 -90.2103 -177.315C-92.0445 -180.107 -92.5956 -182.888 -92.5789 -187.196C-92.9406 -187.078 -93.3023 -186.96 -93.6639 -186.841C-95.6145 -183.107 -96.0823 -178.592 -98.5663 -175.81C-100.273 -180.015 -101.922 -184.336 -103.51 -188.771C-103.8 -188.567 -104.091 -188.363 -104.382 -188.159C-105.212 -186.101 -105.808 -181.602 -106.532 -179.924C-109.311 -173.482 -108.296 -185.704 -109.928 -183.762C-110.13 -176.78 -110.18 -169.973 -110.084 -163.338C-111.417 -162.855 -114.067 -189.408 -117.416 -189.556C-117.759 -187.312 -118.087 -185.082 -118.4 -182.866C-119.259 -183.888 -120.114 -184.919 -120.965 -185.959C-121.259 -185.694 -121.553 -185.429 -121.846 -185.163C-122.687 -181.393 -123.485 -177.655 -124.24 -173.947C-123.333 -185.266 -123.481 -190.777 -130.364 -194.01C-130.56 -193.696 -130.756 -193.381 -130.952 -193.067C-126.727 -190.213 -128.63 -178.359 -129.546 -172.212C-130.827 -173.483 -129.716 -178.968 -130.448 -180.169C-130.661 -180.509 -131.588 -179.373 -132.024 -180.158C-133.179 -182.18 -134.34 -191.013 -135.844 -189.817C-136.864 -188.999 -138.611 -174.971 -138.492 -172.326C-140.096 -178.66 -140.374 -185.319 -142.085 -192.04C-145.136 -188.014 -148.806 -184.41 -149.133 -176.888C-150.724 -174.568 -152.289 -190.753 -153.025 -191.249C-154.037 -188.447 -155.026 -185.653 -155.994 -182.866C-155.683 -185.24 -155.356 -187.625 -155.013 -190.023C-155.305 -190.043 -155.598 -190.064 -155.89 -190.084C-157.527 -183.908 -160.197 -178.3 -160.105 -171.317C-161.656 -171.553 -161.446 -175.747 -161.408 -177.803ZM324.738 45.4384C324.723 44.147 322.453 44.612 321.147 44.7821C321.317 44.5277 321.487 44.2734 321.657 44.0191C318.918 44.5692 313.677 45.6446 313.2 43.1875C311.124 43.104 312.262 45.1606 311.629 45.4784C311.32 45.6116 308.714 44.6273 306.85 46.3737C306.369 46.4197 305.886 46.4657 305.403 46.5116C305.222 45.7085 305.041 44.9055 304.86 44.1024C304.293 45.162 303.723 46.2216 303.151 47.2813C310.053 46.7198 317.643 46.0536 324.727 45.4396C324.731 45.4392 324.734 45.4388 324.738 45.4384ZM253.85 51.3437C251.309 52.0004 247.387 53.0069 248.043 50.7149C249.657 50.7196 251.323 50.717 252.955 50.7133C253.254 50.9235 253.552 51.1337 253.85 51.3437ZM18.7408 22.2204C16.0743 23.2795 15.511 20.7908 12.891 19.721C13.1297 19.3208 13.3684 18.9208 13.6071 18.5206C14.0267 20.0684 17.0382 20.9312 18.7408 22.2204ZM396.565 48.4846C397.277 48.3436 397.992 48.2091 398.714 48.0825C395.958 45.4134 395.336 47.1549 392.072 46.8625C391.874 46.8454 391.948 46.2728 391.878 46.2686C390.977 46.2227 390.556 46.9135 389.943 46.9046C388.834 46.889 387.919 46.195 385.913 46.268C384.357 46.3307 384.375 47.434 383.826 47.4237C383.523 47.395 378.063 44.6108 375.835 46.0738C370.688 48.8118 392.722 48.186 396.565 48.4846ZM432.347 58.9326C429.972 56.7627 427.597 55.0899 425.361 53.7594C428.346 56.6527 426.274 55.5717 422.628 53.7842C418.272 51.7437 415.897 50.9809 413.183 50.1758C413.196 51.0609 415.178 51.6429 419.7 53.6895C425.133 55.9256 433.68 62.2979 437.288 69.2056C436.08 65.4466 434.308 61.9588 432.347 58.9326ZM346.167 52.9733C347.97 52.9474 347.456 50.9687 347.32 50.3773C346.753 50.4372 346.184 50.4977 345.613 50.5587C345.798 51.3636 345.982 52.1684 346.167 52.9733ZM360.497 52.2295C359.808 50.9122 355.688 50.7062 353.682 50.7983C353.595 50.807 354.217 51.5013 352.807 51.5742C352.397 51.592 347.892 49.3025 349.143 52.3027C353.053 52.2471 356.838 52.2198 360.492 52.2301C360.494 52.2299 360.495 52.2297 360.497 52.2295ZM364.509 51.049C363.564 50.6993 362.884 50.3277 362.074 49.9686C361.747 50.6462 361.419 51.3241 361.09 52.0024C361.96 52.0849 362.823 52.1695 363.677 52.2564C363.9 51.8586 364.231 51.4513 364.509 51.049ZM-78.7577 -98.9353C-78.0513 -98.9217 -77.3451 -98.9094 -76.639 -98.8984C-76.1126 -98.4102 -78.4587 -95.0028 -79.2142 -95.7621C-79.0673 -96.8174 -78.9151 -97.8751 -78.7577 -98.9353ZM-82.3782 -110.975C-82.8193 -111.544 -83.2591 -112.118 -83.6976 -112.697C-82.6492 -113.594 -81.5974 -114.487 -80.5421 -115.374C-79.3173 -112.341 -77.886 -109.261 -81.3759 -109.226C-81.2611 -108.52 -81.144 -107.818 -81.0248 -107.119C-79.7181 -107.949 -79.2437 -107.935 -78.0379 -106.287C-79.9236 -105.549 -78.5995 -103.854 -78.625 -101.675C-79.0321 -103.182 -79.4291 -104.707 -79.8157 -106.249C-80.1604 -106.189 -80.5052 -106.129 -80.8499 -106.069C-80.1056 -102.604 -83.0736 -106.545 -82.0731 -109.102C-82.5626 -109.209 -83.0521 -109.318 -83.5416 -109.427C-83.155 -109.944 -82.7672 -110.46 -82.3782 -110.975ZM79.4799 56.6151C78.9623 56.8572 78.4438 57.0983 77.9245 57.3382C77.2738 52.4751 79.7444 57.5316 83.002 54.5307C81.5877 57.0439 85.3926 57.7547 85.5749 57.9769C84.9467 58.7925 84.3156 59.6066 83.6814 60.4191C82.2618 59.1588 80.8609 57.8907 79.4799 56.6151ZM66.3541 56.5886C68.4533 54.8007 61.1244 52.634 58.5535 52.3518C57.9251 52.2917 56.4979 53.1664 56.1159 52.8812C55.9937 52.3576 55.8732 51.834 55.754 51.3104C54.9611 52.7514 50.7791 49.5099 49.2503 48.0601C48.889 48.5536 48.5268 49.0465 48.1636 49.5389C47.5698 49.0889 46.9794 48.6372 46.3926 48.1837C46.2821 48.7618 46.1723 49.3401 46.063 49.9185C45.7894 49.08 45.5209 48.2417 45.2572 47.4033C43.5424 45.9554 43.6772 49.3793 42.5261 47.9023C41.2592 46.2607 44.6143 45.4891 44.9802 44.3107C46.205 45.1004 48.9673 46.8247 50.3233 47.3168C51.1034 47.597 50.8974 45.2195 53.486 48.7341C54.4123 48.415 55.336 48.0916 56.2571 47.764C57.3389 49.0895 58.4411 50.41 59.5634 51.7253C60.057 51.0215 60.5487 50.3168 61.0385 49.6111C61.2148 49.5352 63.917 52.2462 63.5841 52.7846C65.3301 51.6609 68.0738 52.1376 70.9268 52.7953C71.0882 53.2955 71.251 53.7956 71.4152 54.2957C68.9022 52.6549 70.4208 54.5229 69.3831 55.1298C68.7841 55.4796 67.0822 56.0208 66.3541 56.5886ZM-75.8944 -79.4796C-75.227 -84.5195 -76.0539 -81.2554 -77.3458 -86.2236C-76.2358 -86.1338 -75.1264 -86.0493 -74.0175 -85.9701C-75.2641 -83.0559 -72.9244 -79.499 -75.893 -79.475C-75.8935 -79.4765 -75.8939 -79.4781 -75.8944 -79.4796ZM-81.5114 -129.333C-81.8803 -126.628 -83.6522 -127.78 -83.8092 -124.385C-83.809 -124.383 -83.8088 -124.381 -83.8087 -124.38C-84.1188 -126.087 -84.4171 -127.814 -84.7034 -129.558C-83.6394 -129.482 -82.5753 -129.406 -81.5114 -129.333ZM-21.683 6.52595C-19.56 7.80847 -20.4517 8.11371 -17.7143 8.31376C-16.498 11.9522 -18.432 9.94548 -19.6077 11.3118C-19.8461 10.414 -20.076 9.51685 -20.2975 8.62033C-22.7938 8.67146 -22.0438 10.4627 -22.146 10.5874C-22.1472 10.5864 -22.1484 10.5854 -22.1496 10.5843C-22.5062 10.9913 -22.5356 11.1186 -23.2915 10.8888C-22.7678 9.42724 -22.2316 7.97286 -21.683 6.52595ZM-15.0964 15.0176C-15.0141 13.549 -14.3346 12.1325 -12.1468 12.884C-12.1456 12.885 -12.1444 12.8859 -12.1432 12.8869C-13.6603 15.1024 -10.6612 14.6984 -10.0091 15.4124C-9.9841 15.7962 -9.95768 16.1804 -9.92995 16.5649C-11.6527 16.0785 -13.375 15.5631 -15.0964 15.0176ZM15.4918 37.5758C16.847 34.9472 15.3002 33.8339 18.9182 32.6319C19.3543 32.9142 19.792 33.1951 20.2312 33.4747C20.2441 34.2073 20.2602 34.9407 20.2797 35.6747C28.5668 33.727 26.4118 42.8856 17.7989 34.8222C17.7985 34.8197 17.7979 34.8171 17.7975 34.8146C17.0324 35.7373 16.2639 36.6577 15.4918 37.5758ZM5.28851 31.6629C6.00353 30.2825 6.72037 28.9031 7.4389 27.5246C4.27653 30.0032 4.52079 25.9893 0.723159 26.7109C0.758198 26.1742 0.795241 25.6381 0.834172 25.1026C-0.657562 25.4717 -9.40128 19.79 -6.15226 19.1212C-4.76304 18.8346 -3.83738 21.1978 -3.66293 21.2759C-3.08421 21.5301 -1.67187 20.878 -0.851862 21.5169C-0.380626 21.8872 -0.179234 23.898 0.868729 24.5666C3.23472 26.0907 9.64112 25.0606 10.8474 30.2924C11.3065 30.0137 11.7646 29.7338 12.2213 29.4526C14.4467 31.0075 12.9592 31.8851 16.0204 31.5164C14.0687 38.8971 7.28584 26.2709 6.52072 32.6724C6.5193 32.6716 6.51791 32.6708 6.51655 32.67C6.10564 32.3357 5.69736 32.0006 5.28851 31.6629ZM-47.9597 -19.678C-49.1413 -19.0431 -49.2524 -22.7928 -51.4463 -20.3896C-51.1235 -21.872 -50.7838 -23.3462 -50.4277 -24.8122C-50.1772 -24.9682 -49.9267 -25.1241 -49.6762 -25.2802C-49.3101 -24.3046 -48.9363 -23.3337 -48.5547 -22.3675C-48.1667 -22.629 -47.7786 -22.8905 -47.3906 -23.152C-47.9593 -20.9292 -43.6696 -16.3116 -42.4569 -17.495C-42.8189 -16.8126 -43.1778 -16.1277 -43.5337 -15.4404C-40.226 -14.2542 -40.282 -11.0813 -36.7425 -9.7794C-37.022 -9.2128 -37.2995 -8.64465 -37.5748 -8.07496C-37.1122 -8.25424 -36.6503 -8.43471 -36.1892 -8.61649C-35.3735 -7.76097 -34.551 -6.91693 -33.7217 -6.08409C-32.5268 -1.95163 -39.3926 -5.91462 -39.7811 -6.86127C-39.8313 -6.98048 -38.8981 -7.75094 -39.2463 -8.45808C-39.9049 -9.69333 -45.4644 -14.7405 -46.1882 -17.151C-46.8474 -16.6909 -47.5068 -16.2311 -48.1663 -15.7715C-48.1115 -17.0776 -48.0425 -18.3798 -47.9597 -19.678ZM30.3921 41.1369C30.8797 40.457 31.3656 39.7762 31.8501 39.0945C34.2996 41.0396 36.3626 41.095 34.6089 43.3026C34.6075 43.302 34.6059 43.3013 34.6044 43.3007C33.1881 42.5911 31.7839 41.8698 30.3921 41.1369ZM267.464 63.2874C267.517 64.9145 265.988 65.6562 263.837 64.6648C263.897 64.1863 263.957 63.7077 264.017 63.2291C265.199 64.5195 266.336 62.0054 269.625 62.0406C269.696 62.8554 269.768 63.6701 269.839 64.4849C269.048 64.0863 268.256 63.6871 267.464 63.2874ZM27.8472 40.4018C26.5959 40.9022 25.4676 37.1625 27.0698 37.739C28.2883 38.1761 28.5114 40.1308 27.8472 40.4018ZM-83.9597 -139.854C-83.7416 -139.151 -83.5215 -138.451 -83.2996 -137.755C-83.9667 -137.335 -84.6331 -136.914 -85.2989 -136.492C-85.299 -136.494 -85.2991 -136.495 -85.2992 -136.497C-84.8576 -137.615 -84.4111 -138.734 -83.9597 -139.854ZM-27.6105 0.734221C-26.1139 2.36481 -24.6138 3.9395 -23.0207 5.54071C-23.3111 5.88999 -23.6014 6.23936 -23.8915 6.58888C-24.4319 3.84208 -26.2758 4.53489 -26.7344 4.24981C-26.7327 4.25139 -26.7311 4.25296 -26.7294 4.25456C-28.1834 3.35883 -29.5046 2.42589 -31.0103 1.67058C-29.8714 1.36842 -28.7381 1.0562 -27.6105 0.734221ZM-34.9726 -2.79656C-32.3444 -4.68288 -31.7893 -4.58796 -31.0461 -0.559458C-31.4242 -0.382745 -31.8029 -0.206839 -32.1821 -0.0317838C-33.2529 -1.48663 -33.4163 -2.75903 -34.4255 -1.38783C-34.6101 -1.85695 -34.7925 -2.32653 -34.9726 -2.79656ZM-7.90661 19.802C-8.85092 20.3897 -10.9218 17.5858 -10.4574 17.2832C-10.2854 17.1722 -6.0843 18.6584 -7.90661 19.802ZM296.114 61.2717C295.25 61.5962 294.383 61.9205 293.513 62.2445C294.738 62.4692 295.958 62.6932 297.172 62.9169C296.82 62.3686 296.467 61.8202 296.114 61.2717ZM306.214 64.7909C306.784 64.3185 304.485 61.6679 308.07 60.5332C305.404 60.7602 302.704 60.9873 299.973 61.213C301.299 61.5421 302.62 61.8707 303.933 62.1991C303.8 63.046 303.667 63.8929 303.534 64.7398C304.431 64.7569 305.324 64.7739 306.214 64.7909ZM308.853 62.3822C307.649 64.7174 315.222 64.0577 316.034 63.6969C316.192 63.6155 316.789 61.8789 317.036 61.4926C315.846 61.6219 314.649 61.7517 313.444 61.8817C313.79 61.3178 314.135 60.7539 314.479 60.1901C313.038 60.1684 311.661 60.1389 310.334 60.1034C310.956 60.5636 311.577 61.0238 312.197 61.4841C311.089 61.7833 309.974 62.0827 308.853 62.3822ZM278.103 64.9709C279.073 64.8256 280.038 64.6797 281.001 64.5331C280.885 65.3657 280.768 66.1982 280.651 67.0308C280.07 67.0857 279.488 67.1404 278.905 67.1949C278.638 66.4536 278.37 65.7123 278.103 64.9709ZM297.909 64.0738C296.074 60.3061 293.021 69.2743 297.287 65.6295C297.715 65.2593 298.084 64.4381 297.909 64.0738ZM318.933 62.9038C322.317 65.4171 320.932 59.1935 318.233 61.3602C318.097 61.4746 318.679 62.7187 318.933 62.9038ZM341.871 60.4531C342.112 60.4055 342.335 58.3159 344.869 60.0055C345.227 59.7317 345.584 59.4581 345.94 59.1847C344.99 58.3239 337.094 58.6163 338.386 60.5216C339.602 60.4197 340.644 60.6505 341.871 60.4531ZM335.022 68.8455C333.829 68.9205 332.488 69.0123 331.417 69.0743C331.725 68.3932 331.99 67.7168 332.338 67.0312C331.718 66.9242 331.179 66.8081 330.597 66.697C329.77 67.9047 328.937 69.1131 328.099 70.3222C330.595 70.2222 333.063 70.1249 335.777 70.0021C335.526 69.6165 335.274 69.231 335.022 68.8455ZM304.259 73.8263C306.407 72.7868 309.217 73.3488 312.732 72.827C312.734 72.8247 312.735 72.8225 312.737 72.8203C312.912 72.7917 313.125 71.88 313.69 71.7829C314.251 71.6959 324.349 71.5537 323.377 70.1541C319.417 69.2442 318.169 71.434 316.873 68.2281C316.76 68.9466 316.647 69.6652 316.534 70.3839C312.838 72.0131 311.697 69.6923 309.568 69.027C309.633 69.552 309.698 70.0771 309.763 70.6021C308.427 70.7999 307.083 70.9979 305.731 71.1958C305.885 70.8294 306.039 70.463 306.193 70.0966C305.714 70.148 305.233 70.1994 304.752 70.2508C303.745 71.9344 302.284 72.4564 304.259 73.8263ZM340.351 67.3791C341.925 71.2398 351.952 67.385 357.192 67.7196C354.457 65.5616 350.17 67.6807 347.655 67.9753C342.459 68.5786 345.896 66.7228 344.943 66.173C344.474 65.9008 341.753 68.784 340.351 67.3791ZM295.927 73.9917C298.591 73.392 300.183 74.1542 302.323 72.448C302.1 72.1769 301.877 71.9058 301.654 71.6347C300.913 71.985 294.51 73.4979 295.927 73.9917ZM364.114 66.0052C359.224 67.9041 361.357 64.059 358.952 67.025C360.739 67.0246 362.492 67.0328 364.208 67.0507C364.177 66.7022 364.145 66.3537 364.114 66.0052ZM16.6117 51.8391C14.7148 51.0409 12.3219 50.6722 11.9108 48.7672C13.2575 49.1852 14.6076 49.5908 15.9612 49.9844C16.1748 50.6026 16.3916 51.2209 16.6117 51.8391ZM68.8796 85.539C68.3091 85.7763 66.6558 84.2676 66.4574 84.2168C66.085 84.1241 66.0588 84.6611 66.0202 84.7935C63.6046 84.0869 66.2515 83.0683 64.5442 82.2672C64.2509 82.1374 59.8478 81.8204 58.1538 81.2752C55.5341 80.4479 52.8814 79.7794 51.9093 79.4597C50.2633 78.9242 47.5691 76.8171 44.9164 75.8869C43.8212 75.5054 43.1288 76.3119 42.0268 75.9183C34.9575 73.4838 21.6192 66.79 15.4256 64.5467C13.8807 64.0155 11.8991 64.5072 11.1536 64.0373C10.7312 63.317 10.3138 62.5959 9.90129 61.874C6.14619 64.7519 7.14955 61.0507 5.31539 59.6768C4.14626 58.7998 2.97177 59.5976 2.79968 59.5048C1.66817 58.8852 1.38767 58.0594 0.546476 57.4956C-0.3982 56.8652 -2.09504 56.5758 -2.39993 56.2885C-2.57888 56.1031 -1.10019 55.0533 -4.89719 52.9174C-8.76369 50.7221 -12.6029 48.5621 -16.4253 46.1294C-12.403 42.7577 -13.2286 46.3262 -11.7598 47.4712C-11.3687 47.7757 -11.208 46.9333 -10.8643 47.1906C-9.89484 47.9144 -8.32333 49.7943 -7.36053 50.1454C-6.32305 50.5251 -5.69987 48.7441 -4.86865 50.025C-4.82672 50.0904 -5.40209 50.6393 -5.18875 50.9126C-3.01894 53.6332 -1.43134 53.014 2.18532 54.9257C4.49778 56.3139 19.1559 64.131 19.9134 63.7805C23.627 62.5836 7.9684 55.3623 6.15726 54.475C5.4967 54.2155 5.76461 55.3063 5.11744 55.1518C4.84152 55.0815 3.4171 52.5211 1.37755 51.2426C-1.09838 49.7167 -6.71172 47.7045 -9.05955 46.1798C-29.2301 33.2891 -47.6841 18.2251 -62.2681 -0.804289C-62.5761 -1.20838 -62.2149 -2.31795 -63.1979 -3.64C-81.6772 -28.3348 -94.8935 -58.3462 -101.205 -89.718C-102.524 -96.2221 -102.847 -103 -104.598 -109.881C-104.031 -110.853 -103.46 -111.823 -102.885 -112.791C-103.132 -110.473 -100.93 -106.706 -100.845 -106.358C-100.817 -106.23 -101.468 -105.277 -101.203 -103.964C-100.832 -102.119 -100.007 -101.44 -99.981 -101.289C-99.8952 -100.824 -100.671 -100.999 -100.587 -100.555C-99.9519 -97.2445 -99.6544 -94.6808 -99.0343 -91.7238C-98.3303 -88.404 -96.5397 -86.73 -97.3879 -83.8692C-96.7502 -83.7177 -96.1125 -83.5686 -95.4749 -83.4217C-97.5081 -80.8763 -94.2013 -69.8338 -92.64 -65.6706C-92.1628 -64.3326 -91.2637 -64.891 -91.1163 -64.4407C-91.004 -64.1139 -92.4002 -63.9784 -90.8583 -60.3099C-90.0798 -58.487 -88.9822 -58.34 -88.6786 -57.4096C-88.5139 -56.9046 -89.4548 -56.6512 -89.1898 -55.9338C-87.6508 -51.7937 -86.0342 -48.6191 -84.2122 -44.8516C-83.6989 -43.7934 -82.9512 -44.1104 -82.856 -43.8668C-82.5021 -42.9766 -83.0743 -40.8822 -82.0381 -38.6815C-80.3259 -34.9454 -76.4449 -27.5116 -74.2081 -25.0015C-73.8808 -24.6239 -72.8373 -24.756 -72.6719 -24.4401C-72.4243 -23.96 -73.1941 -23.2684 -73.1509 -23.183C-72.2526 -21.6096 -71.9905 -23.0271 -71.5739 -21.8717C-71.3483 -21.2518 -71.9933 -20.0724 -71.3138 -18.7128C-70.4128 -16.9229 -69.4535 -17.9881 -69.1311 -17.215C-69.1025 -17.13 -69.8965 -16.598 -69.4856 -15.8936C-67.8583 -13.1112 -65.4276 -9.14324 -63.6649 -6.71937C-63.1603 -6.01962 -62.2659 -5.88047 -61.5477 -4.92919C-60.2114 -2.93487 -51.8697 7.83559 -50.7121 8.39205C-50.605 8.45265 -50.3662 6.61298 -49.1053 8.08002C-49.164 8.88943 -49.2175 9.70066 -49.266 10.5137C-47.9353 10.5755 -46.6098 10.621 -45.2899 10.6504C-47.6913 12.8552 -44.1454 17.2063 -41.8449 14.7941C-41.3273 15.1201 -40.809 15.4428 -40.2898 15.7623C-40.9928 18.2719 -39.8297 18.2316 -38.9612 20.8843C-38.2019 20.6323 -37.4451 20.3764 -36.6907 20.1168C-36.9373 20.5258 -37.1833 20.9352 -37.4288 21.345C-34.7609 20.3561 -34.8814 23.6568 -34.6867 23.8447C-33.9731 24.5492 -32.983 24.5531 -32.6433 24.8734C-31.375 26.0665 -29.0288 29.1708 -27.1678 30.114C-27.0798 30.1569 -26.4782 29.2512 -25.9436 29.5039C-24.9807 29.9554 -25.872 31.2752 -23.636 30.6475C-23.7005 31.1884 -23.7632 31.7301 -23.8239 32.2725C-23.44 32.2611 -23.0566 32.2485 -22.6737 32.2346C-21.3535 33.3891 -20.0038 34.5366 -18.6407 35.665C-18.8662 33.2409 -16.7897 33.4827 -16.205 35.6554C-16.0045 36.3936 -17.0722 37.0099 -17.0081 37.2612C-16.9361 37.636 -10.0154 41.5835 -9.17206 41.2199C-9.04604 41.7179 -8.91779 42.2161 -8.78743 42.7144C-8.25103 42.2206 -7.71596 41.7255 -7.18242 41.2292C-7.13913 41.5469 -7.09501 41.8648 -7.0501 42.1828C-4.67807 42.2231 -1.531 47.3812 -0.551816 47.6635C-0.0398603 47.8149 1.03619 44.9866 3.03339 46.4532C2.70801 47.215 2.38338 47.9772 2.05969 48.7398C2.50153 49.1195 2.94537 49.4978 3.39122 49.8748C4.37078 50.3259 6.41911 49.7967 6.91714 48.9546C6.93669 49.6278 6.95882 50.3016 6.98372 50.976C8.66117 49.7124 12.5846 52.4639 13.8169 54.3847C14.577 54.1123 15.3347 53.8366 16.0898 53.5575C16.4731 54.5138 16.8643 55.4699 17.2634 56.4257C18.7744 57.3541 17.5739 55.5202 17.9549 55.5888C18.7426 55.7415 21.6291 59.1828 22.375 56.8296C22.879 57.0444 23.3838 57.2576 23.8897 57.4693C23.8712 58.2236 23.855 58.9784 23.8413 59.7337C25.6609 57.8848 26.8247 59.3174 30.2679 59.7534C30.3221 60.3735 30.3783 60.9939 30.4362 61.6146C31.6973 61.2662 32.953 60.9091 34.2034 60.5436C34.0725 61.4784 33.9438 62.4137 33.8173 63.3496C34.1958 63.6354 34.5756 63.9204 34.9565 64.2047C36.5436 62.6017 37.3297 65.2629 38.4218 64.753C40.0065 64.0039 39.5975 62.2958 37.5706 61.2447C38.2571 59.9183 44.3175 62.8119 45.764 63.3893C45.5737 63.6344 45.3831 63.8794 45.1923 64.1242C43.7621 63.3973 42.3423 62.66 40.9333 61.9125C38.4103 65.0205 42.8259 65.5175 44.5652 66.605C44.7224 66.7062 45.2502 68.3963 47.2202 68.896C47.9858 69.0933 51.5265 68.0198 52.1129 68.0747C56.8802 68.5239 52.7237 70.3997 57.8794 69.1813C56.3997 70.8392 59.4106 69.9841 61.9632 71.0804C62.3877 71.2714 65.8099 73.8584 66.0672 73.9624C67.6288 74.6312 66.2973 72.4656 68.5334 73.5062C68.7028 74.029 68.8735 74.5517 69.0455 75.0743C69.5958 75.2108 70.1467 75.346 70.6983 75.4799C75.0082 72.2486 75.07 75.3879 76.1868 76.0465C76.6349 76.3101 76.2518 75.1143 77.4527 75.6181C77.9052 75.8061 78.2333 76.8034 79.4955 77.1421C83.4662 78.1951 85.5519 74.6786 88.4481 79.3284C89.1216 78.8649 89.7931 78.3997 90.4625 77.933C90.714 78.6898 90.9677 79.4466 91.2236 80.2032C94.5067 78.7429 93.0826 80.5894 94.1462 80.7542C96.9487 81.1963 102.765 81.7225 103.519 80.1414C105.369 84.3086 108.919 80.4436 109.835 80.7206C110.336 81.2607 110.84 81.8 111.346 82.3385C112.076 81.965 112.805 81.5899 113.532 81.213C112.72 84.9078 116.662 81.678 116.995 81.6584C117.38 81.6557 122.585 83.3905 124.585 83.574C126.579 83.7691 130.15 83.0918 130.454 83.1166C130.804 83.1512 134.101 84.4872 136.762 84.6934C139.093 84.9236 152.967 84.3566 152.006 85.9521C151.077 86.3669 149.766 86.6954 148.638 86.8456C145.141 87.4005 124.759 86.5482 119.567 86.0971C109.155 85.4241 98.3563 83.7059 88.0364 82.1019C87.4292 82.0071 87.1525 82.9478 86.6295 82.8687C85.8344 82.7443 84.0354 81.3898 83.2588 81.2514C80.3349 80.7449 76.7836 80.1274 75.2355 79.7986C71.7767 79.0624 69.2861 79.0605 66.6715 78.5006C65.8447 78.3253 62.0855 76.1059 59.1637 75.8171C58.5822 75.9407 58.0001 76.0628 57.4172 76.1834C58.7803 76.9081 62.3389 78.7357 64.0835 79.2807C66.677 80.094 68.2463 79.6599 69.215 79.9116C70.0224 80.1256 73.9986 81.9929 75.917 82.4356C76.5108 82.5752 76.8541 81.6025 77.3614 81.7178C80.1146 82.3514 83.761 83.1298 85.9587 84.5786C85.0421 84.0743 91.2775 84.6209 91.6002 84.6705C92.151 84.7702 92.5811 85.8213 93.7119 86.0195C95.8896 86.3965 95.9395 84.3752 98.3337 86.802C99.1027 86.3362 99.8694 85.8683 100.634 85.3984C100.264 88.0604 109.328 85.7497 111.311 89.2616C111.337 89.6666 100.034 89.0766 99.1043 88.9428C93.5205 88.3842 85.5633 86.2497 80.1639 85.5783C78.5367 85.3914 73.1606 85.8567 72.7865 85.7314C72.1861 85.5462 72.946 84.7687 72.6901 84.6758C67.4726 82.7432 69.7223 85.1818 68.8796 85.539ZM310.21 74.9553C308.592 75.2411 306.96 75.5271 305.315 75.813C305.497 76.3828 305.68 76.9526 305.862 77.5224C306.596 77.2148 307.328 76.9073 308.056 76.5997C308.672 76.8854 309.287 77.171 309.9 77.4567C310.004 76.6229 310.107 75.7891 310.21 74.9553ZM314.485 76.9576C316.016 77.0868 315.95 75.8507 316.288 75.7528C317.294 75.4581 318.23 75.8573 319.214 75.7312C317.76 72.9392 315.473 74.5442 314.485 76.9576ZM284.927 81.086C285.239 80.9148 287.093 77.5619 289.812 80.2465C291.558 79.1349 293.185 78.0326 295.004 76.9084C291.988 78.6514 287.643 77.5904 286.102 77.7959C285.526 77.8735 285.508 78.8495 285.046 78.91C282.378 79.2458 279.541 77.3028 279.561 80.5273C282.038 79.3595 284.529 81.2977 284.927 81.086ZM301.037 78.3152C301.401 77.602 301.765 76.8887 302.127 76.1755C300.564 76.3402 298.989 76.5045 297.404 76.6681C297.903 77.2998 298.401 77.9313 298.898 78.5628C299.613 78.4804 300.326 78.3979 301.037 78.3152ZM181.669 87.4092C182.631 87.4093 183.592 87.4073 184.552 87.4035C184.497 87.8927 183.398 87.8852 182.99 88.2127C182.992 88.2127 182.994 88.2127 182.995 88.2127C182.541 88.583 182.73 89.2146 181.905 89.4864C181.827 88.794 181.748 88.1016 181.669 87.4092ZM-105.126 -113.664C-105.491 -115.458 -107.044 -129.806 -105.094 -128.725C-104.158 -128.188 -104.445 -123.288 -104.263 -121.89C-104.047 -120.01 -101.415 -114.65 -105.126 -113.664ZM-108.03 -139.425C-106.293 -139.758 -105.335 -130.695 -105.538 -129.825C-105.807 -129.988 -106.395 -130.225 -106.544 -130.462C-107.272 -131.609 -107.43 -137.449 -108.03 -139.425ZM127.855 89.7937C128.69 88.9726 129.52 88.1495 130.348 87.3243C130.042 88.4705 129.736 89.6165 129.428 90.7622C128.902 90.4401 128.378 90.1173 127.855 89.7937ZM56.9885 75.497C45.0387 72.1515 33.3696 68.1539 22.0111 63.3452C22.8139 64.2186 23.6256 65.0885 24.4462 65.9549C34.4137 69.9097 45.2835 73.1216 55.0382 76.721C55.6903 76.3148 56.3404 75.9068 56.9885 75.497ZM281.907 86.6646C278.704 86.9833 275.842 86.3822 272.493 88.0485C275.911 89.077 277.47 86.8776 280.891 88.5192C280.893 88.519 280.895 88.5188 280.897 88.5186C281.234 87.9007 281.571 87.2827 281.907 86.6646ZM210.367 91.6436C211.37 92.433 212.374 93.2207 213.381 94.0066C212.202 94.0445 211.022 94.08 209.839 94.1131C210.016 93.29 210.191 92.4669 210.367 91.6436ZM-40.2474 29.6495C-41.6066 26.1317 -49.9826 22.5707 -50.3288 19.0692C-50.3451 18.8488 -48.5947 19.3547 -49.1222 16.2879C-48.0368 17.9339 -47.3276 19.158 -48.2013 20.2371C-47.4602 20.3176 -46.7205 20.393 -45.9823 20.4634C-45.5507 21.3854 -45.1112 22.3053 -44.6638 23.2229C-43.7874 22.1587 -43.7903 22.2636 -43.3708 23.9539C-42.6426 24.1622 -41.9058 24.3736 -41.1741 24.5754C-41.3583 25.1971 -41.5403 25.8201 -41.72 26.4443C-40.7354 26.242 -39.7547 26.0326 -38.7779 25.8162C-37.6731 27.9871 -39.7497 28.2456 -40.2474 29.6495ZM-31.0266 36.906C-31.7399 36.9032 -42.8624 26.0824 -35.7468 28.588C-34.4363 29.8321 -33.1096 31.0573 -31.7669 32.264C-35.8035 34.8352 -29.3864 34.8044 -29.0183 34.9521C-27.229 35.7945 -25.9221 38.1342 -24.7505 38.9269C-23.7429 39.609 -22.6818 39.3718 -22.0044 39.8846C-19.6993 41.6438 -15.9287 44.2174 -16.4253 46.1294C-18.3419 44.9092 -20.2599 43.6226 -22.1609 42.2171C-24.1532 40.7345 -27.0401 40.8546 -29.2463 36.0674C-30.3153 35.5636 -30.8688 36.9309 -31.0266 36.906ZM216.32 93.7178C216.141 91.8417 222.076 92.0634 222.142 92.8018C222.173 93.2381 220.246 93.3069 219.976 93.4827C219.974 93.4828 219.972 93.4829 219.971 93.483C219.858 93.5598 220.471 94.2581 219.571 94.4943C218.488 94.2374 217.404 93.9786 216.32 93.7178ZM-105.372 -90.451C-106.674 -90.8515 -109.499 -108.786 -108.968 -109.518C-108.851 -109.685 -108.361 -109.548 -108.105 -109.645C-108.957 -105.129 -106.189 -99.4632 -105.315 -95.644C-105.073 -94.5733 -105.871 -94.7501 -105.873 -94.6862C-105.872 -94.6837 -105.872 -94.6811 -105.871 -94.6785C-105.754 -94.0574 -103.402 -91.6996 -105.372 -90.451ZM-53.7078 14.2401C-52.9669 14.6117 -52.2256 14.9769 -51.484 15.3356C-51.776 15.8776 -52.0666 16.4207 -52.3558 16.9648C-52.357 16.9635 -52.3583 16.9622 -52.3595 16.9609C-52.8162 16.0568 -53.2656 15.1498 -53.7078 14.2401ZM-71.9528 -5.57364C-71.5058 -5.64958 -71.0593 -5.72675 -70.6134 -5.80509C-69.4444 -4.2224 -68.2577 -2.66564 -67.0538 -1.13448C-66.9841 -1.43017 -66.9137 -1.72552 -66.8428 -2.02058C-64.6058 -0.0335496 -65.013 1.78889 -63.8903 2.89441C-63.8914 2.89301 -63.8925 2.89162 -63.8936 2.89021C-63.7712 3.00738 -62.9728 2.63931 -62.567 3.1069C-61.6369 4.19677 -58.846 7.09084 -59.147 8.05628C-59.9252 10.0335 -64.4655 3.11353 -65.4354 1.90576C-65.8905 1.37681 -66.9964 1.15705 -67.2677 0.824831C-67.5626 0.459133 -67.134 -0.65469 -67.8321 -1.55292C-68.039 -1.80471 -71.1799 -4.12663 -71.9528 -5.57364ZM-88.0747 -36.2308C-86.988 -36.092 -87.2792 -34.6184 -86.9259 -34.2347C-86.845 -34.149 -86.5257 -35.2749 -85.8557 -34.4176C-86.2016 -33.9173 -86.5462 -33.4155 -86.8894 -32.9123C-87.3083 -34.0457 -87.7099 -35.1671 -88.0747 -36.2308ZM226.305 94.2C226.146 94.4077 222.973 94.4763 222.813 94.3555C220.844 92.7498 227.409 92.6432 226.305 94.2ZM307.107 89.5918C305.882 92.2041 322.994 87.9084 324.754 87.8343C324.507 86.3079 320.5 88.3147 322.456 85.9648C320.54 87.3513 314.463 87.3965 313.321 87.8598C312.548 88.1495 312.49 89.4976 312.374 89.5528C311.924 89.7534 307.537 88.6756 307.107 89.5918ZM338.977 85.1959C337.328 85.673 335.61 86.1586 333.962 86.6368C335.974 86.5889 338.047 86.5347 340.041 86.4907C339.687 86.059 339.332 85.6274 338.977 85.1959ZM341.167 85.6605C341.296 87.1515 346.763 85.4062 348.201 85.6009C346.321 83.2412 343.852 85.9242 341.167 85.6605ZM247.772 96.8432C245.263 98.0028 243.859 93.5204 247.117 95.2967C247.216 95.3559 247.876 96.7836 247.772 96.8432ZM-45.1206 33.9084C-45.4791 33.6537 -50.7017 30.8509 -50.4028 30.0969C-49.5401 27.6955 -47.5067 30.9136 -45.9795 31.1008C-43.5362 31.3822 -44.9303 28.5628 -41.8939 32.4211C-41.7333 31.9392 -41.5714 31.458 -41.4083 30.9775C-39.1998 32.7136 -42.0082 34.5528 -41.8975 35.2036C-41.8623 35.4039 -40.33 36.3564 -40.2168 36.7201C-38.814 41.329 -44.8256 34.2069 -45.1206 33.9084ZM183.316 99.3291C178.078 100.66 180.353 98.6714 175.039 98.7118C174.88 97.6897 182.622 98.4342 183.316 99.3291ZM-2.0007 61.6973C-6.56114 58.7715 -11.1202 57.6691 -14.4663 53.454C-12.7921 51.3777 -0.524999 61.7984 -2.0007 61.6973ZM-121.25 -150.836C-115.607 -129.484 -114.588 -105.611 -109.61 -84.0072C-109.044 -81.5576 -107.91 -81.5933 -107.814 -80.6906C-107.748 -80.101 -108.636 -79.987 -108.45 -79.2263C-102.032 -52.7701 -92.2966 -26.5149 -76.9198 -4.77412C-75.9467 -3.31609 -69.6369 2.20503 -70.8381 5.3002C-71.7723 7.69368 -73.9924 1.91499 -74.5663 1.10933C-75.0134 0.511428 -75.8666 1.08103 -76.1604 0.674475C-76.4711 0.242499 -75.6455 0.195773 -75.9923 -0.313481C-77.4571 -2.47272 -79.2887 -4.69767 -80.5413 -6.73885C-92.4441 -26.0831 -101.712 -47.0623 -108.06 -68.5908C-108.828 -71.2125 -109.458 -70.4567 -109.501 -70.5866C-109.5 -70.589 -109.498 -70.5913 -109.497 -70.5936C-113.722 -85.3085 -114.956 -101.276 -117.605 -117.281C-119.46 -127.902 -120.843 -138.463 -121.826 -149.829C-121.634 -150.165 -121.443 -150.5 -121.25 -150.836ZM-34.3467 39.1979C-37.345 40.7589 -35.6468 38.1707 -40.2087 35.9831C-40.1715 35.3208 -40.1314 34.6594 -40.0883 33.9991C-38.2033 35.7714 -36.2869 37.5059 -34.3402 39.203C-34.3424 39.2013 -34.3445 39.1996 -34.3467 39.1979ZM-58.73 17.9546C-62.4368 20.1962 -67.5813 9.75458 -71.0877 6.33999C-69.9812 4.36318 -66.3238 10.5562 -65.0468 11.686C-64.4056 12.2977 -59.8187 14.3684 -58.3825 17.7016C-58.4983 17.7859 -58.6141 17.8703 -58.73 17.9546ZM289.469 97.5875C288.679 97.5422 287.888 97.4967 287.094 97.4508C289.006 96.7999 290.902 96.1472 292.782 95.4931C289.74 96.0978 286.657 96.6988 283.537 97.2943C284.205 98.1036 284.873 98.9127 285.541 99.7216C286.859 99.011 288.168 98.2996 289.469 97.5875ZM279.227 98.1125C284.812 97.9238 278.808 96.1467 277.501 97.3016C276.722 97.9948 278.656 98.1299 279.227 98.1125ZM265.071 100.841C267.765 102.155 272.896 101.818 270.815 98.9397C268.198 100.595 266.33 99.5642 262.366 100.704C263.002 101.239 263.637 101.774 264.272 102.308C264.274 102.308 264.277 102.308 264.28 102.308C264.544 101.819 264.808 101.33 265.071 100.841ZM281.937 99.7128C285.414 97.6332 274.919 99.2029 278.343 100.044C278.507 100.083 281.803 99.7933 281.937 99.7128ZM-122.913 -127.069C-121.963 -127.59 -121.721 -124.839 -121.56 -123.941C-120.885 -120.171 -120.67 -114.678 -119.922 -110.391C-120.292 -110.669 -120.662 -110.949 -121.031 -111.23C-121.81 -116.751 -122.414 -121.935 -122.913 -127.069ZM-117.791 -97.1878C-117.273 -94.3438 -116.722 -91.5365 -116.138 -88.7657C-116.084 -88.5081 -116.661 -87.1189 -117.057 -87.9765C-117.341 -91.0156 -117.586 -94.0857 -117.791 -97.1878ZM-22.9435 54.8718C-25.1651 54.073 -21.2223 60.0928 -19.8065 57.3412C-20.8599 56.5269 -21.9056 55.7038 -22.9435 54.8718ZM-5.4553 66.8093C-6.56986 65.8737 -7.67393 64.9297 -8.76743 63.9773C-8.94224 64.2828 -9.11717 64.5882 -9.29197 64.8936C-8.01827 65.5437 -6.73927 66.1822 -5.4553 66.8093ZM-124.5 -138.377C-123.206 -136.955 -123.142 -133.416 -122.935 -131.243C-124.093 -132.656 -123.854 -136.306 -124.5 -138.377ZM-50.5869 34.7581C-49.9501 34.2885 -56.5793 28.1865 -55.3416 31.3904C-53.7717 32.5353 -52.2079 33.6383 -50.5869 34.7581ZM-64.4922 22.4493C-63.2974 24.0361 -62.0441 24.9538 -61.3795 23.7785C-62.1277 23.0575 -62.8718 22.3293 -63.6117 21.5939C-63.9053 21.879 -64.1988 22.1641 -64.4922 22.4493ZM255.407 104.052C252.14 104.175 249.079 104.271 245.915 104.361C246.054 104.705 246.193 105.048 246.333 105.392C249.383 105.306 252.345 105.215 255.496 105.098C255.466 104.749 255.437 104.4 255.407 104.052ZM-127.768 -140.025C-127.672 -142.288 -127.558 -144.566 -127.425 -146.859C-127.092 -144.584 -126.741 -142.331 -126.373 -140.101C-126.84 -140.074 -127.307 -140.046 -127.774 -140.019C-127.772 -140.021 -127.77 -140.023 -127.768 -140.025ZM299.063 104.727C289.518 107.347 302.111 107.816 304.443 105.138C304.446 105.14 304.449 105.141 304.452 105.143C304.653 104.908 304.072 103.932 304.401 103.479C303.464 104.046 302.521 104.613 301.573 105.18C300.604 104.697 299.632 104.215 298.657 103.732C298.379 103.99 298.1 104.247 297.821 104.505C298.236 104.579 298.65 104.653 299.063 104.727ZM337.839 101.429C346.754 100.251 337.151 98.718 333.289 101.199C333.368 101.664 336.941 101.546 337.839 101.429ZM315.041 103.395C313.681 103.308 312.312 103.221 310.932 103.134C310.791 103.446 310.649 103.758 310.508 104.07C311.58 104.249 312.648 104.429 313.71 104.608C314.155 104.204 314.599 103.8 315.041 103.395ZM270.181 112.384C267.99 112.892 264.914 109.863 272.063 110.122C272.089 110.473 272.116 110.824 272.143 111.175C271.857 111.144 271.002 110.885 270.959 110.915C270.836 111.014 271.09 112.172 270.181 112.384ZM354.711 108.92C354.977 109.027 355.522 112.701 357.733 108.612C358.542 108.764 359.342 108.918 360.133 109.074C360.249 108.24 360.366 107.406 360.482 106.573C357.572 107.502 357.045 105.897 356.826 105.883C355.791 105.834 356.634 106.603 355.975 106.683C354.155 106.899 350.593 106.705 352.458 108.949C353.124 109.753 354.406 108.817 354.711 108.92ZM349.284 111.623C349.604 111.276 348.349 110.32 348.583 109.986C348.799 109.692 352.147 108.218 351.013 106.495C350.454 106.633 349.892 106.771 349.326 106.91C349.186 107.43 349.045 107.951 348.904 108.472C348.296 108.071 347.685 107.67 347.07 107.271C346.254 108.607 344.385 110.428 346.916 111.168C346.018 111.159 345.112 111.152 344.198 111.146C343.666 110.607 343.131 110.068 342.595 109.53C342.941 110.403 343.287 111.275 343.632 112.148C345.552 111.967 347.436 111.792 349.284 111.623ZM376.356 108.687C376.22 108.228 376.084 107.769 375.947 107.309C379.117 107.938 383.521 108.036 380.786 105.25C376.974 105.226 372.497 105.332 367.98 105.495C367.741 105.87 367.501 106.245 367.26 106.621C370.169 104.997 369.93 110.81 372.612 108.924C373.063 108.606 371.535 106.701 374.616 107.753C374.548 108.23 374.479 108.706 374.411 109.183C375.07 109.015 375.718 108.85 376.356 108.687ZM397.432 107.761C397.336 107.911 396.921 108.081 396.835 108.305C396.721 108.525 396.822 108.773 396.936 108.96C397.053 109.148 397.141 109.27 397.098 109.232C397.066 109.196 396.914 108.99 396.918 108.62C396.919 108.621 396.919 108.621 396.92 108.621C396.864 106.563 397.581 106.273 397.737 106.292C397.936 106.315 397.265 106.653 397.172 106.633C396.945 106.569 396.838 103.723 394.885 107.65C395.542 107.664 396.091 107.687 396.512 107.709C397 107.736 397.424 107.786 397.432 107.761ZM385.417 108.158C385.847 108.234 385.585 107.537 385.769 107.541C385.77 107.541 385.772 107.541 385.774 107.541C387.139 107.566 389.278 107.712 390.882 107.613C392.912 107.511 394.275 107.178 394.594 106.055C393.141 105.677 384.791 105.348 384.035 106.982C384.507 107.372 384.968 107.764 385.417 108.158ZM365.267 107.922C363.66 109.556 367.609 109.38 368.515 108.615C368.69 108.451 366.939 106.228 365.267 107.922ZM221.06 124.658C216.796 123.934 222.318 122.835 220.342 121.523C221.152 121.609 221.961 121.695 222.769 121.779C222.202 122.74 221.632 123.699 221.06 124.658ZM24.0281 103.57C22.9687 103.36 23.7345 102.736 23.6517 102.693C22.9868 102.476 22.1283 102.894 21.901 102.732C17.7358 99.6817 21.0876 100.179 21.1868 100.041C21.5775 99.2926 20.7192 97.9219 22.7267 97.6531C23.6362 98.3108 24.5505 98.9642 25.4695 99.6135C26.1346 99.3591 26.7991 99.103 27.4537 98.842C29.1214 100.496 26.4129 99.8249 25.6552 100.959C25.3599 101.407 27.0748 102.688 24.0281 103.57ZM213.537 127.733C212.796 126.283 211.048 124.477 212.667 122.948C212.669 122.948 212.671 122.948 212.673 122.948C212.972 122.668 214.217 122.481 214.588 122.088C217.384 123.957 216.42 126.021 213.537 127.733ZM41.8021 112.207C43.5915 112.383 45.3794 112.544 47.1655 112.691C47.3769 111.834 47.5884 110.976 47.8003 110.118C46.8362 110.093 45.8715 110.063 44.9058 110.03C44.7032 109.551 44.5018 109.073 44.3016 108.594C45.6976 107.955 47.0856 107.308 48.4658 106.653C49.6979 107.368 50.954 108.082 52.1795 108.78C51.4486 109.064 50.7145 109.346 49.9712 109.623C53.1045 111.017 52.9492 108.748 55.839 108.662C56.5501 109.693 57.268 110.722 57.9929 111.749C59.5348 111.292 61.0698 110.825 62.598 110.349C64.751 111.262 64.8121 111.916 63.0759 112.466C63.9511 113.777 65.5671 112.426 66.8198 113.161C66.9237 113.221 66.4879 114.156 66.5841 114.19C73.4629 116.438 73.6476 113.719 74.7859 113.853C75.5931 113.946 78.3789 116.332 78.3122 116.938C78.2297 117.752 70.9686 119.635 81.3118 121.74C75.5293 122.935 69.8403 119.372 74.4705 116.992C72.7028 116.983 65.434 114.525 64.9454 114.494C64.2217 114.478 64.1793 115.749 63.3046 115.576C62.7822 115.467 62.109 112.396 57.4745 113.796C57.0735 113.212 56.6748 112.627 56.2781 112.042C55.7009 112.29 55.1226 112.537 54.5429 112.783C55.1884 114.369 55.8456 115.955 56.5145 117.539C52.9089 115.089 48.9079 116.895 47.0894 113.932C44.9153 113.603 43.8177 113.561 44.3867 114.982C43.754 114.8 43.1216 114.615 42.4897 114.429C42.2581 113.689 42.0289 112.948 41.8021 112.207ZM200.925 125.928C198.924 127.33 198.153 124.385 198.467 124.214C200.224 123.271 201.962 125.198 200.925 125.928ZM28.2427 103.405C30.7282 103.467 33.2061 103.499 35.6762 103.502C35.3873 104.39 35.0985 105.278 34.8096 106.166C32.6098 105.269 30.4205 104.349 28.2427 103.405ZM221.763 126.732C221.939 126.024 222.115 125.317 222.29 124.609C224.829 127.064 227.069 123.291 228.291 123.991C228.557 124.144 228.094 125.403 227.612 125.691C227.317 125.874 222.208 126.953 221.763 126.732ZM322.079 118.177C321.123 117.809 320.161 117.442 319.194 117.075C319.33 117.852 319.467 118.629 319.603 119.407C320.071 119.503 320.538 119.599 321.004 119.695C321.364 119.189 321.722 118.683 322.079 118.177ZM311.93 118.023C310.373 118.254 308.803 118.485 307.219 118.715C313.33 118.793 308.425 119.669 312.174 120.299C312.093 119.54 312.011 118.782 311.93 118.023ZM295.963 121.286C296.201 121.735 296.439 122.183 296.678 122.632C298.205 122.478 299.851 122.311 301.477 122.143C300.62 123.872 299.736 125.602 298.884 127.328C298.315 127.39 297.746 127.452 297.174 127.513C296.77 125.438 296.366 123.362 295.963 121.286ZM-20.9883 86.9139C-21.961 86.4087 -24.5284 83.2751 -24.1163 82.9022C-22.4376 83.1381 -20.7631 83.3553 -19.0928 83.5545C-19.5451 84.3737 -19.9974 85.1931 -20.4496 86.0125C-20.0279 85.715 -19.607 85.4168 -19.1871 85.1178C-18.5825 85.8564 -17.973 86.5928 -17.3587 87.3266C-16.5727 86.8239 -15.79 86.318 -15.0103 85.8093C-15.0603 86.8433 -15.1057 87.8785 -15.1467 88.9148C-19.7296 88.334 -18.8031 86.9255 -19.5938 86.5123C-19.9948 86.2979 -20.5292 86.6624 -20.8133 86.8372C-20.8716 86.8628 -20.9299 86.8884 -20.9883 86.9139ZM27.8532 109.574C23.0286 108.155 21.1556 104.831 17.0005 105.449C20.7467 102.277 33.3732 111.533 39.5412 109.5C39.8546 110.333 40.1715 111.166 40.4917 111.998C37.9293 110.567 35.6012 111.345 34.1961 111.113C33.0823 110.927 33.422 110.26 33.3375 110.244C33.3337 110.243 33.33 110.242 33.3261 110.24C30.7521 109.717 29.7582 110.129 27.8532 109.574ZM225.35 130.026C224.154 131.193 221.959 131.171 221.87 129.549C223.068 129.031 224.261 128.51 225.45 127.988C225.22 128.414 225.554 129.827 225.35 130.026ZM294.593 125.98C293.704 126.6 291.414 126.359 292.245 124.869C292.396 124.605 294.717 125.366 293.164 122.976C295.331 122.8 295.099 125.625 294.593 125.98ZM110.417 124.699C111.253 124.851 112.089 125.001 112.926 125.149C113.044 125.823 113.163 126.497 113.282 127.171C112.323 126.349 111.368 125.525 110.417 124.699ZM235.999 130.628C236.923 127.367 238.973 130.378 240.867 127.625C241.621 127.56 242.374 127.494 243.126 127.428C243.128 127.428 243.129 127.428 243.131 127.428C243.205 128.299 243.279 129.171 243.353 130.043C240.916 130.246 238.464 130.441 235.999 130.628ZM57.4425 116.508C58.0612 116.244 58.6787 115.978 59.2946 115.711C60.1039 116.4 60.9173 117.085 61.7346 117.768C61.1536 117.979 60.5716 118.188 59.9885 118.395C59.1361 117.769 58.2875 117.14 57.4425 116.508ZM249.296 130.097C246.703 130.671 245.541 127.953 248.883 127.727C250.289 127.633 252.004 129.494 249.296 130.097ZM-66.3796 52.9211C-65.4582 53.4433 -64.5355 53.9574 -63.6114 54.4636C-63.7411 55.1334 -63.8683 55.8044 -63.9931 56.4764C-64.7999 55.2977 -65.5953 54.1127 -66.3796 52.9211ZM306.918 124.399C306.752 123.828 306.586 123.256 306.42 122.684C305.636 122.885 304.848 123.086 304.057 123.287C304.319 123.845 304.581 124.403 304.843 124.96C305.537 124.773 306.229 124.586 306.918 124.399ZM-60.972 57.2538C-60.2788 57.705 -59.5842 58.1517 -58.8883 58.594C-58.6533 59.1659 -58.4158 59.7375 -58.1758 60.3086C-58.9453 60.0349 -59.7151 59.7562 -60.4849 59.4724C-60.6512 58.7326 -60.8135 57.9931 -60.972 57.2538ZM274.183 127.913C273.253 128.702 269.085 126.852 272.621 125.989C274.865 125.439 274.322 127.793 274.183 127.913ZM279.671 128.133C275.872 129.819 278.223 122.777 283.241 126.746C278.528 126.572 279.89 128.03 279.671 128.133ZM313.607 128.278C313.701 128.265 313.674 127.283 314.419 127.166C317.098 126.75 320.541 125.983 322.606 125.696C327.574 125.005 341.454 125.234 343.085 122.205C343.372 121.574 342.366 119.896 342.499 119.789C342.897 119.488 345.384 120.082 344.798 118.829C342.468 119.096 340.039 119.376 337.648 119.652C338.298 120.509 339.033 121.357 339.72 122.21C333.841 122.368 335.848 122.202 333.965 120.388C333.089 121.27 332.206 122.152 331.315 123.035C329.102 122.494 326.854 121.955 324.574 121.42C325.136 121.945 325.696 122.47 326.255 122.996C323.078 124.436 323.911 123.63 321.932 122.423C321.992 123.004 322.052 123.585 322.112 124.166C318.679 123.112 318.355 124.906 317.672 125.002C316.291 125.186 313.837 118.508 309.169 125.917C306.536 122.871 307.288 129.554 305.574 126.295C302.035 130.408 309.382 128.288 312.777 127.797C312.779 127.797 312.781 127.796 312.782 127.796C313.04 127.758 312.696 128.425 313.607 128.278ZM293.346 126.932C295.984 129.724 286.765 130.907 289.407 126.249C289.85 126.063 290.292 125.877 290.733 125.691C291.608 126.105 292.481 126.518 293.351 126.931C293.349 126.931 293.347 126.932 293.346 126.932ZM204.749 134.635C195.911 133.549 200.9 131.716 203.907 133.364C204.508 133.69 204.843 134.147 204.749 134.635ZM20.2565 109.347C20.2503 108.956 20.2446 108.566 20.2394 108.176C23.1696 109.64 29.3986 110.295 28.5437 112.589C25.7714 111.546 23.0412 110.478 20.2565 109.347ZM43.8054 118.721C43.1051 118.677 40.3128 118.22 40.8996 117.434C42.2487 117.155 43.5931 116.869 44.9324 116.574C45.3611 117.12 45.7917 117.665 46.2246 118.209C45.4299 118.13 43.9953 118.736 43.8054 118.721Z" fill="#45D670"/>
</g>
<defs>
<clipPath id="clip0_2001_2">
<rect width="359" height="144" fill="white"/>
</clipPath>
</defs>
</svg>
