<svg width="604" height="121" viewBox="0 0 604 121" fill="none" xmlns="http://www.w3.org/2000/svg">
<path d="M22.1613 114.403C37.5222 127.169 47.0549 116.251 58.3818 115.087C83.7934 112.346 115.427 116.038 139.844 115.756C158.312 115.539 177.031 114.665 195.382 113.89C196.31 113.852 196.854 112.697 197.275 112.678C201.239 112.505 207.968 113.476 211.977 113.279C220.324 112.872 234.778 112.872 242.43 111.692C245.641 111.193 248.951 110.959 250.17 108.205C251.348 108.05 252.027 110.514 252.337 110.644C252.341 110.642 252.344 110.639 252.348 110.637C253.347 111.041 255.836 109.273 256.393 109.373C256.476 109.389 255.99 111.187 257.329 110.627C257.448 110.579 257.321 109.363 258.455 109.33C258.749 109.322 262.573 111.136 263.662 111.235C267.279 111.557 275.813 109.97 280.12 109.933C280.778 109.924 281.167 110.631 281.862 110.634C282.221 110.636 282.747 109.855 282.858 109.858C283.342 109.878 285.507 113.359 284.649 106.441C286.863 106.848 286.245 109.149 286.316 110.636C288.716 110.816 289.825 107.536 290.501 110.986C302.283 110.399 313.982 109.813 325.782 109.231C325.794 109.794 325.805 110.358 325.816 110.922C329.252 108.622 330.491 112.415 332.42 109.117C333.647 109.82 334.873 110.524 336.098 111.227C367.404 108.585 398.658 110.844 429.416 110.697C430.703 110.692 431.021 109.49 433.13 109.474C435.428 109.457 438.772 110.841 441.95 110.819C444.721 110.801 448.755 109.662 451.756 109.486C452.434 109.448 452.921 110.209 452.997 110.204C453.444 110.175 453.468 108.972 453.901 108.938C454.418 108.901 455.041 109.793 455.635 109.739C457.816 109.543 460.361 109.857 460.658 109.837C462.077 109.728 462.39 108.552 462.507 108.54C464.076 108.402 463.483 109.462 463.873 109.402C465.889 109.084 467.324 106.439 470.015 108.999C469.948 108.015 469.88 107.031 469.812 106.047C471.883 105.505 470.501 108.111 470.92 108.587C471.1 108.763 475.497 108.475 475.823 108.432C476.991 108.272 477.031 106.965 477.133 106.948C477.325 106.907 480.416 108.419 482.019 107.295C483.906 105.963 481.73 103.28 482.2 102.785C482.282 102.701 484.235 102.996 484.504 102.166C484.804 101.274 483.116 101.274 483.145 100.899C483.17 100.641 485.986 98.8269 485.465 97.578C485.059 96.3257 481.219 97.8816 480.396 97.2883C480.262 97.1899 480.532 95.6541 480.413 95.5965C479.75 95.3795 471.467 95.268 471.005 95.5216C471.448 96.225 471.889 96.9286 472.329 97.6322C471.738 97.699 471.144 97.766 470.549 97.8332C471.391 98.3998 472.229 98.9668 473.062 99.5341C471.788 105.294 468.032 99.4238 467.881 96.5439C467.82 95.2119 470.175 91.7985 468.01 89.7917C468.343 89.4517 468.676 89.1117 469.008 88.7717C469.686 89.337 470.361 89.9024 471.033 90.4681C470.581 90.8193 470.128 91.1706 469.674 91.522C469.838 91.9233 470.002 92.3247 470.165 92.726C471.427 93.3756 472.679 94.0259 473.921 94.677C474.563 94.3858 474.439 93.2028 474.88 92.9776C480.382 90.1438 476.663 93.7754 480.448 93.2824C480.995 92.653 481.54 92.0237 482.084 91.3947C481.866 94.0178 483.555 92.3866 485.522 93.5429C485.296 92.6905 485.068 91.8382 484.841 90.9858C487.74 91.4697 493.454 87.2722 491.855 91.9368C492.498 91.5462 493.139 91.1558 493.777 90.7657C494.298 91.5408 494.816 92.3161 495.33 93.0915C496.077 93.0164 496.735 92.9401 497.558 92.8673C497.569 92.4524 497.58 92.0375 497.592 91.6226C496.928 91.608 496.401 91.5962 495.809 91.5835C496.269 90.3267 496.718 89.0698 497.186 87.8134C497.652 88.0319 498.115 88.2504 498.576 88.4691C496.599 89.6285 499.143 91.6296 499.72 93.3113C501.334 93.9603 502.398 91.8158 502.937 91.7298C503.198 91.6882 506.036 95.5781 504.986 91.351C506.48 91.896 507.948 92.4429 509.391 92.9916C509.968 92.6846 510.543 92.3779 511.115 92.0716C509.947 90.0809 513.556 87.8234 510.967 86.9387C509.02 86.2762 508.472 88.0935 507.523 88.0567C506.665 88.0264 506.237 86.7832 505.29 86.706C498.757 86.2088 493.66 86.3506 487.604 86.8157C486.398 86.9096 485.298 86.2921 484.476 86.3672C483.546 86.454 484.693 88.0129 483.512 87.6234C482.27 87.212 482.009 85.948 481.678 85.9191C481.472 85.9027 480.805 87.0308 480.199 87.025C477.647 86.9994 474.379 85.8774 473.999 85.8812C473.64 85.8892 466.851 86.8731 466.501 87.0597C466.325 87.1604 466.671 91.3527 465.171 86.878C464.697 86.793 464.221 86.7081 463.744 86.6233C463.818 87.4609 463.892 88.2986 463.966 89.1363C461.147 85.9515 462.118 87.7307 459.363 87.4737C453.063 86.8558 443.635 87.5653 436.416 87.293C434.878 87.23 434.288 86.2293 432.455 86.164C430.756 86.1065 426.276 89.1192 427.233 84.9706C423.411 88.5778 422.746 82.3941 420.826 86.2644C420.587 85.7043 420.348 85.1442 420.109 84.5841C418.008 87.0061 417.34 84.8928 415.009 84.6165C414.013 84.4964 415.145 87.0513 413.174 84.2116C412.802 84.4266 412.43 84.6417 412.058 84.8567C412.149 85.4762 412.241 86.0957 412.332 86.7151C410.154 86.2235 410.013 86.548 410.245 84.2254C409.195 84.6556 408.143 85.086 407.088 85.5167C406.951 84.756 406.813 83.9954 406.675 83.2348C407.039 81.7691 431.531 83.8074 434.693 84.5081C438.536 82.7691 446.735 84.9109 449.841 84.5033C451.107 84.3385 451.668 82.6158 453.496 82.4102C455.326 82.2048 457.589 83.7735 458.556 83.8317C462.051 84.0251 477.553 83.7703 466.995 81.569C467.305 80.7307 467.615 79.8924 467.925 79.0542C472.113 81.943 470.605 80.17 474.047 79.8977C475.498 79.7813 478.854 81.6858 478.703 77.8702C476.075 77.1361 473.225 78.3344 470.867 78.2651C470.637 78.2575 467.844 76.4998 466.377 76.9666C465.054 77.3928 465.957 81.0323 463.083 76.9384C460.917 80.9191 459.667 77.2979 459.092 76.9118C458.081 76.2425 458.026 78.2108 457.075 78.4382C456.052 78.6895 455.345 77.382 455.204 77.3732C453.815 77.3398 446.348 77.162 445.986 77.9576C446.289 78.3064 446.592 78.6553 446.895 79.0041C444.94 79.5676 445.345 77.5547 444.829 77.3143C444.444 77.3221 444.059 77.33 443.673 77.3379C443.827 77.7551 443.98 78.1723 444.133 78.5896C441.804 78.5045 443.591 77.0503 440.267 77.0952C438.141 77.1254 435.974 78.7259 435.799 78.6086C435.741 78.575 436.377 77.4985 435.549 77.357C434.178 77.1245 431.789 77.161 431.526 78.6239C430.847 78.4197 430.898 76.9891 430.808 76.9569C430.425 76.818 423.586 76.3641 422.335 76.2876C418.942 76.074 414.936 76.4048 411.38 76.1898C411.005 76.1684 411.251 77.0846 410.875 77.0577C410.275 77.0149 407.16 75.5981 406.692 75.5002C405.53 75.2599 402.466 75.8567 401.977 75.4437C401.907 75.3851 402.91 74.1359 401.722 73.7613C400.402 73.347 401.125 75.0095 401.054 75.0268C398.379 75.6205 396.665 74.4768 394.818 74.2698C394.219 74.2035 393.126 75.4697 392.276 75.1069C392.178 75.0656 392.36 73.9034 392.263 73.8472C390.97 73.2509 389.816 75.4161 389.283 75.5609C387.967 75.9151 388.669 74.3186 388.6 74.3079C387.72 74.266 386.541 74.8513 385.197 74.7893C379.203 74.5133 374.267 74.4711 367.787 74.6531C366.974 74.6754 366.012 75.808 365.898 75.8108C365.521 75.8069 365.613 74.4882 364.522 74.5309C362.22 74.6262 360.078 74.5889 357.786 74.6428C357.324 74.6539 357.142 75.877 356.79 75.9078C355.612 75.9985 351.531 72.8539 351.515 76.8318C349.115 73.3415 347.586 76.3963 345.685 76.3876C341.139 76.371 334.194 75.7476 329.72 76.2661C328.781 76.377 328.354 77.402 327.831 77.4642C326.895 77.5782 321.513 77.0841 321.232 77.2487C320.684 77.565 321.079 82.0475 318.181 78.1779C316.51 77.9229 316.733 79.7618 316.389 79.866C313.722 80.6435 311.065 76.5703 311.604 80.3294C308.476 79.3512 306.425 77.2989 305.204 80.8384C305.196 79.1197 303.715 78.1099 301.956 78.79C303.807 81.6507 303.611 83.4987 307.978 82.9082C308.046 82.8988 307.897 81.658 307.966 81.6485C308.589 81.5557 309.901 82.1644 310.964 82.0818C312.027 81.9991 311.424 81.158 311.85 81.1683C312.24 81.1796 312.244 82.369 312.809 82.3779C314.639 82.3984 316.26 82.7033 317.31 82.7096C317.969 82.7126 318.692 81.6573 319.203 81.6501C321.181 81.6307 325.375 82.388 327.88 82.2392C328.402 82.2054 328.167 81.036 329.308 80.923C329.441 80.9098 329.945 82.1256 330.948 82.3653C331.951 82.6051 332.717 81.9874 333.36 82.1052C333.898 82.2035 333.688 83.2926 334.788 83.3455C335.694 83.3876 346.082 82.466 346.663 82.2857C347.475 82.0252 347.843 80.4948 348.343 80.6743C348.431 80.713 348.598 82.1843 348.903 82.2858C353.969 83.9604 364.795 81.8154 370.598 81.7616C382.575 81.6442 393.465 82.3987 405.512 82.6435C405.727 82.8981 405.942 83.1527 406.156 83.4073C404.951 83.4267 403.743 83.4464 402.531 83.4664C402.529 84.1598 402.527 84.8531 402.525 85.5465C400.887 85.6702 401.089 84.0288 401.127 83.0389C400.523 83.464 399.918 83.8892 399.313 84.3145C398.768 81.9028 394.708 83.5466 392.589 83.5635C391.203 83.5767 389.59 82.6715 388.888 82.75C387.396 82.9128 387.449 84.4034 387.332 84.4283C387.133 84.4641 385.03 83.1705 383.516 83.2372C381.277 83.3333 381.061 85.6249 377.959 83.7145C374.03 84.9455 369.588 84.3988 365.317 84.2556C366.146 86.3619 362.341 84.4046 360.628 84.4591C350.186 84.7943 337.207 85.872 326.612 86.8568C325.245 86.9814 324.227 88.2424 323.463 88.2118C323.048 88.1965 322.847 86.7295 322.275 86.932C322.174 86.9708 322.123 88.3459 321.055 88.5678C318.39 89.1252 311.737 86.9259 310.102 89.5873C301.01 89.3093 291.909 89.0331 282.79 88.7559C282.57 89.3206 282.349 89.8854 282.128 90.4501C280.357 87.6057 273.547 89.3892 270.22 89.301C264.394 89.1424 256.814 88.3553 251.686 88.3273C250.569 88.3213 249.666 89.1476 248.61 89.1452C248.156 89.1429 247.577 88.0951 247.105 88.096C241.834 88.0863 234.588 89.2674 229.215 89.3084C217.126 89.4031 205.463 89.695 193.262 89.7621C151.557 89.9303 110.121 88.7316 68.3265 88.0021C67.7216 87.989 67.7084 89.2028 67.2414 89.1942C64.4509 89.1563 58.6122 87.9048 55.8304 87.8109C53.8187 87.7548 49.3808 89.3504 48.7386 87.4327C53.4817 86.3177 57.3272 85.8561 61.7371 85.6489C63.9203 85.5434 66.1708 85.4954 68.4817 85.4418C70.5319 85.379 72.5982 85.3108 74.7175 85.1758C75.3198 85.1379 75.429 83.9868 75.5036 83.9679C76.892 83.6064 75.9697 85.1704 77.9857 85.2973C78.6335 85.3429 85.1183 81.8133 84.2866 85.459C85.849 84.0352 95.9325 83.4853 98.0692 83.9939C98.6874 84.1507 98.2329 85.2304 98.3553 85.2871C98.8876 85.5345 99.1508 84.0405 99.632 84.0083C100.898 83.9331 104.241 85.1879 104.741 85.1844C106.073 85.1872 110.153 84.008 111.979 84.3093C113.647 84.5847 113.322 86.1465 114.777 86.3009C115.928 86.418 114.677 85.0941 117.261 84.7135C118.519 84.5279 123.121 85.4923 124.151 85.4956C125.193 85.4998 126.359 84.5679 127.811 84.6439C129.894 84.7521 134.504 85.2809 136.697 85.5813C136.827 85.5983 137.144 86.8154 137.467 86.7901C138.134 86.7392 137.934 85.2363 138.438 85.0837C138.946 84.9338 147.723 85.1077 149.082 85.0853C150.076 85.0745 150.769 85.9678 151.322 85.9583C151.756 85.9486 151.798 84.6966 152.241 84.6812C152.379 84.6808 153.551 85.7645 154.725 85.735C155.828 85.7061 160.066 84.6542 160.564 84.6417C160.886 84.636 160.537 85.5273 161.489 85.5016C162.357 85.4757 162.923 84.3177 163.419 84.2982C164.571 84.2547 165.869 85.2327 167.1 85.2303C170.502 85.2231 170.319 83.7925 170.523 83.7449C171.089 83.6121 171.325 84.9212 171.511 84.9471C172.298 85.0519 174.235 85.281 174.942 85.3269C175.822 85.3842 176.186 84.1359 177.123 84.1249C177.822 84.1207 179.244 85.3246 180.848 85.3713C184.444 85.483 188.871 85.6743 192.359 85.5956C193.4 85.5734 193.549 84.435 193.868 84.4024C195.541 84.2307 196.496 85.4927 196.975 85.4714C200.394 85.3246 206.532 83.2661 209.761 83.0613C211.08 82.9796 216.835 83.8359 220 83.6334C220.365 83.612 220.012 82.7247 220.421 82.8594C221.399 83.1823 221.33 84.9984 221.824 84.9376C222.062 84.9027 222.594 83.8729 223.289 83.7628C226.891 83.1911 229.397 83.9556 231.053 83.8799C246.972 83.1523 263.119 82.451 277.889 82.0799C279.538 82.0394 281.601 83.09 284.079 82.006C284.148 81.441 284.216 80.876 284.285 80.311C284.38 80.8639 284.475 81.4168 284.57 81.9697C287.399 82.2293 288.479 82.9271 291.351 82.18C291.599 82.1172 292.319 79.5321 292.834 82.7227C295.655 80.3654 294.122 82.7229 296.244 82.908C298.365 83.0931 300.413 82.3496 302.464 82.1595C303.574 80.9979 298.812 78.4238 298.505 78.4367C298.009 78.4541 297.516 80.0511 297.04 80.1425C295.628 80.4156 294.242 79.1738 293.945 80.5972C292.094 79.1233 294.382 79.8401 294.134 78.4922C292.921 79.0688 291.709 79.6453 290.496 80.2219C289.807 75.6352 283.141 81.7253 283.56 78.2192C283.033 78.9275 282.506 79.6358 281.979 80.3441C279.563 75.9877 278.223 79.0987 275.104 80.4494C275.323 79.8848 275.541 79.3201 275.759 78.7554C275.692 78.5221 272.911 77.6636 273.935 80.0412C271.054 76.9301 271.247 82.1703 268.654 78.4166C267.139 77.9517 268.076 80.1401 265.377 80.1399C263.772 80.1413 261.749 79.0184 259.95 78.963C259.535 78.9539 259.373 80.2308 259.004 80.2359C258.636 80.2405 258.439 78.9934 257.992 78.9681C257.069 78.9132 255.887 79.8067 255.31 79.7301C254.793 79.665 254.041 78.573 252.797 78.4166C248.456 77.8627 249.787 79.4187 249.11 79.9607C248.384 80.5369 247.828 78.4703 246.369 78.7302C246.223 78.7575 246.62 80.0448 246.142 80.0004C245.757 79.9658 245.545 78.5637 244.27 78.3186C243.775 78.2198 235.87 78.0219 234.644 78.0116C232.787 77.9973 228.682 79.2378 226.775 79.2525C226.04 79.2613 225.241 78.1431 224.461 78.16C221.874 78.2168 217.766 78.3608 214.506 78.4526C211.505 78.538 206.303 81.0839 204.658 78.8532C200.494 78.605 199.516 80.5348 199.203 80.5642C198.36 80.6444 197.958 79.3759 196.897 79.3271C183.065 78.7247 164.858 79.6962 151.687 79.6293C121.173 79.4311 90.8689 78.7478 59.5442 77.9027C59.4885 77.3355 59.4331 76.7684 59.3779 76.2012C62.8846 76.0045 67.8214 75.2146 71.1178 75.0975C75.6368 74.9572 83.035 77.4923 86.6167 73.7076C85.3696 73.3442 82.742 74.7623 82.8752 72.7823C85.6369 72.7051 87.9258 72.6104 90.4415 72.5156C90.3505 73.4296 90.2594 74.3436 90.1682 75.2575C92.757 75.5722 95.4689 75.417 98.1762 75.5866C98.6468 75.6149 98.3013 76.4412 98.712 76.4512C99.1721 76.4606 98.8719 75.6105 98.9582 75.605C100.122 75.6126 100.467 76.4727 100.61 76.4622C100.978 76.4332 100.701 75.6152 101.766 75.4003C103.788 74.9992 105.03 77.1764 104.647 73.5668C105.239 73.5735 105.833 73.5799 106.43 73.5862C106.574 74.5691 106.719 75.5521 106.864 76.535C110.586 72.6101 112.273 79.5732 114.405 74.0741C115.089 74.9214 115.776 75.7684 116.466 76.6152C116.865 75.6364 117.264 74.6575 117.663 73.6785C117.735 74.5212 117.806 75.3639 117.878 76.2067C121.696 75.6088 125.633 76.6355 129.085 76.547C131.52 76.4852 132.11 76.1535 134.293 76.2194C139.174 76.3668 134.319 74.6928 138.392 72.8893C138.179 73.922 137.966 74.9546 137.754 75.9873C138.429 76.3658 139.107 76.7442 139.787 77.1224C140.26 76.28 140.733 75.4375 141.207 74.5949C143.313 78.9622 144.708 75.4334 144.971 75.4331C145.194 75.4403 145.953 78.0696 148.348 75.8368C147.36 79.4348 150.181 75.8537 150.41 75.8317C150.625 75.8167 153.4 76.6113 154.536 76.5733C155.427 76.5446 157.331 75.7633 158.671 75.7954C159.854 75.824 159.741 77.0451 159.827 77.0574C161.287 77.1521 160.368 76.2079 161.425 76.1564C162.482 76.1049 163.312 77.1409 163.541 77.0467C163.656 76.9966 163.264 75.8616 163.792 75.7491C165.21 75.4423 167.799 76.4233 169.338 76.3841C169.895 76.3716 170.592 75.4026 171.214 75.369C172.168 75.3209 172.623 76.599 173.179 76.5573C173.373 76.5393 174.593 74.5519 176.138 74.8449C176.432 74.9038 177.325 79.0856 178.431 73.1436C178.526 73.9779 178.621 74.8121 178.716 75.6464C183.935 77.6738 185.353 70.8777 187.744 76.877C191.57 76.1711 188.918 73.8495 189.336 73.4866C189.605 73.2572 190.865 73.8905 190.985 73.8527C191.22 73.7787 191.173 73.0264 191.431 73.0283C196.176 73.124 194.086 74.5642 195.6 75.4503C199.214 77.5586 201.977 72.7731 195.736 74.2625C195.732 73.8426 195.728 73.4227 195.723 73.0028C197.261 73.3897 201.181 73.1598 199.851 71.0434C198.789 69.3769 189.568 70.559 194.774 68.1559C195.957 67.6119 196.588 69.1819 198.625 66.2069C199.992 66.033 200.227 69.8588 202.07 68.3036C201.778 69.642 201.486 70.9805 201.194 72.3189C203.745 74.0339 206.865 71.6657 208.838 72.3924C209.507 72.6401 211.988 78.9798 211.355 72.6211C212.506 73.0055 217.726 71.7734 218.689 72.3324C218.924 72.4675 219.263 75.8531 222.626 74.6297C222.855 74.2022 223.085 73.7746 223.315 73.347C220.209 72.15 225.654 70.8292 224.132 67.6313C223.645 69.0828 221.206 69.9937 220.821 70.7253C220.164 71.9844 222.184 73.5733 219.629 73.1637C217.959 67.8082 222.583 70.2271 221.821 65.1321C225.203 67.4742 225.515 65.1968 226.275 65.093C229.527 64.6685 231.59 65.1836 234.675 64.5486C235.44 65.5874 229.867 67.1713 229.174 66.7273C231.763 70.411 227.387 70.6337 225.521 68.4495C225.38 69.5743 225.239 70.6991 225.099 71.8239C227.487 71.1862 229.827 70.8444 232.225 71.7357C232.375 71.3139 232.525 70.8921 232.675 70.4702C232.132 69.8447 231.589 69.2192 231.046 68.5937C233.017 67.5334 231.867 70.8229 234.478 67.9204C234.576 69.1839 234.674 70.4473 234.772 71.7108C237.305 71.2586 239.86 70.8055 242.349 70.3528C243.687 72.8715 248.517 71.8623 247.587 68.5913C249.54 68.3333 247.148 70.1128 248.993 70.887C249.795 71.2229 251.359 71.2992 251.733 70.4105C251.524 67.2867 249.182 66.9303 248.447 64.7929C248.859 64.0953 259.777 66.1783 258.76 62.5355C259.625 62.084 259.25 63.9729 260.829 64.4333C265.281 65.716 271.967 61.8984 275.577 66.5184C271.467 69.1768 270.203 66.4409 267.03 66.3756C265.022 66.3326 252.566 66.061 255.394 69.3279C254.932 68.9142 254.471 68.5006 254.01 68.0869C253.563 69.077 253.116 70.067 252.67 71.057C253.968 71.181 255.267 71.3048 256.568 71.4286C256.865 70.443 257.161 69.4574 257.458 68.4718C257.611 69.1704 257.763 69.8691 257.916 70.5677C258.465 70.6993 259.015 70.8309 259.564 70.9624C259.398 70.1224 259.233 69.2823 259.068 68.4423C259.909 68.2866 260.751 68.1309 261.594 67.9751C261.382 69.1036 261.17 70.2321 260.959 71.3606C264.938 71.5883 263.594 70.9021 265.754 68.7667C267.386 68.5285 264.654 70.7304 268.121 71.2312C272.156 71.8124 269.464 68.4113 274.694 69.0726C274.777 69.633 274.86 70.1934 274.943 70.7538C276.083 70.176 277.224 69.5982 278.365 69.0204C278.223 69.7207 278.081 70.421 277.939 71.1213C280.306 70.817 283.596 72.1026 284.343 69.3524C281.956 70.7056 281.912 65.923 282.525 65.0349C283.793 63.2127 302.885 64.6165 306.575 64.6823C311.302 64.7669 314.822 63.1847 319.195 65.4772C316.269 67.4491 306.005 66.0135 304.068 67.3771C303.877 67.5109 303.994 71.894 302.683 66.9794C298.698 67.8733 293.901 66.5446 288.904 66.7599C289.075 68.0197 289.246 69.2796 289.417 70.5394C292.451 67.8113 295.375 73.6657 294.905 68.7685C295.517 68.7597 296.128 68.7509 296.739 68.7422C296.751 69.5868 296.763 70.4314 296.775 71.276C297.696 71.2628 298.617 71.2495 299.538 71.2363C299.526 70.3917 299.514 69.5471 299.502 68.7025C300.265 68.6915 301.027 68.6806 301.79 68.6696C301.881 69.5107 301.973 70.3517 302.065 71.1927C304.325 69.4107 312.17 73.9766 308.679 68.9958C309.75 68.9805 310.822 68.9653 311.893 68.95C311.898 69.5677 311.904 70.1853 311.909 70.8029C312.371 70.8794 312.832 70.9558 313.294 71.0323C313.134 70.4754 312.974 69.9186 312.815 69.3617C314.936 70.3333 316.901 67.362 318.322 69.2764C317.41 69.7116 316.496 70.147 315.586 70.5823C317.335 69.7551 320.602 71.3715 320.892 71.3717C321.776 71.3677 322.225 70.1126 323.181 70.0358C324.044 69.9696 323.939 70.9307 324.099 70.8946C328.743 69.8531 326.896 64.684 329.153 70.8024C329.373 69.9595 329.593 69.1166 329.812 68.2736C330.129 68.97 330.447 69.6663 330.764 70.3627C332.135 70.2779 333.506 70.1932 334.875 70.1086C334.432 71.1645 333.989 72.2205 333.547 73.2764C335.607 73.7168 336.535 71.5993 336.733 71.5483C337.294 71.4183 337.568 72.7358 337.742 72.7359C346.103 72.5096 341.017 71.4144 345.157 66.3964C346.686 68.3239 345.191 70.2962 345.004 72.2801C346.99 71.3244 347.62 71.8648 349.723 71.7277C350.27 71.6907 350.845 70.6143 351.19 70.5954C351.489 70.5789 352.437 71.7027 353.154 71.6982C354.348 71.6914 355.927 70.9943 357.557 70.9907C358.914 70.9906 363.064 71.7417 365.935 71.716C367.181 71.7011 366.884 70.7545 367.206 70.7487C367.34 70.7471 368.329 71.8735 369.131 71.8686C375.669 71.8174 382.299 71.0244 388.729 70.9814C393.285 70.9486 398.079 71.8193 402.65 71.688C403.627 71.6587 403.103 70.8275 403.529 70.7944C403.675 70.7858 403.864 72.242 405.365 71.6436C405.906 71.4279 405.273 70.4134 405.807 70.3583C406.066 70.3321 406.189 71.6091 407.706 71.8888C410.462 72.3998 411.915 70.6861 412.16 70.735C412.62 70.8298 412.494 71.8884 413.103 71.9222C416.107 72.0871 418.738 72.2498 421.447 72.323C422.74 72.3561 431.407 72.5288 431.858 72.3385C432.91 71.9118 431.922 69.7069 433.272 69.7771C433.651 70.3348 434.031 70.8925 434.409 71.4503C433.812 71.8771 433.214 72.3041 432.615 72.7311C434.274 72.0147 436.108 73.0133 437.366 72.9718C437.603 72.9623 439.762 71.955 440.857 72.0623C440.391 71.6482 439.923 71.2343 439.454 70.8204C439.619 70.466 439.783 70.1116 439.948 69.7572C442.147 70.2888 444.453 70.2714 446.669 70.1935C447.468 70.1671 447.197 69.3072 448.004 69.2772C452.686 69.0951 451.505 72.6705 455.951 65.9635C454.47 66.5686 448.951 65.7127 448.131 65.9374C447.568 66.0939 445.377 71.7675 446.177 65.946C441.628 65.9769 445.594 69.1816 441.321 68.4872C441.405 67.7766 441.489 67.066 441.574 66.3554C440.077 65.9105 438.964 65.5543 438.051 66.8104C437.651 63.3645 432.823 65.3957 430.081 65.1755C426.152 64.8622 421.648 64.0457 417.654 63.9231C416.279 63.8817 415.505 65.2377 415.332 65.2346C415.083 65.2265 414.347 64.0485 413.863 64.0434C412.053 64.0215 406.497 66.0635 405.069 62.791C415.82 62.7037 427.277 62.6349 438.029 62.6064C436.644 64.222 447.946 64.3589 448.469 64.282C448.991 64.2097 448.552 63.0764 448.707 63.0076C449.861 62.5211 450.841 64.1647 451.204 64.1648C451.482 64.1646 452.043 63.3937 453.025 63.4114C453.205 63.4139 453.255 64.2294 453.448 64.232C454.728 64.2331 455.984 64.2233 457.254 64.23C457.331 64.2222 457.654 63.0317 457.974 63.0303C458.294 63.0309 458.61 64.2217 458.701 64.2257C459.779 64.2196 461.615 63.4508 462.626 63.4459C462.977 63.4475 462.731 64.3189 463.124 64.3119C464.329 64.2953 463.94 62.5861 465.422 63.032C465.917 63.1822 465.881 64.4878 466.828 64.32C467.498 64.2007 467.437 61.8734 467.544 61.7894C467.693 61.6878 469.982 63.5376 470.735 62.0194C469.126 57.9887 472.52 61.8205 472.341 63.5163C473.242 63.095 474.14 62.6742 475.034 62.2537C475.334 62.6857 475.634 63.1177 475.933 63.5497C479.41 61.6417 481.935 62.8284 485.56 62.2749C485.742 62.247 488.813 61.3307 488.675 60.7248C486.869 59.6609 485.022 59.5916 483.809 61.5004C481.889 57.8145 481.809 60.7334 478.624 60.2179C477.623 60.0442 477.558 59.0495 477.443 59.0358C473.551 58.5063 467.089 58.0424 464.301 60.94C463.531 60.1505 466.311 59.8502 465.233 59.2666C464.576 58.9397 450.61 57.9851 455.058 61.3408C454.604 61.2474 454.148 61.1541 453.692 61.0609C453.24 57.8984 450.956 58.6204 451.213 61.7698C450.997 61.1253 450.78 60.4807 450.563 59.8361C450.135 59.2908 449.627 58.9987 448.911 58.8255C446.177 58.1588 429.72 59.3025 428.937 58.8598C428.914 58.1128 428.891 57.3659 428.869 56.6189C435.898 55.7424 443.182 57.579 450.979 55.4418C450.752 56.1424 450.525 56.8431 450.298 57.5437C453.44 56.5626 456.428 55.5848 459.613 54.6115C456.264 53.3341 451.148 52.2644 447.623 53.3111C447.002 53.4977 447.458 54.4745 447.315 54.593C446.942 54.9006 446.541 53.2055 445.193 53.0422C443.848 52.8787 440.433 54.087 440.116 54.0542C439.512 53.9857 437.865 52.0502 436.827 52.0779C435.527 52.1156 436.402 53.3135 436.141 53.3397C435.062 53.4609 434.088 52.8694 433.237 52.9612C431.976 53.0976 429.345 55.2198 428.437 52.1239C429.349 51.9782 430.257 51.8327 431.164 51.6874C426.236 50.5958 422.357 54.5793 417.366 51.5545C416.211 47.808 420.327 48.2893 416.839 46.7093C417.472 46.7589 418.103 46.8086 418.734 46.8585C418.886 47.6437 419.039 48.4289 419.191 49.2141C420.272 48.646 421.35 48.0782 422.425 47.5107C422.121 48.2131 421.817 48.9155 421.513 49.6179C425.347 50.1242 429.157 50.8258 430.453 47.0542C430.534 47.9645 430.615 48.8748 430.696 49.7851C434.161 48.6628 439.435 52.5087 438.456 47.4446C438.627 47.7127 438.799 47.9808 438.97 48.2489C441.145 47.2081 440.219 49.3057 441.036 49.5406C441.274 49.6063 445.465 48.518 443.605 47.0166C447.684 45.8617 446.424 50.5995 447.543 50.8063C450.142 48.458 454.727 51.9812 452.799 48.2725C453.18 48.1336 453.56 47.9948 453.939 47.856C455.183 50.7739 456.409 47.4757 457.749 46.375C458.201 46.31 458.653 46.2451 459.143 46.1803C459.462 47.1625 459.781 48.1448 460.099 49.127C464.608 44.4695 463.131 57.2401 465.208 46.5153C464.895 45.8719 464.581 45.2285 464.266 44.5852C463.516 44.2771 462.762 43.9693 462.006 43.6616C465.061 43.3883 468.075 43.119 471.044 42.854C474.878 39.8701 476.737 43.1476 481.142 40.8103C481.547 41.0999 481.952 41.3897 482.355 41.6795C481.965 39.2449 480.385 39.5854 483.333 38.5257C483.603 36.81 481.622 36.5665 480.695 37.8761C480.473 38.1957 482.328 39.5302 480.228 39.5562C478.839 39.5767 481.269 37.5326 477.246 38.2625C477.398 37.8439 477.55 37.4252 477.702 37.0066C477.268 37.0151 476.832 37.0237 476.396 37.0324C476 38.0009 475.604 38.9695 475.207 39.9382C474.216 38.5274 473.671 36.5562 471.35 36.96C471.975 37.5725 471.112 39.5181 469.96 39.4785C469.964 38.7754 469.968 38.0723 469.972 37.3692C467.176 36.9015 468.134 38.9695 465.794 37.3481C465.557 37.9061 465.319 38.4642 465.08 39.0222C463.817 36.7122 459.028 35.1309 459.892 38.5872C458.481 35.2269 455.893 36.7366 454.864 39.4198C454.788 38.7215 454.712 38.0232 454.636 37.3249C454.102 37.1826 453.567 37.0405 453.031 36.8985C452.732 37.3206 452.432 37.7428 452.132 38.165C451.751 37.7424 451.37 37.3199 450.988 36.8975C450.757 37.5981 450.526 38.2987 450.295 38.9994C449.68 38.1595 449.063 37.3198 448.444 36.4802C448.066 37.0394 447.688 37.5986 447.309 38.1579C447.273 36.6961 443.498 36.3745 442.432 37.3362C442.114 36.9119 441.797 36.4877 441.478 36.0635C441.325 36.7596 441.171 37.4557 441.017 38.1518C440.78 37.5957 440.542 37.0395 440.304 36.4834C439.759 37.0413 439.214 37.5992 438.668 38.1572C436.412 34.752 436.384 37.7453 435.89 37.7256C434.99 37.689 431.885 35.5641 431.363 35.6763C430.844 35.789 430.598 37.0144 430.179 37.1313C423.242 39.0856 426.072 35.7883 424.672 35.2748C423.913 34.9955 423.381 36.1405 422.708 36.0176C421.566 35.8118 415.707 34.3367 415.362 34.4876C414.871 34.7043 416.067 40.0823 414.456 38.7051C414.345 35.8136 411.091 38.7554 412.6 34.7116C411.242 35.0751 409.879 35.4391 408.513 35.8035C408.642 32.3743 406.97 34.5918 405.119 34.4166C402.504 34.1704 396.526 31.9693 396.772 35.4842C396.13 34.682 395.486 33.8798 394.842 33.0776C390.442 34.2256 386.301 33.1071 382.032 33.11C369.303 33.1135 355.607 34.0463 342.917 34.9081C342.307 34.9505 342.41 36.098 341.97 36.1292C339.655 36.2867 333.73 35.5541 330.514 35.8522C329.487 35.9467 329.001 37.0741 328.676 37.1301C327.57 37.3272 327.811 35.8472 327.301 35.8966C326.498 35.9754 322.254 37.4052 320.785 37.5696C320.058 37.651 319.18 36.4901 318.333 36.8643C318.26 36.8948 318.412 38.1019 318.351 38.1239C316.798 38.2938 317.719 37.2356 317.193 37.2979C313.447 37.744 309.475 37.8246 305.423 38.132C304.418 38.2098 302.89 39.0841 302.027 39.1768C301.698 39.2099 302.276 38.2841 301.138 38.3765C300.748 38.4081 300.632 39.6029 300.193 39.6865C298.3 40.0392 297.609 36.2151 296.022 39.3216C292.872 39.164 287.375 38.2585 284.499 38.2786C283.819 38.2848 283.498 38.994 282.85 38.9907C282.391 38.9889 281.566 37.909 280.849 37.906C280.132 37.9036 279.015 38.9591 277.636 38.9407C276.185 38.9233 274.373 38.3316 274.047 38.3399C273.652 38.3455 273.487 39.6609 273.092 39.65C271.898 39.6247 268.688 38.3796 267.153 38.2616C265.501 38.137 264.527 38.7872 263.956 38.7825C263.43 38.7723 262.802 37.6731 262.562 37.6667C262.188 37.655 262.118 38.9508 261.643 38.9466C260.869 38.9363 260.059 38.1333 258.898 38.1277C238.059 38.014 217.756 38.987 197.428 40.1293C195.189 40.2567 193.915 39.3612 190.646 39.8051C189.305 39.9862 189.875 41.3172 188.811 41.0739C188.335 40.964 188.446 39.9122 187.846 39.8666C185.191 39.67 182.136 40.6712 181.001 40.6631C180.55 40.6616 180.026 39.4722 179.105 39.4619C172.264 39.3788 164.23 39.7637 156.757 39.5859C152.8 39.4921 147.131 38.8998 142.56 38.8234C130.042 38.6136 116.691 38.838 105.729 38.5973C88.5089 38.2234 71.9559 36.8022 55.654 37.2149C63.0239 34.7508 73.8143 35.3809 82.5749 35.2729C107.897 34.9794 135.022 36.6713 161.192 36.4903C170.514 36.4254 181.705 36.4104 191.881 35.6483C192.328 35.6146 193.264 36.5238 194.234 36.4174C194.439 36.3928 196.983 34.6941 197.849 34.6686C197.057 37.6525 200.424 34.9667 201.479 35.0276C202.808 35.1076 205.598 36.5661 208.725 35.6909C211.564 34.8989 210.768 33.7627 210.924 33.6891C211.927 33.214 212.301 35.0548 213.077 35.2325C216.205 35.9438 232.197 34.6783 236.765 34.5495C237.935 34.5176 237.953 33.3445 238.217 33.3369C238.922 33.32 239.911 34.4654 241.014 34.4431C243.001 34.4001 245.282 33.263 246.38 33.244C249.005 33.1964 254.02 34.4342 257.456 34.4121C258.422 34.4064 258.346 33.187 258.783 33.1851C260.71 33.18 265.751 34.5478 268.118 34.5271C271.98 34.4938 275.948 33.6484 279.892 33.9936C280.134 33.4457 280.376 32.8978 280.617 32.3499C281.019 32.9154 281.421 33.481 281.823 34.0466C288.481 33.5159 295.28 34.6441 301.901 34.4688C302.664 34.4493 306.425 33.3535 307.054 33.3402C307.578 33.3327 308.112 34.6738 308.886 34.4641C309.969 34.1729 308.909 31.6196 310.695 32.3287C311.176 32.5206 310.728 33.6264 311.692 33.9553C312.007 34.0649 318.173 34.4229 318.509 34.3422C319.06 34.2062 319.521 31.8443 319.663 31.7916C320.401 31.5153 320.395 33.3231 320.895 33.4809C322.37 33.9537 324.27 32.7112 324.509 32.7345C327.397 33.0281 332.794 34.3966 335.793 33.5021C336.207 33.3774 336.139 32.0323 336.212 31.9876C336.68 31.7024 336.994 33.2307 337.442 33.2601C339.842 33.4009 343.66 32.3182 346.105 32.0241C346.387 31.9919 346.992 32.7212 347.495 32.6432C350.333 32.192 349.395 31.0212 349.556 30.9684C349.937 30.8379 350.627 32.1337 351.646 32.2013C354.272 32.3831 359.278 32.133 362.064 31.9978C364.151 31.8921 364.1 30.3987 364.237 30.3674C364.533 30.3102 365.34 31.4934 366.753 31.6119C369.45 31.8462 369.127 30.6764 370.233 30.7141C370.326 30.713 370.178 31.8635 371.404 31.9677C373.774 32.1681 379.048 30.9802 381.551 31.013C382.514 31.0239 382.751 32.1291 383.736 32.1399C385.298 32.1613 388.793 30.928 389.067 30.9284C389.144 30.9277 389.331 32.2003 389.785 32.1958C390.278 32.1908 390.794 31.5298 391.174 31.5304C393.362 31.5266 397.122 33.7162 396.041 29.1774C396.747 30.294 397.452 31.4107 398.156 32.5274C402.688 32.263 407.056 32.6775 411.462 32.874C412.455 32.9174 413.263 32.0503 414.112 32.0863C414.983 32.1224 418.797 33.5231 419.426 33.5463C420.566 33.5851 426.935 33.7015 427.71 33.5973C429.245 33.3957 430.718 31.5099 431.34 31.8752C431.838 32.1691 431.383 33.2301 432.332 33.5266C433.983 34.0392 436.71 32.6702 437.252 32.69C437.474 32.698 437.063 33.5244 439.142 33.5785C440.26 33.6096 440.856 32.6988 441.26 32.7022C441.385 32.7069 441.204 34.1818 443.399 33.9802C444.912 33.8384 445.552 32.7 445.71 32.6955C445.947 32.6878 446.521 33.9015 447.47 33.8586C449.691 33.7509 453.702 32.3604 455.758 32.2582C456.156 32.2377 456.021 33.7043 457.603 33.5723C458.733 33.4774 458.537 32.31 458.985 32.2643C459.698 32.1942 460.755 33.6259 462.312 33.5848C464.36 33.5237 478.491 32.1305 479.134 31.7603C479.654 31.5072 480.253 31.4966 480.514 30.865C480.301 30.255 480.087 29.6451 479.873 29.0352C477.625 31.1479 478.579 28.7187 478 28.5569C477.191 28.3254 474.091 28.6126 473.335 28.0668C473.066 27.8696 473.694 26.576 472.248 25.8989C470.692 25.1752 469.978 27.4814 469.37 24.3216C467.118 27.8135 464.964 24.085 467.578 23.1037C469.088 22.5491 483.031 21.4036 486.172 21.2576C488.573 21.1292 492.96 22.1293 495.775 21.9363C497.332 21.8168 501.766 21.7384 501.606 20.0578C503.185 19.8782 501.485 21.5149 501.811 21.7541C502.507 22.2517 507.369 21.2047 508.252 21.2742C512.626 21.5992 518.139 23.6374 522.776 21.6906C522.586 21.2341 522.395 20.7776 522.204 20.3212C521.251 19.4589 516.447 20.4806 515.955 18.3114C523.248 18.5372 528.993 18.7541 536.456 19.1526C536.304 20.9671 544.772 21.4626 545.138 20.6762C545.058 19.7796 544.977 18.883 544.895 17.9865C539.994 21.034 540.665 16.6189 537.231 18.7918C535.873 18.7505 536.36 17.3071 535.699 16.9924C529.071 13.8826 535.228 19.9783 530.468 18.4364C531.961 16.3725 528.203 15.4213 526.439 15.0816C526.065 15.0034 520.686 15.3433 520.012 15.2904C516.094 14.9652 510.643 13.648 507.046 14.7326C504.3 14.8085 502.794 13.2599 500.229 12.8593C498.285 12.5565 498.78 13.6324 497.94 13.6303C496.166 13.6287 495.625 10.3738 494.401 14.882C493.19 14.2988 491.969 13.7165 490.737 13.1353C490.727 13.8383 490.717 14.5413 490.707 15.2444C489.929 15.2335 489.147 15.2229 488.361 15.2128C488.139 14.5092 487.917 13.8057 487.693 13.1021C485.174 14.0307 486.199 15.7368 485.706 17.7217C485.161 17.852 484.614 17.9825 484.066 18.1132C483.659 16.5804 483.251 15.0476 482.84 13.515C480.344 13.6133 477.961 13.7167 475.653 13.8235C475.496 14.5229 475.34 15.2224 475.184 15.9219C475.184 15.2213 475.184 14.5206 475.185 13.8199C471.228 13.6461 467.19 13.4803 463.078 13.3218C461.998 12.1929 468.556 11.3681 469.03 11.3048C471.787 10.945 478.855 12.1276 478.869 9.63129C480.572 11.5089 485.878 11.1024 487.492 8.88797C485.045 8.99172 482.564 9.0991 480.05 9.20991C480.139 8.37332 480.228 7.53675 480.317 6.70017C477.221 10.0493 476.91 9.86098 473.869 6.64729C473.859 7.77026 473.848 8.89322 473.837 10.0162C471.747 6.09571 467.9 12.6993 467.812 7.87813C466.658 8.263 465.499 8.64848 464.334 9.03456C461.858 8.43951 465.617 4.73707 455.962 6.17037C455.309 6.27087 455.444 7.4991 454.461 7.41346C454.176 7.38793 452.56 5.5988 449.413 5.78507C448.922 5.81486 448.885 6.88031 448.374 7.01576C447.196 7.33724 444.827 5.23249 445.905 8.66532C441.194 9.67248 443.139 6.85228 441.669 5.73445C440.685 4.99298 440.887 7.0243 440.034 6.56545C438.994 5.99675 439.691 3.94564 435.561 4.90033C436.02 5.03804 436.459 5.17587 436.936 5.31365C436.692 5.87098 436.474 6.42825 436.245 6.98557C433.928 5.65717 434.151 7.60821 433.045 4.48408C431.358 5.88522 429.891 6.00209 427.554 5.75924C422.999 5.28696 425.326 1.90336 420.113 6.47229C419.258 5.84012 418.401 5.20814 417.543 4.57633C416.145 5.92514 417.295 7.59407 415.194 7.94596C416.813 4.62522 412.398 5.86162 411.688 2.91645C411.617 3.62008 411.546 4.3237 411.475 5.02734C411.021 5.0306 410.566 5.0339 410.111 5.03725C410.105 4.47333 410.099 3.90941 410.094 3.34549C409.491 3.77229 408.886 4.19918 408.282 4.62615C407.82 4.07058 407.358 3.51505 406.895 2.95958C406.151 4.14458 405.406 5.3297 404.66 6.51494C404.186 6.59934 403.712 6.68378 403.237 6.76827C403.38 5.92724 403.524 5.08621 403.667 4.24519C403.059 4.53095 402.45 4.81678 401.84 5.10269C402.54 3.71874 402.081 2.10656 400.171 2.16527C398.592 2.21298 400.4 5.07313 396.988 3.90726C396.749 3.82423 396.315 1.77631 393.08 1.48971C389.193 1.14674 391.093 2.61456 390.401 2.67267C390.256 2.68253 389.087 1.66156 388.005 1.5244C387.39 1.4463 386.805 2.2857 386.724 2.28435C386.344 2.25016 386.222 1.07224 385.695 1.03502C384.357 0.947223 382.564 1.5437 381.247 1.49888C380.649 1.47988 380.078 0.787384 379.811 0.781809C379.396 0.778199 378.881 1.85079 378.461 1.85113C376.912 1.84561 374.511 -1.66787 373.843 3.25734C372.296 -1.2473 369.212 4.25557 369.407 1.22067C365.323 2.41156 354.824 -1.17891 355.165 3.91303C352.859 -0.414933 353.099 2.73746 352.155 2.68404C351.097 2.62569 351.634 1.77369 350.794 1.82251C348.834 1.93651 346.961 2.32389 345.003 2.36653C345.319 3.06065 345.636 3.75478 345.952 4.44891C343.9 4.6999 344.587 3.06582 342.483 2.78068C338.608 2.26151 340.261 3.53615 339.716 5.37383C339.845 3.60492 335.346 3.94025 334.889 4.17909C334.617 4.32452 335.849 6.5853 333.077 5.88844C333.218 5.18578 333.36 4.48312 333.501 3.78047C332.257 4.75578 328.817 3.58697 328.239 3.83073C327.973 3.94431 326.624 9.61407 325.254 5.16126C325.106 5.86405 324.958 6.56684 324.81 7.26963C323.345 6.44768 321.88 5.62583 320.414 4.80407C320.2 6.06937 319.985 7.33468 319.771 8.59998C319.309 8.60648 318.848 8.61297 318.386 8.61947C318.676 7.4947 318.967 6.36993 319.258 5.24515C316.411 5.79234 312.911 4.07485 312.383 7.86208C311.766 7.17012 311.148 6.47817 310.53 5.78624C310.153 7.04903 309.775 8.31182 309.397 9.57462C306.578 9.29769 306.519 8.45796 304.574 7.14579C304.664 8.12603 304.753 9.10627 304.842 10.0865C303.403 8.72896 300.791 7.4832 298.739 7.33936C297.763 7.27341 296.109 8.64971 295.877 8.53045C295.643 8.40459 293.281 3.12456 293.1 7.72804C289.707 5.73912 288.255 7.84108 286.887 7.80998C285.999 7.78857 285.579 6.69036 284.575 6.59063C283.138 6.4464 281.702 7.00083 280.874 6.93664C280.4 6.89692 280.296 5.82142 279.97 5.79227C278.425 5.65003 279.344 6.73739 277.718 6.68876C277.568 6.67845 276.361 5.38197 275.026 5.56981C274.279 5.67381 272.366 7.17869 272.196 7.1775C271.439 7.16286 272.001 4.20082 269.465 7.6483C269.532 7.08579 269.599 6.52329 269.666 5.96077C266.449 4.58151 265.982 7.09185 265.339 7.27423C265.257 7.28963 264.466 6.33282 264.003 6.47257C263.217 6.71155 262.914 8.04085 262.74 8.10167C262.125 8.31319 260.037 7.75932 258.697 9.0588C258.929 5.28469 254.158 4.00926 253.166 8.29247C252.315 7.46176 251.465 6.63098 250.615 5.80017C250.245 6.50835 249.875 7.21652 249.506 7.92468C249.266 7.22719 249.026 6.5297 248.786 5.83221C247.586 7.39144 246.387 8.95057 245.189 10.5096C245.091 8.96538 244.993 7.42119 244.895 5.877C244.557 6.0573 244.218 6.23758 243.88 6.41786C243.63 7.64927 243.38 8.88067 243.131 10.1121C242.702 9.88335 242.273 9.65462 241.845 9.42587C241.728 8.53869 241.611 7.65151 241.494 6.76432C239.186 5.77005 240.513 14.2294 235.993 6.83587C235.315 7.5453 234.638 8.2547 233.962 8.96404C233.144 5.5641 231.722 7.64719 230.55 7.27858C229.724 7.01841 229.752 5.66334 228.633 5.64717C227.513 5.63148 227.57 6.92635 227.483 6.93589C226.572 7.02684 225.872 5.89307 225.207 6.12883C225.107 6.16386 224.874 7.70529 224.026 7.8132C223.177 7.92069 222.646 6.29078 221.387 6.61442C220.742 6.77855 220.571 8.07688 219.999 8.19836C217.262 8.78879 214.509 2.25613 212.483 10.065C212.001 9.08404 208.564 5.66919 207.12 5.88321C204.872 6.22446 205.756 7.74222 204.865 8.03136C204.738 8.07496 204.046 7.56649 202.169 7.67866C201.833 7.69891 201.902 6.83589 201.854 6.82495C199.663 6.86459 195.443 7.58695 193.073 7.7316C192.86 7.74625 191.73 5.35333 189.88 8.60319C186.982 6.24137 181.654 11.4172 177.917 7.84491C177.401 7.77267 176.783 8.63695 176.556 8.60931C174.599 8.35686 175.286 5.74265 170.923 9.59272C171.269 8.25931 170.235 7.06439 168.794 7.17443C166.625 7.33962 168.199 9.81264 166.428 9.62001C166.424 8.91935 166.42 8.2187 166.416 7.51805C162.267 9.42575 161.429 6.43427 157.322 6.43491C155.847 6.43688 153.691 7.9971 153.343 8.0024C153.208 7.99839 151.609 6.31413 151.458 6.30182C150.604 6.25359 150.125 7.03378 149.39 7.03987C146.961 7.06271 144.107 4.8691 144.624 8.8584C143.927 8.01716 143.232 7.17574 142.539 6.33417C139.927 10.5977 138 4.72453 137.46 8.86278C136.999 8.00818 136.54 7.15352 136.082 6.29876C125.339 6.72462 114.04 7.10184 103.561 7.40668C103.114 6.0711 98.28 6.47842 98.048 6.68067C96.9167 7.60217 98.0461 10.524 95.7872 9.82471C95.5573 8.54891 95.3286 7.2731 95.1009 5.99722C92.2957 5.53564 93.6285 6.82383 92.5102 7.66665C92.0547 7.50153 92.22 6.51733 91.6039 6.43409C88.4576 5.98701 81.0787 5.7725 77.5072 5.58231C76.7752 5.54396 76.8594 6.46942 76.6326 6.46502C76.0098 6.43797 74.8273 5.2384 73.6188 5.19786C65.7188 4.9596 54.6243 5.08674 48.1201 5.50497C47.679 5.53618 47.5923 6.63321 47.2254 6.657C46.7341 6.68716 45.7951 5.70906 45.3393 5.75837C44.9046 5.80178 44.5557 6.60744 44.1134 6.66066C42.0278 6.9078 40.2613 5.2681 38.5263 7.4781C38.313 7.65716 36.7818 11.8762 36.7975 12.1728C36.4434 13.861 35.9811 16.5313 35.259 18.9601C34.8276 19.9898 35.0167 21.592 34.5241 23.006C34.313 23.7212 34.0122 24.4071 33.7533 25.0309C33.465 25.6585 33.2137 26.1584 34.1881 27.0172C33.5575 26.9123 33.2516 26.9578 33.1584 27.0581C33.058 27.1588 33.2314 27.33 33.3469 27.4806C33.6293 27.7955 34.185 28.1571 34.9391 28.5316C34.8653 28.9871 34.7915 29.4426 34.7177 29.8981C33.7896 30.9023 33.0168 31.5299 32.4338 31.9162C32.2882 32.0129 32.1616 32.0961 32.0412 32.1652C31.8775 32.2239 31.7552 32.2752 31.6948 32.3293C31.5805 32.4437 31.6811 32.5381 32.3833 32.8786C32.1298 33.2362 31.8938 33.6023 31.6738 33.9752C30.288 34.6241 31.2766 35.6168 31.7841 36.4424C32.4426 37.3257 33.4287 38.3349 34.2147 39.9257C32.5822 40.7689 31.1742 41.605 30.025 42.453C28.8134 43.3134 27.3554 43.9183 27.5145 45.1457C27.3107 45.4211 27.1367 45.7125 26.9885 46.0154C26.7199 46.3779 27.0536 46.9033 28.0238 47.4961C28.8781 48.0595 29.5249 48.5236 30.0189 49.0343C31.8715 50.9488 30.8356 51.361 29.4375 51.5374C28.7572 51.6264 28.0654 51.659 27.6065 51.8006C27.4033 51.878 27.1254 51.952 26.9865 52.0887C26.8469 52.2252 26.8174 52.4197 26.9624 52.6996C28.8679 53.1322 31.4796 53.5425 34.2382 53.8716C36.4941 54.1359 39.057 54.3803 41.897 54.6027C41.4456 56.1563 22.0742 57.5908 20.0984 60.1235C20.8414 60.6507 21.681 61.1188 22.6342 61.5633C23.5079 61.9903 24.9324 62.4836 25.4623 62.7428C24.7125 63.6757 23.1993 64.4168 21.9253 65.1521C22.109 65.5607 22.3052 65.9689 22.5129 66.3766C25.9022 68.119 28.3212 69.3265 31.7934 70.6507C26.2959 69.4336 24.4011 69.0828 19.7133 68.7986C18.74 68.7659 17.8001 68.7795 16.8235 68.8182C15.7262 68.7679 15.2863 69.2427 12.9075 68.4449C9.1192 67.5979 2.55039 62.7459 0.685272 54.953C0.40281 58.2359 1.04464 61.6969 2.16569 64.4401C5.68842 69.6367 13.9646 73.2066 14.9292 72.7938C17.3885 73.2885 19.9968 73.7973 22.3121 74.2821C24.0082 74.6258 25.8217 75.1194 27.6543 75.6437C28.569 75.9058 29.4845 76.1753 30.3714 76.4365C31.228 76.693 31.7225 76.8992 32.3323 77.1085C31.5589 78.5973 26.1473 76.5968 25.0629 77.3006C24.7114 77.507 25.5736 78.7568 24.7704 79.1681C24.2434 79.4339 23.3365 79.6521 22.282 79.8357C21.7508 79.9267 21.2017 80.0135 20.6007 80.0841C19.7298 80.0903 18.8397 80.0778 17.9594 80.0475C14.5454 80.0206 10.6081 79.1297 11.4205 80.4677C11.6886 80.9007 13.4964 82.0409 15.7352 83.0519C16.8619 83.565 18.1134 84.0653 19.4441 84.532C20.3811 84.9038 21.2209 85.2273 22.1626 85.5472C25.8076 86.8131 30.2669 87.7319 30.9999 87.7625C30.321 87.9319 29.7244 88.0865 28.9798 88.2009C28.1128 88.2984 27.2552 88.3741 26.4038 88.433C24.7002 88.5506 23.0252 88.6029 21.3274 88.6182C20.478 88.6256 19.6221 88.6233 18.7475 88.6117C17.5736 88.5302 16.0951 88.3531 14.6506 88.1365C13.1786 87.9113 11.6077 87.621 9.80852 87.148C8.90817 86.9101 7.94928 86.6245 6.90759 86.2574C6.64713 86.1655 6.38151 86.0685 6.11026 85.9654C5.97466 85.914 5.83765 85.8609 5.69915 85.8063C5.6183 85.7726 5.59893 85.7726 5.45552 85.704C5.31904 85.6392 5.18122 85.5726 5.0419 85.5042C3.92777 84.9563 2.72083 84.2955 1.40279 83.4411C15.2953 95.6868 16.8112 97.8392 25.1348 99.9366C26.2393 100.997 22.4289 101.586 17.9816 101.643C14.4769 102.235 2.04138 98.7563 1.05028 98.4282C5.14424 101.028 8.2157 102.569 11.0097 103.94C12.3486 104.603 13.8859 105.261 14.8217 105.749C15.6192 106.207 16.4018 106.648 17.1767 107.077C15.0994 106.336 10.0267 105.058 3.87187 102.245C3.71918 102.563 3.56621 102.88 3.41284 103.197C7.53171 105.316 10.5872 106.663 13.464 107.902C15.6417 108.951 17.0749 109.771 18.8574 110.578C22.2083 112.15 26.2077 113.403 28.9212 113.621C28.4828 115.444 24.9551 114.831 22.1613 114.403ZM509.223 10.5213C509.366 8.98198 507.478 9.18849 506.401 9.19385C506.568 8.91686 506.736 8.63989 506.904 8.36295C504.624 8.6 500.246 9.10544 500.131 6.11086C498.447 5.70733 499.146 8.32355 498.594 8.60964C498.392 8.72422 496.405 7.17391 494.733 8.99075C494.344 8.9772 493.954 8.96376 493.563 8.95042C493.503 7.96795 493.442 6.98549 493.381 6.00303C492.817 7.18591 492.251 8.36901 491.684 9.55231C497.239 9.84216 503.404 10.1661 509.215 10.521C509.217 10.5211 509.22 10.5212 509.223 10.5213ZM451.465 8.64898C449.398 9.20163 446.193 10.0784 446.838 7.39015C448.161 7.53077 449.477 7.672 450.787 7.81386C451.013 8.09222 451.239 8.37059 451.465 8.64898ZM245.462 13.0183C243.784 15.6871 242.177 13.4193 239.543 13.9314C239.54 13.3723 239.536 12.8132 239.532 12.2542C240.628 13.5825 243.474 12.6518 245.462 13.0183ZM565.241 24.3255C565.776 24.1984 566.313 24.0742 566.851 23.9534C565.269 20.6514 564.557 22.6848 562.233 22.0727C562.092 22.0354 562.232 21.3601 562.182 21.3493C561.601 21.2253 560.952 21.9772 560.421 21.8987C559.42 21.7495 558.527 20.7993 557.166 20.6813C556.034 20.5856 555.884 21.8982 555.49 21.8234C555.174 21.7547 552.078 17.8065 549.601 19.181C545.156 21.7547 562.844 24.0356 565.241 24.3255ZM595.169 32.8923C592.196 30.6552 589.689 29.2505 587.506 28.1498C590.503 30.8763 588.265 30.0485 584.843 28.6853C584 28.3586 583.101 28.0157 582.195 27.6865C581.548 27.4568 581.126 27.3096 580.587 27.1194C579.554 26.7554 578.535 26.4051 577.633 26.1288C577.515 27.1239 578.913 27.7437 582.111 29.0858C586.593 31.0154 596.19 35.0527 603.255 46.3607C600.714 40.4059 597.708 36.2076 595.169 32.8923ZM525.362 22.8374C526.829 23.0945 526.68 20.6602 526.649 19.9354C526.18 19.9162 525.709 19.8972 525.236 19.8786C525.278 20.8649 525.32 21.8512 525.362 22.8374ZM536.674 24.211C536.319 22.5381 532.773 21.6311 531.245 21.427C531.181 21.4239 531.541 22.346 530.51 22.2141C530.213 22.1724 527.237 18.7483 527.763 22.5108C530.502 23.0496 533.571 23.6169 536.67 24.2108C536.671 24.2108 536.673 24.2109 536.674 24.211ZM540.114 23.4349C539.523 22.8803 538.926 22.3264 538.321 21.7731C537.948 22.5268 537.576 23.2808 537.203 24.035C537.917 24.2706 538.624 24.5071 539.324 24.7446C539.587 24.3079 539.85 23.8713 540.114 23.4349ZM96.9394 26.6534C97.087 25.8279 97.2347 25.0025 97.3822 24.177C97.9071 23.6781 100.431 27.3175 99.6063 28.0034C98.7103 27.5539 97.8213 27.1039 96.9394 26.6534ZM86.4901 28.198C85.9344 28.6036 85.3738 29.0087 84.8195 29.4136C84.2242 27.996 83.6349 26.578 83.0516 25.1597C85.8213 24.2801 88.538 23.2434 88.0078 27.3729C88.5813 27.3848 89.158 27.3963 89.7378 27.4076C89.2845 25.6867 89.357 25.1247 90.8998 24.0675C91.1886 26.455 92.7901 25.2715 94.6297 25.8255C93.2832 25.9424 91.9521 26.058 90.6368 26.1722C90.6288 26.5921 90.6209 27.0119 90.6129 27.4317C93.5592 27.3344 89.8343 29.9312 87.9982 28.2225C87.8388 28.7784 87.6794 29.3343 87.5201 29.8901C87.1751 29.3262 86.8318 28.7621 86.4901 28.198ZM306.918 26.0541C306.544 26.4818 306.17 26.9095 305.796 27.3373C304.243 21.858 307.319 27.0327 309.392 22.6494C308.733 25.9661 311.986 25.7816 312.175 26.0011C311.817 27.1195 311.458 28.238 311.1 29.3564C309.707 28.2556 308.313 27.1548 306.918 26.0541ZM296.19 30.0021C297.47 27.24 290.989 27.1651 288.822 27.8007C288.295 27.957 287.373 29.4767 286.989 29.292C286.749 28.7388 286.51 28.1855 286.27 27.6323C286.023 29.5598 281.745 27.4581 280.058 26.4468C279.911 27.1496 279.763 27.8525 279.616 28.5553C279.003 28.2857 278.389 28.0161 277.776 27.7466C277.862 28.4436 277.949 29.1407 278.036 29.8377C277.563 29.0046 277.09 28.1714 276.617 27.3382C274.795 26.4299 275.964 30.2202 274.589 29.0518C273.06 27.7545 275.502 25.4528 275.435 23.9784C276.666 24.3414 279.467 25.1531 280.713 25.1776C281.429 25.1901 280.58 22.5589 283.707 25.5522C284.373 24.8346 285.039 24.117 285.705 23.3994C286.962 24.5069 288.22 25.6144 289.478 26.7219C289.696 25.7397 289.913 24.7575 290.13 23.7753C290.26 23.6202 293.16 25.8016 293.018 26.5392C294.153 24.6513 296.534 24.2834 299.046 24.1526C299.295 24.6813 299.545 25.2099 299.794 25.7386C297.347 24.6242 299.029 26.3128 298.319 27.342C297.909 27.9355 296.646 29.1078 296.19 30.0021ZM113.585 28.9875C109.602 26.5665 112.044 28.5591 107.78 28.5185C108.089 27.2569 108.398 25.9953 108.707 24.7336C110.767 27.065 114.296 25.5558 113.589 28.9876C113.588 28.9875 113.586 28.9875 113.585 28.9875ZM71.6403 23.9939C73.7558 24.8305 72.5968 26.7613 75.3596 27.478C75.361 27.478 75.3623 27.478 75.3636 27.4781C73.9108 27.5754 72.4848 27.6705 71.0867 27.7635C71.2715 26.507 71.456 25.2505 71.6403 23.9939ZM206.277 25.9831C208.514 25.4096 208.083 26.3983 210.103 24.4108C213.174 26.7609 210.593 26.4525 210.617 28.6167C209.914 27.9897 209.212 27.3626 208.511 26.7354C206.851 28.7775 208.457 29.779 208.459 29.9734C208.458 29.9734 208.457 29.9734 208.455 29.9734C208.462 30.6231 208.518 30.7592 207.877 31.1589C207.343 29.4337 206.81 27.7085 206.277 25.9831ZM215.911 28.5496C215.137 27.1211 214.775 25.28 216.756 24.3356C216.758 24.3356 216.759 24.3355 216.76 24.3355C216.957 27.5456 218.84 24.9308 219.717 25.136C219.95 25.4823 220.184 25.8287 220.417 26.1751C218.912 26.9669 217.41 27.7584 215.911 28.5496ZM249.589 31.0768C249.549 27.5287 247.857 27.2139 250.189 23.9125C250.651 23.9697 251.113 24.0269 251.576 24.0841C251.89 24.8587 252.204 25.6333 252.518 26.4079C258.299 19.9073 260.192 30.8161 250.228 26.8638C250.227 26.8614 250.226 26.859 250.224 26.8565C250.012 28.2633 249.801 29.6701 249.589 31.0768ZM239.309 30.9129C239.211 29.0513 239.113 27.1897 239.015 25.328C237.77 29.838 236.027 25.5729 233.518 28.7754C233.28 28.212 233.042 27.6485 232.804 27.0851C231.858 28.3443 222.554 28.8178 224.537 25.9279C225.4 24.6661 227.338 26.3419 227.503 26.3018C228.061 26.1543 228.771 24.5451 229.719 24.6262C230.266 24.6754 231.443 26.5418 232.562 26.5242C235.06 26.4843 239.594 21.3752 242.89 26.1123C243.117 25.5477 243.344 24.9831 243.571 24.4186C245.996 24.7291 245.211 26.5189 247.438 24.3671C249.109 33.1936 238.381 24.0507 240.685 31.1952C240.683 31.1952 240.682 31.1953 240.681 31.1953C240.223 31.1012 239.766 31.007 239.309 30.9129ZM172.407 28.9554C172.271 30.5453 169.484 28.1115 170.159 31.9142C169.247 30.5943 168.338 29.2742 167.432 27.9538C167.437 27.5998 167.441 27.2457 167.446 26.8917C168.341 27.1648 169.238 27.4377 170.137 27.7103C170.137 27.1488 170.137 26.5873 170.137 26.0258C171.478 28.0494 177.104 27.1252 176.923 25.1373C177.231 25.9749 177.539 26.8125 177.848 27.65C180.54 25.343 182.904 27.7558 185.875 25.4987C186.113 26.1925 186.351 26.8862 186.588 27.58C186.735 27.0172 186.881 26.4544 187.027 25.8916C188.116 25.8115 189.218 25.7309 190.301 25.6503C193.807 27.8796 187.014 30.8682 186.15 30.5428C186.039 30.4972 186.043 29.0434 185.347 28.821C184.102 28.4316 177.262 29.9328 175.17 28.9878C175.159 29.9522 175.147 30.9166 175.136 31.8811C174.224 30.906 173.314 29.9308 172.407 28.9554ZM262.641 27.1033C262.782 26.1199 262.924 25.1364 263.066 24.1529C265.755 25.0956 267.405 24.2155 266.772 27.4703C266.77 27.4703 266.769 27.4704 266.768 27.4704C265.395 27.3481 264.028 27.2256 262.641 27.1033ZM461.61 24.2664C461.533 26.217 460.205 26.9421 458.499 25.5398C458.576 24.9736 458.662 24.4074 458.746 23.8412C459.637 25.5046 460.768 22.6112 463.5 23.0057C463.497 23.9871 463.493 24.9685 463.49 25.9499C462.865 25.3886 462.239 24.8274 461.61 24.2664ZM260.336 27.5602C259.536 28.7287 257.2 25.2499 258.703 25.0559C259.852 24.909 260.765 26.9328 260.336 27.5602ZM62.6148 25.5341C63.1903 25.355 63.7716 25.1756 64.3585 24.9956C64.6237 25.8428 64.8916 26.6899 65.1621 27.5369C65.1608 27.5368 65.1594 27.5368 65.158 27.5367C64.2939 26.8701 63.4459 26.2025 62.6148 25.5341ZM198.651 25.9007C200.681 26.0026 202.72 26.1038 204.766 26.2043C204.793 26.7484 204.819 27.2926 204.845 27.8368C202.775 25.8717 201.979 28.0212 201.504 28.1571C201.506 28.1571 201.508 28.1571 201.51 28.1571C199.986 28.6037 198.538 28.9353 197.108 29.6001C197.622 28.367 198.136 27.1339 198.651 25.9007ZM191.761 29.4017C192.066 25.552 192.497 25.1006 195.625 27.776C195.507 28.2508 195.389 28.7256 195.27 29.2003C193.66 28.9327 192.718 28.0532 193.018 30.0566C192.599 29.8384 192.18 29.6201 191.761 29.4017ZM223.632 27.8286C223.271 29.0577 220.283 27.8635 220.438 27.2442C220.497 26.9984 224.334 25.419 223.632 27.8286ZM484.688 25.2762C483.971 25.5488 483.252 25.8218 482.53 26.095C483.483 26.5224 484.429 26.9504 485.369 27.3788C485.143 26.6779 484.916 25.977 484.688 25.2762ZM492.314 30.8474C492.811 30.3647 491.272 26.8818 494.214 26.0349C492.09 25.928 489.936 25.8241 487.752 25.7231C488.77 26.2951 489.78 26.8678 490.783 27.4411C490.592 28.4321 490.402 29.4232 490.212 30.4143C490.916 30.5583 491.617 30.7027 492.314 30.8474ZM494.637 28.349C493.477 30.9579 499.372 31.2551 500.124 30.9509C500.258 30.8771 500.93 28.8969 501.171 28.4734C500.204 28.4518 499.231 28.4309 498.25 28.4107C498.59 27.7893 498.929 27.168 499.267 26.5468C498.075 26.3098 497.11 26.0779 496.04 25.845C496.481 26.4824 496.92 27.1199 497.357 27.7575C496.456 27.9541 495.549 28.1513 494.637 28.349ZM470.029 27.4527C470.802 27.3912 471.573 27.33 472.34 27.2691C472.18 28.2495 472.021 29.2299 471.861 30.2103C471.402 30.2074 470.942 30.2046 470.48 30.2018C470.33 29.2854 470.18 28.3691 470.029 27.4527ZM485.84 28.8565C484.747 24.1177 481.482 34.413 485.199 30.6289C485.573 30.2443 485.943 29.3143 485.84 28.8565ZM502.529 30.4348C504.94 33.9317 504.55 26.3147 502.144 28.4929C502.023 28.609 502.347 30.1766 502.529 30.4348ZM520.884 31.0472C521.085 31.029 521.543 28.5793 523.371 30.9914C523.697 30.7227 524.022 30.4542 524.346 30.1859C523.698 29.0097 517.242 28.1063 518.046 30.5775C519.048 30.6481 519.864 31.0875 520.884 31.0472ZM514.38 39.9531C513.495 39.8586 512.603 39.7649 511.703 39.672C512.022 38.9089 512.34 38.1459 512.658 37.3831C512.222 37.1608 511.783 36.9388 511.343 36.7169C510.545 38.0264 509.744 39.3365 508.94 40.6472C510.927 40.9097 512.877 41.1757 514.788 41.4453C514.653 40.9479 514.516 40.4505 514.38 39.9531ZM489.871 41.3453C491.651 40.4019 493.785 41.4634 496.569 41.3465C496.571 41.3441 496.572 41.3417 496.573 41.3393C496.712 41.3304 496.977 40.275 497.423 40.2407C497.766 40.2081 505.861 41.5377 505.232 39.7309C502.201 38.0525 500.962 40.4789 500.289 36.4701C500.119 37.3092 499.95 38.1484 499.78 38.9875C496.652 40.3874 496.126 37.464 494.504 36.3677C494.5 37.0024 494.496 37.6372 494.492 38.272C493.43 38.3184 492.361 38.3655 491.284 38.4134C491.442 37.9982 491.599 37.583 491.757 37.1678C491.377 37.1622 490.996 37.1567 490.614 37.1513C489.656 39.0188 488.465 39.4413 489.871 41.3453ZM518.755 39.0426C519.586 43.8807 527.982 40.8917 531.704 42.0969C529.704 39.0959 526.783 40.9677 524.555 40.91C520.303 40.8013 523.307 39.1411 522.615 38.3361C522.272 37.9377 519.705 40.9344 518.755 39.0426ZM483.337 40.4228C485.484 40.0573 486.654 41.1802 488.495 39.437C488.347 39.0835 488.2 38.73 488.052 38.3765C487.438 38.6888 482.271 39.6457 483.337 40.4228ZM537.68 41.1551C533.367 42.6423 535.679 38.4072 533.263 41.5515C534.745 41.8351 536.193 42.1221 537.606 42.4127C537.631 41.9935 537.655 41.5743 537.68 41.1551ZM255.985 45.7343C254.293 45.8677 252.418 46.7719 251.383 44.9694C252.527 44.6731 253.672 44.3767 254.818 44.0803C255.207 44.6316 255.596 45.183 255.985 45.7343ZM304.458 62.7935C304.078 63.2344 302.534 61.9715 302.373 61.9738C302.074 61.9781 302.165 62.6098 302.163 62.7752C300.206 62.6885 301.982 60.6996 300.529 60.2936C300.28 60.2267 296.894 61.2459 295.51 61.186C293.38 61.0941 291.257 61.2517 290.461 61.2293C289.118 61.1933 286.601 59.7567 284.393 59.7123C283.482 59.6965 283.182 60.8799 282.266 60.8635C276.373 60.7494 264.88 59.2932 259.625 60.1137C258.337 60.3175 257.129 61.8782 256.446 61.7617C255.901 61.2052 255.356 60.6486 254.811 60.0921C253.229 65.1908 252.615 60.6835 250.832 60.2341C249.699 59.9503 249.192 61.4613 249.041 61.4596C248.036 61.4435 247.531 60.7341 246.742 60.6261C245.856 60.5069 244.596 61.2021 244.279 61.0837C244.085 61.004 244.674 58.997 241.255 59.0799C237.78 59.1649 234.25 59.4216 230.685 59.5597C231.803 53.5095 232.882 57.6271 234.349 57.8288C234.743 57.8829 234.482 56.9278 234.824 56.9657C235.791 57.0677 237.655 57.9854 238.455 57.7467C239.315 57.4893 239 55.2721 240.089 56.0774C240.144 56.1189 239.983 57.0385 240.24 57.1888C242.815 58.6728 243.631 57.0664 246.872 56.9766C249.008 56.9154 262.134 57.6455 262.586 57.0402C264.889 53.7956 251.055 53.9649 249.461 54.2391C248.899 54.3358 249.503 55.3406 248.992 55.5419C248.776 55.6225 246.793 53.7177 244.862 53.5828C242.529 53.4196 237.863 54.7979 235.596 54.7805C216.327 54.6249 197.623 56.004 178.277 56.1746C177.869 56.1776 177.322 55.0246 175.997 55.034C151.109 55.2279 125.442 56.2144 100.338 55.3417C94.653 55.1468 89.5926 53.9709 83.9894 54.7057C83.2953 53.8448 82.6074 52.9836 81.9257 52.1219C83.7115 52.8387 87.0914 51.0003 87.2923 50.9758C87.3933 50.9694 88.0071 51.935 89.0431 51.9048C90.5011 51.8656 91.1668 51.0513 91.2868 51.0536C91.6619 51.0578 91.4 51.9316 91.759 51.9338C94.44 51.9437 96.554 52.2262 99.1063 52.2705C101.962 52.3183 103.634 50.7013 105.52 52.5187C105.753 51.8206 105.987 51.1224 106.22 50.4242C107.637 53.4736 116.727 53.2155 120.585 53.0703C121.789 53.0254 121.585 51.7936 121.99 51.7956C122.215 51.7979 122.252 53.4105 125.209 53.1054C126.713 52.9503 127.115 51.7775 127.874 51.8178C128.287 51.8414 128.216 53.0053 128.811 53.0069C132.254 53.0157 135.108 52.6415 138.573 52.426C139.549 52.3668 139.56 51.3952 139.779 51.4078C140.585 51.451 141.989 53.0958 144.061 53.0888C147.352 53.0772 153.845 53.0531 156.586 52.2425C156.985 52.1226 157.312 50.9556 157.606 50.9713C158.053 50.9993 158.233 52.2146 158.312 52.2208C159.807 52.2355 158.902 51.1086 159.906 51.3788C160.449 51.5244 161.019 52.9089 162.284 53.0594C163.957 53.2581 163.62 51.6133 164.321 51.7745C164.395 51.7999 164.423 52.9446 165.112 52.9787C167.789 53.0996 171.332 53.342 173.768 53.321C174.46 53.3163 174.969 52.5421 175.937 52.5222C177.858 52.4855 189.095 52.8845 190.045 52.4303C190.138 52.3829 189.133 50.7031 190.714 50.7397C191.172 51.4386 191.63 52.1376 192.089 52.8365C192.835 51.7041 193.582 50.5717 194.33 49.4391C194.336 53.328 198.82 53.8851 198.739 49.9091C199.228 49.7431 199.719 49.577 200.209 49.4109C201.262 52.1478 201.934 51.1268 203.941 52.7199C204.243 51.8745 204.544 51.029 204.846 50.1835C204.93 50.7442 205.014 51.3048 205.098 51.8655C206.129 48.8116 207.911 51.8478 208.124 51.8624C208.943 51.921 209.55 51.1408 209.935 51.1615C211.36 51.2262 214.533 52.2564 216.141 51.7436C216.217 51.7173 216.126 50.4175 216.593 50.2515C217.434 49.9516 217.539 51.855 218.641 49.6051C218.876 50.1639 219.11 50.7227 219.345 51.2815C219.584 50.9881 219.822 50.6948 220.061 50.4014C221.492 50.5335 222.927 50.6652 224.364 50.7968C223.032 48.6104 224.518 47.3624 225.961 49.0781C226.449 49.6598 226.039 51.0055 226.202 51.2066C226.421 51.479 232.884 50.7159 233.307 49.8436C233.619 50.262 233.932 50.6804 234.244 51.0988C234.389 50.2522 234.534 49.4056 234.679 48.559C234.852 48.8522 235.025 49.1454 235.199 49.4386C236.878 47.9294 241.296 51.2847 242.067 51.0049C242.485 50.8556 242.059 47.2606 244.079 47.6016C244.163 48.5894 244.246 49.5771 244.329 50.5648C244.792 50.7003 245.256 50.8357 245.72 50.9712C246.586 50.8715 247.826 49.1412 247.851 47.9689C248.132 48.6683 248.413 49.3677 248.694 50.0671C249.391 47.7667 253.293 48.5259 254.883 49.9538C255.333 49.2566 255.782 48.5595 256.232 47.8624C256.86 48.6936 257.489 49.5249 258.118 50.3561C259.551 50.5892 258.021 49.2141 258.324 49.0934C258.965 48.8436 262.288 51.1562 262.031 48.2216C262.48 48.2081 262.929 48.1945 263.378 48.1809C263.62 49.0174 263.863 49.8539 264.106 50.6904C264.838 47.7844 266.168 48.7881 268.871 47.6936C269.109 48.3568 269.346 49.02 269.583 49.6832C270.41 48.7242 271.237 47.7652 272.065 46.8062C272.253 47.9071 272.441 49.008 272.629 50.1089C272.997 50.2624 273.365 50.4159 273.734 50.5694C274.442 48.0872 275.815 50.7391 276.48 49.7099C277.451 48.208 276.658 46.4461 274.813 46.1299C274.924 44.3279 280.423 45.0762 281.692 45.1894C281.613 45.5421 281.534 45.8948 281.456 46.2476C280.157 45.9878 278.858 45.728 277.561 45.4682C276.541 50.0104 280.037 48.7462 281.66 49.3064C281.808 49.3602 282.669 51.0632 284.294 50.8801C284.923 50.8077 287.345 48.2657 287.813 48.1194C291.586 46.9203 288.852 50.5422 292.511 47.3487C291.773 49.7648 293.873 47.7358 296.095 48.1689C296.473 48.2429 299.699 50.1466 299.915 50.1942C301.266 50.4877 299.77 48.3829 301.726 48.9084C301.968 49.464 302.21 50.0197 302.452 50.5753C302.906 50.5688 303.359 50.5623 303.812 50.5558C306.492 45.5346 307.184 49.1942 308.169 49.6512C308.566 49.8357 308.039 48.5432 309.067 48.8033C309.454 48.9 309.897 49.9753 310.935 50.0365C314.183 50.2266 315.213 45.5822 318.282 50.3572C318.732 49.6526 319.182 48.9479 319.632 48.2433C319.954 49.0762 320.276 49.9092 320.598 50.7421C322.936 48.2792 322.114 50.7797 322.97 50.7381C325.231 50.6303 329.843 50.09 330.219 48.0812C332.229 52.6563 334.482 47.433 335.25 47.6022C335.712 48.155 336.175 48.7078 336.637 49.2607C337.164 48.692 337.691 48.1233 338.217 47.5547C338.02 52.0773 340.721 47.5962 340.991 47.5248C341.301 47.4529 345.622 48.7333 347.218 48.6877C348.815 48.6415 351.573 47.3812 351.817 47.3757C352.098 47.3721 354.82 48.5658 356.929 48.5268C358.775 48.4894 369.665 46.6134 369.036 48.6364C368.318 49.2028 367.292 49.6986 366.402 49.9713C363.7 50.8044 347.679 52.035 343.519 52.4133C335.271 53.1608 326.732 53.1604 318.422 53.7173C317.934 53.7495 317.876 54.9218 317.458 54.9541C316.822 54.9969 315.189 53.8475 314.568 53.8816C312.24 54.0161 309.405 54.2478 308.157 54.2952C305.366 54.3944 303.461 55.1272 301.349 55.2717C300.688 55.315 297.321 53.911 295.037 54.5566C294.626 54.8921 294.215 55.2277 293.804 55.5632C294.991 55.9308 298.104 56.8815 299.544 56.9749C301.687 57.1088 302.79 56.1427 303.58 56.1479C304.242 56.1511 307.638 57.1848 309.176 57.1886C309.654 57.1902 309.734 55.9605 310.143 55.9589C312.363 55.9568 315.268 55.9484 317.226 57.1255C316.432 56.7435 321.344 55.9206 321.601 55.9213C322.043 55.9154 322.539 57.0581 323.441 57.0455C325.175 57.0206 324.922 54.6196 327.121 56.9942C327.647 56.2862 328.173 55.5782 328.699 54.8702C328.778 58.0724 335.479 53.623 337.446 57.49C337.506 57.9285 328.746 59.2958 328.017 59.3696C323.673 59.8142 317.174 59.1203 312.969 59.7422C311.702 59.9292 307.733 61.9333 307.431 61.9013C306.944 61.8534 307.367 60.7333 307.156 60.6967C302.843 59.9301 305.021 62.1378 304.458 62.7935ZM494.388 43.5223C493.102 43.6334 491.805 43.7457 490.496 43.8591C490.581 44.5634 490.665 45.2678 490.75 45.9722C491.351 45.7073 491.95 45.4427 492.547 45.1782C492.996 45.605 493.444 46.0319 493.89 46.4589C494.056 45.48 494.222 44.5012 494.388 43.5223ZM497.476 46.5193C498.59 46.8934 498.729 45.4133 498.995 45.3457C499.822 45.1414 500.519 45.7546 501.309 45.7495C500.485 42.21 498.434 43.7855 497.476 46.5193ZM474.024 47.5027C474.276 47.336 475.993 43.5565 477.852 47.1007C479.21 45.9917 480.854 44.8866 482.342 43.7815C479.698 45.4656 476.396 43.6585 475.205 43.7174C474.753 43.7397 474.659 44.9029 474.297 44.9192C472.213 44.9969 470.169 42.348 469.93 46.2018C471.939 45.0931 473.701 47.7075 474.024 47.5027ZM486.919 46.2581C487.272 45.4568 487.624 44.6555 487.977 43.8544C486.742 43.8384 485.497 43.8234 484.242 43.8093C484.572 44.6285 484.901 45.4477 485.229 46.267C485.795 46.2638 486.358 46.2609 486.919 46.2581ZM392.513 49.03C393.278 49.0129 394.041 48.9959 394.804 48.9791C394.768 49.5666 393.895 49.5724 393.577 49.972C393.578 49.972 393.579 49.972 393.581 49.972C393.226 50.4234 393.387 51.178 392.738 51.5181C392.663 50.6887 392.588 49.8593 392.513 49.03ZM80.9323 54.6175C79.4991 54.6383 68.3324 54.2907 69.3356 52.1717C69.9237 51.1244 73.59 52.1802 74.766 52.1972C76.2878 52.2241 80.6268 50.024 80.9323 54.6175ZM60.4003 54.319C60.2486 52.1837 67.547 52.1539 68.3504 52.5463C68.1809 52.8446 67.912 53.5123 67.6962 53.658C66.6164 54.3569 61.9177 53.8106 60.4003 54.319ZM350.387 55.6709C350.962 54.5843 351.537 53.4978 352.112 52.4112C351.975 53.8169 351.838 55.2225 351.701 56.6282C351.263 56.3091 350.825 55.99 350.387 55.6709ZM293.322 54.9182C283.525 55.1274 273.723 55.3366 263.964 55.5414C264.841 56.1126 265.7 56.6842 266.568 57.2555C274.973 56.9304 283.977 56.2103 292.143 56.9934C292.536 56.3017 292.929 55.6099 293.322 54.9182ZM471.25 53.8048C468.755 53.8105 466.652 52.7687 463.867 54.3979C466.505 55.9977 467.815 53.5449 470.324 55.9013C470.326 55.9013 470.327 55.9013 470.329 55.9013C470.636 55.2024 470.943 54.5036 471.25 53.8048ZM415.035 54.2943C415.82 55.2705 416.604 56.2468 417.385 57.2232C416.453 57.2292 415.518 57.2353 414.581 57.2417C414.733 56.2592 414.884 55.2767 415.035 54.2943ZM207.97 61.503C205.299 59.3903 198.633 63.3355 196.499 60.7784C196.361 60.6106 197.607 59.511 195.555 57.4256C197.093 57.8419 198.185 58.271 198.316 59.9256C198.767 59.3596 199.219 58.7936 199.672 58.2276C200.436 58.6447 201.201 59.0618 201.967 59.4788C201.868 57.8311 201.928 57.9183 203.112 59.0348C203.642 58.6118 204.173 58.1888 204.704 57.7658C204.938 58.4616 205.172 59.1573 205.407 59.8531C205.861 58.8717 206.315 57.8903 206.769 56.9089C208.592 57.9487 207.509 59.8526 207.97 61.503ZM217.189 60.9969C216.844 61.3653 204.507 60.3174 210.058 56.9684C211.508 57.0575 212.962 57.1462 214.419 57.2346C213.297 62.6923 217.128 57.7793 217.443 57.6613C218.961 57.1119 220.925 58.3835 222.036 58.3031C222.991 58.2325 223.547 57.249 224.221 57.2661C226.515 57.3229 230.155 57.3133 230.685 59.5597C228.893 59.629 227.075 59.6756 225.218 59.6418C223.256 59.6064 221.554 61.7535 217.856 58.8797C216.955 59.2037 217.297 60.9027 217.189 60.9969ZM419.712 56.9818C419.61 54.719 424.294 55.2338 424.323 56.1283C424.336 56.6523 422.817 56.6481 422.6 56.848C422.598 56.848 422.597 56.848 422.596 56.848C422.505 56.9353 422.97 57.799 422.256 58.0437C421.41 57.6896 420.562 57.3356 419.712 56.9818ZM98.9355 60.025C98.0777 61.2959 84.3301 60.5896 83.6406 59.9503C83.5252 59.7788 83.7044 59.2258 83.6648 58.9033C87.1955 60.7778 91.5546 58.7395 94.8047 58.6516C95.6897 58.6281 95.4119 59.5233 95.4615 59.5411C95.4636 59.5411 95.4657 59.5412 95.4678 59.5412C95.9687 59.5517 98.2898 57.3883 98.9355 60.025ZM191.949 59.7886C192.546 59.4291 193.145 59.0695 193.744 58.7099C193.903 59.4091 194.063 60.1083 194.222 60.8074C194.221 60.8075 194.219 60.8075 194.218 60.8075C193.46 60.4679 192.704 60.1283 191.949 59.7886ZM170.822 62.2613C170.965 61.7672 171.108 61.2731 171.251 60.7791C172.765 60.701 174.285 60.6223 175.812 60.5431C175.656 60.2659 175.5 59.9887 175.344 59.7115C177.646 58.9512 178.622 60.6768 179.857 60.418C179.856 60.418 179.854 60.418 179.853 60.418C179.986 60.388 180.139 59.3593 180.635 59.3207C181.769 59.2318 185.043 58.8226 185.451 59.853C186.304 62.0524 179.702 61.059 178.493 61.1681C177.943 61.2187 177.287 62.1227 176.953 62.1462C176.587 62.1686 176.079 60.958 175.19 61.0016C174.928 61.0162 172.059 62.4644 170.822 62.2613ZM143.784 60.8966C144.277 59.7842 145.264 60.8566 145.611 60.6742C145.696 60.6311 145.036 59.7016 145.833 59.4214C146.06 60.0558 146.287 60.6901 146.515 61.3244C145.613 61.1821 144.746 61.0394 143.784 60.8966ZM427.553 58.0092C427.422 58.2482 424.931 58.1732 424.809 58.0227C423.305 56.0011 428.469 56.1953 427.553 58.0092ZM490.509 60.5303C489.316 63.4534 502.832 60.7816 504.291 60.984C504.273 59.1289 500.921 60.922 502.71 58.415C501.035 59.7771 496.37 58.9478 495.45 59.3398C494.828 59.5746 494.644 61.1728 494.55 61.222C494.187 61.3957 490.932 59.496 490.509 60.5303ZM515.388 60.0164C514.003 60.3254 512.866 60.6441 511.582 60.9602C513.083 61.2119 514.38 61.4598 516.072 61.7231C515.845 61.1542 515.617 60.5853 515.388 60.0164ZM517.072 60.9125C516.988 62.7051 521.549 61.4923 522.66 61.9526C521.48 58.8488 519.173 61.6481 517.072 60.9125ZM444.103 62.594C442.062 63.7849 441.17 58.3104 443.663 60.6904C443.739 60.7691 444.188 62.531 444.103 62.594ZM207.425 69.2142C207.076 69.252 202.792 71.0727 202.537 70.1958C201.723 67.3991 204.55 68.4949 205.487 67.4257C206.997 65.6933 204.731 64.3035 208.478 65.2989C208.319 64.7391 208.16 64.1793 208.001 63.6194C210.187 63.4098 209.515 67.3069 209.913 67.8028C210.035 67.9536 211.403 67.6114 211.654 67.8569C214.785 70.9559 207.74 69.1852 207.425 69.2142ZM394.014 63.3055C389.962 64.9928 391.647 62.5573 387.571 62.7458C387.401 61.5127 393.455 62.228 394.014 63.3055ZM246.627 66.5166C242.469 66.0862 239.106 67.7446 235.147 65.6266C235.394 62.2847 247.692 65.6407 246.627 66.5166ZM50.4015 68.9787C67.0942 64.0619 85.6015 66.4122 103.122 66.7227C105.047 66.7539 105.16 65.4304 105.835 65.5816C106.267 65.6793 106.18 66.7449 106.756 66.7559C128.41 67.1455 148.458 68.495 169.244 67.7349C170.505 67.6857 176.718 65.3534 178.095 68.7955C179.127 71.4078 174.607 69.3981 173.866 69.4262C173.305 69.4469 173.289 70.6782 172.916 70.6851C172.52 70.6919 172.842 69.8486 172.382 69.839C170.426 69.7928 168.352 70.1342 166.557 70.0725C148.806 69.4816 132.178 69.7084 114.57 69.7028C112.461 69.6999 112.89 70.6891 112.783 70.6927C112.782 70.6902 112.78 70.6878 112.779 70.6853C101.772 70.691 88.9927 68.3091 76.5939 68.8029C68.5307 69.2522 59.6508 69.6015 51.1252 69.7576C50.8823 69.4981 50.641 69.2384 50.4015 68.9787ZM216.332 65.6359C215.335 69.3673 215.076 65.6199 211.284 67.1798C210.968 66.5485 210.652 65.9172 210.337 65.2859C212.335 65.4031 214.394 65.519 216.338 65.6358C216.336 65.6358 216.334 65.6359 216.332 65.6359ZM191.524 67.2486C190.987 72.2785 182.367 68.8029 178.617 69.7877C177.9 67.2704 183.427 68.3612 184.744 68.0841C185.384 67.9478 188.927 65.3228 191.555 66.7356C191.545 66.9066 191.535 67.0776 191.524 67.2486ZM476.115 67.7553C475.522 67.6041 474.927 67.453 474.33 67.3022C475.831 66.7565 477.318 66.212 478.798 65.6688C476.443 66.0064 474.062 66.347 471.648 66.6905C472.09 67.7358 472.531 68.7812 472.971 69.8267C474.024 69.1357 475.072 68.4452 476.115 67.7553ZM468.313 67.1692C472.569 67.5855 468.146 64.7694 467.061 66.0057C466.416 66.7466 467.878 67.1245 468.313 67.1692ZM457.079 68.9243C458.954 70.7572 463.195 70.8968 461.714 67.2368C459.496 68.942 458.083 67.5157 455.053 68.4963C455.499 69.1976 455.943 69.8989 456.386 70.6003C456.388 70.6003 456.39 70.6003 456.392 70.6003C456.621 70.0416 456.85 69.483 457.079 68.9243ZM470.245 69.3918C473.045 67.3075 464.959 67.9813 467.495 69.3769C467.617 69.4406 470.138 69.4713 470.245 69.3918ZM68.5675 73.6319C68.3144 72.428 70.3942 72.5237 71.0847 72.4657C74.0885 72.2114 78.0619 72.8455 81.4245 72.7622C81.1626 73.1489 80.901 73.5356 80.6398 73.9223C76.4475 73.8415 72.506 73.7483 68.5675 73.6319ZM91.567 72.9683C93.7662 73.0076 96.0033 73.0433 98.2768 73.0757C98.488 73.0788 99.4712 74.1175 98.7262 74.3565C96.2961 73.8977 93.9091 73.435 91.567 72.9683ZM230.385 72.6304C228.685 73.3206 233.648 76.6873 233.382 73.0176C232.382 72.8886 231.383 72.7596 230.385 72.6304ZM246.267 73.89C245.198 73.5551 244.131 73.2201 243.064 72.885C243.068 73.3074 243.072 73.7297 243.077 74.152C244.139 74.0648 245.203 73.9774 246.267 73.89ZM59.4722 74.1013C60.6593 72.7113 63.3873 73.0537 65.1613 73.0932C63.8886 74.2867 61.0758 73.5561 59.4722 74.1013ZM204.87 74.405C204.992 73.4193 198.228 73.736 200.587 75.4453C202.011 75.0989 203.439 74.7521 204.87 74.405ZM191.2 75.9967C192.634 76.1992 193.745 75.8504 193.435 74.3062C192.674 74.3792 191.914 74.4522 191.156 74.5249C191.171 75.0155 191.186 75.5061 191.2 75.9967ZM449.619 71.8621C447.191 71.7232 444.738 71.5864 442.263 71.4517C442.355 71.8739 442.448 72.296 442.54 72.7182C444.924 72.8508 447.287 72.9853 449.627 73.1218C449.625 72.7019 449.622 72.282 449.619 71.8621ZM57.9165 77.825C56.2048 77.4645 54.8715 77.1191 52.9113 76.7311C54.9047 76.561 56.2663 76.3481 58.0026 76.15C57.9752 76.7108 57.9477 77.2717 57.9203 77.8325C57.919 77.83 57.9178 77.8275 57.9165 77.825ZM482.921 77.4945C475.256 79.3869 485.012 81.5649 486.968 78.6992C486.971 78.7017 486.973 78.7041 486.975 78.7066C487.15 78.453 486.802 77.2113 487.094 76.7158C486.329 77.2652 485.559 77.815 484.787 78.3651C484.096 77.6612 483.401 76.9577 482.703 76.2544C482.467 76.5253 482.232 76.7962 481.996 77.0672C482.305 77.2096 482.613 77.352 482.921 77.4945ZM512.663 79.1543C519.336 79.1295 512.553 75.8198 509.341 78.1834C509.356 78.7487 512.083 79.1577 512.663 79.1543ZM495.157 78.0942C494.14 77.7963 493.113 77.4991 492.078 77.2026C491.94 77.5546 491.802 77.9065 491.664 78.2585C492.457 78.622 493.246 78.9858 494.029 79.3501C494.406 78.9314 494.782 78.5128 495.157 78.0942ZM460.253 83.2427C458.492 83.6273 456.266 79.6844 461.898 80.7355C461.894 81.1579 461.89 81.5802 461.886 82.0026C461.663 81.9344 461.007 81.5362 460.97 81.5676C460.867 81.673 460.985 83.0836 460.253 83.2427ZM524.617 90.7057C524.789 90.8743 524.707 95.3279 526.744 90.8056C527.284 91.1109 527.818 91.4167 528.346 91.7227C528.527 90.7488 528.754 89.7771 528.959 88.8044C526.709 89.4592 526.626 87.4708 526.458 87.4204C525.746 87.203 526.234 88.2469 525.768 88.2405C524.575 88.221 521.773 87.4239 522.937 90.3876C523.356 91.4491 524.445 90.5375 524.617 90.7057ZM520.135 93.0653C520.427 92.7039 519.577 91.3687 519.801 91.0083C520.005 90.6933 522.791 89.4692 522.137 87.241C521.685 87.3162 521.23 87.3918 520.773 87.4676C520.596 88.0644 520.42 88.6613 520.244 89.2583C519.823 88.6858 519.399 88.1136 518.972 87.5415C518.165 89.0018 516.486 90.8735 518.357 92.1515C517.662 92.0003 516.959 91.8496 516.25 91.6994C515.903 90.9748 515.555 90.2504 515.203 89.5261C515.365 90.6181 515.525 91.7102 515.685 92.8023C517.199 92.8876 518.683 92.9752 520.135 93.0653ZM540.578 93.7113C540.546 93.146 540.515 92.5807 540.483 92.0155C542.991 93.2369 546.608 93.9624 544.82 90.2706C541.364 89.6822 538.431 89.1908 535.127 88.7005C534.882 89.1092 534.636 89.5179 534.39 89.9267C536.958 88.4483 535.778 95.314 537.943 93.4626C538.299 93.1493 537.497 90.6664 539.495 92.3565C539.382 92.9139 539.269 93.4714 539.156 94.0289C539.636 93.9226 540.11 93.8167 540.578 93.7113ZM557.406 94.8579C555.889 95.335 557.235 97.7625 557 95.9439C557.001 95.944 557.001 95.9441 557.002 95.9443C557.33 93.6021 557.875 93.1459 557.913 93.1312C557.98 93.1213 557.325 93.533 557.249 93.5041C557.138 93.4375 557.117 90.016 555.113 94.6138C555.365 94.6384 555.599 94.6618 555.815 94.6836C556.032 94.7055 556.219 94.7229 556.496 94.7606C556.988 94.8238 557.312 94.8681 557.406 94.8579ZM547.715 94.312C548.008 94.4518 547.925 93.5917 548.054 93.6174C548.055 93.6175 548.057 93.6177 548.058 93.6178C548.535 93.7118 549.157 93.859 549.803 93.9855C550.41 94.107 551.426 94.2541 552.14 94.2821C553.653 94.3472 554.712 94.0196 555.127 92.7013C554.607 92.4996 552.908 92.0329 550.748 91.8407C548.953 91.6877 547.227 91.8435 546.914 92.7472C547.189 93.2688 547.456 93.7905 547.715 94.312ZM532.611 91.1621C531.095 92.8531 534.277 93.2619 535.107 92.4925C535.271 92.3245 534.19 89.4108 532.611 91.1621ZM422.693 94.281C419.478 93.2339 423.688 92.147 422.22 90.4897C422.833 90.6279 423.446 90.7661 424.057 90.9045C423.603 92.0299 423.148 93.1554 422.693 94.281ZM276.949 99.3869C276.206 99.5944 276.545 98.5727 276.48 98.5586C275.99 98.5939 275.539 99.4287 275.35 99.3438C271.847 97.7213 274.149 96.8346 274.181 96.6356C274.24 95.6288 273.309 94.4649 274.559 93.2974C275.333 93.6429 276.107 93.9884 276.882 94.3338C277.255 93.7694 277.629 93.205 278.003 92.6405C279.549 93.818 277.553 94.1755 277.349 95.7702C277.271 96.397 278.719 97.1254 276.949 99.3869ZM416.941 97.6847C416.405 95.9211 415.099 93.7008 416.355 91.917C416.356 91.917 416.358 91.917 416.359 91.917C416.591 91.5907 417.542 91.4059 417.832 90.9481C419.927 93.2891 419.147 95.7264 416.941 97.6847ZM290.806 102.353C292.04 101.922 293.275 101.492 294.509 101.062C294.473 100.003 294.436 98.9435 294.4 97.8844C293.74 98.1795 293.081 98.4746 292.421 98.7698C292.181 98.2898 291.942 97.8098 291.702 97.3298C292.509 96.1097 293.315 94.8895 294.122 93.6693C295.121 94.0773 296.12 94.4854 297.119 94.8934C296.67 95.459 296.222 96.0245 295.774 96.5901C298.209 97.1723 297.644 94.6037 299.638 93.59C300.339 94.5615 301.041 95.5329 301.742 96.5044C302.723 95.5039 303.704 94.5034 304.685 93.5029C306.363 93.9397 306.521 94.6887 305.412 95.8291C306.261 97.102 307.142 95.0682 308.15 95.5775C308.233 95.6186 308.095 96.8309 308.168 96.8445C313.352 97.5864 313.029 94.4127 313.853 94.2657C314.434 94.1646 316.789 96.2761 316.839 97.0068C316.897 97.9915 312.096 101.946 319.705 101.94C315.8 104.683 311.326 102.01 314.144 98.0265C312.912 98.4408 307.43 97.535 307.082 97.6584C306.576 97.8442 306.776 99.3377 306.139 99.3859C305.763 99.4124 304.717 96.0071 301.779 99.0382C301.39 98.4822 301.001 97.9262 300.612 97.3703C300.261 97.8367 299.911 98.3032 299.56 98.7697C300.319 100.404 301.078 102.039 301.837 103.674C298.899 101.928 296.53 105.321 294.715 102.516C293.186 102.868 292.446 103.204 293.126 104.641C292.665 104.648 292.204 104.655 291.744 104.661C291.431 103.892 291.118 103.122 290.806 102.353ZM407.602 95.2246C406.109 96.8791 405.536 93.3395 405.77 93.137C407.086 92.0235 408.378 94.3638 407.602 95.2246ZM279.691 97.4654C281.361 96.5284 283.031 95.5913 284.702 94.6543C284.718 95.7747 284.734 96.8952 284.75 98.0156C283.063 97.8323 281.377 97.6489 279.691 97.4654ZM423.175 96.7978C423.325 95.9572 423.475 95.1165 423.625 94.2759C425.48 97.3335 427.271 92.9235 428.175 93.8283C428.372 94.026 427.984 95.5107 427.613 95.8304C427.385 96.0298 423.506 97.0789 423.175 96.7978ZM498.893 96.7162C498.211 96.139 497.495 95.5617 496.832 94.9857C496.85 95.931 496.869 96.8763 496.887 97.8216C497.221 98.0034 497.573 98.1857 497.915 98.3678C498.241 97.8172 498.567 97.2666 498.893 96.7162ZM491.355 95.0863C490.171 95.1443 488.976 95.2033 487.771 95.2631C492.326 96.1921 488.581 96.5629 491.314 97.8325C491.328 96.9171 491.341 96.0017 491.355 95.0863ZM478.996 96.8501C479.145 97.4155 479.294 97.9808 479.442 98.5462C480.692 98.558 481.932 98.5707 483.162 98.5842C482.363 100.533 481.561 102.483 480.758 104.433C480.304 104.433 479.848 104.434 479.391 104.434C479.26 101.906 479.128 99.3782 478.996 96.8501ZM243.914 104.055C243.177 104.098 240.592 102.421 240.694 101.79C241.747 101.002 242.802 100.214 243.857 99.4264C243.877 100.549 243.897 101.672 243.917 102.795C244.06 102.234 244.203 101.673 244.347 101.112C244.958 101.524 245.571 101.936 246.183 102.347C246.476 101.362 246.769 100.377 247.062 99.3912C247.384 100.508 247.707 101.624 248.029 102.74C245.123 104.766 245.199 102.779 244.59 102.808C244.281 102.822 244.095 103.519 243.99 103.871C243.965 103.932 243.939 103.993 243.914 104.055ZM280.956 104.596C277.451 104.925 275.405 101.998 272.905 104.506C274.453 99.2167 285.043 104.506 288.692 100.061C289.089 100.9 289.486 101.739 289.884 102.579C287.853 101.855 286.478 103.615 285.497 103.879C284.718 104.089 284.787 103.203 284.727 103.217C284.724 103.217 284.722 103.217 284.719 103.217C282.893 103.606 282.339 104.466 280.956 104.596ZM425.791 100.915C424.863 102.254 423.219 102.129 423.189 100.181C424.102 99.6125 425.013 99.0438 425.921 98.4753C425.736 98.975 425.949 100.686 425.791 100.915ZM477.558 102.279C476.855 102.907 475.195 102.338 475.926 100.662C476.059 100.364 477.701 101.56 476.757 98.515C478.366 98.5757 477.958 101.918 477.558 102.279ZM340.764 99.7599C341.376 99.8079 342.001 99.8557 342.623 99.9035C342.779 100.688 342.934 101.472 343.089 102.256C342.313 101.424 341.528 100.592 340.764 99.7599ZM433.624 102.229C434.419 98.3786 435.778 102.118 437.294 98.9503C437.874 98.9242 438.454 98.8982 439.032 98.8724C439.033 98.8724 439.035 98.8724 439.036 98.8724C439.054 99.9221 439.073 100.972 439.091 102.022C437.187 102.09 435.427 102.159 433.624 102.229ZM302.275 102.195C302.649 101.702 303.023 101.208 303.397 100.714C304.083 101.273 304.769 101.832 305.455 102.391C305.095 102.804 304.734 103.217 304.373 103.63C303.674 103.152 302.975 102.674 302.275 102.195ZM443.615 102.533C441.617 103.018 440.854 99.6747 443.417 99.6618C444.494 99.6602 445.704 102.026 443.615 102.533ZM205.649 103.27C206.334 102.977 207.02 102.684 207.707 102.391C207.949 103.091 208.192 103.792 208.434 104.492C207.504 104.085 206.576 103.677 205.649 103.27ZM487.011 101.999C486.941 101.295 486.871 100.591 486.8 99.8871C486.197 100.021 485.592 100.155 484.984 100.29C485.128 100.99 485.272 101.69 485.415 102.39C485.949 102.259 486.481 102.129 487.011 101.999ZM210.286 102.788C210.838 102.647 211.389 102.507 211.942 102.366C212.318 102.704 212.694 103.042 213.07 103.379C212.555 103.724 212.04 104.07 211.526 104.415C211.113 103.872 210.699 103.33 210.286 102.788ZM462.284 102.226C461.511 103.068 458.405 100.425 461.209 99.7612C462.991 99.3401 462.4 102.097 462.284 102.226ZM466.422 103.084C463.497 104.682 465.743 96.516 469.154 101.831C465.693 101.087 466.589 102.988 466.422 103.084ZM491.596 107.542C491.666 107.539 491.743 106.365 492.305 106.33C494.354 106.209 496.854 105.788 498.49 105.748C502.33 105.636 512.692 108.03 514.021 104.679C514.319 103.974 513.749 101.82 513.864 101.714C514.209 101.417 516.055 102.513 515.757 100.931C513.853 100.882 512.193 100.845 510.488 100.81C510.876 101.929 511.262 103.049 511.644 104.169C507.426 103.459 508.808 103.568 507.633 101.122C506.873 102.038 506.108 102.955 505.339 103.872C503.736 102.894 502.101 101.918 500.435 100.944C500.803 101.652 501.168 102.361 501.532 103.069C498.98 104.314 499.697 103.478 498.329 101.753C498.313 102.453 498.296 103.154 498.28 103.854C495.775 102.099 495.467 104.196 494.924 104.211C493.892 104.236 492.719 95.9223 488.539 104.114C486.872 100.124 486.804 108.195 485.836 104.079C482.832 108.511 488.474 106.96 491.03 106.852C491.031 106.852 491.032 106.852 491.034 106.852C491.228 106.843 490.909 107.59 491.596 107.542ZM476.565 103.26C478.265 106.914 471.426 107.203 473.729 101.963C474.07 101.795 474.409 101.626 474.748 101.458C475.358 102.058 475.965 102.659 476.569 103.26C476.567 103.26 476.566 103.26 476.565 103.26ZM410.392 105.736C403.889 104.289 407.567 102.165 409.78 104.195C410.221 104.597 410.465 105.152 410.392 105.736ZM275.984 107.465C275.882 107.03 275.779 106.594 275.676 106.158C277.893 106.536 282.149 104.789 282.133 107.736C280.082 107.646 278.033 107.556 275.984 107.465ZM293.522 109.14C293.049 109.325 291.115 109.772 291.333 108.667C292.163 107.873 292.993 107.08 293.822 106.287C294.221 106.769 294.62 107.252 295.018 107.735C294.474 107.908 293.65 109.092 293.522 109.14Z" fill="#45D670"/>
</svg>
