<svg width="377" height="34" viewBox="0 0 377 34" fill="none" xmlns="http://www.w3.org/2000/svg">
<path d="M8.60885 32.5185C16.5836 34.8755 21.3346 31.9515 28.8648 31.2956C44.4313 29.883 65.3288 30.2744 81.4787 29.8911C93.8878 29.5945 106.063 29.1999 118.296 28.8747C118.926 28.8583 119.299 28.5656 119.585 28.5579C122.252 28.4862 126.65 28.6879 129.303 28.6168C134.915 28.4651 144.48 28.4058 149.603 28.0908C151.778 27.9566 153.987 27.8903 154.814 27.1992C155.598 27.1578 156.032 27.7726 156.238 27.8046C156.24 27.804 156.243 27.8034 156.245 27.8027C156.906 27.9017 158.574 27.4553 158.943 27.4796C158.999 27.4834 158.662 27.9337 159.557 27.7917C159.636 27.7795 159.56 27.4756 160.315 27.4657C160.511 27.4631 163.039 27.9121 163.763 27.936C166.171 28.0121 171.907 27.6127 174.771 27.6069C175.21 27.6049 175.463 27.7819 175.927 27.7831C176.166 27.7839 176.524 27.5891 176.598 27.5898C176.92 27.5953 178.334 28.4677 177.821 26.7371C179.295 26.8413 178.863 27.4159 178.897 27.7877C180.496 27.8356 181.265 27.0173 181.685 27.8808C189.556 27.752 197.398 27.6427 205.268 27.5565C205.27 27.6975 205.272 27.8385 205.274 27.9795C207.598 27.4219 208.39 28.3772 209.715 27.5638C210.53 27.7467 211.344 27.9298 212.157 28.1132C233.116 27.6468 254.008 28.5546 274.64 29.1216C275.506 29.1458 275.732 28.8518 277.151 28.8908C278.719 28.9344 280.873 29.3486 283.033 29.4152C284.898 29.4727 287.623 29.2833 289.644 29.3143C290.101 29.3218 290.422 29.5241 290.474 29.525C290.775 29.5289 290.801 29.2289 291.093 29.2315C291.442 29.2353 291.853 29.4742 292.254 29.4761C293.735 29.4841 295.401 29.63 295.613 29.6337C296.568 29.6451 296.789 29.3604 296.867 29.3604C297.924 29.3698 297.516 29.6182 297.779 29.6141C299.138 29.5921 300.125 28.9723 301.916 29.6932C301.878 29.4452 301.84 29.1972 301.802 28.9491C303.2 28.8767 302.25 29.4861 302.528 29.6177C302.648 29.6663 305.61 29.7321 305.83 29.7327C306.618 29.7306 306.654 29.4054 306.723 29.4045C306.85 29.4001 308.93 29.8809 310.012 29.6556C311.289 29.388 309.845 28.6417 310.164 28.5344C310.219 28.5161 311.53 28.658 311.716 28.4604C311.923 28.2478 310.79 28.1882 310.811 28.0955C310.83 28.0315 312.734 27.6781 312.391 27.3474C312.126 27.019 309.538 27.2739 308.99 27.0986C308.9 27.0694 309.093 26.6947 309.013 26.6762C308.576 26.5967 302.995 26.3027 302.686 26.3551C302.978 26.5444 303.269 26.7337 303.56 26.9232C303.162 26.9216 302.762 26.9202 302.362 26.9189C302.923 27.086 303.482 27.2535 304.038 27.4213C303.138 28.8203 300.656 27.2405 300.578 26.5169C300.548 26.1821 302.157 25.399 300.719 24.8334C300.945 24.7582 301.172 24.6831 301.397 24.6081C301.848 24.7695 302.297 24.9311 302.744 25.093C302.437 25.167 302.13 25.2411 301.823 25.3153C301.93 25.4205 302.037 25.5257 302.143 25.6309C302.986 25.8314 303.822 26.0325 304.652 26.2343C305.086 26.1817 305.011 25.8822 305.309 25.8399C309.023 25.3092 306.513 26.0964 309.053 26.0989C309.424 25.9601 309.794 25.8214 310.163 25.6828C309.999 26.3311 311.142 25.9809 312.455 26.3406C312.309 26.1193 312.162 25.8981 312.014 25.6769C313.956 25.8987 317.814 25.0692 316.715 26.1745C317.149 26.1017 317.582 26.0291 318.012 25.9567C318.357 26.1712 318.701 26.3858 319.043 26.6006C319.526 26.6107 320.038 26.6232 320.578 26.6382C320.587 26.5349 320.597 26.4315 320.607 26.3282C320.185 26.2986 319.748 26.2684 319.372 26.2427C319.681 25.9465 320.009 25.6517 320.354 25.3584C320.664 25.4321 320.973 25.506 321.28 25.58C319.952 25.7879 321.644 26.3942 322.024 26.8401C323.102 27.0712 323.824 26.5817 324.185 26.5839C324.359 26.5844 326.247 27.6875 325.559 26.5813C326.557 26.7858 327.54 26.9919 328.506 27.1994C328.895 27.1506 329.281 27.1019 329.665 27.0536C328.887 26.4966 331.311 26.1107 329.578 25.76C328.276 25.4982 327.904 25.9281 327.269 25.8739C326.694 25.8259 326.412 25.4947 325.779 25.432C321.435 25.0127 317.936 24.8394 313.894 24.7339C313.085 24.7132 312.351 24.5195 311.8 24.5093C311.176 24.4982 311.934 24.9282 311.146 24.7895C310.316 24.6433 310.149 24.3186 309.928 24.3C309.79 24.2889 309.335 24.5482 308.929 24.5263C307.207 24.433 305.027 24.0492 304.77 24.0384C304.53 24.0272 299.964 24.0683 299.727 24.1066C299.609 24.1267 299.807 25.1841 298.836 24.0229C298.519 23.9881 298.2 23.9534 297.881 23.9188C297.923 24.1302 297.966 24.3416 298.009 24.553C296.143 23.6783 296.78 24.1497 294.932 24.0108C290.762 23.6871 284.334 23.6349 279.576 23.4182C278.543 23.37 278.156 23.1076 276.925 23.0537C275.784 23.0041 272.743 23.6696 273.427 22.6519C270.823 23.4796 270.438 21.9234 269.108 22.8552C268.954 22.7109 268.799 22.5667 268.644 22.4225C267.217 22.9902 266.745 22.4495 265.247 22.3421C264.599 22.2956 265.334 22.953 264.038 22.2104C263.786 22.2579 263.534 22.3054 263.281 22.353C263.336 22.5093 263.391 22.6655 263.446 22.8218C261.988 22.663 261.89 22.7422 262.07 22.1656C261.36 22.2561 260.648 22.3468 259.935 22.4379C259.85 22.2457 259.766 22.0535 259.681 21.8613C259.969 21.4895 276.299 22.4286 278.445 22.6862C280.961 22.3275 286.505 23.0501 288.582 23.0256C289.435 23.0154 289.827 22.5987 291.056 22.5934C292.286 22.5882 293.798 23.0398 294.439 23.0799C296.747 23.2112 307.176 23.6134 300.103 22.7489C300.318 22.5484 300.533 22.348 300.747 22.1476C303.534 22.9942 302.537 22.5057 304.847 22.5445C305.823 22.5604 308.053 23.1458 307.991 22.1881C306.222 21.9169 304.31 22.1272 302.727 22.0383C302.573 22.0292 300.713 21.5062 299.726 21.5808C298.835 21.6494 299.411 22.584 297.517 21.4802C296.031 22.4145 295.223 21.4764 294.841 21.3645C294.211 21.172 294.129 21.6612 293.495 21.6933C292.805 21.7292 292.342 21.3844 292.248 21.3786C291.316 21.3324 286.304 21.1064 286.053 21.2982C286.254 21.3925 286.454 21.4868 286.654 21.5811C285.336 21.6759 285.626 21.1827 285.282 21.1106C285.024 21.1037 284.765 21.0968 284.506 21.0899C284.605 21.1977 284.704 21.3054 284.803 21.4132C283.24 21.3389 284.454 21.0156 282.221 20.9528C280.772 20.9126 279.384 21.2693 279.246 21.2357C279.207 21.226 279.645 20.9705 279.089 20.9177C278.171 20.8306 276.566 20.7909 276.375 21.1512C275.92 21.0865 275.969 20.7301 275.909 20.7203C275.653 20.6768 271.063 20.4311 270.223 20.3903C267.917 20.2738 265.33 20.2892 262.915 20.1766C262.664 20.1651 262.819 20.398 262.567 20.3852C262.164 20.3644 260.086 19.9608 259.772 19.9292C258.995 19.8508 256.93 19.9536 256.605 19.8433C256.559 19.8276 257.246 19.5304 256.452 19.4192C255.569 19.2962 256.038 19.7222 255.99 19.7255C254.186 19.8346 253.046 19.5249 251.807 19.4477C251.407 19.4229 250.651 19.7243 250.11 19.6228C250.046 19.6112 250.177 19.3232 250.115 19.3079C249.284 19.1421 248.493 19.6682 248.13 19.6975C247.243 19.7691 247.731 19.3792 247.685 19.3757C247.094 19.3539 246.296 19.4852 245.394 19.4532C241.38 19.3109 238.026 19.2447 233.728 19.2259C233.193 19.2235 232.555 19.4973 232.473 19.4969C232.22 19.4923 232.296 19.1636 231.563 19.1638C230.017 19.1657 228.579 19.1368 227.04 19.1303C226.73 19.1291 226.595 19.4331 226.359 19.4378C225.567 19.4501 222.861 18.6309 222.808 19.6251C221.234 18.7338 220.176 19.4858 218.899 19.4697C215.916 19.4324 211.234 19.2322 208.236 19.3378C207.605 19.3603 207.308 19.6142 206.957 19.627C206.329 19.6501 202.724 19.5003 202.535 19.5405C202.164 19.6171 202.384 20.739 200.493 19.7592C199.384 19.6883 199.515 20.149 199.285 20.1736C197.497 20.357 195.754 19.3294 196.08 20.271C193.995 20.0152 192.641 19.496 191.791 20.3771C191.801 19.9475 190.819 19.6906 189.636 19.8559C190.849 20.5762 190.7 21.037 193.628 20.9032C193.674 20.9011 193.586 20.5904 193.632 20.5883C194.05 20.5671 194.922 20.7236 195.634 20.7068C196.347 20.6899 195.951 20.4775 196.236 20.4816C196.497 20.4859 196.489 20.7832 196.866 20.7875C198.091 20.7995 199.174 20.8823 199.87 20.8883C200.309 20.8918 200.799 20.6311 201.14 20.6315C202.448 20.6351 205.265 20.8445 206.943 20.8208C207.293 20.8151 207.147 20.5215 207.913 20.4995C208.002 20.4969 208.328 20.8035 208.998 20.8691C209.668 20.9346 210.187 20.7847 210.617 20.8179C210.977 20.8457 210.826 21.1166 211.562 21.1364C212.185 21.151 219.098 20.9902 219.495 20.951C220.043 20.8919 220.305 20.5122 220.639 20.5608C220.698 20.5711 220.795 20.9401 220.998 20.9678C224.365 21.4231 231.724 20.9833 235.514 21.0304C243.591 21.1258 250.781 21.449 258.906 21.6955C259.047 21.7625 259.189 21.8294 259.331 21.8963C258.521 21.8825 257.708 21.869 256.894 21.8559C256.885 22.0291 256.877 22.2023 256.868 22.3755C255.766 22.382 255.919 21.9751 255.955 21.7283C255.545 21.8256 255.134 21.923 254.722 22.0206C254.387 21.41 251.619 21.763 250.227 21.7398C249.331 21.7251 248.265 21.4781 247.79 21.4887C246.786 21.5102 246.805 21.8835 246.727 21.8882C246.593 21.8946 245.193 21.545 244.176 21.5435C242.671 21.5407 242.502 22.1105 240.439 21.5979C237.788 21.861 234.796 21.6777 231.994 21.6015C232.528 22.1358 229.995 21.6102 228.845 21.6086C221.809 21.5966 213.178 21.7758 206.046 21.9683C205.128 21.9924 204.434 22.3026 203.922 22.2913C203.645 22.2855 203.524 21.9178 203.138 21.9657C203.071 21.975 203.023 22.3184 202.305 22.369C200.532 22.4955 196.108 21.9198 194.986 22.5799C188.907 22.479 182.813 22.391 176.732 22.3141C176.58 22.4551 176.428 22.5961 176.276 22.7372C175.116 22.0242 170.56 22.4676 168.33 22.4474C164.392 22.4096 159.384 22.2221 155.961 22.2258C155.217 22.2265 154.609 22.4351 153.906 22.4369C153.604 22.4373 153.225 22.1767 152.911 22.1781C149.338 22.1885 144.509 22.5071 140.946 22.5392C132.857 22.6121 125.173 22.7493 116.921 22.8571C89.1223 23.2214 61.5543 23.3959 33.9998 24.2867C33.6302 24.2987 33.657 24.6014 33.3722 24.6112C31.6653 24.6717 28.1292 24.5188 26.0255 24.5925C24.4466 24.6476 22.1141 25.1795 21.6134 24.727C26.9325 23.8638 32.5032 23.7634 38.3635 23.4131C38.7842 23.3882 38.8304 23.0985 38.8818 23.0919C39.7446 22.9693 39.2039 23.3805 40.4711 23.3659C40.8758 23.3611 44.8733 22.3391 44.4254 23.2674C45.3658 22.8761 52.416 22.521 53.6189 22.615C54.0155 22.6426 53.7417 22.9207 53.8206 22.9326C54.1635 22.9845 54.3094 22.6066 54.6159 22.5897C55.4289 22.5472 57.5448 22.8019 57.9521 22.7905C58.8657 22.7661 61.7254 22.3964 62.9375 22.4414C64.0174 22.483 63.824 22.8784 64.7636 22.8936C65.5071 22.9046 64.6869 22.5935 66.3502 22.4578C67.1704 22.3912 70.1044 22.5636 70.8295 22.5485C71.5487 22.5333 72.3471 22.2824 73.3511 22.2795C74.8366 22.2738 77.8728 22.3424 79.2885 22.3893C79.3735 22.3919 79.5864 22.6919 79.7958 22.6814C80.2297 22.66 80.0918 22.287 80.4195 22.2423C80.7321 22.1975 86.4943 22.1319 87.5044 22.1094C88.1889 22.0944 88.6679 22.3093 89.0481 22.3003C89.3465 22.2926 89.3727 21.9791 89.6776 21.97C89.7825 21.968 90.5571 22.2256 91.3249 22.2053C92.0479 22.1855 94.823 21.8773 95.1494 21.8692C95.3602 21.8644 95.1327 22.0908 95.7563 22.0746C96.325 22.0591 96.6946 21.7638 97.0199 21.7539C97.7747 21.7314 98.6258 21.963 99.4324 21.9504C101.754 21.9141 101.634 21.5586 101.773 21.5446C102.16 21.5058 102.322 21.8308 102.45 21.8354C102.989 21.8539 104.315 21.8926 104.8 21.8974C105.388 21.9037 105.623 21.5885 106.242 21.5774C106.702 21.5702 107.638 21.8589 108.695 21.857C111.077 21.8544 113.937 21.8684 116.317 21.8221C117.026 21.8086 117.132 21.5228 117.349 21.5123C118.491 21.4568 119.138 21.7656 119.465 21.7568C121.783 21.6953 125.816 21.1424 127.962 21.073C128.829 21.0448 132.652 21.2274 134.824 21.1611C135.073 21.1539 134.838 20.9338 135.114 20.9655C135.776 21.0414 135.721 21.4959 136.056 21.4783C136.221 21.4683 136.577 21.2084 137.04 21.1777C139.436 21.0185 141.097 21.1999 142.197 21.1746C152.826 20.9308 163.606 20.7291 173.515 20.6421C174.617 20.6326 175.986 20.8964 177.651 20.6277C177.701 20.4865 177.752 20.3453 177.803 20.2042C177.862 20.3425 177.92 20.4808 177.979 20.6191C179.867 20.687 180.581 20.8629 182.508 20.6806C182.674 20.6653 183.179 20.0203 183.495 20.8188C185.403 20.2347 184.356 20.8212 185.774 20.8718C187.193 20.9225 188.57 20.7416 189.945 20.6996C190.698 20.4121 187.535 19.7562 187.328 19.759C186.996 19.7622 186.652 20.1603 186.332 20.1821C185.385 20.2473 184.468 19.9342 184.257 20.2895C183.032 19.9176 184.556 20.101 184.402 19.7636C183.586 19.9054 182.769 20.0475 181.953 20.1897C181.533 19.0414 177.026 20.5562 177.336 19.6805C176.978 19.8571 176.62 20.0337 176.262 20.2104C174.685 19.1195 173.762 19.8965 171.668 20.2337C171.819 20.0926 171.969 19.9514 172.12 19.8103C172.076 19.7519 170.226 19.5371 170.89 20.1316C168.99 19.3539 169.078 20.6641 167.364 19.7267C166.348 19.6113 166.961 20.1577 165.146 20.1597C164.07 20.1613 162.734 19.8825 161.535 19.8709C161.259 19.8692 161.141 20.1886 160.895 20.1904C160.649 20.192 160.527 19.8805 160.23 19.8748C159.615 19.8624 158.82 20.0877 158.436 20.0695C158.093 20.0541 157.599 19.7823 156.771 19.7455C153.881 19.6157 154.758 20.0023 154.303 20.1392C153.814 20.2849 153.458 19.7694 152.483 19.838C152.384 19.8452 152.643 20.1661 152.321 20.1562C152.061 20.1485 151.927 19.7985 151.067 19.7407C150.721 19.7167 145.419 19.6916 144.618 19.694C143.384 19.6967 140.648 20.0228 139.38 20.0347C138.892 20.04 138.366 19.7638 137.848 19.7715C136.158 19.7966 133.319 19.8536 131.124 19.8944C129.135 19.9313 125.681 20.5985 124.6 20.0511C121.842 20.0151 121.188 20.5049 120.981 20.5142C120.425 20.5399 120.155 20.2255 119.43 20.2209C110.111 20.1657 97.9088 20.5775 89.2829 20.7137C69.0056 21.0287 48.3164 21.3227 28.2225 22.0103C28.1603 21.871 28.0982 21.7317 28.0361 21.5924C30.4473 21.4341 33.0819 21.1174 35.5459 20.9961C38.9923 20.8305 43.326 21.3076 45.7375 20.284C44.7767 20.2232 43.2581 20.6311 43.2743 20.135C44.9451 20.0574 46.654 19.9796 48.399 19.9016C48.3525 20.1317 48.3061 20.3617 48.2597 20.5918C50.1522 20.6122 51.8077 20.5225 53.5609 20.5138C53.8628 20.5121 53.6539 20.7248 53.9171 20.7197C54.2118 20.7135 54.007 20.5068 54.0622 20.5038C54.808 20.4841 55.0411 20.6927 55.1323 20.6875C55.3675 20.6735 55.1788 20.4742 55.8578 20.4013C57.1189 20.2653 58.0519 20.7851 57.7299 19.8909C58.1428 19.8814 58.5573 19.8719 58.9735 19.8624C59.0868 20.1052 59.2003 20.3481 59.3138 20.5909C61.8731 19.5418 63.0954 21.2529 64.3986 19.845C64.8504 20.0457 65.3038 20.2463 65.7588 20.447C66.0073 20.1961 66.2564 19.9453 66.5059 19.6945C66.5602 19.9039 66.6145 20.1133 66.6688 20.3228C69.103 20.1145 71.7569 20.3111 74.1763 20.2369C75.8764 20.1849 76.2444 20.0943 77.6706 20.0813C80.8565 20.0533 77.6788 19.699 80.3284 19.1949C80.1947 19.4558 80.061 19.7167 79.9276 19.9775C80.3703 20.0634 80.8143 20.1492 81.2594 20.2351C81.5638 20.0185 81.8688 19.8019 82.1744 19.5853C83.5698 20.6505 84.4525 19.7518 84.641 19.7482C84.7944 19.7472 85.3271 20.3944 86.9705 19.8064C86.3006 20.7181 88.2342 19.7879 88.3927 19.7798C88.5412 19.7733 90.4608 19.9385 91.1806 19.9169C91.7653 19.8999 93.0143 19.6837 93.8943 19.6775C94.6711 19.672 94.5983 19.9786 94.655 19.9807C95.6138 19.9891 95.0087 19.7627 95.7026 19.7388C96.3969 19.715 96.9426 19.9656 97.0926 19.9397C97.1682 19.926 96.9099 19.6462 97.2563 19.6127C98.1856 19.5216 99.8827 19.7415 100.961 19.716C101.343 19.7072 101.821 19.458 102.248 19.4435C102.903 19.4221 103.215 19.7373 103.596 19.7215C103.72 19.7153 104.598 19.206 105.599 19.2658C105.793 19.2779 106.378 20.3156 107.114 18.8203C107.176 19.0281 107.237 19.2358 107.299 19.4436C110.741 19.9059 111.688 18.196 113.254 19.6773C115.78 19.4715 114.036 18.9113 114.312 18.8173C114.49 18.7579 115.319 18.9068 115.41 18.8963C115.57 18.876 115.54 18.6883 115.716 18.6867C118.957 18.6744 117.525 19.0507 118.557 19.2609C121.03 19.7618 122.884 18.5463 118.653 18.9629C118.651 18.858 118.65 18.753 118.648 18.648C119.719 18.733 122.316 18.6495 121.44 18.1291C120.793 17.7178 114.437 18.083 118.014 17.443C118.821 17.2983 119.262 17.686 120.642 16.928C121.55 16.8753 121.693 17.8303 122.921 17.4295C122.723 17.7661 122.525 18.1027 122.327 18.4392C124.012 18.8514 126.089 18.2402 127.394 18.4105C127.837 18.4685 129.454 20.0398 129.062 18.4533C129.806 18.5429 133.329 18.2067 133.991 18.3418C134.147 18.3745 134.373 19.2188 136.646 18.897C136.801 18.789 136.956 18.681 137.111 18.5731C135.051 18.2879 138.68 17.9329 137.684 17.1402C137.353 17.5052 135.723 17.7442 135.448 17.9292C134.995 18.2473 136.36 18.6346 134.626 18.5449C133.517 17.214 136.649 17.7959 136.158 16.5257C138.399 17.0958 138.617 16.5254 139.124 16.4961C141.291 16.3762 142.662 16.4971 144.718 16.3274C145.221 16.5843 141.503 17.0007 141.045 16.8928C142.747 17.8037 139.834 17.8765 138.604 17.3387C138.505 17.6205 138.405 17.9024 138.305 18.1843C139.897 18.0144 141.456 17.9195 143.046 18.1334C143.148 18.0274 143.251 17.9214 143.353 17.8153C142.995 17.6609 142.637 17.5065 142.28 17.3522C143.597 17.0797 142.813 17.9064 144.567 17.1712C144.625 17.4868 144.683 17.8024 144.741 18.118C146.429 17.9961 148.123 17.8748 149.82 17.7543C150.714 18.3798 153.971 18.1154 153.364 17.2999C154.669 17.2308 153.061 17.6813 154.286 17.8707C154.82 17.9528 155.862 17.9687 156.118 17.7458C156 16.965 154.44 16.8808 153.964 16.3481C154.244 16.1714 161.515 16.6734 160.863 15.765C161.444 15.651 161.18 16.1237 162.23 16.2369C165.17 16.5521 169.74 15.5945 172.099 16.7508C169.33 17.4149 168.504 16.7315 166.367 16.717C164.998 16.7057 156.709 16.6553 158.567 17.4684C158.263 17.3657 157.958 17.2631 157.653 17.1605C157.348 17.4088 157.043 17.6572 156.738 17.9056C157.603 17.9341 158.469 17.9628 159.336 17.9918C159.541 17.7449 159.746 17.498 159.951 17.2511C160.048 17.4256 160.144 17.6 160.241 17.7745C160.606 17.8066 160.972 17.8388 161.337 17.871C161.233 17.6611 161.129 17.4513 161.025 17.2415C161.587 17.2014 162.15 17.1615 162.714 17.1216C162.564 17.404 162.414 17.6864 162.264 17.9688C164.918 18.0215 164.019 17.8515 165.489 17.3157C166.589 17.2551 164.733 17.8073 167.063 17.9304C169.772 18.0741 167.995 17.2241 171.487 17.3893C171.538 17.5294 171.589 17.6695 171.64 17.8096C172.407 17.6653 173.174 17.5211 173.942 17.3772C173.841 17.5522 173.741 17.7272 173.64 17.9023C175.225 17.827 177.413 18.1512 177.936 17.4644C176.329 17.8005 176.34 16.6049 176.757 16.3834C177.616 15.9247 190.388 16.3096 192.86 16.3426C196.023 16.3787 198.411 15.9967 201.291 16.5889C199.341 17.0674 192.462 16.6721 191.156 17.0087C191.027 17.0416 191.065 18.1376 190.232 16.9054C187.555 17.1178 184.352 16.7751 181.008 16.8218C181.111 17.137 181.214 17.4522 181.317 17.7675C183.371 17.0898 185.277 18.5595 185.006 17.3342C185.416 17.3332 185.825 17.3323 186.234 17.3314C186.235 17.5426 186.235 17.7538 186.236 17.965C186.853 17.9637 187.47 17.9625 188.086 17.9614C188.086 17.7502 188.086 17.5391 188.085 17.3279C188.596 17.327 189.107 17.3262 189.618 17.3255C189.672 17.536 189.725 17.7465 189.779 17.957C191.309 17.5167 196.52 18.6845 194.229 17.4277C194.947 17.4275 195.665 17.4274 196.382 17.4275C196.38 17.5819 196.377 17.7363 196.375 17.8908C196.683 17.9116 196.992 17.9324 197.3 17.9533C197.198 17.8134 197.097 17.6736 196.995 17.5339C198.408 17.7847 199.747 17.0501 200.673 17.5347C200.062 17.6396 199.451 17.7446 198.839 17.8497C200.013 17.6499 202.169 18.0684 202.364 18.0699C202.957 18.0729 203.27 17.7613 203.913 17.7467C204.492 17.7344 204.412 17.9741 204.52 17.9659C207.645 17.7289 206.458 16.4277 207.91 17.969C208.066 17.7595 208.222 17.55 208.377 17.3406C208.583 17.5164 208.789 17.6922 208.995 17.868C209.915 17.8545 210.835 17.8414 211.754 17.8286C211.446 18.0898 211.139 18.351 210.831 18.6123C212.209 18.7347 212.852 18.2114 212.986 18.1999C213.363 18.1709 213.534 18.5019 213.65 18.5031C219.247 18.5018 215.849 18.1942 218.649 16.9689C219.655 17.4617 218.627 17.9437 218.487 18.4383C219.824 18.2138 220.246 18.3536 221.659 18.3355C222.026 18.3304 222.423 18.066 222.655 18.064C222.856 18.0622 223.481 18.3506 223.962 18.3554C224.763 18.3634 225.831 18.2024 226.925 18.2156C227.836 18.2272 230.613 18.4522 232.541 18.474C233.363 18.4823 233.175 18.2429 233.387 18.2446C233.476 18.2455 234.113 18.5366 234.639 18.5434C239.02 18.5967 243.49 18.4744 247.807 18.5462C250.805 18.5954 254.025 18.8793 257.097 18.915C257.753 18.9223 257.41 18.7068 257.697 18.705C257.795 18.705 257.907 19.0716 258.921 18.9451C259.287 18.8996 258.872 18.6363 259.232 18.6308C259.406 18.6283 259.475 18.9491 260.492 19.0429C262.338 19.2142 263.331 18.8105 263.495 18.8267C263.804 18.858 263.708 19.1204 264.116 19.1389C266.083 19.2293 267.846 19.3159 269.667 19.3836C270.535 19.4134 276.355 19.6243 276.66 19.5877C277.37 19.5025 276.728 18.9315 277.634 18.9767C277.884 19.1238 278.133 19.271 278.382 19.4182C277.976 19.5124 277.571 19.6067 277.164 19.7012C278.281 19.5559 279.524 19.8447 280.338 19.8603C280.467 19.862 281.932 19.6573 282.665 19.7085C282.356 19.5947 282.046 19.481 281.735 19.3673C281.849 19.2824 281.963 19.1975 282.077 19.1125C283.548 19.2937 285.096 19.3418 286.584 19.3746C287.12 19.3868 286.946 19.1656 287.488 19.1773C290.631 19.2452 289.807 20.1092 292.849 18.5472C291.85 18.6588 288.156 18.3085 287.604 18.346C287.225 18.3715 285.702 19.7375 286.293 18.3019C283.24 18.2043 285.871 19.0957 283.01 18.8257C283.074 18.65 283.137 18.4744 283.2 18.2988C282.2 18.1542 281.455 18.0409 280.833 18.3351C280.667 17.4673 277.367 17.8711 275.537 17.7625C272.901 17.6059 269.885 17.3178 267.204 17.2173C266.276 17.1828 265.76 17.5088 265.651 17.5052C265.488 17.499 265.035 17.1929 264.708 17.1834C263.493 17.1467 259.739 17.5677 258.814 16.7289C266.052 16.8722 273.694 17.0607 280.859 17.2844C279.91 17.6553 287.495 17.9434 287.846 17.9405C288.196 17.935 287.912 17.6413 288.017 17.6278C288.795 17.534 289.437 17.9687 289.681 17.9777C289.867 17.9846 290.251 17.8058 290.909 17.8349C291.03 17.84 291.056 18.045 291.186 18.0505C292.044 18.0831 292.886 18.113 293.738 18.148C293.79 18.1481 294.017 17.8591 294.231 17.8672C294.446 17.8759 294.647 18.1818 294.701 18.1849C295.396 18.2109 296.651 18.0694 297.324 18.0962C297.559 18.1063 297.386 18.3172 297.65 18.3264C298.457 18.356 298.211 17.9179 299.199 18.0714C299.53 18.1231 299.494 18.4482 300.13 18.4337C300.58 18.4233 300.558 17.84 300.63 17.8221C300.731 17.8009 302.249 18.3308 302.764 17.9743C301.719 16.9185 303.961 17.9787 303.828 18.3974C304.435 18.3198 305.039 18.2426 305.64 18.1658C305.838 18.2833 306.036 18.4008 306.233 18.5183C308.573 18.1529 310.259 18.5344 312.681 18.524C312.802 18.523 314.859 18.4051 314.77 18.249C313.571 17.9164 312.339 17.8338 311.517 18.2689C310.257 17.2811 310.194 18.0076 308.058 17.7728C307.389 17.6965 307.353 17.4459 307.276 17.4387C304.676 17.1783 300.357 16.87 298.466 17.5168C297.957 17.2977 299.82 17.3016 299.104 17.1251C298.657 17.0176 289.352 16.4148 292.291 17.3692C291.987 17.3342 291.683 17.2993 291.377 17.2644C291.103 16.4627 289.565 16.5863 289.709 17.3796C289.57 17.2132 289.43 17.0469 289.291 16.8805C289.008 16.7338 288.67 16.6484 288.192 16.5879C286.344 16.3463 275.376 16.2822 274.831 16.1621C274.823 15.9751 274.815 15.788 274.807 15.6009C279.557 15.5211 284.341 16.1345 289.609 15.7929C289.45 15.9623 289.292 16.1318 289.133 16.3013C291.242 16.1327 293.284 15.9661 295.381 15.8066C293.193 15.3986 289.744 15.0007 287.379 15.1794C286.96 15.2113 287.257 15.4661 287.161 15.4923C286.907 15.5604 286.654 15.1273 285.752 15.0552C284.852 14.9827 282.551 15.2082 282.339 15.1933C281.937 15.1629 280.836 14.643 280.192 14.6295C279.32 14.6113 279.895 14.9292 279.72 14.9302C278.995 14.9376 278.347 14.7696 277.775 14.775C276.927 14.783 275.141 15.2605 274.562 14.4695C275.175 14.451 275.787 14.4327 276.396 14.4146C273.1 14.0431 270.457 14.9656 267.137 14.1223C266.4 13.1661 269.157 13.3585 266.832 12.9027C267.256 12.9261 267.68 12.9496 268.103 12.9732C268.197 13.1721 268.291 13.371 268.386 13.5698C269.117 13.4472 269.846 13.3248 270.573 13.2029C270.362 13.3727 270.151 13.5426 269.94 13.7126C272.508 13.9087 275.058 14.1591 275.965 13.2429C276.01 13.4719 276.056 13.701 276.101 13.93C278.459 13.7189 281.875 14.7913 281.289 13.5058C281.401 13.5765 281.513 13.6472 281.626 13.7179C283.094 13.5055 282.453 14.0093 282.998 14.086C283.157 14.1072 285.976 13.9308 284.744 13.5133C287.489 13.3187 286.6 14.4739 287.348 14.5517C289.111 14.026 292.152 15.0219 290.893 14.0469C291.149 14.0217 291.405 13.9966 291.661 13.9715C292.468 14.7321 293.318 13.9397 294.225 13.6999C294.53 13.6957 294.829 13.6913 295.138 13.6874C295.344 13.9413 295.549 14.1953 295.753 14.4493C298.808 13.4084 297.714 16.5597 299.191 13.9381C298.987 13.7684 298.783 13.5988 298.578 13.4292C298.078 13.3311 297.577 13.2332 297.074 13.1356C299.119 13.1512 301.135 13.1707 303.121 13.1941C305.704 12.5651 306.917 13.4421 309.879 13.0053C310.147 13.0914 310.414 13.1775 310.681 13.2637C310.438 12.6419 309.384 12.673 311.353 12.5087C311.544 12.0889 310.228 11.9603 309.602 12.2569C309.452 12.3294 310.677 12.725 309.279 12.6613C308.352 12.6207 309.996 12.1893 307.295 12.2401C307.4 12.1403 307.504 12.0406 307.609 11.9409C307.319 11.9289 307.028 11.9171 306.737 11.9053C306.466 12.1348 306.194 12.3643 305.922 12.5939C305.271 12.2102 304.922 11.6999 303.371 11.7304C303.783 11.9025 303.192 12.3623 302.423 12.318C302.431 12.1424 302.439 11.9669 302.448 11.7913C300.584 11.5917 301.207 12.1366 299.658 11.6641C299.495 11.7968 299.331 11.9294 299.167 12.0621C298.343 11.4481 295.157 10.9231 295.704 11.8103C294.825 10.9339 293.063 11.2429 292.355 11.8873C292.31 11.7109 292.265 11.5345 292.22 11.3581C291.864 11.309 291.507 11.2599 291.15 11.211C290.946 11.3089 290.741 11.4069 290.537 11.505C290.286 11.3899 290.034 11.2749 289.782 11.16C289.621 11.3294 289.46 11.4988 289.299 11.6682C288.895 11.4434 288.49 11.2187 288.083 10.9941C287.825 11.1247 287.566 11.2555 287.308 11.3862C287.297 11.0198 284.772 10.8516 284.049 11.0683C283.84 10.9551 283.631 10.842 283.422 10.729C283.313 10.8994 283.203 11.0699 283.094 11.2404C282.94 11.0962 282.786 10.952 282.631 10.8078C282.261 10.9352 281.891 11.0626 281.52 11.1902C280.077 10.2919 280.035 11.0397 279.702 11.0242C279.099 10.9957 277.038 10.401 276.687 10.4187C276.338 10.4365 276.161 10.7377 275.879 10.7585C271.207 11.1107 273.138 10.3434 272.204 10.188C271.697 10.1039 271.329 10.38 270.879 10.3369C270.119 10.2636 266.184 9.79104 265.979 9.8242C265.66 9.87026 266.377 11.2335 265.352 10.8629C265.336 10.1391 263.103 10.8194 264.162 9.83435C263.246 9.90254 262.328 9.97126 261.407 10.0405C261.529 9.18581 260.384 9.71301 259.143 9.64074C257.391 9.53808 253.399 8.90239 253.528 9.78451C253.104 9.57501 252.681 9.36562 252.256 9.15633C249.326 9.38318 246.584 9.05112 243.709 9.00076C235.135 8.84896 226.011 8.95665 217.487 9.08336C217.083 9.0897 217.139 9.37722 216.848 9.38201C215.319 9.40503 211.332 9.18405 209.174 9.2409C208.483 9.25871 208.146 9.53788 207.927 9.55009C207.183 9.59335 207.359 9.22478 207.017 9.23439C206.476 9.2496 203.613 9.58565 202.625 9.62025C202.134 9.63722 201.564 9.34309 200.995 9.43295C200.946 9.44025 201.036 9.74265 200.994 9.74788C199.958 9.78364 200.582 9.52309 200.231 9.53643C197.732 9.63201 195.056 9.63749 192.338 9.70195C191.663 9.7183 190.631 9.93247 190.051 9.95332C189.83 9.96071 190.226 9.73081 189.462 9.75087C189.2 9.75774 189.111 10.0561 188.816 10.0759C187.543 10.1593 187.115 9.20177 186.022 9.97493C183.91 9.92844 180.234 9.69352 178.309 9.69586C177.853 9.69671 177.632 9.87372 177.198 9.87231C176.89 9.87143 176.347 9.60078 175.867 9.59953C175.387 9.59842 174.63 9.8616 173.706 9.85646C172.734 9.85147 171.525 9.7033 171.306 9.7054C171.042 9.70678 170.92 10.0356 170.656 10.0329C169.859 10.0265 167.709 9.71607 166.672 9.68763C165.56 9.65746 164.894 9.82095 164.514 9.82024C164.163 9.81813 163.751 9.54388 163.59 9.54251C163.341 9.53996 163.284 9.86403 162.967 9.86348C162.449 9.86172 161.913 9.66186 161.137 9.66199C147.221 9.66084 133.385 9.99101 119.918 10.4154C118.381 10.4635 117.509 10.2487 115.263 10.3852C114.354 10.4409 114.742 10.7692 114.034 10.7166C113.718 10.6928 113.794 10.4289 113.396 10.4221C111.635 10.3935 109.605 10.6692 108.851 10.6768C108.552 10.6802 108.206 10.3873 107.594 10.3926C103.092 10.43 97.4178 10.6096 92.5684 10.6455C90.0551 10.6631 85.8991 10.5886 82.9064 10.6268C74.7211 10.7291 65.7013 10.9899 58.0175 11.1371C46.8181 11.3509 35.0192 11.3731 23.6442 12.027C29.2777 11.1422 36.4194 11.0105 42.2692 10.7845C59.4699 10.1242 77.8371 10.1507 95.4999 9.82414C101.667 9.7098 109.37 9.6012 116.122 9.3362C116.429 9.32432 117.07 9.54448 117.736 9.51062C117.876 9.5029 119.631 9.05935 120.223 9.04692C119.686 9.79843 121.938 9.10396 122.642 9.11248C123.527 9.12382 125.38 9.47069 127.466 9.23365C129.36 9.01921 128.835 8.73982 128.939 8.7205C129.609 8.59606 129.85 9.05431 130.366 9.09452C132.511 9.25155 143.264 8.86278 146.294 8.81901C147.075 8.80718 147.094 8.51385 147.27 8.51109C147.737 8.50467 148.404 8.78789 149.152 8.77898C150.5 8.76222 152.064 8.47172 152.798 8.46435C154.555 8.44582 157.902 8.74513 160.2 8.73492C160.847 8.73212 160.805 8.42736 161.097 8.42632C162.385 8.42222 165.748 8.75947 167.353 8.75336C169.965 8.74306 172.616 8.53201 175.259 8.62075C175.426 8.48391 175.593 8.34708 175.759 8.21025C176.024 8.35193 176.288 8.49363 176.553 8.63535C181.016 8.50797 185.565 8.80183 190.01 8.77604C190.522 8.77305 193.055 8.51035 193.478 8.50924C193.829 8.50906 194.175 8.84605 194.695 8.79625C195.425 8.72722 194.738 8.08521 195.93 8.26881C196.25 8.3185 195.939 8.59329 196.583 8.67904C196.796 8.70712 200.916 8.8215 201.137 8.80327C201.505 8.7717 201.835 8.18338 201.93 8.17084C202.424 8.10513 202.405 8.55698 202.739 8.59874C203.725 8.7237 205.013 8.42255 205.173 8.42961C207.11 8.51712 210.72 8.88939 212.741 8.68488C213.021 8.6563 212.989 8.31967 213.038 8.30895C213.355 8.24061 213.55 8.62458 213.851 8.63481C215.476 8.68533 217.99 8.4407 219.64 8.38546C219.83 8.37949 220.229 8.56625 220.567 8.55056C222.479 8.45945 221.86 8.15984 221.969 8.14782C222.227 8.11819 222.677 8.44741 223.36 8.47249C225.122 8.53868 228.488 8.51941 230.359 8.51191C231.762 8.50502 231.744 8.13156 231.836 8.12501C232.032 8.11353 232.575 8.41702 233.495 8.4603C235.262 8.5453 235.067 8.25006 235.808 8.27081C235.87 8.27152 235.759 8.55739 236.582 8.59626C238.172 8.67073 241.728 8.4327 243.408 8.47107C244.055 8.48525 244.202 8.76424 244.863 8.7789C245.913 8.803 248.272 8.53926 248.456 8.54311C248.508 8.54393 248.62 8.86428 248.925 8.86909C249.26 8.87433 249.593 8.71566 249.843 8.72074C251.241 8.74728 253.792 9.34778 253.102 8.19851C253.565 8.48735 254.027 8.77631 254.488 9.06539C257.534 9.06415 260.462 9.23478 263.416 9.35641C264.081 9.38359 264.639 9.18066 265.198 9.20378C265.729 9.22596 268.281 9.64247 268.702 9.65987C269.467 9.68888 273.737 9.83699 274.258 9.82705C275.289 9.80648 276.295 9.36486 276.709 9.46869C277.04 9.5522 276.724 9.80799 277.357 9.90134C278.454 10.0627 280.317 9.77892 280.648 9.79463C280.802 9.80163 280.478 9.9977 281.881 10.0566C282.63 10.0888 283.037 9.87455 283.308 9.88439C283.392 9.88841 283.256 10.2524 284.728 10.2518C285.743 10.2508 286.181 9.98147 286.288 9.98402C286.446 9.9876 286.819 10.3042 287.455 10.3159C288.943 10.3412 291.639 10.093 293.016 10.121C293.282 10.1262 293.179 10.4888 294.238 10.4973C294.995 10.5034 294.874 10.2066 295.157 10.2064C295.625 10.2075 296.324 10.5936 297.363 10.6261C298.736 10.6591 308.166 10.7393 308.606 10.6765C308.954 10.6303 309.352 10.6475 309.53 10.4983C309.393 10.3387 309.255 10.1792 309.118 10.0197C307.594 10.4733 308.254 9.89794 307.868 9.83851C307.331 9.75399 305.263 9.7278 304.763 9.56849C304.585 9.51098 305.014 9.20684 304.055 8.99337C303.024 8.76518 302.529 9.32048 302.149 8.5128C300.619 9.31886 299.212 8.32598 300.963 8.15597C301.975 8.05353 311.28 8.20664 313.353 8.29033C314.946 8.34214 317.848 8.75446 319.712 8.81787C320.725 8.84643 323.731 9.01544 323.611 8.58754C324.651 8.60916 323.525 8.94707 323.738 9.02066C324.195 9.17292 327.399 9.12331 327.977 9.18267C330.807 9.45824 334.586 10.2577 337.549 10.0218C337.426 9.89679 337.302 9.77177 337.179 9.64679C336.562 9.37603 333.44 9.38288 333.118 8.81603C337.849 9.23995 341.63 9.6209 346.479 10.2324C346.423 10.674 351.649 11.3911 352.054 11.2621C351.981 11.026 351.908 10.7899 351.833 10.5539C348.693 10.9384 349.146 9.88649 346.97 10.194C346.108 10.0915 346.413 9.76095 345.993 9.63764C341.728 8.42236 345.859 10.3716 342.525 9.65223C343.514 9.22841 341.053 8.75301 339.924 8.5691C339.684 8.52499 336.202 8.31303 335.763 8.26714C333.277 7.98171 329.527 7.3738 327.21 7.49028C325.407 7.387 324.423 6.93522 322.739 6.72898C321.455 6.57316 321.805 6.86486 321.195 6.82656C320.008 6.75405 319.678 5.91969 318.842 6.99978C318.045 6.80714 317.24 6.61533 316.428 6.42435C316.417 6.5998 316.406 6.77524 316.396 6.95069C315.88 6.91914 315.363 6.88793 314.843 6.85705C314.7 6.6731 314.557 6.48918 314.414 6.30528C312.739 6.44783 313.406 6.91108 313.067 7.3899C312.705 7.40337 312.341 7.41698 311.976 7.43076C311.717 7.03354 311.457 6.63639 311.195 6.23931C309.543 6.17936 307.947 6.12689 306.414 6.08097C306.304 6.25087 306.195 6.42078 306.086 6.5907C306.091 6.41559 306.097 6.24048 306.102 6.06537C303.471 5.89784 300.783 5.73755 298.044 5.58418C297.334 5.27121 301.71 5.25017 302.026 5.24993C303.865 5.23859 308.556 5.75807 308.583 5.13623C309.713 5.66021 313.223 5.73897 314.307 5.24439C312.687 5.18306 311.043 5.12491 309.375 5.06984C309.44 4.86365 309.505 4.65747 309.57 4.4513C307.481 5.18641 307.28 5.12972 305.282 4.23181C305.266 4.51213 305.25 4.79246 305.235 5.07278C303.875 4.02775 301.262 5.56504 301.242 4.35806C300.471 4.42076 299.696 4.48403 298.916 4.54787C297.278 4.3323 299.788 3.50247 293.381 3.60824C292.944 3.61658 293.023 3.92685 292.368 3.88045C292.178 3.86698 291.115 3.37823 289.011 3.3487C288.683 3.3443 288.648 3.6096 288.306 3.63123C287.516 3.68323 285.952 3.10243 286.64 3.9851C283.482 4.12817 284.808 3.46883 283.836 3.15627C283.185 2.94912 283.301 3.46109 282.735 3.32766C282.056 3.16343 282.493 2.66344 279.799 2.81678C280.102 2.86077 280.405 2.90482 280.708 2.94894C280.551 3.08333 280.394 3.21773 280.237 3.35216C278.699 2.97147 278.829 3.46384 278.119 2.66052C276.976 2.97604 275.993 2.97563 274.429 2.8695C271.383 2.66439 272.976 1.86233 269.437 2.90847C268.87 2.73515 268.302 2.56204 267.733 2.38914C266.787 2.70182 267.522 3.13817 266.138 3.19056C267.218 2.38771 264.349 2.62361 263.876 1.87591C263.822 2.05052 263.767 2.22514 263.712 2.39975C263.407 2.39307 263.102 2.38645 262.797 2.37988C262.799 2.23891 262.801 2.09793 262.803 1.95696C262.394 2.05377 261.984 2.1507 261.574 2.24771C261.27 2.10155 260.966 1.95544 260.662 1.80939C260.15 2.09374 259.638 2.37824 259.125 2.66289C258.806 2.6767 258.487 2.69057 258.168 2.7045C258.273 2.49655 258.378 2.2886 258.483 2.08067C258.072 2.14281 257.66 2.20505 257.248 2.26739C257.732 1.93214 257.441 1.52225 256.158 1.50885C255.098 1.49786 256.281 2.23824 254.004 1.89825C253.844 1.87425 253.574 1.35581 251.405 1.24009C248.855 1.10311 250.092 1.49512 249.638 1.50056C249.549 1.50124 248.779 1.23085 248.053 1.1827C247.641 1.1553 247.24 1.35764 247.185 1.35628C246.931 1.34294 246.861 1.04708 246.507 1.03119C245.61 0.992509 244.4 1.11972 243.516 1.09293C243.115 1.08108 242.738 0.901369 242.559 0.896858C242.28 0.891112 241.923 1.15316 241.641 1.14843C240.601 1.12916 239.025 0.224708 238.524 1.44821C237.532 0.305617 235.401 1.64868 235.564 0.892409C232.91 1.14699 225.83 0.155388 226.02 1.43213C224.516 0.331066 224.644 1.12105 224.01 1.09993C223.3 1.07678 223.669 0.86819 223.104 0.873655C221.785 0.886495 220.522 0.968989 219.205 0.965316C219.411 1.14111 219.617 1.31692 219.822 1.49274C218.439 1.54038 218.917 1.13695 217.526 1.05086C214.966 0.894481 216.043 1.22454 215.663 1.68008C215.767 1.2386 212.742 1.2932 212.433 1.35037C212.248 1.38509 213.053 1.95752 211.198 1.76659C211.3 1.59181 211.402 1.41704 211.504 1.24227C210.658 1.47835 208.359 1.1667 207.967 1.22462C207.788 1.25155 206.825 2.66138 205.948 1.54138C205.842 1.71628 205.735 1.89119 205.628 2.0661C204.653 1.8532 203.676 1.64066 202.698 1.42847C202.542 1.74375 202.385 2.05904 202.228 2.37434C201.92 2.37387 201.613 2.37342 201.305 2.37301C201.509 2.09314 201.714 1.81329 201.919 1.53345C200.017 1.65726 197.69 1.21429 197.297 2.15906C196.889 1.98374 196.481 1.80848 196.073 1.63328C195.807 1.94758 195.542 2.26191 195.276 2.57625C193.385 2.49734 193.354 2.2874 192.06 1.95339C192.111 2.1987 192.162 2.44401 192.213 2.68932C191.259 2.34553 189.516 2.02675 188.138 1.98583C187.483 1.96692 186.359 2.30729 186.205 2.277C186.049 2.24496 184.51 0.920181 184.346 2.07076C182.085 1.56721 181.092 2.09094 180.175 2.0813C179.58 2.0748 179.307 1.79972 178.634 1.77368C177.671 1.73604 176.703 1.87345 176.148 1.8568C175.83 1.84652 175.77 1.57757 175.551 1.57006C174.515 1.53355 175.123 1.80591 174.032 1.79295C173.931 1.79031 173.132 1.46562 172.234 1.51234C171.732 1.53814 170.435 1.91436 170.32 1.91412C169.811 1.91057 170.217 1.1697 168.48 2.03238C168.53 1.89171 168.58 1.75105 168.63 1.61039C166.466 1.26674 166.13 1.8951 165.694 1.94108C165.638 1.94499 165.111 1.70636 164.797 1.7417C164.266 1.80212 164.054 2.13478 163.937 2.15014C163.523 2.20356 162.128 2.06727 161.22 2.39398C161.404 1.44981 158.214 1.13791 157.519 2.21097C156.954 2.0048 156.389 1.79871 155.825 1.5927C155.572 1.77053 155.319 1.94837 155.066 2.12623C154.91 1.95234 154.754 1.77846 154.598 1.60459C153.781 1.99711 152.971 2.38976 152.151 2.78268C152.095 2.39681 152.038 2.01095 151.982 1.62509C151.751 1.67106 151.519 1.71705 151.288 1.76306C151.109 2.07165 150.931 2.38025 150.753 2.68887C150.463 2.63288 150.173 2.57691 149.883 2.52097C149.809 2.29947 149.735 2.07797 149.662 1.85648C148.105 1.61487 148.921 3.72582 145.948 1.89173C145.49 2.0714 145.033 2.25111 144.576 2.43088C144.049 1.58359 143.084 2.10967 142.302 2.02202C141.751 1.96016 141.777 1.62118 141.027 1.62161C140.278 1.62221 140.308 1.94581 140.25 1.94855C139.64 1.97505 139.177 1.69453 138.73 1.75636C138.663 1.76555 138.498 2.15199 137.929 2.18273C137.36 2.21339 137.013 1.80819 136.168 1.895C135.731 1.93911 135.603 2.26466 135.212 2.29787C133.344 2.459 131.449 0.840878 130.081 2.80443C129.764 2.56166 127.481 1.72717 126.514 1.78949C125.01 1.88837 125.596 2.2626 124.999 2.34037C124.913 2.35209 124.453 2.2291 123.197 2.26922C122.972 2.27645 123.021 2.0602 122.989 2.05778C121.536 2.08151 118.669 2.2917 117.019 2.34634C116.873 2.35163 116.097 1.76183 114.817 2.58909C112.889 2.02027 109.327 3.35753 106.835 2.49746C106.491 2.48393 106.078 2.70553 105.926 2.70065C104.614 2.65533 105.102 1.99434 102.064 3.00008C102.306 2.66325 101.587 2.37468 100.585 2.41689C99.0807 2.4804 100.159 3.08276 98.9518 3.05261C98.9488 2.87747 98.9458 2.70233 98.9428 2.52719C96.1826 3.04587 95.6223 2.30668 92.8839 2.35141C91.8998 2.368 90.4645 2.78245 90.2328 2.78778C90.152 2.78811 89.046 2.38611 88.9346 2.38502C88.3351 2.38345 88.0013 2.58444 87.4864 2.59514C85.7834 2.6311 83.7689 2.12039 84.151 3.11075C83.6847 2.9091 83.2197 2.70748 82.7559 2.50587C81.0396 3.60461 79.7294 2.16226 79.3904 3.20379C79.0797 2.99631 78.7695 2.78883 78.4599 2.58137C70.9503 2.83987 63.7931 3.10203 56.087 3.38872C55.7738 3.06282 52.5664 3.25635 52.4136 3.31197C51.6744 3.56427 52.4742 4.27127 50.9584 4.14157C50.7839 3.82768 50.6097 3.51379 50.4357 3.19989C48.5174 3.14258 49.4184 3.43739 48.6385 3.67194C48.3017 3.64091 48.4038 3.39157 47.9503 3.38468C45.4615 3.34673 40.6506 3.45623 38.174 3.50097C37.6207 3.51114 37.7109 3.73956 37.5397 3.74461C37.0695 3.75476 36.1402 3.48831 35.2215 3.51251C29.6579 3.66126 21.9512 4.04138 16.1907 4.46279C15.8048 4.49151 15.7667 4.76795 15.5101 4.7896C15.153 4.81846 14.368 4.62032 14.0124 4.65471C13.6759 4.68639 13.4688 4.90197 13.1177 4.93746C11.7074 5.09581 8.76836 4.83818 7.2084 5.50856C7.13727 5.53699 6.66685 5.84319 6.23624 6.15089C5.72067 6.46151 5.11063 6.77856 5.10286 6.81521C4.86067 7.25566 6.68491 7.86673 3.72594 8.60605C5.00603 8.83406 5.58098 9.19554 5.25006 9.57902C4.94697 9.9618 3.76621 10.366 2.38886 10.6581C3.08151 10.6922 3.8733 10.7238 4.76191 10.7529C5.2062 10.7675 5.67466 10.7815 6.16689 10.795C6.59004 10.8108 6.90682 10.8306 7.2948 10.8479C7.30092 10.9631 7.30704 11.0783 7.31316 11.1936C6.97592 11.3481 6.6483 11.4786 6.32028 11.5892C5.86696 11.7042 5.40719 11.7996 4.95109 11.8789C4.0392 12.0375 3.10644 12.1331 2.18785 12.1962C2.24931 12.3006 2.31147 12.405 2.37434 12.5094C3.98646 12.9787 7.02293 12.9712 8.25984 13.6584C7.19583 13.9641 6.26335 14.2657 4.92974 14.5835C4.33024 14.74 3.77636 14.8954 3.2693 15.0496C3.01577 15.1267 2.77395 15.2035 2.54397 15.28C2.41913 15.3186 2.34979 15.3551 2.17835 15.3957C1.98756 15.4371 1.80584 15.4782 1.63327 15.5191C1.77581 15.5975 1.92405 15.6757 2.07799 15.7538C3.01504 15.9338 5.28343 15.9788 6.45406 16.1425C7.96715 16.4791 7.34207 16.6462 6.37828 16.7875C5.11995 16.939 3.82006 17.0574 4.35209 17.2751C6.41988 17.1906 7.89546 17.1322 9.75031 17.062C10.6464 17.028 11.7179 16.989 12.6054 16.9565C13.417 16.9263 14.2626 16.8954 15.1413 16.8639C15.571 17.1912 1.34699 18.6331 1.73156 19.697C2.57738 19.6973 2.85501 19.7224 3.40563 19.7366C3.91753 19.7524 4.47733 19.767 5.08368 19.7804C4.55403 20.0677 4.06183 20.3541 3.60824 20.6395C3.73925 20.7194 3.8731 20.7993 4.00978 20.879C4.87997 20.9504 6.15599 21.009 7.0192 21.0832C7.85878 21.1582 8.76413 21.2316 9.73289 21.3036C4.34777 21.2716 0.854448 21.5665 0.267695 23.7172C0.354614 23.7661 0.456258 23.8145 0.57122 23.8625C1.86387 22.4693 7.56793 22.6936 10.7424 22.8551C10.0286 23.2648 7.35772 23.056 6.90811 23.3049C6.7662 23.3765 7.27881 23.6272 6.94907 23.7761C6.50962 23.9699 4.87333 24.2322 3.88687 24.4842C3.36941 24.611 2.95318 24.737 2.69878 24.8575C2.36323 24.9811 2.11507 25.1023 2.3319 25.2029C2.75711 25.3262 3.94973 25.4445 6.26201 25.4906C8.17967 25.5507 10.0616 25.5778 10.8302 25.5379C7.684 26.1476 4.50688 26.398 1.37449 27.1478C1.62038 27.2439 1.89462 27.3422 2.19883 27.4403C2.35098 27.4893 2.51072 27.5384 2.67869 27.587C2.82805 27.6364 2.89283 27.6891 3.0047 27.7396C3.41974 27.9427 3.88652 28.1375 4.44921 28.304C5.01272 28.4705 5.6716 28.6086 6.49622 28.6977C7.33882 28.7863 7.86988 28.8422 8.77496 28.8232C9.92664 29.2305 2.3676 30.1195 2.18311 30.3824C2.37903 30.407 2.589 30.4313 2.81256 30.4553C2.97632 30.4816 3.0856 30.5102 3.2287 30.5375C3.50386 30.5925 3.79647 30.647 4.10607 30.7011C4.72528 30.8093 5.41244 30.9157 6.16462 31.0205C4.89772 30.9954 3.81684 30.9657 2.93825 30.9306C2.93919 31.0185 2.94014 31.1064 2.94109 31.1943C4.06148 31.3536 5.57867 31.587 7.19127 31.7629C8.44958 31.951 9.89593 32.0768 11.6996 31.9929C11.5808 32.4618 9.48776 32.4841 8.60885 32.5185ZM328.653 6.5343C328.752 6.15524 327.515 6.12085 326.808 6.07487C326.919 6.01294 327.03 5.95103 327.141 5.88915C325.647 5.84563 322.769 5.78955 322.708 5.03633C321.604 4.86667 322.049 5.54987 321.685 5.59909C321.503 5.61616 320.209 5.14905 319.094 5.53904C318.837 5.5206 318.58 5.50226 318.322 5.48401C318.287 5.23597 318.253 4.98793 318.218 4.73989C317.838 5.01426 317.458 5.28882 317.076 5.56357C320.729 5.84198 324.865 6.1798 328.647 6.53385C328.649 6.534 328.651 6.53415 328.653 6.5343ZM290.356 4.11422C288.971 4.20104 286.82 4.34475 287.276 3.68837C288.159 3.7546 289.037 3.82146 289.911 3.88894C290.059 3.96402 290.208 4.03911 290.356 4.11422ZM152.319 3.40927C151.16 4.08098 150.082 3.51828 148.287 3.65455C148.288 3.51477 148.29 3.37499 148.291 3.2352C149.028 3.56383 150.969 3.32269 152.319 3.40927ZM364.311 14.1893C364.6 14.2181 364.887 14.2487 365.173 14.2811C364.277 13.2303 363.924 13.6797 362.623 13.2673C362.544 13.2425 362.614 13.0829 362.586 13.0747C362.261 12.9804 361.905 13.1062 361.604 13.0308C361.021 12.8858 360.59 12.5681 359.502 12.3422C358.728 12.1851 358.721 12.5226 358.469 12.4621C358.279 12.4118 356.386 11.1158 354.888 11.2604C353.462 11.4009 355.674 11.9819 358.059 12.5861C360.513 13.1784 363.999 14.1164 364.311 14.1893ZM375.887 19.6224C375.332 19.0317 374.775 18.5352 374.23 18.1001C374.896 18.9809 374.392 18.6626 373.468 18.0296C373.006 17.7179 372.438 17.349 371.846 17.0043C371.707 16.9227 371.52 16.8166 371.425 16.7636C371.328 16.7092 371.231 16.6554 371.134 16.6027C370.941 16.4973 370.75 16.3963 370.566 16.3034C370.551 16.5868 370.971 16.7825 372.641 17.8865C374.098 18.8466 375.997 20.5942 376.942 22.3548C376.66 21.3614 376.29 20.4522 375.887 19.6224ZM339.226 10.455C340.178 10.6041 340.079 9.98447 340.06 9.80045C339.756 9.76835 339.451 9.73648 339.145 9.70481C339.172 9.95489 339.199 10.205 339.226 10.455ZM346.632 11.5222C346.384 11.0725 344.202 10.6193 343.112 10.462C343.064 10.4566 343.337 10.7153 342.571 10.6065C342.349 10.5729 340.444 9.53623 340.781 10.513C342.486 10.8026 344.731 11.1696 346.629 11.5218C346.63 11.5219 346.631 11.522 346.632 11.5222ZM348.813 11.5675C348.437 11.3848 348.056 11.2026 347.67 11.0209C347.437 11.185 347.203 11.3494 346.968 11.5139C347.423 11.6224 347.873 11.7316 348.318 11.8414C348.483 11.75 348.648 11.6587 348.813 11.5675ZM51.9972 8.32008C52.0813 8.11112 52.1655 7.90215 52.2497 7.69318C52.5895 7.55819 54.306 8.41884 53.7735 8.60583C53.1778 8.51059 52.5856 8.41534 51.9972 8.32008ZM44.6749 8.93275C44.3174 9.04607 43.9615 9.15938 43.6074 9.27268C43.1883 8.93216 42.7714 8.59162 42.3568 8.25107C44.1102 7.96985 46.043 7.64928 45.7564 8.69155C46.1721 8.68125 46.5899 8.67094 47.0098 8.66061C46.6468 8.24154 46.687 8.09946 47.7848 7.80092C48.0215 8.39071 49.2439 8.05739 50.4596 8.1591C49.6131 8.21426 48.5664 8.27445 47.6359 8.33205C47.6384 8.43699 47.641 8.54194 47.6436 8.64689C49.7721 8.55699 47.1314 9.28734 45.7674 8.90374C45.6638 9.04612 45.5603 9.1885 45.4569 9.33088C45.1954 9.19817 44.9347 9.06546 44.6749 8.93275ZM193.456 6.68741C193.2 6.79313 192.945 6.89887 192.69 7.00463C191.7 5.63015 193.715 6.93301 195.148 5.8446C194.674 6.67135 196.858 6.63679 196.983 6.69251C196.732 6.97074 196.481 7.249 196.229 7.52728C195.305 7.24703 194.381 6.96707 193.456 6.68741ZM186.219 7.64547C187.103 6.9575 182.754 6.9254 181.296 7.08176C180.942 7.12003 180.311 7.49871 180.055 7.45206C179.899 7.31344 179.744 7.17482 179.588 7.03621C179.406 7.51764 176.557 6.98769 175.435 6.73403C175.33 6.90966 175.225 7.08529 175.12 7.26092C174.711 7.19316 174.303 7.12544 173.894 7.05778C173.946 7.23209 173.998 7.4064 174.05 7.58072C173.74 7.3722 173.43 7.16372 173.12 6.95526C171.906 6.72766 172.659 7.67558 171.746 7.38323C170.732 7.05871 172.388 6.48352 172.356 6.11491C173.178 6.20585 175.049 6.41007 175.884 6.41715C176.364 6.42086 175.818 5.76209 177.888 6.51334C178.34 6.33459 178.793 6.1559 179.246 5.97728C180.079 6.25564 180.912 6.53423 181.745 6.81303C181.9 6.56781 182.054 6.3226 182.209 6.07739C182.298 6.03872 184.224 6.58914 184.122 6.77335C184.9 6.30347 186.502 6.21624 188.189 6.18973C188.352 6.3225 188.515 6.45529 188.677 6.58808C187.045 6.30346 188.158 6.72973 187.672 6.98529C187.392 7.13266 186.533 7.42286 186.219 7.64547ZM63.3916 8.59473C60.7151 8.05718 62.3492 8.51319 59.3418 8.58128C59.5456 8.26041 59.7497 7.93954 59.9543 7.61867C61.4933 8.16147 63.8364 7.72531 63.3944 8.59467C63.3935 8.59469 63.3926 8.59471 63.3916 8.59473ZM34.3348 8.25073C35.9351 8.39955 35.1355 8.91244 37.2012 9.01572C37.2022 9.01569 37.2031 9.01566 37.2041 9.01564C36.1326 9.0791 35.0796 9.14237 34.0456 9.20542C34.1418 8.88719 34.2382 8.56896 34.3348 8.25073ZM125.873 6.8207C127.367 6.66385 127.076 6.91365 128.431 6.40503C130.468 6.97539 128.749 6.91279 128.756 7.45383C128.29 7.30101 127.825 7.14824 127.36 6.99552C126.245 7.51592 127.312 7.75689 127.312 7.8055C127.311 7.80551 127.31 7.80552 127.31 7.80553C127.312 7.96794 127.348 8.00164 126.92 8.10538C126.571 7.67713 126.222 7.2489 125.873 6.8207ZM132.313 7.40805C131.791 7.05505 131.552 6.59653 132.911 6.34979C132.912 6.34978 132.913 6.34977 132.914 6.34976C133.032 7.15139 134.332 6.48773 134.931 6.53469C135.088 6.62013 135.246 6.70559 135.404 6.79104C134.371 6.99648 133.341 7.20216 132.313 7.40805ZM154.96 7.91509C154.959 7.02799 153.827 6.95292 155.412 6.12243C155.721 6.13578 156.031 6.14914 156.34 6.16254C156.545 6.3556 156.749 6.54868 156.954 6.74176C160.872 5.10665 162.059 7.82996 155.418 6.8603C155.417 6.8597 155.416 6.85909 155.415 6.85849C155.264 7.21068 155.112 7.56288 154.96 7.91509ZM148.018 7.90154C147.963 7.43635 147.909 6.97116 147.854 6.50598C146.993 7.63758 145.856 6.57657 144.16 7.38634C144.005 7.24631 143.849 7.10629 143.694 6.96627C143.054 7.28355 136.834 7.44097 138.175 6.71016C138.759 6.3908 140.045 6.80168 140.155 6.79101C140.529 6.75183 141.013 6.34654 141.646 6.36311C142.012 6.37324 142.788 6.83539 143.535 6.82689C145.206 6.80754 148.255 5.51521 150.481 6.69038C150.64 6.54856 150.798 6.40676 150.956 6.26496C152.6 6.33604 152.061 6.78557 153.567 6.24218C154.649 8.44417 147.436 6.18756 148.95 7.96786C148.949 7.96787 148.948 7.96788 148.947 7.96789C148.637 7.94575 148.328 7.92363 148.018 7.90154ZM103.087 7.82679C102.992 8.22555 101.063 7.64474 101.53 8.58884C100.899 8.26794 100.27 7.94711 99.6419 7.62633C99.6451 7.53776 99.6484 7.44919 99.6516 7.36063C100.271 7.41968 100.893 7.47878 101.515 7.53794C101.515 7.39755 101.515 7.25715 101.515 7.11675C102.459 7.60855 106.303 7.32471 106.156 6.83004C106.361 7.03674 106.566 7.24344 106.77 7.45015C108.565 6.84972 110.135 7.43313 112.115 6.84499C112.271 7.01657 112.428 7.18817 112.585 7.35976C112.683 7.21788 112.782 7.076 112.88 6.93413C113.606 6.9055 114.333 6.87695 115.062 6.84851C117.447 7.3787 112.84 8.17835 112.288 8.10406C112.214 8.09356 112.22 7.73 111.757 7.67996C110.93 7.59199 106.379 8.02518 104.986 7.8085C104.978 8.04975 104.97 8.29099 104.962 8.53224C104.355 8.29671 103.71 8.06188 103.087 7.82679ZM163.724 6.90126C163.827 6.65522 163.929 6.40919 164.031 6.16315C165.827 6.3964 166.957 6.17558 166.501 6.98973C166.5 6.98973 166.499 6.98974 166.498 6.98975C165.573 6.96001 164.648 6.93052 163.724 6.90126ZM296.973 8.27854C296.912 8.76415 295.989 8.90767 294.907 8.51397C294.964 8.37459 295.022 8.23522 295.08 8.09585C295.629 8.53399 296.431 7.84148 298.245 8.01562C298.234 8.26075 298.224 8.50588 298.213 8.751C297.801 8.59336 297.388 8.43587 296.973 8.27854ZM162.179 7.01796C161.634 7.31099 160.097 6.44436 161.104 6.39381C161.875 6.35557 162.471 6.8606 162.179 7.01796ZM28.3421 8.88826C28.7243 8.82635 29.1017 8.76462 29.4861 8.70273C29.6925 8.90586 29.8997 9.10897 30.1077 9.31207C30.1068 9.3121 30.1059 9.31212 30.105 9.31215C29.5103 9.17095 28.9266 9.02954 28.3421 8.88826ZM120.785 6.84901C122.14 6.86073 123.5 6.87281 124.865 6.88525C124.88 7.02116 124.896 7.15708 124.911 7.29299C123.538 6.81446 122.999 7.35725 122.681 7.3943C122.683 7.39428 122.684 7.39427 122.686 7.39425C121.664 7.51591 120.715 7.60831 119.731 7.7848C120.092 7.4727 120.438 7.16086 120.785 6.84901ZM116.056 7.77515C116.276 6.81024 116.575 6.69361 118.718 7.33947C118.635 7.45906 118.553 7.57866 118.47 7.69825C117.363 7.64323 116.718 7.43059 116.919 7.92926C116.631 7.87788 116.343 7.82651 116.056 7.77515ZM137.56 7.18946C137.315 7.49828 135.312 7.21372 135.413 7.05828C135.47 6.99619 138.042 6.58368 137.56 7.18946ZM312.342 9.24307C311.864 9.28633 311.385 9.32987 310.904 9.37367C311.533 9.51284 312.159 9.65246 312.78 9.79253C312.634 9.60935 312.488 9.4262 312.342 9.24307ZM317.369 10.9131C317.701 10.8114 316.701 9.88103 318.656 9.78218C317.249 9.67325 315.821 9.56694 314.373 9.46315C315.044 9.64277 315.711 9.82293 316.373 10.0036C316.241 10.2444 316.108 10.4852 315.976 10.726C316.443 10.7881 316.907 10.8504 317.369 10.9131ZM318.924 10.3774C318.118 10.9821 322.111 11.296 322.582 11.2516C322.671 11.2387 323.124 10.7712 323.285 10.6753C322.647 10.6294 322.005 10.584 321.358 10.5393C321.585 10.3975 321.812 10.2559 322.038 10.1143C321.277 10.0078 320.552 9.90515 319.867 9.80612C320.156 9.98299 320.443 10.16 320.73 10.3371C320.132 10.35 319.529 10.3635 318.924 10.3774ZM302.564 9.31482C303.08 9.32249 303.594 9.33042 304.106 9.33862C303.992 9.57876 303.878 9.81892 303.764 10.0591C303.457 10.0444 303.15 10.0298 302.843 10.0153C302.75 9.78181 302.657 9.54831 302.564 9.31482ZM313.083 10.1785C312.389 8.95505 310.151 11.4164 312.646 10.5991C312.897 10.5161 313.149 10.2966 313.083 10.1785ZM324.172 11.2236C325.748 12.2028 325.522 10.2788 323.927 10.7212C323.846 10.7451 324.053 11.1512 324.172 11.2236ZM336.309 12.2664C336.441 12.273 336.741 11.6819 337.93 12.3895C338.142 12.3403 338.354 12.2913 338.565 12.2423C338.145 11.9057 333.94 11.334 334.459 11.9981C335.112 12.068 335.644 12.2214 336.309 12.2664ZM331.962 14.1551C331.365 14.086 330.787 14.0195 330.191 13.9527C330.403 13.7768 330.615 13.6011 330.827 13.4254C330.54 13.3485 330.252 13.2717 329.962 13.195C329.432 13.4848 328.899 13.7752 328.364 14.066C329.689 14.2255 330.914 14.3811 332.264 14.5528C332.164 14.4202 332.063 14.2877 331.962 14.1551ZM315.684 13.4469C316.873 13.277 318.286 13.623 320.137 13.7051C320.138 13.7045 320.139 13.704 320.139 13.7034C320.233 13.7069 320.409 13.4531 320.713 13.463C321.02 13.4699 326.315 14.1439 325.917 13.6681C323.922 13.1141 323.091 13.6711 322.665 12.6396C322.549 12.8425 322.433 13.0454 322.316 13.2484C320.241 13.4698 319.847 12.715 318.791 12.378C318.785 12.5366 318.779 12.6952 318.773 12.8539C318.068 12.8241 317.357 12.7949 316.641 12.7664C316.748 12.6685 316.855 12.5706 316.962 12.4727C316.71 12.4569 316.457 12.4413 316.203 12.4257C315.556 12.857 314.761 12.919 315.684 13.4469ZM334.908 14.1583C335.488 15.4152 340.807 15.1128 343.492 15.6979C342.06 14.7972 340.153 15.0897 338.701 14.9474C335.92 14.6783 337.886 14.4323 337.433 14.1909C337.21 14.0712 335.528 14.6824 334.908 14.1583ZM311.343 12.9831C312.774 12.9657 313.545 13.2882 314.78 12.9192C314.685 12.8254 314.588 12.7316 314.492 12.6379C314.083 12.6923 310.639 12.7514 311.343 12.9831ZM347.337 15.8661C344.569 15.9385 346.043 15.033 344.496 15.6624C345.452 15.8318 346.385 16.0037 347.295 16.1782C347.309 16.0742 347.323 15.9701 347.337 15.8661ZM159.134 11.5681C158.002 11.6041 156.742 11.8337 156.063 11.3851C156.83 11.3087 157.598 11.2325 158.366 11.1565C158.622 11.2937 158.878 11.4309 159.134 11.5681ZM191.46 15.864C191.202 15.9731 190.179 15.653 190.071 15.6532C189.871 15.6535 189.926 15.8116 189.923 15.853C188.612 15.8261 189.821 15.3336 188.851 15.2283C188.685 15.2108 186.406 15.4575 185.48 15.4399C184.054 15.4124 182.631 15.4483 182.098 15.4415C181.199 15.4303 179.529 15.0677 178.052 15.0544C177.443 15.0495 177.232 15.3451 176.62 15.3402C172.698 15.3053 164.949 14.9452 161.459 15.1583C160.598 15.2109 159.78 15.6029 159.325 15.5749C158.965 15.4366 158.605 15.2983 158.245 15.1601C157.153 16.4377 156.775 15.3118 155.588 15.2031C154.833 15.1344 154.484 15.5134 154.383 15.5133C153.713 15.5115 153.381 15.3353 152.854 15.3102C152.266 15.2825 151.401 15.4598 151.189 15.4311C151.058 15.4118 151.47 14.9079 149.154 14.9387C146.795 14.9705 144.473 15.0463 142.092 15.0946C142.87 13.5774 143.566 14.603 144.542 14.6483C144.804 14.6604 144.635 14.4225 144.863 14.4308C145.507 14.4529 146.743 14.6762 147.276 14.614C147.852 14.547 147.65 13.9936 148.384 14.1915C148.421 14.2017 148.306 14.4321 148.479 14.4689C150.211 14.8322 150.784 14.428 152.966 14.3974C154.393 14.3748 163.153 14.5365 163.459 14.3865C165.022 13.5716 155.781 13.6326 154.714 13.7069C154.338 13.7324 154.735 13.9823 154.392 14.0337C154.243 14.0544 152.948 13.5824 151.634 13.5539C150.052 13.5191 146.887 13.8782 145.391 13.8817C132.628 13.908 119.808 14.3685 107.028 14.5787C106.758 14.583 106.396 14.2994 105.518 14.3136C88.8072 14.589 71.5309 15.1588 54.6544 15.4185C51.1061 15.4721 47.3048 15.2921 43.6032 15.6009C43.14 15.4013 42.6795 15.2017 42.2218 15.0021C43.3768 15.1406 45.5366 14.6089 45.7394 14.5969C45.8113 14.593 46.2687 14.8199 47.0056 14.7891C48.0428 14.7467 48.5014 14.529 48.587 14.5269C48.8542 14.5197 48.6843 14.7435 48.94 14.7363C50.8763 14.6797 52.124 14.7123 53.8107 14.6746C55.6863 14.6324 56.6468 14.2011 58.0573 14.6179C58.2121 14.4391 58.3671 14.2603 58.5224 14.0816C59.6476 14.8129 65.7529 14.5925 68.2188 14.5001C69.0037 14.4705 68.86 14.1659 69.1246 14.1602C69.2955 14.157 69.229 14.5611 71.3074 14.4381C72.3563 14.3759 72.6286 14.0767 73.159 14.0752C73.4476 14.0748 73.4066 14.3667 73.8219 14.3581C76.2953 14.307 78.0426 14.1773 80.3461 14.0778C80.9864 14.0503 80.9893 13.8073 81.133 13.8077C81.6627 13.8082 82.5919 14.2013 83.9515 14.174C86.1743 14.1287 90.7511 14.0422 92.4793 13.8116C92.7426 13.7773 92.9563 13.482 93.1508 13.4827C93.4455 13.4849 93.5667 13.7868 93.6185 13.7875C94.6056 13.7751 94.0065 13.5031 94.6699 13.56C95.028 13.5907 95.4064 13.9307 96.2411 13.9553C97.3442 13.9878 97.1207 13.5801 97.5831 13.6133C97.6321 13.6189 97.6513 13.9048 98.1061 13.9064C99.8295 13.9104 102.354 13.9341 104.014 13.9059C104.491 13.8981 104.844 13.6997 105.481 13.6861C106.755 13.658 114.197 13.6661 114.826 13.5468C114.891 13.5343 114.217 13.122 115.282 13.1189C115.594 13.2901 115.906 13.4614 116.219 13.6326C116.733 13.3437 117.248 13.0549 117.764 12.7661C117.754 13.7383 120.838 13.8449 120.768 12.8518C121.095 12.807 121.421 12.7622 121.748 12.7174C122.439 13.3949 122.89 13.1351 124.218 13.5208C124.422 13.3075 124.625 13.0942 124.829 12.8809C124.883 13.0206 124.937 13.1603 124.99 13.3C125.687 12.5299 126.86 13.2786 127.002 13.281C127.546 13.2908 127.952 13.0922 128.208 13.0952C129.161 13.1031 131.236 13.3437 132.357 13.2067C132.41 13.1997 132.354 12.8752 132.672 12.8312C133.248 12.7518 133.309 13.2271 134.072 12.6589C134.229 12.7974 134.386 12.936 134.543 13.0745C134.707 12.9999 134.871 12.9254 135.036 12.8508C136.018 12.8766 136.969 12.903 137.927 12.9296C137.051 12.3888 138.048 12.07 139.001 12.4928C139.324 12.6362 139.043 12.9745 139.15 13.024C139.295 13.0908 143.608 12.8744 143.894 12.6553C144.1 12.7588 144.306 12.8623 144.512 12.9658C144.614 12.7536 144.715 12.5414 144.817 12.3292C144.931 12.4019 145.044 12.4746 145.158 12.5473C146.281 12.164 149.224 12.9892 149.757 12.9171C150.042 12.8786 149.777 11.9808 151.144 12.0604C151.194 12.3072 151.244 12.554 151.293 12.8007C151.606 12.8333 151.92 12.8659 152.233 12.8986C152.819 12.8714 153.656 12.4359 153.681 12.1427C153.864 12.317 154.047 12.4912 154.23 12.6654C154.712 12.0885 157.315 12.2704 158.367 12.625C158.672 12.4499 158.978 12.2749 159.283 12.0998C159.697 12.3067 160.111 12.5136 160.525 12.7206C161.481 12.7769 160.469 12.4352 160.672 12.4046C161.102 12.3411 163.305 12.9155 163.155 12.1821C163.455 12.1783 163.755 12.1744 164.055 12.1706C164.211 12.3796 164.367 12.5885 164.522 12.7975C165.033 12.0703 165.926 12.3199 167.756 12.045C167.911 12.2107 168.065 12.3764 168.22 12.5422C168.786 12.3021 169.348 12.0621 169.91 11.8222C170.027 12.0974 170.144 12.3727 170.261 12.6479C170.506 12.6863 170.751 12.7246 170.996 12.763C171.491 12.1424 172.388 12.8056 172.842 12.5485C173.505 12.1734 172.989 11.7325 171.755 11.6531C171.845 11.2023 175.521 11.3914 176.369 11.4211C176.314 11.5092 176.258 11.5973 176.202 11.6855C175.335 11.6195 174.468 11.5539 173.601 11.4884C172.88 12.6236 175.232 12.3089 176.313 12.4504C176.412 12.4639 176.973 12.8903 178.062 12.8461C178.484 12.8286 180.127 12.196 180.441 12.1601C182.978 11.8658 181.115 12.767 183.595 11.9748C183.079 12.5775 184.504 12.0738 185.99 12.1869C186.243 12.206 188.388 12.6894 188.533 12.702C189.436 12.7788 188.452 12.2488 189.759 12.3853C189.916 12.5248 190.073 12.6644 190.23 12.804C190.534 12.8036 190.838 12.8032 191.142 12.8029C192.985 11.5555 193.415 12.4728 194.07 12.5903C194.335 12.6377 193.994 12.3128 194.681 12.3814C194.939 12.4069 195.226 12.6771 195.921 12.6962C198.095 12.7555 198.835 11.5988 200.83 12.8054C201.136 12.6313 201.443 12.4571 201.749 12.283C201.956 12.4926 202.161 12.7023 202.37 12.912C203.963 12.3072 203.387 12.9285 203.962 12.9221C205.48 12.9057 208.581 12.7956 208.853 12.2958C210.156 13.4505 211.72 12.1586 212.234 12.2056C212.539 12.3467 212.843 12.4877 213.148 12.6288C213.507 12.49 213.866 12.3512 214.225 12.2125C214.046 13.3415 215.907 12.2393 216.084 12.2234C216.293 12.2073 219.128 12.5573 220.215 12.5583C221.288 12.5586 223.153 12.2654 223.317 12.2661C223.506 12.2674 225.322 12.5878 226.738 12.5964C227.987 12.601 235.288 12.2367 234.818 12.7371C234.341 12.8714 233.662 12.9852 233.075 13.0447C231.275 13.2225 220.47 13.3929 217.707 13.4626C212.223 13.5913 206.443 13.5427 200.891 13.646C200.565 13.6519 200.516 13.9447 200.236 13.951C199.813 13.9589 198.737 13.6649 198.319 13.6711C196.758 13.6954 194.856 13.7434 194.019 13.7511C192.148 13.7667 190.863 13.9445 189.447 13.975C189.004 13.984 186.76 13.6246 185.223 13.7816C184.944 13.8646 184.666 13.9477 184.388 14.0308C185.179 14.1248 187.258 14.3692 188.222 14.3962C189.657 14.435 190.405 14.1967 190.934 14.2002C191.378 14.2027 193.643 14.4715 194.674 14.4778C194.994 14.4799 195.06 14.1728 195.334 14.1738C196.819 14.181 198.775 14.1902 200.061 14.4928C199.537 14.3937 202.811 14.2095 202.992 14.2112C203.289 14.2118 203.61 14.4997 204.215 14.501C205.379 14.5033 205.233 13.9018 206.685 14.5068C207.045 14.3326 207.405 14.1584 207.765 13.9843C207.786 14.7846 212.327 13.7109 213.607 14.6907C213.643 14.7997 207.753 15.0896 207.262 15.1053C204.335 15.1927 200.014 14.9899 197.191 15.1298C196.34 15.1715 193.662 15.6589 193.46 15.6501C193.134 15.6366 193.428 15.358 193.288 15.3481C190.405 15.1431 191.843 15.7019 191.46 15.864ZM318.676 14.1631C317.82 14.1407 316.956 14.1193 316.084 14.0988C316.137 14.2781 316.189 14.4574 316.241 14.6367C316.643 14.593 317.043 14.5495 317.442 14.5062C317.738 14.6301 318.034 14.7541 318.328 14.8783C318.444 14.6399 318.56 14.4015 318.676 14.1631ZM320.728 15.0368C321.519 15.1792 321.581 14.8123 321.766 14.8069C322.315 14.7898 322.773 14.9724 323.296 15.0046C322.759 14.083 321.432 14.395 320.728 15.0368ZM305.076 14.4474C305.246 14.4136 306.42 13.5224 307.636 14.4688C308.559 14.2362 309.659 14.0142 310.658 13.7887C308.89 14.1194 306.685 13.5608 305.893 13.5384C305.591 13.5297 305.519 13.8174 305.277 13.8102C303.885 13.7643 302.54 13.0413 302.35 13.9973C303.701 13.7801 304.858 14.4885 305.076 14.4474ZM313.689 14.5678C313.929 14.3801 314.169 14.1925 314.408 14.0049C313.587 13.9561 312.758 13.9082 311.923 13.861C312.137 14.0773 312.351 14.2936 312.564 14.51C312.94 14.5291 313.315 14.5484 313.689 14.5678ZM250.534 13.1105C251.028 13.1161 251.555 13.1225 252.064 13.1287C252.033 13.275 251.447 13.2645 251.229 13.36C251.23 13.3601 251.231 13.3601 251.232 13.3601C250.991 13.4681 251.083 13.6587 250.655 13.7351C250.614 13.5269 250.574 13.3187 250.534 13.1105ZM41.6388 15.6469C40.95 15.6736 32.8883 15.8867 33.5926 15.3334C33.911 15.0573 36.6427 15.2179 37.4797 15.192C38.7078 15.1543 41.305 14.5085 41.6388 15.6469ZM27.8803 16.1181C27.891 15.5836 32.4327 15.3739 32.9779 15.4525C32.8792 15.5313 32.7287 15.7047 32.5962 15.7468C31.9053 15.9492 29.0206 15.9401 27.8803 16.1181ZM222.271 14.3278C222.668 14.0608 223.066 13.7938 223.463 13.5269C223.356 13.8771 223.25 14.2273 223.143 14.5775C222.852 14.4942 222.562 14.411 222.271 14.3278ZM184.071 13.8686C177.499 13.9028 170.982 13.9504 164.39 14.0105C164.969 14.1526 165.548 14.2947 166.128 14.437C171.796 14.3499 177.796 14.1751 183.262 14.3853C183.532 14.2131 183.801 14.0408 184.071 13.8686ZM303.173 15.9371C301.505 15.863 300.106 15.5411 298.229 15.8699C299.982 16.344 300.878 15.7692 302.538 16.433C302.539 16.4331 302.54 16.4331 302.54 16.4332C302.752 16.2678 302.962 16.1024 303.173 15.9371ZM265.569 14.7671C266.059 15.0238 266.576 15.2812 267.092 15.5388C266.461 15.5239 265.847 15.5097 265.247 15.496C265.354 15.253 265.462 15.0101 265.569 14.7671ZM126.861 15.6926C125.086 15.1796 120.691 16.2087 119.216 15.5856C119.122 15.5446 119.978 15.2606 118.58 14.7541C119.63 14.8469 120.383 14.9464 120.456 15.3594C120.758 15.2148 121.06 15.0702 121.362 14.9257C121.868 15.0249 122.375 15.1241 122.883 15.2235C122.822 14.8121 122.862 14.8335 123.645 15.1051C123.998 14.996 124.352 14.8869 124.707 14.7778C124.86 14.9504 125.013 15.1229 125.166 15.2954C125.471 15.0473 125.776 14.7991 126.081 14.5509C127.289 14.8001 126.562 15.2826 126.861 15.6926ZM133.026 15.515C132.728 15.6081 124.573 15.4155 128.266 14.5466C129.229 14.5606 130.194 14.5747 131.161 14.5891C130.376 15.9599 132.997 14.7106 133.215 14.6796C134.251 14.5343 135.586 14.8424 136.336 14.8171C136.973 14.795 137.349 14.5466 137.798 14.5479C139.326 14.5517 141.751 14.5348 142.092 15.0946C140.897 15.1188 139.686 15.1379 138.45 15.1375C137.143 15.1373 136.003 15.6816 133.491 14.9821C132.875 15.0678 133.1 15.4909 133.026 15.515ZM268.657 15.5197C268.611 14.9521 271.75 15.1665 271.761 15.391C271.764 15.5221 270.744 15.4927 270.597 15.5387C270.596 15.5387 270.595 15.5387 270.594 15.5387C270.533 15.5588 270.836 15.7831 270.354 15.8311C269.79 15.7271 269.224 15.6233 268.657 15.5197ZM53.816 16.614C53.5151 16.9369 43.7332 17.0611 43.4903 16.917C43.413 16.8767 43.5158 16.7348 43.4837 16.6552C45.6767 17.0479 49.0852 16.4339 51.1227 16.3502C51.6954 16.3271 51.5299 16.556 51.5624 16.5595C51.5637 16.5595 51.5651 16.5594 51.5665 16.5594C51.8902 16.5522 53.3593 15.9676 53.816 16.614ZM116.104 15.3721C116.514 15.2776 116.925 15.1831 117.336 15.0887C117.443 15.2623 117.55 15.436 117.658 15.6096C117.657 15.6096 117.656 15.6096 117.655 15.6096C117.137 15.5304 116.62 15.4512 116.104 15.3721ZM101.982 16.17C102.08 16.0451 102.179 15.9201 102.278 15.7952C103.311 15.7608 104.391 15.726 105.392 15.6927C105.289 15.6248 105.186 15.5569 105.083 15.489C106.608 15.2782 107.252 15.7014 108.07 15.6261C108.069 15.6261 108.068 15.6261 108.067 15.6261C108.155 15.6175 108.257 15.359 108.586 15.3451C109.337 15.3131 111.503 15.1841 111.771 15.4386C112.332 15.9814 107.966 15.787 107.166 15.8254C106.802 15.8428 106.368 16.0746 106.146 16.0834C105.904 16.0923 105.569 15.794 104.98 15.813C104.815 15.8187 102.83 16.2085 101.982 16.17ZM83.8004 16.1292C84.113 15.8451 84.784 16.1007 85.0285 16.0506C85.0868 16.0388 84.6269 15.8149 85.1778 15.7346C85.3371 15.8903 85.4965 16.046 85.6561 16.2016C85.0354 16.1774 84.4169 16.1533 83.8004 16.1292ZM273.91 15.9225C273.82 15.9796 272.149 15.9132 272.068 15.8734C271.078 15.3397 274.543 15.4868 273.91 15.9225ZM315.995 18.2685C315.163 18.9452 324.271 18.821 325.21 18.9471C325.205 18.4812 322.971 18.7846 324.17 18.2346C323.074 18.5027 319.894 18.0976 319.298 18.1617C318.882 18.1958 318.751 18.5884 318.687 18.597C318.444 18.6254 316.283 18.025 315.995 18.2685ZM332.66 19.2422C331.722 19.2464 330.884 19.2623 330.053 19.2806C331.004 19.4132 332.039 19.5558 333.109 19.7054C332.96 19.551 332.81 19.3966 332.66 19.2422ZM333.77 19.5545C333.711 19.9979 336.724 19.9407 337.457 20.1226C336.679 19.2753 335.156 19.8493 333.77 19.5545ZM284.932 17.4163C283.552 17.6673 283.005 16.2796 284.655 16.9307C284.705 16.9521 284.99 17.4025 284.932 17.4163ZM126.469 17.6241C126.238 17.6354 123.39 18.1171 123.224 17.8997C122.694 17.2055 124.565 17.4615 125.191 17.1885C126.199 16.7462 124.701 16.4121 127.183 16.6388C127.08 16.4997 126.977 16.3607 126.874 16.2216C128.325 16.1564 127.863 17.1349 128.125 17.2566C128.206 17.2936 129.114 17.2003 129.28 17.2603C131.342 18.0178 126.678 17.6144 126.469 17.6241ZM251.383 16.6973C248.68 17.0651 249.863 16.4791 247.116 16.4737C247.039 16.1632 251.007 16.4196 251.383 16.6973ZM152.738 16.7834C149.935 16.6863 147.632 17.1115 145.026 16.5953C145.178 15.7575 153.466 16.5603 152.738 16.7834ZM21.7687 20.0899C32.6255 18.2843 45.1427 18.4519 56.6093 18.2099C57.8729 18.1827 57.9911 17.849 58.4529 17.8743C58.7562 17.8907 58.7092 18.1584 59.1128 18.1504C73.3365 17.8694 87.3381 17.9425 100.896 17.5543C101.766 17.5287 106.032 16.8861 106.896 17.736C107.565 18.3802 104.623 17.9168 104.071 17.9319C103.686 17.9424 103.675 18.2505 103.418 18.2558C103.146 18.2613 103.367 18.0473 103.052 18.0494C101.714 18.0567 100.264 18.1634 99.0683 18.1659C87.5732 18.1904 75.9879 18.4666 64.4613 18.7503C63.0916 18.7837 63.381 19.024 63.3116 19.0266C63.3107 19.026 63.3098 19.0254 63.3088 19.0248C55.6287 19.2183 46.9461 18.8725 39.1979 19.2849C33.3046 19.6074 27.9479 19.9234 22.244 20.2592C22.0848 20.2028 21.9264 20.1463 21.7687 20.0899ZM132.42 16.6796C131.727 17.6181 131.554 16.6821 129.037 17.0931C128.83 16.937 128.623 16.7809 128.417 16.6248C129.748 16.6427 131.084 16.6609 132.424 16.6796C132.423 16.6796 132.422 16.6796 132.42 16.6796ZM115.795 17.2408C115.378 18.5025 109.728 17.6996 107.24 17.9796C106.768 17.3561 110.42 17.5819 111.29 17.5024C111.721 17.463 114.032 16.779 115.817 17.1122C115.81 17.1551 115.802 17.1979 115.795 17.2408ZM306.323 19.5753C305.928 19.5185 305.53 19.4618 305.132 19.4054C306.143 19.3163 307.134 19.2276 308.141 19.1413C306.55 19.1474 304.962 19.1574 303.34 19.1694C303.628 19.4442 303.916 19.719 304.202 19.9939C304.913 19.8538 305.62 19.7143 306.323 19.5753ZM301.102 19.1891C303.95 19.4198 301.009 18.5837 300.273 18.8617C299.835 19.0281 300.811 19.165 301.102 19.1891ZM293.58 19.3163C294.801 19.8218 297.642 19.9733 296.681 19.0182C295.169 19.3832 294.278 18.9904 292.225 19.1568C292.517 19.3435 292.809 19.5302 293.101 19.717C293.102 19.717 293.103 19.7171 293.105 19.7171C293.263 19.5835 293.422 19.4499 293.58 19.3163ZM302.379 19.802C304.271 19.3645 298.849 19.293 300.537 19.7168C300.618 19.736 302.307 19.8184 302.379 19.802ZM33.7366 20.7C33.5007 20.4076 34.95 20.3744 35.4433 20.3412C37.6179 20.1947 40.2668 20.256 42.3555 20.1619C42.1981 20.2642 42.0411 20.3665 41.8844 20.4688C39.345 20.5395 36.4387 20.6213 33.7366 20.7ZM49.1985 19.9902C50.7792 19.9518 52.102 19.9201 53.5876 19.885C53.7233 19.8818 54.3692 20.1229 53.895 20.1964C52.3038 20.1277 50.8785 20.0556 49.1985 19.9902ZM141.817 18.3642C140.683 18.5433 143.964 19.3662 143.808 18.4497C143.144 18.4211 142.48 18.3926 141.817 18.3642ZM152.447 18.628C151.727 18.547 151.007 18.4661 150.287 18.3854C150.287 18.491 150.287 18.5966 150.287 18.7021C151.007 18.6773 151.727 18.6526 152.447 18.628ZM28.0185 21.0671C28.8906 20.6813 30.4751 20.6931 31.6065 20.655C30.8252 20.9868 29.1806 20.8793 28.0185 21.0671ZM124.756 18.9376C124.841 18.6898 120.355 18.8129 121.914 19.225C122.859 19.129 123.806 19.0332 124.756 18.9376ZM115.551 19.4308C116.53 19.4703 117.289 19.3748 117.082 18.991C116.562 19.015 116.043 19.039 115.524 19.0631C115.533 19.1857 115.542 19.3082 115.551 19.4308ZM288.548 19.862C286.92 19.7683 285.275 19.6768 283.614 19.5874C283.673 19.6949 283.731 19.8025 283.789 19.9101C285.388 19.997 286.973 20.086 288.542 20.1769C288.544 20.072 288.546 19.967 288.548 19.862ZM27.0665 22.0426C25.8852 22.0069 24.7362 21.9706 23.6207 21.9338C24.7331 21.8309 25.8791 21.7274 27.0577 21.6234C27.0616 21.7638 27.0656 21.9041 27.0695 22.0444C27.0685 22.0438 27.0675 22.0432 27.0665 22.0426ZM310.817 22.2367C305.673 22.4495 312.19 23.3228 313.518 22.6812C313.52 22.6819 313.521 22.6826 313.522 22.6833C313.641 22.6262 313.416 22.3031 313.615 22.1899C313.099 22.2994 312.581 22.4094 312.06 22.5196C311.602 22.3192 311.142 22.119 310.679 21.9191C310.52 21.9787 310.36 22.0383 310.2 22.098C310.406 22.1442 310.612 22.1904 310.817 22.2367ZM330.73 23.8938C335.388 24.2504 330.597 23.0399 328.514 23.4872C328.522 23.6289 330.343 23.8647 330.73 23.8938ZM319.004 22.8417C318.324 22.7265 317.639 22.6119 316.948 22.4979C316.853 22.5806 316.759 22.6633 316.664 22.7461C317.194 22.8674 317.719 22.9891 318.242 23.1111C318.496 23.0212 318.75 22.9314 319.004 22.8417ZM295.566 22.9777C294.381 23.0265 292.921 21.9804 296.691 22.3962C296.685 22.5016 296.678 22.607 296.672 22.7124C296.523 22.6892 296.086 22.5717 296.061 22.5786C295.991 22.6021 296.058 22.9578 295.566 22.9777ZM338.777 27.4625C338.892 27.5157 338.845 28.6289 340.202 27.621C340.537 27.7292 340.996 27.8522 341.395 27.9694C341.531 27.7383 341.668 27.5072 341.804 27.2762C340.127 27.2721 340.128 26.7766 340.003 26.7513C339.527 26.6517 339.855 26.945 339.543 26.9141C338.745 26.8333 336.872 26.467 337.652 27.2808C337.933 27.5723 338.661 27.4095 338.777 27.4625ZM335.778 27.7897C335.973 27.7156 335.405 27.3321 335.555 27.2543C335.692 27.1859 337.554 27.0407 337.115 26.443C336.813 26.4354 336.51 26.428 336.204 26.4208C336.087 26.5606 335.969 26.7003 335.851 26.8401C335.57 26.6725 335.287 26.505 335.003 26.3376C334.464 26.6592 333.34 27.037 334.589 27.4604C334.125 27.384 333.656 27.3079 333.182 27.2323C332.952 27.032 332.72 26.8318 332.486 26.6317C332.593 26.914 332.698 27.1964 332.803 27.4787C333.815 27.5805 334.806 27.6842 335.778 27.7897ZM349.769 29.4205C349.733 29.2727 349.697 29.1249 349.66 28.977C351.409 29.509 353.805 30.0545 352.565 28.9347C351.481 28.7045 350.331 28.478 349.117 28.2557C348.032 28.0533 347.02 27.8716 345.907 27.6842C345.746 27.769 345.584 27.8539 345.422 27.9389C347.127 27.7586 346.385 29.404 347.827 29.1091C348.068 29.06 347.491 28.3605 348.873 28.9593C348.789 29.0891 348.72 29.2214 348.649 29.3532C348.996 29.3703 349.402 29.3976 349.769 29.4205ZM362.323 32.2133C360.544 31.6973 362.342 32.9754 362.524 32.6315C362.524 32.6313 362.524 32.6312 362.524 32.631C362.995 32.2231 362.994 32.0461 362.741 31.9133C362.499 31.7831 361.91 31.6919 361.841 31.6631C361.757 31.6248 361.689 31.3712 361.43 31.2164C361.3 31.1391 361.122 31.0867 360.869 31.1002C360.742 31.1069 360.597 31.1302 360.429 31.1754C360.291 31.2299 360.15 31.3116 359.982 31.4194C360.804 31.6465 361.831 32.0007 362.323 32.2133ZM354.585 30.2715C354.788 30.3402 354.714 30.1094 354.803 30.1306C354.804 30.1307 354.805 30.1309 354.806 30.131C355.346 30.261 356.825 30.6366 357.825 30.8555C358.871 31.0812 359.651 31.1842 359.895 30.9001C359.296 30.5915 354.209 29.3097 354.011 29.7818C354.206 29.945 354.397 30.1083 354.585 30.2715ZM344.242 28.1211C343.238 28.4393 345.364 28.7699 345.917 28.6408C346.025 28.6108 345.285 27.792 344.242 28.1211ZM270.282 24.892C268.132 24.5715 270.973 24.3771 270.003 23.9362C270.414 23.982 270.824 24.0278 271.234 24.0738C270.917 24.3465 270.6 24.6192 270.282 24.892ZM172.744 24.9688C172.246 25.0205 172.481 24.7652 172.438 24.7616C172.11 24.7703 171.803 24.979 171.677 24.9577C169.353 24.5519 170.896 24.3303 170.919 24.2805C170.967 24.0288 170.355 23.7378 171.199 23.446C171.713 23.5324 172.227 23.6189 172.741 23.7055C172.995 23.5644 173.249 23.4234 173.503 23.2825C174.525 23.5775 173.19 23.666 173.041 24.0647C172.983 24.2214 173.944 24.404 172.744 24.9688ZM266.381 25.6393C266.029 25.1892 265.213 24.613 266.046 24.1883C266.047 24.1883 266.048 24.1883 266.049 24.1884C266.208 24.1108 266.849 24.0812 267.048 23.9719C268.433 24.5938 267.884 25.1886 266.381 25.6393ZM181.964 25.723C182.793 25.6173 183.622 25.5119 184.45 25.4066C184.436 25.1418 184.421 24.877 184.406 24.6121C183.963 24.6846 183.519 24.7572 183.076 24.8299C182.92 24.7095 182.764 24.5891 182.608 24.4687C183.158 24.165 183.708 23.8613 184.258 23.5578C184.922 23.6617 185.586 23.7657 186.251 23.8699C185.946 24.0103 185.641 24.1508 185.336 24.2913C186.959 24.4419 186.605 23.7986 187.948 23.5499C188.408 23.7944 188.869 24.039 189.329 24.2837C189.994 24.0362 190.66 23.7888 191.325 23.5415C192.444 23.6557 192.542 23.8435 191.79 24.1252C192.346 24.4459 192.954 23.9402 193.624 24.0708C193.679 24.0814 193.575 24.384 193.624 24.3876C197.084 24.5904 196.899 23.7969 197.451 23.7631C197.841 23.7399 199.395 24.2772 199.419 24.4601C199.449 24.7067 196.218 25.6748 201.276 25.7054C198.662 26.3737 195.684 25.6896 197.61 24.7043C196.782 24.8027 193.124 24.5575 192.89 24.5876C192.55 24.6325 192.669 25.0064 192.243 25.0165C191.991 25.0221 191.323 24.1673 189.33 24.9172C189.075 24.7772 188.82 24.6372 188.565 24.4973C188.326 24.613 188.087 24.7288 187.849 24.8446C188.341 25.255 188.834 25.6656 189.326 26.0763C187.378 25.6321 185.762 26.4754 184.575 25.7707C183.551 25.8556 183.053 25.9385 183.494 26.299C183.186 26.2999 182.879 26.3007 182.571 26.3016C182.369 26.1087 182.167 25.9159 181.964 25.723ZM260.18 24.8713C259.159 25.2612 258.811 24.3682 258.97 24.3212C259.866 24.0633 260.71 24.6685 260.18 24.8713ZM174.59 24.4895C175.712 24.2561 176.835 24.0231 177.958 23.7905C177.959 24.0706 177.96 24.3508 177.961 24.6309C176.837 24.5834 175.713 24.5363 174.59 24.4895ZM270.581 25.5297C270.69 25.3225 270.8 25.1152 270.909 24.908C272.126 25.7064 273.374 24.6393 273.973 24.883C274.103 24.9362 273.828 25.2995 273.575 25.3722C273.42 25.4172 270.801 25.6057 270.581 25.5297ZM321.454 27.6571C320.996 27.4836 320.535 27.3105 320.07 27.1376C320.081 27.375 320.091 27.6125 320.101 27.8499C320.332 27.9097 320.562 27.9695 320.791 28.0294C321.012 27.9052 321.233 27.7811 321.454 27.6571ZM316.362 26.943C315.567 26.912 314.764 26.8818 313.954 26.8524C317.008 27.2548 314.49 27.2069 316.319 27.6283C316.333 27.3999 316.348 27.1714 316.362 26.943ZM308.053 26.9421C308.149 27.0884 308.245 27.2346 308.341 27.3809C309.18 27.4257 310.013 27.4712 310.838 27.5175C310.289 27.977 309.737 28.4368 309.184 28.8969C308.879 28.8815 308.572 28.8663 308.265 28.8511C308.195 28.2148 308.124 27.5784 308.053 26.9421ZM150.655 26.1769C150.157 26.1898 148.424 25.7781 148.497 25.62C149.213 25.4198 149.93 25.2197 150.647 25.0198C150.653 25.3005 150.659 25.5812 150.665 25.8619C150.765 25.7212 150.865 25.5805 150.966 25.4399C151.376 25.5412 151.786 25.6425 152.197 25.7439C152.401 25.4967 152.606 25.2496 152.806 25.0025C153.013 25.2808 153.22 25.5592 153.427 25.8376C151.478 26.3511 151.526 25.8545 151.119 25.8633C150.91 25.8675 150.78 26.0426 150.707 26.1307C150.689 26.1461 150.672 26.1615 150.655 26.1769ZM175.374 26.2731C173.033 26.3532 171.692 25.621 170.004 26.2483C171.08 24.9246 178.101 26.2518 180.574 25.147C180.831 25.3573 181.089 25.5677 181.347 25.778C179.998 25.5943 179.066 26.0327 178.409 26.0977C177.887 26.1493 177.941 25.9279 177.901 25.9312C177.899 25.9312 177.897 25.9312 177.896 25.9312C176.674 26.0269 176.297 26.2415 175.374 26.2731ZM272.299 26.6074C271.662 26.9242 270.557 26.8624 270.557 26.3753C271.176 26.2501 271.794 26.1251 272.411 26.0004C272.282 26.1217 272.408 26.5532 272.299 26.6074ZM307.042 28.2513C306.565 28.385 305.452 28.1894 305.956 27.7939C306.048 27.7237 307.144 28.0762 306.531 27.2843C307.613 27.352 307.314 28.1743 307.042 28.2513ZM215.4 25.277C215.812 25.2931 216.223 25.3092 216.634 25.3254C216.729 25.5225 216.823 25.7195 216.918 25.9165C216.412 25.7032 215.906 25.4901 215.4 25.277ZM277.554 27.091C278.123 26.1455 279.015 27.1084 280.044 26.3489C280.412 26.3542 280.791 26.3598 281.184 26.3661C281.185 26.3661 281.186 26.3662 281.187 26.3662C281.189 26.6288 281.191 26.8915 281.193 27.1541C279.935 27.1304 278.775 27.111 277.554 27.091ZM189.633 25.7078C189.887 25.5854 190.142 25.463 190.397 25.3406C190.85 25.4823 191.304 25.624 191.757 25.7658C191.512 25.8679 191.267 25.9701 191.022 26.0723C190.559 25.9507 190.096 25.8292 189.633 25.7078ZM284.231 27.3829C282.883 27.4586 282.402 26.6063 284.124 26.6612C284.849 26.6854 285.641 27.3044 284.231 27.3829ZM125.166 26.1505C125.62 26.0731 126.074 25.9958 126.528 25.9184C126.685 26.0922 126.843 26.2659 127 26.4397C126.388 26.3432 125.777 26.2468 125.166 26.1505ZM313.402 28.5089C313.359 28.3303 313.317 28.1517 313.274 27.9731C312.868 27.9846 312.46 27.9963 312.051 28.0082C312.143 28.1884 312.235 28.3685 312.327 28.5487C312.687 28.5353 313.045 28.522 313.402 28.5089ZM128.23 26.0027C128.594 25.9645 128.959 25.9263 129.325 25.8881C129.571 25.9705 129.818 26.0528 130.065 26.1352C129.724 26.2243 129.383 26.3134 129.042 26.4026C128.771 26.2693 128.5 26.136 128.23 26.0027ZM296.77 27.7765C296.243 27.9653 294.178 27.2206 296.068 27.1311C297.269 27.075 296.849 27.7478 296.77 27.7765ZM299.545 28.1086C297.566 28.4241 299.141 26.4461 301.393 27.876C299.071 27.5873 299.659 28.0898 299.545 28.1086ZM316.454 30.0677C316.502 30.0696 316.56 29.7788 316.938 29.792C318.296 29.8401 320.067 29.8427 321.142 29.9003C323.742 30.0259 330.607 31.1157 331.672 30.3693C331.873 30.208 331.495 29.6384 331.572 29.6177C331.803 29.5609 333.039 29.9338 332.842 29.5214C331.611 29.411 330.327 29.3018 329.224 29.2122C329.482 29.512 329.74 29.8119 329.995 30.112C327.155 29.7235 328.086 29.8215 327.303 29.1517C326.789 29.345 326.272 29.5387 325.752 29.7328C324.677 29.4138 323.583 29.0965 322.469 28.7809C322.713 28.974 322.955 29.1673 323.197 29.3605C321.478 29.5613 321.962 29.3835 321.052 28.8937C321.038 29.0683 321.024 29.2429 321.01 29.4175C319.347 28.8744 319.06 29.3831 318.713 29.3661C318.016 29.3311 317.275 27.2022 314.417 29.0942C313.32 28.0346 313.225 30.0507 312.599 28.9863C310.551 29.9867 314.355 29.8001 316.077 29.8733C316.078 29.8734 316.079 29.8734 316.079 29.8735C316.21 29.8785 315.992 30.0531 316.454 30.0677ZM306.367 28.4639C307.485 29.4316 302.879 29.2856 304.469 28.0493C304.699 28.0179 304.929 27.9865 305.158 27.9553C305.564 28.1247 305.968 28.2943 306.37 28.4641C306.369 28.464 306.368 28.464 306.367 28.4639ZM261.947 27.5418C257.589 27.0768 260.084 26.6046 261.551 27.147C261.843 27.2547 262.001 27.3972 261.947 27.5418ZM172.034 26.9884C171.969 26.8794 171.904 26.7705 171.839 26.6616C173.314 26.756 176.168 26.322 176.132 27.059C174.765 27.0349 173.399 27.0113 172.034 26.9884ZM183.718 27.4245C183.401 27.4697 182.105 27.5783 182.261 27.3023C182.822 27.1053 183.384 26.9084 183.945 26.7116C184.207 26.833 184.469 26.9544 184.731 27.0758C184.366 27.1182 183.804 27.4126 183.718 27.4245Z" fill="#45D670"/>
</svg>
