<svg width="510" height="49" viewBox="0 0 510 49" fill="none" xmlns="http://www.w3.org/2000/svg">
<path d="M13.5973 44.8566C25.4006 51.1743 33.378 46.8546 43.0198 46.7233C64.7559 46.3111 92.697 48.1371 114.191 48.1565C130.464 48.169 147.02 47.8471 163.249 47.5391C164.07 47.5238 164.559 47.0429 164.933 47.0354C168.441 46.9662 174.391 47.3727 177.943 47.2901C185.316 47.1206 198.141 47.1099 204.915 46.6092C207.765 46.3978 210.7 46.2958 211.805 45.1467C212.851 45.0804 213.431 46.1063 213.705 46.1602C213.708 46.1592 213.711 46.1581 213.714 46.1571C214.596 46.3241 216.818 45.5839 217.31 45.6249C217.384 45.6313 216.937 46.3813 218.129 46.1462C218.235 46.126 218.133 45.6194 219.138 45.604C219.4 45.6001 222.773 46.3507 223.737 46.3902C226.933 46.5188 234.518 45.8434 238.337 45.8207C238.92 45.8157 239.259 46.1096 239.875 46.1095C240.193 46.1099 240.668 45.7835 240.766 45.7844C241.195 45.7922 243.083 47.2391 242.385 44.3574C244.345 44.5235 243.776 45.4831 243.826 46.1027C245.952 46.1738 246.966 44.8049 247.533 46.2413C257.984 45.9763 268.378 45.7112 278.85 45.4514C278.855 45.6863 278.86 45.9213 278.865 46.1562C281.934 45.1925 282.999 46.7716 284.741 45.3946C285.824 45.686 286.905 45.9776 287.986 46.2692C315.801 45.1291 343.554 46.057 370.957 46.1122C372.101 46.1149 372.39 45.6154 374.266 45.6174C376.29 45.6199 379.339 46.2122 382.145 46.2195C384.612 46.2262 388.206 45.7752 390.878 45.7216C391.482 45.7103 391.915 46.0304 391.982 46.0292C392.381 46.0199 392.405 45.5188 392.79 45.5077C393.251 45.4956 393.804 45.8716 394.333 45.8533C396.251 45.7869 398.616 45.9386 398.855 45.9325C400.119 45.898 400.399 45.4109 400.503 45.4066C401.901 45.362 401.371 45.7989 401.719 45.7771C403.516 45.6619 404.796 44.5722 407.194 45.6646C407.134 45.2538 407.074 44.843 407.014 44.4322C408.86 44.2266 407.628 45.2993 408.001 45.5016C408.162 45.5761 412.084 45.5008 412.375 45.4869C413.418 45.433 413.453 44.8889 413.543 44.883C413.712 44.8678 416.553 45.534 417.959 45.085C419.64 44.5529 417.695 43.408 418.113 43.2078C418.186 43.1737 419.928 43.3205 420.166 42.9785C420.431 42.6103 418.927 42.589 418.952 42.433C418.974 42.3256 421.48 41.6056 421.012 41.0785C420.647 40.5509 417.231 41.1518 416.498 40.8954C416.378 40.8528 416.617 40.216 416.511 40.1906C415.954 40.0909 408.458 39.9546 408.08 40.058C408.474 40.3555 408.866 40.6529 409.258 40.9505C408.731 40.9725 408.203 40.9946 407.673 41.0169C408.423 41.2611 409.169 41.5056 409.911 41.7504C408.776 44.1372 405.431 41.6558 405.3 40.4547C405.247 39.899 407.342 38.4984 405.419 37.6423C405.716 37.5036 406.011 37.365 406.307 37.2265C406.909 37.4683 407.508 37.7103 408.106 37.9525C407.704 38.0945 407.301 38.2366 406.897 38.3787C407.043 38.5475 407.188 38.7163 407.334 38.8851C408.455 39.1677 409.569 39.4511 410.674 39.7352C411.246 39.6205 411.135 39.1262 411.527 39.037C416.389 37.9148 413.205 39.3895 416.539 39.2266C417.024 38.9707 417.508 38.7149 417.991 38.4593C417.801 39.5499 419.3 38.8902 421.054 39.3976C420.85 39.0394 420.646 38.6812 420.442 38.3231C423.022 38.5604 428.094 36.8942 426.688 38.8154C427.26 38.6619 427.829 38.5088 428.395 38.3559C428.862 38.6869 429.327 39.0181 429.79 39.3494C430.422 39.329 431.133 39.311 431.842 39.2936C431.85 39.1208 431.858 38.948 431.866 38.7752C431.314 38.7593 430.699 38.742 430.21 38.7283C430.597 38.2112 431.051 37.6961 431.487 37.1806C431.901 37.2792 432.314 37.378 432.726 37.4769C430.973 37.9274 433.246 38.8037 433.771 39.515C435.213 39.8134 436.149 38.9388 436.628 38.9127C436.86 38.8997 439.419 40.5759 438.453 38.7931C439.788 39.049 441.103 39.3065 442.397 39.5658C442.911 39.4499 443.421 39.3343 443.929 39.2189C442.868 38.363 446.068 37.5002 443.75 37.0746C442.008 36.7564 441.535 37.5037 440.689 37.4691C439.924 37.4392 439.533 36.9124 438.689 36.862C432.91 36.5316 428.235 36.5085 422.889 36.6213C421.817 36.6442 420.838 36.3727 420.107 36.3936C419.282 36.4182 420.304 37.0821 419.254 36.9051C418.149 36.7183 417.916 36.1886 417.622 36.1726C417.438 36.1632 416.848 36.6255 416.309 36.616C414.004 36.5748 411.071 36.0728 410.742 36.0707C410.423 36.0693 404.392 36.4147 404.081 36.4904C403.925 36.5308 404.228 38.2806 402.9 36.4031C402.479 36.3636 402.057 36.3242 401.633 36.2848C401.698 36.6345 401.763 36.9841 401.827 37.3338C399.328 35.9835 400.188 36.7326 397.742 36.6042C392.04 36.2966 383.77 36.5361 377.297 36.3902C375.905 36.3568 375.404 35.9373 373.772 35.9024C372.265 35.8711 368.274 37.1099 369.144 35.3849C365.733 36.8742 365.176 34.296 363.451 35.9026C363.243 35.6685 363.034 35.4345 362.825 35.2004C360.947 36.2034 360.366 35.321 358.3 35.1998C357.412 35.1473 358.427 36.2146 356.645 35.0266C356.314 35.1153 355.983 35.2041 355.651 35.2928C355.728 35.5511 355.805 35.8095 355.883 36.0678C353.953 35.858 353.825 35.993 354.046 35.0257C353.112 35.2027 352.175 35.3799 351.236 35.5573C351.119 35.2401 351.002 34.9229 350.885 34.6057C351.201 33.9903 372.976 34.9085 375.767 35.2221C379.265 34.5137 386.475 35.4495 389.247 35.3002C390.372 35.2395 390.874 34.5253 392.497 34.4518C394.138 34.3786 396.075 35.0481 397.033 35.0806C400.132 35.1824 413.895 35.2221 404.524 34.2069C404.8 33.8603 405.076 33.5138 405.351 33.1673C409.065 34.4099 407.729 33.6569 410.783 33.5779C412.064 33.5437 415.065 34.3747 414.971 32.7839C412.517 32.4464 410.073 32.9178 407.962 32.866C407.757 32.8605 405.281 32.1018 403.98 32.2837C402.807 32.4498 403.603 33.9737 401.059 32.2439C399.133 33.8848 398.031 32.3666 397.522 32.2013C396.653 31.915 396.501 32.7338 395.683 32.8219C394.774 32.9192 394.15 32.3695 394.025 32.3648C392.793 32.3401 386.171 32.2196 385.847 32.5499C386.115 32.6969 386.383 32.844 386.65 32.9912C384.914 33.2146 385.28 32.3784 384.823 32.2753C384.482 32.2764 384.141 32.2776 383.799 32.2788C383.933 32.4534 384.068 32.6281 384.202 32.8028C382.137 32.7548 383.727 32.1582 380.779 32.1598C378.909 32.1617 376.929 32.8186 376.774 32.769C376.723 32.7547 377.292 32.309 376.557 32.2463C375.342 32.1433 373.223 32.1485 372.983 32.757C372.382 32.6692 372.434 32.0733 372.354 32.0596C372.015 31.9996 365.952 31.7857 364.844 31.7505C361.829 31.6506 358.307 31.7776 355.102 31.6801C354.77 31.6704 354.982 32.0526 354.649 32.0406C354.117 32.0213 351.363 31.4247 350.948 31.3831C349.92 31.2806 347.199 31.5241 346.767 31.3513C346.706 31.3268 347.603 30.8079 346.553 30.6499C345.385 30.4753 346.015 31.1691 345.952 31.1762C343.576 31.4196 342.064 30.941 340.428 30.8527C339.898 30.8244 338.92 31.3508 338.168 31.1988C338.082 31.1816 338.251 30.6974 338.166 30.674C337.035 30.4242 335.954 31.3256 335.49 31.3855C334.32 31.5321 334.955 30.8674 334.894 30.8629C334.113 30.8448 333.063 31.0879 331.872 31.0613C326.558 30.9431 322.182 30.9249 316.434 31.0024C315.712 31.0119 314.856 31.4841 314.746 31.4854C314.405 31.4839 314.492 30.9344 313.525 30.9527C311.483 30.9933 309.584 30.9789 307.55 31.0028C307.141 31.0078 306.969 31.5176 306.657 31.5306C305.611 31.5691 302.019 30.262 301.97 31.9197C299.872 30.4674 298.49 31.7418 296.804 31.7401C292.778 31.7377 286.605 31.4866 282.637 31.709C281.803 31.7565 281.415 32.1843 280.951 32.2109C280.12 32.2597 275.35 32.0618 275.1 32.1309C274.611 32.2635 274.921 34.1308 272.386 32.5228C270.906 32.4192 271.087 33.1852 270.782 33.2291C268.402 33.5575 266.087 31.8645 266.53 33.4301C263.763 33.0276 261.963 32.1759 260.848 33.6529C260.856 32.9367 259.552 32.5184 257.986 32.8049C259.602 33.9938 259.411 34.7642 263.289 34.5107C263.35 34.5067 263.229 33.9899 263.29 33.9858C263.844 33.9461 265.002 34.1976 265.946 34.1614C266.889 34.1251 266.362 33.7756 266.74 33.7792C267.086 33.7833 267.079 34.2789 267.579 34.2817C269.201 34.2873 270.643 34.4117 271.572 34.4126C272.157 34.4128 272.808 33.9719 273.261 33.9681C275.015 33.957 278.729 34.2662 280.952 34.2007C281.415 34.1858 281.217 33.6988 282.23 33.6501C282.348 33.6445 282.784 34.1504 283.672 34.2489C284.559 34.3474 285.244 34.089 285.814 34.1372C286.29 34.1775 286.095 34.6316 287.069 34.6522C287.869 34.6683 297.109 34.2722 297.62 34.1969C298.343 34.0875 298.682 33.4494 299.124 33.5238C299.202 33.5398 299.338 34.1527 299.607 34.1947C304.091 34.8874 313.693 33.9868 318.87 33.9638C329.482 33.9134 339.183 34.2337 349.856 34.3572C350.045 34.4637 350.234 34.5702 350.423 34.6767C349.354 34.6825 348.281 34.6886 347.206 34.695C347.2 34.9839 347.194 35.2728 347.187 35.5617C345.733 35.6107 345.923 34.9271 345.963 34.5147C345.425 34.6909 344.885 34.8672 344.345 35.0436C343.879 34.0378 340.265 34.7176 338.387 34.7228C337.169 34.7269 335.699 34.3486 335.088 34.3808C333.763 34.4475 333.799 35.0687 333.695 35.079C333.518 35.0937 331.661 34.5534 330.318 34.5805C328.331 34.6196 328.122 35.5743 325.385 34.7777C321.884 35.2899 317.97 35.0625 314.152 35.0046C314.87 35.8819 311.51 35.0678 309.99 35.0916C300.728 35.2366 289.189 35.7007 279.785 36.1267C278.572 36.1806 277.658 36.7076 276.98 36.696C276.613 36.6902 276.448 36.0792 275.938 36.1645C275.848 36.1808 275.791 36.7539 274.842 36.848C272.474 37.0843 266.586 36.1787 265.113 37.2905C257.05 37.1898 248.983 37.0909 240.897 36.9911C240.696 37.2268 240.496 37.4625 240.295 37.6983C238.749 36.516 232.694 37.2708 229.745 37.2394C224.578 37.1829 217.871 36.8663 213.322 36.8615C212.332 36.8605 211.523 37.206 210.587 37.2063C210.185 37.2059 209.681 36.7701 209.262 36.771C204.585 36.7737 198.164 37.2733 193.397 37.2943C182.675 37.3427 172.352 37.4663 161.537 37.4837C124.633 37.4889 87.882 36.9323 51.234 35.6758C50.7055 35.6557 50.7093 36.1619 50.3017 36.1468C47.8652 36.0645 42.765 35.3788 40.3545 35.2472C38.6172 35.1623 34.7859 35.6681 34.2048 34.8394C38.2403 34.5515 41.6256 34.4837 45.4513 34.5213C49.3183 34.5594 53.1992 34.6688 56.813 34.6423C57.3409 34.6392 57.4257 34.1613 57.491 34.155C58.7065 34.033 57.9116 34.6667 59.6826 34.7602C60.2488 34.7941 65.9265 33.4409 65.2209 34.9451C66.5965 34.3835 75.4714 34.309 77.3619 34.5455C77.9077 34.6191 77.5105 35.0631 77.6187 35.0884C78.0888 35.1985 78.3161 34.5792 78.7406 34.572C79.8563 34.5575 82.8128 35.121 83.2529 35.125C84.4285 35.1422 88.0295 34.6955 89.6431 34.8391C91.1174 34.9706 90.8313 35.6182 92.1163 35.6966C93.1332 35.7562 92.0274 35.1931 94.3107 35.0583C95.4217 34.9929 99.4929 35.4337 100.398 35.4427C101.318 35.4526 102.351 35.0733 103.634 35.1157C105.477 35.1764 109.554 35.4275 111.493 35.5655C111.608 35.5734 111.886 36.0824 112.171 36.0737C112.762 36.0565 112.588 35.4291 113.035 35.3685C113.488 35.3102 121.243 35.4284 122.449 35.424C123.33 35.4239 123.94 35.7991 124.429 35.7976C124.813 35.7954 124.856 35.2739 125.249 35.2693C125.37 35.2697 126.403 35.7262 127.443 35.7185C128.42 35.711 132.177 35.2879 132.619 35.2842C132.904 35.2828 132.59 35.653 133.433 35.6455C134.202 35.6375 134.709 35.1568 135.149 35.1502C136.169 35.1356 137.317 35.5469 138.402 35.5493C141.405 35.5555 141.257 34.9586 141.437 34.9393C141.939 34.8854 142.141 35.4314 142.306 35.4426C143.003 35.4882 144.717 35.5881 145.343 35.6086C146.122 35.6343 146.452 35.115 147.283 35.1122C147.902 35.1118 149.154 35.6162 150.575 35.6383C153.758 35.691 157.691 35.7763 160.766 35.7468C161.688 35.7385 161.829 35.2642 162.111 35.2509C163.596 35.1808 164.433 35.7072 164.858 35.6987C167.888 35.64 173.344 34.7842 176.208 34.6987C177.383 34.6648 182.462 35.0209 185.274 34.935C185.598 34.9259 185.292 34.5563 185.653 34.6123C186.517 34.7464 186.442 35.5031 186.88 35.4776C187.092 35.4629 187.572 35.0336 188.188 34.9873C191.387 34.7471 193.603 35.0637 195.072 35.0308C209.181 34.7148 223.508 34.3972 236.61 34.2175C238.074 34.1978 239.893 34.6321 242.102 34.1761C242.167 33.9405 242.234 33.705 242.3 33.4694C242.379 33.6996 242.458 33.9299 242.538 34.1601C245.044 34.2634 245.997 34.5523 248.549 34.2359C248.769 34.2094 249.432 33.1308 249.859 34.4595C252.383 33.4723 251.002 34.4574 252.882 34.5308C254.762 34.6042 256.585 34.2909 258.406 34.2081C259.4 33.7221 255.201 32.6577 254.928 32.6636C254.488 32.6717 254.036 33.3381 253.613 33.377C252.359 33.4932 251.14 32.9782 250.864 33.5718C249.236 32.9609 251.259 33.2556 251.051 32.6943C249.97 32.9367 248.89 33.1791 247.809 33.4215C247.241 31.5113 241.271 34.0608 241.676 32.599C241.202 32.895 240.728 33.1911 240.255 33.4872C238.151 31.6759 236.934 32.9746 234.156 33.5428C234.355 33.3071 234.553 33.0714 234.752 32.8357C234.694 32.7386 232.236 32.3855 233.122 33.3746C230.595 32.0829 230.72 34.2663 228.453 32.7063C227.114 32.515 227.925 33.4254 225.532 33.4296C224.117 33.4326 222.327 32.9679 220.733 32.9475C220.365 32.9443 220.21 33.4767 219.883 33.4793C219.556 33.4818 219.392 32.9624 218.996 32.9525C218.178 32.931 217.122 33.305 216.611 33.2739C216.153 33.2475 215.496 32.7935 214.394 32.7301C210.548 32.5051 211.716 33.1517 211.111 33.3784C210.461 33.6195 209.986 32.759 208.691 32.8691C208.561 32.8807 208.901 33.4166 208.478 33.3987C208.137 33.3848 207.961 32.8008 206.832 32.7002C206.391 32.6598 199.395 32.5857 198.305 32.5823C196.658 32.5782 193.007 33.0984 191.316 33.1058C190.664 33.1099 189.965 32.6445 189.273 32.652C186.981 32.6772 183.327 32.7391 180.45 32.7778C177.789 32.8142 173.157 33.8746 171.716 32.9445C168.025 32.8399 167.145 33.6432 166.867 33.6553C166.12 33.6883 165.771 33.1595 164.831 33.1384C152.585 32.8799 136.445 33.2481 124.778 33.1621C97.7752 32.9283 70.8914 32.47 43.41 31.2214C43.3516 30.9827 43.2932 30.7441 43.2351 30.5054C46.3059 30.531 50.61 30.3291 53.5411 30.3572C57.5217 30.4069 64.0505 31.6049 67.2035 30.0856C66.0844 29.9129 63.7856 30.4574 63.8861 29.6339C66.32 29.6519 68.3569 29.651 70.5764 29.6508C70.5008 30.0304 70.4252 30.41 70.3497 30.7895C72.6379 30.9613 75.0333 30.9359 77.4269 31.0428C77.843 31.0609 77.5405 31.4007 77.9035 31.4103C78.3101 31.4203 78.042 31.062 78.1182 31.0608C79.1471 31.0793 79.4546 31.442 79.5807 31.4395C79.9059 31.4321 79.6589 31.0877 80.5998 31.0115C82.3863 30.8694 83.492 31.791 83.1451 30.2823C83.6691 30.292 84.1949 30.3016 84.7228 30.3109C84.8522 30.7222 84.9819 31.1335 85.1117 31.5448C88.3992 29.9507 89.8989 32.8687 91.7819 30.5981C92.3876 30.9577 92.9959 31.3172 93.607 31.6765C93.9596 31.2723 94.3128 30.868 94.6665 30.4637C94.7298 30.8155 94.7931 31.1673 94.8566 31.5191C98.2378 31.3045 101.717 31.7634 104.775 31.7511C106.931 31.7426 107.454 31.6083 109.388 31.6498C113.71 31.7415 109.414 31.0144 113.027 30.2873C112.836 30.7163 112.645 31.1454 112.454 31.5744C113.051 31.7361 113.65 31.8976 114.251 32.059C114.673 31.7107 115.095 31.3623 115.517 31.0139C117.368 32.845 118.622 31.3816 118.844 31.3827C119.041 31.3868 119.705 32.4864 121.834 31.5672C120.946 33.0618 123.459 31.5826 123.662 31.5743C123.852 31.5691 126.309 31.9119 127.315 31.9005C128.104 31.8921 129.796 31.5737 130.983 31.5918C132.031 31.6078 131.925 32.1162 132.001 32.1216C133.295 32.166 132.485 31.7695 133.422 31.7515C134.359 31.7335 135.09 32.1677 135.293 32.1292C135.395 32.1087 135.054 31.6345 135.522 31.5893C136.784 31.4658 139.059 31.8818 140.428 31.8694C140.921 31.8656 141.544 31.4636 142.096 31.4511C142.942 31.4333 143.338 31.9669 143.831 31.9508C144.003 31.9437 145.097 31.1184 146.464 31.2436C146.724 31.2688 147.491 33.013 148.507 30.5392C148.586 30.887 148.666 31.2348 148.745 31.5825C153.359 32.4366 154.661 29.6062 156.741 32.109C160.138 31.8193 157.803 30.8489 158.175 30.6982C158.42 30.6029 159.516 30.8682 159.628 30.8525C159.836 30.8219 159.8 30.5084 160.029 30.5094C164.236 30.5536 162.372 31.1517 163.709 31.5222C166.898 32.4032 169.383 30.4107 163.837 31.0273C163.836 30.8524 163.836 30.6774 163.835 30.5025C165.196 30.6649 168.674 30.5711 167.509 29.6885C166.58 28.9942 158.392 29.4792 163.027 28.4821C164.08 28.2564 164.628 28.9111 166.457 27.6726C167.67 27.6009 167.851 29.1952 169.498 28.5479C169.229 29.1055 168.96 29.6631 168.692 30.2207C170.942 30.9364 173.726 29.9502 175.47 30.253C176.062 30.3564 178.214 32.9979 177.702 30.3483C178.723 30.5086 183.346 29.994 184.201 30.2265C184.408 30.2826 184.681 31.6934 187.674 31.182C187.881 31.0037 188.088 30.8254 188.295 30.6471C185.55 30.15 190.39 29.5966 189.066 28.2649C188.622 28.8701 186.451 29.2509 186.105 29.5559C185.512 30.0808 187.291 30.742 185.028 30.5725C183.589 28.3416 187.672 29.3475 187.036 27.2248C190.017 28.1989 190.313 27.2496 190.988 27.2059C193.876 27.0268 195.703 27.2397 198.444 26.9723C199.114 27.4045 194.157 28.0694 193.546 27.8848C195.813 29.4178 191.929 29.514 190.292 28.605C190.158 29.0738 190.024 29.5426 189.89 30.0114C192.013 29.7442 194.092 29.6 196.211 29.9694C196.348 29.7934 196.485 29.6175 196.621 29.4416C196.144 29.1815 195.668 28.9213 195.192 28.661C196.949 28.2175 195.901 29.5893 198.242 28.3775C198.318 28.9039 198.395 29.4303 198.471 29.9567C200.725 29.7658 202.982 29.5745 205.197 29.383C206.362 30.4311 210.655 30.0046 209.858 28.6426C211.593 28.5326 209.456 29.2772 211.085 29.5975C211.794 29.7364 213.18 29.7661 213.52 29.3953C213.362 28.0939 211.288 27.9485 210.654 27.0587C211.026 26.7678 220.693 27.6204 219.823 26.1037C220.594 25.9143 220.245 26.702 221.641 26.8914C225.576 27.4193 231.541 25.8175 234.701 27.7367C231.032 28.8513 229.935 27.7133 227.122 27.6912C225.349 27.6767 214.296 27.582 216.777 28.9391C216.371 28.7674 215.966 28.5956 215.56 28.4239C215.155 28.8371 214.75 29.2503 214.345 29.6634C215.496 29.7133 216.647 29.7631 217.8 29.8128C218.072 29.4016 218.344 28.9905 218.615 28.5794C218.745 28.8703 218.874 29.1612 219.003 29.4521C219.489 29.5061 219.975 29.5601 220.462 29.6141C220.322 29.2643 220.183 28.9145 220.044 28.5647C220.792 28.4986 221.54 28.4324 222.289 28.3662C222.091 28.8368 221.893 29.3074 221.695 29.778C225.224 29.8668 224.034 29.5829 225.968 28.6896C227.417 28.5878 224.975 29.5097 228.045 29.7128C231.619 29.9485 229.262 28.5356 233.895 28.8025C233.963 29.0359 234.032 29.2693 234.101 29.5027C235.117 29.26 236.134 29.0173 237.151 28.7746C237.019 29.0666 236.887 29.3587 236.755 29.6508C238.857 29.52 241.763 30.05 242.451 28.9026C240.322 29.4707 240.326 27.4777 240.877 27.1066C242.02 26.3451 258.938 26.8967 262.211 26.9181C266.401 26.9453 269.545 26.2801 273.4 27.2287C270.79 28.0548 261.691 27.4737 259.963 28.0453C259.792 28.1014 259.856 29.9277 258.738 27.8819C255.196 28.2612 250.952 27.7159 246.52 27.8144C246.66 28.3391 246.801 28.8638 246.941 29.3885C249.655 28.2463 252.196 30.6809 251.824 28.6409C252.366 28.6362 252.908 28.6315 253.45 28.6268C253.453 28.9787 253.456 29.3307 253.459 29.6826C254.276 29.6755 255.093 29.6684 255.91 29.6613C255.907 29.3093 255.904 28.9574 255.901 28.6054C256.578 28.5995 257.254 28.5937 257.931 28.5878C258.004 28.9381 258.078 29.2884 258.151 29.6387C260.172 28.8922 267.089 30.7817 264.038 28.712C264.988 28.7039 265.939 28.6957 266.889 28.6876C266.888 28.945 266.887 29.2023 266.886 29.4597C267.295 29.4908 267.704 29.5219 268.112 29.553C267.976 29.3212 267.839 29.0894 267.703 28.8577C269.574 29.2591 271.35 28.0177 272.591 28.8132C271.778 28.996 270.965 29.1789 270.152 29.3617C271.712 29.0142 274.594 29.6827 274.851 29.6824C275.635 29.6793 276.044 29.1557 276.893 29.1222C277.659 29.0933 277.557 29.494 277.7 29.4787C281.828 29.0379 280.235 26.8866 282.183 29.433C282.385 29.0814 282.587 28.7299 282.789 28.3783C283.065 28.668 283.34 28.9578 283.615 29.2475C284.832 29.2103 286.048 29.1732 287.263 29.1362C286.861 29.5768 286.459 30.0174 286.057 30.458C287.881 30.6388 288.722 29.7553 288.898 29.7338C289.397 29.6789 289.629 30.2276 289.783 30.2274C297.218 30.1232 292.705 29.6728 296.422 27.5772C297.761 28.3789 296.418 29.2023 296.235 30.0292C298.005 29.6289 298.559 29.8535 300.425 29.7944C300.91 29.7785 301.429 29.3294 301.735 29.3213C302 29.3141 302.832 29.7816 303.467 29.7792C304.526 29.7754 305.933 29.4837 307.378 29.4812C308.585 29.4801 312.242 29.7909 314.813 29.7791C315.924 29.7724 315.664 29.3781 315.95 29.3756C316.07 29.3749 316.937 29.844 317.648 29.8418C323.446 29.8191 329.33 29.49 335.032 29.4769C339.116 29.4665 343.328 29.8349 347.39 29.7875C348.255 29.7769 347.796 29.4298 348.174 29.4167C348.304 29.4133 348.462 30.0203 349.796 29.7737C350.278 29.6848 349.723 29.2609 350.197 29.239C350.427 29.2285 350.527 29.7608 351.871 29.8803C354.311 30.0987 355.609 29.3882 355.826 29.4091C356.234 29.4497 356.115 29.8904 356.655 29.9059C359.379 29.9818 361.668 30.0569 364.078 30.0958C365.223 30.1126 372.905 30.2161 373.307 30.1396C374.241 29.9661 373.375 29.0433 374.572 29.0782C374.906 29.3122 375.239 29.5462 375.573 29.7803C375.041 29.9555 374.509 30.1308 373.976 30.3063C375.453 30.0147 377.059 30.4389 378.225 30.4277C378.435 30.4248 380.353 30.0155 381.322 30.0659C380.91 29.891 380.497 29.7161 380.084 29.5414C380.231 29.3945 380.378 29.2477 380.525 29.1009C382.472 29.3333 384.515 29.3384 386.479 29.3189C387.186 29.3125 386.95 28.9527 387.665 28.945C391.813 28.8979 390.758 30.38 394.714 27.6161C393.4 27.8571 388.514 27.465 387.788 27.5542C387.289 27.6159 385.329 29.9672 386.057 27.5463C382.028 27.5338 385.529 28.8906 381.747 28.5787C381.824 28.283 381.901 27.9874 381.979 27.6918C380.655 27.4987 379.67 27.3448 378.857 27.8638C378.539 26.426 374.173 27.25 371.766 27.148C368.286 27.002 364.3 26.6469 360.764 26.5848C359.546 26.5637 358.852 27.1268 358.699 27.125C358.475 27.121 357.844 26.6283 357.396 26.625C355.75 26.6111 350.842 27.4504 349.591 26.0846C359.117 26.0673 369.267 26.0722 378.855 26.1121C377.621 26.7773 387.628 26.8934 388.092 26.8665C388.554 26.8395 388.169 26.3647 388.306 26.3369C389.33 26.1412 390.192 26.8323 390.514 26.8346C390.76 26.8364 391.259 26.5187 392.129 26.5326C392.288 26.5349 392.33 26.875 392.501 26.8774C393.634 26.8864 394.746 26.8911 395.871 26.9031C395.942 26.9005 396.218 26.4067 396.528 26.4087C396.83 26.4115 397.124 26.9102 397.2 26.9125C398.153 26.918 399.78 26.612 400.674 26.6182C400.985 26.6217 400.765 26.9828 401.113 26.9831C402.179 26.9861 401.838 26.2707 403.148 26.4691C403.586 26.536 403.552 27.0796 404.391 27.018C404.984 26.9742 404.932 26.004 405.026 25.9699C405.158 25.9288 407.183 26.7206 407.849 26.0952C406.428 24.4004 409.429 26.0295 409.27 26.7346C410.068 26.5679 410.862 26.4016 411.652 26.2357C411.918 26.4188 412.184 26.6019 412.449 26.7852C415.571 26.0278 417.82 26.5516 421.017 26.3666C421.178 26.357 423.89 26.0155 423.766 25.7614C422.167 25.2935 420.536 25.2413 419.468 26.0219C417.76 24.4625 417.716 25.6778 414.871 25.4266C413.898 25.3416 413.897 24.9275 413.782 24.9203C410.34 24.6564 404.628 24.4031 402.159 25.5879C401.479 25.2524 403.938 25.1509 402.985 24.8985C402.432 24.7531 389.98 24.2531 393.934 25.6837C393.532 25.6417 393.129 25.5997 392.725 25.5578C392.333 24.2369 390.31 24.5229 390.529 25.8368C390.339 25.5669 390.149 25.2969 389.959 25.027C389.581 24.7971 389.132 24.6722 388.5 24.5957C386.105 24.2968 371.455 24.6961 370.783 24.5121C370.766 24.2008 370.749 23.8895 370.733 23.5782C376.94 23.2396 383.456 24.0397 390.339 23.1987C390.136 23.4892 389.933 23.7797 389.73 24.0702C392.529 23.6813 395.108 23.2938 398.024 22.9134C394.967 22.3544 390.513 21.8749 387.377 22.2903C386.827 22.3644 387.228 22.7741 387.101 22.8226C386.77 22.9486 386.421 22.2399 385.229 22.1643C384.041 22.0884 381.016 22.5741 380.736 22.559C380.201 22.5274 378.754 21.713 377.834 21.7197C376.625 21.7292 377.433 22.2325 377.19 22.2422C376.224 22.2878 375.372 22.0371 374.617 22.0717C373.5 22.1231 371.161 22.9969 370.373 21.7037C371.18 21.6464 371.985 21.5893 372.788 21.5324C368.433 21.0579 364.979 22.7048 360.579 21.4305C359.578 19.8663 363.217 20.0783 360.14 19.4103C360.7 19.4327 361.258 19.4552 361.815 19.4777C361.946 19.8053 362.076 20.1329 362.207 20.4605C363.166 20.227 364.123 19.9937 365.077 19.7607C364.805 20.0524 364.532 20.3441 364.259 20.6358C367.648 20.8585 371.016 21.1654 372.181 19.5991C372.248 19.9787 372.316 20.3583 372.383 20.7379C375.432 20.2836 380.161 21.9116 379.294 19.797C379.445 19.9095 379.595 20.022 379.746 20.1346C381.672 19.7116 380.846 20.5811 381.567 20.6831C381.777 20.7114 385.485 20.2806 383.846 19.6449C387.456 19.1863 386.326 21.1536 387.315 21.2462C389.619 20.2827 393.663 21.7815 391.968 20.2234C392.305 20.168 392.641 20.1127 392.977 20.0575C394.069 21.2817 395.158 19.916 396.349 19.4672C396.775 19.4437 397.2 19.4203 397.625 19.3969C397.905 19.8086 398.185 20.2203 398.464 20.632C402.451 18.7267 401.131 24.0366 402.977 19.5851C402.702 19.3144 402.425 19.0436 402.149 18.773C401.487 18.6383 400.822 18.5039 400.155 18.3697C402.852 18.2802 405.51 18.1943 408.129 18.1121C411.523 16.906 413.102 18.2896 417.084 17.3677C417.441 17.4931 417.797 17.6185 418.153 17.7441C417.806 16.7249 416.417 16.848 419.008 16.4415C419.243 15.7296 417.501 15.6045 416.688 16.1398C416.492 16.2704 418.125 16.8478 416.278 16.8346C415.037 16.8273 417.259 16.0034 413.594 16.2616C413.728 16.0887 413.861 15.9159 413.995 15.7431C413.612 15.742 413.229 15.7409 412.844 15.7399C412.496 16.1393 412.148 16.5388 411.798 16.9384C410.924 16.3404 410.444 15.5131 408.4 15.659C408.95 15.9203 408.19 16.7226 407.174 16.6953C407.178 16.4024 407.182 16.1095 407.186 15.8165C404.722 15.596 405.565 16.4664 403.505 15.7703C403.294 16.0008 403.084 16.2313 402.873 16.4618C401.762 15.488 397.545 14.7918 398.3 16.2388C397.089 14.828 394.703 15.4375 393.815 16.5488C393.749 16.2573 393.684 15.9658 393.618 15.6743C393.147 15.6114 392.676 15.5486 392.203 15.4858C391.937 15.6597 391.672 15.8337 391.406 16.0076C391.071 15.8291 390.736 15.6506 390.399 15.4722C390.194 15.7626 389.988 16.0531 389.782 16.3435C389.241 15.9898 388.699 15.6361 388.156 15.2825C387.821 15.5133 387.485 15.744 387.148 15.9748C387.121 15.3654 383.79 15.21 382.845 15.6053C382.567 15.4269 382.288 15.2485 382.009 15.0701C381.87 15.3593 381.732 15.6486 381.593 15.9378C381.386 15.7049 381.178 15.472 380.97 15.2391C380.487 15.4687 380.003 15.6985 379.519 15.9284C377.552 14.4988 377.473 15.7459 377.03 15.7354C376.234 15.7159 373.501 14.8174 373.039 14.8621C372.58 14.907 372.357 15.4166 371.985 15.4636C365.845 16.2517 368.363 14.889 367.128 14.6699C366.458 14.551 365.983 15.0263 365.389 14.973C364.38 14.8831 359.21 14.2518 358.904 14.3141C358.469 14.4031 359.495 16.647 358.078 16.069C358.011 14.8639 355.058 16.0819 356.432 14.4006C355.229 14.5488 354.021 14.6975 352.81 14.8465C352.946 13.4179 351.454 14.3384 349.817 14.262C347.506 14.1543 342.233 13.2291 342.427 14.6941C341.864 14.359 341.3 14.024 340.736 13.6891C336.847 14.1624 333.145 13.6935 329.378 13.6928C318.12 13.6887 305.951 14.0854 294.708 14.4583C294.167 14.4766 294.249 14.9546 293.859 14.9681C291.789 15.0363 286.555 14.7382 283.7 14.8669C282.788 14.9077 282.348 15.3782 282.059 15.402C281.077 15.4857 281.304 14.8686 280.851 14.8899C280.138 14.9239 276.364 15.5259 275.06 15.5967C274.415 15.6317 273.647 15.1493 272.893 15.3066C272.828 15.3194 272.952 15.8222 272.897 15.8315C271.519 15.9047 272.345 15.4623 271.879 15.4891C268.546 15.6809 265.028 15.721 261.431 15.856C260.539 15.8901 259.176 16.2571 258.41 16.2972C258.117 16.3115 258.638 15.9248 257.628 15.9652C257.283 15.979 257.168 16.4771 256.778 16.5128C255.096 16.663 254.519 15.0706 253.083 16.3679C250.29 16.3077 245.424 15.94 242.872 15.9533C242.269 15.9571 241.978 16.2532 241.403 16.253C240.995 16.253 240.273 15.8044 239.637 15.8044C239.001 15.8046 238 16.2464 236.777 16.2411C235.49 16.2363 233.888 15.9927 233.598 15.9968C233.248 15.9998 233.089 16.5482 232.739 16.5443C231.68 16.5357 228.844 16.0222 227.482 15.9755C226.019 15.9262 225.144 16.1987 224.644 16.1976C224.18 16.1941 223.63 15.7371 223.417 15.7348C223.086 15.7305 223.012 16.2706 222.591 16.2696C221.903 16.2664 221.192 15.933 220.162 15.9325C201.661 15.9161 183.654 16.3421 165.579 16.806C163.589 16.8576 162.464 16.4836 159.556 16.6654C158.38 16.7395 158.866 17.2947 157.925 17.1922C157.503 17.1458 157.608 16.7077 157.075 16.688C154.718 16.603 151.996 17.0155 150.987 17.0102C150.587 17.0088 150.128 16.5124 149.31 16.5065C143.226 16.4598 136.097 16.6 129.449 16.498C125.932 16.4445 120.884 16.1731 116.829 16.1167C105.69 15.9639 93.8071 15.9517 84.0308 15.7214C68.6737 15.356 53.8826 14.4991 39.1267 14.0774C45.7818 13.3302 55.4896 13.8687 63.3257 13.9864C86.003 14.3401 110.139 15.209 133.408 15.2237C141.681 15.2276 151.652 15.2431 160.681 14.9346C161.078 14.921 161.904 15.3006 162.767 15.2571C162.949 15.2471 165.221 14.5411 165.991 14.5309C165.267 15.7738 168.277 14.6565 169.215 14.6822C170.395 14.7161 172.863 15.3247 175.647 14.9601C178.176 14.63 177.477 14.1565 177.616 14.1259C178.511 13.9278 178.829 14.6948 179.517 14.7687C182.274 15.066 196.498 14.529 200.552 14.4696C201.591 14.455 201.617 13.9662 201.852 13.9627C202.475 13.955 203.338 14.4312 204.319 14.4207C206.084 14.4006 208.119 13.9239 209.094 13.9147C211.424 13.8916 215.865 14.4006 218.915 14.3862C219.772 14.3824 219.716 13.8744 220.104 13.873C221.816 13.868 226.27 14.4302 228.372 14.4177C231.799 14.3975 235.328 14.0386 238.824 14.1757C239.043 13.9469 239.263 13.7182 239.482 13.4894C239.834 13.7244 240.185 13.9594 240.537 14.1944C246.449 13.9618 252.467 14.4199 258.34 14.3355C259.017 14.326 262.363 13.863 262.921 13.8564C263.385 13.8524 263.847 14.4104 264.535 14.3217C265.498 14.1986 264.581 13.1363 266.159 13.4289C266.583 13.508 266.176 13.9696 267.028 14.105C267.304 14.1501 272.775 14.2894 273.071 14.2553C273.561 14.1978 273.991 13.2128 274.117 13.1906C274.774 13.0744 274.752 13.8277 275.194 13.8927C276.498 14.0875 278.193 13.5669 278.404 13.5763C280.962 13.6943 285.734 14.2572 288.399 13.8807C288.767 13.8283 288.719 13.2678 288.783 13.2491C289.201 13.1297 289.465 13.7661 289.863 13.7778C291.984 13.8336 295.394 13.3781 297.558 13.2532C297.808 13.2395 298.338 13.5428 298.783 13.5098C301.302 13.3192 300.48 12.8322 300.623 12.81C300.962 12.7553 301.562 13.2947 302.464 13.322C304.789 13.3955 309.226 13.2879 311.694 13.2304C313.543 13.1854 313.511 12.5632 313.632 12.5501C313.887 12.5262 314.622 13.0187 315.864 13.0678C318.249 13.1647 317.974 12.6774 318.952 12.6929C319.034 12.6925 318.894 13.1719 319.979 13.2152C322.076 13.2983 326.753 12.804 328.968 12.8189C329.821 12.8238 330.022 13.2844 330.893 13.2894C332.276 13.299 335.378 12.7876 335.621 12.7881C335.689 12.7878 335.842 13.3182 336.259 13.3167C336.715 13.3149 337.162 13.04 337.502 13.0406C339.437 13.0409 342.748 13.9579 341.823 12.0653C342.44 12.5314 343.056 12.9976 343.67 13.4639C347.681 13.3599 351.541 13.5403 355.436 13.6323C356.312 13.6526 357.038 13.2933 357.814 13.3104C358.583 13.3274 361.945 13.9215 362.501 13.9332C363.509 13.9522 369.136 14.0218 369.821 13.9818C371.178 13.9034 372.488 13.1236 373.036 13.2783C373.474 13.4028 373.068 13.843 373.904 13.9704C375.352 14.1907 377.797 13.6328 378.292 13.6437C378.488 13.6481 378.121 13.9904 379.956 14.023C380.943 14.0414 381.472 13.665 381.829 13.6685C381.939 13.6711 381.774 14.2845 383.711 14.2122C385.047 14.1613 385.615 13.6907 385.755 13.6897C385.965 13.6878 386.467 14.1967 387.304 14.1845C389.265 14.1524 392.806 13.5989 394.62 13.571C394.971 13.5653 394.849 14.1753 396.244 14.1317C397.289 14.1009 397.119 13.6131 397.513 13.5974C398.141 13.5735 399.069 14.178 400.441 14.1734C402.267 14.16 414.623 13.7139 415.308 13.5735C415.765 13.4738 416.291 13.4761 416.52 13.2159C416.332 12.9593 416.144 12.7027 415.955 12.4461C413.942 13.3009 414.751 12.2988 414.25 12.2252C413.539 12.1197 410.813 12.2073 410.148 11.9726C409.912 11.8878 410.464 11.3549 409.193 11.0586C407.825 10.742 407.196 11.6964 406.663 10.3742C404.68 11.8086 402.788 10.2366 405.088 9.85056C406.387 9.62795 418.756 9.29586 421.467 9.27985C423.57 9.25607 427.414 9.73259 429.875 9.69512C431.2 9.66682 435.214 9.7104 435.027 9.00658C436.402 8.95837 434.93 9.61203 435.215 9.71723C435.825 9.93543 440.055 9.5857 440.822 9.63256C444.585 9.84871 449.567 10.825 453.498 10.1288C453.328 9.93342 453.158 9.7381 452.988 9.54282C452.157 9.15761 448.021 9.47246 447.566 8.55764C453.907 8.81668 458.734 9.04754 465.274 9.4728C465.186 10.2198 472.352 10.7385 472.624 10.4316C472.535 10.0525 472.446 9.6735 472.356 9.29447C468.32 10.3784 468.782 8.55878 465.925 9.34805C464.772 9.28489 465.159 8.69785 464.593 8.54445C458.878 7.03345 464.359 9.78059 460.066 8.97987C461.312 8.16149 458.083 7.65327 456.565 7.46527C456.246 7.42066 451.625 7.42613 451.041 7.38996C447.712 7.16194 442.799 6.49344 439.728 6.88205C437.342 6.86327 436.023 6.19176 433.79 5.98281C432.088 5.82497 432.563 6.28267 431.755 6.26655C430.155 6.23696 429.706 4.87329 428.647 6.73426C427.587 6.47347 426.518 6.21354 425.44 5.95446C425.434 6.24735 425.427 6.54023 425.421 6.83312C424.74 6.81795 424.057 6.80313 423.37 6.78863C423.174 6.49249 422.977 6.19638 422.781 5.90029C420.579 6.25515 421.479 6.9794 421.052 7.80039C420.575 7.84791 420.097 7.89559 419.617 7.94342C419.258 7.29969 418.898 6.65605 418.537 6.01249C416.386 6.0246 414.174 6.03951 412.182 6.06076C412.045 6.35063 411.908 6.64051 411.771 6.9304C411.771 6.63843 411.771 6.34646 411.771 6.05448C408.3 5.94166 404.756 5.83586 401.145 5.73651C400.198 5.25681 405.957 4.96828 406.373 4.94714C408.802 4.82099 414.956 5.38655 415.028 4.34845C416.582 5.1497 421.181 5.04258 422.595 4.14136C420.458 4.15325 418.289 4.16831 416.09 4.18638C416.167 3.83875 416.244 3.49112 416.321 3.1435C413.493 4.50285 413.3 4.4225 410.617 3.05237C410.608 3.52021 410.599 3.98804 410.589 4.45588C408.758 2.80106 405.38 5.51788 405.306 3.50838C404.294 3.65852 403.276 3.80921 402.253 3.96042C400.064 3.69305 403.443 2.17715 394.859 2.70263C394.285 2.73995 394.401 3.25261 393.537 3.21022C393.287 3.19772 391.871 2.44087 389.103 2.49914C388.671 2.50855 388.635 2.95226 388.185 3.00563C387.148 3.13241 385.071 2.24212 386.007 3.67852C381.859 4.07202 383.579 2.90798 382.29 2.43438C381.427 2.12039 381.597 2.96777 380.848 2.77231C379.922 2.53031 380.6 1.67867 376.88 2.0572C377.27 2.11659 377.712 2.17623 378.127 2.23584C377.915 2.46693 377.702 2.69804 377.49 2.92918C375.42 2.36512 375.631 3.17925 374.665 1.8728C373.172 2.44949 371.879 2.49223 369.82 2.38239C365.807 2.16946 367.877 0.767316 363.256 2.65463C362.506 2.38866 361.754 2.12286 361 1.85721C359.76 2.41536 360.764 3.1138 358.91 3.25487C360.373 1.87541 356.41 2.37925 355.816 1.15067C355.749 1.44368 355.682 1.73669 355.616 2.0297C355.215 2.03001 354.813 2.03037 354.411 2.03076C354.41 1.79579 354.408 1.56081 354.407 1.32583C353.872 1.50234 353.336 1.67892 352.799 1.85558C352.395 1.62314 351.991 1.39075 351.586 1.15839C350.922 1.65068 350.256 2.14307 349.59 2.63558C349.171 2.66989 348.752 2.70424 348.332 2.73864C348.464 2.38846 348.596 2.03827 348.728 1.6881C348.189 1.80611 347.65 1.92419 347.109 2.04234C347.737 1.46685 347.342 0.794257 345.655 0.815819C344.261 0.833418 345.838 2.02759 342.833 1.53721C342.622 1.50237 342.253 0.648235 339.398 0.525309C335.967 0.378514 337.635 0.992073 337.023 1.0156C336.907 1.01954 335.837 0.593256 334.893 0.535252C334.35 0.502241 333.828 0.851602 333.756 0.850981C333.42 0.836476 333.321 0.345577 332.855 0.329736C331.674 0.292297 330.085 0.53992 328.921 0.520733C328.392 0.512577 327.893 0.223831 327.657 0.221425C327.29 0.219782 326.827 0.666561 326.456 0.666595C325.086 0.663859 322.991 -0.800416 322.361 1.25185C321.029 -0.625308 318.258 1.66805 318.454 0.403441C314.843 0.899591 305.551 -0.590251 305.818 1.5316C303.813 -0.27023 303.999 1.04325 303.164 1.02172C302.229 0.998244 302.711 0.642782 301.967 0.663814C300.231 0.712956 298.57 0.876109 296.836 0.895841C297.11 1.18477 297.384 1.4737 297.659 1.76264C295.839 1.86927 296.461 1.18764 294.601 1.07103C291.177 0.858916 292.623 1.38835 292.123 2.15473C292.248 1.41744 288.263 1.56253 287.856 1.66269C287.613 1.72365 288.684 2.66414 286.235 2.37731C286.367 2.08432 286.498 1.79133 286.63 1.49835C285.518 1.90634 282.482 1.42394 281.967 1.52636C281.731 1.57405 280.485 3.9386 279.311 2.08504C279.173 2.37812 279.036 2.6712 278.898 2.96428C277.608 2.62389 276.317 2.2836 275.025 1.94339C274.824 2.47099 274.623 2.99859 274.421 3.52619C274.012 3.5296 273.603 3.53302 273.194 3.53645C273.461 3.06729 273.729 2.59813 273.997 2.12897C271.471 2.36134 268.377 1.65137 267.877 3.23041C267.336 2.94307 266.794 2.65574 266.253 2.36841C265.907 2.89526 265.56 3.42212 265.214 3.94897C262.717 3.83826 262.672 3.48844 260.96 2.94493C261.03 3.35326 261.1 3.76159 261.171 4.16992C259.906 3.60665 257.602 3.09199 255.783 3.03559C254.919 3.0098 253.439 3.58619 253.235 3.5369C253.029 3.48486 250.982 1.28868 250.779 3.20736C247.787 2.38446 246.481 3.26291 245.268 3.25234C244.481 3.24496 244.118 2.78805 243.228 2.74824C241.954 2.69064 240.675 2.92416 239.941 2.89884C239.521 2.8831 239.438 2.4351 239.149 2.42351C237.779 2.3669 238.585 2.81844 237.142 2.80095C237.009 2.79692 235.95 2.25871 234.763 2.33925C234.1 2.38385 232.388 3.01416 232.237 3.01395C231.566 3.0091 232.091 1.77386 229.809 3.21465C229.874 2.98013 229.938 2.74562 230.003 2.5111C227.16 1.94161 226.723 2.98841 226.15 3.06544C226.077 3.07199 225.384 2.67453 224.972 2.7335C224.277 2.83427 223.994 3.38871 223.84 3.41431C223.291 3.50342 221.442 3.27584 220.241 3.81936C220.481 2.24632 216.255 1.72186 215.337 3.50806C214.588 3.16309 213.84 2.81807 213.092 2.47301C212.758 2.76862 212.423 3.06421 212.089 3.35981C211.882 3.06948 211.675 2.77914 211.468 2.48881C210.388 3.14014 209.31 3.79137 208.233 4.44251C208.159 3.79915 208.085 3.1558 208.011 2.51244C207.709 2.58798 207.407 2.66353 207.105 2.73906C206.872 3.2525 206.64 3.76593 206.407 4.27936C206.029 4.18457 205.65 4.08975 205.271 3.99493C205.175 3.62537 205.079 3.25581 204.982 2.88624C202.938 2.47453 204.054 5.9982 200.1 2.92195C199.492 3.21825 198.885 3.51451 198.278 3.81074C197.58 2.39476 196.298 3.26407 195.26 3.11145C194.528 3.00373 194.564 2.43905 193.569 2.4332C192.574 2.42752 192.614 2.96703 192.536 2.97107C191.726 3.00965 191.113 2.53769 190.52 2.63637C190.431 2.65102 190.211 3.29351 189.456 3.33899C188.701 3.38431 188.242 2.70546 187.12 2.84098C186.546 2.9097 186.383 3.4508 185.874 3.50169C183.438 3.74899 181.029 1.02774 179.184 4.28183C178.763 3.87322 175.731 2.45058 174.445 2.53957C172.443 2.68151 173.218 3.31401 172.424 3.43435C172.31 3.45248 171.699 3.24054 170.027 3.28668C169.728 3.295 169.796 2.93542 169.753 2.93085C167.803 2.94672 164.043 3.24532 161.933 3.30349C161.744 3.3094 160.751 2.31146 159.088 3.66367C156.535 2.67674 151.749 4.82621 148.444 3.33064C147.986 3.29961 147.43 3.65853 147.228 3.64656C145.486 3.53737 146.113 2.45005 142.204 4.04409C142.52 3.48932 141.605 2.98905 140.32 3.0312C138.389 3.09433 139.767 4.12893 138.206 4.04383C138.206 3.75189 138.206 3.45994 138.206 3.168C134.497 3.95097 133.765 2.7019 130.102 2.68759C128.786 2.68311 126.856 3.32463 126.546 3.32538C126.425 3.3232 125.006 2.6148 124.871 2.60899C124.108 2.58524 123.678 2.90819 123.022 2.90743C120.855 2.90616 118.31 1.97756 118.764 3.64237C118.151 3.28836 117.528 2.93415 116.913 2.57982C114.568 4.34233 112.863 1.88362 112.369 3.60463C111.959 3.2458 111.551 2.88688 111.144 2.52791C101.539 2.63898 91.4313 2.70038 82.0134 2.69612C81.6085 2.13474 77.2627 2.24027 77.0542 2.3205C76.0399 2.68852 77.0683 3.92284 75.0334 3.59854C74.8208 3.06336 74.6089 2.52815 74.3977 1.9929C71.8676 1.7579 73.0751 2.31503 72.0719 2.64899C71.6604 2.57293 71.804 2.1653 71.2479 2.12069C68.4135 1.8862 61.7259 1.65981 58.4785 1.49786C57.8128 1.46552 57.8995 1.85345 57.6933 1.84649C57.1272 1.82112 56.0377 1.29328 54.9351 1.24669C47.7185 0.9601 37.4933 0.649306 31.1528 0.430452C30.7374 0.418942 30.6441 0.870478 30.296 0.859117C29.8187 0.842378 28.8445 0.368495 28.3872 0.356823C27.9526 0.34466 27.6426 0.66032 27.1957 0.649474C25.0998 0.596444 23.0427 -0.271651 20.8942 0.37588C20.6738 0.431111 18.8073 1.92488 18.8097 2.04114C18.4727 2.69299 19.35 4.08962 17.2496 4.63137C17.9725 5.30902 18.1351 5.97968 17.7847 6.53809C17.5964 6.81161 17.3221 7.06269 16.8824 7.23406C16.3654 7.3889 15.7771 7.45112 15.7435 7.64475C15.6961 7.68097 15.8168 7.78525 16.0603 7.91375C16.2788 8.03719 16.7654 8.22074 16.9813 8.32557C17.5481 8.5718 18.2848 8.83664 19.1573 9.10405C19.1245 9.2935 19.0917 9.48294 19.0589 9.6724C18.1529 9.98723 17.354 10.1432 16.6337 10.1831C16.4387 10.189 16.3327 10.2099 16.068 10.1807C15.8213 10.1559 15.5956 10.1261 15.4006 10.0957C15.0135 10.0376 14.7354 9.96291 14.7439 9.98857C14.6676 10.1494 14.5997 10.3141 14.5395 10.482C14.5227 10.7179 14.777 11.0071 15.2273 11.3055C15.3398 11.3803 15.4645 11.456 15.6002 11.5323C15.6681 11.5705 15.7387 11.6089 15.8118 11.6474C15.8703 11.6821 15.9087 11.7112 15.9588 11.7432C16.1511 11.8689 16.3604 11.9953 16.5814 12.1244C17.4641 12.6414 18.5447 13.1981 19.4245 13.9627C17.9113 14.1607 16.5855 14.348 15.4659 14.5335C15.3254 14.5566 15.1914 14.5805 15.054 14.6027C14.8561 14.6091 14.6666 14.6157 14.4858 14.6227C14.1242 14.6368 13.7974 14.6525 13.5083 14.6725C12.9303 14.7137 12.5027 14.7664 12.2601 14.8894C12.2207 15.0277 12.1961 15.173 12.1848 15.3235C12.327 15.5989 12.9625 16.0239 14.0177 16.465C14.6366 16.7104 14.8843 16.8399 15.263 17.0063C15.6145 17.1649 15.9421 17.3156 16.1758 17.4521C18.0578 18.4927 17.1163 18.5578 15.8592 18.4785C15.2437 18.4389 14.6066 18.3626 14.1939 18.3599C13.6911 18.3346 13.3033 18.3554 13.6408 18.6547C15.5831 19.1656 17.7943 19.5656 20.3877 19.9407C22.4194 20.2297 24.712 20.4988 27.2445 20.7478C27.0192 21.5333 9.33305 20.4757 8.89223 20.9849C9.95235 21.723 11.8586 22.4536 13.3483 22.9361C13.1776 23.0087 13.0079 23.0807 12.839 23.1521C12.6018 23.2057 12.3543 23.2546 12.1161 23.3036C11.6373 23.4011 11.1693 23.4926 10.7078 23.5753C10.8792 23.7808 11.0595 23.986 11.2484 24.1906C14.1328 25.3831 16.0694 26.0628 19.1587 26.9C14.474 25.9735 12.7056 25.5924 9.42085 24.9541C8.75166 24.8301 8.14626 24.7293 7.56127 24.6422C7.26887 24.5986 6.98165 24.5582 6.69498 24.5191C6.59345 24.524 6.30575 24.4211 6.06134 24.3322C5.81087 24.2402 5.56017 24.1403 5.30793 24.0289C3.34749 23.2684 0.885541 21.0338 0.0571829 17.9805C-0.0359489 19.3014 0.19127 20.6758 0.615492 21.8322C1.3584 22.8573 2.47508 24.0261 3.69001 24.8236C4.2969 25.2318 4.92249 25.573 5.55926 25.8685C6.03539 26.0643 6.30334 26.1289 6.68997 26.2577C8.14096 26.7195 9.83073 27.1943 11.7336 27.6638C14.1286 28.2662 18.1128 29.2141 19.9159 29.6782C19.3455 30.2733 14.7586 29.0114 14.0139 29.2152C13.7542 29.2752 14.4916 29.8832 13.8947 29.9945C13.5044 30.0659 12.8239 30.0852 12.058 30.0741C11.8664 30.0713 11.6693 30.0666 11.4693 30.0604C11.249 30.0487 11.1376 30.0654 10.7763 30.0143C10.1639 29.9407 9.55585 29.8557 8.97587 29.7638C6.6942 29.4398 4.6192 28.7332 5.09977 29.3934C5.26281 29.606 6.27499 30.2548 7.71849 30.8887C8.4432 31.2091 9.28367 31.5343 10.2201 31.8474C11.0625 32.1334 11.5603 32.3101 12.2921 32.5299C14.9817 33.3653 18.7199 34.0559 19.2898 34.1079C18.7312 34.1349 18.3337 34.1741 17.6371 34.1572C16.9548 34.142 16.2866 34.1162 15.6318 34.082C14.322 34.0134 13.0676 33.9115 11.85 33.7867C11.2294 33.7211 10.6795 33.6659 10.0098 33.5721C9.10164 33.4148 8.20712 33.2391 7.29859 33.0259C6.38938 32.8116 5.4669 32.5625 4.48105 32.2252C3.38728 31.7722 2.89142 31.8947 0.120821 29.9589C7.18701 36.3941 9.17511 37.4495 15.1839 38.8937C16.0745 39.4143 13.1449 39.4266 10.1536 39.1394C7.31977 39.0846 0.679263 36.7925 0.317321 36.6116C2.36279 37.9737 4.08891 38.8459 5.77118 39.6241C6.61055 40.0086 7.43529 40.3581 8.26179 40.6869C8.78843 40.9374 9.31704 41.1793 9.85048 41.4147C8.47698 40.9775 4.96492 40.0129 1.81102 38.4358C1.74042 38.5646 1.66967 38.6933 1.59879 38.822C3.76238 39.9862 5.57625 40.7726 7.39591 41.495C9.00652 42.147 9.84879 42.5539 11.1302 43.0219C13.4466 43.9051 16.5801 44.6896 18.6552 44.9228C18.5264 45.2963 17.7442 45.3673 16.8437 45.3136C16.0208 45.2742 14.4065 44.9982 13.5973 44.8566ZM441.587 5.16688C441.7 4.52761 440.065 4.57779 439.131 4.56066C439.275 4.4482 439.418 4.33577 439.562 4.22336C437.588 4.27951 433.786 4.41761 433.671 3.16784C432.206 2.97264 432.826 4.07454 432.348 4.18505C432.115 4.22802 430.358 3.55029 428.915 4.28347C428.575 4.27213 428.235 4.26088 427.894 4.24971C427.838 3.83933 427.782 3.42896 427.725 3.01859C427.237 3.50358 426.748 3.98876 426.257 4.47411C431.07 4.67057 436.58 4.90795 441.58 5.16662C441.582 5.1667 441.585 5.16679 441.587 5.16688ZM390.899 3.70525C389.08 3.92211 386.256 4.26888 386.833 3.15257C387.996 3.21882 389.154 3.28562 390.305 3.35299C390.503 3.47039 390.701 3.58781 390.899 3.70525ZM208.453 5.48758C206.94 6.60175 205.532 5.65869 203.188 5.87499C203.19 5.64203 203.191 5.40907 203.193 5.17611C204.155 5.72843 206.69 5.33735 208.453 5.48758ZM489.056 13.0496C489.448 13.0305 489.837 13.013 490.224 12.9975C488.926 11.4868 488.491 12.3063 486.697 11.904C486.588 11.8797 486.669 11.6021 486.631 11.5945C486.183 11.5071 485.712 11.787 485.297 11.7228C484.897 11.6607 484.542 11.5207 484.102 11.3739C483.664 11.2273 483.107 11.07 482.567 11.0092C481.662 10.9081 481.583 11.4539 481.263 11.4016C481.006 11.3544 478.389 9.53679 476.392 10.0051C472.77 10.8518 487.566 12.7216 489.056 13.0496ZM506.354 18.4225C505.126 17.4574 504.013 16.7758 502.987 16.2166C504.371 17.492 503.396 17.0781 501.729 16.3293C499.712 15.4502 498.702 15.0943 497.576 14.7071C497.531 14.9057 497.787 15.1234 498.229 15.3675C498.451 15.4897 498.719 15.6192 499.023 15.759C499.175 15.8289 499.336 15.9013 499.504 15.9768C499.684 16.0564 500.072 16.2214 500.376 16.3597C502.824 17.4499 506.847 19.6431 509.485 23.7365C508.525 21.5308 507.398 19.8321 506.354 18.4225ZM455.742 10.6747C457.011 10.8215 456.847 9.80132 456.811 9.49771C456.408 9.47691 456.003 9.45635 455.595 9.43602C455.644 9.84893 455.693 10.2618 455.742 10.6747ZM465.554 11.5957C465.197 10.8814 462.266 10.3926 460.805 10.254C460.773 10.2521 460.852 10.351 460.81 10.4386C460.769 10.5262 460.597 10.6017 460.161 10.5594C459.905 10.5323 457.3 9.01754 457.805 10.604C460.118 10.9027 462.957 11.2446 465.55 11.5954C465.552 11.5955 465.553 11.5956 465.554 11.5957ZM468.458 11.3925C467.946 11.1387 467.429 10.8855 466.905 10.6328C466.604 10.935 466.303 11.2375 466.001 11.5401C466.613 11.6633 467.218 11.7872 467.816 11.9119C468.03 11.7387 468.244 11.5655 468.458 11.3925ZM76.1404 10.6299C76.2691 10.2879 76.398 9.94591 76.5268 9.60392C76.9957 9.40361 79.2676 10.9545 78.532 11.2293C77.7289 11.03 76.9317 10.8302 76.1404 10.6299ZM66.7816 11.1081C66.2822 11.2673 65.7852 11.4262 65.2907 11.5849C64.7463 10.9829 64.2062 10.3806 63.6707 9.77796C66.1481 9.46412 68.5949 9.07794 68.142 10.7906C68.6563 10.8054 69.1734 10.8199 69.6933 10.8341C69.2765 10.1091 69.3376 9.8763 70.7156 9.46059C70.9883 10.4606 72.4175 9.99297 74.0683 10.2512C72.8627 10.2799 71.6704 10.3074 70.4918 10.3338C70.4871 10.5087 70.4824 10.6836 70.4777 10.8585C73.1167 10.8648 69.7955 11.889 68.1389 11.1447C67.9997 11.3737 67.8605 11.6028 67.7214 11.8318C67.4069 11.5906 67.1023 11.3497 66.7816 11.1081ZM262.867 10.8204C262.531 10.9993 262.195 11.1781 261.859 11.357C260.533 9.07633 263.213 11.2275 265.091 9.39745C264.477 10.7807 267.363 10.6984 267.528 10.7896C267.2 11.2562 266.872 11.7229 266.544 12.1896C265.319 11.7331 264.093 11.2767 262.867 10.8204ZM253.317 12.484C254.477 11.3308 248.729 11.3108 246.802 11.5795C246.333 11.6455 245.502 12.2804 245.163 12.2041C244.955 11.974 244.748 11.7439 244.54 11.5137C244.304 12.3174 240.527 11.449 239.04 11.0305C238.903 11.3236 238.765 11.6168 238.628 11.9099C238.086 11.7986 237.545 11.6873 237.003 11.576C237.073 11.8663 237.144 12.1567 237.214 12.447C236.802 12.1006 236.39 11.7542 235.978 11.4078C234.37 11.0324 235.373 12.6099 234.163 12.1253C232.819 11.5873 235.006 10.6241 234.96 10.0097C236.049 10.1589 238.527 10.4924 239.632 10.5004C240.267 10.5044 239.538 9.40942 242.285 10.6514C242.882 10.3512 243.48 10.051 244.077 9.75079C245.182 10.2101 246.289 10.6694 247.394 11.1288C247.595 10.7191 247.797 10.3094 247.999 9.89974C248.115 9.83487 250.668 10.7389 250.535 11.0465C251.559 10.2577 253.674 10.1003 255.902 10.0414C256.119 10.2613 256.335 10.4812 256.552 10.7011C254.392 10.2409 255.868 10.9417 255.229 11.3718C254.86 11.6198 253.729 12.1105 253.317 12.484ZM91.0263 11.802C87.4679 10.7521 89.6504 11.6086 85.8412 11.5447C86.1149 11.0224 86.3888 10.5001 86.6631 9.97781C88.509 10.9727 91.6587 10.3792 91.03 11.8021C91.0288 11.8021 91.0275 11.802 91.0263 11.802ZM53.3795 9.04242C55.3005 9.44338 54.2792 10.222 56.7754 10.5848C56.7766 10.5848 56.7778 10.5849 56.779 10.5849C55.4723 10.5926 54.1887 10.5982 52.929 10.6019C53.0792 10.0821 53.2294 9.5623 53.3795 9.04242ZM173.545 10.9148C175.538 10.676 175.147 11.088 176.958 10.2598C179.669 11.2388 177.377 11.1106 177.382 12.0123C176.762 11.7511 176.143 11.4898 175.525 11.2284C174.034 12.0793 175.454 12.4967 175.455 12.5777C175.453 12.5777 175.452 12.5777 175.451 12.5777C175.452 12.8484 175.501 12.9051 174.928 13.0716C174.467 12.3527 174.006 11.6338 173.545 10.9148ZM182.079 11.9834C181.403 11.3884 181.095 10.6214 182.863 10.2272C182.864 10.2272 182.866 10.2272 182.867 10.2272C183.016 11.5648 184.71 10.4745 185.487 10.5596C185.692 10.7038 185.897 10.8481 186.101 10.9923C184.758 11.3229 183.417 11.6533 182.079 11.9834ZM211.961 13.0074C211.957 11.5289 210.456 11.4 212.556 10.0212C212.966 10.0444 213.376 10.0676 213.786 10.0908C214.058 10.4132 214.33 10.7355 214.602 11.0579C219.791 8.34073 221.376 12.8841 212.565 11.251C212.564 11.25 212.563 11.249 212.562 11.2479C212.361 11.8344 212.161 12.4209 211.961 13.0074ZM202.836 12.9515C202.765 12.1759 202.693 11.4002 202.622 10.6246C201.492 12.5052 199.971 10.7298 197.717 12.0666C197.51 11.832 197.304 11.5975 197.098 11.3629C196.247 11.8888 187.979 12.0927 189.764 10.887C190.54 10.3607 192.248 11.0576 192.395 11.0408C192.892 10.9789 193.536 10.3078 194.377 10.3409C194.863 10.3609 195.893 11.1377 196.887 11.1294C199.11 11.1105 203.167 8.97704 206.056 10.947C206.262 10.7115 206.469 10.476 206.676 10.2405C208.826 10.3669 208.114 11.1137 210.11 10.2142C211.517 13.8904 202.07 10.0933 204.055 13.0677C204.054 13.0677 204.052 13.0677 204.051 13.0677C203.646 13.029 203.241 12.9903 202.836 12.9515ZM143.416 12.1152C143.286 12.7774 140.82 11.7566 141.4 13.3427C140.596 12.7905 139.794 12.2381 138.995 11.6855C139.001 11.538 139.007 11.3905 139.014 11.243C139.808 11.3592 140.605 11.4752 141.404 11.591C141.407 11.3571 141.41 11.1231 141.413 10.8892C142.595 11.736 147.605 11.3628 147.456 10.5339C147.725 10.8835 147.994 11.2331 148.264 11.5826C150.673 10.6263 152.761 11.6355 155.418 10.6989C155.624 10.9882 155.831 11.2776 156.038 11.567C156.172 11.3327 156.306 11.0984 156.439 10.864C157.405 10.832 158.398 10.7996 159.344 10.7672C162.442 11.6996 156.4 12.938 155.629 12.8009C155.53 12.7818 155.544 12.1761 154.926 12.0825C153.821 11.9189 147.729 12.5333 145.874 12.1347C145.858 12.5365 145.842 12.9384 145.827 13.3402C145.021 12.932 144.218 12.5237 143.416 12.1152ZM223.582 11.3327C223.716 10.9227 223.851 10.5126 223.985 10.1026C226.356 10.4913 227.833 10.1218 227.241 11.4792C227.24 11.4792 227.238 11.4792 227.237 11.4792C226.018 11.4305 224.815 11.3815 223.582 11.3327ZM399.838 10.2851C399.765 11.0973 398.602 11.3889 397.092 10.7918C397.168 10.5565 397.243 10.3213 397.318 10.086C398.099 10.7858 399.1 9.5884 401.502 9.77497C401.498 10.1839 401.493 10.5928 401.489 11.0017C400.94 10.7627 400.39 10.5238 399.838 10.2851ZM221.532 11.5267C220.811 12.0148 218.768 10.5686 220.104 10.4855C221.126 10.4226 221.918 11.2646 221.532 11.5267ZM45.218 9.43242C45.7374 9.3757 46.2618 9.31856 46.7911 9.26099C47.0461 9.62286 47.303 9.98464 47.5618 10.3463C47.5606 10.3463 47.5593 10.3462 47.5581 10.3462C46.7652 10.0425 45.985 9.73788 45.218 9.43242ZM166.767 10.8779C168.571 10.9215 170.382 10.9644 172.201 11.0067C172.22 11.2334 172.239 11.4602 172.258 11.6869C170.433 10.8677 169.709 11.763 169.286 11.8194C169.288 11.8194 169.29 11.8194 169.292 11.8194C167.935 12.0049 166.645 12.1424 165.368 12.4185C165.834 11.905 166.3 11.3915 166.767 10.8779ZM160.617 12.3317C160.914 10.7279 161.301 10.5404 164.064 11.6575C163.955 11.8552 163.847 12.053 163.738 12.2507C162.308 12.138 161.477 11.7707 161.73 12.6057C161.359 12.5144 160.988 12.4231 160.617 12.3317ZM188.944 11.6796C188.613 12.192 185.969 11.6959 186.111 11.4378C186.166 11.3354 189.587 10.6751 188.944 11.6796ZM420.175 10.9362C419.547 11.041 418.917 11.1461 418.284 11.2515C419.12 11.4408 419.951 11.6306 420.776 11.8209C420.576 11.5259 420.376 11.231 420.175 10.9362ZM426.877 13.3589C427.311 13.1649 425.951 11.6907 428.525 11.3804C426.665 11.3046 424.777 11.2316 422.862 11.1611C423.756 11.4128 424.643 11.665 425.523 11.9177C425.36 12.3282 425.196 12.7386 425.032 13.1491C425.65 13.2187 426.265 13.2887 426.877 13.3589ZM428.904 12.3512C427.859 13.4197 433.176 13.6374 433.79 13.5233C433.907 13.4948 434.484 12.6804 434.693 12.5078C433.848 12.4827 432.996 12.4581 432.139 12.4341C432.433 12.1805 432.726 11.9269 433.019 11.6734C432.016 11.5564 431.022 11.4408 430.124 11.3285C430.512 11.6008 430.899 11.8733 431.285 12.1459C430.496 12.2139 429.703 12.2823 428.904 12.3512ZM407.241 11.685C407.921 11.6665 408.599 11.6484 409.274 11.6304C409.133 12.0374 408.992 12.4444 408.852 12.8514C408.448 12.8457 408.042 12.8402 407.636 12.8347C407.505 12.4515 407.373 12.0682 407.241 11.685ZM421.193 12.4426C420.225 10.4538 417.377 14.7049 420.633 13.1733C420.961 13.0176 421.284 12.6347 421.193 12.4426ZM435.89 13.3486C438.019 14.8488 437.631 11.6657 435.542 12.5324C435.437 12.5788 435.729 13.2378 435.89 13.3486ZM451.972 13.9869C452.147 13.9845 452.514 12.9725 454.128 14.0266C454.407 13.9229 454.685 13.8193 454.962 13.7158C454.387 13.2047 448.783 12.6713 449.505 13.7229C450.375 13.7757 451.088 13.9785 451.972 13.9869ZM446.323 17.5484C445.548 17.4897 444.767 17.4316 443.979 17.3741C444.251 17.0625 444.522 16.7509 444.794 16.4394C444.41 16.3375 444.025 16.2357 443.639 16.1341C442.952 16.6639 442.262 17.1943 441.568 17.7251C443.319 17.874 444.988 18.024 446.723 18.1811C446.582 17.9699 446.442 17.7588 446.323 17.5484ZM424.765 17.7004C426.327 17.3316 428.207 17.8041 430.654 17.7984C430.655 17.7974 430.657 17.7964 430.658 17.7954C430.787 17.7941 430.984 17.3575 431.42 17.3513C431.825 17.3432 438.861 18.0348 438.312 17.2726C435.647 16.5178 434.575 17.5097 433.963 15.827C433.819 16.174 433.675 16.5211 433.53 16.8681C430.803 17.4009 430.219 16.1723 428.819 15.6917C428.818 15.9562 428.817 16.2207 428.816 16.4853C427.883 16.4888 426.944 16.493 425.998 16.4979C426.135 16.3271 426.272 16.1562 426.409 15.9854C426.075 15.9777 425.74 15.9701 425.405 15.9626C424.57 16.7277 423.523 16.8878 424.765 17.7004ZM450.212 17.272C451.023 19.3091 458.173 18.2704 461.612 18.9101C459.631 17.5803 457.259 18.285 455.287 18.199C451.582 18.041 454.178 17.4275 453.564 17.0731C453.262 16.8975 451.062 18.0837 450.212 17.272ZM419.015 17.2321C420.902 17.1058 421.935 17.5887 423.549 16.8866C423.418 16.7373 423.288 16.588 423.157 16.4387C422.619 16.5599 418.076 16.895 419.015 17.2321ZM466.753 18.7197C463.064 19.1883 464.977 17.4992 462.95 18.7325C464.236 18.8998 465.491 19.07 466.716 19.2433C466.728 19.0688 466.741 18.8942 466.753 18.7197ZM217.509 19.1065C216.007 19.1645 214.335 19.5439 213.432 18.7942C214.45 18.6692 215.469 18.5441 216.488 18.4189C216.828 18.6481 217.169 18.8773 217.509 19.1065ZM260.351 26.1346C260.01 26.3189 258.652 25.7953 258.509 25.7965C258.244 25.7988 258.319 26.0619 258.315 26.1308C256.58 26.0981 258.174 25.2662 256.888 25.0995C256.669 25.0721 253.656 25.5026 252.429 25.4801C250.541 25.4455 248.657 25.5149 247.951 25.507C246.762 25.4943 244.541 24.9 242.583 24.8854C241.775 24.8803 241.498 25.374 240.686 25.3687C235.46 25.3315 225.275 24.7437 220.612 25.0932C219.468 25.1801 218.382 25.8322 217.777 25.7846C217.298 25.5535 216.819 25.3224 216.341 25.0912C214.893 27.2182 214.388 25.3408 212.809 25.1559C211.807 25.0391 211.344 25.6694 211.21 25.6689C210.318 25.6635 209.877 25.3686 209.178 25.3245C208.393 25.276 207.269 25.5672 206.989 25.5182C206.817 25.4852 207.357 24.6483 204.323 24.6867C201.252 24.7259 198.108 24.8364 194.946 24.8969C195.988 22.3748 196.912 24.0897 198.212 24.1724C198.561 24.1946 198.337 23.7969 198.641 23.8123C199.498 23.8539 201.145 24.2345 201.856 24.1342C202.625 24.026 202.351 23.1025 203.314 23.4369C203.362 23.4541 203.212 23.8374 203.438 23.8998C205.71 24.5154 206.448 23.845 209.325 23.8036C211.22 23.7759 222.86 24.0612 223.266 23.8079C225.338 22.4526 213.063 22.5437 211.646 22.6595C211.146 22.7006 211.674 23.1185 211.218 23.203C211.026 23.2369 209.283 22.4458 207.57 22.3919C205.498 22.3267 201.359 22.9061 199.344 22.901C182.243 22.8544 165.636 23.4328 148.473 23.4686C148.111 23.4691 147.632 22.9877 146.456 22.9889C124.367 23.0167 101.583 23.3185 79.2755 22.6334C74.2228 22.4779 69.7276 21.9116 64.7384 22.1164C64.1152 21.7448 63.4969 21.3729 62.8836 21.0006C64.4735 21.3339 67.4808 20.6266 67.6563 20.6193C67.7462 20.6183 68.2985 21.0315 69.2197 21.0358C70.5163 21.0433 71.1041 20.714 71.2109 20.7169C71.5445 20.7245 71.3163 21.0847 71.6355 21.0912C74.02 21.1366 75.9011 21.2845 78.1703 21.3371C80.7085 21.3948 82.1934 20.741 83.8743 21.5207C84.08 21.2325 84.2859 20.9442 84.4921 20.6559C85.7592 21.9453 93.8348 21.9321 97.2634 21.9023C98.3327 21.8938 98.1521 21.3788 98.5123 21.383C98.7114 21.3857 98.7469 22.0586 101.369 21.9548C102.706 21.9018 103.065 21.416 103.739 21.4385C104.106 21.4513 104.041 21.9358 104.57 21.9408C107.629 21.9692 110.165 21.8317 113.244 21.7622C114.111 21.7432 114.124 21.3384 114.318 21.3449C115.034 21.3674 116.276 22.0606 118.117 22.0683C121.029 22.0809 126.804 22.0989 129.24 21.7708C129.595 21.7223 129.891 21.2373 130.152 21.2449C130.548 21.2582 130.703 21.7652 130.773 21.768C132.101 21.7794 131.303 21.3067 132.194 21.4228C132.674 21.4853 133.175 22.0641 134.297 22.1308C135.782 22.2189 135.491 21.5324 136.112 21.6017C136.178 21.6125 136.197 22.0896 136.809 22.1058C139.17 22.1641 142.325 22.274 144.487 22.2705C145.101 22.27 145.558 21.9485 146.417 21.9422C148.124 21.9321 158.098 22.1146 158.945 21.9253C159.025 21.9057 158.156 21.2047 159.542 21.2216C159.944 21.5134 160.346 21.805 160.749 22.0967C161.419 21.6255 162.09 21.1543 162.762 20.683C162.74 22.3035 166.717 22.5386 166.673 20.8817C167.109 20.8128 167.546 20.7439 167.983 20.6749C168.898 21.8158 169.502 21.3907 171.272 22.0551C171.546 21.7029 171.82 21.3507 172.094 20.9984C172.164 21.2321 172.235 21.4657 172.305 21.6993C173.243 20.4271 174.803 21.6924 174.992 21.6985C175.718 21.723 176.263 21.3979 176.604 21.4065C177.873 21.4335 180.666 21.8623 182.101 21.6481C182.17 21.6371 182.099 21.0955 182.514 21.0262C183.264 20.901 183.341 21.6941 184.338 20.7562C184.541 20.9889 184.745 21.2217 184.949 21.4544C185.163 21.3321 185.378 21.2098 185.592 21.0874C186.861 21.1418 188.133 21.1959 189.408 21.2499C188.244 20.3396 189.573 19.8188 190.84 20.5327C191.268 20.7748 190.893 21.3358 191.036 21.4195C191.229 21.533 196.971 21.21 197.353 20.8459C197.627 21.02 197.901 21.194 198.175 21.3681C198.311 21.0152 198.446 20.6623 198.582 20.3093C198.733 20.4314 198.885 20.5534 199.036 20.6754C200.543 20.045 204.422 21.4385 205.112 21.3209C205.485 21.2582 205.138 19.7607 206.927 19.9004C206.993 20.3119 207.058 20.7234 207.123 21.1349C207.533 21.1908 207.944 21.2467 208.354 21.3025C209.123 21.2599 210.239 20.5373 210.272 20.0488C210.515 20.3398 210.758 20.6309 211.001 20.922C211.639 19.9626 215.096 20.2737 216.495 20.8664C216.899 20.5752 217.304 20.2841 217.709 19.9929C218.26 20.3384 218.81 20.6839 219.361 21.0293C220.631 21.1244 219.285 20.5536 219.556 20.5029C220.126 20.3978 223.054 21.3565 222.852 20.134C223.251 20.1276 223.649 20.1213 224.048 20.1149C224.255 20.4631 224.465 20.8113 224.671 21.1595C225.339 19.9475 226.515 20.3636 228.922 19.9032C229.127 20.1791 229.331 20.4551 229.536 20.7311C230.278 20.3301 231.02 19.9291 231.763 19.5281C231.92 19.9866 232.077 20.445 232.235 20.9035C232.56 20.9668 232.885 21.0302 233.21 21.0935C233.86 20.058 235.055 21.1607 235.654 20.7308C236.529 20.1032 235.842 19.3704 234.207 19.2417C234.322 18.4906 239.194 18.7931 240.319 18.8381C240.246 18.9852 240.173 19.1323 240.1 19.2794C238.95 19.1734 237.8 19.0674 236.651 18.9613C235.705 20.8559 238.819 20.3231 240.253 20.5537C240.384 20.5759 241.132 21.2841 242.575 21.205C243.134 21.1737 245.306 20.1102 245.722 20.0484C249.08 19.5422 246.621 21.0562 249.895 19.7191C249.219 20.7272 251.1 19.878 253.066 20.0546C253.401 20.0848 256.245 20.8725 256.436 20.892C257.632 21.0119 256.324 20.1374 258.054 20.353C258.263 20.5842 258.473 20.8153 258.683 21.0464C259.085 21.0429 259.487 21.0395 259.889 21.036C262.311 18.939 262.892 20.4628 263.761 20.6516C264.112 20.7279 263.656 20.1901 264.565 20.2968C264.908 20.3365 265.291 20.7838 266.211 20.8076C269.088 20.8815 270.05 18.9443 272.726 20.9294C273.131 20.635 273.537 20.3407 273.942 20.0464C274.22 20.393 274.498 20.7396 274.776 21.0862C276.871 20.0563 276.12 21.0995 276.879 21.0809C278.885 21.0325 282.978 20.8009 283.329 19.9633C285.071 21.867 287.114 19.6875 287.794 19.757C288.199 19.9868 288.604 20.2166 289.009 20.4464C289.481 20.2088 289.953 19.9712 290.425 19.7336C290.21 21.6184 292.645 19.7479 292.892 19.7178C293.168 19.6875 296.986 20.2163 298.401 20.1959C299.816 20.175 302.272 19.6475 302.487 19.6451C302.737 19.6433 305.139 20.1385 307.008 20.1209C308.637 20.1035 318.332 19.3175 317.749 20.1612C317.109 20.3973 316.196 20.6042 315.406 20.7181C312.974 21.065 298.785 21.5889 295.09 21.7521C287.755 22.0725 280.195 22.0843 272.82 22.3293C272.387 22.3435 272.325 22.8322 271.954 22.8463C271.39 22.8651 269.951 22.3887 269.398 22.404C267.332 22.4638 264.816 22.565 263.708 22.5869C261.233 22.6329 259.536 22.9415 257.661 23.0054C257.075 23.0246 254.102 22.4453 252.07 22.7183C251.702 22.8589 251.335 22.9994 250.968 23.1399C252.017 23.2911 254.769 23.6818 256.046 23.7183C257.945 23.7704 258.932 23.3659 259.633 23.3667C260.22 23.3669 263.222 23.7919 264.586 23.7909C265.009 23.7908 265.092 23.2782 265.454 23.2769C267.422 23.2723 270.005 23.264 271.729 23.7515C271.028 23.5935 275.391 23.2429 275.619 23.2429C276.011 23.2398 276.44 23.7152 277.24 23.7086C278.778 23.6956 278.575 22.6955 280.504 23.6818C280.976 23.386 281.449 23.0902 281.922 22.7945C281.963 24.1287 287.944 22.2655 289.654 23.8747C289.704 24.0571 281.924 24.6384 281.277 24.6704C277.42 24.8618 271.669 24.5826 267.927 24.8488C266.801 24.9287 263.263 25.7705 262.995 25.7577C262.564 25.7386 262.949 25.2711 262.763 25.2562C258.944 24.944 260.856 25.8603 260.351 26.1346ZM428.746 18.6722C427.615 18.6994 426.473 18.7276 425.322 18.7567C425.399 19.0515 425.476 19.3463 425.552 19.641C426.081 19.539 426.607 19.4372 427.132 19.3355C427.529 19.5199 427.924 19.7043 428.318 19.8889C428.461 19.4834 428.603 19.0778 428.746 18.6722ZM431.51 19.9699C432.564 20.1454 432.629 19.5295 432.873 19.5059C433.599 19.4343 434.214 19.7015 434.908 19.7128C434.154 18.2226 432.413 18.8472 431.51 19.9699ZM410.757 20.0785C410.98 20.0116 412.492 18.4539 414.135 19.9512C415.448 19.5057 416.819 19.0625 418.144 18.6199C415.852 19.2907 412.815 18.5003 411.798 18.5132C411.4 18.5179 411.316 19.0016 410.997 19.0047C409.159 19.0158 407.357 17.893 407.144 19.4966C408.918 19.0533 410.472 20.1605 410.757 20.0785ZM422.18 19.7088C422.488 19.3794 422.797 19.05 423.105 18.7208C422.018 18.6978 420.922 18.6757 419.817 18.6545C420.109 18.9999 420.401 19.3454 420.691 19.691C421.189 19.6967 421.685 19.7027 422.18 19.7088ZM338.563 20.3335C339.24 20.3271 339.916 20.3209 340.592 20.3147C340.555 20.5595 339.783 20.5609 339.498 20.7271C339.499 20.7271 339.5 20.7271 339.502 20.7271C339.185 20.9148 339.322 21.2294 338.745 21.3705C338.684 21.0248 338.623 20.6792 338.563 20.3335ZM62.021 22.0223C60.7437 22.011 50.833 21.6128 51.6667 20.7454C52.2054 20.3252 55.4637 20.8526 56.5142 20.8849C57.8677 20.9311 61.711 20.1015 62.021 22.0223ZM43.7504 21.3924C43.5757 20.4996 50.0759 20.697 50.795 20.8768C50.6482 20.9969 50.4183 21.2687 50.2284 21.3239C49.2783 21.5895 45.0915 21.2295 43.7504 21.3924ZM301.15 23.1029C301.669 22.6496 302.188 22.1964 302.706 21.7431C302.573 22.329 302.44 22.9148 302.306 23.5007C301.921 23.3681 301.536 23.2355 301.15 23.1029ZM250.546 22.872C241.857 22.9763 233.153 23.0807 224.502 23.1812C225.267 23.418 226.029 23.6547 226.793 23.8914C234.252 23.7426 242.247 23.4268 249.481 23.7388C249.836 23.4499 250.191 23.161 250.546 22.872ZM408.307 22.6772C406.103 22.6557 404.246 22.2027 401.784 22.8583C404.113 23.547 405.272 22.5366 407.489 23.542C407.49 23.542 407.491 23.542 407.492 23.542C407.764 23.2537 408.036 22.9655 408.307 22.6772ZM358.5 22.5659C359.189 22.9746 359.877 23.3835 360.563 23.7925C359.738 23.7924 358.91 23.7925 358.081 23.7928C358.221 23.3838 358.36 22.9749 358.5 22.5659ZM174.782 25.7156C172.428 24.8353 166.484 26.4766 164.609 25.4094C164.487 25.3394 165.601 24.8821 163.794 24.0117C165.156 24.1863 166.122 24.3657 166.227 25.0552C166.632 24.8196 167.037 24.584 167.442 24.3484C168.117 24.5226 168.793 24.6967 169.47 24.8707C169.394 24.1841 169.447 24.2205 170.49 24.6861C170.963 24.5101 171.437 24.3339 171.912 24.1578C172.114 24.4478 172.317 24.7377 172.52 25.0277C172.93 24.6189 173.34 24.21 173.751 23.8011C175.362 24.2346 174.386 25.0278 174.782 25.7156ZM182.959 25.5036C182.647 25.6579 171.722 25.2217 176.67 23.8261C177.955 23.8632 179.25 23.9 180.534 23.9366C179.502 26.211 182.927 24.1629 183.211 24.1136C184.562 23.8841 186.295 24.4131 187.281 24.379C188.129 24.3491 188.631 23.939 189.229 23.9457C191.264 23.9681 194.494 23.9613 194.946 24.8969C193.355 24.9272 191.742 24.948 190.094 24.935C188.353 24.9215 186.827 25.8173 183.568 24.6211C182.765 24.7564 183.056 25.4643 182.959 25.5036ZM362.625 23.6986C362.547 22.7552 366.69 22.9844 366.712 23.3575C366.72 23.5758 365.375 23.569 365.182 23.6517C365.181 23.6517 365.18 23.6517 365.178 23.6517C365.098 23.6878 365.505 24.0491 364.871 24.1488C364.125 23.9985 363.376 23.8485 362.625 23.6986ZM78.0453 24.5669C77.2861 25.092 65.0982 24.5846 64.4677 24.297C64.3641 24.2234 64.5189 23.996 64.4813 23.8608C67.6409 24.7075 71.4861 23.927 74.3739 23.9371C75.1594 23.94 74.9166 24.3091 74.9607 24.3173C74.9626 24.3174 74.9645 24.3174 74.9663 24.3174C75.4104 24.3291 77.463 23.4595 78.0453 24.5669ZM160.577 24.9933C161.11 24.844 161.644 24.6948 162.178 24.5454C162.314 24.8369 162.451 25.1283 162.588 25.4198C162.587 25.4198 162.585 25.4198 162.584 25.4198C161.914 25.2777 161.245 25.1356 160.577 24.9933ZM141.821 25.9887C141.951 25.7832 142.081 25.5777 142.21 25.3722C143.554 25.3433 144.904 25.3139 146.259 25.284C146.122 25.1681 145.985 25.0523 145.849 24.9365C147.896 24.6244 148.752 25.3451 149.85 25.2395C149.849 25.2395 149.847 25.2395 149.846 25.2395C149.964 25.2272 150.107 24.7988 150.547 24.7836C151.554 24.7486 154.462 24.5829 154.818 25.0127C155.561 25.9305 149.708 25.5068 148.635 25.5496C148.146 25.5696 147.559 25.945 147.262 25.9542C146.937 25.9628 146.494 25.4574 145.704 25.4737C145.472 25.4793 142.917 26.0765 141.821 25.9887ZM117.845 25.32C118.289 24.8591 119.151 25.3108 119.462 25.2366C119.537 25.219 118.955 24.8285 119.664 24.7157C119.863 24.9811 120.062 25.2465 120.262 25.5119C119.459 25.4482 118.702 25.3845 117.845 25.32ZM369.561 24.1525C369.444 24.2515 367.239 24.2115 367.132 24.1484C365.81 23.3009 370.381 23.3999 369.561 24.1525ZM425.386 25.7055C424.305 26.9011 436.381 25.9995 437.626 26.1175C437.598 25.3432 434.653 26.0315 436.215 25.0178C434.785 25.5561 430.52 25.1306 429.746 25.2817C429.198 25.3701 429.042 26.0335 428.959 26.0526C428.639 26.1191 425.756 25.2799 425.386 25.7055ZM447.487 25.9448C446.222 26.0399 445.175 26.1462 444.059 26.2513C445.34 26.3864 446.66 26.5252 448.107 26.6727C447.901 26.43 447.694 26.1874 447.487 25.9448ZM448.979 26.358C448.924 27.1029 452.927 26.7099 453.912 26.9337C452.832 25.6059 450.837 26.7148 448.979 26.358ZM384.232 26.138C382.421 26.6231 381.652 24.3376 383.849 25.3425C383.916 25.3757 384.307 26.1122 384.232 26.138ZM174.241 28.9286C173.931 28.9445 170.117 29.7021 169.898 29.3365C169.196 28.1709 171.696 28.6285 172.535 28.1831C173.888 27.4615 171.888 26.8821 175.205 27.2973C175.068 27.064 174.931 26.8307 174.794 26.5974C176.736 26.5102 176.109 28.134 176.459 28.3407C176.566 28.4035 177.782 28.2609 178.003 28.3631C180.756 29.6542 174.52 28.9168 174.241 28.9286ZM339.792 26.2833C336.2 26.9822 337.673 25.9691 334.066 26.0445C333.912 25.5304 339.316 25.8334 339.792 26.2833ZM209.025 27.7793C205.336 27.6051 202.353 28.2998 198.854 27.421C199.106 26.0287 209.974 27.4134 209.025 27.7793ZM35.2041 27.175C49.7796 25.7647 66.2757 27.0657 81.7769 27.4116C83.4862 27.448 83.581 26.8974 84.1807 26.9683C84.5634 27.014 84.4882 27.457 84.9991 27.4682C104.194 27.8716 121.961 28.526 140.391 28.2654C141.51 28.2486 147.035 27.2905 148.235 28.7269C149.135 29.8174 145.138 28.9712 144.481 28.9811C143.983 28.9885 143.963 29.5015 143.631 29.5035C143.28 29.5054 143.57 29.1548 143.162 29.1497C141.43 29.126 139.579 29.2629 138.003 29.2322C122.262 28.935 107.524 28.9486 91.9265 28.7781C90.0573 28.7563 90.4388 29.1725 90.3439 29.173C90.3427 29.172 90.3415 29.1709 90.3402 29.1699C80.5919 29.0619 69.2712 27.9051 58.3041 27.8517C51.1838 27.8704 43.3584 27.7903 35.8564 27.529C35.6377 27.4111 35.4202 27.2931 35.2041 27.175ZM182.162 27.4368C181.245 28.9919 181.06 27.4306 177.68 28.081C177.405 27.818 177.129 27.555 176.854 27.2919C178.63 27.3407 180.44 27.3887 182.168 27.4368C182.166 27.4368 182.164 27.4368 182.162 27.4368ZM160.15 28.1013C159.657 30.1969 152.022 28.7386 148.693 29.1413C148.072 28.0913 152.968 28.5553 154.137 28.4413C154.703 28.3855 157.876 27.2964 160.181 27.8875C160.171 27.9588 160.16 28.03 160.15 28.1013ZM412.612 28.5396C412.087 28.4703 411.56 28.4011 411.031 28.3321C412.38 28.1205 413.612 27.9081 415.044 27.7003C412.838 27.8126 410.813 27.9312 408.656 28.0505C409.048 28.4904 409.438 28.9303 409.828 29.3704C410.761 29.0929 411.689 28.816 412.612 28.5396ZM405.703 28.2186C409.471 28.4316 405.557 27.2167 404.596 27.7225C404.025 28.0255 405.318 28.1959 405.703 28.2186ZM395.706 28.8578C397.464 29.6356 401.151 29.7271 399.861 28.1904C397.921 28.8836 396.573 28.2775 393.912 28.6651C394.305 28.9604 394.697 29.2557 395.089 29.5512C395.09 29.5512 395.092 29.5512 395.094 29.5512C395.298 29.3201 395.502 29.0889 395.706 28.8578ZM407.413 29.1626C409.893 28.3201 402.733 28.5263 404.978 29.1311C405.086 29.1586 407.318 29.1946 407.413 29.1626ZM51.2646 29.6838C51.0183 29.1749 52.8808 29.2669 53.4812 29.2582C56.1259 29.2228 59.6375 29.5708 62.6052 29.5987C62.377 29.7551 62.1493 29.9114 61.922 30.0677C58.2178 29.9538 54.7621 29.8307 51.2646 29.6838ZM71.5737 29.8569C73.5179 29.9069 75.4962 29.9537 77.5071 29.9976C77.694 30.0017 78.5669 30.4476 77.9089 30.5374C75.7587 30.314 73.6464 30.0872 71.5737 29.8569ZM194.572 30.3437C193.059 30.6327 197.432 32.0315 197.227 30.5025C196.341 30.4497 195.456 30.3967 194.572 30.3437ZM208.642 30.8523C207.697 30.7141 206.753 30.5758 205.81 30.4374C205.81 30.6133 205.81 30.7893 205.81 30.9653C206.753 30.9277 207.697 30.8901 208.642 30.8523ZM43.2812 29.6308C44.2978 29.0866 46.7008 29.3085 48.2612 29.3716C47.1595 29.8366 44.6781 29.4524 43.2812 29.6308ZM171.936 31.0911C172.052 30.6807 166.051 30.8099 168.131 31.5231C169.396 31.3794 170.665 31.2354 171.936 31.0911ZM159.804 31.7461C161.074 31.8318 162.061 31.6874 161.797 31.0437C161.121 31.0735 160.447 31.1032 159.774 31.1328C159.784 31.3372 159.794 31.5416 159.804 31.7461ZM389.087 30.0318C386.936 29.9589 384.763 29.8879 382.57 29.8187C382.65 29.9951 382.731 30.1715 382.811 30.3479C384.924 30.4158 387.017 30.4853 389.091 30.5567C389.09 30.3818 389.089 30.2068 389.087 30.0318ZM41.9855 31.139C40.4798 30.9344 39.3243 30.7473 37.5729 30.5133C39.3417 30.515 40.5114 30.4695 42.0303 30.4416C42.0165 30.6752 42.0027 30.9087 41.9889 31.1423C41.9878 31.1412 41.9866 31.1401 41.9855 31.139ZM418.711 32.6766C411.917 33.3748 420.573 34.3961 422.303 33.23C422.305 33.2311 422.307 33.2321 422.309 33.2332C422.464 33.1298 422.151 32.6077 422.41 32.4051C421.732 32.6239 421.051 32.8431 420.367 33.0626C419.753 32.7605 419.136 32.4587 418.515 32.1572C418.307 32.2672 418.098 32.3773 417.89 32.4874C418.164 32.5504 418.438 32.6135 418.711 32.6766ZM445.186 33.8644C451.327 34.0164 444.986 32.4637 442.225 33.3883C442.242 33.624 444.67 33.8524 445.186 33.8644ZM429.568 33.095C428.664 32.955 427.752 32.8158 426.832 32.6771C426.711 32.8218 426.59 32.9665 426.468 33.1112C427.174 33.2742 427.875 33.4375 428.572 33.6012C428.905 33.4324 429.237 33.2637 429.568 33.095ZM398.54 34.8481C396.976 34.995 395.01 33.3345 400.004 33.8164C399.999 33.9924 399.995 34.1683 399.99 34.3443C399.792 34.3141 399.211 34.1429 399.179 34.1558C399.087 34.1988 399.189 34.7875 398.54 34.8481ZM456.069 38.9965C456.226 39.0722 456.225 40.9292 457.98 39.1034C458.477 39.2484 458.927 39.3912 459.516 39.5429C459.686 39.1432 459.855 38.7436 460.025 38.344C457.825 38.5324 457.847 37.7084 457.666 37.68C457.025 37.5672 457.479 38.0184 457.061 38.0014C455.991 37.956 453.473 37.5439 454.559 38.8146C454.95 39.2698 455.912 38.921 456.069 38.9965ZM452.085 39.8551C452.342 39.712 451.564 39.1319 451.759 38.9874C451.938 38.8608 454.414 38.4265 453.797 37.478C453.394 37.4969 452.989 37.516 452.581 37.5353C452.432 37.7797 452.282 38.0242 452.132 38.2686C451.749 38.0184 451.363 37.7684 450.974 37.5186C450.273 38.1072 448.794 38.8461 450.482 39.427C449.859 39.346 449.229 39.2655 448.594 39.1855C448.276 38.8746 447.956 38.5639 447.635 38.2533C447.791 38.7128 447.946 39.1724 448.101 39.6319C449.455 39.7042 450.784 39.7785 452.085 39.8551ZM470.735 40.8704C470.676 40.6304 470.616 40.3905 470.556 40.1505C472.974 40.7881 476.276 41.3033 474.506 39.6463C473.048 39.438 471.323 39.2207 469.867 39.0388C468.489 38.863 467.053 38.6913 465.561 38.5239C465.35 38.6853 465.138 38.8468 464.925 39.0083C467.205 38.491 466.31 41.3187 468.231 40.6363C468.547 40.5212 467.748 39.443 469.614 40.2427C469.527 40.4713 469.44 40.6999 469.353 40.9285C469.795 40.9067 470.188 40.8814 470.735 40.8704ZM487.999 42.9896C485.357 42.6479 488.16 44.2436 488.322 43.5954C488.322 43.5953 488.322 43.5952 488.321 43.595C488.896 42.7682 488.905 42.4993 488.546 42.3724C488.203 42.2475 487.336 42.2617 487.231 42.2322C487.103 42.1921 486.97 41.7964 486.569 41.6084C486.106 41.4073 485.629 41.4706 484.749 42.3363C485.662 42.4721 487.285 42.8 487.999 42.9896ZM477.356 41.528C477.638 41.6068 477.52 41.2376 477.643 41.2572C477.644 41.2573 477.645 41.2574 477.646 41.2576C478.101 41.3299 478.689 41.435 479.323 41.539C480.126 41.6645 480.953 41.7894 481.689 41.8713C483.17 42.0353 484.265 42.0262 484.576 41.5036C484.001 41.3481 482.251 40.9614 480.208 40.7146C478.266 40.4789 476.826 40.4584 476.537 40.8148C476.815 41.0524 477.089 41.2901 477.356 41.528ZM463.35 39.4579C462.02 40.1093 464.899 40.398 465.634 40.1108C465.777 40.047 464.732 38.7833 463.35 39.4579ZM365.065 39.2486C362.217 38.8022 365.96 38.3626 364.665 37.6675C365.209 37.727 365.752 37.7866 366.294 37.8462C365.885 38.3136 365.475 38.7811 365.065 39.2486ZM235.621 41.4312C234.959 41.5189 235.27 41.0926 235.212 41.0869C234.777 41.1024 234.37 41.451 234.203 41.4159C231.112 40.7457 233.16 40.3723 233.191 40.2893C233.252 39.8697 232.437 39.3862 233.557 38.8977C234.24 39.0403 234.923 39.183 235.607 39.3256C235.943 39.0898 236.28 38.8539 236.617 38.6181C237.977 39.1062 236.204 39.2585 236.008 39.9234C235.933 40.1847 237.211 40.4858 235.621 41.4312ZM359.939 40.6499C359.473 39.9136 358.327 38.9851 359.452 38.2452C359.453 38.2452 359.454 38.2452 359.455 38.2452C359.663 38.1098 360.509 38.0354 360.768 37.8454C362.614 38.8268 361.909 39.84 359.939 40.6499ZM247.882 42.6433C248.98 42.4618 250.079 42.2803 251.178 42.0988C251.155 41.6575 251.133 41.2162 251.11 40.7749C250.522 40.8991 249.935 41.0232 249.347 41.1474C249.139 40.9478 248.931 40.7482 248.722 40.5486C249.449 40.0387 250.176 39.5288 250.902 39.0189C251.784 39.1872 252.666 39.3555 253.549 39.5238C253.146 39.7603 252.743 39.9967 252.34 40.2332C254.495 40.4716 254.017 39.4022 255.795 38.9763C256.408 39.3799 257.022 39.7835 257.635 40.1871C258.514 39.7685 259.393 39.3499 260.272 38.9313C261.757 39.1105 261.89 39.4223 260.896 39.8995C261.638 40.4285 262.438 39.5794 263.327 39.79C263.401 39.807 263.267 40.3124 263.332 40.3179C267.923 40.6184 267.666 39.2965 268.398 39.2339C268.913 39.1908 270.989 40.0669 271.026 40.3713C271.069 40.7815 266.772 42.4369 273.523 42.4224C270.036 43.5716 266.084 42.4654 268.623 40.8006C267.526 40.9752 262.67 40.6069 262.361 40.6589C261.91 40.7372 262.074 41.3592 261.509 41.3804C261.175 41.3921 260.278 39.9748 257.644 41.243C257.304 41.0119 256.964 40.7809 256.624 40.5499C256.309 40.7449 255.994 40.9399 255.679 41.1349C256.337 41.8148 256.995 42.4947 257.653 43.1747C255.063 42.4522 252.932 43.8703 251.348 42.7046C249.988 42.8538 249.329 42.9952 249.918 43.593C249.51 43.5965 249.101 43.6001 248.693 43.6036C248.423 43.2835 248.152 42.9634 247.882 42.6433ZM351.631 39.6032C350.295 40.2897 349.809 38.814 350.018 38.73C351.193 38.2684 352.326 39.2461 351.631 39.6032ZM238.069 40.6258C239.559 40.2325 241.049 39.8392 242.539 39.4458C242.543 39.9127 242.547 40.3795 242.551 40.8464C241.057 40.7729 239.563 40.6994 238.069 40.6258ZM365.48 40.2988C365.617 39.949 365.755 39.5993 365.892 39.2495C367.524 40.5296 369.137 38.6986 369.936 39.079C370.109 39.1621 369.758 39.7792 369.427 39.9111C369.224 39.9931 365.773 40.4168 365.48 40.2988ZM433.052 40.9204C432.436 40.6681 431.816 40.4161 431.192 40.1644C431.216 40.5589 431.24 40.9534 431.265 41.3478C431.574 41.4293 431.882 41.5109 432.189 41.5926C432.477 41.3685 432.765 41.1444 433.052 40.9204ZM426.254 40.1208C425.199 40.1278 424.134 40.1356 423.06 40.1443C427.123 40.5945 423.786 40.6968 426.227 41.2649C426.236 40.8835 426.245 40.5022 426.254 40.1208ZM415.252 40.6966C415.385 40.9339 415.518 41.1712 415.65 41.4085C416.763 41.4278 417.868 41.4479 418.963 41.4687C418.255 42.2712 417.544 43.074 416.83 43.8772C416.425 43.8719 416.019 43.8668 415.612 43.8618C415.492 42.8067 415.372 41.7517 415.252 40.6966ZM206.296 43.425C205.642 43.4441 203.366 42.748 203.461 42.4848C204.402 42.1554 205.343 41.8259 206.286 41.4964C206.293 41.9643 206.301 42.4321 206.309 42.9C206.441 42.6661 206.573 42.4321 206.705 42.1982C207.243 42.3691 207.782 42.54 208.322 42.7108C208.59 42.2998 208.858 41.8888 209.126 41.4778C209.402 41.9427 209.679 42.4074 209.955 42.8722C207.362 43.72 207.446 42.8918 206.906 42.9047C206.632 42.9107 206.461 43.2017 206.365 43.3482C206.342 43.3738 206.319 43.3994 206.296 43.425ZM239.127 43.5952C236.015 43.7384 234.228 42.5218 231.989 43.5711C233.409 41.3646 242.752 43.5508 246.028 41.692C246.373 42.041 246.718 42.39 247.063 42.7389C245.268 42.4412 244.033 43.1768 243.16 43.2887C242.467 43.3775 242.537 43.008 242.484 43.0138C242.481 43.0138 242.479 43.0138 242.476 43.0138C240.853 43.1794 240.354 43.5388 239.127 43.5952ZM367.782 42.023C366.951 42.5777 365.49 42.5204 365.474 41.7087C366.289 41.4746 367.101 41.2407 367.91 41.007C367.744 41.2146 367.924 41.9281 367.782 42.023ZM413.918 42.942C413.292 43.1957 411.812 42.9409 412.462 42.2501C412.581 42.1274 414.045 42.6439 413.202 41.3646C414.624 41.4073 414.309 42.7966 413.918 42.942ZM292.228 41.4849C292.78 41.5041 293.333 41.5233 293.885 41.5426C294.016 41.8692 294.147 42.1957 294.278 42.5223C293.595 42.1765 292.911 41.8307 292.228 41.4849ZM374.739 42.6007C375.474 41 376.615 42.5637 378.052 41.2514C378.568 41.2432 379.083 41.2352 379.597 41.2272C379.598 41.2272 379.599 41.2272 379.601 41.2272C379.613 41.6647 379.625 42.1022 379.637 42.5396C377.966 42.5588 376.321 42.5792 374.739 42.6007ZM258.056 42.5578C258.392 42.3514 258.728 42.145 259.064 41.9387C259.668 42.1704 260.271 42.4022 260.875 42.634C260.551 42.8067 260.227 42.9794 259.903 43.1521C259.287 42.954 258.672 42.7559 258.056 42.5578ZM383.657 42.7759C381.878 42.9673 381.214 41.5704 383.491 41.5787C384.448 41.5839 385.516 42.5764 383.657 42.7759ZM172.414 43.1187C173.023 42.9968 173.632 42.8748 174.243 42.7528C174.452 43.0448 174.662 43.3367 174.871 43.6286C174.051 43.4587 173.232 43.2888 172.414 43.1187ZM422.401 42.9415C422.337 42.6472 422.273 42.3528 422.209 42.0584C421.671 42.1062 421.132 42.1542 420.59 42.2024C420.72 42.496 420.85 42.7896 420.979 43.0832C421.455 43.0358 421.929 42.9886 422.401 42.9415ZM176.525 42.9183C177.014 42.8599 177.504 42.8014 177.994 42.7428C178.325 42.8835 178.655 43.0241 178.986 43.1647C178.527 43.3086 178.069 43.4525 177.611 43.5963C177.248 43.3703 176.886 43.1443 176.525 42.9183ZM400.314 42.7738C399.625 43.1185 396.866 41.9931 399.361 41.7384C400.947 41.5772 400.417 42.7214 400.314 42.7738ZM403.996 43.1669C401.391 43.8074 403.397 40.4231 406.43 42.6697C403.348 42.3274 404.145 43.1285 403.996 43.1669ZM426.515 45.3162C426.578 45.3159 426.642 44.8275 427.144 44.8213C428.938 44.8004 431.319 44.669 432.743 44.679C436.193 44.6917 445.41 45.9017 446.741 44.548C447.001 44.2607 446.466 43.3488 446.569 43.3072C446.875 43.1912 448.543 43.6931 448.258 43.0259C446.594 42.9604 444.935 42.9003 443.45 42.8503C443.809 43.3258 444.166 43.8014 444.52 44.2771C440.725 43.8885 441.968 43.9653 440.894 42.9205C440.22 43.287 439.543 43.654 438.861 44.0214C437.417 43.5822 435.947 43.145 434.453 42.7097C434.786 43.0115 435.117 43.3133 435.447 43.6153C433.172 44.0891 433.808 43.7535 432.576 43.0106C432.566 43.3023 432.555 43.5941 432.544 43.8859C430.318 43.113 429.931 43.9797 429.477 43.9784C428.552 43.9727 427.476 40.4877 423.772 43.8438C422.272 42.158 422.233 45.5212 421.358 43.7929C418.688 45.601 423.72 45.027 426.006 45.0204C426.007 45.0204 426.008 45.0205 426.009 45.0205C426.183 45.0193 425.901 45.3262 426.515 45.3162ZM413.033 43.3396C414.553 44.8805 408.452 44.9287 410.505 42.7694C410.809 42.7027 411.111 42.6361 411.413 42.5695C411.957 42.826 412.498 43.0827 413.037 43.3396C413.036 43.3396 413.035 43.3396 413.033 43.3396ZM354.044 43.9885C348.274 43.3725 351.556 42.4951 353.51 43.3452C353.899 43.5138 354.112 43.7454 354.044 43.9885ZM234.692 44.7992C234.605 44.6179 234.518 44.4365 234.431 44.2552C236.393 44.4088 240.183 43.6737 240.142 44.9018C238.324 44.8677 236.507 44.8335 234.692 44.7992ZM250.229 45.4671C249.808 45.5448 248.088 45.7346 248.292 45.2734C249.035 44.9414 249.778 44.6094 250.521 44.2774C250.87 44.4778 251.22 44.6782 251.569 44.8786C251.084 44.952 250.342 45.4467 250.229 45.4671Z" fill="#45D670"/>
</svg>
