<svg width="595" height="101" viewBox="0 0 595 101" fill="none" xmlns="http://www.w3.org/2000/svg">
<path d="M20.5922 95.2545C35.2682 106.163 44.626 97.1242 55.7869 96.2419C80.8959 94.1392 112.486 97.2493 136.842 97.0129C155.271 96.8303 173.966 96.0813 192.301 95.4073C193.228 95.3739 193.774 94.4105 194.195 94.3943C198.155 94.2436 204.878 95.0413 208.884 94.8697C217.225 94.5147 231.671 94.485 239.322 93.485C242.533 93.0625 245.842 92.8595 247.067 90.5619C248.245 90.4299 248.918 92.4818 249.228 92.5897C249.232 92.5877 249.235 92.5856 249.239 92.5835C250.237 92.9179 252.729 91.4388 253.285 91.5212C253.368 91.5341 252.878 93.0336 254.218 92.5643C254.338 92.5239 254.213 91.5107 255.347 91.4806C255.641 91.4731 259.459 92.9767 260.548 93.0565C264.164 93.3161 272.699 91.9735 277.006 91.9328C277.663 91.9234 278.051 92.5115 278.745 92.5122C279.104 92.5132 279.633 91.8611 279.743 91.8631C280.228 91.8791 282.384 94.775 281.542 89.0112C283.755 89.3457 283.132 91.2641 283.2 92.5033C285.599 92.648 286.716 89.9117 287.383 92.7851C299.166 92.2678 310.867 91.751 322.671 91.2386C322.681 91.7084 322.691 92.1783 322.701 92.6482C326.143 90.723 327.373 93.8815 329.311 91.1284C330.536 91.7118 331.761 92.2953 332.984 92.8789C364.306 90.6059 395.574 92.4253 426.379 92.2799C427.668 92.2743 427.988 91.2728 430.1 91.2578C432.401 91.2422 435.75 92.394 438.934 92.3743C441.711 92.3582 445.753 91.4087 448.759 91.2623C449.439 91.2309 449.928 91.8647 450.004 91.8612C450.452 91.8368 450.475 90.8342 450.909 90.8062C451.428 90.775 452.052 91.5185 452.648 91.4736C454.833 91.3111 457.384 91.5742 457.682 91.5578C459.105 91.4671 459.418 90.4878 459.535 90.4773C461.107 90.3632 460.514 91.2463 460.905 91.1964C462.926 90.9332 464.362 88.73 467.063 90.8663C466.994 90.046 466.925 89.2257 466.856 88.4054C468.932 87.9565 467.549 90.1268 467.97 90.5239C468.151 90.6703 472.561 90.4354 472.888 90.4001C474.059 90.2687 474.098 89.1797 474.199 89.1658C474.392 89.1319 477.495 90.3964 479.101 89.4628C480.992 88.3559 478.804 86.1159 479.275 85.7048C479.357 85.635 481.317 85.8838 481.585 85.1933C481.884 84.4502 480.191 84.4467 480.219 84.1341C480.244 83.9191 483.065 82.4132 482.54 81.3715C482.13 80.3269 478.283 81.6163 477.457 81.1207C477.322 81.0385 477.59 79.7591 477.471 79.7109C476.805 79.5283 468.504 79.4244 468.042 79.6358C468.486 80.2224 468.929 80.8092 469.37 81.396C468.778 81.4511 468.183 81.5063 467.587 81.5617C468.432 82.0347 469.272 82.5081 470.108 82.9819C468.837 87.7801 465.066 82.8847 464.912 80.4847C464.85 79.3746 467.206 76.5323 465.035 74.858C465.369 74.5749 465.702 74.2918 466.034 74.0088C466.714 74.4805 467.39 74.9524 468.064 75.4245C467.612 75.7167 467.158 76.009 466.704 76.3014C466.869 76.636 467.033 76.9706 467.197 77.3052C468.462 77.8478 469.717 78.3911 470.962 78.9352C471.606 78.6933 471.48 77.7074 471.922 77.5202C477.431 75.1663 473.709 78.1874 477.502 77.7824C478.049 77.2588 478.594 76.7354 479.138 76.2121C478.925 78.3977 480.614 77.0412 482.589 78.0089C482.36 77.2981 482.131 76.5873 481.901 75.8766C484.808 76.2852 490.525 72.8017 488.935 76.685C489.579 76.3611 490.22 76.0374 490.859 75.7141C491.383 76.3615 491.905 77.009 492.423 77.6568C493.172 77.5964 493.832 77.5347 494.657 77.4766C494.667 77.1309 494.677 76.7852 494.687 76.4394C494.022 76.4252 493.493 76.4138 492.899 76.4014C493.356 75.3553 493.803 74.3092 494.269 73.2637C494.736 73.4471 495.201 73.6307 495.664 73.8145C493.685 74.7744 496.242 76.4501 496.828 77.8537C498.449 78.3999 499.51 76.6166 500.05 76.5469C500.311 76.5131 503.175 79.7662 502.105 76.2391C503.606 76.6992 505.082 77.1612 506.533 77.6252C507.112 77.3719 507.688 77.119 508.26 76.8663C507.078 75.2016 510.69 73.3374 508.088 72.5875C506.131 72.0263 505.589 73.5387 504.637 73.504C503.776 73.475 503.342 72.4372 502.391 72.3691C495.837 71.9291 490.729 72.0331 484.661 72.4071C483.453 72.4827 482.35 71.9659 481.526 72.0269C480.595 72.0975 481.746 73.3987 480.563 73.0719C479.318 72.7267 479.054 71.673 478.722 71.6483C478.516 71.6343 477.85 72.5733 477.242 72.5674C474.685 72.5419 471.411 71.6027 471.03 71.6054C470.671 71.6113 463.872 72.4245 463.522 72.58C463.346 72.6638 463.696 76.1576 462.19 72.4276C461.715 72.3564 461.239 72.2853 460.761 72.2143C460.836 72.9124 460.91 73.6105 460.985 74.3087C458.16 71.653 459.133 73.1361 456.374 72.9207C450.066 72.4028 440.628 72.9947 433.402 72.7718C431.863 72.7201 431.273 71.8865 429.438 71.8332C427.739 71.7863 423.253 74.3004 424.213 70.8425C420.385 73.8516 419.726 68.6992 417.801 71.9263C417.562 71.4598 417.324 70.9933 417.085 70.5268C414.98 72.5473 414.314 70.7868 411.982 70.5592C410.986 70.4603 412.115 72.5881 410.146 70.2239C409.774 70.4035 409.401 70.5832 409.029 70.7628C409.119 71.2789 409.21 71.7951 409.3 72.3112C407.122 71.9041 406.98 72.1747 407.216 70.239C406.165 70.5987 405.111 70.9588 404.055 71.319C403.918 70.6853 403.782 70.0516 403.645 69.4179C404.01 68.1944 428.514 69.8675 431.679 70.4519C435.526 69.0003 443.732 70.7828 446.841 70.4435C448.109 70.3062 448.669 68.8706 450.5 68.6995C452.331 68.5285 454.596 69.8365 455.565 69.8854C459.064 70.0464 474.586 69.849 464.012 68.0048C464.322 67.3065 464.631 66.6082 464.941 65.9099C469.136 68.3211 467.625 66.8421 471.07 66.6192C472.523 66.5238 475.886 68.1158 475.729 64.9359C473.097 64.3202 470.247 65.3152 467.886 65.2551C467.655 65.2484 464.857 63.781 463.39 64.169C462.066 64.5231 462.973 67.5566 460.093 64.1432C457.927 67.4591 456.675 64.441 456.099 64.119C455.086 63.5609 455.033 65.2011 454.081 65.3903C453.057 65.5994 452.349 64.5096 452.208 64.5023C450.818 64.4738 443.346 64.3257 442.983 64.989C443.287 65.2797 443.59 65.5703 443.893 65.861C441.936 66.3309 442.341 64.6534 441.825 64.4532C441.44 64.4598 441.055 64.4664 440.669 64.4731C440.822 64.8207 440.976 65.1684 441.129 65.5161C438.798 65.4458 440.587 64.2334 437.26 64.2719C435.134 64.2978 432.965 65.6327 432.79 65.5351C432.731 65.5071 433.369 64.6097 432.539 64.4922C431.168 64.2992 428.777 64.3311 428.513 65.5503C427.834 65.3806 427.887 64.1885 427.797 64.1617C427.413 64.046 420.571 63.6733 419.32 63.6109C415.925 63.436 411.918 63.716 408.361 63.5411C407.986 63.5238 408.231 64.2869 407.855 64.265C407.254 64.2301 404.14 63.0533 403.672 62.9724C402.51 62.7737 399.444 63.2752 398.955 62.9318C398.886 62.883 399.89 61.8406 398.703 61.5301C397.384 61.1867 398.104 62.5712 398.033 62.5856C395.356 63.0843 393.644 62.1338 391.797 61.9641C391.198 61.9098 390.102 62.9667 389.252 62.6657C389.154 62.6316 389.338 61.6627 389.242 61.616C387.949 61.1212 386.792 62.9275 386.258 63.049C384.941 63.3463 385.646 62.0147 385.577 62.006C384.697 61.9725 383.517 62.4623 382.173 62.4129C376.178 62.1933 371.241 62.1672 364.759 62.3316C363.947 62.3518 362.982 63.2976 362.868 63.3002C362.491 63.2977 362.586 62.1985 361.494 62.2363C359.192 62.3204 357.049 62.2936 354.757 62.3434C354.295 62.3536 354.111 63.3732 353.759 63.3996C352.58 63.4777 348.506 60.8658 348.481 64.1808C346.088 61.2773 344.553 63.8264 342.651 63.8233C338.105 63.8194 331.161 63.3156 326.685 63.758C325.746 63.8525 325.316 64.7078 324.794 64.7608C323.857 64.8579 318.476 64.4587 318.195 64.5965C317.646 64.8614 318.031 68.5961 315.142 65.3781C313.471 65.1695 313.69 66.7015 313.346 66.7891C310.677 67.4434 308.03 64.0552 308.56 67.1866C305.433 66.3788 303.388 64.6734 302.158 67.626C302.154 66.1938 300.675 65.3558 298.915 65.9268C300.759 68.3063 300.558 69.8469 304.927 69.3443C304.995 69.3363 304.849 68.3026 304.918 68.2946C305.542 68.2157 306.852 68.7199 307.915 68.6486C308.978 68.5771 308.377 67.8776 308.803 67.8851C309.193 67.8937 309.194 68.8848 309.759 68.8909C311.589 68.9036 313.21 69.1539 314.26 69.1567C314.919 69.1576 315.644 68.2765 316.156 68.2693C318.133 68.2485 322.326 68.8698 324.832 68.74C325.354 68.7106 325.121 67.7366 326.263 67.6398C326.396 67.6286 326.897 68.6406 327.899 68.838C328.902 69.0355 329.67 68.519 330.312 68.6157C330.85 68.6964 330.638 69.6045 331.737 69.6461C332.644 69.679 343.035 68.8878 343.616 68.7364C344.429 68.5175 344.8 67.2414 345.3 67.3899C345.388 67.4219 345.552 68.6476 345.857 68.7316C350.92 70.1161 361.752 68.3059 367.557 68.25C379.537 68.1291 390.43 68.7391 402.482 68.9267C402.697 69.1386 402.911 69.3505 403.126 69.5625C401.92 69.5802 400.711 69.5983 399.498 69.6166C399.495 70.1945 399.493 70.7723 399.49 71.3501C397.851 71.4555 398.055 70.0874 398.095 69.2624C397.49 69.6175 396.884 69.9728 396.277 70.3281C395.736 68.319 391.672 69.695 389.552 69.7125C388.166 69.7258 386.554 68.9741 385.851 69.0407C384.358 69.1789 384.409 70.421 384.292 70.4419C384.093 70.4721 381.991 69.3977 380.476 69.4559C378.236 69.5399 378.016 71.45 374.917 69.8636C370.984 70.8967 366.542 70.4497 362.27 70.3389C363.095 72.0925 359.293 70.469 357.58 70.518C347.134 70.8187 334.151 71.7458 323.552 72.591C322.185 72.6981 321.164 73.7513 320.4 73.7276C319.986 73.7158 319.788 72.4937 319.215 72.6638C319.114 72.6964 319.06 73.8425 317.992 74.03C315.325 74.5006 308.677 72.6836 307.035 74.9054C297.944 74.6953 288.843 74.4871 279.726 74.2778C279.504 74.749 279.282 75.2201 279.06 75.6913C277.296 73.3251 270.483 74.8276 267.156 74.7619C261.331 74.6434 253.754 74.005 248.628 73.9932C247.511 73.9907 246.606 74.6814 245.55 74.6817C245.096 74.6808 244.52 73.809 244.047 73.8107C238.778 73.8144 231.531 74.8143 226.16 74.8595C214.074 74.9633 202.415 75.2285 190.22 75.3033C148.545 75.4992 107.111 74.5568 65.4783 73.7277C64.8761 73.7133 64.87 74.7249 64.4053 74.7151C61.6281 74.6678 55.8147 73.5841 53.0527 73.4821C51.0533 73.4195 46.6707 74.7086 46.0167 73.1022C50.7034 72.2198 54.522 71.866 58.9064 71.7243C61.0773 71.6516 63.3171 71.6258 65.618 71.5945C67.6593 71.5539 69.7175 71.508 71.829 71.4057C72.4291 71.377 72.5325 70.4181 72.6068 70.4027C73.9891 70.1079 73.077 71.4073 75.0871 71.522C75.732 71.5635 82.1867 68.6472 81.3707 71.6821C82.9227 70.5025 92.9843 70.0744 95.1191 70.502C95.7365 70.6341 95.2853 71.5329 95.4076 71.5804C95.9395 71.7878 96.1988 70.5433 96.6791 70.5176C97.9426 70.4579 101.283 71.5102 101.782 71.5081C103.112 71.513 107.184 70.5369 109.008 70.7903C110.674 71.0221 110.352 72.3232 111.805 72.4535C112.954 72.5525 111.703 71.4479 114.284 71.1335C115.54 70.9803 120.137 71.7877 121.166 71.791C122.206 71.7952 123.37 71.0193 124.821 71.0834C126.902 71.1747 131.508 71.6166 133.698 71.867C133.829 71.8811 134.146 72.8953 134.468 72.8743C135.134 72.8319 134.934 71.5795 135.439 71.4523C135.946 71.3278 144.715 71.4711 146.073 71.4515C147.067 71.4421 147.759 72.1862 148.311 72.178C148.744 72.1697 148.788 71.1264 149.231 71.1133C149.368 71.1129 150.538 72.0154 151.711 71.9901C152.814 71.9654 157.05 71.0859 157.548 71.0751C157.869 71.0701 157.52 71.8131 158.471 71.7909C159.338 71.7686 159.905 70.8031 160.401 70.7865C161.552 70.7493 162.848 71.5631 164.079 71.5599C167.479 71.5506 167.297 70.3585 167.501 70.3186C168.067 70.2074 168.301 71.2981 168.488 71.3194C169.274 71.406 171.21 71.5948 171.916 71.6321C172.796 71.6788 173.161 70.6382 174.098 70.6279C174.796 70.6235 176.216 71.6251 177.819 71.6619C181.413 71.7503 185.838 71.9035 189.324 71.8326C190.365 71.8124 190.516 70.8635 190.834 70.8359C192.508 70.6902 193.459 71.7403 193.939 71.7218C197.356 71.594 203.496 69.868 206.724 69.6914C208.043 69.6209 213.794 70.3238 216.959 70.1488C217.324 70.1302 216.973 69.3915 217.381 69.5029C218.358 69.7701 218.286 71.2836 218.78 71.232C219.018 71.2024 219.552 70.3432 220.246 70.2501C223.849 69.7664 226.353 70.3983 228.009 70.3318C243.925 69.6923 260.071 69.0703 274.841 68.7259C276.49 68.6883 278.55 69.5589 281.031 68.6496C281.101 68.1786 281.171 67.7076 281.241 67.2366C281.335 67.6971 281.428 68.1576 281.522 68.6182C284.35 68.8278 285.428 69.4067 288.302 68.7772C288.55 68.7243 289.276 66.5683 289.784 69.2259C292.61 67.2547 291.072 69.223 293.193 69.3722C295.314 69.5214 297.364 68.8969 299.415 68.7335C300.527 67.7628 295.772 65.6291 295.464 65.6406C294.968 65.6562 294.472 66.9883 293.995 67.0656C292.583 67.2966 291.2 66.265 290.899 67.4519C289.053 66.2281 291.338 66.82 291.094 65.6973C289.88 66.1807 288.666 66.6641 287.452 67.1475C286.774 63.3267 280.093 68.4179 280.521 65.4951C279.993 66.0866 279.464 66.6781 278.935 67.2696C276.529 63.6449 275.182 66.2407 272.061 67.3738C272.28 66.9027 272.5 66.4316 272.72 65.9605C272.652 65.7662 269.874 65.0573 270.892 67.0363C268.019 64.4504 268.2 68.817 265.616 65.6948C264.102 65.311 265.034 67.1325 262.335 67.1387C260.73 67.1436 258.71 66.2125 256.911 66.1705C256.497 66.1639 256.331 67.2284 255.963 67.2335C255.594 67.2381 255.4 66.1993 254.953 66.1792C254.031 66.1356 252.847 66.8829 252.27 66.8204C251.754 66.7673 251.004 65.859 249.761 65.7315C245.421 65.2797 246.749 66.5734 246.071 67.0266C245.343 67.5084 244.792 65.7874 243.333 66.0073C243.187 66.0304 243.58 67.1022 243.103 67.0663C242.719 67.0383 242.509 65.8703 241.235 65.6689C240.74 65.5877 232.837 65.4399 231.612 65.4338C229.755 65.4259 225.647 66.4682 223.741 66.4844C223.006 66.4932 222.209 65.5629 221.43 65.5786C218.844 65.6311 214.736 65.7592 211.476 65.8419C208.476 65.9188 203.271 68.0498 201.631 66.1936C197.467 65.994 196.487 67.6037 196.174 67.6287C195.331 67.697 194.931 66.6406 193.871 66.6015C180.043 66.1225 161.842 66.9537 148.679 66.9037C118.187 66.7467 87.8862 66.1776 56.6677 65.2507C56.6079 64.7775 56.5484 64.3042 56.4891 63.831C59.9807 63.6941 64.8991 63.067 68.1877 62.987C72.6967 62.8956 80.0908 65.0392 83.6546 61.8966C82.4076 61.5895 79.789 62.7615 79.9144 61.1118C82.6723 61.0581 84.9583 60.987 87.4712 60.9157C87.383 61.6771 87.2949 62.4385 87.2066 63.1999C89.793 63.4702 92.5012 63.3482 95.206 63.496C95.6762 63.5206 95.333 64.2084 95.7433 64.2177C96.2028 64.2266 95.901 63.5175 95.9872 63.513C97.1498 63.5221 97.4962 64.2395 97.6388 64.2312C98.0063 64.2077 97.7283 63.5254 98.7916 63.3487C100.811 63.0186 102.055 64.8351 101.667 61.8264C102.258 61.833 102.852 61.8394 103.448 61.8457C103.594 62.6651 103.74 63.4845 103.886 64.3039C107.599 61.0393 109.295 66.844 111.418 62.264C112.102 62.9709 112.79 63.6776 113.481 64.384C113.878 63.5687 114.276 62.7534 114.674 61.938C114.746 62.6403 114.819 63.3427 114.891 64.045C118.706 63.5506 122.641 64.4088 126.091 64.3365C128.524 64.2859 129.113 64.0097 131.295 64.065C136.173 64.1885 131.321 62.793 135.392 61.2903C135.179 62.1509 134.967 63.0114 134.754 63.8719C135.429 64.1874 136.107 64.5027 136.786 64.8178C137.259 64.1158 137.732 63.4137 138.206 62.7115C140.31 66.3507 141.705 63.4097 141.968 63.4093C142.19 63.4152 142.949 65.6062 145.343 63.7447C144.354 66.7434 147.175 63.758 147.405 63.7396C147.619 63.7271 150.393 64.3878 151.528 64.3554C152.418 64.331 154.323 63.6788 155.662 63.7045C156.845 63.7275 156.73 64.7451 156.816 64.7553C158.276 64.8332 157.358 64.047 158.414 64.0033C159.472 63.9595 160.3 64.8221 160.529 64.7435C160.644 64.7016 160.254 63.756 160.781 63.6619C162.199 63.405 164.786 64.22 166.325 64.1859C166.881 64.1748 167.579 63.3666 168.201 63.3379C169.154 63.2968 169.608 64.3615 170.164 64.3261C170.358 64.3108 171.58 62.6533 173.124 62.8957C173.418 62.9444 174.306 66.4282 175.418 61.4751C175.512 62.1702 175.606 62.8653 175.7 63.5604C180.915 65.2434 182.342 59.5777 184.724 64.5738C188.55 63.98 185.902 62.0491 186.32 61.7461C186.59 61.5545 187.848 62.0804 187.969 62.0487C188.204 61.9867 188.158 61.3599 188.416 61.361C193.16 61.4335 191.067 62.6368 192.581 63.373C196.19 65.1241 198.96 61.1315 192.718 62.3829C192.714 62.033 192.711 61.683 192.707 61.3331C194.244 61.6531 198.164 61.455 196.837 59.6935C195.779 58.3067 186.556 59.3063 191.766 57.2954C192.95 56.8403 193.578 58.1476 195.62 55.665C196.987 55.5178 197.215 58.7057 199.061 57.4065C198.767 58.5224 198.472 59.6383 198.178 60.7542C200.726 62.1791 203.849 60.2 205.821 60.802C206.489 61.0073 208.958 66.286 208.337 60.988C209.487 61.3063 214.708 60.2696 215.67 60.7336C215.905 60.8456 216.237 63.6664 219.602 62.6403C219.832 62.2835 220.063 61.9267 220.294 61.5699C217.191 60.5786 222.637 59.467 221.122 56.8051C220.632 58.0157 218.191 58.7797 217.805 59.3901C217.146 60.4406 219.163 61.7608 216.609 61.4245C214.949 56.9647 219.568 58.9714 218.816 54.727C222.193 56.6721 222.51 54.7735 223.27 54.6854C226.522 54.325 228.585 54.75 231.67 54.2142C232.433 55.0784 226.858 56.41 226.166 56.0414C228.747 59.1059 224.37 59.3006 222.509 57.4841C222.366 58.4218 222.223 59.3594 222.08 60.2971C224.469 59.7608 226.81 59.4712 229.206 60.2089C229.357 59.8571 229.508 59.5052 229.659 59.1533C229.117 58.6332 228.575 58.1131 228.033 57.5929C230.006 56.7052 228.85 59.449 231.466 57.0246C231.562 58.0773 231.657 59.13 231.753 60.1827C234.286 59.8005 236.842 59.4174 239.331 59.0347C240.664 61.1307 245.496 60.279 244.573 57.5551C246.527 57.3358 244.131 58.8241 245.973 59.4652C246.775 59.7433 248.338 59.8033 248.714 59.0619C248.512 56.4591 246.172 56.1673 245.442 54.3878C245.855 53.8056 256.768 55.5167 255.759 52.4831C256.625 52.1048 256.246 53.6799 257.824 54.0599C262.273 55.1185 268.968 51.9214 272.566 55.763C268.45 57.9881 267.193 55.7111 264.02 55.6641C262.012 55.6331 249.557 55.4354 252.378 58.1514C251.917 57.8077 251.457 57.464 250.997 57.1204C250.548 57.9464 250.099 58.7725 249.65 59.5986C250.948 59.6989 252.247 59.7992 253.547 59.8993C253.846 59.0773 254.145 58.2553 254.444 57.4332C254.595 58.0151 254.746 58.597 254.897 59.1788C255.446 59.2872 255.995 59.3956 256.544 59.504C256.38 58.8043 256.217 58.1046 256.053 57.4049C256.895 57.2732 257.738 57.1415 258.58 57.0098C258.366 57.9507 258.152 58.8916 257.938 59.8326C261.916 60.0132 260.574 59.4443 262.738 57.6598C264.371 57.4575 261.634 59.2988 265.1 59.708C269.133 60.1829 266.45 57.3549 271.677 57.8937C271.759 58.3605 271.841 58.8273 271.923 59.2941C273.064 58.8099 274.206 58.3257 275.348 57.8414C275.204 58.4254 275.061 59.0094 274.917 59.5933C277.285 59.3341 280.571 60.3976 281.325 58.1039C278.935 59.2373 278.902 55.2517 279.517 54.5101C280.789 52.9886 299.877 54.1127 303.567 54.1588C308.294 54.218 311.818 52.8911 316.186 54.7914C313.255 56.4415 302.994 55.2695 301.054 56.4105C300.863 56.5225 300.97 60.1749 299.67 56.0824C295.683 56.8369 290.889 55.7411 285.892 55.9325C286.06 56.982 286.228 58.0315 286.396 59.081C289.436 56.8002 292.347 61.6721 291.889 57.592C292.5 57.5832 293.111 57.5745 293.722 57.5657C293.732 58.2695 293.742 58.9734 293.752 59.6772C294.673 59.664 295.594 59.6507 296.515 59.6375C296.505 58.9337 296.495 58.2298 296.485 57.526C297.248 57.515 298.01 57.5041 298.773 57.4931C298.863 58.1938 298.952 58.8945 299.042 59.5951C301.306 58.1046 309.141 61.891 305.661 57.7485C306.733 57.7332 307.804 57.718 308.875 57.7027C308.879 58.2174 308.883 58.7321 308.887 59.2469C309.348 59.3095 309.81 59.3721 310.271 59.4347C310.113 58.971 309.954 58.5073 309.796 58.0436C311.915 58.8483 313.887 56.3675 315.304 57.9595C314.391 58.3244 313.476 58.6893 312.564 59.0542C314.315 58.3607 317.579 59.7002 317.868 59.6997C318.753 59.6942 319.204 58.6472 320.161 58.581C321.024 58.5238 320.916 59.325 321.077 59.2946C325.723 58.4158 323.888 54.1123 326.131 59.206C326.353 58.5031 326.574 57.8001 326.796 57.0971C327.112 57.6767 327.427 58.2563 327.743 58.8359C329.114 58.7621 330.485 58.6884 331.854 58.6148C331.409 59.4957 330.964 60.3767 330.519 61.2577C332.579 61.62 333.511 59.8533 333.709 59.8104C334.27 59.7007 334.542 60.7981 334.716 60.7978C343.078 60.5905 337.994 59.6891 342.145 55.4982C343.67 57.1012 342.17 58.748 341.979 60.4018C343.967 59.601 344.597 60.05 346.7 59.9311C347.247 59.8991 347.824 59.0008 348.169 58.9844C348.468 58.9699 349.414 59.9045 350.131 59.8992C351.325 59.891 352.906 59.3067 354.536 59.3003C355.893 59.2974 360.042 59.9147 362.913 59.8876C364.159 59.8728 363.864 59.0845 364.186 59.079C364.321 59.0774 365.307 60.0142 366.109 60.0085C372.648 59.9531 379.281 59.2802 385.712 59.2336C390.268 59.1986 395.062 59.9169 399.635 59.801C400.611 59.7752 400.088 59.0833 400.514 59.0551C400.66 59.0477 400.848 60.261 402.349 59.7603C402.892 59.5798 402.26 58.7352 402.794 58.6886C403.053 58.6664 403.174 59.7304 404.691 59.9615C407.447 60.3838 408.902 58.954 409.147 58.9945C409.608 59.0729 409.48 59.9553 410.089 59.9827C413.094 60.1166 415.726 60.2494 418.436 60.3078C419.729 60.3339 428.398 60.4709 428.85 60.3123C429.903 59.9561 428.915 58.1192 430.266 58.1769C430.645 58.6414 431.024 59.106 431.403 59.5706C430.805 59.9266 430.207 60.2827 429.607 60.639C431.268 60.0409 433.102 60.8721 434.36 60.8369C434.597 60.8289 436.758 59.9886 437.853 60.0776C437.386 59.7327 436.919 59.3879 436.45 59.0432C436.615 58.7478 436.779 58.4524 436.944 58.157C439.144 58.5992 441.451 58.584 443.668 58.5189C444.467 58.4967 444.196 57.7802 445.004 57.7551C449.687 57.6033 448.506 60.5827 452.953 54.9944C451.471 55.4981 445.951 54.7845 445.131 54.972C444.568 55.1024 442.375 59.8307 443.177 54.9794C438.626 55.006 442.592 57.6756 438.318 57.0982C438.403 56.506 438.487 55.9138 438.572 55.3216C437.075 54.9514 435.961 54.655 435.048 55.7021C434.649 52.8307 429.82 54.5257 427.078 54.3443C423.148 54.086 418.644 53.4096 414.65 53.3117C413.275 53.2786 412.499 54.4095 412.326 54.4071C412.077 54.4007 411.343 53.4198 410.859 53.4161C409.048 53.3998 403.489 55.1085 402.065 52.3834C412.817 52.2961 424.275 52.2273 435.027 52.1988C433.642 53.5454 444.946 53.6559 445.469 53.5925C445.991 53.5322 445.551 52.5878 445.706 52.5304C446.861 52.1249 447.841 53.4946 448.205 53.4947C448.482 53.4946 449.043 52.8522 450.026 52.8671C450.206 52.8692 450.255 53.5488 450.449 53.551C451.728 53.5521 452.985 53.5442 454.255 53.5502C454.332 53.5437 454.655 52.5517 454.975 52.5506C455.295 52.5513 455.611 53.5438 455.703 53.5471C456.781 53.5424 458.617 52.9026 459.628 52.8992C459.979 52.9007 459.733 53.6267 460.126 53.6211C461.332 53.608 460.942 52.1834 462.424 52.556C462.92 52.6816 462.884 53.7695 463.831 53.6305C464.501 53.5315 464.438 51.5921 464.545 51.5222C464.694 51.4376 466.985 52.9812 467.736 51.7167C466.124 48.3562 469.522 51.5528 469.344 52.9659C470.246 52.6158 471.143 52.2662 472.036 51.9169C472.337 52.2773 472.637 52.6377 472.937 52.9981C476.412 51.4128 478.94 52.4057 482.563 51.9516C482.746 51.9286 485.816 51.1715 485.676 50.6663C483.867 49.7756 482.02 49.7143 480.811 51.3028C478.884 48.2277 478.81 50.6599 475.624 50.2254C474.623 50.0791 474.557 49.2501 474.441 49.2385C470.549 48.7915 464.088 48.3988 461.301 50.8119C460.531 50.1535 463.31 49.9051 462.233 49.418C461.575 49.144 447.61 48.3441 452.059 51.1419C451.604 51.064 451.148 50.9862 450.692 50.9085C450.24 48.2729 447.956 48.8744 448.214 51.4989C447.997 50.9618 447.78 50.4246 447.563 49.8875C447.134 49.433 446.627 49.1896 445.912 49.0454C443.178 48.4885 426.721 49.4494 425.938 49.0821C425.916 48.4596 425.893 47.8372 425.871 47.2147C432.9 46.4791 440.183 48.0063 447.979 46.2256C447.752 46.8094 447.525 47.3933 447.297 47.9771C450.44 47.1596 453.427 46.3454 456.61 45.5356C453.262 44.4696 448.147 43.5774 444.624 44.4501C444.002 44.6056 444.458 45.4196 444.316 45.5183C443.942 45.7748 443.542 44.3622 442.194 44.2263C440.85 44.0903 437.436 45.0983 437.119 45.0711C436.514 45.0142 434.868 43.402 433.831 43.4256C432.532 43.4576 433.406 44.4555 433.145 44.4774C432.066 44.579 431.093 44.0866 430.242 44.1637C428.981 44.278 426.349 46.0483 425.443 43.4691C426.355 43.347 427.263 43.2251 428.17 43.1035C423.244 42.1972 419.362 45.5202 414.375 43.0047C413.225 39.8838 417.339 40.2806 413.854 38.9675C414.486 39.0082 415.117 39.049 415.748 39.0899C415.899 39.7441 416.051 40.3983 416.202 41.0525C417.283 40.578 418.362 40.1038 419.437 39.6299C419.132 40.2155 418.828 40.8011 418.523 41.3867C422.355 41.805 426.164 42.3868 427.462 39.243C427.543 40.0015 427.623 40.76 427.704 41.5185C431.167 40.5808 436.438 43.7834 435.461 39.5638C435.632 39.7871 435.804 40.0105 435.975 40.2338C438.15 39.3656 437.223 41.1139 438.04 41.3094C438.277 41.364 442.467 40.4561 440.608 39.2053C444.686 38.242 443.426 42.1906 444.544 42.3628C447.142 40.4055 451.725 43.3422 449.798 40.2513C450.178 40.1356 450.558 40.02 450.937 39.9044C452.181 42.3362 453.406 39.5879 454.744 38.6712C455.197 38.6172 455.648 38.5632 456.137 38.5095C456.457 39.3281 456.776 40.1468 457.094 40.9655C461.598 37.0864 460.129 47.728 462.198 38.7919C461.885 38.2555 461.571 37.7192 461.256 37.1829C460.506 36.9256 459.753 36.6686 458.997 36.4119C462.05 36.1858 465.061 35.9637 468.027 35.7458C471.853 33.2632 473.714 35.9968 478.11 34.0559C478.515 34.298 478.92 34.5401 479.323 34.7824C478.929 32.7528 477.352 33.0338 480.294 32.1559C480.56 30.7265 478.582 30.5201 477.659 31.6101C477.438 31.876 479.292 32.9911 477.195 33.0094C475.809 33.0244 478.232 31.3244 474.215 31.9269C474.367 31.5783 474.518 31.2296 474.669 30.8809C474.235 30.8874 473.801 30.894 473.365 30.9007C472.971 31.7073 472.576 32.5139 472.181 33.3206C471.189 32.1438 470.643 30.5003 468.326 30.8344C468.951 31.3455 468.091 32.9659 466.94 32.9318C466.944 32.3459 466.947 31.76 466.95 31.1741C464.157 30.7818 465.116 32.5059 462.778 31.153C462.541 31.6178 462.303 32.0827 462.066 32.5476C460.802 30.6215 456.019 29.3015 456.882 32.1822C455.472 29.3813 452.888 30.6386 451.86 32.8744C451.784 32.2925 451.708 31.7105 451.631 31.1286C451.098 31.0099 450.564 30.8914 450.028 30.773C449.729 31.1247 449.429 31.4765 449.13 31.8283C448.749 31.4761 448.368 31.124 447.987 30.772C447.756 31.3558 447.525 31.9397 447.295 32.5235C446.68 31.8236 446.064 31.1239 445.446 30.4242C445.068 30.8903 444.69 31.3563 444.311 31.8225C444.275 30.6043 440.504 30.3369 439.438 31.1386C439.121 30.7852 438.804 30.4318 438.486 30.0784C438.332 30.6585 438.178 31.2386 438.025 31.8188C437.787 31.3554 437.55 30.8921 437.312 30.4287C436.768 30.8938 436.223 31.3589 435.677 31.8242C433.424 28.9875 433.395 31.482 432.902 31.4658C432.002 31.4357 428.901 29.6668 428.379 29.7607C427.861 29.855 427.614 30.8763 427.195 30.974C420.261 32.6078 423.092 29.8581 421.694 29.4312C420.935 29.1991 420.403 30.1537 419.73 30.052C418.589 29.8814 412.735 28.6581 412.391 28.7843C411.899 28.9655 413.089 33.4458 411.48 32.2999C411.373 29.8904 408.117 32.3458 409.63 28.9741C408.272 29.2787 406.91 29.5837 405.544 29.8891C405.677 27.0312 404.004 28.8813 402.154 28.7377C399.541 28.5359 393.569 26.7105 393.81 29.6393C393.169 28.9717 392.527 28.3042 391.884 27.6367C387.485 28.6002 383.347 27.675 379.08 27.6849C366.357 27.7102 352.664 28.5157 339.975 29.2619C339.364 29.2986 339.465 30.2547 339.025 30.2817C336.711 30.418 330.788 29.8208 327.572 30.0766C326.545 30.1577 326.057 31.0984 325.731 31.1458C324.625 31.3126 324.87 30.0787 324.36 30.121C323.556 30.1886 319.31 31.3899 317.841 31.5304C317.114 31.5999 316.239 30.6345 315.39 30.9484C315.317 30.9739 315.467 31.9796 315.405 31.9981C313.853 32.1433 314.775 31.2592 314.25 31.3124C310.503 31.6929 306.531 31.7695 302.479 32.0354C301.474 32.1026 299.944 32.8349 299.081 32.9142C298.752 32.9426 299.332 32.1697 298.194 32.2494C297.804 32.2766 297.685 33.2726 297.245 33.3434C295.351 33.6418 294.67 30.4566 293.076 33.0492C289.926 32.9254 284.432 32.184 281.556 32.2076C280.876 32.2144 280.553 32.8062 279.905 32.805C279.445 32.8046 278.623 31.9066 277.906 31.9058C277.189 31.9055 276.07 32.7878 274.691 32.7758C273.239 32.7647 271.429 32.2759 271.103 32.2836C270.708 32.2892 270.54 33.3858 270.145 33.3776C268.951 33.3593 265.744 32.3293 264.209 32.2346C262.557 32.1346 261.581 32.6788 261.011 32.6762C260.485 32.6689 259.859 31.7543 259.619 31.7495C259.245 31.7406 259.172 32.8207 258.697 32.8183C257.922 32.8115 257.114 32.1441 255.954 32.1422C235.113 32.0955 214.803 32.95 194.465 33.9353C192.226 34.0451 190.953 33.3008 187.681 33.6758C186.339 33.8287 186.907 34.9371 185.843 34.7359C185.367 34.645 185.48 33.7683 184.879 33.7312C182.224 33.5713 179.166 34.4097 178.03 34.4044C177.579 34.4037 177.056 33.4133 176.135 33.4058C169.29 33.3453 161.251 33.6744 153.773 33.5311C149.812 33.4557 144.14 32.9647 139.564 32.9017C127.034 32.7293 113.667 32.9075 102.685 32.6864C85.4311 32.3407 68.8372 31.104 52.4241 31.2928C59.8271 29.3126 70.6764 29.9044 79.4636 29.8492C104.869 29.7068 132.022 31.1186 158.213 30.9482C167.543 30.8868 178.741 30.8607 188.923 30.2098C189.37 30.181 190.305 30.9373 191.275 30.8471C191.481 30.8263 194.029 29.4066 194.895 29.3839C194.098 31.8718 197.471 29.6281 198.527 29.677C199.856 29.7414 202.644 30.952 205.774 30.2169C208.616 29.5517 207.821 28.6063 207.977 28.5447C208.982 28.1469 209.352 29.6802 210.129 29.8269C213.257 30.4142 229.256 29.3273 233.825 29.2098C234.995 29.1806 235.016 28.203 235.28 28.196C235.985 28.1804 236.971 29.1328 238.075 29.1118C240.063 29.0717 242.347 28.1189 243.445 28.1007C246.07 28.0552 251.084 29.0754 254.52 29.049C255.486 29.0421 255.413 28.026 255.85 28.0235C257.777 28.0148 262.816 29.1429 265.182 29.1201C269.045 29.0833 273.015 28.3693 276.959 28.6477C277.202 28.1905 277.445 27.7333 277.688 27.2761C278.089 27.7464 278.489 28.2168 278.89 28.6872C285.549 28.2291 292.345 29.1529 298.965 28.991C299.728 28.9729 303.492 28.0508 304.121 28.0382C304.645 28.0307 305.176 29.147 305.95 28.9704C307.034 28.7252 305.98 26.5999 307.765 27.1866C308.244 27.3453 307.795 28.2679 308.757 28.5397C309.072 28.6303 315.237 28.9141 315.572 28.8461C316.124 28.7315 316.59 26.762 316.732 26.7178C317.471 26.4858 317.46 27.9924 317.96 28.1227C319.434 28.5133 321.337 27.4734 321.575 27.4923C324.462 27.7303 329.855 28.8583 332.855 28.1062C333.27 28.0013 333.205 26.8804 333.277 26.843C333.746 26.6043 334.056 27.8772 334.505 27.9007C336.904 28.0127 340.724 27.1019 343.169 26.8515C343.451 26.8241 344.054 27.4305 344.556 27.3644C347.395 26.9823 346.459 26.0087 346.62 25.9643C347.002 25.8547 347.689 26.9331 348.707 26.9873C351.332 27.1331 356.338 26.9143 359.122 26.796C361.209 26.7037 361.161 25.4593 361.298 25.4329C361.594 25.3846 362.398 26.3691 363.81 26.465C366.506 26.655 366.186 25.6808 367.291 25.7101C367.384 25.709 367.234 26.668 368.459 26.7525C370.828 26.9149 376.102 25.9153 378.603 25.9382C379.566 25.9456 379.801 26.8662 380.785 26.8735C382.347 26.8886 385.841 25.855 386.116 25.8549C386.193 25.8541 386.377 26.9144 386.831 26.9099C387.324 26.9049 387.841 26.3533 388.221 26.3531C390.408 26.3464 394.162 28.1654 393.088 24.3846C393.792 25.314 394.495 26.2436 395.197 27.1732C399.727 26.9461 404.092 27.2856 408.495 27.4441C409.488 27.4791 410.295 26.7556 411.144 26.7847C412.014 26.8137 415.824 27.9769 416.453 27.9957C417.592 28.0267 423.956 28.1181 424.731 28.0308C426.264 27.8616 427.737 26.2891 428.359 26.5931C428.856 26.8377 428.401 27.7222 429.349 27.9686C430.998 28.3948 433.724 27.2525 434.265 27.2688C434.487 27.2754 434.076 27.9642 436.153 28.0084C437.27 28.0339 437.866 27.2747 438.27 27.2774C438.394 27.2812 438.213 28.5104 440.405 28.3417C441.918 28.2232 442.556 27.2744 442.715 27.2707C442.952 27.2642 443.525 28.2755 444.472 28.2397C446.691 28.1496 450.697 26.9912 452.751 26.9065C453.149 26.8896 453.014 28.1117 454.595 28.0022C455.723 27.9235 455.527 26.9506 455.974 26.9127C456.686 26.8545 457.742 28.0481 459.297 28.0146C461.344 27.9634 475.451 26.8171 476.09 26.5111C476.609 26.3009 477.207 26.293 477.467 25.7671C477.253 25.2584 477.039 24.7498 476.825 24.2412C474.584 25.9985 475.532 23.9755 474.954 23.8399C474.147 23.6457 471.053 23.8811 470.298 23.4255C470.03 23.2608 470.655 22.1835 469.211 21.6177C467.658 21.0129 466.947 22.9342 466.337 20.3004C464.092 23.2084 461.939 20.0997 464.547 19.284C466.055 18.8217 479.964 17.8844 483.094 17.7707C485.488 17.6683 489.864 18.5116 492.668 18.3587C494.219 18.263 498.636 18.2114 498.471 16.8105C500.043 16.666 498.356 18.0245 498.681 18.2248C499.376 18.6415 504.213 17.7864 505.091 17.8481C509.446 18.1359 514.94 19.8608 519.534 18.2656C519.342 17.884 519.15 17.5024 518.958 17.1208C518.008 16.3961 513.24 17.2225 512.74 15.4125C519.988 15.6369 525.691 15.8524 533.071 16.2465C532.938 17.7561 541.3 18.2491 541.645 17.5995C541.557 16.8508 541.468 16.1021 541.378 15.3535C536.587 17.8451 537.203 14.1708 533.834 15.9523C532.491 15.9063 532.96 14.707 532.305 14.4391C525.728 11.7945 531.864 16.9238 527.141 15.6029C528.605 13.893 524.878 13.073 523.127 12.7791C522.757 12.7109 517.424 12.9624 516.754 12.9153C512.863 12.6227 507.441 11.5008 503.867 12.3915C501.136 12.4445 499.631 11.1488 497.078 10.807C495.141 10.5486 495.638 11.4469 494.801 11.4427C493.035 11.4362 492.487 8.72229 491.281 12.4761C490.073 11.987 488.855 11.4988 487.626 11.0115C487.618 11.5974 487.61 12.1833 487.601 12.7691C486.826 12.7583 486.047 12.7478 485.264 12.7377C485.042 12.1509 484.818 11.5641 484.594 10.9773C482.085 11.7461 483.11 13.17 482.623 14.8232C482.08 14.9307 481.535 15.0385 480.988 15.1464C480.58 13.8682 480.17 12.5902 479.759 11.3123C477.271 11.3899 474.895 11.4726 472.593 11.5587C472.438 12.1414 472.283 12.7241 472.128 13.3069C472.128 12.723 472.127 12.139 472.127 11.5551C468.18 11.4055 464.153 11.2637 460.051 11.1292C458.972 10.1877 465.514 9.50477 465.986 9.45272C468.736 9.15492 475.784 10.1495 475.795 8.06952C477.494 9.6364 482.782 9.30692 484.385 7.46502C481.948 7.54652 479.476 7.63161 476.97 7.72012C477.058 7.02309 477.145 6.32607 477.233 5.62905C474.153 8.41543 473.841 8.25806 470.807 5.57634C470.797 6.51214 470.788 7.44794 470.779 8.38374C468.691 5.11413 464.861 10.6138 464.769 6.59612C463.618 6.9159 462.462 7.2363 461.301 7.55728C458.83 7.0602 462.579 3.97571 452.948 5.16677C452.297 5.25036 452.432 6.2739 451.451 6.20235C451.167 6.18104 449.555 4.68968 446.414 4.84494C445.924 4.86979 445.887 5.75767 445.377 5.87057C444.202 6.13851 441.838 4.38496 442.913 7.24548C438.211 8.08571 440.153 5.73522 438.686 4.80408C437.704 4.18651 437.905 5.87921 437.054 5.49714C436.016 5.02366 436.712 3.31392 432.59 4.11153C433.048 4.22605 433.486 4.34069 433.963 4.45528C433.718 4.91984 433.5 5.38434 433.272 5.84888C430.96 4.74308 431.181 6.36887 430.078 3.76606C428.394 4.9347 426.929 5.03305 424.596 4.83245C420.049 4.44256 422.375 1.62081 417.165 5.43314C416.313 4.90716 415.458 4.38136 414.601 3.85575C413.204 4.98124 414.35 6.37078 412.252 6.6663C413.873 3.89721 409.462 4.93243 408.756 2.479C408.684 3.06545 408.613 3.6519 408.541 4.23834C408.087 4.2416 407.633 4.2449 407.178 4.24824C407.174 3.77831 407.169 3.30838 407.164 2.83845C406.561 3.19486 405.957 3.55135 405.352 3.90792C404.892 3.44552 404.431 2.98317 403.97 2.52086C403.225 3.50933 402.479 4.49793 401.732 5.48664C401.259 5.5576 400.785 5.62862 400.311 5.69968C400.455 4.99861 400.6 4.29755 400.744 3.59649C400.136 3.83545 399.527 4.07449 398.918 4.31361C399.619 3.15933 399.163 1.81643 397.255 1.86808C395.678 1.91012 397.479 4.29095 394.073 3.32441C393.834 3.2556 393.404 1.54953 390.173 1.31573C386.29 1.03606 388.186 2.25628 387.495 2.3058C387.35 2.31426 386.184 1.46532 385.103 1.35281C384.489 1.28874 383.904 1.98924 383.822 1.98825C383.443 1.96039 383.322 0.978979 382.796 0.948852C381.46 0.877943 379.667 1.37812 378.352 1.34309C377.754 1.32831 377.185 0.752238 376.918 0.748065C376.504 0.745797 375.988 1.64056 375.568 1.64161C374.02 1.63979 371.628 -1.28373 370.951 2.82197C369.414 -0.929119 366.321 3.66265 366.522 1.13313C362.439 2.13325 351.954 -0.837307 352.284 3.4055C349.989 -0.196426 350.222 2.43017 349.278 2.38765C348.222 2.34126 348.76 1.6301 347.921 1.67256C345.961 1.77175 344.089 2.09862 342.131 2.13844C342.446 2.7162 342.761 3.29397 343.076 3.87175C341.024 4.08538 341.714 2.7221 339.611 2.4891C335.74 2.065 337.389 3.1236 336.841 4.65626C336.973 3.18181 332.476 3.47134 332.018 3.67143C331.746 3.79324 332.972 5.6745 330.203 5.10005C330.346 4.51415 330.489 3.92826 330.632 3.34237C329.385 4.15797 325.95 3.1918 325.371 3.39628C325.105 3.49154 323.744 8.21962 322.384 4.51198C322.234 5.098 322.085 5.68402 321.935 6.27005C320.473 5.58845 319.01 4.90696 317.546 4.22556C317.329 5.28052 317.112 6.33548 316.894 7.39045C316.433 7.39694 315.971 7.40343 315.51 7.40994C315.803 6.4719 316.096 5.53387 316.389 4.59585C313.542 5.05852 310.047 3.63549 309.51 6.79288C308.894 6.21769 308.279 5.64251 307.662 5.06734C307.282 6.1206 306.901 7.17386 306.52 8.22714C303.702 8.00305 303.645 7.30339 301.704 6.21451C301.791 7.03119 301.878 7.84788 301.965 8.66457C300.529 7.53666 297.921 6.50472 295.869 6.38976C294.893 6.33714 293.236 7.48805 293.005 7.38923C292.771 7.28489 290.422 2.89036 290.229 6.72717C286.841 5.0778 285.384 6.83298 284.017 6.81034C283.129 6.79462 282.711 5.88041 281.707 5.79971C280.27 5.68295 278.833 6.14841 278.005 6.0969C277.531 6.06493 277.43 5.16888 277.104 5.14537C275.559 5.03052 276.476 5.9345 274.849 5.89784C274.699 5.88961 273.496 4.81204 272.16 4.97175C271.412 5.06019 269.495 6.31884 269.325 6.31825C268.568 6.30783 269.137 3.83805 266.593 6.71704C266.662 6.24811 266.73 5.77918 266.798 5.31024C263.584 4.16838 263.111 6.2615 262.467 6.41499C262.385 6.42802 261.597 5.6325 261.133 5.75004C260.346 5.95104 260.04 7.05954 259.866 7.11062C259.25 7.28834 257.163 6.83162 255.819 7.91764C256.06 4.7719 251.29 3.71998 250.289 7.29171C249.44 6.60136 248.591 5.91095 247.742 5.2205C247.371 5.81151 246.999 6.40251 246.628 6.99349C246.39 6.41278 246.151 5.83206 245.913 5.25133C244.709 6.55344 243.506 7.85544 242.305 9.15733C242.21 7.87067 242.115 6.58401 242.02 5.29735C241.681 5.44837 241.342 5.59936 241.003 5.75035C240.751 6.77711 240.498 7.80388 240.246 8.83062C239.817 8.64096 239.389 8.45129 238.961 8.2616C238.846 7.52252 238.731 6.78343 238.616 6.04434C236.309 5.2208 237.618 12.2676 233.112 6.11593C232.433 6.7086 231.754 7.30122 231.076 7.8938C230.265 5.06218 228.837 6.80115 227.666 6.49642C226.84 6.28134 226.871 5.15201 225.751 5.14088C224.631 5.13012 224.685 6.2091 224.597 6.21722C223.686 6.2949 222.988 5.35149 222.322 5.54932C222.222 5.57872 221.986 6.86377 221.137 6.95541C220.287 7.04671 219.759 5.68949 218.499 5.96171C217.853 6.09978 217.679 7.1821 217.107 7.28446C214.366 7.78192 211.624 2.34318 209.582 8.85454C209.101 8.038 205.668 5.1986 204.222 5.37955C201.972 5.66796 202.854 6.93119 201.962 7.17374C201.834 7.21029 201.143 6.78781 199.264 6.88452C198.928 6.90199 198.998 6.18266 198.95 6.17363C196.757 6.21049 192.532 6.81944 190.159 6.94366C189.946 6.9562 188.819 4.96385 186.962 7.67491C184.064 5.71113 178.722 10.0319 174.985 7.05955C174.469 7 173.85 7.72101 173.622 7.69825C171.662 7.4902 172.354 5.31101 167.98 8.52425C168.328 7.41268 167.294 6.41805 165.851 6.51123C163.679 6.65108 165.252 8.71036 163.479 8.55157C163.476 7.9677 163.473 7.38382 163.469 6.79994C159.311 8.39357 158.475 5.90136 154.361 5.90485C152.883 5.90754 150.722 7.20899 150.374 7.21359C150.238 7.21034 148.637 5.80764 148.486 5.79743C147.63 5.75768 147.15 6.40804 146.414 6.41343C143.979 6.43354 141.12 4.60618 141.638 7.93047C140.939 7.22962 140.242 6.52858 139.548 5.82738C136.93 9.38074 134.999 4.48634 134.457 7.93487C133.996 7.22268 133.535 6.51043 133.076 5.79808C122.306 6.1519 110.973 6.45699 100.449 6.68926C99.9971 5.57558 95.1413 5.90382 94.9085 6.07153C93.7739 6.83654 94.9165 9.2746 92.6448 8.6857C92.4103 7.62185 92.1768 6.55796 91.9443 5.49404C89.1224 5.10121 90.4663 6.1786 89.3445 6.87763C88.8859 6.73859 89.0491 5.9189 88.4292 5.84757C85.2643 5.4657 77.8345 5.25783 74.2301 5.08003C73.4916 5.0443 73.5814 5.81608 73.3526 5.81123C72.7244 5.78542 71.5249 4.77923 70.3043 4.73839C62.3279 4.49593 51.0894 4.5094 44.3561 4.74572C43.8998 4.76436 43.8287 5.67863 43.4488 5.69211C42.9407 5.70889 41.9447 4.87452 41.4677 4.90622C41.0135 4.9336 40.6646 5.59927 40.2005 5.63395C38.0083 5.79298 36.0812 4.37515 34.0957 6.12876C33.8696 6.27222 32.141 9.70288 32.1527 9.94733C31.7935 11.3382 31.8177 13.6605 30.5501 15.5285C30.5273 16.4705 30.7297 17.8079 30.2675 18.977C30.0602 19.5663 29.7385 20.123 29.4242 20.6195C29.0344 21.1069 28.6327 21.4728 29.267 22.1217C28.8307 22.0678 28.677 22.1383 28.7124 22.2533C28.7414 22.3688 29.0177 22.5426 29.1845 22.6837C29.5907 22.9843 30.2434 23.322 31.0797 23.6689C31.0187 24.0486 30.9579 24.4282 30.897 24.8079C29.9345 25.6131 29.1155 26.1033 28.4523 26.3864C28.286 26.4571 28.1384 26.5169 27.9903 26.563C27.785 26.5955 27.615 26.6208 27.4982 26.6475C27.2699 26.7059 27.2262 26.7435 27.6964 26.98C27.4994 27.2839 27.3175 27.5948 27.1492 27.9114C26.1908 28.5326 27.4056 29.4557 28.0083 30.179C28.786 30.9627 29.8569 31.8457 30.7185 33.2026C29.0556 33.8594 27.6133 34.5073 26.4219 35.1619C25.9431 35.5186 24.9829 35.7432 24.4827 36.0544C23.9383 36.3591 23.596 36.6888 23.5341 37.1557C23.384 37.3948 23.2595 37.6471 23.1574 37.9089C23.0349 38.2564 23.5067 38.7635 24.564 39.3195C25.4978 39.8442 26.1751 40.257 26.7007 40.7047C28.6553 42.3743 27.6072 42.6858 26.1972 42.7871C25.5097 42.8382 24.806 42.838 24.3433 42.9373C24.1392 42.9938 23.8583 43.0435 23.7226 43.1524C23.5861 43.2612 23.5657 43.4243 23.7262 43.6673C25.6862 44.1188 28.3253 44.5383 31.1052 44.8761C33.3779 45.1483 35.9535 45.3998 38.8042 45.6289C38.4039 46.9649 18.8716 47.6871 17.3432 49.6318C18.0599 50.1198 18.8804 50.5563 19.8179 50.9712C20.677 51.3689 22.0851 51.834 22.613 52.0686C21.9083 52.8287 20.4606 53.4011 19.2747 53.9762C19.4641 54.3275 19.6652 54.6784 19.8774 55.0287C23.184 56.6065 25.5919 57.6748 29.0341 58.8542C23.6119 57.7211 21.7168 57.3674 17.3165 56.979C16.4109 56.9204 15.5522 56.9021 14.6763 56.9068C13.6957 56.8338 13.3018 57.2197 11.2258 56.4945C7.92635 55.6916 2.41998 51.5637 0.865852 44.9987C0.63003 47.7666 1.17224 50.6822 2.12139 52.9989C5.05327 57.3773 12.1844 60.5277 13.0912 60.2168C15.2802 60.6938 17.709 61.2007 19.9209 61.6695C21.5392 62.0038 23.2992 62.4629 25.0908 62.9425C25.985 63.1822 26.8834 63.4268 27.7555 63.6629C28.598 63.8944 29.0865 64.0761 29.6883 64.2622C28.951 65.4952 23.6394 63.7102 22.6249 64.2702C22.2925 64.4349 23.149 65.5018 22.3878 65.8277C21.8889 66.0381 21.0267 66.1998 20.0337 66.3283C19.5334 66.3917 19.0184 66.4512 18.4576 66.4957C17.6426 66.4796 16.8165 66.447 16.0077 66.4002C12.8601 66.2914 9.43492 65.469 10.1654 66.6108C10.4083 66.9801 12.0055 67.9735 14.0521 68.8731C15.0816 69.3293 16.2383 69.7782 17.4847 70.2001C18.3634 70.5334 19.1574 70.8236 20.0527 71.1124C23.5146 72.2551 27.865 73.103 28.5779 73.1405C27.9212 73.2703 27.3454 73.389 26.6273 73.471C25.7909 73.5366 24.9659 73.5836 24.1503 73.6163C22.5185 73.6814 20.9266 73.6904 19.3335 73.6669C18.5367 73.6549 17.7388 73.6346 16.9299 73.6059C15.8423 73.5124 14.4858 73.3319 13.1819 73.1207C11.8529 72.9018 10.4526 72.6276 8.87385 72.2003C8.08381 71.9854 7.24782 71.7306 6.34585 71.4076C6.12031 71.3268 5.89064 71.2416 5.65645 71.1515C5.53939 71.1064 5.42122 71.0601 5.3018 71.0124C5.23215 70.9831 5.21551 70.9828 5.09188 70.9234C4.97419 70.8671 4.85544 70.8095 4.7355 70.7503C3.77632 70.2763 2.7427 69.708 1.61943 68.978C13.5837 79.4247 15.3165 81.3185 23.1527 83.2118C24.228 84.1176 20.5791 84.5432 16.4827 84.508C13.1556 84.9294 2.26485 81.8262 1.47023 81.5527C4.99721 83.7764 7.70452 85.1154 10.2117 86.3095C11.4128 86.8866 12.8089 87.4645 13.6673 87.8894C14.3989 88.2864 15.1214 88.6694 15.8404 89.0421C13.9166 88.3871 9.27565 87.2206 3.93745 84.7859C3.80952 85.05 3.68137 85.3141 3.55288 85.578C7.1332 87.4051 9.86197 88.5834 12.4759 89.6689C14.4594 90.5839 15.7887 91.2955 17.4505 92.0007C20.5745 93.3739 24.3847 94.4847 26.9871 94.7065C26.5929 96.2225 23.2141 95.6582 20.5922 95.2545ZM506.015 8.8901C506.151 7.60776 504.275 7.77242 503.205 7.77298C503.37 7.54275 503.536 7.31254 503.701 7.08236C501.436 7.27113 497.083 7.6784 496.959 5.18254C495.283 4.84116 495.986 7.02362 495.438 7.2604C495.237 7.35528 493.255 6.05755 491.596 7.56737C491.209 7.55507 490.821 7.54287 490.431 7.53078C490.369 6.71187 490.306 5.89297 490.243 5.07406C489.684 6.05844 489.123 7.04303 488.562 8.02783C494.094 8.28236 500.23 8.57082 506.007 8.88988C506.009 8.88996 506.012 8.89002 506.015 8.8901ZM448.462 7.23158C446.4 7.69193 443.2 8.42299 443.844 6.18271C445.164 6.29972 446.478 6.41735 447.786 6.53561C448.011 6.76758 448.236 6.99957 448.462 7.23158ZM242.572 11.2474C240.887 13.4752 239.285 11.5889 236.649 12.0214C236.646 11.5555 236.644 11.0896 236.641 10.6237C237.735 11.7282 240.583 10.9464 242.572 11.2474ZM561.218 20.9325C561.725 20.8359 562.231 20.7419 562.737 20.6508C561.18 17.8605 560.544 19.5481 558.307 18.9971C558.171 18.9636 558.295 18.4017 558.247 18.3918C557.688 18.2786 557.076 18.8962 556.564 18.822C555.597 18.6813 554.721 17.8739 553.4 17.7554C552.302 17.6589 552.174 18.7527 551.79 18.6846C551.481 18.6222 548.417 15.2847 546.008 16.4027C541.699 18.4892 559.015 20.6291 561.218 20.9325ZM587.906 28.569C585.384 26.6715 583.24 25.4684 581.358 24.5195C583.946 26.8397 582.041 26.1247 579.074 24.9357C578.342 24.6503 577.556 24.3498 576.76 24.0597C576.192 23.8571 575.82 23.7269 575.343 23.5585C574.427 23.2363 573.517 22.9248 572.705 22.677C572.614 23.5087 573.895 24.0566 576.709 25.2327C580.675 26.9282 588.824 30.4063 594.753 39.9046C592.611 34.9039 590.07 31.368 587.906 28.569ZM522.108 19.2373C523.566 19.461 523.402 17.4309 523.367 16.8264C522.902 16.8074 522.434 16.7886 521.964 16.7701C522.013 17.5925 522.06 18.4149 522.108 19.2373ZM533.329 20.4661C532.964 19.0678 529.448 18.2827 527.933 18.1017C527.869 18.0986 528.233 18.87 527.21 18.7526C526.915 18.7154 523.942 15.8406 524.488 18.9807C527.209 19.4483 530.255 19.944 533.325 20.4658C533.326 20.4659 533.328 20.466 533.329 20.4661ZM536.722 19.8499C536.134 19.3818 535.538 18.9144 534.936 18.4477C534.574 19.0728 534.213 19.6982 533.851 20.3239C534.56 20.5266 535.26 20.7301 535.953 20.9346C536.21 20.5729 536.466 20.2113 536.722 19.8499ZM93.8467 22.7134C93.9927 22.0259 94.1387 21.3383 94.2846 20.6508C94.8103 20.2364 97.3507 23.2754 96.5252 23.8451C95.6255 23.4684 94.7326 23.0912 93.8467 22.7134ZM83.3654 23.9681C82.809 24.304 82.2477 24.6395 81.6929 24.9749C81.0897 23.791 80.4922 22.6069 79.9004 21.4225C82.6793 20.7008 85.404 19.8461 84.886 23.2859C85.4617 23.2978 86.0406 23.3094 86.6226 23.3207C86.1619 21.885 86.2327 21.417 87.7782 20.5409C88.0757 22.5316 89.6795 21.5503 91.5271 22.0172C90.1763 22.1108 88.8408 22.2031 87.5209 22.2941C87.5143 22.644 87.5076 22.9938 87.501 23.3437C90.4572 23.2718 86.7281 25.4245 84.8793 23.9939C84.7213 24.4566 84.5633 24.9194 84.4054 25.382C84.0571 24.9108 83.7105 24.4395 83.3654 23.9681ZM304.003 21.9665C303.628 22.3238 303.253 22.6812 302.877 23.0385C301.338 18.476 304.401 22.7811 306.484 19.1232C305.818 21.8889 309.071 21.7273 309.259 21.9098C308.898 22.8427 308.537 23.7757 308.176 24.7086C306.786 23.7945 305.394 22.8805 304.003 21.9665ZM293.266 25.2823C294.552 22.9774 288.072 22.9304 285.903 23.4654C285.376 23.5968 284.451 24.8655 284.067 24.7125C283.828 24.252 283.59 23.7916 283.352 23.3311C283.101 24.938 278.827 23.1967 277.143 22.358C276.994 22.944 276.845 23.5301 276.695 24.1162C276.083 23.893 275.47 23.6698 274.857 23.4466C274.942 24.0273 275.027 24.608 275.112 25.1887C274.641 24.4955 274.17 23.8023 273.699 23.1091C271.879 22.3564 273.04 25.5123 271.667 24.5419C270.141 23.4644 272.589 21.5405 272.525 20.3119C273.756 20.6115 276.555 21.2813 277.801 21.2987C278.516 21.3074 277.674 19.1167 280.794 21.6037C281.461 21.0041 282.129 20.4045 282.797 19.8049C284.052 20.7248 285.307 21.6448 286.562 22.5647C286.782 21.7457 287.001 20.9266 287.221 20.1076C287.352 19.978 290.246 21.789 290.102 22.404C291.241 20.8279 293.623 20.5157 296.135 20.4006C296.383 20.8406 296.632 21.2806 296.88 21.7206C294.436 20.7978 296.113 22.2009 295.401 23.0603C294.99 23.5559 293.724 24.5359 293.266 25.2823ZM110.541 24.6904C106.546 22.6673 108.996 24.3315 104.722 24.2908C105.029 23.24 105.337 22.1892 105.644 21.1382C107.714 23.0846 111.249 21.8315 110.545 24.6904C110.544 24.6904 110.542 24.6904 110.541 24.6904ZM68.4202 20.3938C70.5542 21.1035 69.3994 22.7065 72.1812 23.3187C72.1825 23.3187 72.1838 23.3188 72.1852 23.3188C70.7251 23.3922 69.2917 23.4635 67.8858 23.5326C68.0641 22.4864 68.2423 21.4401 68.4202 20.3938ZM203.343 22.1314C205.582 21.6494 205.149 22.4741 207.174 20.8141C210.242 22.7669 207.66 22.5147 207.68 24.3182C206.978 23.7969 206.277 23.2756 205.576 22.7543C203.912 24.459 205.517 25.2907 205.519 25.4527C205.518 25.4527 205.516 25.4528 205.515 25.4528C205.521 25.9941 205.576 26.1075 204.934 26.4418C204.403 25.005 203.873 23.5682 203.343 22.1314ZM212.977 24.2522C212.205 23.0633 211.846 21.5297 213.83 20.7388C213.832 20.7388 213.833 20.7388 213.835 20.7388C214.025 23.4135 215.914 21.2309 216.791 21.4001C217.024 21.6883 217.256 21.9765 217.489 22.2647C215.982 22.9275 214.478 23.59 212.977 24.2522ZM246.659 26.2875C246.628 23.3307 244.935 23.0722 247.275 20.3156C247.737 20.3623 248.2 20.4089 248.663 20.4555C248.975 21.1003 249.287 21.7451 249.599 22.3899C255.396 16.9593 257.264 26.0461 247.308 22.7751C247.307 22.773 247.306 22.771 247.304 22.769C247.089 23.9418 246.874 25.1146 246.659 26.2875ZM236.378 26.1736C236.284 24.6224 236.19 23.0712 236.096 21.52C234.84 25.2812 233.106 21.7306 230.589 24.4047C230.352 23.9357 230.116 23.4667 229.879 22.9976C228.93 24.0491 219.622 24.4628 221.611 22.0504C222.477 20.9971 224.412 22.3897 224.578 22.3559C225.136 22.2319 225.85 20.8894 226.797 20.955C227.345 20.9948 228.519 22.5477 229.638 22.5307C232.137 22.4922 236.683 18.2247 239.969 22.1651C240.198 21.6941 240.426 21.2231 240.655 20.7522C243.079 21.0056 242.291 22.4988 244.523 20.7006C246.174 28.0527 235.464 20.457 237.753 26.4059C237.752 26.4059 237.75 26.4059 237.749 26.406C237.291 26.3285 236.834 26.2511 236.378 26.1736ZM169.445 24.6583C169.307 25.9834 166.52 23.9582 167.192 27.1265C166.281 26.0275 165.372 24.9283 164.466 23.8288C164.471 23.5338 164.477 23.2388 164.482 22.9438C165.377 23.1704 166.274 23.3969 167.174 23.6232C167.175 23.1553 167.175 22.6873 167.176 22.2194C168.516 23.9045 174.148 23.1278 173.969 21.4713C174.276 22.1689 174.584 22.8665 174.892 23.5641C177.589 21.6382 179.952 23.6458 182.929 21.7606C183.165 22.3384 183.402 22.9162 183.639 23.494C183.786 23.0248 183.934 22.5556 184.081 22.0864C185.17 22.018 186.274 21.9493 187.357 21.8805C190.862 23.7329 184.06 26.2338 183.196 25.9636C183.085 25.9258 183.091 24.7143 182.395 24.53C181.149 24.2073 174.302 25.4673 172.21 24.6821C172.198 25.4858 172.185 26.2896 172.173 27.0933C171.261 26.2818 170.352 25.4702 169.445 24.6583ZM259.722 22.9462C259.866 22.1263 260.01 21.3063 260.154 20.4864C262.842 21.2658 264.494 20.5284 263.853 23.2424C263.852 23.2424 263.85 23.2424 263.849 23.2424C262.476 23.1437 261.11 23.0449 259.722 22.9462ZM458.592 20.2489C458.516 21.8744 457.19 22.4779 455.486 21.3087C455.563 20.8369 455.648 20.3651 455.732 19.8933C456.622 21.2799 457.75 18.8691 460.478 19.1994C460.475 20.0172 460.472 20.8351 460.469 21.6529C459.845 21.1848 459.219 20.7167 458.592 20.2489ZM257.416 23.3323C256.613 24.3079 254.285 21.4142 255.788 21.249C256.938 21.124 257.847 22.8085 257.416 23.3323ZM59.3374 21.6153C59.9165 21.4707 60.5012 21.3255 61.0916 21.18C61.3654 21.8882 61.6416 22.5964 61.9204 23.3044C61.919 23.3044 61.9176 23.3043 61.9162 23.3043C61.0408 22.7422 60.1811 22.1792 59.3374 21.6153ZM195.713 22.0758C197.744 22.1574 199.783 22.2382 201.831 22.3183C201.856 22.7718 201.881 23.2252 201.906 23.6787C199.839 22.0447 199.038 23.8373 198.563 23.9514C198.565 23.9514 198.567 23.9514 198.569 23.9514C197.044 24.3262 195.595 24.605 194.162 25.1613C194.678 24.1328 195.195 23.1043 195.713 22.0758ZM188.813 25.0045C189.123 21.7958 189.556 21.419 192.682 23.6436C192.563 24.0394 192.444 24.4353 192.324 24.8311C190.713 24.6106 189.772 23.8792 190.069 25.5483C189.65 25.367 189.231 25.1858 188.813 25.0045ZM220.702 23.6362C220.338 24.6612 217.352 23.672 217.508 23.1556C217.568 22.9507 221.409 21.6267 220.702 23.6362ZM481.622 21.1168C480.908 21.3427 480.191 21.5689 479.471 21.7953C480.422 22.1531 481.366 22.5115 482.305 22.8703C482.078 22.2858 481.85 21.7013 481.622 21.1168ZM489.24 25.776C489.735 25.375 488.192 22.4685 491.123 21.7702C489.006 21.6756 486.857 21.584 484.679 21.4953C485.695 21.9741 486.704 22.4535 487.705 22.9336C487.517 23.7591 487.33 24.5846 487.142 25.4101C487.845 25.5317 488.544 25.6537 489.24 25.776ZM491.551 23.6998C490.401 25.8707 496.281 26.1347 497.029 25.884C497.163 25.8229 497.826 24.1748 498.065 23.8226C497.102 23.8015 496.131 23.7811 495.153 23.7614C495.49 23.2445 495.826 22.7277 496.162 22.2111C494.973 22.0099 494.01 21.8139 492.943 21.6168C493.384 22.1492 493.824 22.6817 494.262 23.2144C493.363 23.3756 492.46 23.5374 491.551 23.6998ZM466.998 22.9103C467.77 22.8598 468.538 22.8096 469.304 22.7596C469.146 23.5765 468.988 24.3933 468.829 25.2102C468.371 25.2072 467.911 25.2044 467.451 25.2017C467.3 24.4379 467.149 23.6741 466.998 22.9103ZM482.778 24.1027C481.679 20.1514 478.44 28.7251 482.142 25.5785C482.514 25.2587 482.882 24.4844 482.778 24.1027ZM499.425 25.4617C501.841 28.3844 501.425 22.0349 499.035 23.8421C498.914 23.9384 499.243 25.2459 499.425 25.4617ZM517.707 26.0538C517.908 26.0399 518.349 24.0003 520.181 26.0219C520.503 25.8 520.824 25.5781 521.145 25.3565C520.495 24.3711 514.07 23.5823 514.882 25.6468C515.879 25.7109 516.693 26.0816 517.707 26.0538ZM511.277 33.4427C510.395 33.3598 509.505 33.2775 508.607 33.196C508.921 32.5615 509.235 31.927 509.548 31.2927C509.112 31.1054 508.675 30.9184 508.235 30.7315C507.445 31.8194 506.652 32.9079 505.856 33.997C507.838 34.2239 509.784 34.4544 511.692 34.6885C511.554 34.2732 511.415 33.858 511.277 33.4427ZM486.828 34.5188C488.602 33.7367 490.735 34.6265 493.514 34.537C493.516 34.5349 493.517 34.5329 493.518 34.5309C493.657 34.5239 493.918 33.6452 494.363 33.6179C494.706 33.5909 502.788 34.7262 502.153 33.2188C499.123 31.8088 497.896 33.8273 497.211 30.4842C497.045 31.183 496.878 31.8818 496.711 32.5806C493.595 33.7376 493.061 31.3001 491.439 30.382C491.437 30.911 491.434 31.44 491.432 31.969C490.373 32.0048 489.306 32.0414 488.231 32.0788C488.387 31.7331 488.544 31.3875 488.7 31.0418C488.321 31.0363 487.94 31.0308 487.559 31.0254C486.608 32.5795 485.419 32.9289 486.828 34.5188ZM515.633 32.7063C516.488 36.7424 524.836 34.3016 528.546 35.3377C526.533 32.8198 523.641 34.3596 521.421 34.2972C517.185 34.1801 520.168 32.8149 519.473 32.1396C519.13 31.8053 516.59 34.2882 515.633 32.7063ZM480.301 33.7368C482.444 33.4361 483.615 34.3742 485.449 32.9255C485.301 32.6306 485.153 32.3357 485.004 32.0408C484.393 32.2995 479.235 33.0872 480.301 33.7368ZM534.478 34.6038C530.206 35.8047 532.467 32.2944 530.092 34.8955C531.568 35.1442 533.009 35.3962 534.416 35.6518C534.437 35.3025 534.457 34.9531 534.478 34.6038ZM253.023 38.4879C251.331 38.603 249.453 39.3608 248.423 37.861C249.567 37.6115 250.713 37.3619 251.859 37.1122C252.247 37.5708 252.635 38.0294 253.023 38.4879ZM301.455 52.5898C301.075 52.9581 299.533 51.9093 299.372 51.9116C299.073 51.9159 299.163 52.4422 299.16 52.58C297.203 52.5125 298.984 50.8507 297.532 50.5158C297.283 50.4607 293.895 51.3181 292.511 51.2716C290.381 51.2 288.258 51.3365 287.463 51.3197C286.119 51.2929 283.606 50.1018 281.398 50.07C280.488 50.059 280.184 51.046 279.269 51.0344C273.376 50.9535 261.887 49.767 256.63 50.4629C255.342 50.6357 254.13 51.9391 253.447 51.8436C252.903 51.381 252.359 50.9185 251.816 50.4559C250.222 54.7086 249.619 50.9538 247.836 50.5833C246.704 50.3493 246.194 51.6097 246.043 51.6086C245.038 51.5974 244.535 51.0074 243.746 50.9191C242.86 50.8217 241.599 51.4039 241.282 51.3059C241.088 51.2399 241.682 49.5661 238.262 49.6427C234.787 49.7211 231.256 49.9426 227.692 50.0651C228.822 45.0208 229.893 48.4499 231.359 48.6149C231.753 48.6592 231.493 47.8638 231.836 47.8947C232.803 47.9776 234.665 48.7383 235.465 48.5377C236.326 48.3214 236.015 46.4743 237.103 47.1431C237.158 47.1776 236.995 47.9442 237.251 48.0689C239.823 49.3 240.643 47.9595 243.884 47.8775C246.02 47.8219 259.145 48.4003 259.598 47.8947C261.908 45.1855 248.074 45.3584 246.48 45.5904C245.917 45.6722 246.519 46.5082 246.008 46.6771C245.791 46.7448 243.812 45.1619 241.882 45.0537C239.549 44.9228 234.88 46.0817 232.613 46.0719C213.343 45.9833 194.634 47.1679 175.286 47.3343C174.877 47.3373 174.332 46.3772 173.006 46.3866C148.113 46.5769 122.441 47.4115 97.3213 46.6295C91.6322 46.4543 86.5641 45.4597 80.9585 46.0506C80.2605 45.3305 79.5685 44.61 78.8824 43.889C80.6731 44.4939 84.05 42.974 84.2512 42.9541C84.3523 42.9491 84.9702 43.7561 86.0072 43.7343C87.4666 43.7065 88.1306 43.0298 88.2507 43.0321C88.6262 43.0367 88.3667 43.7641 88.726 43.7671C91.4098 43.7833 93.5266 44.0243 96.0811 44.0673C98.9396 44.1137 100.609 42.7694 102.501 44.2875C102.733 43.7061 102.965 43.1247 103.197 42.5432C104.622 45.0877 113.716 44.8856 117.576 44.7671C118.781 44.7307 118.575 43.704 118.981 43.706C119.206 43.7081 119.244 45.0521 122.203 44.7998C123.708 44.6714 124.109 43.6943 124.869 43.7283C125.282 43.7481 125.212 44.718 125.807 44.7196C129.251 44.7284 132.107 44.4171 135.573 44.2376C136.549 44.1882 136.561 43.3785 136.78 43.3891C137.586 43.425 138.99 44.7955 141.064 44.7893C144.355 44.7791 150.851 44.756 153.593 44.0785C153.992 43.9783 154.32 43.0056 154.615 43.0185C155.061 43.0414 155.241 44.0541 155.319 44.0592C156.815 44.0703 155.911 43.1319 156.915 43.3564C157.458 43.4773 158.027 44.6306 159.293 44.755C160.965 44.9192 160.63 43.5488 161.331 43.6825C161.405 43.7036 161.432 44.6575 162.122 44.6853C164.799 44.7836 168.342 44.982 170.78 44.9617C171.472 44.957 171.982 44.3112 172.95 44.2935C174.871 44.261 186.11 44.5781 187.061 44.1978C187.154 44.1582 186.151 42.7599 187.733 42.7879C188.189 43.3697 188.647 43.9515 189.104 44.5333C189.852 43.5885 190.601 42.6436 191.351 41.6985C191.351 44.9394 195.835 45.3964 195.76 42.0831C196.25 41.9439 196.741 41.8047 197.232 41.6655C198.281 43.9444 198.954 43.0925 200.959 44.4166C201.262 43.7116 201.565 43.0065 201.868 42.3013C201.951 42.7684 202.034 43.2355 202.118 43.7026C203.154 41.1558 204.931 43.6829 205.144 43.6946C205.963 43.742 206.571 43.0907 206.956 43.1072C208.381 43.1586 211.553 44.0111 213.162 43.5806C213.239 43.5586 213.15 42.4756 213.617 42.3363C214.459 42.0848 214.56 43.6708 215.667 41.7937C215.9 42.2589 216.134 42.7241 216.367 43.1893C216.607 42.9444 216.846 42.6995 217.085 42.4545C218.516 42.5618 219.951 42.6687 221.388 42.7754C220.06 40.956 221.549 39.9131 222.989 41.3399C223.476 41.8237 223.063 42.946 223.225 43.1132C223.444 43.3398 229.909 42.6905 230.333 41.9626C230.645 42.3106 230.957 42.6586 231.269 43.0066C231.415 42.3008 231.562 41.595 231.708 40.8891C231.881 41.1331 232.054 41.3771 232.227 41.6211C233.909 40.3598 238.32 43.1464 239.092 42.9115C239.511 42.7862 239.093 39.7912 241.112 40.0709C241.193 40.8939 241.274 41.7168 241.355 42.5398C241.818 42.6517 242.282 42.7635 242.745 42.8753C243.611 42.7904 244.856 41.3456 244.883 40.3686C245.163 40.9508 245.442 41.533 245.721 42.1152C246.423 40.1967 250.325 40.8205 251.911 42.0068C252.362 41.4249 252.813 40.8429 253.265 40.2609C253.891 40.9522 254.518 41.6435 255.145 42.3347C256.578 42.5257 255.051 41.3832 255.355 41.2819C255.996 41.0723 259.314 42.9919 259.063 40.5469C259.512 40.5345 259.961 40.5222 260.41 40.5098C260.651 41.2063 260.892 41.9029 261.133 42.5994C261.871 40.176 263.2 41.0094 265.905 40.0909C266.141 40.643 266.376 41.1951 266.612 41.7473C267.441 40.9461 268.271 40.145 269.1 39.3438C269.286 40.2608 269.472 41.1778 269.658 42.0948C270.025 42.2219 270.393 42.3489 270.761 42.476C271.475 40.4057 272.841 42.6124 273.509 41.7532C274.484 40.4992 273.695 39.0328 271.85 38.7737C271.966 37.2717 277.463 37.8823 278.731 37.9736C278.652 38.2677 278.573 38.5618 278.493 38.8559C277.195 38.6426 275.897 38.4292 274.6 38.2157C273.569 42.0035 277.069 40.9416 278.69 41.4046C278.838 41.449 279.695 42.8663 281.32 42.7098C281.949 42.6479 284.378 40.5237 284.845 40.4007C288.622 39.3924 285.879 42.4173 289.545 39.7472C288.802 41.7625 290.906 40.0665 293.127 40.4221C293.505 40.4829 296.726 42.0616 296.943 42.1008C298.293 42.3421 296.802 40.5917 298.756 41.0249C298.997 41.4874 299.238 41.9499 299.479 42.4123C299.932 42.4058 300.385 42.3993 300.839 42.3928C303.53 38.2019 304.213 41.25 305.197 41.6285C305.594 41.7814 305.07 40.7055 306.097 40.9198C306.484 40.9995 306.924 41.8945 307.962 41.9431C311.21 42.0938 312.25 38.2209 315.308 42.193C315.759 41.6047 316.211 41.0165 316.663 40.4282C316.983 41.1216 317.303 41.815 317.623 42.5083C319.966 40.4503 319.139 42.5361 319.995 42.4995C322.256 42.4043 326.869 41.9435 327.249 40.2685C329.248 44.0767 331.513 39.7186 332.28 39.8578C332.742 40.3175 333.203 40.7772 333.664 41.2369C334.192 40.7617 334.72 40.2867 335.248 39.8116C335.04 43.581 337.751 39.8406 338.021 39.7805C338.332 39.7199 342.649 40.7773 344.245 40.7359C345.841 40.6939 348.602 39.6377 348.846 39.6326C349.127 39.629 351.846 40.618 353.955 40.5811C355.801 40.5459 366.692 38.9608 366.059 40.6481C365.341 41.1215 364.314 41.5366 363.424 41.7656C360.72 42.4649 344.698 43.524 340.538 43.8488C332.289 44.4899 323.75 44.5093 315.44 44.9928C314.952 45.0209 314.892 45.998 314.473 46.0259C313.837 46.063 312.206 45.109 311.586 45.1389C309.258 45.2565 306.423 45.4563 305.174 45.4988C302.383 45.588 300.476 46.2033 298.364 46.3288C297.703 46.3664 294.34 45.2044 292.054 45.748C291.642 46.0286 291.231 46.3092 290.819 46.5898C292.005 46.8933 295.116 47.6781 296.555 47.7525C298.698 47.859 299.803 47.0512 300.593 47.0537C301.255 47.0547 304.648 47.908 306.186 47.9076C306.664 47.9078 306.747 46.8828 307.156 46.8805C309.376 46.8735 312.281 46.8596 314.236 47.836C313.443 47.5195 318.357 46.8221 318.614 46.8221C319.056 46.8162 319.549 47.7673 320.451 47.7547C322.185 47.73 321.938 45.7296 324.131 47.7034C324.659 47.1122 325.186 46.5209 325.714 45.9297C325.786 48.5981 332.496 44.8748 334.454 48.093C334.513 48.4583 325.751 49.6177 325.021 49.681C320.677 50.0615 314.179 49.4984 309.973 50.0267C308.705 50.1855 304.732 51.8651 304.43 51.8392C303.943 51.8004 304.369 50.8659 304.158 50.8359C299.847 50.2073 302.019 52.042 301.455 52.5898ZM491.343 36.3442C490.059 36.4334 488.764 36.5237 487.457 36.6152C487.543 37.2024 487.63 37.7896 487.716 38.3768C488.316 38.1574 488.913 37.9383 489.509 37.7195C489.958 38.0763 490.406 38.4332 490.853 38.7902C491.016 37.9749 491.179 37.1595 491.343 36.3442ZM494.435 38.8505C495.548 39.1655 495.683 37.9326 495.947 37.877C496.773 37.7093 497.47 38.2225 498.259 38.221C497.425 35.2683 495.383 36.5749 494.435 38.8505ZM471.009 39.623C471.261 39.4844 472.971 36.3368 474.833 39.293C476.189 38.3708 477.829 37.4524 479.313 36.534C476.675 37.9328 473.374 36.4224 472.184 36.4701C471.733 36.4881 471.64 37.4573 471.278 37.4704C469.196 37.5326 467.151 35.3232 466.917 38.5346C468.923 37.6125 470.687 39.7933 471.009 39.623ZM483.89 38.6066C484.241 37.9395 484.591 37.2725 484.941 36.6056C483.708 36.5897 482.464 36.5747 481.211 36.5607C481.542 37.2439 481.873 37.9272 482.202 38.6106C482.767 38.6091 483.329 38.6077 483.89 38.6066ZM389.531 40.9342C390.296 40.9188 391.059 40.9034 391.822 40.8882C391.785 41.3779 390.912 41.3841 390.593 41.7176C390.594 41.7176 390.596 41.7176 390.597 41.7176C390.242 42.0943 390.402 42.7229 389.752 43.0073C389.679 42.3163 389.605 41.6253 389.531 40.9342ZM77.8984 45.9648C76.4644 45.9785 65.2841 45.6298 66.2749 43.8675C66.8578 42.9983 70.5362 43.8991 71.7136 43.9188C73.2374 43.9494 77.5732 42.1354 77.8984 45.9648ZM57.3404 45.5958C57.1712 43.8156 64.4838 43.8431 65.2904 44.1737C65.1225 44.4213 64.8574 44.9762 64.6422 45.0963C63.5655 45.6726 58.8564 45.1846 57.3404 45.5958ZM347.398 46.5486C347.976 45.6418 348.553 44.7351 349.13 43.8284C348.99 45.0001 348.85 46.1718 348.71 47.3435C348.273 47.0785 347.836 46.8135 347.398 46.5486ZM290.339 46.0534C280.541 46.2512 270.739 46.449 260.979 46.6424C261.855 47.1164 262.712 47.5907 263.579 48.0648C271.985 47.7742 280.99 47.1526 289.155 47.7856C289.549 47.2082 289.944 46.6308 290.339 46.0534ZM468.243 44.8718C465.75 44.8739 463.647 44.004 460.863 45.3599C463.502 46.6948 464.809 44.6519 467.32 46.6179C467.322 46.6179 467.323 46.6179 467.324 46.6179C467.631 46.0358 467.937 45.4538 468.243 44.8718ZM412.042 45.2904C412.826 46.103 413.608 46.9158 414.388 47.7287C413.456 47.7346 412.521 47.7408 411.585 47.7471C411.737 46.9282 411.889 46.1093 412.042 45.2904ZM204.972 51.7289C202.305 49.9732 195.633 53.2723 193.503 51.1447C193.365 51.0051 194.613 50.0867 192.564 48.3521C194.101 48.6966 195.192 49.0524 195.321 50.4311C195.773 49.9587 196.226 49.4862 196.68 49.0137C197.443 49.3601 198.207 49.7064 198.973 50.0525C198.877 48.6796 198.937 48.7522 200.119 49.6806C200.649 49.3272 201.181 48.9738 201.713 48.6203C201.946 49.1997 202.179 49.7791 202.412 50.3585C202.868 49.5399 203.323 48.7212 203.779 47.9025C205.601 48.7658 204.515 50.3544 204.972 51.7289ZM214.192 51.29C213.847 51.5979 201.511 50.7473 207.069 47.9462C208.519 48.0177 209.972 48.089 211.429 48.1599C210.297 52.7103 214.137 48.6087 214.453 48.5097C215.972 48.0489 217.933 49.1048 219.044 49.0356C220 48.9748 220.558 48.1541 221.232 48.1669C223.526 48.2097 227.166 48.1942 227.692 50.0651C225.899 50.1266 224.081 50.1692 222.224 50.1447C220.262 50.1192 218.556 51.912 214.864 49.5243C213.961 49.796 214.301 51.2112 214.192 51.29ZM416.716 47.5251C416.616 45.6395 421.298 46.0641 421.327 46.8095C421.339 47.2462 419.82 47.244 419.603 47.4108C419.601 47.4108 419.6 47.4108 419.599 47.4108C419.508 47.4837 419.972 48.203 419.258 48.4076C418.413 48.1132 417.565 47.8191 416.716 47.5251ZM95.9285 50.5292C95.0734 51.5885 81.3223 50.9582 80.6298 50.4203C80.5137 50.2769 80.6908 49.8167 80.6499 49.5477C84.1886 51.1237 88.5415 49.4389 91.793 49.3742C92.6783 49.357 92.4027 50.1023 92.4524 50.1173C92.4545 50.1173 92.4566 50.1173 92.4587 50.1174C92.9596 50.1275 95.2763 48.3304 95.9285 50.5292ZM188.954 50.3269C189.552 50.0265 190.151 49.7259 190.75 49.4253C190.909 50.0077 191.067 50.5901 191.226 51.1725C191.224 51.1725 191.223 51.1725 191.221 51.1726C190.464 50.8908 189.708 50.6089 188.954 50.3269ZM167.823 52.4152C167.967 52.0033 168.11 51.5914 168.254 51.1795C169.768 51.1128 171.288 51.0456 172.815 50.9778C172.659 50.7469 172.504 50.5161 172.348 50.2853C174.651 49.649 175.625 51.0858 176.861 50.8685C176.859 50.8685 176.858 50.8685 176.856 50.8686C176.989 50.8434 177.144 49.9859 177.64 49.9531C178.775 49.8776 182.049 49.5321 182.455 50.3902C183.305 52.2219 176.704 51.4031 175.496 51.4953C174.945 51.5382 174.289 52.2923 173.954 52.3123C173.588 52.3314 173.082 51.3232 172.192 51.3606C171.931 51.3731 169.059 52.5832 167.823 52.4152ZM140.784 51.2958C141.277 50.3688 142.265 51.2621 142.612 51.1101C142.696 51.0742 142.037 50.2997 142.834 50.066C143.061 50.5946 143.288 51.1231 143.515 51.6517C142.614 51.5333 141.747 51.4146 140.784 51.2958ZM424.554 48.3743C424.424 48.5735 421.933 48.5131 421.811 48.3878C420.308 46.7044 425.472 46.8619 424.554 48.3743ZM487.509 50.5085C486.324 52.9401 499.833 50.7515 501.293 50.928C501.267 49.3817 497.922 50.8643 499.702 48.7812C498.033 49.9102 493.365 49.2047 492.447 49.529C491.825 49.723 491.646 51.0545 491.552 51.0952C491.19 51.2388 487.929 49.6474 487.509 50.5085ZM512.383 50.1702C511 50.4207 509.865 50.6808 508.583 50.9383C510.085 51.155 511.382 51.368 513.076 51.5963C512.846 51.1209 512.615 50.6456 512.383 50.1702ZM514.072 50.926C513.997 52.4194 518.551 51.4345 519.665 51.8258C518.466 49.231 516.177 51.5505 514.072 50.926ZM441.102 52.1864C439.061 53.1793 438.171 48.6175 440.663 50.6002C440.739 50.6657 441.187 52.1339 441.102 52.1864ZM204.413 58.156C204.064 58.1882 199.778 59.713 199.524 58.9826C198.715 56.6534 201.54 57.5618 202.479 56.669C203.992 55.2227 201.729 54.0685 205.474 54.8913C205.316 54.4251 205.158 53.9588 205 53.4926C207.186 53.3139 206.506 56.5628 206.904 56.9754C207.026 57.1008 208.394 56.8131 208.645 57.0172C211.769 59.594 204.728 58.1314 204.413 58.156ZM391.01 52.8283C386.955 54.2409 388.644 52.2085 384.568 52.3724C384.399 51.345 390.452 51.9312 391.01 52.8283ZM243.618 55.8283C239.461 55.4788 236.095 56.8682 232.14 55.1116C232.395 52.3262 244.685 55.0961 243.618 55.8283ZM47.4804 57.7289C64.0818 53.7997 82.6206 55.8252 100.129 56.1198C102.054 56.1496 102.164 55.0468 102.84 55.174C103.271 55.2562 103.186 56.1441 103.762 56.1542C125.412 56.5149 145.455 57.6319 166.239 56.9782C167.501 56.9361 173.716 54.9855 175.088 57.8521C176.116 60.0277 171.6 58.3585 170.859 58.3827C170.298 58.4006 170.281 59.4266 169.908 59.4328C169.512 59.4389 169.834 58.7358 169.375 58.7283C167.419 58.692 165.345 58.9786 163.551 58.9288C145.804 58.4528 129.179 58.6467 111.578 58.6214C109.469 58.6164 109.9 59.4413 109.793 59.4441C109.792 59.442 109.79 59.44 109.789 59.4379C98.788 59.4282 86.0088 57.4151 73.6232 57.7683C65.5705 58.1048 56.7049 58.3413 48.2097 58.3858C47.965 58.167 47.7219 57.948 47.4804 57.7289ZM213.326 55.1575C212.323 58.269 212.071 55.1467 208.276 56.4536C207.961 55.9281 207.647 55.4026 207.332 54.8771C209.33 54.9711 211.389 55.0638 213.332 55.1575C213.33 55.1575 213.328 55.1575 213.326 55.1575ZM188.518 56.5444C187.973 60.737 179.359 57.8531 175.609 58.6783C174.895 56.5814 180.42 57.4833 181.737 57.2505C182.377 57.1361 185.924 54.9435 188.549 56.1168C188.539 56.2594 188.528 56.4019 188.518 56.5444ZM473.125 56.503C472.531 56.3762 471.936 56.2496 471.339 56.1231C472.84 55.6703 474.326 55.2186 475.806 54.7681C473.451 55.0458 471.07 55.3267 468.654 55.6103C469.098 56.4819 469.541 57.3535 469.982 58.2253C471.035 57.6506 472.083 57.0766 473.125 56.503ZM465.319 56.006C469.577 56.3569 465.15 54.0059 464.066 55.0354C463.422 55.6522 464.884 55.9684 465.319 56.006ZM454.081 57.4621C455.958 58.9899 460.201 59.1085 458.718 56.0577C456.5 57.4776 455.086 56.2884 452.055 57.1049C452.501 57.6893 452.946 58.2739 453.389 58.8585C453.391 58.8585 453.393 58.8585 453.395 58.8585C453.624 58.393 453.853 57.9275 454.081 57.4621ZM467.254 57.86C470.053 56.1256 461.965 56.6798 464.503 57.8451C464.625 57.8983 467.147 57.9261 467.254 57.86ZM65.6349 61.751C65.3751 60.746 67.4513 60.8378 68.1403 60.7932C71.1374 60.5979 75.1078 61.1452 78.4655 61.0892C78.2055 61.4105 77.9458 61.7317 77.6867 62.0529C73.5004 61.9682 69.5654 61.8711 65.6349 61.751ZM88.5969 61.2964C90.7939 61.3356 93.029 61.3713 95.3006 61.4037C95.5117 61.4067 96.4963 62.2746 95.7526 62.4721C93.3238 62.0841 90.9379 61.6922 88.5969 61.2964ZM227.364 60.9584C225.663 61.5371 230.618 64.3324 230.36 61.2747C229.36 61.1694 228.362 61.0639 227.364 60.9584ZM243.242 61.9738C242.174 61.6971 241.107 61.4203 240.041 61.1434C240.044 61.4953 240.048 61.8473 240.051 62.1992C241.113 62.1242 242.177 62.0491 243.242 61.9738ZM56.567 62.081C57.7395 60.9314 60.4631 61.2366 62.2331 61.2808C60.9713 62.2676 58.1613 61.639 56.567 62.081ZM201.85 62.4864C201.973 61.6647 195.21 61.9402 197.566 63.3606C198.991 63.0695 200.419 62.7781 201.85 62.4864ZM188.181 63.8351C189.614 64.0017 190.725 63.7093 190.417 62.4229C189.657 62.485 188.897 62.5469 188.138 62.6087C188.153 63.0175 188.167 63.4263 188.181 63.8351ZM446.619 59.9091C444.189 59.7934 441.736 59.6798 439.259 59.5683C439.352 59.9201 439.444 60.2719 439.536 60.6237C441.922 60.7335 444.286 60.8452 446.627 60.9589C446.624 60.609 446.621 60.2591 446.619 59.9091ZM55.0462 65.1733C53.3392 64.8591 52.0091 64.5599 50.0553 64.2183C52.0369 64.0948 53.3909 63.9287 55.1187 63.7775C55.0958 64.2449 55.0729 64.7122 55.0501 65.1796C55.0488 65.1775 55.0475 65.1754 55.0462 65.1733ZM479.952 64.6299C472.281 66.1939 482.054 68.025 484.007 65.6418C484.009 65.6438 484.011 65.6459 484.013 65.648C484.188 65.437 483.837 64.4015 484.129 63.9892C483.364 64.4454 482.594 64.902 481.822 65.3589C481.129 64.771 480.432 64.1834 479.731 63.596C479.496 63.8214 479.26 64.0467 479.025 64.2722C479.334 64.3914 479.644 64.5106 479.952 64.6299ZM509.751 66.1076C516.441 66.1215 509.625 63.3266 506.417 65.283C506.434 65.7541 509.17 66.1075 509.751 66.1076ZM492.206 65.1578C491.186 64.9067 490.158 64.6562 489.121 64.4065C488.983 64.6995 488.846 64.9924 488.708 65.2854C489.504 65.5903 490.295 65.8956 491.08 66.2013C491.456 65.8534 491.832 65.5056 492.206 65.1578ZM457.264 69.3953C455.5 69.7151 453.271 66.4282 458.909 67.3068C458.905 67.6588 458.902 68.0107 458.897 68.3627C458.674 68.3057 458.017 67.9736 457.981 67.9997C457.877 68.0875 457.996 69.2631 457.264 69.3953ZM521.823 75.808C521.997 75.9498 521.948 79.6616 523.964 75.9072C524.51 76.166 525.05 76.4252 525.584 76.6847C525.759 75.8742 525.98 75.066 526.178 74.2567C523.919 74.7841 523.82 73.1263 523.65 73.0829C522.933 72.8962 523.432 73.7702 522.963 73.7614C521.762 73.7359 518.941 73.0524 520.131 75.5309C520.56 76.4186 521.649 75.6665 521.823 75.808ZM517.33 77.7445C517.622 77.445 516.759 76.3267 516.982 76.0277C517.186 75.7662 519.978 74.7641 519.305 72.9024C518.852 72.9622 518.395 73.0222 517.936 73.0824C517.763 73.5788 517.589 74.0752 517.416 74.5717C516.99 74.0919 516.56 73.6123 516.127 73.1328C515.327 74.3452 513.649 75.8955 515.537 76.9718C514.837 76.8416 514.131 76.7119 513.417 76.5828C513.065 75.9769 512.71 75.3711 512.353 74.7655C512.522 75.6766 512.689 76.5877 512.855 77.4989C514.377 77.5783 515.869 77.6602 517.33 77.7445ZM537.96 78.4703C537.921 77.9983 537.881 77.5263 537.841 77.0543C540.396 78.1045 544.095 78.7709 542.216 75.6601C538.697 75.1154 535.729 74.6707 532.391 74.2274C532.148 74.5656 531.904 74.9039 531.66 75.2424C534.235 74.036 533.119 79.7494 535.288 78.23C535.645 77.9731 534.803 75.892 536.845 77.3262C536.738 77.7898 536.63 78.2535 536.523 78.7171C537.008 78.6344 537.487 78.5522 537.96 78.4703ZM555.707 79.9118C553.672 80.1287 555.669 82.3483 555.561 80.8712C555.561 80.8712 555.561 80.8712 555.561 80.8713C555.989 78.969 556.36 78.5598 556.25 78.506C556.166 78.4561 555.393 78.7474 555.302 78.7176C555.143 78.6476 554.924 75.7526 552.959 79.5351C553.233 79.5663 553.49 79.5965 553.731 79.6256C553.972 79.6549 554.181 79.6792 554.503 79.7288C555.076 79.8141 555.495 79.885 555.707 79.9118ZM545.238 79.0845C545.541 79.2069 545.439 78.4869 545.572 78.5109C545.574 78.511 545.575 78.5111 545.576 78.5112C546.067 78.599 546.709 78.7346 547.376 78.8545C548.004 78.9693 549.058 79.1164 549.803 79.1594C551.382 79.2545 552.506 79.0205 552.899 77.9295C552.332 77.7393 550.527 77.2919 548.302 77.0829C546.45 76.9138 544.694 77.014 544.389 77.7628C544.68 78.2033 544.963 78.6439 545.238 79.0845ZM529.878 76.2551C528.365 77.6506 531.58 78.0219 532.411 77.3895C532.574 77.251 531.453 74.8097 529.878 76.2551ZM419.661 78.6051C416.445 77.7355 420.66 76.8258 419.191 75.4461C419.805 75.5607 420.418 75.6753 421.03 75.7901C420.574 76.7284 420.118 77.6667 419.661 78.6051ZM273.861 83.1513C273.116 83.3259 273.458 82.4737 273.393 82.4621C272.903 82.4927 272.45 83.1894 272.261 83.1191C268.763 81.7753 271.066 81.0309 271.099 80.865C271.161 80.0258 270.232 79.058 271.485 78.0822C272.258 78.3683 273.032 78.6543 273.805 78.9404C274.18 78.4691 274.555 77.9978 274.93 77.5265C276.473 78.5042 274.477 78.8069 274.269 80.1362C274.189 80.6588 275.636 81.2624 273.861 83.1513ZM413.901 81.4473C413.366 79.9782 412.062 78.1294 413.32 76.6415C413.322 76.6415 413.323 76.6415 413.324 76.6415C413.557 76.3693 414.509 76.2143 414.799 75.8325C416.894 77.7812 416.111 79.813 413.901 81.4473ZM287.708 85.5899C288.944 85.2283 290.179 84.8667 291.415 84.5051C291.381 83.6225 291.347 82.74 291.313 81.8574C290.653 82.105 289.993 82.3525 289.332 82.6001C289.094 82.2006 288.855 81.8012 288.617 81.4018C289.426 80.383 290.236 79.3642 291.046 78.3454C292.043 78.683 293.041 79.0207 294.039 79.3584C293.59 79.8307 293.14 80.3031 292.69 80.7755C295.124 81.2549 294.565 79.1157 296.561 78.2661C297.26 79.074 297.96 79.8819 298.659 80.6898C299.642 79.8537 300.626 79.0176 301.609 78.1815C303.286 78.5415 303.442 79.1653 302.33 80.1183C303.177 81.1771 304.062 79.4801 305.069 79.9021C305.152 79.9361 305.011 80.9468 305.084 80.9579C310.266 81.5638 309.951 78.9198 310.775 78.7954C311.357 78.7097 313.706 80.4638 313.755 81.0726C313.811 81.8931 309 85.1997 316.609 85.1769C312.697 87.4721 308.23 85.2555 311.058 81.9288C309.824 82.2769 304.344 81.5351 303.996 81.6388C303.49 81.7949 303.686 83.039 303.049 83.0807C302.673 83.1037 301.635 80.2683 298.689 82.8013C298.302 82.3389 297.914 81.8765 297.526 81.4141C297.175 81.8037 296.823 82.1933 296.471 82.5829C297.226 83.9434 297.981 85.3039 298.736 86.6645C295.803 85.2165 293.426 88.0499 291.618 85.7168C290.088 86.0134 289.347 86.2955 290.023 87.4916C289.562 87.4982 289.102 87.5049 288.641 87.5115C288.33 86.871 288.019 86.2304 287.708 85.5899ZM404.557 79.4084C403.06 80.7891 402.492 77.8402 402.726 77.6711C404.045 76.7414 405.335 78.6901 404.557 79.4084ZM276.606 81.5434C278.278 80.7586 279.95 79.9737 281.623 79.1888C281.637 80.1225 281.65 81.0562 281.663 81.9899C279.977 81.8411 278.291 81.6923 276.606 81.5434ZM420.141 80.702C420.292 80.0013 420.443 79.3007 420.594 78.6C422.449 81.1463 424.245 77.4699 425.149 78.2232C425.346 78.3878 424.957 79.6253 424.585 79.8921C424.357 80.0584 420.473 80.9359 420.141 80.702ZM496.009 80.6885C495.322 80.2053 494.602 79.7219 493.935 79.2399C493.956 80.0277 493.978 80.8156 493.999 81.6034C494.335 81.7559 494.689 81.9089 495.032 82.0618C495.358 81.604 495.684 81.1462 496.009 80.6885ZM488.441 79.3084C487.254 79.3538 486.056 79.4001 484.847 79.4473C489.418 80.232 485.663 80.5322 488.407 81.5969C488.419 80.8341 488.43 80.0713 488.441 79.3084ZM476.052 80.7533C476.202 81.2246 476.352 81.696 476.502 82.1674C477.756 82.1792 478.999 82.1919 480.232 82.2055C479.434 83.8284 478.634 85.4517 477.831 87.0754C477.376 87.0749 476.919 87.0746 476.46 87.0743C476.325 84.9673 476.189 82.8603 476.052 80.7533ZM240.823 87.1172C240.085 87.1552 237.505 85.763 237.608 85.2367C238.663 84.578 239.719 83.9191 240.776 83.2602C240.793 84.1959 240.811 85.1316 240.828 86.0673C240.972 85.5995 241.117 85.1316 241.261 84.6638C241.872 85.0057 242.483 85.3475 243.095 85.6893C243.389 84.8675 243.684 84.0456 243.98 83.2238C244.299 84.1534 244.619 85.083 244.939 86.0126C242.03 87.7072 242.11 86.0511 241.501 86.0767C241.192 86.0887 241.004 86.6707 240.899 86.9636C240.873 87.0148 240.848 87.066 240.823 87.1172ZM277.854 87.4831C274.349 87.7657 272.31 85.3306 269.805 87.4267C271.365 83.0154 281.941 87.3983 285.6 83.6853C285.995 84.3836 286.391 85.0819 286.786 85.7802C284.757 85.1824 283.378 86.6522 282.397 86.8748C281.617 87.0515 281.688 86.3128 281.628 86.3242C281.626 86.3243 281.623 86.3243 281.62 86.3243C279.793 86.6535 279.237 87.3716 277.854 87.4831ZM422.757 84.1306C421.827 85.2474 420.18 85.145 420.153 83.5217C421.067 83.0468 421.979 82.572 422.889 82.0975C422.704 82.5141 422.916 83.9396 422.757 84.1306ZM474.619 85.2754C473.915 85.7975 472.249 85.3212 472.98 83.925C473.113 83.6771 474.761 84.6765 473.81 82.1374C475.424 82.1902 475.019 84.9752 474.619 85.2754ZM337.678 83.3118C338.29 83.3504 338.915 83.3889 339.537 83.4274C339.691 84.0805 339.845 84.7336 339.998 85.3867C339.223 84.695 338.44 84.0035 337.678 83.3118ZM430.599 85.2197C431.397 82.0108 432.756 85.1261 434.275 82.4858C434.857 82.4638 435.437 82.4419 436.016 82.4201C436.017 82.4201 436.018 82.4201 436.02 82.4201C436.038 83.2948 436.056 84.1696 436.074 85.0444C434.167 85.102 432.405 85.1604 430.599 85.2197ZM299.178 85.4312C299.553 85.0189 299.928 84.6066 300.303 84.1943C300.988 84.6585 301.673 85.1228 302.358 85.5871C301.996 85.932 301.634 86.277 301.272 86.622C300.574 86.2251 299.876 85.8281 299.178 85.4312ZM440.605 85.4686C438.603 85.8734 437.841 83.0879 440.406 83.0764C441.486 83.0748 442.697 85.0462 440.605 85.4686ZM202.578 86.5393C203.263 86.2941 203.949 86.0487 204.636 85.8033C204.877 86.3867 205.118 86.97 205.359 87.5534C204.431 87.2155 203.504 86.8775 202.578 86.5393ZM484.099 85.0592C484.028 84.4723 483.956 83.8855 483.884 83.2986C483.279 83.4089 482.672 83.5195 482.062 83.6303C482.209 84.2139 482.354 84.7975 482.5 85.3812C483.035 85.2737 483.568 85.1664 484.099 85.0592ZM207.213 86.1293C207.765 86.0114 208.316 85.8934 208.869 85.7754C209.244 86.056 209.619 86.3367 209.994 86.6173C209.479 86.9059 208.964 87.1944 208.449 87.4829C208.037 87.0318 207.625 86.5806 207.213 86.1293ZM459.308 85.2154C458.534 85.917 455.42 83.7134 458.229 83.1612C460.014 82.8112 459.424 85.1087 459.308 85.2154ZM463.455 85.934C460.526 87.2635 462.769 80.4595 466.193 84.8921C462.723 84.2684 463.623 85.854 463.455 85.934ZM488.715 89.6894C488.786 89.6869 488.859 88.7084 489.423 88.6808C491.481 88.5857 493.99 88.2425 495.634 88.2142C499.488 88.1316 509.923 90.1733 511.246 87.3893C511.542 86.8028 510.957 85.0051 511.073 84.917C511.418 84.6716 513.282 85.5948 512.974 84.2748C511.057 84.2228 509.386 84.1836 507.672 84.1463C508.068 85.0812 508.461 86.0163 508.851 86.9515C504.604 86.3397 505.995 86.4374 504.803 84.3938C504.044 85.154 503.279 85.9147 502.51 86.6759C500.894 85.8542 499.247 85.0346 497.571 84.2173C497.943 84.8088 498.313 85.4004 498.681 85.9922C496.121 87.021 496.838 86.3269 495.459 84.884C495.445 85.4677 495.431 86.0514 495.417 86.6352C492.895 85.1647 492.593 86.9112 492.048 86.9227C491.01 86.9402 489.813 80.0081 485.638 86.8252C483.956 83.4964 483.905 90.2224 482.925 86.7902C479.92 90.4772 485.578 89.1962 488.144 89.1131C488.146 89.1132 488.147 89.1132 488.148 89.1132C488.344 89.1055 488.025 89.7277 488.715 89.6894ZM473.624 86.0909C475.335 89.1388 468.475 89.3704 470.779 85.0069C471.12 84.8669 471.461 84.727 471.8 84.5872C472.412 85.0882 473.021 85.5895 473.628 86.091C473.627 86.0909 473.625 86.0909 473.624 86.0909ZM407.336 88.164C400.828 86.9668 404.512 85.1926 406.725 86.8808C407.166 87.2156 407.409 87.6774 407.336 88.164ZM272.876 89.8857C272.775 89.523 272.673 89.1602 272.572 88.7975C274.787 89.1069 279.047 87.6411 279.023 90.0971C276.973 90.0268 274.924 89.9563 272.876 89.8857ZM290.408 91.24C289.935 91.3949 288 91.7724 288.221 90.8503C289.052 90.1872 289.884 89.5242 290.716 88.8612C291.113 89.2624 291.511 89.6636 291.908 90.0648C291.363 90.211 290.536 91.1994 290.408 91.24Z" fill="#F697C6"/>
</svg>
