<svg width="359" height="103" viewBox="0 0 359 103" fill="none" xmlns="http://www.w3.org/2000/svg">
<g clip-path="url(#clip0_2014_4)">
<path d="M-142.893 -199.384C-148.439 -183.689 -142.672 -173.205 -140.848 -158.254C-137.153 -126.559 -130.602 -83.0698 -115.895 -51.2274C-105.215 -27.1766 -90.0491 -4.53924 -71.5205 14.3941C-70.5764 15.3625 -69.6025 15.5374 -69.1718 15.9683C-65.1688 20.0348 -58.4385 27.0084 -53.9905 30.6167C-44.8746 38.4205 -27.7539 50.2876 -18.017 55.0232C-13.9319 57.1124 -9.73423 59.2223 -7.53498 58.817C-6.03065 59.5181 -5.77954 61.0279 -5.42028 61.2852C-5.4153 61.2863 -5.41027 61.2875 -5.4053 61.2886C-4.24713 62.1142 -0.68733 62.8888 -0.00836945 63.2673C0.0937634 63.3245 -0.942872 63.8256 0.885433 64.3938C1.04808 64.4441 1.16666 63.8306 2.61159 64.4959C2.99298 64.6838 7.40981 67.7145 8.78719 68.3604C13.3055 70.5952 24.8051 74.3231 30.4192 76.2241C31.2776 76.5223 31.6572 77.0296 32.5653 77.3451C33.0343 77.5085 33.8627 77.3789 34.0065 77.4291C34.6321 77.657 36.8683 80.2354 36.9454 76.6149C39.7639 77.7593 38.5695 78.5716 38.4071 79.3028C41.5391 80.4117 43.5397 79.3016 43.8691 81.2085C59.5468 85.6989 75.3661 89.0366 91.123 91.5044C91.0804 91.7832 91.0379 92.062 90.9954 92.3408C95.8308 92.0133 97.136 94.1321 100.045 92.9188C101.631 93.5206 103.224 94.1143 104.808 94.6983C147.046 99.4203 188.884 101.109 229.703 99.1472C231.452 99.0611 231.861 98.4418 234.727 98.2852C237.89 98.1122 242.354 98.5509 246.452 98.2764C250.035 98.0402 255.291 97.1034 259.381 96.702C260.296 96.6135 260.985 96.9413 261.088 96.9313C261.692 96.8697 261.675 96.2676 262.259 96.2049C262.957 96.1312 263.836 96.5088 264.639 96.417C267.641 96.078 270.889 95.9567 271.263 95.9142C273.066 95.7033 273.409 95.082 273.557 95.0629C275.55 94.8173 274.846 95.4114 275.341 95.3372C277.941 94.9444 279.771 93.4495 283.499 94.3801C283.355 93.8996 283.21 93.419 283.066 92.9383C285.806 92.4039 284.101 93.8762 284.688 94.059C284.938 94.1261 290.819 93.4007 291.255 93.332C292.814 93.0939 292.789 92.439 292.923 92.4169C293.282 92.3609 297.143 92.721 299.234 91.9325C301.637 91.0063 298.592 89.9818 299.18 89.6704C299.282 89.6179 301.874 89.4878 302.173 89.0379C302.508 88.5531 300.287 88.7924 300.3 88.602C300.317 88.4714 303.899 87.1712 303.128 86.6263C302.523 86.0643 297.527 87.3822 296.503 87.1896C296.33 87.1582 296.568 86.361 296.417 86.3479C295.855 86.3092 284.633 87.3843 284.081 87.5542C284.708 87.8471 285.334 88.1397 285.958 88.4321C285.175 88.5423 284.39 88.6521 283.602 88.7616C284.753 88.9356 285.9 89.1088 287.043 89.2813C285.667 92.3134 280.331 89.8727 279.988 88.4565C279.839 87.8019 282.774 85.8114 279.805 85.0828C280.227 84.8725 280.649 84.6621 281.07 84.4515C281.995 84.6479 282.919 84.8437 283.839 85.0391C283.26 85.2714 282.68 85.5035 282.098 85.7354C282.337 85.9142 282.575 86.093 282.814 86.2718C284.521 86.4347 286.219 86.5957 287.907 86.7554C288.745 86.5258 288.511 85.9546 289.083 85.7842C296.18 83.6404 291.651 85.9281 296.317 85.195C296.935 84.8135 297.624 84.4244 298.291 84.0373C298.176 85.3683 300.275 84.3261 302.93 84.6183C302.575 84.2282 302.221 83.838 301.866 83.4478C305.692 83.2808 312.876 80.3532 311.122 82.8991C311.939 82.6099 312.751 82.3208 313.559 82.0318C314.301 82.3369 315.041 82.6421 315.778 82.9473C316.724 82.7999 317.703 82.6486 318.733 82.4913C318.715 82.2845 318.697 82.0777 318.68 81.8709C317.866 81.959 317.037 82.0485 316.292 82.1286C316.792 81.438 317.31 80.7452 317.862 80.0486C318.476 80.0869 319.087 80.1253 319.697 80.1639C317.249 81.0347 320.672 81.6411 321.554 82.3833C323.689 82.458 324.888 81.2345 325.575 81.1091C325.906 81.0491 329.907 82.5273 328.19 80.6046C330.165 80.6414 332.114 80.6807 334.035 80.7234C334.765 80.4799 335.451 80.2414 336.212 79.9947C334.376 79.2143 339.249 77.4859 335.529 77.4914C332.954 77.4719 332.409 78.4533 331.181 78.5838C330.07 78.7031 329.411 78.1565 328.184 78.2655C319.805 79.0237 313.049 79.8826 305.192 80.9862C303.624 81.2067 302.148 81.0568 301.081 81.2098C299.875 81.3836 301.473 81.9955 299.909 81.9679C298.263 81.9375 297.842 81.346 297.41 81.3774C297.134 81.3984 296.356 82.0478 295.621 82.1221C292.57 82.4318 287.951 82.3304 287.504 82.3758C287.028 82.4342 278.122 83.7811 277.672 83.9088C277.446 83.9799 278.113 86.0246 275.911 83.9784C275.272 83.9936 274.674 84.0048 274.07 84.0162C274.204 84.4247 274.338 84.8332 274.472 85.2418C270.772 83.9713 272.079 84.7502 268.608 84.9184C260.265 85.3269 247.808 86.5927 238.646 86.964C236.582 87.049 235.768 86.5931 233.314 86.6878C231.009 86.7834 225.198 88.5518 226.385 86.4213C221.474 88.438 220.533 85.3709 218.093 87.3949C217.778 87.1255 217.463 86.8561 217.148 86.5864C214.454 87.8866 213.569 86.8567 210.563 86.798C209.266 86.7704 210.795 88.0118 208.14 86.6545C207.642 86.7735 207.144 86.892 206.645 87.0101C206.769 87.3173 206.893 87.6244 207.017 87.9316C204.087 87.7469 203.927 87.9076 204.226 86.7417C202.846 86.9818 201.464 87.2184 200.077 87.4515C199.899 87.0734 199.72 86.6953 199.542 86.3171C200.17 85.7171 231.723 85.7508 236.271 85.7018C241.46 84.561 251.6 84.9694 255.878 84.4381C257.554 84.2312 258.233 83.3173 260.652 83.0261C263.071 82.7351 266.159 83.2683 267.436 83.1898C271.533 82.9814 292.075 80.8967 278.04 81.1178C278.404 80.6631 278.768 80.2084 279.13 79.7536C284.784 80.67 282.711 79.9771 287.222 79.3973C289.121 79.1523 293.671 79.6427 293.228 77.7693C289.73 77.7625 286.05 78.7315 282.95 78.9948C282.646 79.0212 278.889 78.4963 276.994 78.9032C275.315 79.2702 276.544 80.9884 272.775 79.2698C270.258 81.4906 268.528 79.8189 267.798 79.6872C266.53 79.4581 266.475 80.4502 265.239 80.6662C263.891 80.903 262.899 80.3263 262.713 80.3369C260.885 80.4788 250.929 81.1229 250.604 81.5334C251.002 81.6807 251.4 81.8279 251.798 81.9749C249.324 82.4295 249.774 81.388 249.11 81.3131C248.621 81.35 248.131 81.3867 247.64 81.4231C247.849 81.6184 248.057 81.8136 248.265 82.0088C245.3 82.1609 247.526 81.2908 243.306 81.5792C240.625 81.7612 237.875 82.7175 237.608 82.6736C237.529 82.6611 238.351 82.0759 237.243 82.0672C235.411 82.0546 232.236 82.2364 231.916 82.9839C231.009 82.927 231.049 82.2085 230.929 82.1984C230.337 82.1682 221.54 82.3285 219.926 82.3377C215.511 82.3945 210.57 82.7053 205.722 82.6946C205.223 82.6938 205.552 83.1455 205.052 83.1418C204.249 83.1386 200.194 82.4931 199.584 82.4489C198.072 82.3504 194.083 82.6777 193.451 82.4713C193.362 82.4424 194.671 81.8121 193.133 81.6313C191.425 81.4298 192.349 82.2579 192.257 82.2669C188.78 82.5717 186.575 81.9879 184.193 81.8653C183.421 81.8259 181.99 82.4444 180.898 82.2484C180.773 82.2261 181.027 81.6483 180.904 81.6186C179.257 81.2989 177.728 82.3547 177.015 82.4138C175.279 82.5575 176.236 81.7773 176.145 81.7704C174.992 81.7265 173.433 81.9851 171.676 81.9073C163.849 81.5541 157.394 81.2614 149.074 80.8369C148.027 80.7825 146.749 81.2648 146.589 81.2554C146.094 81.2198 146.277 80.5726 144.845 80.4942C141.825 80.3296 139.028 80.0927 136.039 79.8629C135.438 79.8166 135.131 80.4036 134.671 80.3783C133.123 80.2947 128.029 78.2193 127.752 80.1848C124.867 78.1358 122.692 79.4309 120.233 79.1409C114.405 78.4697 105.4 76.9121 99.5628 76.2111C98.3374 76.0685 97.6854 76.4791 97.003 76.3965C95.7746 76.2644 88.8954 74.7778 88.524 74.7773C87.7898 74.7967 87.7956 77.092 84.5112 74.4737C82.4029 73.9225 82.477 74.8716 82.025 74.8333C78.501 74.5118 75.5526 71.7636 75.7891 73.7422C71.8652 72.3706 69.5268 70.7447 67.4853 72.0685C67.7049 71.237 65.9501 70.2909 63.6186 70.0418C65.5795 72.0124 65.072 72.8685 70.7792 73.9226C70.869 73.9388 70.8381 73.2942 70.9279 73.3104C71.7423 73.4545 73.3564 74.14 74.7429 74.407C76.1291 74.6735 75.4531 74.0919 76.0031 74.219C76.5064 74.3356 76.3652 74.9138 77.0963 75.0775C79.473 75.6044 81.5346 76.1836 82.8787 76.4578C83.7263 76.6305 84.7752 76.3002 85.4336 76.425C87.9758 76.9202 93.3213 78.2842 96.5986 78.7497C97.281 78.8463 97.0888 78.2231 98.5833 78.4111C98.7578 78.4326 99.2962 79.1377 100.583 79.4632C101.87 79.7883 102.928 79.6379 103.759 79.8231C104.451 79.977 104.085 80.4741 105.514 80.712C106.701 80.9589 120.325 82.2587 121.075 82.2071C122.151 82.1987 122.736 81.4933 123.373 81.6538C123.485 81.6856 123.601 82.4385 123.991 82.5319C130.432 84.1213 144.968 84.2471 152.398 84.5969C167.993 85.4137 182.337 86.0648 198.02 86.0384C198.301 86.1629 198.581 86.2872 198.861 86.4114C197.283 86.4388 195.701 86.4617 194.116 86.4797C194.109 86.8265 194.102 87.1732 194.095 87.5199C191.949 87.5914 192.228 86.7677 192.286 86.2731C191.494 86.4877 190.7 86.7012 189.905 86.9134C189.218 85.7109 183.912 86.5128 181.161 86.4806C179.367 86.4651 177.285 85.9759 176.346 85.9964C174.373 86.0382 174.409 86.7823 174.254 86.7918C173.989 86.8045 171.244 86.0926 169.25 86.0645C166.304 86.0198 165.945 87.159 161.935 86.0425C156.721 86.4441 150.994 85.8641 145.423 85.4087C146.419 86.5346 141.478 85.2106 139.222 85.0517C125.436 84.1542 108.51 82.6783 94.4873 80.7332C92.6905 80.4875 91.2336 80.8664 90.2404 80.6704C89.7018 80.5645 89.5952 79.7994 88.8298 79.7606C88.6951 79.7549 88.4817 80.4166 87.068 80.2623C83.5465 79.9058 75.1507 77.0111 72.678 77.7887C60.8723 74.9636 49.1645 71.5806 37.6536 67.5243C37.2746 67.6937 36.8949 67.8625 36.5146 68.0306C34.7842 65.9664 25.853 63.6679 21.6951 61.9018C14.3683 58.8965 5.37492 54.3321 -0.812766 51.1074C-2.15585 50.4142 -3.44393 50.2056 -4.70871 49.5295C-5.25279 49.2378 -5.68103 48.4119 -6.24324 48.1061C-12.5574 44.6996 -21.2266 40.1189 -27.2606 35.9804C-40.9443 26.6628 -53.139 16.4646 -64.5745 4.15835C-103.92 -37.7811 -121.24 -95.0247 -126.288 -148.43C-126.359 -149.143 -126.96 -149.052 -127.014 -149.606C-127.357 -152.866 -127.402 -160.34 -127.619 -164.185C-127.812 -167.225 -128.928 -172.121 -128.024 -173.232C-126.254 -162.199 -125.553 -151.002 -123.928 -140.455C-123.805 -139.638 -123.219 -139.605 -123.197 -139.506C-122.773 -137.672 -123.709 -138.745 -123.405 -136.057C-123.323 -135.124 -120.329 -127.265 -122.272 -127.968C-121.313 -126.067 -118.573 -112.862 -118.222 -110.393C-118.134 -109.621 -118.779 -110.045 -118.774 -109.889C-118.753 -109.211 -117.957 -109.074 -117.813 -108.498C-117.436 -106.939 -117.036 -102.518 -116.838 -101.747C-116.401 -99.9057 -114.424 -94.6635 -113.903 -92.3083C-113.431 -90.1388 -114.295 -90.3233 -113.831 -88.4662C-113.458 -87.0109 -113.298 -88.7535 -112.144 -85.6201C-111.577 -84.0394 -110.291 -78.5468 -109.79 -77.1301C-109.311 -75.7311 -108.329 -74.3418 -107.674 -72.4397C-106.744 -69.6834 -104.712 -63.7889 -103.717 -61.0895C-103.658 -60.9279 -104.055 -60.3044 -103.877 -59.9188C-103.509 -59.121 -102.922 -59.6598 -102.591 -59.0843C-102.316 -58.4773 -97.6368 -48.135 -96.5925 -46.2658C-95.9651 -45.0375 -95.924 -43.9893 -95.5677 -43.3172C-95.2868 -42.791 -94.7035 -43.0268 -94.4137 -42.4954C-94.3264 -42.3304 -94.0562 -40.664 -93.2777 -39.2789C-92.5554 -37.9505 -89.2818 -33.3236 -88.934 -32.7862C-88.7146 -32.4248 -89.3362 -32.5924 -88.6805 -31.5269C-88.0802 -30.5574 -87.1964 -30.2269 -86.8492 -29.684C-86.0478 -28.4303 -85.5575 -26.7413 -84.6449 -25.3414C-82.0369 -21.3769 -81.5578 -22.0178 -81.3849 -21.7906C-80.8895 -21.1835 -81.2489 -20.5537 -81.1132 -20.3347C-80.5421 -19.4097 -79.1015 -17.1819 -78.5525 -16.3936C-77.8711 -15.4079 -77.0698 -15.3717 -76.3104 -14.3625C-75.7462 -13.6103 -75.0796 -11.726 -73.7739 -10.0261C-70.8889 -6.24276 -67.1203 -1.64156 -63.8525 1.86414C-62.8764 2.91469 -62.3092 2.68384 -62.0008 2.99244C-60.3769 4.60803 -59.9381 5.9621 -59.4755 6.42564C-56.2072 9.74645 -49.4733 14.7012 -46.126 17.443C-44.7954 18.592 -39.1785 23.867 -35.6641 26.3884C-35.2654 26.6806 -35.3643 26.0461 -34.9688 26.4334C-34.0219 27.3577 -34.661 28.0102 -34.1083 28.3882C-33.8409 28.567 -32.941 28.5979 -32.1508 29.1113C-28.0488 31.7723 -25.4894 33.9577 -23.6181 35.1649C-5.64603 46.7553 14.1044 55.7239 32.7124 62.251C34.768 62.9751 37.1567 64.3774 40.4598 64.9073C40.6441 64.671 40.828 64.4344 41.0118 64.1978C41.0354 64.497 41.0594 64.7962 41.0836 65.0954C44.5957 66.3861 45.848 67.1478 49.6197 67.9008C49.9459 67.9665 51.2684 67.0124 51.4232 68.7207C55.3919 68.6488 53.067 69.2037 55.7582 70.0624C58.4251 70.9056 61.1463 71.2478 63.7959 71.8265C65.368 71.6359 59.6687 68.8266 59.2878 68.7157C58.658 68.5541 57.7987 69.1468 57.1813 69.0232C55.3582 68.6611 53.7657 67.5555 53.1715 68.124C51.0451 66.7372 53.8454 67.9264 53.7378 67.1921C52.1074 67.0214 50.4774 66.8389 48.8479 66.6443C48.7158 64.2402 39.3364 64.4096 40.4691 62.9138C39.6884 63.0255 38.9064 63.1342 38.1231 63.2399C35.8825 60.1612 33.7116 61.0496 29.5427 60.2099C29.9229 60.0514 30.3025 59.8922 30.6816 59.7323C30.6387 59.5974 27.357 57.8878 28.1656 59.4686C25.2064 56.6575 24.3991 59.1523 21.9669 56.1366C20.2061 55.1548 20.8995 56.6416 17.5938 55.2352C15.6362 54.3972 13.4503 52.8147 11.3126 51.7984C10.8191 51.566 10.3383 52.0467 9.89596 51.8435C9.4544 51.64 9.49701 50.9714 8.96746 50.7075C7.87277 50.1613 6.25167 49.8742 5.58022 49.5022C4.97784 49.1709 4.33712 48.2494 2.9011 47.4372C-2.09607 44.5707 -0.895794 46.0351 -1.83134 45.8581C-2.83103 45.6529 -2.96993 44.4114 -4.73753 43.5921C-4.91544 43.5099 -4.77869 44.3195 -5.32581 43.9935C-5.76689 43.7297 -5.65921 42.9931 -7.07583 42.0562C-7.66417 41.7318 -16.6254 36.284 -17.9395 35.3647C-20.0076 34.0582 -24.8965 31.5341 -26.9784 30.0567C-27.7845 29.4947 -28.3148 28.4292 -29.1618 27.8256C-31.9885 25.825 -36.3903 22.554 -39.7933 19.7957C-42.8669 17.3615 -48.9212 13.6672 -49.7456 11.3367C-53.6949 7.45325 -55.259 7.16898 -55.5791 6.88688C-56.4046 6.11512 -56.3225 5.29705 -57.2952 4.26076C-70.2067 -9.14112 -84.6647 -28.8201 -92.5233 -44.3254C-111.366 -80.3427 -119.531 -120.621 -122.335 -160.186C-122.061 -160.311 -121.786 -160.437 -121.511 -160.562C-121.033 -155.844 -120.094 -150.448 -119.522 -145.989C-118.84 -140.405 -118.658 -130.218 -116.02 -126.181C-116.151 -128.029 -117.328 -130.935 -116.338 -131.026C-115.785 -127.728 -115.188 -124.48 -114.549 -121.283C-115.017 -121.298 -115.485 -121.315 -115.953 -121.332C-115.49 -117.939 -114.736 -114.564 -114.111 -111.275C-114.002 -110.703 -114.493 -111.02 -114.39 -110.524C-114.274 -109.97 -113.94 -110.434 -113.915 -110.331C-113.613 -108.942 -113.932 -108.413 -113.884 -108.223C-113.762 -107.755 -113.448 -108.207 -113.032 -106.88C-112.257 -104.423 -112.875 -102.407 -111.264 -103.408C-111.072 -102.611 -110.879 -101.817 -110.682 -101.027C-111.107 -100.704 -111.532 -100.38 -111.956 -100.055C-108.809 -95.6998 -111.532 -92.6041 -108.131 -90.7502C-108.287 -89.7778 -108.439 -88.8053 -108.586 -87.8328C-107.972 -87.4944 -107.357 -87.1599 -106.742 -86.8294C-107.117 -86.6132 -107.491 -86.3967 -107.864 -86.1798C-106.188 -81.7851 -105 -76.6984 -103.28 -72.2288C-102.091 -69.1578 -101.648 -68.4928 -100.604 -65.8107C-98.2373 -59.9005 -99.8946 -66.0292 -97.0179 -61.5585C-97.5996 -61.603 -98.1816 -61.6496 -98.764 -61.6982C-98.5954 -60.8231 -98.4226 -59.9502 -98.2454 -59.0796C-97.6162 -58.6965 -96.9866 -58.3184 -96.3567 -57.9454C-97.2516 -54.6155 -94.9062 -53.8033 -94.7563 -53.4853C-94.6345 -53.2288 -95.3679 -51.6672 -92.9034 -49.2226C-95.1234 -49.6346 -91.7849 -46.9791 -91.6313 -46.7238C-91.4959 -46.4632 -90.1116 -42.9747 -89.3647 -41.6704C-88.7848 -40.6357 -87.2167 -38.6354 -86.3543 -37.1249C-85.5932 -35.7899 -86.1944 -35.6158 -86.1434 -35.5154C-85.2189 -33.8636 -85.4195 -35.1241 -84.6965 -33.9688C-83.9723 -32.8174 -83.8578 -31.6507 -83.663 -31.4258C-83.5641 -31.3141 -83.3419 -32.0317 -82.9391 -31.4901C-81.8927 -30.0873 -80.4265 -26.9046 -79.2183 -25.1543C-78.7895 -24.5272 -77.8532 -24.0122 -77.3628 -23.3315C-76.612 -22.2872 -76.7875 -21.4286 -76.3383 -20.83C-76.1792 -20.6217 -74.4172 -19.8507 -73.3241 -18.1239C-73.1214 -17.7997 -74.1018 -15.6074 -70.8258 -16.209C-71.0868 -15.8632 -71.3472 -15.5168 -71.6072 -15.17C-68.2231 -9.12482 -64.3676 -9.91626 -64.6406 -5.59897C-61.0623 -2.02379 -62.469 -5.40899 -61.9685 -5.10837C-61.6501 -4.91675 -60.804 -3.48818 -60.6689 -3.36849C-60.4297 -3.15757 -60.1874 -3.45055 -59.9561 -3.19271C-55.7081 1.51521 -58.1257 -0.0773751 -57.0701 1.69806C-54.4957 5.88659 -50.1937 6.82501 -56.5072 1.42756C-56.356 1.28198 -56.2047 1.1364 -56.0534 0.990821C-54.7959 2.6154 -51.0589 6.16225 -51.5358 4.19539C-51.9603 2.72223 -60.7075 -5.75514 -55.1227 -1.54865C-53.8563 -0.608873 -53.8558 0.538313 -50.9151 1.39647C-49.607 2.584 -50.7634 4.13837 -48.495 5.25268C-49.2418 5.46239 -49.9908 5.66839 -50.742 5.87068C-48.9888 8.78909 -45.0942 10.763 -43.4213 12.7174C-42.8626 13.3864 -42.5193 17.8637 -41.0189 14.9591C-40.0431 16.0886 -34.32 19.9618 -33.4707 20.9407C-33.2659 21.1756 -34.0042 22.7948 -30.0496 24.9856C-29.6726 24.9991 -29.296 25.0114 -28.9198 25.0225C-31.8497 22.1162 -25.6633 25.8508 -26.3044 23.3943C-27.2624 23.6033 -30.1146 22.0504 -30.7399 22.0272C-31.8222 21.9936 -30.2019 24.2313 -32.7527 22.0231C-32.8003 18.6143 -28.7465 23.2318 -27.9578 20.6218C-25.1475 24.1693 -24.1006 23.4743 -23.2747 24.0048C-19.7108 26.2538 -17.6475 27.9393 -14.1314 29.8086C-13.5949 30.7891 -20.074 27.5217 -20.6764 26.8037C-18.9636 30.1884 -23.7649 27.0868 -25.0821 24.7793C-25.5709 25.1213 -26.061 25.4621 -26.5521 25.8019C-23.8063 27.3814 -21.1907 28.9688 -18.8288 31.0525C-18.5443 30.9869 -18.2601 30.9209 -17.9762 30.8543C-18.3905 30.2105 -18.8005 29.5656 -19.2063 28.9195C-16.7713 29.8914 -18.954 30.4385 -15.2903 31.0694C-15.5379 31.6609 -15.7847 32.2527 -16.0306 32.8449C-13.1177 34.4283 -10.1656 35.9503 -7.20524 37.3969C-6.35507 39.3705 -0.514002 41.9882 -0.771006 39.9785C1.53918 41.0705 -1.65992 40.3693 0.277456 41.8407C1.12211 42.4811 2.92374 43.457 3.57399 43.2884C4.08044 41.7977 1.46617 40.2395 1.16133 38.8595C1.75032 38.8917 13.9375 46.0578 13.5942 43.8021C14.6972 44.0649 13.8363 44.7119 15.5748 45.7585C20.4636 48.7188 29.2772 50.2403 32.7805 53.9843C27.2612 53.3238 26.2653 51.436 22.4811 49.8315C20.0103 48.9201 5.57396 41.967 8.10626 44.9472C7.66198 44.5004 7.2199 44.0523 6.78034 43.6032C6.02614 43.7814 5.26985 43.9563 4.51145 44.1277C5.99818 44.9485 7.49465 45.755 9.00047 46.5472C9.57747 46.2777 10.1527 46.0063 10.7265 45.7332C10.7465 46.1294 10.7674 46.5258 10.7891 46.9224C11.409 47.2878 12.0259 47.6486 12.6427 48.0062C12.6359 47.5403 12.6299 47.0745 12.625 46.609C13.6451 46.9975 14.6675 47.3795 15.6925 47.7554C15.1962 48.1509 14.6985 48.5452 14.1993 48.9382C18.864 51.1547 17.4146 50.1228 20.4515 50.272C22.4638 50.9927 18.7066 50.6122 22.7918 52.5905C27.574 54.8433 24.9736 52.0006 31.2157 54.7607C31.2099 55.0581 31.2044 55.3555 31.1992 55.653C32.7061 55.9123 34.2239 56.163 35.7131 56.3917C35.4114 56.6553 35.1091 56.9185 34.8062 57.1813C37.7457 58.0918 41.5793 60.067 42.9768 59.0762C39.7995 58.7298 40.5971 56.4626 41.499 56.3033C43.2764 56.1863 66.6821 63.7944 71.3761 64.6981C77.3062 66.152 81.9994 66.3427 87.2195 68.5339C83.348 68.85 70.4396 65.231 67.8655 65.2292C67.6092 65.2338 67.1513 67.3813 66.1817 64.6012C61.0658 63.765 55.2653 61.4839 49.0416 59.6612C49.047 60.3225 49.0536 60.984 49.0614 61.6457C53.267 61.5196 56.0454 65.3405 56.204 62.8412C56.9723 63.0555 57.7416 63.2673 58.5014 63.4735C58.3907 63.8811 58.28 64.2887 58.1694 64.6963C59.3225 65.0094 60.4781 65.3167 61.6358 65.6182C61.7423 65.2095 61.8487 64.8008 61.9552 64.3921C62.9107 64.641 63.8676 64.8859 64.8262 65.127C64.8234 65.5605 64.8208 65.9941 64.8187 66.4277C67.8858 66.3354 77.2723 70.841 73.4724 67.407C74.8333 67.7142 76.197 68.014 77.5631 68.3065C77.4939 68.6075 77.4248 68.9086 77.3556 69.2096C77.9355 69.3762 78.5163 69.5416 79.0975 69.7057C78.9606 69.3914 78.8241 69.0771 78.6882 68.7628C81.2949 69.8249 84.112 68.882 85.6925 70.1701C84.4887 70.1538 83.2846 70.1322 82.0803 70.1051C84.3845 70.1665 88.3516 71.7577 88.7246 71.8244C89.8519 72.0354 90.5572 71.5284 91.7841 71.7133C92.8918 71.8807 92.6581 72.3258 92.8668 72.3452C98.9185 72.8794 97.0491 69.9217 99.3538 73.4091C99.7168 73.0414 100.079 72.6731 100.44 72.3045C100.781 72.7122 101.123 73.1196 101.467 73.5265C103.238 73.7645 105.022 73.9933 106.787 74.2089C106.126 74.6457 105.463 75.0812 104.794 75.5145C107.42 76.1308 108.797 75.2505 109.057 75.2625C109.791 75.3003 110.036 75.9991 110.261 76.0303C121.094 77.3511 114.602 75.9446 120.28 74.1163C122.096 75.2988 120.042 76.0524 119.654 77.0049C122.276 76.8312 123.047 77.1903 125.769 77.413C126.478 77.4696 127.29 77.0125 127.736 77.0486C128.122 77.0801 129.275 77.7614 130.204 77.8492C131.749 77.9966 133.835 77.8413 135.95 78.0223C137.708 78.1795 143.067 78.9874 146.829 79.2193C148.433 79.3183 148.089 78.8203 148.503 78.8444C148.675 78.8548 149.892 79.4965 150.921 79.5554C159.312 80.0338 167.981 79.9692 176.385 80.1114C182.289 80.2118 188.415 80.6876 194.351 80.589C195.617 80.567 194.943 80.1553 195.495 80.1351C195.684 80.1291 195.922 80.8576 197.871 80.5396C198.575 80.4244 197.757 79.9257 198.45 79.8908C198.787 79.8736 198.94 80.5124 200.913 80.6256C204.484 80.8302 206.424 79.9268 206.747 79.9453C207.358 79.9795 207.193 80.5127 208.002 80.5112C211.957 80.5024 215.243 80.4844 218.738 80.3971C220.387 80.3741 231.545 79.9679 232.228 79.8215C233.612 79.537 232.257 78.5033 234.044 78.4452C234.559 78.6973 235.074 78.949 235.589 79.2004C234.808 79.4565 234.024 79.7118 233.239 79.9662C235.413 79.4956 237.913 79.8559 239.522 79.7411C239.82 79.7197 242.522 79.0546 243.91 79.0202C243.307 78.8506 242.704 78.6805 242.101 78.5099C242.299 78.3203 242.497 78.1307 242.694 77.941C245.486 78.0357 248.404 77.835 251.21 77.5999C252.22 77.5158 251.851 77.111 252.906 77.0208C259.046 76.4809 257.648 78.379 263.223 74.5725C261.296 75.0386 254.018 75.1604 252.955 75.3431C252.193 75.4771 249.631 78.4985 250.445 75.5243C244.7 75.9285 249.81 77.1954 244.391 77.1989C244.477 76.8374 244.562 76.476 244.647 76.1146C242.747 76.0124 241.338 75.9188 240.222 76.614C239.737 74.9202 233.336 76.3021 229.737 76.3587C224.618 76.4498 218.9 76.2667 213.809 76.3567C212.06 76.3882 211.085 77.0912 210.865 77.0957C210.543 77.1003 209.622 76.5347 208.979 76.5476C206.552 76.6048 199.346 77.7438 197.524 76.1164C211.732 75.9329 225.763 75.3768 240.083 74.5166C238.394 75.4443 252.551 74.6057 253.339 74.4857C254.019 74.4003 253.404 73.8766 253.604 73.8277C255.097 73.4759 256.44 74.199 256.918 74.1631C257.282 74.1356 257.987 73.696 259.276 73.6051C259.512 73.588 259.609 73.9895 259.863 73.971C261.542 73.8406 263.192 73.7033 264.861 73.5691C264.963 73.5569 265.335 72.9289 265.755 72.8932C266.177 72.8585 266.642 73.417 266.749 73.41C268.079 73.2956 270.314 72.7173 271.564 72.6042C271.998 72.5667 271.735 73.0273 272.221 72.9808C273.727 72.8385 273.102 72.0368 275.047 72.0847C275.697 72.101 275.715 72.7552 276.936 72.5584C277.801 72.4186 277.601 71.2683 277.735 71.2137C277.922 71.146 280.992 71.7863 281.889 70.9365C279.582 69.1335 284.195 70.6144 284.059 71.4782C285.209 71.1543 286.353 70.8297 287.492 70.5044C287.908 70.6798 288.324 70.8551 288.739 71.0304C293.293 69.6104 296.143 69.9057 300.872 69.115C301.104 69.0769 304.983 68.1888 304.763 67.9075C302.371 67.6381 300.005 67.8604 298.578 68.9736C295.885 67.4079 295.933 68.8728 292.043 69.0184C290.73 69.0665 290.586 68.5807 290.435 68.5894C285.346 68.8501 276.928 69.4181 273.514 71.1729C272.497 70.8683 276.023 70.3991 274.614 70.2335C273.886 70.168 256.025 71.1586 261.858 72.3634C261.258 72.3645 260.657 72.3652 260.056 72.3655C259.337 70.8369 256.384 71.424 256.839 72.9682C256.531 72.6682 256.224 72.3681 255.916 72.0678C255.335 71.8377 254.661 71.7412 253.722 71.7226C250.182 71.7049 229.344 73.4938 228.12 73.2739C228.078 72.902 228.035 72.5301 227.992 72.1582C237.384 71.2788 246.183 71.6636 256.293 69.8363C256.024 70.2078 255.754 70.5793 255.484 70.9506C259.518 70.1591 263.505 69.3499 267.442 68.5271C263.186 68.2515 256.36 68.252 251.85 69.0927C251.049 69.243 251.675 69.6883 251.494 69.7605C251.029 69.9474 250.472 69.1378 248.778 69.1716C247.089 69.2074 242.857 70.0829 242.461 70.0889C241.702 70.102 239.597 69.2593 238.304 69.3471C236.603 69.4633 237.778 69.996 237.437 70.0286C236.026 70.1694 234.737 69.9431 233.626 70.0476C231.987 70.204 228.556 71.4338 227.361 69.9374C228.502 69.8122 229.716 69.6813 230.889 69.5501C224.46 69.3201 219.695 71.5042 213.344 70.1834C211.861 68.3538 217.039 68.4388 212.643 67.7802C213.438 67.7821 214.232 67.7829 215.025 67.7826C215.224 68.1691 215.424 68.5555 215.623 68.9418C216.979 68.6137 218.332 68.2824 219.68 67.9483C219.306 68.3136 218.931 68.6788 218.556 69.0437C223.414 69.1246 228.202 69.2514 229.869 67.2809C229.993 67.7306 230.117 68.1802 230.241 68.6298C234.765 67.8525 241.623 69.3679 240.208 66.9148C240.429 67.036 240.649 67.157 240.87 67.278C243.545 66.5935 242.454 67.7103 243.478 67.7643C243.776 67.7817 248.968 66.8941 246.601 66.2981C251.652 65.3797 250.223 67.8465 251.659 67.8507C254.941 66.4455 261.035 67.7362 258.384 66.082C258.873 65.9746 259.361 65.867 259.848 65.7591C261.582 67.0863 263.043 65.314 264.735 64.6217C265.321 64.5405 265.906 64.459 266.49 64.3771C266.924 64.8334 267.357 65.2894 267.791 65.7452C273.096 62.9487 271.872 69.4614 273.948 63.8921C273.51 63.6087 273.089 63.3237 272.675 63.0379C271.742 62.9669 270.806 62.8952 269.869 62.8228C273.5 62.3683 277.477 61.8678 281.243 61.3715C285.923 59.419 288.798 60.7781 293.887 59.0686C294.375 59.1628 294.921 59.2509 295.445 59.3409C294.797 58.1852 292.828 58.5661 296.477 57.645C296.723 56.7563 294.136 56.9094 293.175 57.6685C292.93 57.8549 295.218 58.2851 292.722 58.5606C291.018 58.7479 294.023 57.4116 288.933 58.3018C289.103 58.074 289.273 57.8462 289.443 57.6185C288.887 57.6797 288.329 57.7407 287.771 57.8016C287.321 58.3339 286.87 58.866 286.418 59.3981C285.064 58.8241 284.255 57.9161 281.312 58.4041C282.145 58.6311 281.148 59.7058 279.671 59.8266C279.639 59.4765 279.606 59.1265 279.573 58.7765C275.978 58.8815 277.307 59.7953 274.24 59.263C273.965 59.5683 273.689 59.8735 273.413 60.1787C271.72 59.1761 265.863 58.8881 267.062 60.5184C265.287 58.9849 261.895 60.0208 260.703 61.4602C260.576 61.12 260.449 60.7799 260.323 60.4397C259.628 60.4234 258.933 60.4067 258.237 60.3894C257.867 60.6298 257.498 60.8699 257.127 61.1099C256.62 60.9368 256.113 60.7634 255.605 60.5897C255.334 60.9613 255.063 61.3328 254.792 61.7043C253.968 61.3444 253.144 60.9837 252.319 60.6222C251.853 60.9361 251.386 61.2498 250.918 61.5631C250.813 60.8401 246.134 61.0004 244.845 61.5624C244.44 61.376 244.035 61.1895 243.629 61.0028C243.46 61.3622 243.29 61.7217 243.121 62.0811C242.811 61.822 242.501 61.5628 242.191 61.3034C241.535 61.6236 240.877 61.9432 240.218 62.2622C237.358 60.7267 237.356 62.2229 236.723 62.2494C235.551 62.2996 231.489 61.4504 230.819 61.538C230.152 61.6279 229.858 62.2556 229.319 62.3403C220.548 63.7238 224.113 61.9003 222.336 61.7222C221.381 61.6212 220.732 62.2194 219.888 62.1898C218.45 62.15 211.133 61.6415 210.711 61.7206C210.101 61.845 211.625 64.4954 209.608 63.8588C209.503 62.4176 205.268 63.9848 207.214 61.9186C205.459 62.1399 203.703 62.3554 201.981 62.5646C202.145 60.847 200.031 61.9909 197.695 61.9263C194.388 61.8484 186.919 60.7386 187.189 62.4907C186.392 62.086 185.597 61.6801 184.803 61.2727C179.319 61.8032 174.075 61.1412 168.696 60.9704C152.715 60.4713 135.523 59.7117 119.792 58.1987C119.037 58.127 119.077 58.71 118.533 58.6577C115.664 58.3912 108.36 57.0113 104.357 56.5126C103.079 56.3581 102.373 56.8132 101.966 56.7751C100.582 56.6474 101.022 55.9692 100.39 55.8887C99.3916 55.7697 94.0397 55.5531 92.2306 55.2854C91.3336 55.1578 90.3906 54.3857 89.3196 54.3659C89.2276 54.3633 89.2794 54.9886 89.2017 54.9846C87.294 54.6939 88.5322 54.3993 87.8871 54.3026C83.3113 53.6142 78.3831 52.5793 73.457 51.5436C72.2312 51.288 70.2698 51.2498 69.218 51.0282C68.8176 50.9427 69.6398 50.6766 68.2602 50.3691C67.788 50.2632 67.4807 50.8006 66.9411 50.7025C64.6145 50.2716 64.3542 48.2179 62.0068 49.1785C58.2385 48.0637 51.8476 45.6455 48.4879 44.5325C47.6901 44.273 47.1923 44.481 46.4346 44.2246C45.8965 44.0427 45.1235 43.2098 44.2913 42.92C43.4589 42.6308 41.9717 42.6707 40.3803 42.0855C38.7076 41.474 36.7039 40.4035 36.3288 40.2642C35.8713 40.0935 35.427 40.6279 34.9719 40.4471C33.5889 39.9094 30.1477 37.8687 28.4305 37.0813C26.5788 36.2419 25.3363 36.056 24.7004 35.7779C24.1128 35.5173 23.647 34.7117 23.3813 34.5905C22.9681 34.401 22.6099 34.9511 22.0822 34.7128C21.2212 34.3213 20.4981 33.5539 19.2186 32.9577C-3.9448 22.1662 -24.9128 8.50814 -42.4981 -8.6381C-44.4468 -10.5492 -45.1931 -11.9604 -48.062 -14.8099C-49.2212 -15.9732 -49.2588 -15.014 -50.0149 -16.0582C-50.3502 -16.5258 -49.86 -16.7631 -50.3154 -17.324C-52.3502 -19.8179 -55.0241 -22.3378 -55.8595 -23.4099C-56.1932 -23.8344 -56.1074 -24.6859 -56.7776 -25.5639C-61.7752 -32.0728 -67.5422 -40.381 -71.7654 -48.0785C-74.0463 -52.1476 -77.2322 -58.9834 -79.3832 -63.8263C-85.5369 -77.3717 -90.8092 -92.9046 -94.0435 -106.606C-98.9037 -126.96 -100.982 -147.977 -102.584 -169.327C-100.69 -158.926 -99.8018 -146.732 -97.9969 -135.18C-93.31 -104.406 -84.2869 -71.2601 -67.7566 -44.2841C-62.0948 -34.8474 -53.9897 -23.7405 -45.4779 -15.0509C-45.099 -14.6598 -44.6676 -13.5174 -43.8212 -12.6958C-43.6421 -12.5148 -40.8956 -10.8714 -40.1573 -10.152C-41.9095 -9.7974 -38.0906 -7.8557 -37.2096 -6.97964C-36.1245 -5.87143 -34.1694 -3.00294 -31.0672 -0.856052C-28.2497 1.08199 -28.5847 0.0199819 -28.4205 0.118241C-27.36 0.712671 -27.6318 1.68598 -26.9827 2.34444C-24.4878 5.21332 -8.4311 16.1077 -3.63555 18.6823C-2.43266 19.4032 -2.0954 18.9175 -1.82441 19.0781C-1.1073 19.5025 -0.376147 20.608 0.785723 21.2734C2.88102 22.4761 5.58801 23.3308 6.75972 23.9558C9.54917 25.4676 14.6645 28.7897 18.4635 30.5527C19.5295 31.0518 19.7163 30.4642 20.1951 30.6862C22.2858 31.6746 27.5763 34.747 30.29 35.8295C34.6647 37.6099 39.428 38.964 43.8811 40.7057C44.2578 40.5474 44.634 40.3883 45.0095 40.2286C45.3717 40.6535 45.7358 41.0778 46.102 41.5015C53.8768 43.8768 61.8082 46.7991 69.7162 48.7257C70.6286 48.9576 75.29 49.5358 76.0523 49.7003C76.6837 49.8452 77.1576 50.6449 78.1207 50.7582C79.4693 50.9158 78.5052 49.3905 80.5781 50.2186C81.1365 50.4406 80.4575 50.8575 81.5885 51.2746C81.9658 51.4331 89.399 53.1566 89.8123 53.1773C90.4963 53.242 91.3114 52.196 91.4887 52.2032C92.412 52.2393 92.2103 53.1206 92.8011 53.3124C94.5442 53.8825 96.9922 53.6873 97.2807 53.7491C100.761 54.5253 107.314 56.2619 111.092 56.3361C111.615 56.3476 111.644 55.6721 111.737 55.6628C112.338 55.6036 112.599 56.4115 113.152 56.5027C116.132 56.9894 120.893 57.0428 123.93 57.2371C124.28 57.261 124.976 57.7068 125.602 57.7368C129.144 57.8962 128.061 57.1854 128.263 57.182C128.743 57.1668 129.513 57.8993 130.774 58.0597C134.019 58.4849 140.283 58.9081 143.791 59.0941C146.418 59.2355 146.427 58.4825 146.6 58.48C146.969 58.4768 147.953 59.1394 149.679 59.31C152.999 59.6367 152.652 59.024 154.017 59.1225C154.132 59.1282 153.902 59.6928 155.418 59.828C158.353 60.0966 165.001 59.7923 168.148 59.9034C169.359 59.9484 169.628 60.5096 170.87 60.5512C172.84 60.6231 177.287 60.1007 177.635 60.1043C177.732 60.1057 177.943 60.7461 178.52 60.7537C179.154 60.762 179.781 60.4412 180.253 60.4483C182.97 60.4905 187.645 61.6101 186.35 59.3329C187.217 59.8961 188.085 60.4577 188.955 61.0178C194.643 60.8959 200.101 61.0486 205.74 61.0313C207.017 61.0267 208.071 60.5685 209.146 60.5599C210.222 60.555 214.974 61.1169 215.762 61.0991C217.178 61.0822 225.139 60.8263 226.114 60.7211C228.008 60.5355 229.912 59.4978 230.71 59.6405C231.358 59.7549 230.794 60.315 232.023 60.4005C234.155 60.5494 237.69 59.664 238.329 59.6354C238.602 59.623 238.117 60.0677 240.677 59.9411C242.055 59.873 242.763 59.3718 243.261 59.3421C243.415 59.334 243.234 60.0873 245.937 59.8096C247.802 59.6153 248.554 58.9918 248.75 58.9764C249.046 58.9521 249.78 59.5101 250.976 59.4041C253.821 59.1515 258.918 58.0664 261.558 57.7994C262.069 57.7475 261.957 58.4937 263.99 58.2601C265.442 58.092 265.138 57.5311 265.68 57.4627C266.538 57.3551 267.882 57.9598 269.769 57.7738C272.051 57.5773 290.203 55.1176 290.95 54.8262C291.55 54.6367 292.257 54.5574 292.527 54.2115C292.238 53.9352 291.948 53.6588 291.659 53.3824C289.074 54.7131 290.037 53.3912 289.314 53.3846C288.269 53.3769 284.339 53.9161 283.347 53.7379C282.995 53.6733 283.719 52.953 281.845 52.7958C279.833 52.6279 279.051 53.8599 278.112 52.362C275.44 54.3685 272.525 52.7612 275.78 51.969C277.761 51.5346 294.972 49.2282 298.903 48.6984C301.889 48.3101 307.444 48.19 310.957 47.6856C312.902 47.4029 318.436 46.7113 318.077 45.9063C319.996 45.5878 318.045 46.6439 318.463 46.7147C319.355 46.8609 325.234 45.627 326.323 45.5283C331.547 45.0567 339.19 45.1472 344.317 43.5288C344.045 43.3323 343.773 43.1359 343.5 42.9396C342.278 42.6561 336.647 43.8683 335.854 42.8725C344.214 41.9484 352.463 41.0466 360.862 40.2492C360.596 41.1769 371.429 40.2144 371.911 39.7908C371.689 39.362 371.466 38.9334 371.242 38.5049C365.244 40.6742 365.334 38.4489 361.711 39.967C360.149 40.1306 360.55 39.3558 359.76 39.2911C351.758 38.6835 359.832 40.7898 353.655 40.7505C355.445 39.497 350.193 39.6425 348.029 39.739C347.576 39.7546 341.212 40.7133 340.406 40.7867C335.99 41.1736 328.379 41.4371 324.294 42.4787C320.946 42.9216 318.983 42.3764 315.83 42.5473C313.428 42.6776 314.168 43.1323 313.039 43.2627C310.814 43.5209 309.91 41.9864 308.717 44.3924C307.166 44.2766 305.604 44.1608 304.031 44.0447C304.068 44.3943 304.106 44.7439 304.143 45.0934C303.174 45.1967 302.2 45.2999 301.222 45.4029C300.898 45.0848 300.573 44.7667 300.248 44.4485C297.182 45.2519 298.568 45.9576 298.088 47.0086C297.418 47.1469 296.746 47.2852 296.072 47.4233C295.466 46.7174 294.86 46.0114 294.254 45.3053C291.231 45.6766 288.428 46.0193 285.467 46.3703C285.31 46.7375 285.154 47.1047 284.997 47.4719C284.957 47.1239 284.917 46.7757 284.877 46.4277C279.913 46.8373 274.679 47.2489 269.734 47.6061C268.322 47.1686 276.365 46.0279 276.996 45.9299C280.431 45.4343 289.401 45.1224 289.27 43.8761C291.336 44.6097 297.85 43.7097 299.713 42.3875C296.733 42.7676 293.489 43.1685 290.658 43.5201C290.711 43.094 290.763 42.6679 290.816 42.2418C287.331 44.2876 286.778 44.2493 282.813 43.0287C282.863 43.588 282.913 44.1473 282.963 44.7066C280.121 43.0201 275.652 46.7577 275.291 44.3688C273.877 44.6937 272.398 45.0221 271.03 45.3387C267.981 45.3029 272.567 43.0754 260.727 44.7802C259.906 44.8967 260.127 45.4953 258.881 45.5513C258.519 45.5662 256.404 44.8408 252.448 45.2248C251.831 45.2849 251.822 45.8197 251.183 45.9336C249.669 46.2049 246.776 45.3481 248.187 46.9716C242.497 47.8613 244.772 46.2915 242.957 45.8503C241.746 45.5557 242.049 46.5542 241.004 46.3892C239.708 46.1818 240.593 45.1102 235.491 45.8801C236.071 45.9165 236.651 45.9525 237.231 45.988C236.958 46.2829 236.684 46.5777 236.41 46.8724C233.439 46.3746 233.767 47.331 232.296 45.8453C230.208 46.6562 228.292 46.8112 225.429 46.8187C219.83 46.8218 222.64 45.0205 216.322 47.5356C215.27 47.2551 214.218 46.9729 213.167 46.6886C211.476 47.4132 212.89 48.2085 210.332 48.4549C212.289 46.7426 206.898 47.5023 205.946 46.0446C205.859 46.3984 205.771 46.7522 205.683 47.1059C205.11 47.1195 204.536 47.1325 203.962 47.1449C203.954 46.863 203.946 46.5812 203.939 46.2993C203.19 46.5267 202.446 46.7529 201.697 46.9781C201.127 46.7092 200.557 46.4397 199.987 46.1695C199.068 46.7744 198.146 47.3776 197.221 47.9791C196.636 48.027 196.051 48.0741 195.465 48.1206C195.646 47.6987 195.827 47.2768 196.007 46.8548C195.257 47.0037 194.506 47.1514 193.754 47.298C194.624 46.6008 194.067 45.801 191.727 45.8362C189.795 45.861 191.98 47.296 187.815 46.7041C187.525 46.6595 187.011 45.643 183.081 45.4617C178.363 45.2325 180.653 45.9924 179.814 46.0107C179.65 46.0131 178.229 45.4803 176.895 45.3848C176.137 45.3307 175.4 45.7341 175.299 45.7311C174.831 45.7035 174.706 45.1115 174.059 45.0773C172.415 44.994 170.198 45.2286 168.586 45.1521C167.853 45.1184 167.175 44.7478 166.848 44.7332C166.341 44.7132 165.68 45.2252 165.167 45.2054C163.269 45.1309 160.475 43.2454 159.489 45.6619C157.766 43.3274 153.845 45.8627 154.199 44.3613C149.312 44.7224 136.631 41.8836 136.799 44.4251C134.265 42.0193 134.375 43.6084 133.237 43.4718C131.967 43.3171 132.667 42.9584 131.654 42.881C129.292 42.6984 127.023 42.6465 124.685 42.396C125.013 42.7837 125.343 43.171 125.673 43.558C123.201 43.3987 124.136 42.6869 121.655 42.2419C117.1 41.4088 118.956 42.2796 118.165 43.1063C118.452 42.2591 113.04 41.6918 112.479 41.7224C112.142 41.7457 113.418 43.0792 110.17 42.2474C110.402 41.9267 110.63 41.6055 110.86 41.2843C109.286 41.5503 105.295 40.3292 104.592 40.3324C104.271 40.3377 102.116 42.856 100.932 40.3906C100.688 40.7049 100.443 41.0191 100.198 41.333C98.5473 40.6276 96.9074 39.9124 95.279 39.1874C94.8937 39.7586 94.5073 40.3293 94.1196 40.8995C93.5767 40.7992 93.0345 40.6979 92.4928 40.5954C92.9565 40.1129 93.4186 39.6296 93.8796 39.1455C90.4917 38.7786 86.6368 37.0834 85.5546 38.7843C84.9116 38.2917 84.272 37.7976 83.6355 37.3019C83.0407 37.8166 82.4438 38.33 81.8449 38.8419C78.5837 37.9549 78.6254 37.5259 76.5488 36.3496C76.5224 36.8477 76.4963 37.3458 76.4708 37.844C74.9762 36.7846 72.1419 35.4291 69.8241 34.734C68.7208 34.4077 66.6411 34.5493 66.3954 34.4178C66.1478 34.2868 64.2535 31.0051 63.3495 33.1366C59.7986 31.0679 57.851 31.5476 56.3181 31.0502C55.3268 30.7245 55.0392 30.0558 53.94 29.6449C52.3673 29.0556 50.6864 28.7783 49.7849 28.4337C49.2696 28.2351 49.3457 27.6921 48.9926 27.5538C47.326 26.8941 48.1368 27.758 46.3669 27.1004C46.2025 27.0358 45.1313 25.9627 43.6319 25.5039C42.7959 25.2511 40.4243 25.1497 40.239 25.075C39.418 24.7455 40.6071 23.6322 37.186 24.1238C37.3704 23.8948 37.5544 23.6655 37.7383 23.4362C34.5562 21.4094 33.5606 22.3281 32.8316 22.1231C32.7403 22.093 32.0976 21.2991 31.578 21.1502C30.6988 20.9002 30.1009 21.3625 29.9042 21.3096C29.21 21.1226 27.1479 19.8988 25.4696 19.834C26.5388 18.2631 21.9193 15.3687 19.9079 16.7389C19.2268 15.936 18.5546 15.1306 17.8916 14.3226C17.3467 14.4407 16.8008 14.5567 16.2539 14.6709C16.1792 14.2385 16.1059 13.8064 16.0342 13.3745C14.4441 13.4187 12.8494 13.4451 11.2503 13.4533C11.5412 12.7319 11.833 12.011 12.1258 11.2905C11.7432 11.1818 11.3611 11.0721 10.9791 10.9613C10.4169 11.3521 9.85282 11.7409 9.28685 12.128C8.91737 11.7873 8.54965 11.4456 8.18385 11.103C8.2985 10.6571 8.41378 10.2114 8.52993 9.76614C6.54948 8.02712 5.50995 12.3652 3.17825 6.60244C2.33905 6.49928 1.49935 6.39054 0.658967 6.27596C0.829992 4.37072 -1.08855 4.37058 -2.08155 3.48767C-2.77809 2.86668 -2.36274 2.33125 -3.39299 1.62217C-4.42156 0.910383 -4.7481 1.46774 -4.83161 1.4167C-5.69962 0.871811 -6.00514 -0.0370273 -6.68182 -0.373488C-6.78339 -0.424719 -7.4585 0.0431556 -8.26664 -0.47328C-9.07419 -0.991752 -9.06176 -1.98962 -10.2943 -2.7066C-10.9246 -3.07569 -11.4781 -2.68034 -12.0283 -3.02189C-14.6751 -4.66218 -14.989 -9.11452 -19.232 -7.57872C-19.3321 -8.29094 -21.0716 -12.0303 -22.3184 -13.021C-24.2797 -14.5619 -24.0762 -13.3594 -24.9075 -13.9247C-25.0239 -14.0052 -25.4295 -14.7129 -26.9731 -16.1077C-27.2475 -16.3563 -26.888 -16.6098 -26.9225 -16.6504C-28.6789 -18.2887 -32.2306 -21.3716 -34.0931 -23.2931C-34.264 -23.4683 -34.2268 -25.176 -36.8469 -25.6738C-38.0714 -28.7945 -43.859 -31.6982 -44.9201 -36.0822C-45.2361 -36.5571 -45.9971 -36.8517 -46.1379 -37.0638C-47.3386 -38.9136 -45.8166 -38.97 -50.2525 -41.9514C-49.4745 -42.0006 -49.6519 -43.2959 -50.618 -44.638C-52.0669 -46.6685 -52.1188 -44.5033 -53.1449 -46.2499C-52.8514 -46.4411 -52.5579 -46.6324 -52.2643 -46.8236C-55.5472 -50.1867 -54.6909 -51.6601 -56.972 -55.5963C-57.7861 -57.0091 -59.6428 -58.7791 -59.8332 -59.1318C-59.9068 -59.2675 -60.0205 -61.2724 -60.0936 -61.4297C-60.5277 -62.3094 -61.129 -62.6247 -61.52 -63.3847C-62.82 -65.896 -63.2836 -69.4618 -64.8131 -68.03C-64.7529 -68.8866 -64.6878 -69.743 -64.6179 -70.5993C-67.7448 -72.301 -65.9042 -75.4782 -68.0418 -75.2152C-67.8519 -75.8597 -67.6593 -76.5031 -67.4641 -77.1456C-72.5506 -88.8399 -76.3986 -100.39 -79.6159 -113.294C-79.1175 -114.027 -80.5192 -119.375 -80.6587 -119.608C-81.3749 -120.778 -82.5313 -119.144 -82.7223 -121.815C-82.1547 -122.226 -81.5864 -122.636 -81.0173 -123.044C-81.4359 -126.366 -81.7575 -124.672 -82.4226 -125.902C-82.4444 -126.464 -81.9271 -126.374 -82.0238 -127.124C-82.5689 -131.16 -83.8152 -139.71 -84.3064 -144.478C-84.4112 -145.444 -84.8473 -145.207 -84.8813 -145.492C-84.9633 -146.242 -84.5511 -147.789 -84.707 -149.312C-85.7204 -158.493 -86.8529 -173.379 -87.3966 -182.974C-87.438 -183.633 -87.9888 -183.71 -88.0205 -184.157C-88.0625 -184.777 -87.626 -186.17 -87.6737 -186.827C-87.7176 -187.446 -88.1359 -187.843 -88.1841 -188.509C-88.4117 -191.559 -87.6546 -195.701 -88.8005 -199.101C-88.9011 -199.378 -91.0116 -203.003 -91.1507 -203.097C-91.9943 -203.61 -93.4646 -200.428 -94.5368 -205.763C-95.7996 -201.082 -97.7223 -202.563 -98.4118 -208.852C-98.7956 -205.722 -99.1484 -202.625 -99.4708 -199.56C-99.7015 -199.562 -99.9322 -199.563 -100.163 -199.564C-101.234 -202.396 -101.53 -205.217 -101.439 -209.598C-101.659 -209.471 -101.878 -209.344 -102.098 -209.217C-103.34 -205.388 -103.679 -200.796 -105.193 -197.952C-106.18 -202.2 -107.109 -206.544 -107.977 -210.983C-108.156 -210.772 -108.334 -210.561 -108.513 -210.349C-109.053 -208.261 -109.479 -203.722 -109.932 -202.025C-111.675 -195.515 -110.919 -207.813 -111.919 -205.836C-112.145 -198.827 -112.218 -191.991 -112.144 -185.326C-113.012 -184.865 -114.374 -211.45 -116.319 -211.504C-116.567 -209.26 -116.801 -207.032 -117.02 -204.818C-117.521 -205.825 -118.019 -206.839 -118.514 -207.859C-118.695 -207.591 -118.875 -207.323 -119.055 -207.055C-119.618 -203.294 -120.138 -199.572 -120.615 -195.887C-119.989 -207.128 -119.936 -212.618 -124.011 -215.662C-124.136 -215.348 -124.26 -215.033 -124.385 -214.719C-121.914 -211.99 -123.245 -200.211 -123.809 -194.138C-124.575 -195.387 -123.863 -200.813 -124.287 -201.993C-124.41 -202.325 -124.979 -201.194 -125.233 -201.964C-125.912 -203.948 -126.466 -212.63 -127.387 -211.423C-128.031 -210.594 -129.256 -196.796 -129.177 -194.207C-130.109 -200.411 -130.195 -206.939 -131.096 -213.489C-133.003 -209.488 -135.273 -205.921 -135.533 -198.597C-136.523 -196.331 -137.272 -212.052 -137.684 -212.517C-138.342 -209.776 -138.978 -207.049 -139.592 -204.336C-139.377 -206.641 -139.146 -208.959 -138.9 -211.292C-139.075 -211.307 -139.25 -211.322 -139.426 -211.336C-140.512 -205.317 -142.178 -199.869 -142.15 -193.131C-143.081 -193.354 -142.934 -197.398 -142.893 -199.384ZM326.592 40.0782C326.634 39.2977 324.354 39.6791 323.045 39.8396C323.226 39.6782 323.406 39.5169 323.587 39.3555C320.835 39.8093 315.555 40.6905 315.185 39.2252C313.114 39.2658 314.162 40.4597 313.515 40.6797C313.201 40.7738 310.638 40.2926 308.697 41.4295C308.213 41.4782 307.728 41.5269 307.242 41.5756C307.096 41.0978 306.949 40.6201 306.802 40.1423C306.189 40.8075 305.573 41.4727 304.954 42.1379C311.891 41.5023 319.503 40.7632 326.582 40.0794C326.585 40.079 326.589 40.0786 326.592 40.0782ZM255.143 46.4602C252.55 46.9358 248.547 47.6557 249.278 46.2566C250.915 46.2124 252.602 46.1609 254.256 46.1082C254.552 46.2256 254.847 46.343 255.143 46.4602ZM10.8929 14.6886C8.51565 14.9009 7.46418 13.0144 4.71164 11.6828C4.85638 11.4436 5.0012 11.2045 5.14594 10.9653C5.87887 12.1786 8.9697 13.4293 10.8929 14.6886ZM395.964 39.8425C396.591 39.7668 397.215 39.6968 397.838 39.6331C395.398 37.9862 394.882 39.024 391.931 38.8337C391.752 38.8229 391.817 38.4795 391.754 38.4769C390.937 38.4471 390.553 38.8618 389.992 38.8569C388.973 38.8494 388.138 38.4344 386.27 38.4942C384.82 38.5455 384.821 39.2092 384.307 39.2091C384.025 39.1913 378.915 37.602 376.743 38.5373C374.477 39.442 377.964 39.6162 383.523 39.6431C386.134 39.6666 388.834 39.6915 390.941 39.7343C393.489 39.7738 395.519 39.8569 395.964 39.8425ZM422.799 47.442C421.241 46.0194 419.662 44.904 418.146 44.0025C420.188 45.8984 418.833 45.1619 416.331 43.921C413.325 42.4972 411.584 41.9331 409.555 41.3368C409.586 41.8776 411.137 42.3097 414.34 43.7513C418.206 45.3511 423.787 49.5851 426.12 54.0312C425.302 51.6231 424.12 49.3888 422.799 47.442ZM347.524 43.711C349.309 43.6208 348.881 42.4464 348.771 42.0945C348.209 42.154 347.645 42.214 347.077 42.2745C347.226 42.7533 347.376 43.2321 347.524 43.711ZM361.669 42.7038C361.041 41.9327 357.006 41.9599 355.026 42.0946C354.94 42.1032 355.526 42.4982 354.134 42.5974C353.731 42.6234 349.38 41.4211 350.492 43.1837C354.354 42.9916 358.081 42.8287 361.664 42.7043C361.665 42.7041 361.667 42.7039 361.669 42.7038ZM365.637 41.8533C364.725 41.6739 364.073 41.4729 363.293 41.2843C362.949 41.7043 362.605 42.1248 362.259 42.5456C363.108 42.5646 363.95 42.5857 364.783 42.6092C365.014 42.3618 365.352 42.1051 365.637 41.8533ZM-90.6392 -118.536C-90.2018 -118.461 -89.7646 -118.387 -89.3274 -118.314C-88.9605 -117.761 -90.1035 -114.471 -90.6405 -115.321C-90.6453 -116.388 -90.6448 -117.46 -90.6392 -118.536ZM-93.7825 -131.192C-94.0899 -131.807 -94.3957 -132.426 -94.7001 -133.048C-94.1184 -133.903 -93.5337 -134.757 -92.946 -135.608C-92.0154 -132.401 -90.9183 -129.113 -93.0504 -129.324C-92.9308 -128.59 -92.809 -127.859 -92.685 -127.132C-91.9447 -127.89 -91.6558 -127.844 -90.7923 -126.051C-91.893 -125.433 -90.9528 -123.585 -90.7884 -121.342C-91.1632 -122.927 -91.527 -124.528 -91.8796 -126.146C-92.0864 -126.11 -92.2932 -126.074 -92.5001 -126.038C-91.7802 -122.421 -93.9055 -126.692 -93.468 -129.245C-93.7748 -129.39 -94.0814 -129.535 -94.3881 -129.681C-94.1873 -130.185 -93.9854 -130.689 -93.7825 -131.192ZM76.8305 46.1405C76.3291 46.2419 75.8274 46.3423 75.3253 46.4416C74.197 43.3499 77.1806 46.7406 80.2112 45.1754C79.007 46.6061 82.9307 47.39 83.135 47.541C82.5689 47.9904 82.0012 48.4386 81.4317 48.8855C79.8847 47.9799 78.3507 47.0648 76.8305 46.1405ZM63.5872 44.7811C65.5048 43.8919 57.8825 41.7025 55.273 41.1969C54.6353 41.0823 53.3156 41.4647 52.8991 41.2352C52.7122 40.8857 52.5264 40.5361 52.3414 40.1863C51.7294 41.0123 47.1451 38.3988 45.4199 37.246C45.1268 37.5159 44.8332 37.7855 44.539 38.0546C43.8875 37.6829 43.2386 37.309 42.5925 36.9329C42.5632 37.2929 42.5342 37.6529 42.5056 38.013C42.1189 37.4314 41.7355 36.8493 41.3553 36.2666C39.4468 35.0797 40.0697 37.331 38.7198 36.2028C37.228 34.9467 40.44 34.9279 40.6378 34.2115C41.973 34.9066 44.9691 36.4122 46.39 36.9112C47.2061 37.1954 46.6856 35.6424 49.7417 38.2447C50.6274 38.1606 51.5122 38.0725 52.396 37.9806C53.653 38.968 54.9243 39.9481 56.2098 40.9206C56.6201 40.5325 57.0293 40.1437 57.4375 39.7542C57.6077 39.73 60.6503 41.7682 60.3753 42.068C62.0017 41.5588 64.8284 42.1741 67.7851 42.8914C68.0019 43.2226 68.2197 43.5537 68.4383 43.8846C65.7246 42.5876 67.4579 43.9216 66.4762 44.192C65.9094 44.3479 64.2554 44.5036 63.5872 44.7811ZM-86.8664 -98.3633C-87.0263 -103.407 -87.1849 -100.187 -88.5367 -105.386C-87.8312 -105.176 -87.1258 -104.97 -86.4204 -104.767C-86.89 -101.922 -84.9879 -98.0317 -86.865 -98.3585C-86.8655 -98.3601 -86.8659 -98.3617 -86.8664 -98.3633ZM-94.258 -150.088C-94.363 -147.307 -95.4881 -148.575 -95.4232 -145.083C-95.423 -145.081 -95.4229 -145.079 -95.4226 -145.078C-95.6928 -146.852 -95.9506 -148.644 -96.1956 -150.454C-95.5497 -150.331 -94.9039 -150.209 -94.258 -150.088ZM-29.9106 -6.33481C-27.7758 -4.79618 -28.4808 -4.76367 -26.0469 -3.9602C-24.1312 -0.770432 -26.2962 -2.82567 -27.0014 -2.00624C-27.4152 -2.7755 -27.8225 -3.54632 -28.2234 -4.31869C-30.3698 -4.85822 -29.305 -3.24233 -29.3661 -3.16777C-29.3673 -3.16886 -29.3686 -3.16998 -29.3699 -3.17107C-29.5837 -2.92693 -29.5807 -2.83177 -30.2828 -3.18864C-30.1669 -4.24065 -30.0429 -5.28944 -29.9106 -6.33481ZM-22.1981 1.94303C-22.4561 0.815619 -22.1886 -0.142106 -20.0643 0.950859C-20.063 0.951872 -20.0617 0.952884 -20.0605 0.953897C-20.9061 2.33556 -18.324 2.70209 -17.5715 3.40174C-17.4621 3.70352 -17.3516 4.00537 -17.2402 4.30718C-18.8994 3.54592 -20.5522 2.75817 -22.1981 1.94303ZM10.7151 24.8388C11.5322 23.2635 9.83008 22.1968 13.0903 22.0365C13.5638 22.3141 14.0388 22.5902 14.515 22.8648C14.6625 23.3744 14.812 23.8842 14.9638 24.3941C22.66 24.5373 22.1617 30.4533 12.4187 23.3507C12.4179 23.3488 12.4168 23.3469 12.416 23.3451C11.8509 23.8446 11.284 24.3425 10.7151 24.8388ZM-0.0537706 18.7281C0.342215 17.8804 0.739329 17.0333 1.13743 16.1867C-1.33334 17.3341 -1.92629 14.4847 -5.30845 14.2186C-5.38724 13.8333 -5.46466 13.4481 -5.54086 13.0631C-6.86625 13.0509 -16.0585 6.91341 -13.2516 7.09922C-12.0492 7.19183 -10.6811 9.17234 -10.5056 9.26631C-9.92058 9.58172 -8.76236 9.40185 -7.86541 10.0548C-7.3487 10.4329 -6.73323 11.9657 -5.62145 12.6766C-3.12634 14.2885 2.72224 14.8886 4.91496 18.846C5.29616 18.7382 5.67683 18.6295 6.05675 18.5198C8.48634 20.0569 7.2274 20.3837 10.0906 20.711C9.61521 25.5405 0.758393 15.3012 1.299 19.6921C1.2975 19.6913 1.29606 19.6904 1.29465 19.6896C0.843876 19.3708 0.395529 19.051 -0.0537706 18.7281ZM-57.268 -35.0862C-58.023 -34.7644 -58.9223 -38.2171 -60.0428 -36.4928C-60.1197 -37.7766 -60.1836 -39.059 -60.2349 -40.3401C-60.0825 -40.4307 -59.9302 -40.5212 -59.7779 -40.6117C-59.2949 -39.6274 -58.8044 -38.6494 -58.3067 -37.6778C-58.0728 -37.8331 -57.8389 -37.9885 -57.6051 -38.144C-57.5557 -36.213 -53.2537 -31.0791 -52.5727 -31.8692C-52.6961 -31.3353 -52.8174 -30.8004 -52.9366 -30.2644C-50.101 -28.4409 -49.4139 -25.6362 -46.2885 -23.6721C-46.3789 -23.2411 -46.4678 -22.8093 -46.5554 -22.3769C-46.2272 -22.4255 -45.8994 -22.4748 -45.572 -22.5251C-44.7163 -21.587 -43.8528 -20.6607 -42.9816 -19.7461C-41.0454 -15.9173 -47.5334 -20.9178 -48.0343 -21.8302C-48.1015 -21.9455 -47.5362 -22.4005 -47.9763 -23.0986C-48.804 -24.323 -54.2931 -30.0561 -55.3617 -32.4015C-55.7628 -32.133 -56.164 -31.8647 -56.5652 -31.5965C-56.8106 -32.7586 -57.0448 -33.9218 -57.268 -35.0862ZM25.7376 29.8568C26.1029 29.4805 26.4672 29.1035 26.8308 28.7259C29.5582 30.435 31.5992 30.789 30.2208 31.9814C30.2193 31.9807 30.2177 31.9801 30.2161 31.9794C28.7126 31.285 27.2196 30.5775 25.7376 29.8568ZM268.485 53.2089C268.481 54.1882 266.92 54.6887 264.789 54.1634C264.866 53.8729 264.942 53.5824 265.018 53.2919C266.165 54.0296 267.394 52.4763 270.703 52.3811C270.746 52.87 270.789 53.3588 270.831 53.8477C270.05 53.6353 269.268 53.4224 268.485 53.2089ZM23.1303 28.9395C21.9983 29.0709 20.2595 26.3384 21.9198 27.0052C23.1858 27.512 23.7332 28.8679 23.1303 28.9395ZM-96.1078 -161.045C-95.9562 -160.312 -95.8026 -159.583 -95.6471 -158.858C-96.0357 -158.445 -96.4237 -158.032 -96.811 -157.619C-96.8111 -157.621 -96.8112 -157.622 -96.8113 -157.624C-96.5817 -158.761 -96.3472 -159.901 -96.1078 -161.045ZM-36.3176 -12.5063C-34.6759 -10.7888 -33.0322 -9.13324 -31.2911 -7.45134C-31.4576 -7.23465 -31.624 -7.01791 -31.7903 -6.80107C-32.8968 -9.16879 -34.2997 -9.04265 -34.752 -9.38207C-34.7503 -9.38038 -34.7485 -9.37871 -34.7467 -9.37699C-36.1838 -10.4554 -37.5078 -11.5399 -38.9329 -12.5224C-38.0586 -12.5099 -37.1868 -12.5046 -36.3176 -12.5063ZM-43.228 -17.219C-41.5292 -18.2223 -41.0473 -17.9836 -39.4842 -14.4033C-39.7555 -14.3432 -40.027 -14.2836 -40.2988 -14.2246C-41.5202 -15.7 -41.9493 -16.8241 -42.4549 -15.8932C-42.7145 -16.3341 -42.9722 -16.776 -43.228 -17.219ZM-14.6943 7.22846C-15.421 7.47053 -17.9016 4.87364 -17.5532 4.74075C-17.4294 4.69678 -13.2959 6.7666 -14.6943 7.22846ZM297.315 50.8917C296.437 51.1236 295.556 51.3553 294.671 51.5867C295.888 51.6723 297.1 51.7573 298.306 51.842C297.976 51.5253 297.646 51.2085 297.315 50.8917ZM307.266 52.5928C307.856 52.2827 305.673 50.7791 309.304 49.9387C306.63 50.191 303.922 50.4437 301.18 50.695C302.493 50.8381 303.799 50.9808 305.098 51.1234C304.93 51.641 304.761 52.1586 304.591 52.6763C305.486 52.6485 306.378 52.6207 307.266 52.5928ZM310.006 51.0229C308.704 52.4874 316.291 51.76 317.115 51.5056C317.276 51.4495 317.947 50.373 318.211 50.1285C317.018 50.2589 315.819 50.3897 314.611 50.5209C314.981 50.1648 315.35 49.8087 315.718 49.4526C314.28 49.5026 312.908 49.5447 311.583 49.5808C312.185 49.8321 312.785 50.0834 313.384 50.3348C312.265 50.564 311.139 50.7934 310.006 51.0229ZM279.114 53.8394C280.092 53.7154 281.067 53.5906 282.039 53.4654C281.89 53.9723 281.741 54.4793 281.593 54.9863C281.008 55.0416 280.422 55.0966 279.835 55.1514C279.595 54.7141 279.355 54.2768 279.114 53.8394ZM298.995 52.5105C297.315 50.3103 293.89 55.855 298.308 53.4765C298.751 53.235 299.155 52.7233 298.995 52.5105ZM320.04 50.8988C323.302 52.2702 322.195 48.5667 319.41 49.9959C319.27 50.071 319.795 50.798 320.04 50.8988ZM342.956 48.4136C343.198 48.3746 343.507 47.1012 345.947 48.016C346.313 47.8354 346.678 47.655 347.042 47.4749C346.139 46.9926 338.298 47.5074 339.496 48.6046C340.707 48.4905 341.731 48.5853 342.956 48.4136ZM335.792 53.7853C334.603 53.8828 333.266 53.9972 332.197 54.0818C332.533 53.6562 332.827 53.2354 333.204 52.8054C332.591 52.768 332.061 52.7214 331.486 52.6798C330.611 53.4466 329.729 54.2143 328.841 54.9826C331.329 54.8122 333.789 54.6447 336.492 54.4519C336.259 54.2296 336.026 54.0074 335.792 53.7853ZM304.931 58.1384C307.117 57.4191 309.898 57.639 313.425 57.1711C313.426 57.1697 313.428 57.1683 313.429 57.1669C313.606 57.142 313.858 56.5814 314.425 56.4982C314.989 56.4221 325.056 55.8931 324.149 55.0889C320.245 54.7128 318.905 56.0917 317.753 54.2094C317.609 54.649 317.465 55.0886 317.321 55.5282C313.566 56.6748 312.529 55.3204 310.433 55.01C310.475 55.3247 310.517 55.6394 310.559 55.9541C309.219 56.1312 307.869 56.3085 306.51 56.4857C306.68 56.2577 306.85 56.0296 307.019 55.8015C306.538 55.853 306.056 55.9045 305.573 55.9561C304.496 57.0167 303.017 57.3937 304.931 58.1384ZM341.15 52.6669C342.549 54.9323 352.667 52.1734 357.834 52.177C355.213 50.9788 350.883 52.4329 348.374 52.7168C343.194 53.3001 346.682 52.0336 345.76 51.7414C345.307 51.5964 342.483 53.4557 341.15 52.6669ZM296.604 58.5854C299.29 58.1138 300.847 58.5081 303.055 57.387C302.844 57.2325 302.633 57.078 302.422 56.9235C301.668 57.1673 295.209 58.3457 296.604 58.5854ZM364.738 50.8861C359.842 52.2069 362.089 49.8104 359.602 51.6902C361.369 51.6222 363.1 51.5629 364.795 51.5134C364.776 51.3043 364.757 51.0952 364.738 50.8861ZM14.2464 34.8132C12.321 33.9608 10.0143 33.308 9.30375 31.93C10.6393 32.4472 11.9798 32.9524 13.3249 33.4459C13.6299 33.9021 13.9371 34.3579 14.2464 34.8132ZM68.9752 63.1429C68.4398 63.2394 66.6865 62.1471 66.4876 62.0962C66.1153 62.0035 66.1402 62.3358 66.1149 62.4147C63.6922 61.7458 66.178 61.3614 64.4341 60.6979C64.1336 60.5905 59.8091 59.9597 58.1084 59.4401C55.4763 58.6518 52.8336 57.942 51.8578 57.633C50.207 57.1154 47.3642 55.4761 44.6957 54.5675C43.5946 54.1942 43.0245 54.6272 41.9184 54.2427C34.8296 51.8721 21.2515 45.6641 15.1367 43.1826C13.6124 42.5926 11.8468 42.6172 11.0835 42.1852C10.5803 41.6346 10.0805 41.0826 9.58429 40.529C6.56713 41.8841 6.91437 39.5375 4.99819 38.2989C3.77917 37.5085 2.83432 37.8606 2.66182 37.769C1.52461 37.1575 1.13125 36.5421 0.268917 36.0118C-0.699432 35.4182 -2.29063 34.9289 -2.61566 34.6771C-2.80891 34.515 -1.64924 34.0506 -5.45996 31.8922C-9.33921 29.6744 -13.16 27.4429 -16.9827 24.9727C-14.0589 23.2866 -14.1127 25.7145 -12.5984 26.8011C-12.1939 27.0909 -12.2052 26.5177 -11.851 26.765C-10.8516 27.4626 -9.102 29.0834 -8.17293 29.503C-7.17127 29.9569 -6.9274 28.8118 -5.94602 29.8641C-5.89647 29.9176 -6.3188 30.2019 -6.07738 30.4322C-3.63354 32.727 -2.30659 32.5715 1.33336 34.5135C3.66473 35.9255 18.5514 43.5152 19.2292 43.3467C22.5482 43.1472 6.70715 35.8501 4.91302 34.8743C4.25908 34.5847 4.68982 35.3796 4.0669 35.1647C3.80186 35.0709 2.05373 33.0678 -0.0411692 31.8199C-2.58426 30.3312 -8.04013 27.9023 -10.4212 26.3748C-30.9213 13.4376 -49.372 -2.1435 -64.1098 -21.3945C-64.4213 -21.8032 -64.3726 -22.6863 -65.37 -24.0277C-84.1172 -49.0999 -97.177 -79.5745 -103.722 -111.168C-105.091 -117.718 -105.783 -124.499 -107.259 -131.485C-106.972 -132.423 -106.681 -133.361 -106.386 -134.299C-106.408 -131.99 -104.829 -128.082 -104.752 -127.726C-104.726 -127.595 -105.062 -126.683 -104.811 -125.352C-104.459 -123.482 -103.903 -122.744 -103.876 -122.591C-103.79 -122.12 -104.278 -122.351 -104.195 -121.901C-103.565 -118.548 -103.18 -115.968 -102.549 -112.975C-101.834 -109.617 -100.567 -107.788 -100.825 -105.033C-100.414 -104.823 -100.002 -104.614 -99.5898 -104.407C-100.635 -102.07 -97.4018 -90.8736 -95.8703 -86.6308C-95.4033 -85.2691 -94.895 -85.7029 -94.7454 -85.2456C-94.6307 -84.9135 -95.5188 -84.9509 -94.0588 -81.1964C-93.3218 -79.3299 -92.5894 -79.0426 -92.2684 -78.1011C-92.0937 -77.5904 -92.6707 -77.4718 -92.4018 -76.7441C-90.8403 -72.5433 -89.3206 -69.2719 -87.5369 -65.4117C-87.034 -64.328 -86.5824 -64.5141 -86.4814 -64.2678C-86.1067 -63.3662 -86.1671 -61.4707 -85.1165 -59.2361C-83.3793 -55.4386 -79.4386 -47.8855 -77.4027 -45.1911C-77.1054 -44.7866 -76.3953 -44.7189 -76.2212 -44.3992C-75.9593 -43.9141 -76.3763 -43.4223 -76.3304 -43.3366C-75.409 -41.7378 -75.4822 -42.9817 -74.9745 -41.8521C-74.6995 -41.2458 -74.9415 -40.2931 -74.2041 -38.9392C-73.2266 -37.1568 -72.7361 -37.9367 -72.3585 -37.179C-72.3217 -37.0971 -72.7926 -36.7682 -72.3635 -36.0587C-70.6677 -33.2524 -68.1193 -29.2681 -66.3277 -26.802C-65.8146 -26.0905 -65.1211 -25.7907 -64.3928 -24.8186C-63.0366 -22.7792 -54.4099 -11.9202 -53.3469 -11.251C-53.2492 -11.1777 -53.4483 -12.6625 -52.1462 -11.1749C-52.0226 -10.5133 -51.8953 -9.85156 -51.7643 -9.18961C-50.6982 -8.86131 -49.6334 -8.54529 -48.5701 -8.2413C-50.0255 -6.92219 -46.2819 -2.65504 -44.9132 -4.1251C-44.4237 -3.75124 -43.933 -3.38035 -43.4411 -3.01236C-43.4849 -1.13907 -42.5442 -0.924168 -41.2741 1.36756C-40.7012 1.3257 -40.1295 1.28109 -39.5589 1.23382C-39.6772 1.5065 -39.7951 1.77946 -39.9127 2.0526C-37.9085 1.83133 -37.31 4.40871 -37.1109 4.59283C-36.3684 5.29272 -35.5364 5.50094 -35.1838 5.82132C-33.8695 7.01905 -31.2428 9.89441 -29.4562 10.9888C-29.372 11.0394 -29.042 10.4716 -28.531 10.774C-27.6094 11.3161 -28.1109 12.1349 -26.3076 12.1151C-26.253 12.5116 -26.1971 12.9083 -26.14 13.3052C-25.8103 13.3743 -25.4807 13.4423 -25.1513 13.5094C-23.7723 14.6462 -22.3644 15.7749 -20.9444 16.883C-21.6265 15.0347 -19.753 15.6356 -18.802 17.3596C-18.4786 17.9447 -19.2995 18.1884 -19.1933 18.3865C-19.0656 18.6894 -12.1522 22.9058 -11.4523 22.7925C-11.2442 23.1758 -11.0345 23.559 -10.8233 23.9419C-10.4342 23.688 -10.0459 23.4333 -9.65837 23.1778C-9.55894 23.4145 -9.45888 23.6512 -9.3583 23.8879C-7.20555 24.3762 -3.3838 28.6116 -2.44162 28.9759C-1.94545 29.1733 -1.47162 27.3834 0.63486 28.7707C0.47122 29.2453 0.307977 29.7201 0.14535 30.1952C0.618816 30.5384 1.09398 30.8801 1.57079 31.2202C2.55105 31.7052 4.35525 31.693 4.67265 31.1973C4.80798 31.6666 4.94498 32.136 5.08384 32.6055C6.42051 32.0258 10.5619 34.5843 12.0315 36.0827C12.7002 36.022 13.3679 35.9585 14.0345 35.8922C14.5513 36.602 15.0736 37.3104 15.6014 38.0173C17.1734 38.881 15.751 37.4573 16.121 37.5636C16.8911 37.7968 20.1565 40.5463 20.5041 39.0876C21.0164 39.3087 21.5294 39.5281 22.0436 39.7461C22.1408 40.2454 22.2395 40.7448 22.3397 41.2444C23.7942 40.2891 25.1175 41.4195 28.4834 42.2039C28.6251 42.6197 28.7679 43.0356 28.912 43.4514C30.0715 43.4024 31.2289 43.3459 32.3845 43.2822C32.3891 43.875 32.3952 44.468 32.4025 45.0613C32.8061 45.3001 33.2107 45.5379 33.6161 45.7749C34.9275 44.9484 36.0465 46.7835 37.0326 46.5966C38.4662 46.3203 37.8459 45.1644 35.7372 44.2048C36.2187 43.4428 42.5045 46.1242 43.9905 46.6682C43.8357 46.8016 43.6807 46.9349 43.5255 47.0681C42.0386 46.4199 40.5603 45.7606 39.0911 45.0901C37.0544 46.7694 41.3978 47.6703 43.2272 48.5828C43.3933 48.6673 44.1155 49.8196 46.0914 50.3773C46.8575 50.597 50.1859 50.3328 50.769 50.4353C55.4946 51.2706 51.6263 51.9864 56.5526 51.7916C55.2816 52.6752 58.1445 52.4709 60.7767 53.4282C61.2164 53.5961 64.8528 55.5674 65.1154 55.6553C66.7212 56.2277 65.1935 54.7435 67.5042 55.6126C67.7224 55.9555 67.9414 56.2982 68.1612 56.6407C68.7174 56.7786 69.2741 56.9152 69.8315 57.0505C73.7921 55.4435 74.1521 57.3963 75.313 57.904C75.7804 58.1069 75.2948 57.3321 76.5304 57.7498C76.996 57.9058 77.4079 58.5525 78.6883 58.8693C82.7102 59.8527 84.5175 57.8543 87.7578 60.9349C88.3929 60.701 89.0268 60.4656 89.6598 60.2288C89.9667 60.7121 90.2751 61.195 90.5848 61.6777C93.75 61.0192 92.4643 62.0477 93.5347 62.2238C96.3568 62.6951 102.195 63.3856 102.854 62.4656C104.956 65.1194 108.275 62.9697 109.213 63.1893C109.746 63.5457 110.281 63.9011 110.816 64.2556C111.527 64.0684 112.238 63.8796 112.947 63.6892C112.327 65.8897 116.108 64.1328 116.444 64.1364C116.832 64.1568 122.136 65.4544 124.151 65.6476C126.16 65.8528 129.72 65.5847 130.028 65.6106C130.381 65.6456 133.744 66.5765 136.424 66.7884C138.77 67.0247 152.716 67.0452 151.785 67.9696C150.86 68.1983 149.55 68.3654 148.421 68.4279C144.917 68.7147 124.444 67.5107 119.235 66.949C108.788 66.0578 97.9181 64.3688 87.5576 62.6079C86.948 62.5041 86.7447 63.0613 86.2206 62.973C85.424 62.8369 83.5367 61.8632 82.7562 61.7154C79.8198 61.1719 76.2591 60.487 74.703 60.1463C71.2253 59.3855 68.7745 59.1513 66.154 58.5506C65.3268 58.3637 61.416 56.6051 58.5263 56.1132C57.9705 56.1299 57.4146 56.1453 56.8584 56.1592C58.2667 56.7635 61.9316 58.2762 63.6928 58.7861C66.3111 59.5492 67.8102 59.424 68.7857 59.6717C69.5994 59.8829 73.6774 61.4036 75.6037 61.8392C76.2004 61.9765 76.4557 61.4038 76.966 61.5183C79.7345 62.1451 83.4031 62.9169 85.6865 63.9733C84.7401 63.5968 90.9544 64.3951 91.2796 64.4436C91.833 64.5437 92.333 65.218 93.4674 65.4169C95.6512 65.7951 95.5695 64.5644 98.1048 66.202C98.8383 65.967 99.5707 65.7302 100.302 65.4915C100.095 67.0984 108.984 66.23 111.151 68.4573C111.195 68.7168 99.9304 67.7122 99.0055 67.5576C93.4365 66.8716 85.4183 64.9921 80.0471 64.1352C78.4266 63.8921 73.1892 63.7233 72.8145 63.6103C72.2101 63.4429 72.8866 63.0272 72.6276 62.9472C67.3415 61.282 69.7675 62.9956 68.9752 63.1429ZM310.818 58.567C309.192 58.8095 307.553 59.0521 305.9 59.2947C306.057 59.6314 306.215 59.9681 306.373 60.3048C307.118 60.0878 307.86 59.8707 308.6 59.6536C309.202 59.8 309.803 59.9464 310.402 60.0928C310.541 59.5842 310.68 59.0756 310.818 58.567ZM314.993 59.5931C316.512 59.6047 316.501 58.8599 316.842 58.786C317.856 58.5639 318.772 58.7645 319.757 58.6451C318.431 57.0201 316.081 58.0908 314.993 59.5931ZM285.333 63.3072C285.651 63.192 287.635 61.0963 290.245 62.61C292.032 61.8696 293.701 61.1385 295.563 60.3853C292.481 61.5615 288.184 61.0919 286.635 61.2755C286.056 61.3447 286.001 61.9346 285.536 61.989C282.858 62.2947 280.093 61.2278 279.993 63.1728C282.514 62.3761 284.928 63.4503 285.333 63.3072ZM301.526 60.987C301.92 60.5407 302.312 60.0944 302.704 59.6481C301.137 59.8132 299.559 59.9779 297.969 60.142C298.441 60.5032 298.912 60.8643 299.383 61.2253C300.099 61.146 300.814 61.0665 301.526 60.987ZM181.637 69.2178C182.604 69.2211 183.57 69.2225 184.535 69.2219C184.481 69.5154 183.376 69.5086 182.967 69.7039C182.969 69.7039 182.971 69.7039 182.972 69.7039C182.517 69.9248 182.709 70.3045 181.881 70.4649C181.8 70.0492 181.718 69.6335 181.637 69.2178ZM-107.796 -135.298C-108.15 -137.11 -109.713 -151.565 -108.473 -150.411C-107.891 -149.835 -107.864 -144.915 -107.687 -143.504C-107.477 -141.61 -105.6 -136.08 -107.796 -135.298ZM-110.581 -161.262C-109.555 -161.556 -108.703 -152.401 -108.782 -151.534C-108.95 -151.707 -109.313 -151.967 -109.412 -152.21C-109.896 -153.388 -110.174 -159.261 -110.581 -161.262ZM127.682 69.5408C128.484 69.0778 129.284 68.613 130.081 68.1464C129.819 68.8266 129.556 69.5066 129.292 70.1865C128.755 69.9721 128.218 69.7568 127.682 69.5408ZM56.3665 55.6808C44.3398 52.2896 32.5883 48.2398 21.1431 43.3692C22.0309 44.0674 22.9254 44.7611 23.8266 45.4503C33.8237 49.4926 44.7066 52.9168 54.597 56.2429C55.1878 56.0571 55.7777 55.8697 56.3665 55.6808ZM282.107 66.7891C278.899 67.1012 276.063 66.8429 272.661 67.9651C276.037 68.4655 277.672 67.0823 281.025 67.9462C281.026 67.946 281.028 67.9459 281.03 67.9457C281.39 67.5602 281.749 67.1747 282.107 66.7891ZM210.424 71.6351C211.42 72.0975 212.416 72.5581 213.413 73.017C212.233 73.0549 211.051 73.0905 209.868 73.1236C210.054 72.6275 210.239 72.1314 210.424 71.6351ZM-40.5468 7.98783C-42.3985 4.9873 -49.8965 0.478415 -50.8536 -2.41971C-50.9124 -2.60299 -49.4101 -1.83229 -50.4575 -4.42733C-49.2556 -2.86743 -48.4343 -1.73858 -48.917 -1.04912C-48.3063 -0.834302 -47.6958 -0.623411 -47.0856 -0.41642C-46.5491 0.410174 -46.0062 1.23309 -45.4569 2.05234C-44.9613 1.38433 -44.9419 1.4701 -44.2566 2.89392C-43.6205 3.20652 -42.9747 3.52333 -42.3331 3.8314C-42.3577 4.2838 -42.3806 4.73678 -42.4022 5.19022C-41.6351 5.23014 -40.8697 5.26496 -40.106 5.29468C-38.7494 7.217 -40.4178 6.99448 -40.5468 7.98783ZM-31.3888 15.3667C-32.0201 15.2755 -43.4505 4.71048 -37.0229 8.06995C-35.676 9.29919 -34.3135 10.5087 -32.9358 11.6988C-35.8329 12.8575 -30.419 14.1028 -30.0647 14.2879C-28.3703 15.2812 -26.7855 17.2899 -25.6207 18.1054C-24.6183 18.8081 -23.7438 18.8378 -23.0551 19.3484C-20.7136 21.0992 -16.9011 23.6866 -16.9827 24.9727C-18.8996 23.7336 -20.8216 22.4345 -22.7427 21.0378C-24.7617 19.5602 -27.2198 19.1162 -30.0388 15.0843C-31.0492 14.4935 -31.2496 15.4164 -31.3888 15.3667ZM216.359 72.8037C216.206 71.6815 222.146 71.7224 222.2 72.163C222.223 72.4248 220.293 72.4979 220.021 72.6075C220.019 72.6076 220.017 72.6076 220.015 72.6077C219.902 72.6556 220.503 73.0654 219.599 73.2215C218.52 73.0841 217.44 72.9449 216.359 72.8037ZM-106.358 -112.241C-107.248 -112.734 -110.228 -130.672 -109.898 -131.38C-109.836 -131.54 -109.53 -131.375 -109.38 -131.457C-109.639 -127.017 -107.566 -121.22 -106.733 -117.368C-106.503 -116.289 -107.007 -116.526 -107.003 -116.463C-107.003 -116.46 -107.002 -116.458 -107.002 -116.455C-106.884 -115.834 -105.246 -113.312 -106.358 -112.241ZM-54.5014 -7.03224C-53.8446 -6.5777 -53.1864 -6.1286 -52.5269 -5.68487C-52.6476 -5.30169 -52.7675 -4.91799 -52.8864 -4.53377C-52.8877 -4.53509 -52.8889 -4.53639 -52.8901 -4.5377C-53.4334 -5.36508 -53.9705 -6.1966 -54.5014 -7.03224ZM-72.2059 -27.3987C-71.8941 -27.381 -71.5825 -27.3642 -71.271 -27.3481C-70.1162 -25.7458 -68.9432 -24.169 -67.7525 -22.6174C-67.7579 -22.8586 -67.7628 -23.0997 -67.7673 -23.3407C-65.7178 -21.1902 -65.6605 -19.7115 -64.6002 -18.5508C-64.6013 -18.5522 -64.6024 -18.5536 -64.6035 -18.555C-64.4883 -18.4314 -63.959 -18.5874 -63.5596 -18.1093C-62.6455 -16.9963 -59.9337 -13.9978 -59.9691 -13.2521C-60.1832 -11.7465 -65.0059 -18.4604 -65.9546 -19.6959C-66.3991 -20.2364 -67.2673 -20.6389 -67.5332 -20.9756C-67.8231 -21.3455 -67.7199 -22.2187 -68.4109 -23.1282C-68.6165 -23.3853 -71.3754 -25.9918 -72.2059 -27.3987ZM-88.798 -57.8926C-88.0458 -57.5942 -88.0108 -56.2681 -87.7116 -55.8572C-87.6432 -55.7645 -87.6057 -56.7608 -87.0168 -55.8576C-87.1714 -55.4476 -87.3251 -55.0369 -87.4776 -54.6255C-87.9413 -55.7412 -88.3879 -56.8455 -88.798 -57.8926ZM226.339 72.9293C226.176 73.0576 223.002 73.1554 222.845 73.085C220.902 72.1551 227.472 71.9749 226.339 72.9293ZM307.103 67.5483C305.773 69.1831 322.986 65.8486 324.742 65.7229C324.563 64.8106 320.487 66.1999 322.537 64.6929C320.569 65.616 314.519 65.9073 313.362 66.2361C312.58 66.4446 312.464 67.2622 312.346 67.3005C311.891 67.4414 307.569 66.9766 307.103 67.5483ZM339.011 63.5019C337.349 63.8624 335.618 64.2316 333.958 64.5933C335.962 64.4758 338.027 64.3521 340.013 64.2385C339.68 63.9929 339.346 63.7473 339.011 63.5019ZM341.17 63.6874C341.233 64.5831 346.751 63.2912 348.174 63.3486C346.403 62.0018 343.832 63.7299 341.17 63.6874ZM247.718 74.0298C245.185 74.7942 243.899 72.1333 247.105 73.1166C247.202 73.1496 247.823 73.9912 247.718 74.0298ZM-43.7114 10.3293C-44.0621 10.0661 -48.8322 6.8754 -48.7307 6.33837C-48.5054 4.62104 -46.239 7.54349 -44.9579 7.98414C-42.9095 8.67966 -44.6076 6.22078 -41.3553 9.8091C-41.3177 9.46826 -41.2793 9.1277 -41.2401 8.78751C-39.0739 10.569 -41.033 11.4285 -40.8153 11.9513C-40.7481 12.1123 -39.2974 13.1384 -39.1327 13.4374C-37.0887 17.2204 -43.422 10.6336 -43.7114 10.3293ZM183.321 76.3748C178.096 77.1559 180.361 75.9739 175.053 75.9651C174.886 75.3544 182.628 75.8406 183.321 76.3748ZM-1.34714 38.4855C-5.96401 35.7131 -10.2176 34.1662 -13.9203 30.5806C-12.8311 29.4507 0.00526799 38.8468 -1.34714 38.4855ZM-118.747 -172.921C-115.09 -151.601 -113.419 -127.751 -108.435 -106.28C-107.869 -103.842 -107.164 -103.774 -107.022 -102.885C-106.927 -102.304 -107.469 -102.275 -107.283 -101.518C-100.827 -75.1666 -90.7407 -49.2943 -75.6653 -27.6208C-74.7171 -26.1745 -69.0438 -20.2316 -69.3375 -17.844C-69.5863 -15.9919 -72.3076 -21.3044 -72.8724 -22.1101C-73.3106 -22.7053 -73.8295 -22.3738 -74.1185 -22.7761C-74.4243 -23.2036 -73.8304 -23.0924 -74.1769 -23.5938C-75.6417 -25.719 -77.3651 -27.9793 -78.623 -29.9849C-90.5862 -48.9995 -99.7259 -69.8334 -105.983 -91.1947C-106.741 -93.7969 -107.056 -93.1341 -107.097 -93.2634C-107.096 -93.2655 -107.096 -93.2676 -107.095 -93.2697C-111.249 -107.841 -113.19 -123.57 -115.55 -139.53C-117.173 -150.116 -118.324 -160.628 -119.079 -171.929C-118.969 -172.259 -118.858 -172.59 -118.747 -172.921ZM-33.7508 16.4492C-35.9679 17.0474 -35.0526 15.4335 -39.2685 12.876C-39.3662 12.3767 -39.4618 11.8777 -39.5554 11.3789C-37.648 13.1093 -35.7107 14.8008 -33.7444 16.4543C-33.7466 16.4526 -33.7487 16.4509 -33.7508 16.4492ZM-57.6886 -4.9938C-60.1501 -3.87292 -66.0917 -13.4279 -69.3276 -17.0114C-68.8841 -18.4709 -64.9631 -12.5539 -63.7655 -11.3807C-63.1667 -10.7518 -59.2488 -8.1328 -57.4676 -5.1319C-57.5413 -5.08585 -57.6149 -5.03982 -57.6886 -4.9938ZM289.225 73.0948C288.441 73.098 287.655 73.101 286.867 73.1036C288.795 72.6376 290.707 72.1698 292.603 71.7006C289.552 72.1858 286.461 72.6676 283.333 73.1435C283.968 73.607 284.603 74.0703 285.236 74.5333C286.574 74.0547 287.903 73.5751 289.225 73.0948ZM279.015 73.7959C284.58 73.4776 278.669 72.626 277.326 73.3688C276.525 73.8149 278.446 73.8272 279.015 73.7959ZM264.833 75.9265C267.472 76.6325 272.586 76.2552 270.613 74.5902C267.953 75.6766 266.128 75.1179 262.146 75.9295C262.762 76.2321 263.377 76.5343 263.991 76.8362C263.994 76.836 263.997 76.8357 264 76.8355C264.278 76.5326 264.556 76.2296 264.833 75.9265ZM281.652 74.6624C285.188 73.2803 274.689 74.6101 278.065 74.9932C278.227 75.0112 281.516 74.7163 281.652 74.6624ZM-119.164 -149.417C-118.611 -149.898 -118.364 -147.172 -118.23 -146.279C-117.676 -142.531 -117.295 -137.108 -116.608 -132.857C-116.848 -133.15 -117.087 -133.445 -117.326 -133.74C-118.089 -139.202 -118.679 -144.333 -119.164 -149.417ZM-114.5 -119.787C-113.988 -116.973 -113.443 -114.195 -112.865 -111.455C-112.812 -111.2 -113.058 -109.896 -113.37 -110.761C-113.785 -113.734 -114.162 -116.742 -114.5 -119.787ZM-21.0915 30.087C-23.1546 29.1256 -18.6853 34.1237 -17.9271 32.4051C-18.9889 31.6414 -20.0438 30.8687 -21.0915 30.087ZM-3.62763 41.4404C-4.7782 40.6176 -5.91996 39.7858 -7.05288 38.9448C-7.15836 39.1277 -7.26401 39.3106 -7.36948 39.4935C-6.12785 40.1535 -4.88046 40.8024 -3.62763 41.4404ZM-120.463 -160.634C-119.651 -159.196 -119.514 -155.692 -119.319 -153.539C-120.063 -154.972 -120.025 -158.569 -120.463 -160.634ZM-47.984 9.93805C-47.5712 9.70758 -54.0317 3.65349 -52.4298 6.4059C-50.9648 7.60302 -49.5036 8.76126 -47.984 9.93805ZM-61.2878 -2.45322C-60.068 -0.945797 -58.9194 0.0252928 -58.6258 -0.791752C-59.345 -1.51393 -60.0599 -2.24282 -60.7705 -2.97851C-60.9429 -2.80345 -61.1154 -2.62837 -61.2878 -2.45322ZM255.121 78.1561C251.868 78.3252 248.821 78.4668 245.67 78.6024C245.8 78.8056 245.93 79.0088 246.06 79.2119C249.095 79.0815 252.043 78.9452 255.179 78.7834C255.159 78.5743 255.141 78.3652 255.121 78.1561ZM-122.468 -162.338C-122.461 -164.566 -122.437 -166.812 -122.396 -169.074C-122.158 -166.822 -121.903 -164.591 -121.63 -162.382C-121.911 -162.365 -122.191 -162.348 -122.471 -162.332C-122.47 -162.334 -122.469 -162.336 -122.468 -162.338ZM298.478 77.0275C288.897 78.9911 301.378 78.7739 303.804 77.056C303.807 77.0569 303.81 77.0578 303.813 77.0588C304.023 76.9081 303.486 76.3425 303.831 76.0553C302.877 76.4367 301.917 76.818 300.952 77.1992C300.01 76.9472 299.064 76.6951 298.115 76.4426C297.828 76.6095 297.541 76.7763 297.253 76.9431C297.662 76.9713 298.071 76.9994 298.478 77.0275ZM337.166 73.3706C346.1 72.2667 336.598 71.7604 332.647 73.4314C332.705 73.7093 336.266 73.481 337.166 73.3706ZM314.405 75.5563C313.058 75.5618 311.701 75.5675 310.334 75.5734C310.18 75.7679 310.027 75.9625 309.873 76.1571C310.931 76.2202 311.984 76.2833 313.031 76.3466C313.491 76.0831 313.949 75.8197 314.405 75.5563ZM269.532 82.7165C267.344 83.0944 264.39 81.3717 271.475 81.2901C271.489 81.5008 271.504 81.7115 271.518 81.9222C271.236 81.9128 270.397 81.7857 270.353 81.8052C270.228 81.8688 270.441 82.5586 269.532 82.7165ZM353.688 77.1693C353.95 77.223 354.342 79.4195 356.731 76.8568C357.537 76.9152 358.335 76.9752 359.124 77.0369C359.275 76.5285 359.426 76.0202 359.577 75.512C356.614 76.192 356.154 75.2447 355.935 75.2453C354.899 75.2591 355.712 75.6883 355.048 75.7642C353.214 75.9707 349.659 76.0057 351.43 77.2828C352.062 77.7403 353.387 77.12 353.688 77.1693ZM348.139 79.0355C348.474 78.8123 347.261 78.2881 347.509 78.0761C347.737 77.8891 351.149 76.854 350.089 75.8607C349.524 75.9678 348.956 76.0755 348.385 76.1839C348.222 76.5047 348.058 76.8256 347.895 77.1466C347.305 76.9305 346.712 76.7149 346.115 76.4999C345.242 77.3433 343.296 78.526 345.791 78.8633C344.895 78.8973 343.991 78.9325 343.079 78.9689C342.572 78.6662 342.062 78.3637 341.55 78.0617C341.857 78.5742 342.164 79.0869 342.47 79.5997C344.394 79.4061 346.284 79.2178 348.139 79.0355ZM375.588 76.2052C375.463 75.9329 375.338 75.6606 375.212 75.3884C378.432 75.6635 383.016 75.6192 380.247 74.0104C376.308 74.0924 371.747 74.3031 367.175 74.5695C366.919 74.8046 366.662 75.04 366.405 75.2757C369.407 74.1881 368.954 77.7029 371.752 76.4712C372.223 76.2648 370.729 75.167 373.837 75.6983C373.751 75.9878 373.666 76.2773 373.58 76.5668C374.259 76.4439 374.928 76.3233 375.588 76.2052ZM399.651 75.776C396.315 75.6078 400.108 77.2776 399.954 76.449C399.954 76.4489 399.953 76.4488 399.953 76.4488C400.41 75.3729 400.576 75.1006 400.218 74.9878C399.89 74.8757 398.764 74.9612 398.618 74.9381C398.197 74.8611 397.779 73.0906 395.554 75.3745C396.368 75.4104 397.095 75.4597 397.721 75.5169C398.44 75.5826 399.233 75.6973 399.651 75.776ZM385.02 75.6587C385.473 75.6968 385.208 75.2826 385.403 75.2818C385.404 75.2818 385.406 75.2817 385.408 75.2817C386.85 75.2735 389.14 75.3369 390.921 75.2821C393.164 75.2233 394.798 75.068 395.141 74.4029C393.241 74.0722 384.377 73.9616 383.587 74.9776C384.074 75.2026 384.552 75.4297 385.02 75.6587ZM364.342 76.137C362.656 77.1859 366.652 76.9258 367.601 76.4321C367.783 76.3267 366.094 75.0499 364.342 76.137ZM220.613 91.3152C216.412 90.9442 221.883 90.2014 219.95 89.4427C220.75 89.4826 221.548 89.5214 222.346 89.5592C221.77 90.145 221.192 90.7304 220.613 91.3152ZM28.2806 69.8451C27.2826 69.587 27.9137 69.2753 27.8326 69.2379C27.1958 69.0207 26.4568 69.1889 26.2293 69.0578C22.0495 66.5974 25.1782 67.3151 25.2544 67.2393C25.5244 66.8034 24.5678 65.815 26.3841 65.8837C27.3014 66.4174 28.2225 66.9467 29.1475 67.4717C29.7319 67.3863 30.3166 67.2996 30.8925 67.2083C32.6294 68.4621 30.042 67.7182 29.4761 68.3576C29.257 68.6111 30.9825 69.6308 28.2806 69.8451ZM213.149 93.2643C212.437 92.4028 210.731 91.3382 212.348 90.4019C212.35 90.4018 212.351 90.4018 212.353 90.4017C212.652 90.2304 213.885 90.1025 214.256 89.862C216.995 90.9478 216.011 92.201 213.149 93.2643ZM45.6716 77.2452C47.3575 77.5332 49.0447 77.8084 50.7326 78.0711C50.8489 77.5535 50.9654 77.0359 51.082 76.5183C50.1738 76.4098 49.2658 76.2977 48.3577 76.1819C48.121 75.8612 47.8849 75.5402 47.6497 75.219C48.8948 74.9557 50.136 74.6854 51.3734 74.4085C52.6045 74.9775 53.8578 75.5444 55.0804 76.0951C54.4167 76.2046 53.7508 76.3118 53.0769 76.4152C56.1604 77.5817 55.802 76.1478 58.5316 76.3589C59.2992 77.0667 60.0714 77.772 60.8483 78.475C62.2685 78.3259 63.6857 78.1686 65.0999 78.0032C67.2274 78.7517 67.3382 79.1602 65.7333 79.357C66.6742 80.2426 68.0998 79.5396 69.354 80.0954C69.4579 80.1409 69.1182 80.6839 69.2126 80.713C75.9419 82.6479 75.9201 80.9704 77.0196 81.142C77.8006 81.261 80.6443 82.9292 80.6224 83.295C80.5962 83.7856 73.8007 84.4402 83.8257 86.4483C78.3832 86.7957 72.7155 84.17 76.9508 83.0502C75.2597 82.9218 68.1442 80.833 67.6784 80.7682C66.9891 80.6988 67.0532 81.4825 66.2092 81.3034C65.7076 81.1921 64.8019 79.2366 60.5372 79.7032C60.1071 79.3047 59.6785 78.9054 59.2513 78.5054C58.7277 78.6087 58.2035 78.7109 57.6787 78.8119C58.4305 79.8593 59.1899 80.9045 59.957 81.9475C56.3432 80.11 52.7577 80.8693 50.7791 78.8415C48.7126 78.429 47.6857 78.2948 48.3535 79.2424C47.7456 79.0669 47.1382 78.8898 46.5313 78.711C46.2432 78.2227 45.9566 77.7341 45.6716 77.2452ZM200.733 92.2973C198.753 93.151 198.009 91.3866 198.319 91.2825C200.058 90.7077 201.761 91.8523 200.733 92.2973ZM32.1466 70.2218C34.4508 70.5426 36.7547 70.8371 39.0579 71.1062C38.8846 71.639 38.7112 72.1718 38.5379 72.7046C36.3969 71.899 34.2662 71.0716 32.1466 70.2218ZM221.274 92.5496C221.459 92.1219 221.644 91.6942 221.828 91.2664C224.293 92.7014 226.569 90.3946 227.764 90.7931C228.025 90.8802 227.544 91.6452 227.063 91.8266C226.768 91.943 221.71 92.6774 221.274 92.5496ZM320.759 84.1916C319.825 84.0108 318.886 83.8303 317.942 83.6501C318.044 84.1141 318.146 84.5782 318.248 85.0422C318.708 85.0802 319.168 85.1182 319.625 85.1563C320.004 84.8346 320.382 84.5131 320.759 84.1916ZM310.696 84.5323C309.143 84.7371 307.577 84.9421 305.997 85.1469C312.051 84.9398 307.153 85.6736 310.843 85.8977C310.794 85.4425 310.745 84.9874 310.696 84.5323ZM294.746 87.153C294.965 87.4145 295.183 87.676 295.401 87.9374C296.918 87.7849 298.554 87.6184 300.17 87.452C299.253 88.5306 298.309 89.6111 297.399 90.6875C296.834 90.7472 296.269 90.8068 295.701 90.8663C295.383 89.6286 295.064 88.3909 294.746 87.153ZM-14.1883 52.8178C-15.1044 52.3311 -17.7879 49.7893 -17.4909 49.5926C-16.0104 50.0114 -14.5297 50.4148 -13.0491 50.8033C-13.3183 51.2961 -13.5875 51.7889 -13.8566 52.2818C-13.536 52.1413 -13.2157 52.0004 -12.896 51.8588C-12.2608 52.4542 -11.6217 53.0469 -10.979 53.6369C-10.3692 53.4106 -9.76121 53.1822 -9.15483 52.9517C-9.04561 53.6472 -8.93339 54.3431 -8.81834 55.0392C-12.8972 53.9774 -12.2911 53.1496 -13.0408 52.7509C-13.4204 52.5448 -13.8287 52.7142 -14.0484 52.7915C-14.095 52.8003 -14.1416 52.8091 -14.1883 52.8178ZM32.4753 74.118C27.8882 72.6826 25.7868 70.3244 22.0739 70.2299C25.104 68.6593 37.7546 76.0022 43.2913 75.3108C43.6685 75.8688 44.048 76.4261 44.4297 76.9828C41.8983 75.8233 39.8174 76.0717 38.4934 75.7772C37.4433 75.5424 37.6872 75.155 37.6073 75.136C37.6036 75.1348 37.6 75.1336 37.5964 75.1324C35.1597 74.5264 34.2888 74.6799 32.4753 74.118ZM224.757 94.4707C223.56 95.1918 221.399 95.213 221.336 94.2403C222.525 93.9104 223.709 93.5784 224.891 93.2442C224.656 93.5042 224.962 94.3475 224.757 94.4707ZM293.209 90.0408C292.306 90.4495 290.052 90.3912 290.93 89.4599C291.089 89.2945 293.355 89.6649 291.911 88.2815C294.062 88.0923 293.723 89.8065 293.209 90.0408ZM112.024 89.9017C112.841 90.0326 113.658 90.1614 114.476 90.2883C114.62 90.7015 114.765 91.1148 114.91 91.528C113.945 90.9887 112.983 90.4466 112.024 89.9017ZM235.238 94.6306C236.218 92.651 238.174 94.4172 240.103 92.7185C240.849 92.6622 241.594 92.6051 242.337 92.5473C242.339 92.5472 242.34 92.5471 242.342 92.547C242.395 93.0697 242.447 93.5923 242.499 94.115C240.092 94.2944 237.671 94.4665 235.238 94.6306ZM60.7425 81.3866C61.3034 81.276 61.8637 81.164 62.4232 81.0508C63.2469 81.5473 64.0737 82.0411 64.9032 82.5321C64.3712 82.6144 63.8387 82.6955 63.3056 82.7755C62.4485 82.3155 61.5942 81.8526 60.7425 81.3866ZM248.357 94.0006C245.786 94.4119 244.706 92.8059 248.01 92.585C249.4 92.4924 251.042 93.5675 248.357 94.0006ZM-57.2799 21.0012C-56.4669 21.5532 -55.6517 22.0985 -54.8343 22.6371C-54.8226 23.1189 -54.8092 23.6012 -54.7942 24.0839C-55.632 23.0636 -56.4605 22.0361 -57.2799 21.0012ZM305.465 88.5944C305.324 88.2557 305.184 87.917 305.043 87.5784C304.258 87.732 303.47 87.8856 302.678 88.0392C302.915 88.3655 303.152 88.6918 303.389 89.0181C304.083 88.8769 304.776 88.7357 305.465 88.5944ZM-52.2641 25.1779C-51.6354 25.6325 -51.0049 26.0833 -50.3729 26.5302C-50.0877 26.9953 -49.8007 27.4596 -49.5118 27.9231C-50.1753 27.5906 -50.8382 27.254 -51.5005 26.9133C-51.7578 26.3353 -52.0123 25.7569 -52.2641 25.1779ZM272.974 91.9449C272.031 92.4519 267.976 91.4733 271.496 90.8371C273.732 90.4309 273.116 91.8679 272.974 91.9449ZM278.386 91.8893C274.576 93.0377 277.143 88.7118 281.961 90.9263C277.312 90.9893 278.605 91.8197 278.386 91.8893ZM311.928 90.6612C312.021 90.649 312.036 90.0564 312.778 89.9544C315.448 89.5902 318.895 88.9794 320.956 88.7161C325.907 88.0859 339.712 87.6105 341.482 85.7066C341.796 85.3125 340.867 84.3415 341.004 84.271C341.414 84.0713 343.872 84.3214 343.341 83.5895C341.002 83.853 338.568 84.1294 336.173 84.4021C336.783 84.8918 337.478 85.3721 338.126 85.8577C332.26 86.2127 334.269 86.0238 332.474 85.0095C331.563 85.5813 330.646 86.154 329.722 86.7273C327.545 86.4969 325.336 86.2697 323.095 86.0447C323.63 86.338 324.163 86.6314 324.695 86.925C321.479 87.9339 322.341 87.4102 320.429 86.7663C320.464 87.1149 320.498 87.4635 320.533 87.8122C317.172 87.3227 316.774 88.4212 316.093 88.5084C314.718 88.6781 312.563 84.7466 307.632 89.4187C305.15 87.6866 305.62 91.6944 304.058 89.7951C300.39 92.4234 307.741 90.8456 311.125 90.4048C311.127 90.4046 311.129 90.4045 311.131 90.4043C311.388 90.3703 311.019 90.7882 311.928 90.6612ZM291.939 90.6632C294.438 92.2495 285.288 93.3112 288.072 90.4001C288.517 90.2713 288.961 90.1425 289.404 90.0136C290.253 90.2303 291.1 90.4466 291.945 90.6627C291.943 90.6629 291.941 90.663 291.939 90.6632ZM204.434 97.495C195.762 96.9045 200.671 95.7716 203.616 96.7388C204.204 96.9301 204.53 97.2013 204.434 97.495ZM25.4938 73.1194C25.4435 72.8681 25.3934 72.6167 25.3436 72.3654C28.1788 73.6487 33.9752 74.7485 33.438 76.1135C30.7788 75.1511 28.1615 74.165 25.4938 73.1194ZM48.1689 81.5329C47.5127 81.44 44.8777 80.8835 45.3458 80.4455C46.5707 80.4014 47.7937 80.3507 49.0146 80.2934C49.4661 80.6764 49.9191 81.0585 50.3735 81.4397C49.6247 81.3162 48.3466 81.5601 48.1689 81.5329Z" fill="#FBBF4A"/>
</g>
<defs>
<clipPath id="clip0_2014_4">
<rect width="359" height="103" fill="white"/>
</clipPath>
</defs>
</svg>
