<svg width="210" height="30" viewBox="0 0 210 30" fill="none" xmlns="http://www.w3.org/2000/svg">
<path d="M205.034 28.7439C200.701 31.2941 198.101 28.4763 193.986 27.9847C185.49 26.9114 174.075 27.7101 165.258 27.6116C158.483 27.5352 151.832 27.3414 145.149 27.202C144.805 27.1952 144.599 26.9081 144.442 26.9047C142.99 26.8734 140.588 27.1398 139.14 27.1067C136.073 27.0364 130.855 27.1066 128.053 26.8561C126.864 26.7497 125.66 26.7107 125.2 26.0298C124.771 25.9981 124.542 26.6181 124.43 26.6526C124.429 26.652 124.427 26.6514 124.426 26.6508C124.066 26.7579 123.151 26.3316 122.949 26.3602C122.919 26.3647 123.108 26.811 122.618 26.6797C122.575 26.6684 122.612 26.3636 122.201 26.3627C122.094 26.3624 120.719 26.841 120.325 26.8732C119.011 26.9774 115.876 26.6415 114.313 26.6653C114.074 26.6679 113.938 26.8475 113.685 26.8535C113.555 26.8568 113.357 26.6657 113.316 26.6672C113.14 26.6761 112.381 27.5628 112.637 25.8272C111.835 25.9463 112.078 26.5164 112.064 26.8886C111.193 26.9525 110.762 26.1418 110.545 27.0093C106.248 26.9578 101.969 26.916 97.674 26.8866C97.6752 27.0276 97.6764 27.1686 97.6775 27.3095C96.401 26.7687 95.985 27.7291 95.2487 26.9247C94.8074 27.113 94.3665 27.3014 93.9263 27.4899C82.4882 27.1554 71.1148 28.1175 59.8987 28.5813C59.4282 28.601 59.2973 28.3061 58.5262 28.3371C57.6764 28.3715 56.5074 28.7721 55.337 28.8224C54.3246 28.866 52.8373 28.6537 51.7395 28.6651C51.4914 28.6682 51.3228 28.8671 51.2949 28.8674C51.1314 28.8684 51.1077 28.5684 50.9493 28.568C50.7597 28.5683 50.5436 28.8027 50.3258 28.8003C49.5234 28.7926 48.6129 28.9194 48.5007 28.9204C47.9819 28.9204 47.8529 28.6332 47.8102 28.6323C47.2365 28.6285 47.4662 28.8816 47.3232 28.8743C46.5841 28.8348 46.027 28.2029 45.0788 28.8971C45.0909 28.6499 45.103 28.4028 45.1151 28.1557C44.3531 28.063 44.8905 28.6853 44.7437 28.8127C44.6804 28.86 43.074 28.8798 42.9547 28.8763C42.5268 28.8613 42.4952 28.5359 42.4582 28.5338C42.3914 28.5273 41.2694 28.9724 40.677 28.727C39.9735 28.4361 40.7292 27.7181 40.5519 27.605C40.5211 27.5858 39.8146 27.7027 39.7061 27.5018C39.5852 27.2857 40.1988 27.2479 40.1835 27.1549C40.171 27.0909 39.1229 26.7013 39.2961 26.3778C39.4274 26.0557 40.8444 26.3588 41.136 26.193C41.1836 26.1655 41.0651 25.788 41.1078 25.771C41.339 25.7015 44.3775 25.4971 44.5444 25.5523C44.392 25.7371 44.2402 25.9218 44.089 26.1066C44.3055 26.111 44.5227 26.1155 44.7407 26.1201C44.4408 26.2789 44.1425 26.4377 43.8461 26.5967C44.3849 28.008 45.6787 26.4658 45.6973 25.7439C45.7027 25.4101 44.7995 24.6056 45.5638 24.0607C45.4378 23.9825 45.312 23.9043 45.1864 23.8262C44.9463 23.9811 44.7073 24.1361 44.4694 24.2912C44.6389 24.3696 44.8087 24.448 44.9788 24.5264C44.9241 24.63 44.8695 24.7335 44.815 24.8371C44.363 25.0251 43.9147 25.2134 43.4702 25.402C43.232 25.3428 43.2621 25.0448 43.0983 24.9979C41.0595 24.4071 42.4441 25.2355 41.0646 25.194C40.8575 25.0488 40.6509 24.9036 40.4448 24.7585C40.5585 25.4087 39.9227 25.0385 39.2222 25.3716C39.2933 25.1537 39.3648 24.9358 39.4364 24.7179C38.3881 24.903 36.2536 23.99 36.8972 25.117C36.6579 25.0347 36.4197 24.9525 36.1825 24.8704C36.0033 25.0764 35.8254 25.2825 35.6485 25.4886C35.3889 25.4869 35.0995 25.4879 34.8096 25.4892C34.8 25.3859 34.7903 25.2826 34.7807 25.1793C35.0054 25.1605 35.2539 25.1401 35.4541 25.1237C35.2766 24.8206 35.0735 24.5196 34.8762 24.2183C34.7106 24.2842 34.5457 24.3502 34.3816 24.4163C35.1136 24.6568 34.2188 25.2193 34.0324 25.6538C33.4567 25.8563 33.0422 25.3482 32.8459 25.3406C32.7505 25.3367 31.7758 26.3821 32.0983 25.2992C31.5649 25.4744 31.0405 25.6501 30.5255 25.8265C30.3121 25.7655 30.0997 25.7047 29.8885 25.644C30.2843 25.1145 28.9458 24.6509 29.8715 24.3581C30.5678 24.1391 30.7914 24.5784 31.1344 24.5437C31.4451 24.5132 31.5829 24.1914 31.9253 24.1472C34.2686 23.8537 36.1802 23.7615 38.3759 23.7394C38.816 23.7352 39.2081 23.5562 39.5085 23.5565C39.8479 23.5574 39.4511 23.9722 39.8755 23.8486C40.3221 23.7183 40.4006 23.397 40.5207 23.3825C40.5956 23.3739 40.853 23.6409 41.0735 23.6262C42.0189 23.563 43.1868 23.2146 43.3279 23.2076C43.4589 23.2013 45.9493 23.3079 46.0796 23.3482C46.145 23.3698 46.0722 24.4234 46.5625 23.2763C46.7347 23.2457 46.9072 23.2151 47.0802 23.1845C47.0638 23.3951 47.0474 23.6057 47.0311 23.8163C48.0196 22.9658 47.6879 23.4289 48.6904 23.3117C50.9652 23.0366 54.4564 23.0415 57.0552 22.8536C57.6172 22.8118 57.8211 22.552 58.4914 22.5051C59.1125 22.4622 60.7886 23.1418 60.3887 22.1214C61.8311 22.9605 62.0011 21.4061 62.7501 22.3424C62.8308 22.1987 62.9117 22.0551 62.9926 21.9115C63.7864 22.4838 64.0254 21.9449 64.8472 21.8414C65.1999 21.7967 64.8149 22.4519 65.5039 21.7128C65.6427 21.7609 65.7815 21.809 65.9204 21.8571C65.8941 22.0132 65.8679 22.1693 65.8417 22.3253C66.6335 22.1698 66.6892 22.2489 66.5771 21.6723C66.9666 21.7641 67.3571 21.856 67.7485 21.9481C67.7901 21.7561 67.8317 21.5641 67.8734 21.3722C67.7091 21.0069 58.8133 21.8939 57.6519 22.129C56.26 21.7571 53.2628 22.4368 52.1277 22.3922C51.6626 22.3742 51.4361 21.9543 50.7648 21.9369C50.0936 21.9195 49.283 22.3543 48.9345 22.3871C47.6698 22.4983 42.0015 22.7515 45.8291 21.9872C45.7051 21.7841 45.5811 21.5811 45.4573 21.378C43.9651 22.1845 44.4931 21.7109 43.2331 21.7146C42.6991 21.716 41.5109 22.2628 41.4988 21.3081C42.4662 21.0668 43.5099 21.3069 44.3727 21.241C44.4568 21.2343 45.4541 20.7384 45.9959 20.8257C46.4845 20.9058 46.2008 21.8322 47.1985 20.7534C48.0401 21.7048 48.4505 20.7768 48.6556 20.6694C49.0035 20.4836 49.0573 20.9735 49.4059 21.0123C49.7835 21.0557 50.0256 20.7159 50.0769 20.7111C50.5845 20.6759 53.3142 20.4954 53.4567 20.6883C53.35 20.7808 53.2434 20.8733 53.137 20.9658C53.8592 21.0716 53.6863 20.5763 53.8722 20.507C54.013 20.5022 54.154 20.4973 54.2953 20.4925C54.2442 20.5994 54.1933 20.7063 54.1423 20.8132C54.9935 20.7509 54.3216 20.419 55.5389 20.3724C56.3267 20.3427 57.1027 20.7073 57.1751 20.6746C57.1961 20.6652 56.9499 20.4072 57.2518 20.3578C57.7509 20.2765 58.6265 20.2458 58.7404 20.6068C58.9866 20.5446 58.9505 20.1882 58.9831 20.1787C59.1217 20.1372 61.6216 19.9131 62.0791 19.8747C63.3332 19.7671 64.7536 19.79 66.0679 19.6825C66.2048 19.6715 66.1255 19.904 66.2628 19.8917C66.4823 19.8719 67.6077 19.472 67.7782 19.4408C68.201 19.3636 69.3312 19.4684 69.5059 19.3583C69.5306 19.3427 69.1489 19.045 69.58 18.9345C70.0591 18.8121 69.813 19.2377 69.8394 19.241C70.8268 19.3511 71.4421 19.0416 72.1171 18.9642C72.3335 18.9394 72.7589 19.2403 73.0509 19.1385C73.0852 19.1269 73.0076 18.8391 73.0412 18.8238C73.4917 18.6576 73.9351 19.1829 74.1337 19.2119C74.6201 19.2826 74.3448 18.8933 74.3699 18.8897C74.692 18.8674 75.1308 18.9978 75.6227 18.9645C77.8128 18.8165 79.6403 18.7426 81.9921 18.7096C82.2841 18.7054 82.6382 18.977 82.6829 18.9762C82.8212 18.9707 82.7733 18.6424 83.1738 18.6399C84.0182 18.6362 84.8028 18.6015 85.6435 18.5884C85.8127 18.5858 85.892 18.8892 86.0212 18.8928C86.4538 18.9017 87.9173 18.0698 87.964 19.0635C88.8079 18.1645 89.3992 18.9107 90.096 18.8877C91.728 18.8343 94.2801 18.6052 95.9201 18.6898C96.265 18.708 96.4312 18.9599 96.6232 18.9702C96.9668 18.9891 98.9331 18.8129 99.0373 18.8514C99.2408 18.9252 99.1397 20.0488 100.157 19.0545C100.761 18.975 100.697 19.4366 100.823 19.4594C101.803 19.6286 102.739 18.5866 102.575 19.5308C103.71 19.2577 104.442 18.7268 104.92 19.6003C104.907 19.1708 105.44 18.9054 106.089 19.0601C105.437 19.7911 105.525 20.2508 103.924 20.1422C103.899 20.1405 103.942 19.8291 103.917 19.8274C103.688 19.8098 103.214 19.9737 102.825 19.9628C102.436 19.9518 102.649 19.7362 102.493 19.7426C102.351 19.7491 102.36 20.0463 102.154 20.0537C101.485 20.0757 100.895 20.1671 100.515 20.1785C100.275 20.1855 100.003 19.9287 99.8173 19.9317C99.1015 19.9455 97.5676 20.1757 96.6507 20.1637C96.4593 20.1605 96.5343 19.8659 96.1155 19.8492C96.0666 19.8472 95.8939 20.156 95.5292 20.2261C95.1644 20.2962 94.8781 20.1497 94.6439 20.1858C94.4481 20.2159 94.5352 20.4858 94.1334 20.5104C93.7931 20.5297 90.0171 20.4098 89.7971 20.3719C89.4968 20.3158 89.3467 19.9376 89.1653 19.9879C89.1334 19.9986 89.087 20.368 88.9764 20.3967C87.1461 20.8704 83.1228 20.4618 81.0499 20.5194C76.6439 20.6387 72.7194 20.9708 68.2928 21.2075C68.217 21.2742 68.1412 21.3409 68.0656 21.4077C68.5073 21.3949 68.9503 21.3823 69.3946 21.3699C69.4032 21.543 69.4118 21.7162 69.4204 21.8893C70.0219 21.8967 69.9293 21.4897 69.904 21.243C70.1302 21.3406 70.3567 21.4382 70.5833 21.5359C70.7537 20.9258 72.268 21.2792 73.0333 21.2549C73.5219 21.2398 74.0986 20.992 74.3583 21.0021C74.9068 21.0227 74.9039 21.3958 74.9471 21.4005C75.0203 21.4067 75.7766 21.0556 76.3321 21.0524C77.1536 21.0471 77.2576 21.6166 78.3732 21.0997C79.8241 21.357 81.458 21.165 82.985 21.0787C82.7037 21.6148 84.0762 21.0802 84.7042 21.0738C88.5441 21.0338 93.2624 21.1636 97.1588 21.3047C97.6603 21.3223 98.0445 21.6274 98.3237 21.6123C98.4751 21.6044 98.5349 21.2359 98.7463 21.2809C98.7835 21.2897 98.8149 21.6327 99.2078 21.6779C100.179 21.7913 102.585 21.1799 103.208 21.8303C106.525 21.6783 109.852 21.5329 113.171 21.3934C113.256 21.5328 113.341 21.6723 113.426 21.8117C114.05 21.087 116.545 21.482 117.761 21.4367C119.911 21.3554 122.645 21.1092 124.514 21.071C124.921 21.0626 125.255 21.2637 125.639 21.2568C125.804 21.2535 126.008 20.9882 126.18 20.9856C128.129 20.9517 130.773 21.2076 132.719 21.1916C137.135 21.1557 141.339 21.1823 145.844 21.1641C161.033 21.1026 176.097 20.7781 191.155 21.0875C191.357 21.0917 191.343 21.395 191.499 21.3987C192.434 21.4231 194.36 21.1942 195.512 21.2216C196.375 21.2423 197.651 21.7221 197.924 21.2585C195.012 20.5144 191.972 20.5341 188.765 20.3057C188.536 20.2896 188.507 20.0009 188.483 19.9954C188.011 19.8907 188.309 20.2907 187.616 20.3022C187.395 20.306 185.204 19.3659 185.454 20.2847C184.936 19.913 181.086 19.699 180.428 19.8162C180.211 19.8516 180.362 20.1242 180.319 20.1377C180.132 20.1963 180.05 19.8213 179.882 19.8104C179.438 19.7839 178.283 20.0797 178.06 20.0761C177.561 20.0695 175.992 19.7547 175.335 19.8227C174.745 19.8847 174.854 20.2764 174.34 20.3094C173.934 20.3344 174.38 20.0079 173.47 19.9035C173.021 19.8523 171.419 20.0793 171.022 20.0775C170.629 20.0755 170.191 19.8394 169.642 19.8548C168.828 19.8764 167.175 19.9998 166.4 20.072C166.354 20.0761 166.24 20.3799 166.125 20.3731C165.888 20.3595 165.961 19.984 165.781 19.9452C165.61 19.9063 162.46 19.942 161.908 19.9367C161.533 19.9336 161.273 20.1568 161.066 20.1543C160.902 20.1518 160.886 19.8387 160.719 19.8348C160.66 19.8347 160.244 20.1056 159.823 20.0983C159.428 20.091 157.909 19.8297 157.73 19.827C157.615 19.8258 157.741 20.0484 157.4 20.0426C157.089 20.0367 156.885 19.7476 156.707 19.7431C156.294 19.7331 155.831 19.9788 155.39 19.9796C154.121 19.9815 154.184 19.6239 154.108 19.6122C153.895 19.5798 153.81 19.9074 153.74 19.9141C153.446 19.9414 152.721 20.0016 152.457 20.0142C152.14 20.03 152.006 19.7185 151.668 19.7174C151.416 19.7176 150.907 20.0212 150.33 20.0361C149.028 20.0713 147.466 20.1299 146.164 20.12C145.776 20.1174 145.716 19.8332 145.597 19.826C144.973 19.7879 144.622 20.1064 144.443 20.1026C143.181 20.0761 140.969 19.5829 139.796 19.5444C139.322 19.5288 137.235 19.766 136.047 19.7299C135.911 19.7262 136.037 19.5028 135.886 19.5383C135.525 19.6234 135.561 20.077 135.377 20.0641C135.289 20.0564 135.091 19.8015 134.838 19.7771C133.527 19.6509 132.622 19.8545 132.02 19.8439C126.21 19.7421 120.32 19.67 114.906 19.6879C114.304 19.6901 113.56 19.9682 112.647 19.7166C112.617 19.576 112.588 19.4353 112.558 19.2946C112.528 19.4335 112.498 19.5725 112.467 19.7114C111.437 19.7984 111.05 19.9813 109.994 19.8179C109.904 19.8043 109.619 19.1642 109.457 19.9657C108.407 19.3999 108.987 19.9763 108.213 20.0403C107.439 20.1044 106.684 19.9361 105.933 19.9064C105.517 19.6257 107.235 18.9414 107.348 18.9421C107.53 18.9422 107.723 19.3371 107.898 19.3559C108.417 19.4123 108.913 19.0905 109.033 19.4437C109.697 19.0601 108.867 19.2581 108.946 18.9193C109.395 19.0533 109.843 19.1874 110.291 19.3217C110.504 18.1697 112.987 19.6389 112.806 18.7663C113.004 18.9392 113.202 19.1121 113.4 19.2851C114.247 18.1779 114.761 18.9452 115.91 19.2598C115.826 19.1203 115.741 18.9808 115.657 18.8413C115.68 18.7824 116.689 18.5476 116.333 19.1493C117.361 18.3509 117.329 19.6619 118.254 18.7055C118.808 18.5787 118.48 19.1321 119.471 19.1134C120.059 19.1028 120.785 18.8086 121.441 18.783C121.592 18.778 121.66 19.096 121.794 19.0949C121.928 19.0937 121.991 18.7807 122.154 18.7715C122.49 18.7518 122.927 18.9676 123.136 18.9448C123.324 18.9253 123.59 18.6476 124.042 18.6008C125.62 18.4357 125.145 18.8329 125.395 18.9642C125.664 19.1039 125.853 18.584 126.386 18.6404C126.439 18.6464 126.303 18.9705 126.477 18.9566C126.619 18.9457 126.688 18.5939 127.158 18.5253C127.347 18.4973 130.244 18.404 130.681 18.3955C131.356 18.3821 132.854 18.6716 133.547 18.6662C133.814 18.6648 134.098 18.3815 134.381 18.3821C135.306 18.3842 136.855 18.4016 138.056 18.4112C139.143 18.42 141.038 19.0369 141.623 18.4736C143.13 18.3969 143.492 18.8766 143.605 18.8829C143.91 18.9002 144.051 18.5819 144.448 18.5663C149.541 18.3714 156.213 18.585 160.925 18.5719C172.007 18.5378 183.321 18.4355 194.301 18.688C194.334 18.5474 194.368 18.4068 194.401 18.2662C193.088 18.1603 191.642 17.8999 190.295 17.8304C188.408 17.7374 186.047 18.3033 184.721 17.3286C185.246 17.2485 186.079 17.6253 186.067 17.1296C185.153 17.0862 184.218 17.0429 183.264 16.9998C183.29 17.2289 183.317 17.458 183.344 17.6871C182.307 17.7453 181.408 17.6886 180.447 17.7143C180.282 17.7185 180.398 17.9271 180.254 17.9271C180.093 17.9267 180.204 17.716 180.173 17.7141C179.765 17.7091 179.639 17.9221 179.589 17.9187C179.461 17.9093 179.563 17.7064 179.191 17.6467C178.501 17.5353 177.993 18.073 178.164 17.1728C177.938 17.1713 177.712 17.1698 177.484 17.1683C177.424 17.4133 177.363 17.6582 177.302 17.9032C175.895 16.9035 175.243 18.6374 174.52 17.2544C174.275 17.4636 174.028 17.6727 173.781 17.8819C173.643 17.6358 173.505 17.3897 173.367 17.1436C173.339 17.354 173.311 17.5644 173.282 17.7748C171.95 17.6122 170.5 17.8578 169.177 17.8276C168.246 17.8066 168.05 17.7227 167.268 17.7354C165.526 17.7645 167.261 17.3533 165.809 16.8967C165.884 17.1551 165.959 17.4136 166.034 17.672C165.792 17.7657 165.55 17.8595 165.308 17.9532C165.14 17.7421 164.971 17.5309 164.803 17.3198C164.048 18.4094 163.558 17.5263 163.455 17.526C163.371 17.5277 163.085 18.1842 162.182 17.6249C162.555 18.5248 161.491 17.6283 161.404 17.6228C161.322 17.619 160.279 17.8171 159.884 17.8079C159.564 17.8008 158.88 17.6059 158.399 17.6145C157.974 17.6222 158.016 17.9274 157.985 17.9305C157.461 17.955 157.79 17.7185 157.411 17.7062C157.031 17.694 156.735 17.9537 156.652 17.9303C156.611 17.9179 156.75 17.6338 156.56 17.6061C156.052 17.5306 155.126 17.7784 154.536 17.7706C154.327 17.7681 154.064 17.5268 153.83 17.5192C153.472 17.5085 153.304 17.8287 153.096 17.8191C153.027 17.8149 152.547 17.3199 151.999 17.3958C151.893 17.411 151.582 18.458 151.167 16.9746C151.135 17.1833 151.103 17.3921 151.071 17.6008C149.194 18.1178 148.661 16.4227 147.818 17.9283C146.436 17.7616 147.384 17.1744 147.232 17.0848C147.134 17.0281 146.683 17.1898 146.633 17.1807C146.545 17.1628 146.56 16.9746 146.463 16.9758C144.692 17.0131 145.478 17.3673 144.916 17.5933C143.568 18.1314 142.549 16.9439 144.861 17.2967C144.861 17.1918 144.86 17.0868 144.86 16.9818C144.275 17.0831 142.859 17.0384 143.331 16.505C143.677 16.0844 147.158 16.3528 145.196 15.7673C144.754 15.6349 144.513 16.0292 143.756 15.292C143.259 15.2529 143.19 16.21 142.515 15.8275C142.627 16.1611 142.738 16.4947 142.85 16.8283C141.932 17.2654 140.791 16.6847 140.08 16.8739C139.838 16.9383 138.97 18.5328 139.168 16.9408C138.762 17.0412 136.833 16.755 136.473 16.8992C136.388 16.9341 136.272 17.7816 135.029 17.4912C134.943 17.3854 134.857 17.2795 134.772 17.1737C135.894 16.8602 133.907 16.5552 134.443 15.7488C134.629 16.1093 135.519 16.3259 135.672 16.507C135.923 16.8188 135.181 17.225 136.128 17.1112C136.72 15.765 135.013 16.3904 135.27 15.1135C134.052 15.7144 133.926 15.1469 133.649 15.1245C132.463 15.0341 131.715 15.1732 130.589 15.0306C130.317 15.2941 132.354 15.6613 132.603 15.5471C131.683 16.4808 133.276 16.5146 133.942 15.9599C134 16.2404 134.057 16.5209 134.115 16.8014C133.243 16.6532 132.39 16.5793 131.523 16.8144C131.466 16.7097 131.409 16.605 131.352 16.5004C131.546 16.3412 131.739 16.1821 131.933 16.023C131.21 15.768 131.648 16.5843 130.681 15.8724C130.653 16.1887 130.625 16.505 130.597 16.8213C129.672 16.7216 128.745 16.6222 127.816 16.5233C127.334 17.1603 125.553 16.9365 125.875 16.1135C125.161 16.0607 126.045 16.4912 125.377 16.6957C125.087 16.7844 124.518 16.813 124.375 16.5933C124.43 15.8112 125.282 15.7078 125.535 15.1693C125.38 14.9966 121.412 15.586 121.757 14.6695C121.438 14.5623 121.588 15.0319 121.016 15.1574C119.412 15.5071 116.903 14.6005 115.629 15.7818C117.151 16.4161 117.592 15.7235 118.76 15.6849C119.509 15.659 124.039 15.5106 123.033 16.3455C123.198 16.2392 123.363 16.1329 123.529 16.0266C123.699 16.2713 123.868 16.5159 124.038 16.7606C123.565 16.7996 123.093 16.8388 122.619 16.878C122.504 16.6336 122.389 16.3892 122.274 16.1447C122.223 16.3203 122.173 16.4959 122.122 16.6715C121.923 16.708 121.723 16.7444 121.524 16.7809C121.578 16.5699 121.633 16.3588 121.687 16.1478C121.379 16.1144 121.071 16.081 120.762 16.0477C120.848 16.3283 120.933 16.609 121.018 16.8896C119.569 16.973 120.058 16.7926 119.248 16.2737C118.646 16.2254 119.667 16.7567 118.396 16.906C116.917 17.0799 117.878 16.2105 115.971 16.4137C115.945 16.5543 115.919 16.695 115.893 16.8356C115.472 16.6996 115.051 16.5637 114.629 16.4278C114.687 16.6018 114.744 16.7757 114.801 16.9497C113.934 16.8913 112.743 17.2379 112.448 16.5566C113.331 16.8762 113.308 15.6807 113.077 15.4635C112.602 15.0157 105.626 15.5236 104.275 15.5756C102.547 15.639 101.236 15.2764 99.6707 15.8907C100.744 16.355 104.497 15.9023 105.216 16.2267C105.287 16.2585 105.283 17.3547 105.72 16.1152C107.186 16.3038 108.932 15.9311 110.76 15.9448C110.708 16.261 110.656 16.5772 110.604 16.8934C109.472 16.2361 108.451 17.7236 108.582 16.4959C108.358 16.4988 108.134 16.5017 107.911 16.5047C107.914 16.7158 107.916 16.927 107.919 17.1381C107.582 17.1426 107.245 17.1471 106.908 17.1517C106.905 16.9405 106.902 16.7294 106.899 16.5182C106.62 16.522 106.341 16.5259 106.061 16.5298C106.035 16.7407 106.009 16.9517 105.983 17.1626C105.14 16.7365 102.311 17.9484 103.543 16.6723C103.151 16.6781 102.759 16.6841 102.367 16.6901C102.37 16.8445 102.374 16.9989 102.378 17.1532C102.21 17.1766 102.041 17.1999 101.873 17.2233C101.927 17.0827 101.98 16.9421 102.033 16.8015C101.265 17.0639 100.522 16.3399 100.023 16.8317C100.359 16.9318 100.695 17.032 101.031 17.1322C100.386 16.9418 99.2151 17.3769 99.1071 17.3798C98.7831 17.3873 98.607 17.0781 98.2559 17.0682C97.939 17.0601 97.9868 17.2992 97.9276 17.2918C96.2165 17.0774 96.8437 15.7678 96.0752 17.319C95.9867 17.1107 95.8982 16.9023 95.8097 16.6939C95.7001 16.8711 95.5906 17.0483 95.4811 17.2255C94.9779 17.2182 94.4751 17.2111 93.9728 17.2042C94.1452 17.4634 94.3176 17.7227 94.49 17.9819C93.7396 18.1132 93.3792 17.594 93.3062 17.5833C93.0996 17.5567 93.0118 17.8887 92.9482 17.8906C89.8899 17.9229 91.7425 17.595 90.1892 16.3859C89.6477 16.8842 90.2163 17.3605 90.3043 17.8541C89.5671 17.6371 89.3409 17.7791 88.5686 17.7683C88.3677 17.7651 88.1461 17.5027 88.0195 17.5018C87.9098 17.5011 87.5735 17.7925 87.3108 17.7996C86.8729 17.8114 86.2869 17.6554 85.6893 17.6734C85.192 17.689 83.6786 17.9254 82.6262 17.9538C82.1768 17.965 82.2752 17.7249 82.1592 17.7273C82.1109 17.7286 81.7683 18.0218 81.4809 18.0302C79.0848 18.0976 76.6432 17.9847 74.2855 18.0606C72.65 18.1126 70.8919 18.3971 69.2159 18.43C68.8575 18.4367 69.0401 18.2216 68.8835 18.2195C68.8299 18.2194 68.7771 18.5858 68.2202 18.4582C68.0191 18.4122 68.2395 18.1496 68.0431 18.1437C67.9477 18.1409 67.9176 18.4615 67.3645 18.5537C66.3601 18.722 65.8077 18.3161 65.7184 18.3319C65.5506 18.3626 65.6094 18.625 65.3866 18.6426C64.3162 18.7282 63.3485 18.8097 62.3572 18.8706C61.8838 18.8984 58.7103 19.0821 58.5427 19.0428C58.1522 18.9538 58.4876 18.3867 57.9938 18.4268C57.8614 18.5724 57.7293 18.718 57.5973 18.8637C57.8212 18.9602 58.0455 19.0568 58.2701 19.1535C57.6564 19.0021 56.9847 19.283 56.5409 19.2933C56.4727 19.2941 55.6577 19.0802 55.2609 19.1259C55.4268 19.0144 55.5929 18.9029 55.7595 18.7915C55.6949 18.7059 55.6303 18.6202 55.5658 18.5346C54.767 18.7053 53.9227 18.7416 53.1106 18.7618C52.818 18.7696 52.9061 18.55 52.6104 18.5571C50.8944 18.5967 51.3719 19.4677 49.6602 17.8763C50.2101 17.999 52.2195 17.6838 52.5226 17.7254C52.7306 17.7543 53.6031 19.1317 53.238 17.6925C54.9043 17.6194 53.4915 18.4896 55.0473 18.2413C55.0078 18.0653 54.9683 17.8894 54.9287 17.7134C55.4713 17.5762 55.8747 17.4681 56.2243 17.7661C56.2981 16.9 58.1089 17.3244 59.1074 17.2248C60.544 17.0818 62.1854 16.8061 63.6483 16.7138C64.1531 16.6821 64.4502 17.009 64.5082 17.0058C64.5972 17.0001 64.8371 16.6953 65.0156 16.6866C65.6794 16.6533 67.7406 17.0808 68.2268 16.243C64.274 16.3779 60.0984 16.5397 56.1811 16.716C56.7079 17.0946 52.5705 17.3264 52.3782 17.3182C52.1864 17.3096 52.3332 17.0187 52.2755 17.0043C51.8467 16.9038 51.5086 17.3321 51.3754 17.3388C51.2739 17.3439 51.0588 17.1617 50.6994 17.1843C50.6334 17.1883 50.6256 17.3929 50.5548 17.3971C50.0865 17.4212 49.6265 17.4424 49.1618 17.4682C49.1334 17.4677 49.0003 17.1766 48.8831 17.1823C48.7656 17.1886 48.6658 17.492 48.6363 17.4945C48.2468 17.5133 47.5628 17.3571 47.1939 17.3757C47.0656 17.3829 47.1667 17.5957 47.023 17.6016C46.5824 17.6212 46.7026 17.1868 46.1668 17.3275C45.9876 17.3749 46.0178 17.7001 45.6694 17.6772C45.423 17.6608 45.4155 17.0786 45.3755 17.0597C45.3195 17.0373 44.5069 17.5456 44.2123 17.1821C44.7482 16.1427 43.557 17.1692 43.6446 17.5891C43.3098 17.5026 42.9763 17.4163 42.6444 17.3302C42.5402 17.4444 42.4363 17.5586 42.3327 17.6728C41.0409 17.2702 40.1206 17.6225 38.7968 17.5657C38.73 17.5627 37.5987 17.4041 37.6411 17.2498C38.2853 16.9425 38.9576 16.8835 39.4245 17.3331C40.0781 16.37 40.1367 17.0972 41.3035 16.8988C41.6725 16.8334 41.6794 16.584 41.7223 16.578C43.1375 16.3617 45.4938 16.114 46.55 16.7829C46.8214 16.5705 45.8014 16.5507 46.1877 16.3836C46.426 16.2861 51.5113 15.7832 49.929 16.7053C50.0943 16.6735 50.2599 16.6417 50.4259 16.6099C50.5516 15.8117 51.3974 15.9498 51.3422 16.741C51.4134 16.5761 51.4847 16.4112 51.5561 16.2463C51.7064 16.1022 51.8888 16.02 52.1485 15.9638C53.1506 15.7438 59.1585 15.75 59.4509 15.6289C59.4503 15.442 59.4497 15.2551 59.4491 15.0682C56.8501 14.9649 54.2412 15.5467 51.3492 15.1567C51.4411 15.3274 51.533 15.4982 51.625 15.669C50.464 15.4814 49.3475 15.2938 48.1837 15.1114C49.3789 14.7284 51.25 14.3654 52.5521 14.5636C52.782 14.599 52.6271 14.8511 52.6808 14.8781C52.8213 14.9482 52.9473 14.5177 53.4391 14.4529C53.9299 14.388 55.1959 14.63 55.3117 14.6164C55.5287 14.589 56.1255 14.0766 56.4756 14.0672C56.9526 14.0545 56.6464 14.3685 56.7423 14.3706C57.1396 14.3826 57.4895 14.2184 57.8027 14.2271C58.2671 14.24 59.2575 14.7265 59.5533 13.9387C59.2173 13.9172 58.8821 13.8958 58.5479 13.8745C60.3426 13.5205 61.8128 14.4532 63.6084 13.6205C63.9882 12.667 62.4832 12.851 63.7447 12.4024C63.5131 12.4245 63.2819 12.4468 63.051 12.469C63.0043 12.6675 62.9576 12.8659 62.911 13.0644C62.5077 12.9394 62.1054 12.8146 61.7041 12.6899C61.8239 12.8605 61.9438 13.0311 62.0637 13.2017C60.6631 13.3885 59.2738 13.6262 58.7528 12.7058C58.734 12.9345 58.7152 13.1631 58.6964 13.3918C57.4019 13.1689 55.5517 14.2182 55.8395 12.9373C55.7799 13.0072 55.7202 13.0771 55.6607 13.147C54.8506 12.9247 55.2158 13.4325 54.9193 13.5054C54.833 13.5257 53.2836 13.3279 53.9468 12.9202C52.4371 12.7042 52.9577 13.865 52.5502 13.9367C51.5689 13.3969 49.9328 14.362 50.5929 13.4002C50.4516 13.3726 50.3106 13.345 50.1698 13.3174C49.7508 14.0692 49.2602 13.2688 48.7553 13.0195C48.5863 13.0121 48.4293 13.004 48.249 12.9973C48.1445 13.2486 48.0403 13.5 47.9364 13.7514C46.2277 12.6761 46.9308 15.8361 46.0344 13.1994C46.1408 13.0325 46.2475 12.8657 46.3543 12.6988C46.6251 12.6071 46.8969 12.5154 47.1697 12.4238C46.0482 12.4152 44.9422 12.4084 43.8525 12.4034C42.4095 11.7379 41.7814 12.5946 40.1262 12.1083C39.982 12.1895 39.8382 12.2708 39.6948 12.352C39.8051 11.7356 40.3864 11.7856 39.2966 11.5863C39.1757 11.1639 39.8955 11.0592 40.2507 11.366C40.336 11.4409 39.6767 11.8146 40.4434 11.7753C40.9535 11.7501 40.0256 11.2929 41.5246 11.3873C41.4635 11.286 41.4025 11.1847 41.3413 11.0835C41.5004 11.0763 41.6598 11.0691 41.8196 11.062C41.977 11.2954 42.1346 11.5288 42.2922 11.7623C42.6366 11.3891 42.8105 10.8853 43.6647 10.9381C43.4441 11.104 43.7849 11.5718 44.2058 11.5384C44.1953 11.3629 44.1848 11.1874 44.1743 11.012C45.1918 10.8382 44.8675 11.374 45.7029 10.9222C45.7971 11.0568 45.8913 11.1914 45.9856 11.326C46.4183 10.7237 48.1514 10.236 47.879 11.1158C48.3439 10.25 49.3148 10.5776 49.725 11.2283C49.7442 11.0525 49.7633 10.8768 49.7825 10.701C49.9764 10.6554 50.1708 10.61 50.3656 10.5645C50.4807 10.6644 50.5958 10.7642 50.7111 10.8641C50.8454 10.7515 50.98 10.639 51.1147 10.5265C51.2081 10.6972 51.3015 10.8679 51.395 11.0386C51.61 10.8176 51.8257 10.5967 52.0421 10.3759C52.1877 10.5087 52.3335 10.6414 52.4794 10.7743C52.4744 10.4085 53.855 10.2607 54.2577 10.4823C54.3689 10.3708 54.4802 10.2593 54.5917 10.1479C54.6566 10.319 54.7216 10.4901 54.7865 10.6613C54.8668 10.5182 54.9472 10.3753 55.0277 10.2323C55.2343 10.3621 55.4411 10.492 55.6482 10.6219C56.4234 9.73336 56.4608 10.4809 56.6444 10.4674C56.9745 10.4429 58.0883 9.86024 58.2814 9.87968C58.4733 9.89923 58.5784 10.2011 58.7337 10.2234C61.304 10.5979 60.2254 9.82122 60.7334 9.6702C61.0089 9.58827 61.2178 9.86571 61.4634 9.82433C61.8792 9.75444 64.0192 9.29469 64.1398 9.32768C64.3156 9.37455 63.9563 10.7353 64.5086 10.3675C64.4999 9.64424 65.7402 10.3293 65.1362 9.3423C65.6394 9.41253 66.1443 9.483 66.6507 9.55373C66.5635 8.69922 67.2033 9.22817 67.8816 9.15738C68.8394 9.05733 71.012 8.423 70.9613 9.30453C71.1883 9.09514 71.4157 8.8858 71.6436 8.67649C73.2597 8.9025 74.7505 8.56787 76.3252 8.51251C81.0172 8.34611 86.0177 8.41733 90.6872 8.49516C90.9086 8.49918 90.8827 8.78698 91.0422 8.79008C91.8793 8.8045 94.058 8.55881 95.2399 8.60079C95.6183 8.61392 95.8075 8.89071 95.9276 8.9014C96.3355 8.9395 96.2328 8.57219 96.4206 8.57939C96.7166 8.59093 98.2891 8.90619 98.8302 8.93318C99.0989 8.94644 99.4075 8.64798 99.72 8.73342C99.747 8.74034 99.7025 9.0434 99.7252 9.04831C100.293 9.07601 99.9475 8.82034 100.139 8.83095C101.509 8.90695 102.973 8.89036 104.461 8.93113C104.831 8.94161 105.399 9.14662 105.716 9.16227C105.837 9.16767 105.617 8.94137 106.036 8.95455C106.179 8.95906 106.232 9.2566 106.394 9.27371C107.092 9.34552 107.312 8.38408 107.921 9.14694C109.076 9.08081 111.084 8.80991 112.138 8.79254C112.387 8.78876 112.51 8.96349 112.748 8.95763C112.916 8.9536 113.21 8.67737 113.472 8.67113C113.735 8.66503 114.153 8.92028 114.658 8.90535C115.19 8.89007 115.849 8.72888 115.969 8.7286C116.114 8.72711 116.185 9.05463 116.329 9.04902C116.765 9.03396 117.937 8.69982 118.504 8.65966C119.112 8.61697 119.478 8.77281 119.686 8.76775C119.879 8.76162 120.1 8.48266 120.188 8.47944C120.325 8.474 120.36 8.79738 120.533 8.79317C120.817 8.7854 121.107 8.57932 121.532 8.57034C129.144 8.40566 136.72 8.54752 144.088 8.76932C144.929 8.79418 145.404 8.56634 146.634 8.66834C147.133 8.71001 146.923 9.04427 147.31 8.98068C147.482 8.95198 147.439 8.68932 147.656 8.67639C148.62 8.6205 149.733 8.86411 150.145 8.85978C150.309 8.85849 150.496 8.56008 150.831 8.55569C153.289 8.52144 156.399 8.60787 159.052 8.56142C160.429 8.53651 162.697 8.39021 164.337 8.3756C168.817 8.33395 173.753 8.42783 177.955 8.42637C184.08 8.42371 190.542 8.20501 196.769 8.60741C193.679 7.84761 189.77 7.86731 186.571 7.76082C177.155 7.45262 167.106 7.82017 157.441 7.78958C154.064 7.77884 149.853 7.79438 146.155 7.6326C145.987 7.62543 145.638 7.85536 145.273 7.83163C145.197 7.82606 144.23 7.40913 143.91 7.40556C144.211 8.14894 142.972 7.48832 142.587 7.50722C142.103 7.53171 141.092 7.90594 139.948 7.69912C138.91 7.51208 139.194 7.22507 139.137 7.20727C138.769 7.09248 138.642 7.55412 138.36 7.6017C137.187 7.79046 131.302 7.54918 129.643 7.54353C129.215 7.54185 129.201 7.24879 129.105 7.24831C128.85 7.24792 128.488 7.53971 128.078 7.54037C127.341 7.54084 126.48 7.27002 126.081 7.27179C125.119 7.27526 123.291 7.61543 122.033 7.63231C121.68 7.63715 121.699 7.33191 121.538 7.33432C120.834 7.34548 118.998 7.7214 118.119 7.73312C116.691 7.75204 115.237 7.56976 113.792 7.68611C113.699 7.55102 113.606 7.41594 113.513 7.28087C113.37 7.42528 113.227 7.56971 113.084 7.71415C110.64 7.63289 108.154 7.97073 105.722 7.98475C105.441 7.98644 104.051 7.74598 103.82 7.74841C103.627 7.75125 103.443 8.09115 103.158 8.04576C102.757 7.98288 103.123 7.33521 102.474 7.52874C102.3 7.58108 102.474 7.85327 102.123 7.94432C102.007 7.9744 99.7534 8.12168 99.6325 8.10492C99.4301 8.0762 99.2404 7.49047 99.188 7.47866C98.9154 7.41675 98.9337 7.86838 98.7516 7.91266C98.2138 8.04507 97.5039 7.75335 97.4164 7.76156C96.3578 7.8633 94.3882 8.26009 93.2782 8.06819C93.1246 8.04139 93.1365 7.7046 93.1094 7.6942C92.9346 7.62786 92.8344 8.01298 92.6698 8.02507C91.7806 8.08571 90.4023 7.85568 89.495 7.80937C89.391 7.80442 89.1759 7.9933 88.9905 7.9794C87.9423 7.8983 88.2754 7.59544 88.2156 7.58401C88.0741 7.5557 87.8336 7.88715 87.4599 7.91558C86.4963 7.99059 84.6533 7.98623 83.6282 7.98581C82.8599 7.98432 82.8628 7.61076 82.8122 7.60457C82.7043 7.59381 82.4128 7.89925 81.91 7.94566C80.945 8.03654 81.0419 7.74071 80.6375 7.76375C80.6033 7.76464 80.6699 8.05014 80.2204 8.09143C79.3508 8.17079 77.3987 7.94133 76.479 7.98244C76.1249 7.99777 76.05 8.27692 75.6882 8.29261C75.114 8.31847 73.8159 8.05739 73.715 8.0613C73.6866 8.06216 73.6323 8.38252 73.4653 8.38758C73.2815 8.39309 73.0958 8.23471 72.9592 8.23995C72.1874 8.26777 70.8074 8.86799 71.1588 7.7191C70.9117 8.00786 70.6652 8.29667 70.4192 8.58554C68.7502 8.58355 67.1496 8.75079 65.533 8.8662C65.1694 8.89197 64.8585 8.68784 64.5528 8.70956C64.2641 8.73055 62.8683 9.13971 62.6395 9.15543C62.2211 9.18251 59.8836 9.3134 59.5976 9.30045C59.0318 9.27511 58.4681 8.82856 58.2441 8.93012C58.0646 9.01181 58.2446 9.26915 57.8999 9.35899C57.3026 9.51435 56.2727 9.21937 56.0915 9.23286C56.0096 9.23873 56.1839 9.43732 55.4184 9.48678C55.0084 9.51386 54.7786 9.29685 54.6304 9.30475C54.5847 9.30812 54.6692 9.67309 53.8617 9.66138C53.3048 9.65272 53.0562 9.37995 52.998 9.38167C52.9109 9.38396 52.7154 9.69727 52.3671 9.70368C51.551 9.71664 50.0629 9.44351 49.3075 9.457C49.1613 9.45942 49.2292 9.82295 48.6474 9.82015C48.2311 9.81808 48.2916 9.5227 48.1309 9.51966C47.8691 9.51584 47.5004 9.89362 46.9297 9.91381C46.1761 9.93553 40.9988 9.87922 40.741 9.80509C40.5478 9.75313 40.3291 9.76352 40.2255 9.61153C40.2953 9.45459 40.3652 9.29766 40.4354 9.14073C41.3025 9.61832 40.9104 9.03332 41.1228 8.98024C41.4157 8.90486 42.5542 8.91084 42.8239 8.75894C42.9197 8.70411 42.6731 8.39418 43.1939 8.19503C43.754 7.98208 44.045 8.54336 44.2274 7.74199C45.0967 8.56793 45.838 7.59406 44.8681 7.40156C44.3122 7.29026 39.1746 7.30052 38.0339 7.33862C37.1552 7.36064 35.5666 7.71264 34.5367 7.73308C33.9803 7.73931 32.3091 7.83506 32.3597 7.41052C31.7833 7.40566 32.4233 7.77129 32.3081 7.83925C32.0618 7.98047 30.2801 7.84508 29.9602 7.88665C28.4014 8.08125 26.3222 8.75638 24.6513 8.40833C24.7135 8.28853 24.776 8.16874 24.8388 8.04896C25.1713 7.80385 26.9188 7.91933 27.0696 7.3641C24.4485 7.62776 22.3313 7.86292 19.6115 8.23096C19.6735 8.67814 16.7334 9.10377 16.4723 8.94588C16.4974 8.71674 16.5231 8.48756 16.5492 8.25837C18.4037 8.82064 18.0603 7.75049 19.3289 8.16819C19.8142 8.10978 19.6191 7.76628 19.8509 7.66451C22.204 6.65805 19.9707 8.40396 21.8252 7.83879C21.2284 7.37576 22.6131 7.00887 23.2354 6.87055C23.3695 6.83807 25.3176 6.75895 25.5603 6.72705C26.9373 6.53284 29.0169 6.04163 30.3095 6.22118C31.3093 6.16793 31.8361 5.74279 32.7636 5.57856C33.4703 5.45427 33.2883 5.73663 33.6256 5.71287C34.2936 5.66724 34.4344 4.84266 34.9443 5.93861C35.3787 5.76393 35.8172 5.58963 36.2595 5.4157C36.2724 5.591 36.2853 5.7663 36.2982 5.9416C36.5823 5.9207 36.8677 5.89994 37.1545 5.87935C37.2264 5.69857 37.2984 5.51781 37.3707 5.33705C38.3035 5.51145 37.9514 5.96088 38.1573 6.44527C38.3582 6.4655 38.5597 6.4858 38.7617 6.50618C38.8901 6.11438 39.0192 5.72261 39.149 5.33086C40.0571 5.30047 40.9486 5.27355 41.7911 5.25155C41.8574 5.42288 41.9237 5.59421 41.99 5.76556C41.9808 5.59063 41.9716 5.41569 41.9624 5.24076C43.4098 5.1137 44.8869 4.99003 46.3918 4.86959C46.7734 4.56607 44.3595 4.49059 44.1849 4.4851C43.1699 4.45044 40.5962 4.89607 40.5584 4.27379C39.9415 4.78001 38.0107 4.79552 37.3887 4.28027C38.284 4.25027 39.1921 4.22178 40.1126 4.19474C40.0692 3.98781 40.0257 3.78088 39.9822 3.57395C41.1763 4.34176 41.2765 4.28886 42.3517 3.42225C42.3701 3.7024 42.3886 3.98254 42.407 4.2627C43.1222 3.23975 44.617 4.8102 44.5874 3.60483C45.0152 3.67759 45.4452 3.75063 45.8771 3.82394C46.7754 3.62731 45.3575 2.77338 48.9049 2.94714C49.1458 2.9599 49.1116 3.2691 49.4715 3.22924C49.5758 3.21758 50.1468 2.74023 51.3051 2.72922C51.486 2.72769 51.5128 2.99305 51.7021 3.01759C52.1387 3.0764 52.9827 2.5085 52.6295 3.38494C54.3719 3.55253 53.6231 2.88313 54.1494 2.57806C54.5018 2.3757 54.4525 2.88645 54.7603 2.75704C55.1296 2.59737 54.8735 2.09562 56.3659 2.2652C56.2002 2.30733 56.0346 2.34949 55.8694 2.39169C55.9595 2.52696 56.0496 2.66225 56.1398 2.79754C56.9754 2.42643 56.9173 2.91751 57.2863 2.11876C57.9235 2.44037 58.4642 2.44515 59.3211 2.34632C60.9905 2.15459 60.0947 1.34678 62.0667 2.40514C62.3736 2.23383 62.6813 2.06261 62.9899 1.89149C63.5188 2.20671 63.1207 2.64102 63.8898 2.69685C63.2764 1.8916 64.8585 2.13477 65.1003 1.38816C65.1347 1.56281 65.169 1.73746 65.2034 1.91211C65.3706 1.90606 65.5381 1.90004 65.7056 1.89405C65.7011 1.75314 65.6966 1.61222 65.6921 1.47131C65.9192 1.56885 66.1464 1.66644 66.3741 1.76407C66.5375 1.61847 66.7011 1.47288 66.8651 1.32732C67.1528 1.61227 67.4409 1.8973 67.7291 2.18241C67.9044 2.19656 68.08 2.21075 68.2557 2.22496C68.1932 2.017 68.1307 1.80904 68.0682 1.60109C68.2956 1.6636 68.5231 1.72617 68.7509 1.78878C68.4772 1.45327 68.6277 1.0439 69.3318 1.0312C69.9136 1.02062 69.2808 1.76051 70.5237 1.42107C70.6109 1.39703 70.7472 0.879159 71.9358 0.762706C73.3391 0.624248 72.664 1.01683 72.9146 1.02198C72.9633 1.0226 73.3801 0.751709 73.7778 0.702819C74.0035 0.675 74.228 0.876809 74.2578 0.875381C74.3974 0.861741 74.4294 0.565888 74.6231 0.549546C75.1148 0.509722 75.7818 0.634992 76.2663 0.606578C76.4865 0.593999 76.6892 0.413599 76.7877 0.408731C76.9404 0.402434 77.1418 0.663672 77.2965 0.658335C77.8671 0.636896 78.7137 -0.271262 79.0132 0.950564C79.5344 -0.194269 80.7303 1.14197 80.6259 0.386337C82.0916 0.633607 85.9537 -0.38757 85.8737 0.889117C86.6782 -0.21865 86.6225 0.57169 86.9699 0.547546C87.3588 0.520936 87.1524 0.314195 87.4622 0.316869C88.1856 0.323154 88.8797 0.399019 89.6019 0.388108C89.4922 0.565 89.3825 0.741901 89.2729 0.91881C90.0313 0.958892 89.7648 0.558131 90.5255 0.464191C91.9261 0.292991 91.3415 0.629159 91.5579 1.08242C91.4929 0.641758 93.1524 0.677793 93.323 0.732822C93.4246 0.766338 92.9935 1.34393 94.007 1.14101C93.9481 0.966922 93.8891 0.792842 93.8302 0.618762C94.2979 0.849409 95.553 0.522246 95.7685 0.577369C95.8674 0.603055 96.4184 2.00599 96.8805 0.879838C96.9417 1.05395 97.0029 1.22807 97.0641 1.40219C97.5955 1.18228 98.1273 0.962552 98.6597 0.742997C98.7506 1.05705 98.8414 1.37112 98.9322 1.68519C99.1023 1.68234 99.2701 1.67955 99.4391 1.67676C99.3224 1.39851 99.2058 1.12026 99.0891 0.842021C100.133 0.951351 101.402 0.489577 101.632 1.43098C101.852 1.25235 102.073 1.07375 102.294 0.895174C102.445 1.20723 102.595 1.51929 102.745 1.83137C103.78 1.7365 103.794 1.52624 104.498 1.181C104.474 1.42673 104.449 1.67246 104.425 1.91819C104.943 1.56613 105.893 1.23188 106.647 1.17831C107.006 1.15342 107.626 1.48328 107.71 1.45154C107.795 1.41807 108.619 0.0788631 108.726 1.22773C109.957 0.70256 110.509 1.21627 111.011 1.19752C111.337 1.18507 111.482 0.90729 111.851 0.874445C112.378 0.827064 112.91 0.954486 113.214 0.932073C113.388 0.9185 113.417 0.648938 113.537 0.639151C114.104 0.591818 113.775 0.870531 114.372 0.846073C114.427 0.842368 114.861 0.509265 115.353 0.546319C115.629 0.566748 116.344 0.928844 116.407 0.927332C116.685 0.918205 116.454 0.18193 117.416 1.02533C117.387 0.885236 117.357 0.745138 117.328 0.605041C118.509 0.237386 118.701 0.861712 118.941 0.902783C118.971 0.90606 119.257 0.661461 119.43 0.693213C119.721 0.747553 119.841 1.07774 119.906 1.09175C120.133 1.14043 120.896 0.987989 121.397 1.30399C121.284 0.36216 123.028 0.0124794 123.422 1.07692C123.729 0.863952 124.035 0.651026 124.342 0.438146C124.483 0.612866 124.623 0.787597 124.764 0.962337C124.847 0.786549 124.931 0.610764 125.014 0.434983C125.466 0.817415 125.916 1.19995 126.367 1.58257C126.393 1.19604 126.42 0.80951 126.446 0.422979C126.573 0.466047 126.701 0.509123 126.828 0.552206C126.929 0.858525 127.031 1.16485 127.132 1.47118C127.29 1.41153 127.448 1.35189 127.606 1.29226C127.644 1.06985 127.682 0.847438 127.72 0.625026C128.57 0.36351 128.147 2.48493 129.754 0.612427C130.007 0.786107 130.259 0.959817 130.512 1.13356C130.791 0.279433 131.325 0.792704 131.752 0.694628C132.054 0.625417 132.036 0.286836 132.446 0.277208C132.857 0.267726 132.843 0.591692 132.875 0.593642C133.21 0.611904 133.46 0.325128 133.706 0.380873C133.743 0.389153 133.837 0.773313 134.149 0.796274C134.461 0.819148 134.647 0.409234 135.11 0.484359C135.347 0.522445 135.423 0.846178 135.637 0.873952C136.661 1.00914 137.683 -0.635604 138.452 1.3082C138.623 1.06097 139.865 0.193761 140.395 0.241953C141.219 0.318902 140.903 0.70161 141.23 0.77064C141.277 0.781091 141.528 0.651412 142.216 0.672951C142.339 0.676857 142.31 0.46136 142.328 0.458459C143.125 0.460739 144.693 0.627866 145.598 0.657277C145.678 0.660335 146.098 0.0588072 146.807 0.866246C147.857 0.267896 149.82 1.54925 151.177 0.649414C151.365 0.630387 151.593 0.845336 151.677 0.838022C152.396 0.771598 152.118 0.118758 153.791 1.07499C153.656 0.742127 154.047 0.441914 154.596 0.467685C155.421 0.506464 154.835 1.12649 155.496 1.07643C155.496 0.901263 155.497 0.726098 155.497 0.550932C157.013 1.02383 157.313 0.27537 158.814 0.273847C159.353 0.273789 160.142 0.663673 160.269 0.665028C160.315 0.663988 160.912 0.243062 160.974 0.24005C161.302 0.228168 161.487 0.423361 161.769 0.425153C162.702 0.431686 163.801 -0.114282 163.6 0.882617C163.853 0.672831 164.107 0.463065 164.359 0.253322C165.307 1.32165 166.014 -0.143855 166.207 0.891457C166.376 0.678464 166.544 0.465481 166.713 0.252508C170.823 0.376396 174.743 0.505133 178.967 0.642129C179.136 0.310298 180.895 0.44103 180.979 0.493533C181.385 0.731209 180.951 1.45387 181.781 1.29423C181.874 0.976949 181.968 0.659673 182.062 0.3424C183.106 0.24694 182.618 0.559605 183.046 0.778557C183.23 0.74081 183.173 0.49357 183.421 0.477605C184.784 0.390062 187.425 0.401561 188.776 0.394606C189.079 0.393282 189.031 0.623515 189.125 0.625004C189.382 0.62537 189.89 0.339604 190.394 0.344503C193.445 0.376773 197.669 0.58926 200.828 0.877866C201.04 0.89773 201.061 1.1732 201.202 1.18892C201.398 1.20956 201.829 0.993313 202.024 1.01942C202.209 1.04326 202.323 1.25393 202.516 1.28119C203.285 1.40658 204.904 1.07899 205.763 1.7104C205.802 1.73707 206.062 2.03154 206.299 2.32836C206.579 2.62593 206.919 2.92744 206.923 2.96385C207.057 3.3978 206.051 4.05556 207.684 4.7185C206.159 5.23987 206.801 6.2237 208.423 6.73408C208.039 6.78688 207.603 6.83921 207.114 6.89112C206.869 6.91708 206.611 6.94293 206.341 6.96869C206.112 6.99521 205.935 7.02275 205.723 7.04971C205.72 7.16503 205.717 7.28034 205.713 7.39565C205.899 7.54183 206.079 7.66413 206.259 7.76646C206.504 7.86997 206.76 7.95375 207.01 8.02138C207.512 8.15666 208.025 8.22784 208.533 8.26585C208.499 8.3719 208.465 8.47796 208.43 8.58401C207.538 9.09721 205.876 9.16582 205.198 9.8828C205.783 10.1623 206.29 10.4406 207.024 10.7242C207.353 10.8653 207.657 11.0062 207.936 11.1469C208.075 11.2172 208.208 11.2875 208.335 11.3577C208.403 11.3929 208.443 11.4275 208.534 11.4633C208.639 11.4994 208.74 11.5355 208.835 11.5715C208.756 11.6538 208.674 11.7361 208.589 11.8184C208.076 12.0247 206.83 12.1284 206.189 12.3211C205.364 12.6953 205.706 12.8469 206.231 12.9639C206.921 13.084 207.633 13.1682 207.342 13.3996C206.207 13.3687 205.403 13.3465 204.387 13.3212C203.897 13.309 203.306 13.2954 202.825 13.2839C202.381 13.2729 201.918 13.2618 201.437 13.2506C201.204 13.5921 208.989 14.6871 208.774 15.7496C208.311 15.7738 208.162 15.8061 207.86 15.835C207.58 15.8645 207.274 15.8937 206.942 15.9227C207.232 16.1963 207.501 16.4697 207.749 16.7429C207.677 16.8263 207.604 16.9096 207.53 16.9929C207.055 17.0872 206.355 17.1781 205.887 17.2739C205.428 17.3698 204.933 17.4654 204.404 17.5608C207.34 17.3989 209.269 17.5969 209.54 19.7212C209.497 19.7733 209.445 19.8252 209.385 19.877C208.712 18.5309 205.588 18.8993 203.855 19.136C204.246 19.5286 205.704 19.2546 205.95 19.4918C206.027 19.5599 205.748 19.8233 205.928 19.9639C206.164 20.1467 207.06 20.3675 207.596 20.5931C207.878 20.7061 208.104 20.8207 208.241 20.9341C208.42 21.0484 208.556 21.1625 208.438 21.2691C208.211 21.4043 207.563 21.5558 206.303 21.6603C205.261 21.7689 204.231 21.8414 203.812 21.8199C205.528 22.3531 207.274 22.5275 208.946 23.185C208.816 23.2884 208.669 23.3947 208.506 23.5014C208.424 23.5547 208.338 23.6082 208.247 23.6615C208.169 23.7151 208.132 23.7695 208.072 23.823C207.848 24.0373 207.595 24.2446 207.29 24.4258C206.984 24.607 206.626 24.7621 206.178 24.872C205.723 24.9818 205.431 25.0508 204.939 25.0541C204.314 25.491 208.428 26.1889 208.508 26.4412C208.403 26.4715 208.291 26.5017 208.171 26.5318C208.086 26.5627 208.025 26.5943 207.949 26.6255C207.801 26.6879 207.643 26.7503 207.475 26.8126C207.141 26.9372 206.768 27.0614 206.36 27.1853C207.048 27.128 207.633 27.0698 208.104 27.0104C208.104 27.0983 208.103 27.1862 208.102 27.274C207.502 27.4643 206.677 27.7371 205.804 27.9533C205.12 28.1729 204.333 28.3341 203.35 28.2933C203.416 28.7593 204.556 28.7313 205.034 28.7439ZM29.4607 5.22747C29.3876 4.84688 30.0775 4.84791 30.4692 4.82115C30.4044 4.75638 30.3397 4.69162 30.275 4.62688C31.1076 4.62549 32.7069 4.64136 32.7087 3.89108C33.316 3.74845 33.0968 4.41911 33.3012 4.4769C33.3999 4.49858 34.1125 4.0619 34.7446 4.47564C34.8865 4.46291 35.0288 4.45021 35.1715 4.43756C35.1805 4.19081 35.1897 3.94406 35.1989 3.69731C35.4209 3.97921 35.6433 4.26122 35.8659 4.54334C33.8532 4.74516 31.5569 4.9837 29.4638 5.22718C29.4627 5.22728 29.4617 5.22738 29.4607 5.22747ZM50.5873 3.48197C51.3531 3.58166 52.5411 3.74291 52.271 3.0833C51.7868 3.14223 51.305 3.20145 50.8257 3.26096C50.7462 3.33462 50.6667 3.40829 50.5873 3.48197ZM126.283 2.2112C126.924 2.86834 127.509 2.29212 128.493 2.40535C128.491 2.2656 128.489 2.12584 128.486 1.98608C128.087 2.32417 127.02 2.1078 126.283 2.2112ZM9.32234 10.8573C9.13847 10.856 8.9546 10.8561 8.77052 10.8577C9.24905 9.93133 9.52588 10.4028 10.3068 10.1236C10.3543 10.1067 10.2948 9.94442 10.3116 9.93905C10.5074 9.87704 10.7417 10.0322 10.9215 9.9853C11.2692 9.89504 11.5068 9.62219 12.1492 9.48909C12.6125 9.39552 12.6395 9.7281 12.7876 9.68826C12.8974 9.65518 13.9257 8.5223 14.8183 8.76335C15.664 8.99506 14.4213 9.43173 13.0444 9.84199C11.6293 10.2454 9.52899 10.8229 9.32234 10.8573ZM0.914712 14.6512C1.40316 14.1576 1.87535 13.7564 2.32479 13.4126C1.79172 14.1575 2.23293 13.9148 2.98299 13.4331C3.35721 13.1967 3.80282 12.9204 4.24927 12.6689C4.50151 12.527 4.62688 12.4597 4.76976 12.383C4.91063 12.3077 5.04873 12.2361 5.17997 12.171C5.22456 12.2847 5.11495 12.4234 4.90784 12.5874C4.7642 12.7189 4.24382 13.0164 3.6748 13.3974C2.55368 14.116 0.901647 15.5205 0.000958889 17.0908C0.257761 16.1891 0.579532 15.3809 0.914712 14.6512ZM23.7334 8.7744C23.2069 8.88457 23.2268 8.27192 23.2277 8.0898C23.3967 8.07019 23.5667 8.05069 23.7374 8.0313C23.736 8.279 23.7346 8.52671 23.7334 8.7744ZM19.6067 9.50317C19.7195 9.07048 20.9312 8.7266 21.5375 8.61805C21.5641 8.61471 21.4252 8.85976 21.8516 8.78564C21.9871 8.76136 22.9941 7.81209 22.8617 8.76869C21.921 8.98571 20.6627 9.25037 19.6084 9.50294C19.6078 9.50302 19.6073 9.50309 19.6067 9.50317ZM18.3655 9.43375C18.5686 9.27315 18.7744 9.11275 18.9826 8.95256C19.1267 9.12754 19.2709 9.30267 19.4152 9.47794C19.1631 9.56232 18.9137 9.64703 18.6671 9.73208C18.5665 9.63256 18.466 9.53311 18.3655 9.43375ZM181.235 5.49237C181.188 5.28511 181.14 5.07785 181.093 4.87059C180.906 4.74235 179.971 5.63649 180.264 5.81299C180.589 5.70609 180.913 5.59922 181.235 5.49237ZM185.244 5.95845C185.441 6.0645 185.636 6.17056 185.831 6.27662C186.058 5.92765 186.285 5.57869 186.51 5.22974C185.549 4.98447 184.489 4.70294 184.651 5.73919C184.423 5.73728 184.195 5.73538 183.965 5.73349C184.161 5.30721 184.138 5.16601 183.536 4.88954C183.41 5.48396 182.735 5.17516 182.076 5.301C182.536 5.33933 183.11 5.37864 183.62 5.41757C183.619 5.52255 183.618 5.62752 183.617 5.73249C182.451 5.68521 183.901 6.36265 184.646 5.95155C184.704 6.0918 184.761 6.23206 184.818 6.37231C184.961 6.23435 185.103 6.0964 185.244 5.95845ZM103.805 5.92659C103.946 6.03011 104.087 6.13363 104.228 6.23717C104.75 4.85422 103.666 6.17456 102.865 5.09826C103.137 5.92097 101.941 5.90465 101.873 5.96132C102.015 6.23746 102.157 6.51362 102.299 6.78978C102.8 6.5019 103.302 6.21417 103.805 5.92659ZM107.78 6.81957C107.286 6.14006 109.666 6.06692 110.467 6.2086C110.661 6.24338 111.012 6.61575 111.151 6.56654C111.234 6.42638 111.318 6.28622 111.401 6.14606C111.507 6.62569 113.06 6.06687 113.67 5.80141C113.73 5.97592 113.79 6.15044 113.849 6.32496C114.072 6.25292 114.295 6.18091 114.518 6.10893C114.492 6.28377 114.466 6.45862 114.439 6.63347C114.606 6.4217 114.773 6.20994 114.94 5.9982C115.602 5.75765 115.202 6.71354 115.698 6.4114C116.249 6.07596 115.335 5.51871 115.347 5.14976C114.898 5.24955 113.877 5.47352 113.42 5.48924C113.157 5.4979 113.448 4.83367 112.324 5.60605C112.074 5.43193 111.824 5.25785 111.574 5.0838C111.121 5.37052 110.669 5.65736 110.217 5.94431C110.129 5.70063 110.041 5.45696 109.953 5.21329C109.904 5.17554 108.857 5.74452 108.915 5.92769C108.483 5.46532 107.604 5.3933 106.68 5.38222C106.593 5.51647 106.506 5.65073 106.419 5.78499C107.308 5.48547 106.705 5.92188 106.975 6.17295C107.13 6.31774 107.605 6.59993 107.78 6.81957ZM175.001 5.98724C176.457 5.39892 175.569 5.88606 177.215 5.89652C177.102 5.57963 176.988 5.26275 176.874 4.94586C176.033 5.5181 174.754 5.12644 174.999 5.98723C175 5.98723 175 5.98724 175.001 5.98724ZM190.901 5.06285C190.025 5.2453 190.465 5.74133 189.335 5.88774C189.334 5.88773 189.334 5.88773 189.333 5.88772C189.92 5.92883 190.497 5.96999 191.064 6.01119C191.01 5.69508 190.955 5.37897 190.901 5.06285ZM140.796 5.26327C139.976 5.12821 140.138 5.37374 139.392 4.88474C138.282 5.48432 139.223 5.39703 139.224 5.9381C139.478 5.77861 139.731 5.61914 139.984 5.45969C140.599 5.96386 140.018 6.22029 140.018 6.2689C140.018 6.2689 140.019 6.26889 140.019 6.26889C140.02 6.43131 140 6.46554 140.236 6.56305C140.423 6.12977 140.609 5.69651 140.796 5.26327ZM137.277 5.94302C137.559 5.58267 137.686 5.12086 136.939 4.8933C136.938 4.8933 136.938 4.8933 136.937 4.8933C136.881 5.69653 136.162 5.05118 135.835 5.10643C135.75 5.19406 135.664 5.2817 135.579 5.36934C136.146 5.56042 136.713 5.75165 137.277 5.94302ZM124.891 6.74934C124.881 5.86231 125.5 5.77335 124.622 4.9624C124.453 4.97953 124.284 4.99667 124.115 5.01383C124.005 5.20937 123.895 5.40491 123.786 5.60046C121.621 4.01247 121.005 6.75025 124.628 5.70027C124.628 5.69966 124.629 5.69904 124.629 5.69843C124.716 6.04873 124.804 6.39903 124.891 6.74934ZM128.689 6.64846C128.713 6.18262 128.738 5.71677 128.763 5.25093C129.247 6.37132 129.857 5.29571 130.794 6.08306C130.878 5.941 130.961 5.79893 131.045 5.65687C131.399 5.96608 134.804 6.03925 134.063 5.32661C133.74 5.01528 133.04 5.44354 132.98 5.43434C132.775 5.40022 132.506 5.00149 132.159 5.02653C131.959 5.04155 131.54 5.51402 131.13 5.51541C130.216 5.51824 128.532 4.26571 127.327 5.46887C127.238 5.32907 127.15 5.18928 127.062 5.0495C126.162 5.14126 126.465 5.58398 125.634 5.05939C125.068 7.27499 128.987 4.92757 128.179 6.72674C128.18 6.72674 128.18 6.72674 128.181 6.72673C128.35 6.70063 128.52 6.67454 128.689 6.64846ZM153.273 5.91769C153.328 6.31489 154.379 5.70269 154.131 6.65427C154.474 6.32311 154.815 5.99198 155.156 5.66091C155.154 5.5724 155.151 5.4839 155.149 5.3954C154.81 5.46465 154.471 5.53394 154.13 5.60328C154.129 5.4629 154.128 5.32252 154.127 5.18214C153.613 5.68944 151.511 5.46764 151.586 4.97058C151.476 5.18053 151.366 5.39048 151.255 5.60043C150.268 5.02874 149.414 5.6369 148.325 5.07974C148.241 5.25375 148.156 5.42776 148.072 5.60178C148.017 5.46145 147.962 5.32112 147.907 5.18079C147.509 5.16344 147.111 5.14615 146.712 5.12892C145.411 5.69574 147.94 6.42444 148.241 6.34136C148.282 6.32971 148.275 5.96628 148.528 5.90903C148.98 5.80833 151.475 6.1694 152.235 5.93012C152.242 6.1712 152.248 6.41229 152.255 6.65337C152.58 6.40809 152.934 6.16287 153.273 5.91769ZM120.082 5.83998C120.023 5.59514 119.964 5.35031 119.905 5.10547C118.925 5.35933 118.303 5.15112 118.563 5.96009C118.563 5.96008 118.564 5.96008 118.564 5.96007C119.071 5.91991 119.576 5.87988 120.082 5.83998ZM47.0685 7.57349C47.1193 8.05915 47.6243 8.21373 48.2177 7.83168C48.1815 7.69183 48.1454 7.55197 48.1092 7.41212C47.8105 7.84424 47.3549 7.14359 46.3602 7.29577C46.374 7.54073 46.3878 7.7857 46.4015 8.03067C46.6231 7.8782 46.8454 7.72581 47.0685 7.57349ZM120.929 5.93875C121.231 6.22543 122.062 5.34076 121.51 5.30208C121.087 5.2729 120.768 5.7848 120.929 5.93875ZM194.185 5.57227C193.978 5.51867 193.769 5.46508 193.559 5.41148C193.447 5.61899 193.334 5.8265 193.221 6.03401C193.222 6.03402 193.222 6.03402 193.223 6.03403C193.547 5.8801 193.868 5.72618 194.185 5.57227ZM143.581 5.21633C142.839 5.24834 142.095 5.28058 141.348 5.31305C141.341 5.44917 141.334 5.5853 141.327 5.72142C142.074 5.22279 142.374 5.75748 142.548 5.78983C142.548 5.78983 142.547 5.78983 142.546 5.78983C143.106 5.89632 143.629 5.97452 144.165 6.13619C143.963 5.82957 143.775 5.52294 143.581 5.21633ZM146.176 6.07073C146.047 5.10927 145.882 4.99737 144.715 5.67563C144.761 5.79395 144.808 5.91228 144.854 6.03061C145.46 5.95883 145.811 5.73633 145.705 6.23801C145.862 6.18224 146.019 6.12648 146.176 6.07073ZM134.405 5.79744C134.543 6.10292 135.632 5.79074 135.577 5.63667C135.544 5.57545 134.135 5.19836 134.405 5.79744ZM38.6284 8.3085C38.8936 8.3605 39.1597 8.41264 39.4269 8.4649C39.0849 8.59266 38.745 8.72062 38.4073 8.84878C38.4808 8.66868 38.5545 8.48858 38.6284 8.3085ZM35.9184 9.87512C35.7306 9.76645 36.2462 8.86003 35.1611 8.71878C35.9347 8.64116 36.7197 8.56476 37.5156 8.48954C37.1517 8.65566 36.7905 8.82202 36.4321 8.98862C36.5147 9.2316 36.5973 9.4746 36.6798 9.71762C36.4248 9.76999 36.171 9.82249 35.9184 9.87512ZM35.0375 9.30674C35.5108 9.92853 33.3047 10.1509 33.0454 10.0932C32.9954 10.0781 32.7247 9.60053 32.6313 9.50085C32.9824 9.47111 33.336 9.44165 33.6922 9.41246C33.5605 9.26567 33.4289 9.11892 33.2974 8.97222C33.7114 8.88474 34.1203 8.79837 34.4919 8.71546C34.3395 8.88532 34.1878 9.05522 34.0368 9.22516C34.3684 9.25212 34.702 9.27931 35.0375 9.30674ZM44.0262 8.53723C43.7423 8.53771 43.4595 8.53832 43.1778 8.53905C43.2488 8.78052 43.3199 9.02198 43.3909 9.26347C43.559 9.25322 43.7275 9.24303 43.8964 9.23287C43.9395 9.00099 43.9828 8.76911 44.0262 8.53723ZM38.2548 9.22837C38.5916 8.02041 39.9186 10.5181 38.5121 9.65641C38.3708 9.56879 38.2232 9.345 38.2548 9.22837ZM32.1645 10.025C31.3354 10.9599 31.3742 9.04779 32.2781 9.53033C32.3237 9.55624 32.2271 9.95587 32.1645 10.025ZM25.4651 10.6886C25.3922 10.6901 25.1927 10.0914 24.5665 10.7498C24.4451 10.6927 24.324 10.6356 24.2032 10.5786C24.4205 10.263 26.7389 9.84613 26.4829 10.4877C26.1223 10.5345 25.834 10.6682 25.4651 10.6886ZM27.9795 12.7203C28.3193 12.6698 28.6284 12.6228 28.957 12.5745C28.831 12.3927 28.705 12.211 28.5791 12.0293C28.7345 11.9617 28.8906 11.8941 29.0474 11.8266C29.3552 12.1317 29.6639 12.4371 29.9738 12.7428C29.2463 12.8628 28.5837 12.9789 27.8321 13.1065C27.881 12.9778 27.9302 12.849 27.9795 12.7203ZM36.9486 12.4389C36.2871 12.2448 35.5227 12.5601 34.5059 12.5988C34.5053 12.5983 34.5048 12.5977 34.5042 12.5971C34.4509 12.5985 34.3517 12.3406 34.1721 12.3443C34.0036 12.3464 31.1108 12.8815 31.3083 12.4158C32.3865 11.918 32.869 12.4934 33.0596 11.4754C33.1325 11.6807 33.2055 11.886 33.2784 12.0913C34.4299 12.3634 34.6274 11.6177 35.1929 11.3056C35.2028 11.464 35.2127 11.6224 35.2226 11.7808C35.6104 11.7669 36.001 11.7533 36.3946 11.7399C36.3315 11.6399 36.2685 11.54 36.2055 11.44C36.3441 11.4297 36.483 11.4194 36.6224 11.4091C36.9963 11.853 37.4364 11.9309 36.9486 12.4389ZM26.345 12.6226C26.0879 13.8564 23.123 13.3513 21.6416 13.8022C22.3844 12.9757 23.4809 13.3471 24.2779 13.2642C25.8109 13.1061 24.7035 12.7839 24.9422 12.5615C25.0604 12.4513 26.0284 13.1227 26.345 12.6226ZM39.3202 12.06C38.5322 12.0166 38.1201 12.3235 37.4256 11.9306C37.4747 11.839 37.5239 11.7473 37.5732 11.6556C37.8012 11.719 39.6989 11.842 39.3202 12.06ZM19.4931 13.7754C21.0557 13.9927 20.1683 13.0168 21.0768 13.7188C20.5516 13.8404 20.0385 13.9631 19.5377 14.0872C19.5229 13.9832 19.508 13.8793 19.4931 13.7754ZM122.651 10.4526C123.271 10.4751 123.963 10.6894 124.329 10.2325C123.908 10.1655 123.488 10.0986 123.067 10.0318C122.928 10.172 122.79 10.3123 122.651 10.4526ZM105.033 15.0848C105.176 15.1916 105.73 14.8625 105.789 14.8617C105.899 14.8602 105.871 15.0188 105.873 15.0601C106.589 15.0215 105.921 14.5399 106.45 14.4259C106.541 14.4069 107.79 14.6326 108.296 14.6062C109.075 14.5653 109.854 14.5874 110.145 14.5754C110.636 14.5554 111.544 14.1763 112.351 14.1479C112.684 14.1369 112.804 14.4303 113.138 14.4191C115.282 14.3444 119.513 13.8984 121.424 14.0699C121.895 14.1124 122.347 14.4947 122.596 14.4612C122.791 14.3186 122.986 14.1761 123.181 14.0335C123.794 15.2979 123.986 14.1675 124.635 14.0443C125.046 13.9664 125.241 14.3411 125.297 14.3397C125.663 14.3297 125.843 14.1494 126.13 14.1177C126.45 14.0827 126.926 14.2491 127.041 14.2177C127.112 14.1967 126.881 13.6982 128.148 13.6995C129.438 13.7011 130.708 13.7466 132.011 13.7631C131.569 12.2565 131.2 13.2912 130.667 13.3493C130.524 13.3649 130.613 13.1248 130.488 13.1361C130.137 13.1666 129.463 13.406 129.171 13.3507C128.855 13.2911 128.96 12.7352 128.561 12.9425C128.54 12.9532 128.606 13.1821 128.512 13.2212C127.569 13.6065 127.249 13.2097 126.058 13.2064C125.278 13.2024 120.49 13.4687 120.321 13.3214C119.456 12.5252 124.51 12.4774 125.094 12.5376C125.3 12.5584 125.086 12.8132 125.274 12.8604C125.356 12.8792 126.06 12.3913 126.776 12.3463C127.641 12.2917 129.376 12.6102 130.194 12.594C137.171 12.4532 144.185 12.7261 151.177 12.7322C151.325 12.7322 151.52 12.4429 152 12.4429C161.14 12.4497 170.59 12.712 179.82 12.6414C181.764 12.6257 183.836 12.3699 185.865 12.6033C186.117 12.3943 186.368 12.1853 186.618 11.9764C185.986 12.1386 184.802 11.6508 184.691 11.6429C184.652 11.6404 184.402 11.8765 183.999 11.8605C183.431 11.8389 183.179 11.6305 183.132 11.6301C182.986 11.6283 183.08 11.8486 182.94 11.8465C181.887 11.8286 181.2 11.8858 180.278 11.8812C179.251 11.8758 178.723 11.4632 177.954 11.9072C177.868 11.7314 177.782 11.5557 177.696 11.38C177.083 12.1332 173.748 12.029 172.397 11.9822C171.967 11.9672 172.044 11.6599 171.899 11.6592C171.806 11.6591 171.845 12.062 170.707 11.9773C170.133 11.9344 169.982 11.6403 169.691 11.6485C169.534 11.6533 169.558 11.9445 169.331 11.9434C167.976 11.9374 167.025 11.8392 165.763 11.7807C165.412 11.7646 165.409 11.5217 165.33 11.5246C165.04 11.5345 164.535 11.944 163.791 11.9407C162.573 11.9345 160.074 11.9269 159.126 11.7255C158.982 11.6957 158.862 11.404 158.756 11.4081C158.595 11.4152 158.531 11.7191 158.503 11.7207C157.962 11.725 158.288 11.4429 157.926 11.511C157.73 11.5477 157.526 11.8941 157.069 11.9326C156.466 11.9835 156.585 11.5721 156.332 11.613C156.306 11.6194 156.298 11.9056 156.049 11.9147C155.106 11.9474 153.725 12.0124 152.817 12.011C152.555 12.011 152.365 11.8182 152.016 11.8149C151.318 11.8079 147.248 11.9329 146.902 11.8228C146.867 11.8113 147.232 11.3886 146.649 11.402C146.48 11.578 146.311 11.754 146.142 11.93C145.858 11.649 145.573 11.368 145.288 11.0871C145.302 12.0592 143.62 12.2123 143.648 11.2182C143.469 11.1783 143.29 11.1384 143.111 11.0985C142.739 11.7861 142.49 11.5331 141.767 11.9384C141.654 11.7281 141.541 11.5178 141.427 11.3076C141.399 11.448 141.371 11.5885 141.343 11.7289C140.954 10.9692 140.32 11.7348 140.243 11.7393C139.945 11.757 139.721 11.5643 139.581 11.571C139.06 11.5926 137.927 11.8629 137.313 11.7417C137.284 11.7355 137.311 11.4102 137.136 11.3707C136.821 11.2993 136.792 11.7755 136.369 11.218C136.285 11.3587 136.2 11.4994 136.116 11.6402C136.025 11.5679 135.935 11.4956 135.844 11.4234C135.306 11.4629 134.79 11.5023 134.265 11.542C134.739 10.9892 134.19 10.6842 133.673 11.12C133.498 11.2677 133.655 11.6021 133.597 11.6531C133.519 11.722 131.158 11.5635 130.998 11.348C130.887 11.4542 130.775 11.5604 130.664 11.6666C130.606 11.4557 130.548 11.2449 130.49 11.034C130.429 11.1082 130.367 11.1824 130.306 11.2567C129.688 10.8881 128.087 11.7512 127.795 11.6858C127.639 11.6509 127.773 10.7499 127.026 10.8468C127.002 11.0942 126.978 11.3415 126.953 11.5889C126.782 11.6254 126.611 11.662 126.44 11.6986C126.122 11.6787 125.658 11.2536 125.641 10.9608C125.543 11.1373 125.445 11.3138 125.347 11.4903C125.076 10.9194 123.655 11.1331 123.084 11.5001C122.915 11.3287 122.745 11.1574 122.576 10.986C122.352 11.1978 122.129 11.4096 121.905 11.6214C121.382 11.689 121.932 11.3354 121.82 11.3072C121.584 11.2489 120.387 11.8489 120.459 11.1138C120.295 11.1134 120.131 11.113 119.967 11.1127C119.884 11.3234 119.802 11.5341 119.719 11.7448C119.431 11.0235 118.946 11.2834 117.941 11.0289C117.859 11.1964 117.776 11.3638 117.694 11.5312C117.381 11.2974 117.071 11.0637 116.761 10.83C116.7 11.1065 116.64 11.383 116.579 11.6594C116.446 11.7005 116.312 11.7415 116.179 11.7825C115.9 11.1674 115.418 11.8402 115.166 11.588C114.799 11.2199 115.075 10.7736 115.749 10.681C115.694 10.2313 113.686 10.4594 113.222 10.4977C113.254 10.5853 113.285 10.6728 113.317 10.7603C113.791 10.6854 114.264 10.6107 114.737 10.536C115.147 11.6635 113.856 11.3737 113.267 11.5263C113.213 11.5409 112.912 11.9731 112.316 11.94C112.085 11.9268 111.177 11.3107 111.005 11.278C109.613 11.0087 110.645 11.8916 109.277 11.1235C109.568 11.7212 108.782 11.2314 107.97 11.3583C107.832 11.3799 106.666 11.8831 106.587 11.897C106.094 11.9819 106.625 11.4431 105.912 11.5913C105.828 11.7323 105.744 11.8732 105.66 12.0142C105.494 12.0165 105.328 12.0189 105.162 12.0213C104.135 10.7902 103.914 11.711 103.557 11.834C103.413 11.8838 103.594 11.556 103.22 11.6303C103.079 11.658 102.926 11.9307 102.546 11.9555C101.358 12.0329 100.936 10.8821 99.8634 12.1042C99.6929 11.9324 99.5225 11.7607 99.3521 11.5889C99.2427 11.8001 99.1328 12.0113 99.0222 12.2226C98.1411 11.6298 98.4661 12.2467 98.1516 12.2446C97.3209 12.2396 95.6235 12.1511 95.4663 11.6531C94.7729 12.8165 93.8958 11.5349 93.6155 11.5852C93.4512 11.7281 93.2869 11.8711 93.1227 12.0141C92.9239 11.8775 92.725 11.741 92.5262 11.6045C92.6435 12.7323 91.607 11.6415 91.5094 11.6266C91.396 11.6118 89.8479 11.978 89.2543 11.9846C88.6677 11.9906 87.6418 11.7069 87.5523 11.7083C87.449 11.7105 86.4614 12.0397 85.6869 12.0545C85.0039 12.0657 81.0025 11.7279 81.2692 12.2258C81.5334 12.3586 81.9065 12.4701 82.229 12.5276C83.2175 12.7013 89.1282 12.8232 90.6433 12.8749C93.6452 12.9726 96.8044 12.885 99.8432 12.9451C100.021 12.9485 100.053 13.2409 100.206 13.245C100.438 13.2497 101.021 12.9471 101.25 12.9499C102.104 12.9617 103.145 12.9937 103.603 12.9943C104.626 12.994 105.331 13.1603 106.106 13.1781C106.348 13.1831 107.57 12.8033 108.413 12.9456C108.566 13.026 108.72 13.1065 108.873 13.1869C108.442 13.2886 107.309 13.5524 106.782 13.5881C105.998 13.64 105.586 13.4083 105.296 13.4165C105.054 13.4231 103.819 13.7115 103.255 13.7265C103.08 13.7313 103.04 13.4247 102.89 13.4281C102.078 13.4477 101.009 13.4728 100.31 13.7853C100.595 13.6823 98.8009 13.5234 98.7026 13.5263C98.5404 13.5291 98.3693 13.8194 98.0383 13.8251C97.4021 13.836 97.472 13.2335 96.6881 13.8487C96.4884 13.6771 96.2887 13.5055 96.089 13.3339C96.0908 14.1345 93.5902 13.0914 92.9069 14.0785C92.8891 14.1883 96.1142 14.4395 96.3823 14.4512C97.9838 14.5184 100.344 14.2827 101.889 14.3993C102.355 14.4342 103.826 14.899 103.937 14.8884C104.115 14.872 103.95 14.5959 104.026 14.5849C105.599 14.3549 104.821 14.926 105.033 15.0848ZM35.3302 13.0893C35.8006 13.0861 36.2754 13.0834 36.7542 13.0811C36.7326 13.259 36.711 13.4368 36.6895 13.6147C36.4667 13.5626 36.2447 13.5106 36.0236 13.4588C35.8654 13.576 35.708 13.6932 35.5511 13.8105C35.4775 13.5701 35.4038 13.3297 35.3302 13.0893ZM34.2307 13.9137C33.8012 14.0369 33.7512 13.6692 33.6493 13.6593C33.3459 13.6288 33.1013 13.7993 32.8143 13.818C33.0703 12.913 33.8159 13.2569 34.2307 13.9137ZM42.8226 13.626C42.7282 13.5897 42.0514 12.682 41.4176 13.6069C40.8906 13.3603 40.2865 13.1195 39.7271 12.8766C40.7079 13.2388 41.9101 12.7159 42.3417 12.7058C42.5072 12.7018 42.557 12.9902 42.6896 12.9867C43.4527 12.9623 44.1664 12.2591 44.3032 13.2164C43.5539 12.9806 42.9432 13.6704 42.8226 13.626ZM38.0903 13.5976C37.951 13.4055 37.8119 13.2136 37.6729 13.0216C38.1231 12.9893 38.577 12.9573 39.0344 12.9258C38.9247 13.1377 38.8155 13.3496 38.7066 13.5615C38.5005 13.5735 38.295 13.5855 38.0903 13.5976ZM72.6766 12.6286C72.4005 12.6347 72.1164 12.6411 71.837 12.6475C71.857 12.7937 72.1776 12.7831 72.299 12.8785C72.2984 12.8785 72.2979 12.8785 72.2974 12.8785C72.4326 12.9864 72.3822 13.1771 72.6242 13.2531C72.6416 13.0449 72.6591 12.8368 72.6766 12.6286ZM186.94 12.6092C187.319 12.6224 191.725 12.6668 191.339 12.128C191.163 11.8588 189.669 12.0768 189.211 12.0683C188.537 12.0562 187.119 11.4642 186.94 12.6092ZM194.465 12.79C194.463 12.2563 191.973 12.1441 191.675 12.2341C191.73 12.3107 191.813 12.4809 191.886 12.5201C192.264 12.7079 193.846 12.6371 194.465 12.79ZM88.1619 13.7644C87.9398 13.4994 87.7176 13.2345 87.4956 12.9696C87.5602 13.3192 87.6248 13.6688 87.6894 14.0184C87.8468 13.9337 88.0043 13.8491 88.1619 13.7644ZM109.044 13.0217C112.638 12.9929 116.203 12.9716 119.807 12.9562C119.492 13.1049 119.177 13.2536 118.862 13.4025C115.763 13.3795 112.479 13.2677 109.493 13.5306C109.344 13.361 109.194 13.1913 109.044 13.0217ZM43.9182 15.1418C44.8302 15.0918 45.5861 14.7892 46.6252 15.141C45.6809 15.5926 45.1707 15.0065 44.2836 15.6462C44.2831 15.6462 44.2826 15.6462 44.282 15.6463C44.1607 15.4781 44.0394 15.3099 43.9182 15.1418ZM64.4855 14.2693C64.2256 14.5244 63.9416 14.7806 63.6683 15.0364C64.0108 15.0235 64.3535 15.0107 64.6798 14.9986C64.6151 14.7555 64.5502 14.5124 64.4855 14.2693ZM140.344 14.1486C141.309 13.6101 143.725 14.5738 144.521 13.9283C144.572 13.8859 144.101 13.6149 144.861 13.0873C144.286 13.196 143.88 13.3068 143.843 13.7208C143.676 13.5808 143.51 13.4407 143.343 13.3007C143.067 13.4075 142.791 13.5143 142.514 13.6211C142.543 13.2089 142.522 13.2309 142.097 13.5141C141.902 13.4102 141.708 13.3063 141.513 13.2024C141.431 13.3772 141.349 13.552 141.267 13.7267C141.098 13.483 140.928 13.2394 140.759 12.9957C140.101 13.2624 140.503 13.7343 140.344 14.1486ZM136.971 14.0592C137.135 14.1487 141.592 13.8386 139.564 13.023C139.038 13.0509 138.51 13.0789 137.981 13.107C138.424 14.4666 136.978 13.2545 136.859 13.2265C136.291 13.0958 135.562 13.4225 135.155 13.4075C134.807 13.3942 134.598 13.151 134.353 13.1584C133.518 13.1832 132.191 13.1989 132.011 13.7631C132.665 13.7714 133.327 13.7742 134.003 13.7569C134.718 13.7388 135.344 14.2675 136.711 13.5329C137.049 13.6099 136.93 14.0361 136.971 14.0592ZM62.8117 15.0123C62.8223 14.4455 61.1103 14.6481 61.1103 14.8721C61.112 15.0032 61.669 14.9779 61.7509 15.0244C61.7514 15.0244 61.752 15.0244 61.7525 15.0243C61.7866 15.0447 61.6265 15.2677 61.8912 15.3176C62.1972 15.2157 62.504 15.114 62.8117 15.0123ZM180.286 13.8203C180.454 14.1381 185.799 14.0667 185.933 13.9167C185.975 13.8749 185.918 13.7351 185.936 13.6549C184.739 14.0923 182.867 13.5468 181.758 13.5035C181.444 13.4917 181.536 13.7173 181.518 13.7214C181.518 13.7214 181.517 13.7214 181.516 13.7214C181.339 13.7206 180.532 13.1651 180.286 13.8203ZM146.22 13.6675C145.995 13.5793 145.77 13.4911 145.544 13.403C145.487 13.5782 145.43 13.7535 145.373 13.9287C145.374 13.9287 145.374 13.9287 145.375 13.9287C145.657 13.8416 145.939 13.7545 146.22 13.6675ZM153.948 14.2418C153.893 14.1185 153.838 13.9952 153.783 13.8718C153.218 13.8544 152.624 13.8371 152.081 13.8199C152.137 13.7503 152.193 13.6807 152.248 13.6112C151.413 13.425 151.064 13.8583 150.617 13.796C150.617 13.796 150.618 13.796 150.618 13.796C150.57 13.7888 150.511 13.5319 150.332 13.5233C149.921 13.5033 148.735 13.4083 148.591 13.6669C148.289 14.2185 150.674 13.9555 151.112 13.9809C151.312 13.9925 151.551 14.2173 151.672 14.2226C151.805 14.2276 151.985 13.924 152.307 13.9334C152.393 13.9366 153.485 14.2941 153.948 14.2418ZM163.888 13.8928C163.715 13.6143 163.35 13.8817 163.216 13.8358C163.184 13.825 163.434 13.5931 163.132 13.5225C163.046 13.6809 162.96 13.8393 162.874 13.9978C163.213 13.9628 163.551 13.9278 163.888 13.8928ZM59.9484 15.3939C59.9991 15.4514 60.9117 15.3925 60.9548 15.353C61.4824 14.8239 59.5905 14.9557 59.9484 15.3939ZM36.9702 17.2439C37.4569 17.9416 32.4457 17.6066 31.9378 17.6984C31.9194 17.2344 33.1599 17.5964 32.4767 17.0162C33.0878 17.314 34.8269 16.9871 35.1541 17.0642C35.3839 17.1078 35.472 17.5025 35.507 17.5125C35.6415 17.5468 36.8025 16.9952 36.9702 17.2439ZM27.8511 17.7637C28.3642 17.8004 28.838 17.8425 29.2925 17.8875C28.7794 17.9891 28.2052 18.0981 27.628 18.2095C27.702 18.0609 27.7763 17.9123 27.8511 17.7637ZM27.2563 18.0359C27.3118 18.4805 25.6508 18.3122 25.2565 18.4623C25.6384 17.6506 26.5095 18.2803 27.2563 18.0359ZM53.9563 16.8186C54.7181 17.08 54.9777 15.6974 54.0938 16.3355C54.067 16.3565 53.9243 16.8044 53.9563 16.8186ZM140.577 16.0741C140.704 16.0822 142.265 16.522 142.354 16.3021C142.637 15.6002 141.616 15.8838 141.272 15.62C140.716 15.1924 141.532 14.8366 140.177 15.0994C140.232 14.9588 140.287 14.8183 140.342 14.6778C139.548 14.6336 139.81 15.6053 139.668 15.7308C139.625 15.7689 139.127 15.6887 139.037 15.7511C137.917 16.5381 140.463 16.0677 140.577 16.0741ZM72.2884 16.2147C73.7794 16.5809 73.1162 15.9961 74.6186 15.988C74.6533 15.678 72.4935 15.9372 72.2884 16.2147ZM126.211 15.5893C127.74 15.4572 129.005 15.8528 130.423 15.3026C130.332 14.4675 125.808 15.3759 126.211 15.5893ZM197.823 16.6263C191.884 15.0639 185.034 15.4898 178.767 15.4704C178.076 15.4678 178.009 15.1363 177.757 15.1706C177.591 15.1928 177.619 15.4596 177.398 15.4594C169.62 15.4522 161.971 15.7739 154.553 15.6082C154.076 15.597 151.743 15.0235 151.277 15.887C150.916 16.5418 152.524 16.0313 152.82 16.0374C153.031 16.0417 153.04 16.3495 153.18 16.3507C153.329 16.3518 153.206 16.1415 153.379 16.1384C154.11 16.124 154.904 16.2068 155.558 16.1896C161.846 16.0241 168.171 16.0951 174.479 16.1611C175.229 16.1686 175.072 16.4143 175.11 16.4156C175.11 16.415 175.111 16.4144 175.111 16.4138C179.308 16.4617 184.052 15.9443 188.293 16.1959C191.513 16.3961 194.442 16.5974 197.564 16.8061C197.651 16.7462 197.737 16.6862 197.823 16.6263ZM137.314 15.2151C137.703 16.1437 137.788 15.2055 139.168 15.5804C139.279 15.4213 139.391 15.2623 139.503 15.1032C138.775 15.1403 138.044 15.1776 137.312 15.2151C137.313 15.2151 137.313 15.2151 137.314 15.2151ZM146.407 15.5312C146.647 16.7866 149.728 15.8962 151.091 16.136C151.343 15.5051 149.349 15.7889 148.873 15.723C148.637 15.6903 147.367 15.0425 146.394 15.4031C146.398 15.4458 146.403 15.4885 146.407 15.5312ZM42.3208 18.7267C42.5353 18.6763 42.7507 18.626 42.9668 18.5758C42.4085 18.4713 41.8706 18.3663 41.3051 18.2638C42.1873 18.296 43.0494 18.3315 43.9388 18.3672C43.7906 18.6373 43.6429 18.9075 43.4959 19.1777C43.1022 19.0271 42.7105 18.8768 42.3208 18.7267ZM45.1634 18.4185C43.6138 18.6092 45.1936 17.8157 45.6057 18.1028C45.8507 18.2748 45.3217 18.3985 45.1634 18.4185ZM49.2849 18.6369C48.6349 19.1292 47.0788 19.2471 47.5754 18.3043C48.4109 18.6868 48.8957 18.3042 50.0208 18.4918C49.8665 18.6753 49.7128 18.8588 49.5594 19.0423C49.5587 19.0423 49.5579 19.0424 49.5572 19.0424C49.4664 18.9072 49.3756 18.7721 49.2849 18.6369ZM44.486 19.0128C43.4363 18.5494 46.3988 18.5533 45.4902 18.9532C45.4464 18.9715 44.5262 19.0303 44.486 19.0128ZM191.283 17.4962C191.411 17.1989 190.618 17.1963 190.348 17.1736C189.156 17.0728 187.714 17.1891 186.57 17.1377C186.657 17.2368 186.743 17.3358 186.829 17.4349C188.22 17.4535 189.803 17.4748 191.283 17.4962ZM182.827 17.1043C181.969 17.0976 181.241 17.092 180.429 17.0861C180.355 17.0856 180.003 17.3393 180.263 17.4035C181.132 17.3036 181.915 17.2033 182.827 17.1043ZM132.197 17.0287C132.819 17.1926 131.035 18.0592 131.11 17.1407C131.473 17.1033 131.835 17.066 132.197 17.0287ZM126.391 17.4301C126.783 17.3401 127.176 17.2501 127.568 17.1603C127.569 17.2659 127.57 17.3715 127.572 17.477C127.178 17.4613 126.784 17.4457 126.391 17.4301ZM194.409 17.7407C193.936 17.374 193.066 17.4199 192.448 17.406C192.875 17.721 193.778 17.5782 194.409 17.7407ZM141.527 17.3624C141.478 17.1161 143.931 17.1726 143.083 17.6078C142.565 17.5259 142.047 17.4441 141.527 17.3624ZM146.561 17.7172C146.026 17.7718 145.61 17.6878 145.72 17.3009C146.004 17.317 146.288 17.3331 146.572 17.3492C146.568 17.4719 146.564 17.5945 146.561 17.7172ZM52.0517 19.2318C52.9386 19.1529 53.8345 19.0749 54.739 18.9979C54.7103 19.105 54.6817 19.212 54.6531 19.3191C53.782 19.394 52.9189 19.4698 52.0643 19.5465C52.0601 19.4416 52.0559 19.3367 52.0517 19.2318ZM194.933 18.6953C195.579 18.6338 196.207 18.5723 196.817 18.5108C196.208 18.4325 195.581 18.3542 194.936 18.276C194.935 18.4163 194.933 18.5567 194.931 18.6971C194.932 18.6965 194.932 18.6959 194.933 18.6953ZM39.9579 21.3066C42.7733 21.6109 39.2499 22.3678 38.5001 21.6984C38.4994 21.6991 38.4986 21.6997 38.4979 21.7004C38.4307 21.6411 38.5412 21.3231 38.428 21.2061C38.7141 21.3258 39.0014 21.4456 39.2899 21.5656C39.5322 21.3743 39.7759 21.1832 40.0211 20.9921C40.1104 21.0545 40.1998 21.117 40.2892 21.1794C40.1785 21.2218 40.0681 21.2642 39.9579 21.3066ZM29.1502 22.4613C26.6096 22.6576 29.1846 21.6189 30.3409 22.1272C30.3433 22.2685 29.3604 22.4456 29.1502 22.4613ZM35.5113 21.7398C35.8776 21.6408 36.2472 21.542 36.62 21.4435C36.675 21.5281 36.7299 21.6127 36.7849 21.6973C36.5008 21.8068 36.2188 21.9164 35.9386 22.0262C35.7959 21.9307 35.6534 21.8352 35.5113 21.7398ZM48.3117 22.2724C48.9598 22.3347 49.7228 21.307 47.6793 21.6783C47.6862 21.7837 47.693 21.889 47.7 21.9944C47.7806 21.973 48.0151 21.8609 48.0287 21.868C48.0678 21.8923 48.0427 22.2468 48.3117 22.2724ZM24.956 25.7067C24.8965 25.7544 24.9891 26.8639 24.1919 25.8002C24.0163 25.8923 23.7686 25.9937 23.5613 26.0906C23.4729 25.8545 23.3845 25.6184 23.2959 25.3823C24.2028 25.4595 24.1839 24.9637 24.2471 24.945C24.5002 24.8676 24.3392 25.1442 24.5069 25.1276C24.9363 25.0839 25.9335 24.7978 25.5562 25.5744C25.4204 25.8525 25.0157 25.6591 24.956 25.7067ZM26.6026 26.1573C26.4924 26.0758 26.7794 25.7167 26.6939 25.6334C26.6158 25.5605 25.5959 25.3401 25.8003 24.7635C25.9639 24.7683 26.1287 24.7733 26.2944 24.7783C26.3663 24.9221 26.4381 25.0658 26.51 25.2096C26.6532 25.0539 26.7978 24.8983 26.9437 24.7427C27.2544 25.0834 27.8848 25.5016 27.2295 25.8759C27.4776 25.8175 27.7282 25.7593 27.9814 25.7013C28.096 25.5103 28.2114 25.3193 28.3278 25.1283C28.2848 25.4057 28.2422 25.683 28.2001 25.9604C27.6565 26.0253 27.1238 26.0909 26.6026 26.1573ZM19.1352 27.047C19.1426 26.9035 19.1504 26.7599 19.1583 26.6164C18.2572 27.0258 17.0257 27.3631 17.5904 26.3614C18.1532 26.2202 18.7557 26.0795 19.3946 25.9399C19.9751 25.8098 20.5045 25.6927 21.0963 25.5706C21.1897 25.6638 21.2832 25.7571 21.377 25.8505C20.4397 25.5742 20.9607 27.2477 20.1614 26.8666C20.0263 26.8026 20.2907 26.1476 19.5812 26.6517C19.6345 26.786 19.6905 26.9198 19.7368 27.0552C19.5423 27.0509 19.3323 27.0496 19.1352 27.047ZM13.0397 28.2663C13.6502 28.2373 13.1743 28.9819 13.1236 28.546C13.1236 28.546 13.1236 28.5461 13.1236 28.5461C12.8884 28.0118 12.7676 27.9042 12.8066 27.8784C12.8375 27.8552 13.0807 27.9055 13.1065 27.8926C13.1436 27.8679 13.0945 26.989 13.9582 27.9969C13.5791 28.0914 13.1491 28.2325 13.0397 28.2663ZM16.6337 27.5043C16.5327 27.5531 16.5488 27.3335 16.5035 27.3461C16.5031 27.3461 16.5027 27.3462 16.5023 27.3463C16.2282 27.4251 15.4788 27.6488 14.9875 27.7408C14.4692 27.8372 14.0913 27.8211 13.925 27.5137C14.1573 27.3506 16.7349 26.614 16.8923 27.0747C16.8034 27.2181 16.7172 27.3613 16.6337 27.5043ZM22.0291 26.0962C22.5936 26.4658 21.4658 26.6793 21.1585 26.518C21.0977 26.482 21.4408 25.7137 22.0291 26.0962ZM62.1618 24.3737C63.3258 24.0615 61.772 23.8565 62.2899 23.4195C62.0669 23.4637 61.8443 23.5079 61.6222 23.5522C61.802 23.826 61.9818 24.0998 62.1618 24.3737ZM115.385 24.006C115.657 24.0524 115.526 23.7996 115.549 23.7956C115.728 23.8008 115.899 24.0061 115.967 23.9835C117.23 23.5525 116.385 23.3477 116.372 23.2982C116.342 23.047 116.673 22.7493 116.208 22.4667C115.929 22.5587 115.649 22.6507 115.37 22.7427C115.229 22.6044 115.088 22.4662 114.948 22.3279C114.393 22.6337 115.124 22.7081 115.21 23.1051C115.244 23.2612 114.722 23.454 115.385 24.006ZM64.307 25.134C64.4846 24.6853 64.9277 24.1111 64.4538 23.6846C64.4533 23.6847 64.4527 23.6847 64.4522 23.6847C64.3634 23.6068 64.013 23.5753 63.9017 23.4654C63.1623 24.0825 63.4768 24.6789 64.307 25.134ZM110.362 24.8545C109.908 24.757 109.454 24.6595 109 24.5622C109.005 24.2972 109.009 24.0323 109.013 23.7673C109.257 23.8356 109.5 23.9039 109.743 23.9723C109.826 23.8504 109.91 23.7285 109.993 23.6066C109.689 23.3083 109.384 23.01 109.079 22.7117C108.718 22.8219 108.357 22.9322 107.996 23.0426C108.164 23.1802 108.333 23.3177 108.501 23.4553C107.617 23.6212 107.801 22.9746 107.065 22.7383C106.817 22.987 106.569 23.2358 106.322 23.4846C105.955 23.2431 105.588 23.0017 105.221 22.7603C104.612 22.8842 104.561 23.0728 104.976 23.348C104.677 23.6735 104.337 23.1732 103.974 23.3095C103.944 23.3205 104.005 23.6222 103.979 23.6262C102.093 23.8583 102.182 23.0629 101.88 23.0337C101.667 23.0138 100.827 23.5634 100.817 23.7464C100.805 23.9931 102.582 24.9358 99.8227 25.006C101.26 25.6543 102.874 24.9455 101.808 23.9761C102.261 24.0679 104.254 23.792 104.382 23.8199C104.569 23.8618 104.509 24.2367 104.742 24.2431C104.879 24.2465 105.231 23.3862 106.33 24.1181C106.467 23.9758 106.605 23.8335 106.742 23.6912C106.874 23.8048 107.006 23.9184 107.138 24.0319C106.875 24.4469 106.612 24.8619 106.349 25.277C107.406 24.8153 108.3 25.6433 108.937 24.9274C109.498 25.0026 109.771 25.0806 109.535 25.4453C109.703 25.4432 109.871 25.4411 110.039 25.439C110.147 25.2442 110.254 25.0493 110.362 24.8545ZM67.6725 24.3801C68.238 24.7714 68.407 23.8791 68.3191 23.8319C67.8244 23.573 67.3783 24.1766 67.6725 24.3801ZM114.371 23.5463C113.755 23.3247 113.139 23.1034 112.522 22.8822C112.526 23.1623 112.529 23.4425 112.532 23.7226C113.145 23.6636 113.758 23.6049 114.371 23.5463ZM62.0153 25.0098C61.9504 24.8023 61.8856 24.5947 61.8207 24.3872C61.1781 25.1802 60.4703 24.1079 60.15 24.3486C60.0806 24.4012 60.2401 24.7656 60.3798 24.8394C60.4654 24.8854 61.8974 25.0851 62.0153 25.0098ZM34.378 26.4833C34.6191 26.3221 34.8622 26.1609 35.1071 25.9999C35.1117 26.2365 35.1164 26.473 35.1212 26.7096C34.9985 26.7635 34.8762 26.8175 34.7544 26.8714C34.6287 26.742 34.5033 26.6126 34.378 26.4833ZM37.1209 25.8916C37.5523 25.8781 37.9876 25.8651 38.427 25.8524C36.7823 26.1897 38.1492 26.1954 37.1723 26.5763C37.1551 26.348 37.138 26.1198 37.1209 25.8916ZM41.6395 26.0532C41.5927 26.1976 41.546 26.3419 41.4995 26.4863C41.0448 26.5164 40.594 26.5467 40.1469 26.5774C40.4632 27.0464 40.7801 27.5155 41.0978 27.9848C41.263 27.9749 41.4288 27.9651 41.595 27.9553C41.6096 27.3213 41.6244 26.6873 41.6395 26.0532ZM127.457 24.9557C127.729 24.9624 128.671 24.5286 128.629 24.3714C128.236 24.1804 127.842 23.9895 127.448 23.7986C127.448 24.0794 127.448 24.3601 127.448 24.6409C127.392 24.5015 127.335 24.3621 127.279 24.2227C127.056 24.3292 126.833 24.4356 126.61 24.5422C126.495 24.2976 126.383 24.053 126.27 23.8084C126.16 24.0894 126.05 24.3703 125.941 24.6512C127.008 25.1404 126.978 24.6443 127.2 24.648C127.314 24.6496 127.387 24.823 127.428 24.9102C127.438 24.9254 127.448 24.9406 127.457 24.9557ZM113.967 25.3379C115.245 25.3936 115.967 24.647 116.897 25.2558C116.292 23.9445 112.478 25.3457 111.113 24.2649C110.975 24.4777 110.837 24.6906 110.7 24.9035C111.433 24.7064 111.948 25.1354 112.308 25.1938C112.593 25.2401 112.561 25.0192 112.582 25.0221C112.583 25.0221 112.585 25.0221 112.586 25.0221C113.254 25.1053 113.462 25.316 113.967 25.3379ZM61.1072 26.0797C61.4627 26.3992 62.0626 26.342 62.0503 25.855C61.7095 25.7274 61.3696 25.6 61.0304 25.4726C61.104 25.5944 61.0465 26.025 61.1072 26.0797ZM42.2424 27.3772C42.5069 27.5188 43.1048 27.3415 42.8164 26.9385C42.7642 26.8669 42.1809 27.2007 42.4854 26.4202C41.8994 26.4698 42.092 27.2957 42.2424 27.3772ZM92.109 24.674C91.8848 24.6925 91.6607 24.7111 91.4368 24.7297C91.3885 24.9272 91.3403 25.1248 91.2921 25.3223C91.5642 25.1062 91.8365 24.8901 92.109 24.674ZM58.2578 26.5361C57.9224 25.5879 57.4628 26.5448 56.8815 25.7791C56.6832 25.7819 56.4682 25.7854 56.257 25.7889C56.2565 25.7889 56.256 25.7889 56.2554 25.7889C56.2616 26.0514 56.2677 26.3138 56.2739 26.5762C56.9669 26.5607 57.5923 26.549 58.2578 26.5361ZM106.177 24.9113C106.036 24.7912 105.895 24.6711 105.754 24.551C105.509 24.6966 105.263 24.8424 105.018 24.9881C105.153 25.0881 105.289 25.1881 105.424 25.2881C105.675 25.1625 105.926 25.0369 106.177 24.9113ZM54.6268 26.7825C55.363 26.8686 55.6006 26.0205 54.6641 26.0622C54.2701 26.0808 53.8574 26.6929 54.6268 26.7825ZM141.374 24.5806C141.125 24.5099 140.876 24.4392 140.628 24.3685C140.543 24.5445 140.459 24.7205 140.375 24.8965C140.708 24.7912 141.041 24.6859 141.374 24.5806ZM38.7923 27.5168C38.8084 27.3394 38.8247 27.162 38.8408 26.9846C39.0619 27.0043 39.2839 27.0241 39.5069 27.044C39.4637 27.222 39.4205 27.4 39.3775 27.578C39.1818 27.5575 38.9867 27.5371 38.7923 27.5168ZM139.699 24.4774C139.499 24.4444 139.3 24.4115 139.1 24.3786C138.966 24.4645 138.832 24.5504 138.698 24.6363C138.885 24.7205 139.073 24.8047 139.26 24.8889C139.406 24.7517 139.553 24.6146 139.699 24.4774ZM47.8112 27.0514C48.1038 27.2466 49.2036 26.5269 48.1721 26.4152C47.5169 26.3447 47.7674 27.0217 47.8112 27.0514ZM46.3133 27.3476C47.4001 27.6885 46.4769 25.6935 45.3007 27.0899C46.5536 26.8339 46.2509 27.3271 46.3133 27.3476ZM37.1989 29.0072C37.1733 29.0081 37.1299 28.7166 36.9252 28.7213C36.1938 28.7385 35.2221 28.699 34.6454 28.7284C33.2385 28.7937 29.5879 29.6649 28.9641 28.879C28.8471 28.7113 29.022 28.1574 28.979 28.1341C28.8508 28.0696 28.2024 28.3962 28.2873 27.9927C28.9438 27.9281 29.6451 27.8621 30.2354 27.8089C30.1101 28.0992 29.9859 28.3895 29.8631 28.6798C31.38 28.386 30.8814 28.452 31.2732 27.8093C31.5609 28.0177 31.8501 28.2262 32.1409 28.435C32.708 28.1486 33.2867 27.8628 33.8767 27.5776C33.7531 27.7637 33.6303 27.9499 33.5081 28.136C34.4489 28.3823 34.1781 28.1919 34.6501 27.7268C34.6654 27.9013 34.6807 28.0758 34.696 28.2503C35.5706 27.7509 35.7605 28.2635 35.9449 28.2552C36.3203 28.2365 36.6361 26.1315 38.2645 28.0799C38.8181 27.0454 38.9494 29.0591 39.247 28.0094C40.3972 29.0481 38.326 28.7877 37.3956 28.8216C37.3951 28.8217 37.3946 28.8217 37.3942 28.8217C37.3234 28.8239 37.4492 29.003 37.1989 29.0072ZM42.6173 27.6007C42.0448 28.549 44.5417 28.4769 43.6342 27.2171C43.5079 27.1822 43.3819 27.1473 43.2561 27.1124C43.0417 27.2751 42.8282 27.4379 42.6158 27.6008C42.6163 27.6008 42.6168 27.6007 42.6173 27.6007ZM66.773 27.0464C69.1358 26.5891 67.7656 26.1129 66.9792 26.6525C66.8225 26.7595 66.7397 26.9017 66.773 27.0464ZM115.799 26.0177C115.833 25.9081 115.867 25.7985 115.901 25.6889C115.097 25.7994 113.534 25.3952 113.563 26.1316C114.309 26.0934 115.054 26.0554 115.799 26.0177ZM109.429 26.5728C109.602 26.615 110.311 26.7111 110.222 26.4365C109.913 26.245 109.604 26.0536 109.295 25.8622C109.154 25.9861 109.012 26.11 108.871 26.2339C109.071 26.2728 109.382 26.5618 109.429 26.5728Z" fill="#FBBF4A"/>
</svg>
